<?xml version="1.0" encoding="utf-8"?>
<!-- Generator: Adobe Illustrator 15.0.0, SVG Export Plug-In . SVG Version: 6.00 Build 0)  -->
<!DOCTYPE svg PUBLIC "-//W3C//DTD SVG 1.1//EN" "http://www.w3.org/Graphics/SVG/1.1/DTD/svg11.dtd">
<svg version="1.1" id="Layer_1" xmlns="http://www.w3.org/2000/svg" xmlns:xlink="http://www.w3.org/1999/xlink" x="0px" y="0px"
	 width="64px" height="64px" viewBox="0 0 64 64" enable-background="new 0 0 64 64" xml:space="preserve">
<rect x="24" y="42" fill="#BF8D69" width="16" height="18"/>
<path fill="#018BC9" d="M40,48c0,0-2.463,7.75-8.117,7.75C26.229,55.754,24,48.012,24,48.012C11.93,48.313,10,56.584,10,62h44
	C54,53.859,52.066,48.301,40,48z"/>
<path fill="#C8A35D" d="M32,2C12.061,2,12.055,13.999,12.055,29h39.89C51.944,13.999,51.939,2,32,2z"/>
<path fill="#DEA885" d="M16.016,34.832c2.16-2.01,0.199-9.899-2.587-10.375C7.477,23.442,11.354,39.172,16.016,34.832z"/>
<path fill="#DEA885" d="M47.985,34.832c-2.16-2.01-0.2-9.899,2.587-10.375C56.523,23.442,52.646,39.17,47.985,34.832z"/>
<path fill="#EBBEA0" d="M32,10c-20.832,0-12.438,2.413-18,14.65c0,0,0.041,5.611,1.205,11.631C16.707,44.041,25.439,50,32,50
	c6.563,0,15.295-5.959,16.797-13.719C49.961,30.262,50,24.65,50,24.65C44.439,12.413,52.833,10,32,10z"/>
<path fill="#C8A35D" d="M47.928,8.163c7.43,10.189-27.057,7.531-34.23,6.044C13.697,14.207,24.233-0.161,47.928,8.163z"/>
<path fill="#A3864C" d="M13.697,14.207C24,16.375,55.498,16.075,45.584,5.33C61.748,18.226,22.422,19.374,13.697,14.207z"/>
<path fill="#BF8D69" d="M36,35.427c0,2.603-8,2.603-8,0C28,34.83,36,34.83,36,35.427z"/>
<path fill="#6B4435" d="M36.869,43.234c-3.139-1.801-6.619-1.791-9.738,0c-0.377,0.215-0.715-0.158-0.461-0.502
	c0.951-1.289,2.871-2.436,5.33-2.436s4.379,1.146,5.328,2.436C37.584,43.076,37.244,43.449,36.869,43.234z"/>
<path fill="#BF8D69" d="M34.615,45.053c-1.686-1.318-3.557-1.311-5.232,0c-0.201,0.156-0.383-0.115-0.246-0.367
	C29.646,43.74,30.68,42.9,32,42.9s2.352,0.84,2.863,1.785C35,44.938,34.818,45.209,34.615,45.053z"/>
<path fill="#BF8D69" d="M36.285,22.974c-1.768-0.453-2.271,1.5-0.457,1.772c5.896,0.889,8.375-3.331,11.799-1.233
	C44.8,20.366,41.07,24.203,36.285,22.974z"/>
<path fill="#BF8D69" d="M27.715,22.974c-4.785,1.229-8.515-2.607-11.342,0.539c3.424-2.098,5.902,2.122,11.799,1.233
	C29.986,24.474,29.482,22.521,27.715,22.974z"/>
<path fill="#F5F5F5" d="M26.975,25.844l-7.584-0.508c-0.951,0.584-1.67,1.475-1.924,2.693c1.479,3.678,10.006,3.051,11,0.725
	C28.461,27.574,28.035,26.555,26.975,25.844z"/>
<path fill="#45332C" d="M21.164,25.393c-0.568,0.482-0.947,1.191-0.947,2.133c0,4.156,6.287,4.156,6.287,0
	c0-0.602-0.158-1.105-0.42-1.518C25.965,25.82,21.164,25.393,21.164,25.393z"/>
<path fill="#F5F5F5" d="M37.023,25.844l7.584-0.508c0.953,0.584,1.672,1.475,1.924,2.693c-1.477,3.678-10.004,3.051-11,0.725
	C35.539,27.574,35.965,26.555,37.023,25.844z"/>
<path fill="#45332C" d="M42.836,25.393c0.566,0.482,0.945,1.191,0.945,2.133c0,4.156-6.285,4.156-6.285,0
	c0-0.602,0.158-1.105,0.42-1.518C38.035,25.82,42.836,25.393,42.836,25.393z"/>
<path fill="#F5F5F5" d="M37.898,26.756c0,1.082,1.563,1.082,1.563,0C39.461,25.754,37.898,25.754,37.898,26.756z"/>
<path fill="#F5F5F5" d="M22.377,26.537c0,1.08-1.563,1.08-1.563,0C20.814,25.535,22.377,25.535,22.377,26.537z"/>
<path fill="#45332C" d="M28.467,28.795c-0.086-0.936-0.57-2.295-1.805-2.529c-1.322-0.252-2.398,0.414-3.672,0.156
	c-1.141-0.197-2.504-0.736-3.5-0.484c-1.666,0.42-1.818,1.498-2.023,2.057c0-0.994,0.301-2.463,1.992-2.885
	c1.125-0.281,2.342,0.078,3.508,0.227c1.648,0.211,2.68-0.086,3.68,0.227C28.1,26.016,28.693,27.344,28.467,28.795z"/>
<path fill="#45332C" d="M35.531,28.795c0.086-0.936,0.57-2.295,1.805-2.529c1.324-0.252,2.398,0.414,3.672,0.156
	c1.143-0.197,2.506-0.736,3.5-0.484c1.666,0.42,1.82,1.498,2.023,2.057c0.002-0.994-0.301-2.463-1.992-2.885
	c-1.125-0.281-2.34,0.078-3.508,0.227c-1.648,0.211-2.68-0.086-3.68,0.227C35.9,26.016,35.305,27.344,35.531,28.795z"/>
</svg>
