<?xml version="1.0" encoding="utf-8"?>
<!-- Generator: Adobe Illustrator 15.0.0, SVG Export Plug-In . SVG Version: 6.00 Build 0)  -->
<!DOCTYPE svg PUBLIC "-//W3C//DTD SVG 1.1//EN" "http://www.w3.org/Graphics/SVG/1.1/DTD/svg11.dtd">
<svg version="1.1" id="Layer_1" xmlns="http://www.w3.org/2000/svg" xmlns:xlink="http://www.w3.org/1999/xlink" x="0px" y="0px"
	 width="64px" height="64px" viewBox="0 0 64 64" enable-background="new 0 0 64 64" xml:space="preserve">
<path fill="#018BC9" d="M2,62V51.191c0,0,5.483-2.66,9.851-6.424c3.432-2.957,16.243,9.592,13.36,12.99
	C23.322,59.984,22.555,62,22.555,62H2z"/>
<path fill="#EBBEA0" d="M12.284,45.51c0,0,7.688-7.488,8.075-10.551c0.531-4.188,0.687-7.734,2.361-12.67
	c1.625-4.791,2.951-9.969,3.424-18.186c0.118-2.055,4.202-3.18,5.855-0.637v46.656c0,0-0.826,1.961-5.136,3.021
	c-1.12,0.275-2.42,3.711-2.42,3.711C20.32,57.264,12.451,49.234,12.284,45.51z"/>
<path fill="#018BC9" d="M62,62V51.191c0,0-5.483-2.66-9.852-6.424c-3.432-2.957-16.243,9.592-13.36,12.99
	C40.677,59.984,41.444,62,41.444,62H62z"/>
<path fill="#EBBEA0" d="M51.715,45.51c0,0-7.687-7.488-8.074-10.551c-0.531-4.188-0.687-7.734-2.361-12.67
	c-1.626-4.791-2.951-9.969-3.424-18.186C37.737,2.049,33.652,0.924,32,3.467v46.656c0,0,0.826,1.961,5.135,3.021
	c1.121,0.275,2.42,3.711,2.42,3.711C43.68,57.264,51.548,49.234,51.715,45.51z"/>
<path fill="#BF8D69" d="M38.634,51.807c-3.981-0.996-4.745-2.842-4.745-2.842s-0.547-12.189-0.644-24.195
	c0.05-5.256,0.231-9.988,0.644-13.012c0.376-2.766,2.921-1.881,3.96-1.02c-0.163-2.102-2.779-2.467-4.313-1.895
	c0.092-1.43,0.208-2.705,0.353-3.768c0.389-2.861,2.909-1.891,3.96-1.018C37.69,2.033,33.641,0.941,32,3.467
	c-1.641-2.525-5.691-1.434-5.85,0.592c1.052-0.873,3.571-1.842,3.961,1.018c0.145,1.063,0.26,2.338,0.353,3.768
	c-1.534-0.572-4.149-0.207-4.313,1.895c1.039-0.861,3.585-1.746,3.961,1.02c0.411,3.023,0.594,7.756,0.644,13.012
	c-0.097,12.006-0.644,24.195-0.644,24.195s-0.764,1.846-4.746,2.842c-0.828,0.207-2.176,3.496-2.684,4.809
	c0.633,0.203,1.229,0.293,1.763,0.24c0,0,1.3-3.436,2.42-3.711C31.174,52.084,32,50.123,32,50.123s0.826,1.961,5.135,3.021
	c1.121,0.275,2.42,3.711,2.42,3.711c0.534,0.053,1.13-0.037,1.764-0.24C40.811,55.303,39.463,52.014,38.634,51.807z"/>
</svg>
