<?xml version="1.0" encoding="utf-8"?>
<!-- Generator: Adobe Illustrator 15.0.0, SVG Export Plug-In . SVG Version: 6.00 Build 0)  -->
<!DOCTYPE svg PUBLIC "-//W3C//DTD SVG 1.1//EN" "http://www.w3.org/Graphics/SVG/1.1/DTD/svg11.dtd">
<svg version="1.1" id="Layer_1" xmlns="http://www.w3.org/2000/svg" xmlns:xlink="http://www.w3.org/1999/xlink" x="0px" y="0px"
	 width="64px" height="64px" viewBox="0 0 64 64" enable-background="new 0 0 64 64" xml:space="preserve">
<path fill="#875B49" d="M49.381,5.68C43.373-1.797,13.58,1.199,13.58,23.248C13.705,35.094,15.697,62,37.518,62
	C59.336,62,61.33,35.207,61.58,23.248C61.58,15.903,57.217,7.221,49.381,5.68z"/>
<path fill="#6B4435" d="M13.926,30.484C15,43.555,19.471,62,37.539,62c18.127,0,22.566-18.486,23.695-31.602
	c-0.594-6.039-4.256-13.838-12.203-23.032C32.744,17.655,15.15,16.053,13.926,30.484z"/>
<rect x="29.441" y="42" fill="#946346" width="16.279" height="18"/>
<path fill="#B88A6F" d="M54.213,22.439c-2.488-5.864-7.049-12.227-7.049-12.227C30.477,20.24,16.371,15.208,20.289,34.212
	c1.857,9.017,13.012,16.001,17.408,16.001c4.391,0,15.826-6.931,17.402-16.001C56.014,28.957,55.371,25.171,54.213,22.439z"/>
<path fill="#F5F5F5" d="M52.951,26.36c-1.986,5.174-10.066,4.414-11.547,0.797C42.529,21.342,51.861,20.845,52.951,26.36z"/>
<path fill="#45332C" d="M43.467,25.81c0,4.563,6.6,4.563,6.6,0C50.066,21.574,43.467,21.574,43.467,25.81z"/>
<path fill="#45332C" d="M52.951,26.323c0-5.555-11.547-5.555-11.547,0.879C43.057,21.924,51.303,21.924,52.951,26.323z"/>
<path fill="#F5F5F5" d="M22.438,26.36c1.986,5.174,10.066,4.414,11.547,0.797C32.859,21.342,23.529,20.845,22.438,26.36z"/>
<path fill="#45332C" d="M31.922,25.81c0,4.563-6.6,4.563-6.6,0C25.322,21.574,31.922,21.574,31.922,25.81z"/>
<path fill="#45332C" d="M22.438,26.323c0-5.553,11.547-5.553,11.547,0.877C32.334,21.924,24.086,21.924,22.438,26.323z"/>
<path fill="#F5F5F5" d="M43.875,24.7c0,1.142,1.648,1.142,1.648,0C45.523,23.643,43.875,23.643,43.875,24.7z"/>
<path fill="#F5F5F5" d="M27.584,24.469c0,1.14-1.648,1.14-1.648,0C25.936,23.41,27.584,23.41,27.584,24.469z"/>
<path fill="#80553C" d="M45.941,39.628c-1.551,1.755-2.521,4.861-8.248,4.861c-4.994,0-6.371-2.736-8.246-4.861H45.941z"/>
<path fill="#FFFFFF" d="M44.91,39.682c-3.393,3.476-10.994,3.523-14.434,0H44.91z"/>
<path fill="#80553C" d="M37.695,39.348c-3.232-1.417-3.258-0.057-8.248,0.28c6.303,0.706,10.191,0.706,16.494,0
	C40.951,39.291,40.926,37.931,37.695,39.348z"/>
<path fill="#946346" d="M52.252,21.375c-3.498-1.44-8.283-1.722-10.742-0.76c-0.518,0.203-0.502,1.443-0.043,1.319
	c3.521-0.959,7.578-1.034,10.916,0.126C52.83,22.219,52.775,21.593,52.252,21.375z"/>
<path fill="#946346" d="M23.01,21.378c3.496-1.441,8.283-1.723,10.742-0.763c0.518,0.203,0.502,1.445,0.043,1.319
	c-3.523-0.959-7.578-1.034-10.914,0.128C22.432,22.219,22.484,21.593,23.01,21.378z"/>
<path fill="#946346" d="M41.816,34.635c0,2.647-8.135,2.647-8.135,0C33.682,34.026,41.816,34.026,41.816,34.635z"/>
<path fill="#8E3ED6" d="M4.631,19.693h9.525c0,0-9.18,25.476,9.297,28.991c1.732-0.396,3.719-0.63,5.988-0.688
	c0,0,2.412,7.749,8.141,7.749c5.727,0,8.139-7.734,8.139-7.734C57.947,48.304,62,53.855,62,62H12.115
	C-0.529,47.029,0.871,36.963,4.631,19.693z"/>
<path fill="#B88A6F" d="M22.721,13.063c-0.586-1.208-2.594-1.208-4.707,0.932c-1.26,1.277-1.676,1.813-2.662,1.916l0.33-10.699
	c0.031-0.88-0.658-1.64-1.533-1.674h-0.008c-0.879-0.018-1.609,0.69-1.637,1.604l0.031-1.139c0.037-1.087-0.779-1.984-1.818-2.002
	C9.678,1.967,8.809,2.813,8.775,3.882L8.75,4.728c0.027-0.932-0.68-1.726-1.584-1.743H7.162C6.256,2.95,5.5,3.692,5.469,4.624
	L5.41,6.522C5.439,5.643,4.809,4.917,3.965,4.9c-0.84-0.018-1.516,0.655-1.541,1.535c0,0-1.027,12.856,0.117,15.635
	c1.705,4.142,11.078,5.505,14.264-1.363c0.633-1.363,1.863-2.347,2.973-3.606C21.117,15.582,23.363,14.408,22.721,13.063z"/>
</svg>
