<?xml version="1.0" encoding="utf-8"?>
<!-- Generator: Adobe Illustrator 15.0.0, SVG Export Plug-In . SVG Version: 6.00 Build 0)  -->
<!DOCTYPE svg PUBLIC "-//W3C//DTD SVG 1.1//EN" "http://www.w3.org/Graphics/SVG/1.1/DTD/svg11.dtd">
<svg version="1.1" id="Layer_1" xmlns="http://www.w3.org/2000/svg" xmlns:xlink="http://www.w3.org/1999/xlink" x="0px" y="0px"
	 width="64px" height="64px" viewBox="0 0 64 64" enable-background="new 0 0 64 64" xml:space="preserve">
<path fill="#785647" d="M44.912,32.297c0.467,3.85,14.1,11.742,16.824-2.351C64.596,15.143,43.246,18.556,44.912,32.297z"/>
<path fill="#C4926E" d="M59.666,25.319c-3.451-2.59-10.203,1.32-9.199,9.538c0.053,0.422-1.225-0.799-1.34-1.73
	C47.965,23.608,57.199,19.876,59.666,25.319z"/>
<path fill="#EBBB96" d="M59.666,25.319c0.619,1.361,0.818,3.288,0.32,5.852c-1.711,8.796-9.467,4.108-9.52,3.687
	C49.463,26.64,56.215,22.729,59.666,25.319z"/>
<path fill="#785647" d="M19.088,32.297c-0.467,3.85-14.1,11.742-16.823-2.351C-0.596,15.143,20.756,18.556,19.088,32.297z"/>
<path fill="#C4926E" d="M4.334,25.319c3.451-2.59,10.202,1.32,9.2,9.538c-0.054,0.422,1.226-0.799,1.339-1.73
	C16.034,23.608,6.802,19.876,4.334,25.319z"/>
<path fill="#EBBB96" d="M4.334,25.319c-0.618,1.361-0.818,3.288-0.32,5.852c1.71,8.796,9.467,4.108,9.521,3.687
	C14.536,26.64,7.785,22.729,4.334,25.319z"/>
<path fill="#785647" d="M51.488,26.735C51.488,13.007,41.457,8.086,32,8.086s-19.489,4.921-19.489,18.649
	c0,4.174-4.483,7.685-4.512,13.267C7.931,54.391,20,60,32,60s24.072-5.604,24-20C55.971,34.418,51.488,30.909,51.488,26.735z"/>
<path fill="#785647" d="M38.695,9.025c0,0-0.262-1.608,2.139-3.135c0,0-5.496-0.563-7.891,1.777c0,0-0.41-1.899,0.957-3.668
	c0,0-6.193,0-10.432,6.339l19.525,4.001c0,0-0.326-3.155,2.297-4.565C45.291,9.774,41.992,8.239,38.695,9.025z"/>
<path fill="#EBBB96" d="M32.002,22.783c-15.1-8.57-24.877,10.017-12.098,18.252c-2.794,8.521-0.144,15.541,12.098,15.541
	c12.236,0,14.887-7.02,12.094-15.541C56.875,32.8,47.098,14.213,32.002,22.783z"/>
<path fill="#302C3B" d="M27.072,39.824c-0.498-1.768,4.475,1.195,3.805,1.398C29.662,41.594,27.469,41.223,27.072,39.824z"/>
<path fill="#302C3B" d="M36.926,39.824c0.5-1.768-4.471,1.195-3.803,1.398C34.338,41.594,36.529,41.223,36.926,39.824z"/>
<path fill="#302C3B" d="M39.936,46c-1.658,0-4.824,0-7.936,0c-3.113,0-6.277,0-7.938,0c-0.367,0-0.563,0.254-0.563,0.5
	c0,3.635,2.98,7.5,8.5,7.5s8.5-3.865,8.5-7.5C40.5,46.254,40.305,46,39.936,46z"/>
<path fill="#F46C60" d="M27.5,51.57c1.302,0.9,2.801,1.43,4.5,1.43s3.199-0.529,4.5-1.43C35.246,50.596,33.752,50,32,50
	S28.756,50.596,27.5,51.57z"/>
<path opacity="0.3" fill="#302C3B" d="M24.56,31.594c2.83-2.298,6.432-5.648,5.35-7.062c-1.428-1.863-6.974,2.139-9.635,4.237
	c2.41-2.007,6.846-5.898,5.251-6.09c-4.358-0.522-8.968,3.781-8.968,3.781c-2.279,0.366-2.474,27.85-2.474,27.85
	s4.56-11.49,4.716-11.521c4.351-0.879,11.473-9.504,11.794-13.209C30.772,27.513,27.274,29.647,24.56,31.594z"/>
<path opacity="0.3" fill="#302C3B" d="M47.444,26.461c0,0-4.611-4.304-8.97-3.781c-1.593,0.191,2.84,4.081,5.249,6.089
	c-2.66-2.099-8.203-6.1-9.631-4.236c-1.082,1.413,2.52,4.764,5.35,7.062c-2.715-1.946-6.213-4.081-6.034-2.014
	c0.319,3.705,7.441,12.33,11.792,13.209c0.157,0.031,4.717,11.521,4.717,11.521S49.722,26.827,47.444,26.461z"/>
<path fill="#8A6859" d="M9.326,32.592L2,62h11.949c-1.561-7.721,4.002-21.006,4.002-21.006L9.326,32.592z"/>
<path fill="#F5CFA0" d="M15.654,24.931c0,0,4.879-4.489,9.492-3.944c2.279,0.27-7.082,7.579-7.082,7.579s9.713-8.23,11.723-5.646
	c1.824,2.347-8.926,9.819-8.926,9.819s9.957-8.056,9.65-4.555c-0.34,3.864-7.879,12.861-12.484,13.777
	c-6.641,1.324-11.789-2.908-8.314-17.504C11.453,17.144,13.242,25.313,15.654,24.931z"/>
<path fill="#8A6859" d="M54.676,32.592L62,62H50.051c1.563-7.721-4-21.006-4-21.006L54.676,32.592z"/>
<path fill="#F5CFA0" d="M48.348,24.931c0,0-4.881-4.489-9.494-3.944c-2.277,0.27,7.082,7.579,7.082,7.579s-9.711-8.23-11.721-5.646
	c-1.824,2.347,8.926,9.819,8.926,9.819s-9.957-8.056-9.65-4.555c0.338,3.864,7.877,12.861,12.482,13.777
	c6.641,1.324,11.791-2.908,8.314-17.504C52.547,17.144,50.758,25.313,48.348,24.931z"/>
</svg>
