<?xml version="1.0" encoding="utf-8"?>
<!-- Generator: Adobe Illustrator 15.0.0, SVG Export Plug-In . SVG Version: 6.00 Build 0)  -->
<!DOCTYPE svg PUBLIC "-//W3C//DTD SVG 1.1//EN" "http://www.w3.org/Graphics/SVG/1.1/DTD/svg11.dtd">
<svg version="1.1" id="Layer_1" xmlns="http://www.w3.org/2000/svg" xmlns:xlink="http://www.w3.org/1999/xlink" x="0px" y="0px"
	 width="64px" height="64px" viewBox="0 0 64 64" enable-background="new 0 0 64 64" xml:space="preserve">
<path fill="#EA8800" d="M43.801,5.68C37.793-1.796,8,1.2,8,23.248C8.125,35.094,10.117,62,31.938,62
	C53.755,62,55.75,35.207,56,23.248C56,15.903,51.637,7.221,43.801,5.68z"/>
<path fill="#D67C00" d="M8.346,30.485C9.42,43.555,13.891,62,31.959,62c18.126,0,22.566-18.486,23.695-31.601
	c-0.594-6.04-4.257-13.838-12.203-23.032C27.164,17.655,9.569,16.053,8.346,30.485z"/>
<rect x="24" y="42" fill="#E6A400" width="16" height="18"/>
<path fill="#8E3ED6" d="M40,48c0,0.002-2.371,7.75-8.002,7.752C26.371,55.754,24,48.012,24,48.012C11.982,48.313,8,53.859,8,62h48
	C56,53.859,52.014,48.301,40,48z"/>
<path fill="#FDCA47" d="M48.632,22.901c-2.487-5.864-7.048-12.225-7.048-12.225c-16.688,10.026-30.793,4.995-26.876,23.998
	c1.858,9.016,13.013,16,17.409,16c4.39,0,15.826-6.93,17.402-16C50.434,29.419,49.791,25.633,48.632,22.901z"/>
<path fill="#E6A400" d="M36.236,34.659c0,2.647-8.136,2.647-8.136,0C28.101,34.051,36.236,34.051,36.236,34.659z"/>
<path fill="#9E7000" d="M36.869,43.234c-3.139-1.801-6.619-1.791-9.738,0c-0.377,0.215-0.715-0.158-0.461-0.502
	c0.951-1.289,2.871-2.436,5.33-2.436s4.379,1.146,5.328,2.436C37.584,43.076,37.244,43.449,36.869,43.234z"/>
<path fill="#E6A400" d="M34.615,45.053c-1.686-1.318-3.557-1.311-5.232,0c-0.201,0.156-0.383-0.115-0.246-0.367
	C29.646,43.74,30.68,42.9,32,42.9s2.352,0.84,2.863,1.785C35,44.938,34.818,45.209,34.615,45.053z"/>
<path fill="#E6A400" d="M36.285,22.225c-1.768-0.454-2.271,1.5-0.457,1.772c5.896,0.888,8.375-3.331,11.799-1.233
	C44.8,19.617,41.07,23.454,36.285,22.225z"/>
<path fill="#E6A400" d="M27.715,22.225c-4.785,1.229-8.515-2.608-11.342,0.539c3.424-2.098,5.903,2.122,11.799,1.233
	C29.986,23.724,29.482,21.771,27.715,22.225z"/>
<path fill="#F5F5F5" d="M26.975,24.844l-7.584-0.508c-0.951,0.584-1.67,1.475-1.924,2.693c1.479,3.678,10.006,3.051,11,0.725
	C28.461,26.575,28.035,25.555,26.975,24.844z"/>
<path fill="#45332C" d="M21.164,24.393c-0.568,0.482-0.947,1.191-0.947,2.133c0,4.156,6.287,4.156,6.287,0
	c0-0.602-0.158-1.105-0.42-1.518C25.965,24.821,21.164,24.393,21.164,24.393z"/>
<path fill="#F5F5F5" d="M37.023,24.844l7.584-0.508c0.953,0.584,1.672,1.475,1.924,2.693c-1.477,3.678-10.004,3.051-11,0.725
	C35.539,26.575,35.965,25.555,37.023,24.844z"/>
<path fill="#45332C" d="M42.836,24.393c0.566,0.482,0.945,1.191,0.945,2.133c0,4.156-6.285,4.156-6.285,0
	c0-0.602,0.158-1.105,0.42-1.518C38.035,24.821,42.836,24.393,42.836,24.393z"/>
<path fill="#F5F5F5" d="M37.898,25.756c0,1.082,1.563,1.082,1.563,0C39.461,24.754,37.898,24.754,37.898,25.756z"/>
<path fill="#F5F5F5" d="M22.377,25.538c0,1.08-1.563,1.08-1.563,0C20.814,24.536,22.377,24.536,22.377,25.538z"/>
<path fill="#45332C" d="M28.467,27.795c-0.086-0.936-0.57-2.295-1.805-2.529c-1.322-0.252-2.398,0.414-3.672,0.156
	c-1.141-0.197-2.504-0.736-3.5-0.484c-1.666,0.42-1.818,1.498-2.023,2.057c0-0.994,0.301-2.463,1.992-2.885
	c1.125-0.281,2.342,0.078,3.508,0.227c1.648,0.211,2.68-0.086,3.68,0.227C28.1,25.016,28.693,26.344,28.467,27.795z"/>
<path fill="#45332C" d="M35.531,27.795c0.086-0.936,0.57-2.295,1.805-2.529c1.324-0.252,2.398,0.414,3.672,0.156
	c1.143-0.197,2.506-0.736,3.5-0.484c1.666,0.42,1.82,1.498,2.023,2.057c0.002-0.994-0.301-2.463-1.992-2.885
	c-1.125-0.281-2.34,0.078-3.508,0.227c-1.648,0.211-2.68-0.086-3.68,0.227C35.9,25.016,35.305,26.344,35.531,27.795z"/>
</svg>
