<?xml version="1.0" encoding="utf-8"?>
<!-- Generator: Adobe Illustrator 15.0.0, SVG Export Plug-In . SVG Version: 6.00 Build 0)  -->
<!DOCTYPE svg PUBLIC "-//W3C//DTD SVG 1.1//EN" "http://www.w3.org/Graphics/SVG/1.1/DTD/svg11.dtd">
<svg version="1.1" id="Layer_1" xmlns="http://www.w3.org/2000/svg" xmlns:xlink="http://www.w3.org/1999/xlink" x="0px" y="0px"
	 width="64px" height="64px" viewBox="0 0 64 64" enable-background="new 0 0 64 64" xml:space="preserve">
<path fill="#C8A35D" d="M41.28,16.933c-4.725-5.983-28.155-3.586-28.155,14.058C13.223,40.47,14.79,62,31.95,62
	c17.159,0,18.729-21.44,18.925-31.009C50.875,25.114,47.444,18.166,41.28,16.933z"/>
<path fill="#A3864C" d="M13.396,36.781C14.242,47.241,17.757,62,31.967,62c14.256,0,17.749-14.792,18.637-25.288
	c-0.468-4.832-3.349-11.072-9.597-18.43C28.195,26.516,14.358,25.233,13.396,36.781z"/>
<path fill="#EBBEA0" d="M16.996,8.036c1.678-2.602,6.764-5.254,7.833-5.563C26.236,2.067,32,1.725,32,2.321
	c0,2.658-5.348,1.793-7.008,5.326c-1.629,3.467-2.182,3.707-3.543,4.701C20.201,13.258,16.129,9.377,16.996,8.036z"/>
<path fill="#EBBEA0" d="M47.004,8.036c-1.678-2.602-6.764-5.254-7.833-5.563C37.764,2.067,32,1.725,32,2.321
	c0,2.658,5.347,1.793,7.008,5.326c1.629,3.467,2.182,3.707,3.543,4.701C43.799,13.258,47.87,9.377,47.004,8.036z"/>
<polygon fill="#BF8D69" points="39,60.137 39,43.137 25,43.137 25,60.148 "/>
<path fill="#8E3ED6" d="M47.445,6.903c-1.512-1.395-8.049,3.811-6.875,5.5c3.563,5.125,10.938,13.285,10.938,22.312
	c0,2.313-8.097,16.26-12.563,19.375c0,6.91-13.891,6.91-13.891,0c-4.466-3.115-12.563-17.063-12.563-19.375
	c0-9.027,7.375-17.187,10.938-22.312c1.174-1.689-5.363-6.895-6.875-5.5C5.366,17.215,2,29.094,2,34.402
	C2,41.982,12.055,62,12.055,62h39.891C51.945,62,62,41.982,62,34.402C62,29.094,58.634,17.215,47.445,6.903z"/>
<path fill="#EBBEA0" d="M46.152,31.897c-2.115-4.99-5.997-10.404-5.997-10.404c-14.2,8.533-26.205,4.251-22.871,20.422
	c1.582,7.672,11.074,13.617,14.815,13.617c3.735,0,13.468-5.898,14.81-13.617C47.685,37.443,47.138,34.222,46.152,31.897z"/>
<path fill="#F5F5F5" d="M45.081,35.233c-1.69,4.402-8.566,3.756-9.826,0.678C36.212,30.963,44.151,30.54,45.081,35.233z"/>
<path fill="#45332C" d="M37.01,34.765c0,3.883,5.614,3.883,5.614,0C42.624,31.161,37.01,31.161,37.01,34.765z"/>
<path fill="#45332C" d="M45.081,35.202c0-4.727-9.826-4.727-9.826,0.748C36.659,31.458,43.676,31.458,45.081,35.202z"/>
<path fill="#F5F5F5" d="M19.112,35.233c1.69,4.402,8.568,3.756,9.826,0.678C27.982,30.963,20.043,30.54,19.112,35.233z"/>
<path fill="#45332C" d="M27.184,34.765c0,3.883-5.614,3.883-5.614,0C21.569,31.161,27.184,31.161,27.184,34.765z"/>
<path fill="#45332C" d="M19.112,35.202c0-4.725,9.826-4.725,9.826,0.746C27.536,31.458,20.517,31.458,19.112,35.202z"/>
<path fill="#F5F5F5" d="M37.355,33.821c0,0.971,1.404,0.971,1.404,0C38.76,32.921,37.355,32.921,37.355,33.821z"/>
<path fill="#F5F5F5" d="M23.493,33.624c0,0.97-1.402,0.97-1.402,0C22.091,32.724,23.493,32.724,23.493,33.624z"/>
<path fill="#BF8C6B" d="M39.113,46.524c-1.319,1.492-2.144,4.137-7.017,4.137c-4.252,0-5.422-2.328-7.02-4.137H39.113z"/>
<path fill="#FFFFFF" d="M38.237,46.569c-2.889,2.958-9.357,2.998-12.282,0H38.237z"/>
<path fill="#BF8C6B" d="M32.097,46.286c-2.749-1.207-2.771-0.049-7.02,0.238c5.364,0.6,8.675,0.6,14.036,0
	C34.869,46.237,34.846,45.079,32.097,46.286z"/>
<path fill="#BF8D69" d="M44.483,30.992c-2.975-1.226-7.049-1.465-9.14-0.647c-0.44,0.173-0.427,1.229-0.038,1.123
	c2.999-0.816,6.451-0.88,9.291,0.107C44.978,31.709,44.931,31.177,44.483,30.992z"/>
<path fill="#BF8D69" d="M19.601,30.994c2.976-1.227,7.048-1.466,9.141-0.649c0.441,0.173,0.427,1.23,0.036,1.123
	c-2.998-0.816-6.449-0.88-9.288,0.109C19.107,31.709,19.153,31.177,19.601,30.994z"/>
<path fill="#BF8D69" d="M35.605,42.274c0,2.254-6.925,2.254-6.925,0C28.681,41.757,35.605,41.757,35.605,42.274z"/>
</svg>
