<?xml version="1.0" encoding="utf-8"?>
<!-- Generator: Adobe Illustrator 15.0.0, SVG Export Plug-In . SVG Version: 6.00 Build 0)  -->
<!DOCTYPE svg PUBLIC "-//W3C//DTD SVG 1.1//EN" "http://www.w3.org/Graphics/SVG/1.1/DTD/svg11.dtd">
<svg version="1.1" id="Layer_1" xmlns="http://www.w3.org/2000/svg" xmlns:xlink="http://www.w3.org/1999/xlink" x="0px" y="0px"
	 width="64px" height="64px" viewBox="0 0 64 64" enable-background="new 0 0 64 64" xml:space="preserve">
<rect x="29.441" y="41.99" fill="#DBA97F" width="16.279" height="18.002"/>
<path fill="#018BC9" d="M4.631,19.694h9.525c0,0-9.18,25.474,9.296,28.99c1.732-0.395,3.719-0.629,5.988-0.688
	c0,0,2.412,7.748,8.141,7.748c5.728,0,8.139-7.734,8.139-7.734C57.947,48.303,62,53.855,62,62H12.116
	C-0.529,47.029,0.872,36.963,4.631,19.694z"/>
<path fill="#594640" d="M37.581,2C17.642,2,17.636,13.999,17.636,29h39.889C57.525,13.999,57.521,2,37.581,2z"/>
<path fill="#F2C198" d="M21.596,34.832c2.161-2.009,0.199-9.9-2.586-10.375C13.057,23.442,16.936,39.172,21.596,34.832z"/>
<path fill="#F2C198" d="M53.566,34.832c-2.16-2.009-0.2-9.9,2.587-10.375C62.104,23.442,58.228,39.17,53.566,34.832z"/>
<path fill="#FCD5B2" d="M37.581,10c-20.832,0-12.438,2.412-18,14.65c0,0,0.04,5.611,1.205,11.63C22.288,44.041,31.021,50,37.581,50
	c6.563,0,15.295-5.959,16.797-13.719c1.164-6.019,1.203-11.63,1.203-11.63C50.021,12.413,58.414,10,37.581,10z"/>
<path fill="#F5F5F5" d="M52.381,26.417c-1.927,5.02-9.765,4.283-11.2,0.773C42.271,21.549,51.321,21.067,52.381,26.417z"/>
<path fill="#45332C" d="M43.181,25.883c0,4.426,6.4,4.426,6.4,0C49.581,21.774,43.181,21.774,43.181,25.883z"/>
<path fill="#45332C" d="M52.381,26.381c0-5.389-11.2-5.389-11.2,0.852C42.781,22.114,50.781,22.114,52.381,26.381z"/>
<path fill="#F5F5F5" d="M22.781,26.417c1.927,5.02,9.765,4.283,11.201,0.773C32.891,21.549,23.842,21.067,22.781,26.417z"/>
<path fill="#45332C" d="M31.981,25.883c0,4.426-6.4,4.426-6.4,0C25.581,21.774,31.981,21.774,31.981,25.883z"/>
<path fill="#45332C" d="M22.781,26.381c0-5.387,11.201-5.387,11.201,0.85C32.382,22.114,24.381,22.114,22.781,26.381z"/>
<path fill="#F5F5F5" d="M43.575,24.807c0,1.107,1.6,1.107,1.6,0C45.175,23.78,43.575,23.78,43.575,24.807z"/>
<path fill="#F5F5F5" d="M27.775,24.583c0,1.105-1.6,1.105-1.6,0C26.175,23.555,27.775,23.555,27.775,24.583z"/>
<path fill="#CC9D76" d="M37.581,39.072c-3.223-0.857-8,0.404-8,0.404c1.82,1.783,3.152,4.096,8,4.096c5.555,0,6.497-2.627,8-4.096
	C45.581,39.477,40.8,38.215,37.581,39.072z"/>
<path fill="#FFFFFF" d="M30.707,39.539c3.425,3.184,10.347,3.203,13.792,0C40.845,39.713,34.384,39.715,30.707,39.539z"/>
<path fill="#DBA97F" d="M51.954,21.463c-3.438-1.418-8.143-1.695-10.559-0.75c-0.51,0.199-0.494,1.42-0.043,1.297
	c3.463-0.943,7.451-1.016,10.73,0.125C52.524,22.29,52.472,21.674,51.954,21.463z"/>
<path fill="#DBA97F" d="M23.208,21.463c3.438-1.418,8.142-1.695,10.559-0.75c0.51,0.199,0.494,1.42,0.043,1.297
	c-3.464-0.943-7.451-1.016-10.73,0.125C22.638,22.29,22.691,21.674,23.208,21.463z"/>
<path fill="#594640" d="M53.509,8.163c7.43,10.189-27.056,7.531-34.23,6.045C19.279,14.208,29.814-0.162,53.509,8.163z"/>
<path fill="#422F2A" d="M19.279,14.208c10.302,2.168,41.8,1.867,31.886-8.877C67.329,18.225,28.003,19.374,19.279,14.208z"/>
<path fill="#DBA97F" d="M41.581,34.094c0,2.602-8,2.602-8,0C33.581,33.496,41.581,33.496,41.581,34.094z"/>
<path fill="#FCD5B2" d="M22.721,13.063c-0.587-1.209-2.593-1.209-4.708,0.932c-1.258,1.277-1.675,1.813-2.662,1.916l0.332-10.699
	c0.03-0.881-0.66-1.641-1.534-1.674h-0.007c-0.879-0.018-1.611,0.689-1.638,1.604l0.032-1.139c0.037-1.086-0.78-1.984-1.818-2.002
	c-1.04-0.033-1.91,0.813-1.942,1.881L8.75,4.727C8.778,3.795,8.07,3.002,7.166,2.985H7.163C6.256,2.95,5.5,3.692,5.47,4.624
	L5.41,6.522c0.03-0.879-0.601-1.605-1.445-1.621c-0.84-0.018-1.516,0.654-1.542,1.535c0,0-1.026,12.855,0.117,15.635
	c1.705,4.141,11.079,5.504,14.265-1.363c0.633-1.363,1.864-2.348,2.973-3.607C21.117,15.583,23.363,14.409,22.721,13.063z"/>
</svg>
