<?xml version="1.0" encoding="utf-8"?>
<!-- Generator: Adobe Illustrator 15.0.0, SVG Export Plug-In . SVG Version: 6.00 Build 0)  -->
<!DOCTYPE svg PUBLIC "-//W3C//DTD SVG 1.1//EN" "http://www.w3.org/Graphics/SVG/1.1/DTD/svg11.dtd">
<svg version="1.1" id="Layer_1" xmlns="http://www.w3.org/2000/svg" xmlns:xlink="http://www.w3.org/1999/xlink" x="0px" y="0px"
	 width="64px" height="64px" viewBox="0 0 64 64" enable-background="new 0 0 64 64" xml:space="preserve">
<path fill="#018BC9" d="M45.291,36.75c-8.242-4.363-13.293-0.465-13.293-0.465s-5.049-3.898-13.289,0.465
	C11.357,40.637,1.791,49.518,2.484,53.465c0,0,21.938,6.908,29.514,6.908c7.578,0,29.518-6.908,29.518-6.908
	C62.211,49.518,52.643,40.637,45.291,36.75z"/>
<path fill="#FDCA47" d="M33.283,58.912c7.787-5.285,10.918-5.234,11.053-5.285c0.688,1.238,1.674,4.842,1.99,6.59
	c-0.004,0-0.016,0.002-0.016,0.002c-0.66,1.691-11.607,2.611-13.533,0.768C32.383,60.609,32.256,59.611,33.283,58.912z"/>
<path fill="#018BC9" d="M54.961,46.67c2.873-0.613,8.885,2.818,6.486,8.043c-2.1,4.578-14.811,5.482-15.121,5.504
	c-0.316-1.748-1.303-5.352-1.99-6.59C46.482,52.805,52.578,47.182,54.961,46.67z"/>
<path fill="#FDCA47" d="M30.717,58.912c-7.787-5.285-10.918-5.234-11.053-5.285c-0.688,1.238-1.674,4.842-1.99,6.59
	c0.004,0,0.016,0.002,0.016,0.002c0.66,1.691,11.607,2.611,13.531,0.768C31.617,60.609,31.744,59.611,30.717,58.912z"/>
<path fill="#018BC9" d="M9.039,46.67c-2.873-0.613-8.885,2.818-6.486,8.043c2.1,4.578,14.811,5.482,15.121,5.504
	c0.316-1.748,1.303-5.352,1.99-6.59C17.518,52.805,11.422,47.182,9.039,46.67z"/>
<path fill="#006DAE" d="M43.029,53.297c0,0,2.484,4.25,3.305,6.92c0.07-3.373-0.445-5.186-0.816-6.107
	c1.73-1.953,8.512-6.902,9.451-7.439C50.686,47.984,43.029,53.297,43.029,53.297z"/>
<path fill="#006DAE" d="M20.969,53.297c0,0-2.482,4.25-3.305,6.92c-0.068-3.373,0.447-5.186,0.818-6.107
	c-1.73-1.953-8.514-6.902-9.453-7.439C13.314,47.984,20.969,53.297,20.969,53.297z"/>
<polygon fill="#0FB4D4" points="35.973,2 39.539,12.473 44.482,3.645 "/>
<polygon fill="#0FB4D4" points="53.209,8.242 48.494,17.168 58.367,15.893 "/>
<polygon fill="#0FB4D4" points="28.373,2 24.807,12.473 19.516,3.645 "/>
<polygon fill="#0FB4D4" points="10.789,8.242 15.506,17.168 5.633,15.893 "/>
<path fill="#EA8800" d="M31.999,14c-21.654,0-19.568,17.358-19.568,25.472h39.136C51.567,31.358,53.654,14,31.999,14z"/>
<path fill="#F5BC2C" d="M14.365,34.042c-6.873-0.889-2.396,12.91,2.987,9.105C19.846,41.382,17.582,34.459,14.365,34.042z"/>
<path fill="#F5BC2C" d="M49.635,34.042c-3.218,0.417-5.481,7.34-2.987,9.105C52.03,46.951,56.507,33.153,49.635,34.042z"/>
<path fill="#FDCA47" d="M49.411,35.87c0-11.576-6.838-9-17.411-9c-10.572,0-17.411-2.576-17.411,9c0,0,0.038,2.901,1.165,8.695
	C16.815,50.024,22.02,54,31.999,54c9.981,0,15.186-3.976,16.246-9.435C49.372,38.769,49.411,35.87,49.411,35.87z"/>
<path fill="#EA8800" d="M31.642,22.524c-3.164,5.638-15.01,9.163-19.081,8.797C16.248,27.593,17.885,17.993,31.642,22.524z"/>
<path fill="#D67C00" d="M12.561,31.321c5.184-1.354,11.917-4.116,19.081-8.797C28.478,28.162,18.076,32.612,12.561,31.321z"/>
<path fill="#EA8800" d="M47.624,22.22c-4.477,6.715-21.235,10.915-26.995,10.479C25.844,28.256,28.161,16.823,47.624,22.22z"/>
<path fill="#D67C00" d="M20.629,32.698C34.397,28.871,47.624,22.22,47.624,22.22C43.147,28.935,30.673,33.67,20.629,32.698z"/>
<path fill="#EA8800" d="M48.274,20.678c5.365,8.738-8.602,12.321-14.372,11.97C39.077,29.236,42.548,20.403,48.274,20.678z"/>
<path fill="#D67C00" d="M33.902,32.647c6.94-3.185,17.517-3.836,14.372-11.97C53.64,29.416,40.021,33.436,33.902,32.647z"/>
<path fill="#F5F5F5" d="M45.962,41.745c-1.818,4.734-9.212,4.039-10.566,0.729C36.425,37.153,44.962,36.697,45.962,41.745z"/>
<path fill="#45332C" d="M37.282,41.24c0,4.176,6.037,4.176,6.037,0C43.319,37.365,37.282,37.365,37.282,41.24z"/>
<path fill="#45332C" d="M45.962,41.711c0-5.083-10.566-5.083-10.566,0.804C36.905,37.685,44.452,37.685,45.962,41.711z"/>
<path fill="#F5F5F5" d="M18.037,41.745c1.819,4.734,9.212,4.039,10.566,0.729C27.575,37.153,19.038,36.697,18.037,41.745z"/>
<path fill="#45332C" d="M26.716,41.24c0,4.176-6.038,4.176-6.038,0C20.678,37.365,26.716,37.365,26.716,41.24z"/>
<path fill="#45332C" d="M18.037,41.711c0-5.082,10.566-5.082,10.566,0.803C27.095,37.685,19.546,37.685,18.037,41.711z"/>
<path fill="#F5F5F5" d="M37.653,40.226c0,1.045,1.51,1.045,1.51,0C39.163,39.257,37.653,39.257,37.653,40.226z"/>
<path fill="#F5F5F5" d="M22.748,40.015c0,1.043-1.51,1.043-1.51,0C21.238,39.045,22.748,39.045,22.748,40.015z"/>
<path fill="#E6A400" d="M45.559,35.827c-3.243-1.336-7.682-1.596-9.961-0.705c-0.481,0.188-0.466,1.34-0.041,1.225
	c3.269-0.891,7.029-0.96,10.124,0.117C46.097,36.609,46.046,36.028,45.559,35.827z"/>
<path fill="#E6A400" d="M18.439,35.827c3.243-1.336,7.682-1.596,9.961-0.705c0.481,0.188,0.466,1.34,0.042,1.225
	c-3.269-0.891-7.03-0.96-10.125,0.117C17.902,36.609,17.952,36.028,18.439,35.827z"/>
<path fill="#E6A400" d="M35.772,49.323c0,2.455-7.547,2.455-7.547,0C28.226,48.76,35.772,48.76,35.772,49.323z"/>
</svg>
