<?xml version="1.0" encoding="utf-8"?>
<!-- Generator: Adobe Illustrator 15.0.0, SVG Export Plug-In . SVG Version: 6.00 Build 0)  -->
<!DOCTYPE svg PUBLIC "-//W3C//DTD SVG 1.1//EN" "http://www.w3.org/Graphics/SVG/1.1/DTD/svg11.dtd">
<svg version="1.1" id="Layer_1" xmlns="http://www.w3.org/2000/svg" xmlns:xlink="http://www.w3.org/1999/xlink" x="0px" y="0px"
	 width="64px" height="64px" viewBox="0 0 64 64" enable-background="new 0 0 64 64" xml:space="preserve">
<path fill="#875B49" d="M55.39,34.058c8.59-14.546-9.578-19.142-11.655-12.188c0,0-4.203,21.328,12.622,21.026
	C54.176,41.893,52.18,39.492,55.39,34.058z"/>
<path fill="#6B4435" d="M51.364,21.465c-3.833-2.261-2.406-2.75,0.402-2.34c-3.395-1.071-7.034-0.322-7.988,2.517
	c-3.467,10.324-1.383,23.984,13.491,22.817C43.124,40.952,63.646,28.711,51.364,21.465z"/>
<path fill="#8E3ED6" d="M45.634,18.397c-5.182,0.083-0.996,16.15,4.354,10.153C52.993,25.18,48.927,18.334,45.634,18.397z"/>
<path fill="#8E3ED6" d="M45.291,36.75c-8.242-4.363-13.293-0.465-13.293-0.465s-5.049-3.898-13.289,0.465
	C11.357,40.637,1.791,49.518,2.484,53.465c0,0,21.938,6.908,29.514,6.908c7.578,0,29.518-6.908,29.518-6.908
	C62.211,49.518,52.643,40.637,45.291,36.75z"/>
<path fill="#B88A6F" d="M33.283,58.912c7.787-5.285,10.918-5.234,11.053-5.285c0.688,1.238,1.674,4.842,1.99,6.59
	c-0.004,0-0.016,0.002-0.016,0.002c-0.66,1.691-11.607,2.611-13.533,0.768C32.383,60.609,32.256,59.611,33.283,58.912z"/>
<path fill="#8E3ED6" d="M54.961,46.67c2.873-0.613,8.885,2.818,6.486,8.043c-2.1,4.578-14.811,5.482-15.121,5.504
	c-0.316-1.748-1.303-5.352-1.99-6.59C46.482,52.805,52.578,47.182,54.961,46.67z"/>
<path fill="#B88A6F" d="M30.717,58.912c-7.787-5.285-10.918-5.234-11.053-5.285c-0.688,1.238-1.674,4.842-1.99,6.59
	c0.004,0,0.016,0.002,0.016,0.002c0.66,1.691,11.607,2.611,13.531,0.768C31.617,60.609,31.744,59.611,30.717,58.912z"/>
<path fill="#8E3ED6" d="M9.039,46.67c-2.873-0.613-8.885,2.818-6.486,8.043c2.1,4.578,14.811,5.482,15.121,5.504
	c0.316-1.748,1.303-5.352,1.99-6.59C17.518,52.805,11.422,47.182,9.039,46.67z"/>
<path fill="#5D1E96" d="M43.029,53.297c0,0,2.484,4.25,3.305,6.92c0.07-3.373-0.445-5.186-0.816-6.107
	c1.73-1.953,8.512-6.902,9.451-7.439C50.686,47.984,43.029,53.297,43.029,53.297z"/>
<path fill="#5D1E96" d="M20.969,53.297c0,0-2.482,4.25-3.305,6.92c-0.068-3.373,0.447-5.186,0.818-6.107
	c-1.73-1.953-8.514-6.902-9.453-7.439C13.314,47.984,20.969,53.297,20.969,53.297z"/>
<polygon fill="#0FB4D4" points="35.973,2 39.539,12.473 44.482,3.645 "/>
<polygon fill="#0FB4D4" points="53.209,8.242 48.494,17.168 58.367,15.893 "/>
<polygon fill="#0FB4D4" points="28.373,2 24.807,12.473 19.516,3.645 "/>
<polygon fill="#0FB4D4" points="10.789,8.242 15.506,17.168 5.633,15.893 "/>
<path fill="#875B49" d="M32.001,14c-12.846,0-18.697,8.296-19.862,19.439c-0.618,5.907,0.751,6.162,5.675,9.681
	c5.8,4.146,22.574,4.146,28.373,0c4.924-3.519,6.293-3.773,5.676-9.681c-1.78-17.019-10.641-15.839-10.641-15.839
	S40.458,14,32.001,14z"/>
<path fill="#B07E61" d="M18.325,41.666c1.021-9.577-1.513-10.577-4.992-3.688C13.8,41.336,15.95,43.877,18.325,41.666z"/>
<path fill="#B07E61" d="M45.677,41.666c0.178-10.049-0.352-11.377,5.055-5.669C51.068,39.651,48.536,44.325,45.677,41.666z"/>
<path fill="#B88A6F" d="M48.302,33.456c-12.287-7.668-9.498-11.789-9.498-11.789C24.272,29.689,15.74,33.479,15.74,33.479
	s-0.005,3.681,1.05,9.242c1.031,5.43,9.6,8.68,15.211,8.68c5.611,0,14.182-3.25,15.211-8.68
	C48.267,37.156,48.302,33.456,48.302,33.456z"/>
<path fill="#6B4435" d="M13.335,37.991C17.979,29.572,36.712,30.005,39.621,20C28.243,29.435,14.812,28.706,13.335,37.991z"/>
<path fill="#6B4435" d="M50.73,35.997C43.413,30.039,32.479,26.005,39.621,20C37.429,27.604,46.046,28.405,50.73,35.997z"/>
<path fill="#F5F5F5" d="M45.261,39.003c-1.713,4.463-8.684,3.809-9.96,0.687C36.271,34.674,44.319,34.242,45.261,39.003z"/>
<path fill="#45332C" d="M37.079,38.526c0,3.937,5.691,3.937,5.691,0C42.771,34.872,37.079,34.872,37.079,38.526z"/>
<path fill="#45332C" d="M45.261,38.969c0-4.79-9.96-4.79-9.96,0.76C36.724,35.175,43.839,35.175,45.261,38.969z"/>
<path fill="#F5F5F5" d="M18.937,39.003c1.714,4.463,8.684,3.809,9.961,0.687C27.927,34.674,19.88,34.242,18.937,39.003z"/>
<path fill="#45332C" d="M27.118,38.526c0,3.937-5.691,3.937-5.691,0C21.427,34.874,27.118,34.874,27.118,38.526z"/>
<path fill="#45332C" d="M18.937,38.969c0-4.789,9.961-4.789,9.961,0.758C27.476,35.175,20.359,35.175,18.937,38.969z"/>
<path fill="#F5F5F5" d="M37.429,37.569c0,0.985,1.424,0.985,1.424,0C38.853,36.658,37.429,36.658,37.429,37.569z"/>
<path fill="#F5F5F5" d="M23.378,37.369c0,0.985-1.424,0.985-1.424,0C21.954,36.458,23.378,36.458,23.378,37.369z"/>
<path fill="#946346" d="M44.657,33.102c-3.018-1.242-7.146-1.484-9.266-0.656c-0.448,0.175-0.434,1.245-0.039,1.14
	c3.039-0.828,6.539-0.893,9.418,0.109C45.157,33.828,45.11,33.288,44.657,33.102z"/>
<path fill="#946346" d="M19.432,33.102c3.016-1.242,7.145-1.484,9.266-0.656c0.446,0.175,0.433,1.245,0.038,1.14
	c-3.04-0.828-6.539-0.893-9.417,0.11C18.931,33.828,18.978,33.288,19.432,33.102z"/>
<path fill="#946346" d="M35.656,46.939c0,2.284-7.021,2.284-7.021,0C28.636,46.416,35.656,46.416,35.656,46.939z"/>
</svg>
