<?xml version="1.0" encoding="utf-8"?>
<!-- Generator: Adobe Illustrator 15.0.0, SVG Export Plug-In . SVG Version: 6.00 Build 0)  -->
<!DOCTYPE svg PUBLIC "-//W3C//DTD SVG 1.1//EN" "http://www.w3.org/Graphics/SVG/1.1/DTD/svg11.dtd">
<svg version="1.1" id="Layer_1" xmlns="http://www.w3.org/2000/svg" xmlns:xlink="http://www.w3.org/1999/xlink" x="0px" y="0px"
	 width="64px" height="64px" viewBox="0 0 64 64" enable-background="new 0 0 64 64" xml:space="preserve">
<path fill="#018BC9" d="M2,62V51.191c0,0,5.482-2.659,9.851-6.424c3.432-2.957,16.243,9.592,13.36,12.99
	C23.322,59.984,22.555,62,22.555,62H2z"/>
<path fill="#FDCA47" d="M12.284,45.511c0,0,7.687-7.489,8.075-10.552c0.531-4.188,0.686-7.733,2.361-12.67
	c1.625-4.79,2.951-9.968,3.424-18.186C26.262,2.05,30.347,0.924,32,3.467v46.656c0,0-0.826,1.961-5.136,3.022
	c-1.12,0.275-2.42,3.711-2.42,3.711C20.32,57.265,12.451,49.234,12.284,45.511z"/>
<path fill="#018BC9" d="M62,62V51.191c0,0-5.484-2.659-9.852-6.424c-3.432-2.957-16.243,9.592-13.36,12.99
	C40.677,59.984,41.444,62,41.444,62H62z"/>
<path fill="#FDCA47" d="M51.715,45.511c0,0-7.688-7.489-8.074-10.552c-0.531-4.188-0.688-7.733-2.361-12.67
	c-1.626-4.79-2.951-9.968-3.424-18.186C37.736,2.05,33.652,0.924,32,3.467v46.656c0,0,0.826,1.961,5.135,3.022
	c1.121,0.275,2.42,3.711,2.42,3.711C43.68,57.265,51.548,49.234,51.715,45.511z"/>
<path fill="#CC9200" d="M38.634,51.808c-3.981-0.997-4.745-2.843-4.745-2.843s-0.547-12.188-0.645-24.195
	c0.051-5.255,0.232-9.988,0.645-13.012c0.375-2.765,2.921-1.881,3.96-1.019c-0.163-2.103-2.779-2.467-4.313-1.895
	c0.093-1.43,0.209-2.706,0.354-3.768c0.389-2.861,2.909-1.891,3.96-1.018C37.69,2.034,33.641,0.942,32,3.467
	c-1.641-2.524-5.691-1.433-5.85,0.593c1.052-0.874,3.571-1.843,3.961,1.018c0.145,1.062,0.26,2.338,0.352,3.768
	c-1.533-0.572-4.148-0.208-4.313,1.895c1.039-0.862,3.584-1.746,3.961,1.019c0.411,3.023,0.594,7.757,0.643,13.012
	c-0.096,12.007-0.643,24.195-0.643,24.195s-0.764,1.846-4.746,2.843c-0.828,0.207-2.176,3.496-2.684,4.809
	c0.633,0.202,1.229,0.292,1.763,0.24c0,0,1.3-3.436,2.42-3.711C31.174,52.084,32,50.123,32,50.123s0.826,1.961,5.135,3.022
	c1.121,0.275,2.42,3.711,2.42,3.711c0.533,0.052,1.13-0.038,1.764-0.24C40.811,55.304,39.463,52.015,38.634,51.808z"/>
</svg>
