<?xml version="1.0" encoding="utf-8"?>
<!-- Generator: Adobe Illustrator 15.0.0, SVG Export Plug-In . SVG Version: 6.00 Build 0)  -->
<!DOCTYPE svg PUBLIC "-//W3C//DTD SVG 1.1//EN" "http://www.w3.org/Graphics/SVG/1.1/DTD/svg11.dtd">
<svg version="1.1" id="Layer_1" xmlns="http://www.w3.org/2000/svg" xmlns:xlink="http://www.w3.org/1999/xlink" x="0px" y="0px"
	 width="64px" height="64px" viewBox="0 0 64 64" enable-background="new 0 0 64 64" xml:space="preserve">
<rect x="24" y="42" fill="#BF8D69" width="16" height="18"/>
<path fill="#018BC9" d="M40,48c0,0-2.463,7.75-8.117,7.75C26.229,55.754,24,48.012,24,48.012C11.93,48.313,10,56.584,10,62h44
	C54,53.859,52.066,48.301,40,48z"/>
<path fill="#C8A35D" d="M32,2C12.061,2,12.055,13.999,12.055,29h39.89C51.944,13.999,51.939,2,32,2z"/>
<path fill="#DEA885" d="M16.016,34.833c2.16-2.011,0.199-9.9-2.587-10.376C7.477,23.442,11.354,39.172,16.016,34.833z"/>
<path fill="#DEA885" d="M47.985,34.833c-2.16-2.011-0.2-9.9,2.587-10.376C56.523,23.442,52.646,39.171,47.985,34.833z"/>
<path fill="#EBBEA0" d="M32,10c-20.832,0-12.438,2.413-18,14.65c0,0,0.041,5.611,1.205,11.632C16.707,44.042,25.439,50,32,50
	c6.563,0,15.295-5.958,16.797-13.718C49.961,30.262,50,24.65,50,24.65C44.439,12.413,52.833,10,32,10z"/>
<path fill="#C8A35D" d="M47.928,8.163c7.43,10.189-27.057,7.531-34.23,6.044C13.697,14.207,24.233-0.161,47.928,8.163z"/>
<path fill="#A3864C" d="M13.697,14.207C24,16.375,55.498,16.075,45.584,5.33C61.748,18.226,22.422,19.374,13.697,14.207z"/>
<path fill="#BF8D69" d="M36,35.428c0,2.602-8,2.602-8,0C28,34.83,36,34.83,36,35.428z"/>
<path fill="#6B4435" d="M36.494,43.732c-3.209-2.088-6.301-1.748-8.988,0c-0.348,0.229-0.658-0.252-0.424-0.609
	c0.877-1.354,2.648-2.33,4.918-2.33s4.041,0.979,4.918,2.33C37.152,43.48,36.84,43.961,36.494,43.732z"/>
<path fill="#BF8D69" d="M37.328,19.391c-1.465-1.109-2.674,0.6-1.096,1.551c5.127,3.098,9.031-0.07,11.408,3.266
	C46.215,20.076,41.299,22.396,37.328,19.391z"/>
<path fill="#BF8D69" d="M26.672,19.391c-3.971,3.006-8.887,0.686-10.313,4.816c2.377-3.336,6.279-0.168,11.408-3.266
	C29.348,19.99,28.137,18.281,26.672,19.391z"/>
<path fill="#F5F5F5" d="M17.201,28.111c1.553,3.971,10.137,3.309,11.199,0.758C27.309,23.33,18.262,22.855,17.201,28.111z"/>
<path fill="#45332C" d="M26.451,28.352c0,3.742-6.5,3.742-6.5,0C19.951,24.182,26.451,24.182,26.451,28.352z"/>
<path fill="#45332C" d="M17.201,28.074c0-5.291,11.199-5.291,11.199,0.838C26.799,23.883,18.801,23.883,17.201,28.074z"/>
<path fill="#F5F5F5" d="M46.797,28.111c-1.553,3.973-10.139,3.307-11.197,0.758C36.689,23.33,45.736,22.855,46.797,28.111z"/>
<path fill="#45332C" d="M37.549,28.354c0,3.74,6.5,3.74,6.5,0C44.049,24.182,37.549,24.182,37.549,28.354z"/>
<path fill="#45332C" d="M46.797,28.074c0-5.289-11.197-5.289-11.197,0.836C37.197,23.883,45.197,23.883,46.797,28.074z"/>
<rect x="16.594" y="30.563" fill="#EBBEA0" width="30.813" height="2.875"/>
<path fill="#F5F5F5" d="M38.002,27.223c0,1.104,1.594,1.104,1.594,0C39.596,26.199,38.002,26.199,38.002,27.223z"/>
<path fill="#F5F5F5" d="M22.197,27c0,1.104-1.594,1.104-1.594,0C20.604,25.977,22.197,25.977,22.197,27z"/>
</svg>
