<?xml version="1.0" encoding="utf-8"?>
<!-- Generator: Adobe Illustrator 15.0.0, SVG Export Plug-In . SVG Version: 6.00 Build 0)  -->
<!DOCTYPE svg PUBLIC "-//W3C//DTD SVG 1.1//EN" "http://www.w3.org/Graphics/SVG/1.1/DTD/svg11.dtd">
<svg version="1.1" id="Layer_1" xmlns="http://www.w3.org/2000/svg" xmlns:xlink="http://www.w3.org/1999/xlink" x="0px" y="0px"
	 width="64px" height="64px" viewBox="0 0 64 64" enable-background="new 0 0 64 64" xml:space="preserve">
<path fill="#6E8189" d="M30.028,7.064c0,4.17,2,8.936,2,8.936s2-4.766,2-8.936C34.027,0.312,30.028,0.312,30.028,7.064z"/>
<path fill="#6E8189" d="M19.8,9.262C21.885,12.873,26,16,26,16s-0.65-5.127-2.734-8.738C19.888,1.414,16.424,3.414,19.8,9.262z"/>
<path fill="#6E8189" d="M40.736,7.263C38.65,10.872,38,16,38,16s4.115-3.126,6.201-6.737C47.576,3.415,44.111,1.414,40.736,7.263z"
	/>
<path fill="#946346" d="M21.977,62H10.442V49L24,52.195C20.725,55.698,21.977,62,21.977,62z"/>
<path fill="#B88A6F" d="M20.885,62H7.982c0,0,0.187-6.462-1.982-11.971l16.143,2.389C20.353,57.357,20.885,62,20.885,62z"/>
<path fill="#B88A6F" d="M27.944,35.469c-2.22,2.782-1.938,3.553-3.929,4.531v-3H4v6.925C4,49.913,6.672,56,14.524,56l0,0l0,0
	c13.09,0,13.42-11.732,17.401-20.531C32.458,34.291,30.028,32.856,27.944,35.469z"/>
<path fill="#946346" d="M29.964,34.063c0.771,0.194,1.222,0.83,0.961,1.406c-3.915,8.652-4.309,20.133-16.767,20.514
	C14.284,55.985,14.398,56,14.525,56c13.089,0,13.419-11.732,17.4-20.531C32.286,34.673,31.291,33.764,29.964,34.063z"/>
<path fill="#B88A6F" d="M19.015,20.653V39h5V20.653C24.015,17.116,19.015,17.116,19.015,20.653z"/>
<path fill="#946346" d="M21.015,18.048c1.063,0.205,2,1.071,2,2.602v18.348h1V20.649C24.015,18.644,22.408,17.778,21.015,18.048z"/>
<path fill="#B88A6F" d="M14.015,18.696V40h5V18.696C19.015,15.102,14.015,15.102,14.015,18.696z"/>
<path fill="#946346" d="M16.015,16.049c1.063,0.209,2,1.089,2,2.645V35h1V18.693C19.015,16.654,17.408,15.774,16.015,16.049z"/>
<path fill="#B88A6F" d="M9.015,19.616V39h5V19.616C14.015,16.128,9.015,16.128,9.015,19.616z"/>
<path fill="#B88A6F" d="M4.015,25.6V41h5V25.6C9.015,22.134,4.015,22.134,4.015,25.6z"/>
<path fill="#946346" d="M24.015,39h-1c-2.55,0.785-7,3.667-7,8.784c1.362-4.574,5.334-7.784,8-7.784V39z"/>
<path fill="#946346" d="M11.015,17.049c1.063,0.209,2,1.089,2,2.645V35h1V19.693C14.015,17.654,12.408,16.774,11.015,17.049z"/>
<path fill="#946346" d="M6.015,23.049c1.063,0.209,2,1.089,2,2.645V36h1V25.693C9.015,23.654,7.408,22.774,6.015,23.049z"/>
<path fill="#946346" d="M10.015,36c0,0-1.091,0-3,1.333c0,0,1.636-1.667,1.636-3.999C8.924,36,10.015,36,10.015,36z"/>
<path fill="#946346" d="M15.015,35.394c0,0-1.637-0.271-3,0.273c0,0,1.363-0.818,1.637-3C13.924,34.849,15.015,35.394,15.015,35.394
	z"/>
<path fill="#946346" d="M20.015,35.5c0,0-1.091-0.75-3-0.25c0,0,1.363-0.75,1.363-2.75C18.378,34.5,20.015,35.5,20.015,35.5z"/>
<path fill="#946346" d="M42.023,62h11.535V49L40,52.195C43.275,55.698,42.023,62,42.023,62z"/>
<path fill="#B88A6F" d="M43.115,62h12.902c0,0-0.186-6.462,1.982-11.971l-16.143,2.389C43.646,57.357,43.115,62,43.115,62z"/>
<path fill="#B88A6F" d="M36.057,35.469c2.219,2.782,1.938,3.553,3.928,4.531v-3H60v6.925C60,49.913,57.328,56,49.477,56l0,0l0,0
	c-13.09,0-13.42-11.732-17.402-20.531C31.542,34.291,33.973,32.856,36.057,35.469z"/>
<path fill="#946346" d="M34.035,34.063c-0.77,0.194-1.22,0.83-0.961,1.406c3.916,8.652,4.309,20.133,16.768,20.514
	C49.717,55.985,49.602,56,49.475,56c-13.088,0-13.418-11.732-17.4-20.531C31.715,34.673,32.709,33.764,34.035,34.063z"/>
<path fill="#B88A6F" d="M44.984,20.653V39h-5V20.653C39.984,17.116,44.984,17.116,44.984,20.653z"/>
<path fill="#946346" d="M42.984,18.048c-1.063,0.205-2,1.071-2,2.602v18.348h-1V20.649C39.984,18.644,41.592,17.778,42.984,18.048z"
	/>
<path fill="#B88A6F" d="M49.984,18.696V40h-5V18.696C44.984,15.102,49.984,15.102,49.984,18.696z"/>
<path fill="#946346" d="M47.984,16.049c-1.063,0.209-2,1.089-2,2.645V35h-1V18.693C44.984,16.654,46.592,15.774,47.984,16.049z"/>
<path fill="#B88A6F" d="M54.984,19.616V39h-5V19.616C49.984,16.128,54.984,16.128,54.984,19.616z"/>
<path fill="#B88A6F" d="M59.984,25.6V41h-5V25.6C54.984,22.134,59.984,22.134,59.984,25.6z"/>
<path fill="#946346" d="M39.984,39h1c2.551,0.785,7,3.667,7,8.784C46.623,43.21,42.65,40,39.984,40V39z"/>
<path fill="#946346" d="M52.984,17.049c-1.063,0.209-2,1.089-2,2.645V35h-1V19.693C49.984,17.654,51.592,16.774,52.984,17.049z"/>
<path fill="#946346" d="M57.984,23.049c-1.063,0.209-2,1.089-2,2.645V36h-1V25.693C54.984,23.654,56.592,22.774,57.984,23.049z"/>
<path fill="#946346" d="M53.984,36c0,0,1.092,0,3,1.333c0,0-1.635-1.667-1.635-3.999C55.076,36,53.984,36,53.984,36z"/>
<path fill="#946346" d="M48.984,35.394c0,0,1.637-0.271,3,0.273c0,0-1.363-0.818-1.637-3C50.076,34.849,48.984,35.394,48.984,35.394
	z"/>
<path fill="#946346" d="M43.984,35.5c0,0,1.092-0.75,3-0.25c0,0-1.363-0.75-1.363-2.75C45.621,34.5,43.984,35.5,43.984,35.5z"/>
</svg>
