<?xml version="1.0" encoding="utf-8"?>
<!-- Generator: Adobe Illustrator 15.0.0, SVG Export Plug-In . SVG Version: 6.00 Build 0)  -->
<!DOCTYPE svg PUBLIC "-//W3C//DTD SVG 1.1//EN" "http://www.w3.org/Graphics/SVG/1.1/DTD/svg11.dtd">
<svg version="1.1" id="Layer_1" xmlns="http://www.w3.org/2000/svg" xmlns:xlink="http://www.w3.org/1999/xlink" x="0px" y="0px"
	 width="64px" height="64px" viewBox="0 0 64 64" enable-background="new 0 0 64 64" xml:space="preserve">
<polygon fill="#E6A400" points="39,60.139 39,43.138 25,43.138 25,60.15 "/>
<path fill="#FDCA47" d="M16.996,8.036c1.678-2.602,6.764-5.254,7.833-5.563C26.236,2.067,32,1.725,32,2.321
	c0,2.658-5.348,1.793-7.008,5.326c-1.629,3.467-2.182,3.707-3.543,4.701C20.201,13.258,16.129,9.377,16.996,8.036z"/>
<path fill="#FDCA47" d="M47.004,8.036c-1.678-2.602-6.764-5.254-7.833-5.563C37.764,2.067,32,1.725,32,2.321
	c0,2.658,5.347,1.793,7.008,5.326c1.629,3.467,2.182,3.707,3.543,4.701C43.799,13.258,47.87,9.377,47.004,8.036z"/>
<path fill="#018BC9" d="M47.445,6.901c-1.512-1.393-8.049,3.813-6.875,5.5c3.563,5.125,10.938,13.288,10.938,22.313
	c0,2.313-8.097,16.263-12.563,19.376c0,6.91-13.891,6.91-13.891,0c-4.466-3.113-12.563-17.063-12.563-19.376
	c0-9.025,7.375-17.188,10.938-22.313c1.174-1.688-5.363-6.893-6.875-5.5C5.366,17.215,2,29.093,2,34.401
	C2,41.981,12.055,62,12.055,62h39.891C51.945,62,62,41.981,62,34.401C62,29.093,58.634,17.215,47.445,6.901z"/>
<path fill="#EA8800" d="M31.999,15.196c-16.616,0-16.619,10-16.619,22.501h33.24C48.62,25.196,48.615,15.196,31.999,15.196z"/>
<path fill="#F5BC2C" d="M18.679,42.558c1.801-1.676,0.166-8.251-2.154-8.646C11.563,33.065,14.796,46.174,18.679,42.558z"/>
<path fill="#F5BC2C" d="M45.321,42.558c-1.801-1.676-0.166-8.251,2.154-8.646C52.436,33.065,49.206,46.173,45.321,42.558z"/>
<path fill="#FDCA47" d="M32.001,21.863c-17.36,0-10.366,2.011-15,12.209c0,0,0.032,4.676,1.002,9.693
	c1.252,6.467,8.531,11.432,13.998,11.432s12.744-4.965,13.996-11.432c0.97-5.018,1.004-9.693,1.004-9.693
	C42.365,23.875,49.36,21.863,32.001,21.863z"/>
<path fill="#F5F5F5" d="M44.333,35.545c-1.604,4.182-8.137,3.568-9.332,0.643C35.909,31.487,43.451,31.085,44.333,35.545z"/>
<path fill="#45332C" d="M36.667,35.1c0,3.688,5.332,3.688,5.332,0C41.999,31.675,36.667,31.675,36.667,35.1z"/>
<path fill="#45332C" d="M44.333,35.514c0-4.489-9.332-4.489-9.332,0.71C36.333,31.958,43,31.958,44.333,35.514z"/>
<path fill="#F5F5F5" d="M19.667,35.545c1.604,4.182,8.138,3.568,9.332,0.643C28.091,31.487,20.551,31.085,19.667,35.545z"/>
<path fill="#45332C" d="M27.333,35.1c0,3.688-5.334,3.688-5.334,0C21.999,31.675,27.333,31.675,27.333,35.1z"/>
<path fill="#45332C" d="M19.667,35.514c0-4.488,9.332-4.488,9.332,0.709C27.668,31.958,21,31.958,19.667,35.514z"/>
<path fill="#F5F5F5" d="M36.994,34.202c0,0.923,1.333,0.923,1.333,0C38.327,33.348,36.994,33.348,36.994,34.202z"/>
<path fill="#F5F5F5" d="M23.829,34.016c0,0.922-1.335,0.922-1.335,0C22.494,33.159,23.829,33.159,23.829,34.016z"/>
<path fill="#D99025" d="M31.999,46.091c-2.686-0.714-6.666,0.338-6.666,0.338c1.517,1.485,2.628,3.413,6.666,3.413
	c4.629,0,5.415-2.189,6.667-3.413C38.666,46.429,34.682,45.377,31.999,46.091z"/>
<path fill="#FFFFFF" d="M26.271,46.48c2.854,2.653,8.622,2.67,11.493,0C34.721,46.625,29.337,46.627,26.271,46.48z"/>
<path fill="#E6A400" d="M43.979,31.416c-2.864-1.181-6.787-1.412-8.801-0.625c-0.425,0.166-0.411,1.184-0.036,1.081
	c2.887-0.786,6.21-0.847,8.944,0.104C44.452,32.104,44.408,31.592,43.979,31.416z"/>
<path fill="#E6A400" d="M20.021,31.416c2.864-1.181,6.786-1.412,8.801-0.625c0.423,0.166,0.41,1.184,0.034,1.081
	c-2.886-0.786-6.209-0.847-8.94,0.104C19.548,32.104,19.592,31.592,20.021,31.416z"/>
<path fill="#EA8800" d="M45.274,20.332c6.191,8.492-22.548,6.277-28.525,5.037C16.749,25.369,25.528,13.396,45.274,20.332z"/>
<path fill="#D67C00" d="M16.749,25.369c8.584,1.807,34.834,1.557,26.572-7.398C56.789,28.718,24.018,29.675,16.749,25.369z"/>
<path fill="#E6A400" d="M35.333,41.941c0,2.17-6.667,2.17-6.667,0C28.666,41.444,35.333,41.444,35.333,41.941z"/>
</svg>
