<?xml version="1.0" encoding="utf-8"?>
<!-- Generator: Adobe Illustrator 15.0.0, SVG Export Plug-In . SVG Version: 6.00 Build 0)  -->
<!DOCTYPE svg PUBLIC "-//W3C//DTD SVG 1.1//EN" "http://www.w3.org/Graphics/SVG/1.1/DTD/svg11.dtd">
<svg version="1.1" id="Layer_1" xmlns="http://www.w3.org/2000/svg" xmlns:xlink="http://www.w3.org/1999/xlink" x="0px" y="0px"
	 width="64px" height="64px" viewBox="0 0 64 64" enable-background="new 0 0 64 64" xml:space="preserve">
<path fill="#785647" d="M44.912,32.297c0.467,3.85,14.1,11.742,16.824-2.351C64.596,15.143,43.246,18.556,44.912,32.297z"/>
<path fill="#C4926E" d="M59.666,25.319c-3.451-2.59-10.203,1.32-9.199,9.538c0.053,0.422-1.225-0.799-1.34-1.732
	C47.965,23.608,57.199,19.876,59.666,25.319z"/>
<path fill="#EBBB96" d="M59.666,25.319c0.619,1.361,0.818,3.288,0.32,5.852c-1.711,8.796-9.467,4.108-9.52,3.687
	C49.463,26.64,56.215,22.729,59.666,25.319z"/>
<path fill="#785647" d="M19.086,32.297c-0.467,3.85-14.1,11.742-16.822-2.351C-0.597,15.143,20.754,18.556,19.086,32.297z"/>
<path fill="#C4926E" d="M4.333,25.319c3.451-2.59,10.203,1.32,9.201,9.538c-0.055,0.422,1.225-0.799,1.338-1.732
	C16.034,23.608,6.801,19.876,4.333,25.319z"/>
<path fill="#EBBB96" d="M4.333,25.319c-0.617,1.361-0.818,3.288-0.32,5.852c1.711,8.796,9.467,4.108,9.521,3.687
	C14.536,26.64,7.784,22.729,4.333,25.319z"/>
<path fill="#785647" d="M51.488,26.735C51.488,13.007,41.457,8.086,32,8.086c-9.458,0-19.489,4.921-19.489,18.649
	c0,4.174-4.484,7.685-4.512,13.267C7.93,54.391,19.999,60,32,60c12,0,24.073-5.604,24-20C55.971,34.418,51.488,30.909,51.488,26.735
	z"/>
<path fill="#785647" d="M38.695,9.025c0,0-0.262-1.608,2.139-3.135c0,0-5.496-0.563-7.892,1.777c0,0-0.41-1.899,0.958-3.668
	c0,0-6.195,0-10.433,6.339l19.527,4.001c0,0-0.326-3.155,2.297-4.565C45.291,9.774,41.992,8.239,38.695,9.025z"/>
<path fill="#EBBB96" d="M32,22.783c-15.1-8.57-24.877,10.017-12.098,18.252C17.11,49.557,19.76,56.576,32,56.576
	c12.238,0,14.888-7.02,12.095-15.541C56.875,32.8,47.098,14.213,32,22.783z"/>
<path fill="#302C3B" d="M27.072,39.824c-0.499-1.768,4.474,1.195,3.804,1.398C29.661,41.594,27.468,41.223,27.072,39.824z"/>
<path fill="#302C3B" d="M36.926,39.824c0.5-1.768-4.472,1.195-3.803,1.398C34.338,41.594,36.529,41.223,36.926,39.824z"/>
<path fill="#302C3B" d="M26.539,31.771c0,2.619-1.65,4.744-3.691,4.744c-2.038,0-3.688-2.125-3.688-4.744
	c0-2.623,1.65-4.748,3.688-4.748C24.888,27.023,26.539,29.148,26.539,31.771z"/>
<path id="Shape_19_" fill="#FFFFFF" d="M22.583,29.695c0,1.637-1.843,1.637-1.843,0C20.741,28.055,22.583,28.055,22.583,29.695
	L22.583,29.695z"/>
<path fill="#302C3B" d="M44.848,31.771c0,2.619-1.652,4.744-3.691,4.744s-3.689-2.125-3.689-4.744c0-2.623,1.65-4.748,3.689-4.748
	S44.848,29.148,44.848,31.771z"/>
<path id="Shape_18_" fill="#FFFFFF" d="M40.893,29.695c0,1.637-1.844,1.637-1.844,0C39.049,28.055,40.893,28.055,40.893,29.695
	L40.893,29.695z"/>
<polygon fill="#8A6859" points="14.896,52.002 6.57,62 19.521,62 23.521,58.406 "/>
<path opacity="0.3" fill="#302C3B" d="M22.158,41.357c0,0,11.782-5.916,8.771-0.238c11.479-2.543,4.779,14.037-6.443,18.096
	L13.999,41.357C15.949,36.516,19.408,43.5,22.158,41.357z"/>
<path fill="#F5CFA0" d="M19.461,43.342c0,0,4.881-4.49,9.493-3.945c2.278,0.27-7.082,7.58-7.082,7.58s9.712-8.23,11.722-5.646
	c1.824,2.346-8.926,9.818-8.926,9.818s9.958-8.055,9.651-4.555c-0.339,3.865-7.878,12.863-12.483,13.779
	c-6.642,1.322-11.791-2.908-8.314-17.506C15.26,35.555,17.049,43.723,19.461,43.342z"/>
<polygon fill="#8A6859" points="48.339,50.203 58.956,62 44.984,62 42.805,59.41 "/>
<path opacity="0.3" fill="#302C3B" d="M36.961,42.99c-10.293-1.633-12.95,1.697-6.543,3.229c-4.25-0.75-12.844,0.656-1.688,4.875
	c0,0-3.811,0.053-3.041,1.906c1.487,3.582,8.323,6.621,12.356,6.502l4.826-18.521C38.473,34.883,39.98,43.063,36.961,42.99z"/>
<path fill="#F5CFA0" d="M39.557,43.682c0,0-6.222-2.291-10.28-0.029c-2.004,1.119,9.437,4.309,9.437,4.309
	s-12.115-3.906-12.99-0.754c-0.791,2.865,11.995,5.678,11.995,5.678s-12.276-3.65-10.657-0.531
	c1.785,3.441,12.185,8.891,16.792,7.98c6.645-1.309,9.793-7.182,1.018-19.354C40.473,34.883,41.932,43.117,39.557,43.682z"/>
</svg>
