<?xml version="1.0" encoding="utf-8"?>
<!-- Generator: Adobe Illustrator 15.0.0, SVG Export Plug-In . SVG Version: 6.00 Build 0)  -->
<!DOCTYPE svg PUBLIC "-//W3C//DTD SVG 1.1//EN" "http://www.w3.org/Graphics/SVG/1.1/DTD/svg11.dtd">
<svg version="1.1" id="Layer_1" xmlns="http://www.w3.org/2000/svg" xmlns:xlink="http://www.w3.org/1999/xlink" x="0px" y="0px"
	 width="64px" height="64px" viewBox="0 0 64 64" enable-background="new 0 0 64 64" xml:space="preserve">
<path fill="#785647" d="M51.488,26.735C51.488,13.007,41.457,8.086,32,8.086c-9.458,0-19.489,4.921-19.489,18.649
	c0,4.174-4.484,7.685-4.512,13.267C7.931,54.391,19.999,60,32,60c12,0,24.072-5.604,24-20
	C55.971,34.418,51.488,30.909,51.488,26.735z"/>
<path fill="#785647" d="M38.695,9.025c0,0-0.262-1.608,2.139-3.135c0,0-5.496-0.563-7.892,1.777c0,0-0.41-1.899,0.958-3.668
	c0,0-6.194,0-10.433,6.339l19.526,4.001c0,0-0.326-3.155,2.297-4.565C45.291,9.774,41.992,8.239,38.695,9.025z"/>
<path fill="#EBBB96" d="M32.001,22.784c-15.1-8.571-24.876,10.016-12.098,18.251c-2.793,8.521-0.143,15.541,12.098,15.541
	c12.237,0,14.888-7.02,12.095-15.541C56.875,32.799,47.098,14.213,32.001,22.784z"/>
<path fill="#302C3B" d="M27.072,39.824c-0.499-1.768,4.474,1.195,3.804,1.398C29.661,41.594,27.469,41.223,27.072,39.824z"/>
<path fill="#302C3B" d="M36.926,39.824c0.5-1.768-4.472,1.195-3.803,1.398C34.338,41.594,36.529,41.223,36.926,39.824z"/>
<path fill="#302C3B" d="M26.539,31.772c0,2.619-1.65,4.744-3.691,4.744c-2.038,0-3.688-2.125-3.688-4.744
	c0-2.623,1.65-4.748,3.688-4.748C24.889,27.024,26.539,29.149,26.539,31.772z"/>
<path id="Shape_17_" fill="#FFFFFF" d="M22.584,29.696c0,1.637-1.843,1.637-1.843,0C20.741,28.055,22.584,28.055,22.584,29.696
	L22.584,29.696z"/>
<path fill="#302C3B" d="M44.848,31.772c0,2.619-1.652,4.744-3.691,4.744s-3.689-2.125-3.689-4.744c0-2.623,1.65-4.748,3.689-4.748
	S44.848,29.149,44.848,31.772z"/>
<path id="Shape_16_" fill="#FFFFFF" d="M40.893,29.696c0,1.637-1.844,1.637-1.844,0C39.049,28.055,40.893,28.055,40.893,29.696
	L40.893,29.696z"/>
<path fill="#302C3B" d="M39.936,46c-1.658,0-4.824,0-7.937,0s-6.276,0-7.938,0c-0.366,0-0.563,0.254-0.563,0.5
	c0,3.635,2.98,7.5,8.5,7.5c5.521,0,8.501-3.865,8.501-7.5C40.5,46.254,40.305,46,39.936,46z"/>
<path fill="#F46C60" d="M27.5,51.57c1.302,0.9,2.801,1.43,4.5,1.43s3.199-0.529,4.5-1.43C35.245,50.594,33.751,50,32,50
	C30.248,50,28.756,50.594,27.5,51.57z"/>
<path fill="#8A6859" d="M51.135,40.525L49.26,62H62c-4.044-12-2.851-22.357-2.851-22.357L51.135,40.525z"/>
<path fill="#8A6859" d="M12.865,40.525L14.74,62H2c4.044-12,2.851-22.357,2.851-22.357L12.865,40.525z"/>
<path fill="#F5CFA0" d="M57.437,26.098c-1.703-4.469-4.779-8.219-6.083-6.304c-1.212,1.779,0.091,2.023-0.398,3.958
	c-1.03,4.066,2.298,8.211,1.526,10.128c-4.659,11.586,1.338,12.576,3.624,11.627C60.729,43.576,59.438,31.36,57.437,26.098z"/>
<path fill="#F5CFA0" d="M6.563,26.098c1.703-4.469,4.779-8.219,6.083-6.304c1.212,1.779-0.091,2.023,0.398,3.958
	c1.03,4.066-2.298,8.211-1.526,10.128c4.659,11.586-1.338,12.576-3.624,11.627C3.271,43.576,4.562,31.36,6.563,26.098z"/>
</svg>
