<?xml version="1.0" encoding="utf-8"?>
<!-- Generator: Adobe Illustrator 15.0.0, SVG Export Plug-In . SVG Version: 6.00 Build 0)  -->
<!DOCTYPE svg PUBLIC "-//W3C//DTD SVG 1.1//EN" "http://www.w3.org/Graphics/SVG/1.1/DTD/svg11.dtd">
<svg version="1.1" id="Layer_1" xmlns="http://www.w3.org/2000/svg" xmlns:xlink="http://www.w3.org/1999/xlink" x="0px" y="0px"
	 width="64px" height="64px" viewBox="0 0 64 64" enable-background="new 0 0 64 64" xml:space="preserve">
<path fill="#99A8AE" d="M40,2H24c-2.209,0-4,1.791-4,4c0,0.553,0.447,1,1,1s1-0.447,1-1c0-1.104,0.896-2,2-2h1
	c2.326,0,2.561,1.109,2.947,2.945c0.302,1.428,0.742,3.498,3.053,3.959V15h2v-4.096c2.311-0.461,2.751-2.531,3.053-3.959
	C36.439,5.109,36.675,4,39,4h1c1.104,0,2,0.896,2,2c0,0.553,0.447,1,1,1s1-0.447,1-1C44,3.791,42.209,2,40,2z M34.096,6.533
	C33.702,8.396,33.453,9,32,9s-1.702-0.604-2.096-2.467C29.742,5.762,29.541,4.823,29.061,4h5.881
	C34.459,4.823,34.259,5.762,34.096,6.533L34.096,6.533z"/>
<path fill="#4E5E67" d="M46.027,56H18.949l-1.948,6h30L46.027,56z"/>
<path fill="#CFD8DD" d="M11,62h6.303L32,32L11,62z M32,32l14.704,30H53L32,32z"/>
<path fill="#6E8189" d="M15.198,62h2.805L32,32L15.198,62z M32,32l14.007,30h2.789L32,32z"/>
<path fill="#E6EBEF" d="M50,24c-0.363-5.488-4.656-10-10-10H24c-5.344,0-9.318,4.542-10,10c-1,8-1,6-1,18c0,6,3,16,9,16h20
	c6,0,9-10,9-16C51,30,50.396,29.998,50,24z"/>
<path fill="#F9B700" d="M22,42h20l2.436-16.04c0.311-2.178,1.689-5.085,3.064-6.46c0.262-0.261,0.507-0.538,0.744-0.82
	C46.443,15.879,43.443,14,40,14H24c-3.443,0-6.443,1.879-8.244,4.68c0.236,0.282,0.482,0.56,0.744,0.82
	c1.375,1.375,2.754,4.282,3.066,6.46L22,42z"/>
<path fill="#302C3B" d="M40,14H24c-1.523,0.005-3.022,0.384-4.365,1.104c1.088,1.467,2.17,4.361,2.414,6.633L22.076,22h19.861
	l0.015-0.136c0.241-2.229,1.284-5.283,2.353-6.792C42.978,14.373,41.5,14.005,40,14z"/>
<path fill="#0FB4D4" d="M22.076,22l2.122,20h15.601l2.139-20H22.076z"/>
<path fill="#302C3B" d="M41.432,46.04L42,42H22l0.568,4.04C22.876,48.218,24.9,50,27.07,50h9.859
	C39.1,50,41.125,48.218,41.432,46.04z"/>
<path fill="#FFFFFF" d="M27,45c-2,0-2,0-2,1s0,1,2,1s2,0,2-1S29,45,27,45z M37,45c-2,0-2,0-2,1s0,1,2,1s2,0,2-1S39,45,37,45z"/>
<path fill="#6E8189" d="M39,16H25c-1.104,0-2,0.896-2,2s0.896,2,2,2h14c1.104,0,2-0.896,2-2S40.104,16,39,16z"/>
<path fill="#CFD8DD" d="M18.993,57.068c-0.119-16.701-3.386-27.985-5.045-32.65C13.001,31.925,13,30.218,13,42
	C13,46.896,14.998,54.452,18.993,57.068z M50.033,24.475c-1.666,4.697-4.907,15.957-5.025,32.594C49.002,54.452,51,46.896,51,42
	C51,30.327,50.43,30.005,50.033,24.475z"/>
<path fill="#99A8AE" d="M13,42v6c0,6,3,10,9,10h20c6,0,9-4,9-10v-6c-0.331,4.342-1.561,9.561-4,12c-2.271,2.271-6.602,2-15,2
	c-8.4,0-12.958,0.042-15-2C14.561,51.561,13.331,46.342,13,42z"/>
<path fill="#99A8AE" d="M41.432,54.97L42,58H22l0.568-3.03C22.876,53.337,24.9,52,27.07,52h9.859
	C39.1,52,41.125,53.337,41.432,54.97z"/>
<path fill="#018BC9" d="M34.666,36h-5.332C28.602,36,28,36.674,28,37.5V42h8v-4.5C36,36.674,35.398,36,34.666,36z"/>
<path opacity="0.5" fill="#FFFFFF" enable-background="new    " d="M23.936,39.522L24.198,42l17.358-16.44L41.938,22L23.936,39.522z
	"/>
<path opacity="0.5" fill="#FFFFFF" enable-background="new    " d="M22.475,25.753L23,31.375L32.462,22H26.33L22.475,25.753z"/>
<path opacity="0.5" fill="#FFFFFF" enable-background="new    " d="M28.42,42h9.021l2.613-2.379l1.067-9.983L28.42,42z"/>
</svg>
