<?xml version="1.0" encoding="utf-8"?>
<!-- Generator: Adobe Illustrator 15.0.0, SVG Export Plug-In . SVG Version: 6.00 Build 0)  -->
<!DOCTYPE svg PUBLIC "-//W3C//DTD SVG 1.1//EN" "http://www.w3.org/Graphics/SVG/1.1/DTD/svg11.dtd">
<svg version="1.1" id="Layer_1" xmlns="http://www.w3.org/2000/svg" xmlns:xlink="http://www.w3.org/1999/xlink" x="0px" y="0px"
	 width="64px" height="64px" viewBox="0 0 64 64" enable-background="new 0 0 64 64" xml:space="preserve">
<rect x="9" y="36" fill="#F9C802" width="46" height="16"/>
<path fill="#CFD8DD" d="M53,5h-9.758l-0.707-2.052C42.355,2.427,41.742,2,41.174,2H22.828c-0.571,0-1.182,0.427-1.364,0.948
	L20.756,5H11C9.896,5,9,5.896,9,7v9.5h46V7C55,5.896,54.104,5,53,5"/>
<path fill="#99A8AE" d="M55,11v10.5H9V11c0,1.104,0.896,2,2,2h42C54.104,13,55,12.104,55,11"/>
<rect x="4.5" y="19" fill="#302C3B" width="5.5" height="2"/>
<path fill="#302C3B" d="M46.193,54v7c0,0.55,0.438,1,0.977,1h5.854C53.559,62,54,61.55,54,61v-7H46.193z"/>
<rect x="53.5" y="19" fill="#302C3B" width="5.5" height="2"/>
<path fill="#4E5E67" d="M62,27c0,1.104-1.119,2-2.5,2S57,28.104,57,27v-8c0-1.104,1.119-2,2.5-2s2.5,0.896,2.5,2V27z"/>
<path fill="#302C3B" d="M10,54v7c0,0.55,0.439,1,0.977,1h5.854c0.537,0,0.977-0.45,0.977-1v-7H10z"/>
<path fill="#99A8AE" d="M55.012,51H8.988C8.445,51,8,51.45,8,52v4h47.996v-4C56,51.45,55.555,51,55.012,51"/>
<path fill="#4E5E67" d="M55.012,55H8.988C8.445,55,8,54.55,8,54v2c0,0.55,0.445,1,0.988,1h46.023c0.543,0,0.984-0.45,0.984-1v-2
	C56,54.55,55.555,55,55.012,55"/>
<path fill="#4E5E67" d="M20.047,43.948l1.336,4.104C21.555,48.573,22.133,49,22.671,49H41.33c0.537,0,1.115-0.427,1.285-0.948
	l1.336-4.104H20.047z"/>
<path fill="#302C3B" d="M20.146,44.254C20.27,44.1,20.464,44,20.716,44h22.569c0.251,0,0.443,0.1,0.566,0.253l0.101-0.306
	C44.123,43.427,43.82,43,43.285,43H20.716c-0.536,0-0.838,0.427-0.669,0.947L20.146,44.254z"/>
<path fill="#302C3B" d="M9,15v24c0,1.1,0.9,2,2,2h42c1.1,0,2-0.9,2-2V15H9z"/>
<path fill="#0FB4D4" d="M11,17v21c0,0.55,0.45,1,1,1h40c0.55,0,1-0.45,1-1V17H11z"/>
<polygon fill="#FFFFFF" points="19,49 11,49 11,43 17,43 "/>
<rect x="9" y="43" fill="#EA8800" width="2" height="6"/>
<rect x="53" y="43" fill="#EA8800" width="2" height="6"/>
<path fill="#4E5E67" d="M44,12c0,0.55-0.45,1-1,1H21c-0.55,0-1-0.45-1-1V8c0-0.55,0.45-1,1-1h22c0.55,0,1,0.45,1,1V12z"/>
<polygon fill="#99A8AE" points="17.75,48 11,48 11,44 16.5,44 "/>
<polygon fill="#FFFFFF" points="47,43 53,43 53,49 45,49 "/>
<polygon fill="#99A8AE" points="47.5,44 53,44 53,48 46.25,48 "/>
<path fill="#4E5E67" d="M7,27c0,1.104-1.119,2-2.5,2S2,28.104,2,27v-8c0-1.104,1.119-2,2.5-2S7,17.896,7,19V27z"/>
<path fill="#302C3B" d="M57.348,28c0.438,0.596,1.229,1,2.152,1c1.381,0,2.5-0.896,2.5-2v-8C62,19,61.691,28.956,57.348,28"/>
<path fill="#302C3B" d="M2.348,28c0.434,0.596,1.229,1,2.152,1C5.881,29,7,28.104,7,27v-8C7,19,6.691,28.956,2.348,28"/>
<path fill="#006DAE" d="M49.779,34.391l-0.146-3.197c-0.066-0.654-0.662-1.191-1.324-1.191h-0.336l-0.104-1.012
	C47.756,27.896,46.732,27,45.598,27h-6.195c-1.137,0-2.154,0.896-2.271,1.99l-0.104,1.012h-0.334c-0.659,0-1.26,0.537-1.321,1.191
	l-0.142,2.961L32,36h-5.145l-0.223-4.808C26.566,30.537,25.971,30,25.309,30h-3.615c-0.662,0-1.258,0.537-1.324,1.192L20.146,36
	h-1.29l-0.223-4.808C18.566,30.537,17.971,30,17.309,30h-3.615c-0.662,0-1.258,0.537-1.324,1.192L12.146,36H11v2c0,0.55,0.45,1,1,1
	h40c0.551,0,1-0.45,1-1v-2L49.779,34.391z"/>
<path fill="#302C3B" d="M21,7c-0.55,0-1,0.45-1,1h15.499l-2.506,5H43c0.55,0,1-0.45,1-1V8c0-0.55-0.45-1-1-1H21z"/>
<path fill="#FFFFFF" d="M50.66,44.16c0.756,1.541-0.947,3.525-2.674,2.66c0.271,0.662,0.879,1.18,1.836,1.18
	C52.17,48,52.449,44.9,50.66,44.16z"/>
<path fill="#FFFFFF" d="M14.84,44.16c0.756,1.541-0.947,3.525-2.674,2.66c0.271,0.662,0.879,1.18,1.836,1.18
	C16.35,48,16.629,44.9,14.84,44.16z"/>
<rect x="13" y="36" fill="#302C3B" width="15" height="1"/>
<rect x="36" y="36" fill="#302C3B" width="15" height="1"/>
<polygon fill="#302C3B" points="27,40 28,40 25,36 24,36 "/>
<polygon fill="#302C3B" points="50,40 51,40 48,36 47,36 "/>
<polygon opacity="0.5" fill="#FFFFFF" points="43.561,18 40.438,18 20.438,38 23.561,38 "/>
<polygon opacity="0.5" fill="#FFFFFF" points="27.95,18 12,33.95 12,38 17.316,38 37.316,18 "/>
<polygon opacity="0.5" fill="#FFFFFF" points="51.999,22.051 52,18 49.806,18 29.806,38 36.05,38 "/>
</svg>
