<?xml version="1.0" encoding="utf-8"?>
<!-- Generator: Adobe Illustrator 15.0.0, SVG Export Plug-In . SVG Version: 6.00 Build 0)  -->
<!DOCTYPE svg PUBLIC "-//W3C//DTD SVG 1.1//EN" "http://www.w3.org/Graphics/SVG/1.1/DTD/svg11.dtd">
<svg version="1.1" id="Layer_1" xmlns="http://www.w3.org/2000/svg" xmlns:xlink="http://www.w3.org/1999/xlink" x="0px" y="0px"
	 width="64px" height="64px" viewBox="0 0 64 64" enable-background="new 0 0 64 64" xml:space="preserve">
<path fill="#E03636" d="M36,18h24v24H36V18z"/>
<path fill="#4E5E67" d="M5,16l3,6h6l3-6H5z M4,14h14v2H4V14z"/>
<path fill="#302C3B" d="M5,16l3,6v6h6v-6l3-6H5z"/>
<path fill="#B00505" d="M36,18v12h2v4h22V18H36z"/>
<path fill="#0FB4D4" d="M40,20h8v12h-8V20z M36,20h2v8h-2V20z M50,20h8v12h-8V20z"/>
<path fill="#CFD8DD" d="M8,14c0,0,2-6,8-6c3.167,0,4-3,7-3c1.833,0,3,1,6,1s6-4,11-4c3.167,0,6,1.205,6,4c0,2.128-1,5-6,5
	c-6,0-10-2-13-2c-3.167,0-5,5-11,5H8z"/>
<path fill="#4E5E67" d="M10,16v6l-2-6H10z"/>
<path fill="#006DAE" d="M40,28h2v4h-2V28z"/>
<path fill="#4E5E67" d="M6,42h56v2H6V42z"/>
<path fill="#302C3B" d="M6,50h6v6h40v-6h8v-4h2v-2H6V50z"/>
<circle fill="#E03636" cx="52" cy="54" r="8"/>
<circle fill="#E03636" cx="52" cy="54" r="8"/>
<path fill="#4E5E67" d="M6,28c-1.104,0-2,3.134-2,7s0.896,7,2,7h30V28H6z"/>
<path fill="#302C3B" d="M7,38h29v4H6c-1.104,0-2-3.134-2-7C4,35,4.193,38,7,38z M52.98,47.077C52.659,47.031,52.334,47,52,47
	s-0.659,0.031-0.98,0.077L52,52.963L52.98,47.077z M47.798,48.411c-0.524,0.396-0.991,0.862-1.388,1.387l4.855,3.47L47.798,48.411z
	 M45.076,53.02C45.027,53.345,45.002,53.672,45,54c0,0.334,0.031,0.66,0.077,0.982L50.963,54L45.076,53.02z M46.412,58.203
	c0.395,0.525,0.861,0.992,1.387,1.387l3.469-4.855L46.412,58.203z M51.021,60.924C51.342,60.969,51.667,61,52,61
	c0.334,0,0.661-0.031,0.982-0.077L52,55.036L51.021,60.924z M56.203,59.588c0.525-0.395,0.992-0.861,1.387-1.387l-4.857-3.469
	L56.203,59.588z M58.923,54.98C58.969,54.659,59,54.333,59,54c0-0.334-0.031-0.661-0.077-0.982l-5.888,0.983L58.923,54.98z
	 M57.589,49.797c-0.396-0.525-0.862-0.992-1.388-1.387l-3.469,4.857L57.589,49.797z"/>
<circle fill="#E03636" cx="52" cy="54" r="3"/>
<circle fill="#E03636" cx="36" cy="54" r="8"/>
<path fill="#F9C802" d="M14,28h2v14h-2V28z M25,28h2v14h-2V28z"/>
<path fill="#4E5E67" d="M10,22h2v6h-2V22z"/>
<path fill="#B00505" d="M56,36H42c-1.1,0-2,0.9-2,2s0.9,2,2,2h14c1.1,0,2-0.9,2-2S57.1,36,56,36z M34,14h28v2H34V14z"/>
<circle fill="#E03636" cx="36" cy="54" r="8"/>
<circle fill="#E03636" cx="18" cy="57" r="5"/>
<path fill="#B00505" d="M18,53c-2.209,0-4,1.793-4,4.002c0,2.21,1.793,4,4.002,4c2.21,0,4-1.792,4-4.002S20.209,53,18,53z M18,60
	c-1.657,0-3.002-1.343-3.002-3s1.343-3.002,3-3.002s3.002,1.343,3.002,3V57C21,58.654,19.656,60,18,60z"/>
<path fill="#302C3B" d="M36.98,47.077C36.659,47.031,36.334,47,36,47s-0.659,0.031-0.98,0.077L36,52.963L36.98,47.077z
	 M31.798,48.411c-0.524,0.396-0.991,0.862-1.388,1.387l4.855,3.47L31.798,48.411z M29.076,53.02C29.027,53.345,29.002,53.672,29,54
	c0,0.334,0.031,0.66,0.077,0.982L34.963,54L29.076,53.02z M30.412,58.203c0.395,0.525,0.861,0.992,1.387,1.387l3.469-4.855
	L30.412,58.203z M40.203,59.588c0.525-0.395,0.992-0.861,1.387-1.387l-4.857-3.469L40.203,59.588z M42.923,54.98
	C42.969,54.659,43,54.333,43,54c0-0.334-0.031-0.661-0.077-0.982l-5.888,0.983L42.923,54.98z M41.589,49.797
	c-0.396-0.525-0.862-0.992-1.388-1.387l-3.469,4.857L41.589,49.797z"/>
<circle fill="#E03636" cx="36" cy="54" r="3"/>
<path fill="#6E8189" d="M52,54H36.303l-6-2H27v2h2.697l6,2H52c0.553,0,1-0.447,1-1S52.553,54,52,54z"/>
<path fill="#F9C802" d="M19,50h8v6h-8V50z"/>
<path fill="#E03636" d="M12,48H6v2h1.641L2,60h10V48z"/>
<path fill="#B00505" d="M10,58H8l2-8V58z M9,50l-2,8H5L9,50z"/>
<path fill="#630000" d="M34,16h28v2H34V16z"/>
<path opacity="0.5" fill="#FFFFFF" enable-background="new    " d="M40,28l8-8v4l-8,8V28z M36,24l2-3v4l-2,3V24z M50,28l8-8v4l-8,8
	V28z"/>
</svg>
