<?xml version="1.0" encoding="utf-8"?>
<!-- Generator: Adobe Illustrator 15.0.0, SVG Export Plug-In . SVG Version: 6.00 Build 0)  -->
<!DOCTYPE svg PUBLIC "-//W3C//DTD SVG 1.1//EN" "http://www.w3.org/Graphics/SVG/1.1/DTD/svg11.dtd">
<svg version="1.1" id="Layer_1" xmlns="http://www.w3.org/2000/svg" xmlns:xlink="http://www.w3.org/1999/xlink" x="0px" y="0px"
	 width="64px" height="64px" viewBox="0 0 64 64" enable-background="new 0 0 64 64" xml:space="preserve">
<path fill="#4E5E67" d="M32.988,21l8.193-8.195c0.32-0.32,0.365-0.699,0.252-1.027l8.909-8.909c0.464-0.463-0.254-1.181-0.717-0.718
	l-8.909,8.908c-0.328-0.113-0.707-0.068-1.027,0.252L30,21H32.988z"/>
<path fill="#BEC3CF" d="M62,24c0-3-3-4-6-4H4c-1.1,0-2,0.9-2,2v2H62z"/>
<path fill="#E6EBEF" d="M2,24h60v21H2V24z"/>
<path fill="#7AB51D" d="M2,45l8-4h52v10.999H2V45z"/>
<path fill="#6E8189" d="M2,51.999v3c0,0.554,0.563,1,1.115,1H59l3-1v-3H2z"/>
<path fill="#4E5E67" d="M58.77,56c0.146-0.645,0.23-1.313,0.23-2.001c0.002-4.968-4.024-8.997-8.993-8.999c-0.003,0-0.006,0-0.009,0
	c-4.967-0.002-8.996,4.023-8.998,8.99c0,0.003,0,0.006,0,0.009c0,0.688,0.084,1.356,0.23,2.001H58.77z"/>
<path fill="#529320" d="M2,45l8-4h52v2H10L2,45z"/>
<path fill="#282433" d="M42,53.999c-0.003,4.416,3.574,7.998,7.991,8.001c0.002,0,0.005,0,0.007,0C54.42,62,58,58.42,58,53.999
	S54.42,46,49.998,46c-4.416-0.002-7.996,3.576-7.998,7.992C42,53.994,42,53.996,42,53.999z"/>
<path fill="#FAFAFA" d="M44.999,53.999c0,2.761,2.239,5,5,5s5-2.239,5-5c0-2.762-2.239-5-5-5S44.999,51.237,44.999,53.999z"/>
<path fill="#AFBBC1" d="M46,54c0,2.209,1.791,4,4.001,4s4.001-1.791,4-4.001c0-2.21-1.792-4.001-4.001-4
	C47.791,49.999,46,51.791,46,54z"/>
<path fill="#71858C" d="M48,54c0,1.104,0.896,2,2,2c1.105-0.001,2-0.896,2-2.001s-0.896-2-2-1.999C48.895,52,48,52.896,48,54z"/>
<path fill="#282433" d="M49,54c0,0.553,0.448,0.999,0.999,0.999C50.551,55,51,54.553,51,54s-0.447-1-0.999-1.001
	S49,53.445,49,53.998V54z"/>
<path fill="#4E5E67" d="M24.77,56c0.146-0.645,0.23-1.313,0.23-2.001c0.002-4.968-4.024-8.997-8.993-8.999c-0.003,0-0.006,0-0.009,0
	C11.031,44.998,7.002,49.023,7,53.99c0,0.003,0,0.006,0,0.009C7,54.688,7.084,55.355,7.23,56H24.77z"/>
<path fill="#282433" d="M8,53.999c-0.003,4.416,3.574,7.998,7.991,8.001c0.002,0,0.005,0,0.007,0C20.42,62,24,58.42,24,53.999
	S20.42,46,15.998,46C11.582,45.998,8.002,49.576,8,53.992C8,53.994,8,53.996,8,53.999z"/>
<path fill="#FAFAFA" d="M10.999,53.999c0,2.761,2.239,5,5,5s5-2.239,5-5c0-2.762-2.239-5-5-5S10.999,51.237,10.999,53.999z"/>
<path fill="#AFBBC1" d="M12,54c0,2.209,1.791,4,4.001,4s4.001-1.791,4-4.001s-1.792-4.001-4.001-4C13.791,49.999,12,51.791,12,54z"
	/>
<path fill="#71858C" d="M14,54c0,1.104,0.896,2,2,2c1.105-0.001,2-0.896,2-2.001s-0.896-2-2-1.999C14.895,52,14,52.896,14,54z"/>
<path fill="#282433" d="M15,54c0,0.553,0.448,0.999,0.999,0.999C16.551,55,17,54.553,17,54s-0.447-1-0.999-1.001
	S15,53.445,15,53.998V54z"/>
<path fill="#71858C" d="M5.5,45H2v4h3.5C5.775,49,6,48.775,6,48.499v-3C5.999,45.224,5.775,45,5.5,45z"/>
<path fill="#0FB4D4" d="M2,27v16l8-4.001V27H2z M12,27h8v8h-8V27z M22,27h8v8h-8V27z M32,27h8v8h-8V27z M42,27h8v8h-8V27z M52,27h8
	v8h-8V27z"/>
<path fill="#FFFFFF" d="M3,45v4c1.104,0,2-0.896,2-2S4.104,45,3,45z"/>
<path fill="#E03636" d="M60.5,44c-0.275,0-0.5,0.225-0.5,0.5v5c0,0.273,0.225,0.5,0.5,0.5H62v-6H60.5z"/>
<path fill="#F9C802" d="M60,48v1.5c0,0.273,0.225,0.5,0.5,0.5H62v-2H60z"/>
<path fill="#006DAE" d="M20,32h-1.5c-0.287,0.01-0.531,0.211-0.598,0.49L17,35h3V32z M30,32h-1.5
	c-0.287,0.01-0.531,0.211-0.598,0.49L27,35h3V32z M40,32h-1.5c-0.287,0.01-0.531,0.211-0.598,0.49L37,35h3V32z M50,32h-1.5
	c-0.287,0.01-0.531,0.211-0.598,0.49L47,35h3V32z M60,32h-1.5c-0.287,0.01-0.531,0.211-0.598,0.49L57,35h3V32z M8.5,34
	c-0.287,0.01-0.531,0.21-0.598,0.489L7,38.999H5L3,37H2v6l8-4.001V34H8.5z"/>
<path fill="#6E8189" d="M22,18l-2,2h22v-2H22z"/>
<polygon opacity="0.5" fill="#FFFFFF" points="2,39 10,32.999 10,27 2,33 "/>
<polygon opacity="0.5" fill="#FFFFFF" points="22,30 22,35 30,29 30,27 26,27 "/>
<polygon opacity="0.5" fill="#FFFFFF" points="52,30 52,35 60,29 60,27 56,27 "/>
<polygon opacity="0.5" fill="#FFFFFF" points="12,35 20,29 20,27 12,33 "/>
<polygon opacity="0.5" fill="#FFFFFF" points="32,35 34,35 40,31 40,27 32,33 "/>
<polygon opacity="0.5" fill="#FFFFFF" points="42,35 50,29 50,27 42,33 "/>
</svg>
