<?xml version="1.0" encoding="utf-8"?>
<!-- Generator: Adobe Illustrator 16.2.0, SVG Export Plug-In . SVG Version: 6.00 Build 0)  -->
<!DOCTYPE svg PUBLIC "-//W3C//DTD SVG 1.1//EN" "http://www.w3.org/Graphics/SVG/1.1/DTD/svg11.dtd">
<svg version="1.1" id="Layer_1" xmlns="http://www.w3.org/2000/svg" xmlns:xlink="http://www.w3.org/1999/xlink" x="0px" y="0px"
	 width="64px" height="64px" viewBox="0 0 64 64" enable-background="new 0 0 64 64" xml:space="preserve">
<rect x="15" y="51" fill="#4E5E67" width="34" height="4"/>
<rect x="10" y="58" fill="#4E5E67" width="44" height="4"/>
<polygon fill="#CFD8DD" points="11.001,62 32,32 2,62 "/>
<polygon fill="#CFD8DD" points="32,32 53.002,62 62,62 "/>
<polygon fill="#6E8189" points="12.001,62 32,32 8,62 "/>
<polygon fill="#6E8189" points="32,32 52.002,62 56,62 "/>
<path fill="#CFD8DD" d="M32,2C17,2,10,13.25,10,18c0,11,0,12.75,0,17c0,6,8.944,18,22,18c13.057,0,22-12,22-18c0-4.25,0-6,0-17
	C54,13.25,47,2,32,2z"/>
<path fill="#CFD8DD" d="M32,2C17,2,10,13.25,10,18c0,11,0,12.75,0,17c0,6,8.944,18,22,18c13.057,0,22-12,22-18c0-4.25,0-6,0-17
	C54,13.25,47,2,32,2z"/>
<path fill="#E6EBEF" d="M32,2C21,2,14,9.637,14,20c0,5.698,4,26,18,26s18-20.302,18-26C50,9.637,43,2,32,2z"/>
<path fill="#FFFFFF" d="M20,15c0,4,4,9,10,9V14L20,15z"/>
<path fill="#0FB4D4" d="M30,12c0,0-4.157,0-10,0c0,0,0-1,0,2c0,4,5,8,10,8V12z"/>
<path fill="#99A8AE" d="M20,12c0,0,5-2,10-2v2H20z"/>
<path fill="#018BC9" d="M27.344,21.634L26.336,18h-4.724C22.972,19.664,25.053,21.017,27.344,21.634z"/>
<path fill="#FFFFFF" d="M34,14v10c6,0,10-5,10-9L34,14z"/>
<path fill="#0FB4D4" d="M34,22c5,0,10-4,10-8c0-3,0-2,0-2c-5.843,0-10,0-10,0V22z"/>
<path fill="#99A8AE" d="M44,12c0,0-5-2-10-2v2H44z"/>
<path fill="#018BC9" d="M36.656,21.634L37.664,18h4.724C41.028,19.664,38.947,21.017,36.656,21.634z"/>
<path fill="#99A8AE" d="M22,29c-2,0-4,1.001-4,2.001c0,0.999,2.896,2,4,2S24,32,24,32C24,30.896,24,29,22,29z"/>
<path fill="#FFFFFF" d="M32,36c-5.523,0-10,4.478-10,10h20C42,40.478,37.522,36,32,36z"/>
<path fill="#F9C802" d="M22,30.001c-1.104,0-4,0-4,1c0,0.999,2.896,3,4,3s2-0.896,2-2S23.104,30.001,22,30.001z"/>
<path fill="#99A8AE" d="M42,29c-2,0-2,1.896-2,3c0,0,0.896,1.001,2,1.001s4-1.001,4-2C46,30.001,44,29,42,29z"/>
<path fill="#F9C802" d="M42,30.001c1.104,0,4,0,4,1c0,0.999-2.896,3-4,3s-2-0.896-2-2S40.896,30.001,42,30.001z"/>
<path fill="#99A8AE" d="M32,46c-21.935,0-22-28-22-28v17c0,6,8.944,17,22,17c13.057,0,22-11,22-17c0,0,0-4,0-17
	C54,18,53.936,46,32,46z"/>
<path fill="#6E8189" d="M32,52c-16.973,0-22-18-22-18c0,1.469,0,0.76,0,2c0,6,8.944,20,22,20c13.057,0,22-14,22-20
	c0-1.24,0-0.531,0-2C54,34,48.974,52,32,52z"/>
<path opacity="0.5" fill="#FFFFFF" d="M43.644,15.851C43.866,15.243,44,14.623,44,14c0-1.209,0-1.763,0-2c-5.843,0-10,0-10,0v2.05
	C37.879,14.222,41.291,14.885,43.644,15.851z"/>
<path opacity="0.5" fill="#FFFFFF" d="M30,14.05V12c0,0-4.157,0-10,0c0,0.237,0,0.791,0,2c0,0.623,0.133,1.243,0.356,1.85
	C22.709,14.885,26.121,14.222,30,14.05z"/>
</svg>
