<?xml version="1.0" encoding="utf-8"?>
<!-- Generator: Adobe Illustrator 16.2.0, SVG Export Plug-In . SVG Version: 6.00 Build 0)  -->
<!DOCTYPE svg PUBLIC "-//W3C//DTD SVG 1.1//EN" "http://www.w3.org/Graphics/SVG/1.1/DTD/svg11.dtd">
<svg version="1.1" id="Layer_1" xmlns="http://www.w3.org/2000/svg" xmlns:xlink="http://www.w3.org/1999/xlink" x="0px" y="0px"
	 width="64px" height="64px" viewBox="0 0 64 64" enable-background="new 0 0 64 64" xml:space="preserve">
<path fill="#6E8189" d="M20,58l-1,2c0,1.104,6.372,2,13,2c6.629,0,13-0.896,13-2l-1-2H20z"/>
<ellipse fill="#99A8AE" cx="32" cy="58" rx="12" ry="2"/>
<path fill="#6E8189" d="M25,56l-1,2c0,0.552,4.133,1,8,1s8-0.448,8-1l-1-2H25z"/>
<rect x="33" y="34" fill="#99A8AE" width="4" height="2"/>
<rect x="33" y="42" fill="#99A8AE" width="4" height="2"/>
<ellipse fill="#99A8AE" cx="32" cy="56" rx="7" ry="1"/>
<path fill="#CFD8DD" d="M30,26v29.276C30,55.678,30.896,56,32,56s2-0.322,2-0.724V26H30z"/>
<path fill="#99A8AE" d="M30,31.852C30.654,31.945,31.32,32,32,32s1.347-0.055,2-0.148V26h-4V31.852z"/>
<rect x="36" y="32" fill="#CFD8DD" width="16" height="14"/>
<rect x="38" y="34" fill="#FFFFFF" width="12" height="4"/>
<rect x="38" y="40" fill="#FFFFFF" width="12" height="4"/>
<rect x="38" y="34" fill="#6E8189" width="12" height="2"/>
<rect x="38" y="40" fill="#6E8189" width="8" height="2"/>
<path fill="#E81C27" d="M45.412,12C43.69,6.219,38.342,2,32,2c-6.341,0-11.69,4.219-13.413,10H45.412z"/>
<path fill="#018BC9" d="M18.587,20C20.31,25.781,25.659,30,32,30c6.342,0,11.69-4.219,13.412-10H18.587z"/>
<path fill="#E6EBEF" d="M18.587,20h26.825C45.79,18.732,46,17.391,46,16s-0.21-2.732-0.588-4H18.587C18.21,13.268,18,14.609,18,16
	S18.21,18.732,18.587,20z"/>
<path fill="#006DAE" d="M32,28c-5.548,0-10.392-2.765-13.025-6.883C21.019,26.316,26.076,30,32,30
	c5.925,0,10.981-3.684,13.024-8.882C42.391,25.236,37.548,28,32,28z"/>
</svg>
