<?xml version="1.0" encoding="utf-8"?>
<!-- Generator: Adobe Illustrator 15.0.0, SVG Export Plug-In . SVG Version: 6.00 Build 0)  -->
<!DOCTYPE svg PUBLIC "-//W3C//DTD SVG 1.1//EN" "http://www.w3.org/Graphics/SVG/1.1/DTD/svg11.dtd">
<svg version="1.1" id="Layer_1" xmlns="http://www.w3.org/2000/svg" xmlns:xlink="http://www.w3.org/1999/xlink" x="0px" y="0px"
	 width="64px" height="64px" viewBox="0 0 64 64" enable-background="new 0 0 64 64" xml:space="preserve">
<path fill="#99A8AE" d="M31,2h-8c-1.104,0-2,0.896-2,2c0,0.276,0.224,0.5,0.5,0.5S22,4.276,22,4c0-0.553,0.447-1,1-1h0.5
	c1.163,0,1.279,0.555,1.475,1.473c0.15,0.715,0.371,1.75,1.525,1.979V10h1V6.452c1.154-0.229,1.375-1.267,1.525-1.979
	C29.221,3.555,29.337,3,30.5,3H31c0.553,0,1,0.447,1,1c0,0.276,0.224,0.5,0.5,0.5S33,4.276,33,4C33,2.896,32.104,2,31,2z
	 M28.048,4.268C27.852,5.198,27.727,5.5,27,5.5s-0.852-0.302-1.048-1.232C25.871,3.881,25.771,3.412,25.529,3h2.941
	C28.229,3.412,28.129,3.881,28.048,4.268z M44,40v4l18,18v-6L44,40z"/>
<path fill="#E6EBEF" d="M44,40l18,16V40H44z"/>
<path fill="#F59E01" d="M46,40h-1l17,14v-2L46,40z"/>
<path fill="#4E5E67" d="M36.166,43H17.833L16,45h22L36.166,43z M41.559,48H12.441L10.5,52h33L41.559,48z M7,56h40v6H7V56z"/>
<path fill="#BEC3CF" d="M52,62L30,32l16,30H52z"/>
<path fill="#6E8189" d="M47.602,62L30,32l15,30H47.602z"/>
<path fill="#BEC3CF" d="M8,62l16-30L2,62H8z"/>
<path fill="#6E8189" d="M9,62l15-30L6.398,62H9z"/>
<path fill="#99A8AE" d="M55,35.139V20c0-0.553-0.447-1-1-1s-1,0.447-1,1v15.139c-0.596,0.174-1,0.492-1,0.861v6c0,0.553,0.896,1,2,1
	s2-0.447,2-1v-6C56,35.631,55.596,35.313,55,35.139z"/>
<path fill="#4E5E67" d="M46,21h16v6H46V21z"/>
<path fill="#6E8189" d="M58,23h2v2h-2V23z M48,23h8v2h-8V23z"/>
<path fill="#4E5E67" d="M40,37v3c0,1.118-0.292,5-2,5c-1.109,0-2-4-2-8H40z M14,37v3c0,1.118,0.292,5,2,5c1.109,0,2-4,2-8H14z"/>
<path fill="#E6EBEF" d="M38,41c3.3,0,5-3,5-9c0-13-0.375-25-8-25H19c-7.625,0-8,12-8,25c0,6,1.7,9,5,9H38z"/>
<path fill="#F9B700" d="M19,29h16c0.337-2.482,1.375-12.053,2-16c0.504-3.178,1.938-4.48,1.938-4.48C37.906,7.545,36.617,7,35,7H19
	c-1.618,0-2.906,0.545-3.938,1.52c0,0,1.539,1.289,1.938,4.48L19,29z"/>
<path fill="#CFD8DD" d="M43,32c0,6-1.7,8-5,8c0-9.482,0-21,3.172-27.775C42.868,16.938,43,24.292,43,32z M11,32c0,6,1.7,8,5,8
	c0-9.482,0-21-3.171-27.775C11.132,16.938,11,24.292,11,32z"/>
<path fill="#99A8AE" d="M11,32c0,6,1.7,9,5,9h22c3.3,0,5-3,5-9c0,0,0,7-6,7H17C11,39,11,32,11,32z"/>
<path fill="#302C3B" d="M35,7H19c0,0,0.557,0.003,1,4h14C34.443,7.003,35,7,35,7z"/>
<path fill="#6E8189" d="M32,8H22c-0.55,0-1,0.45-1,1s0.45,1,1,1h10c0.55,0,1-0.45,1-1S32.55,8,32,8z"/>
<path fill="#302C3B" d="M19,29c0,0,0-0.027,0.671,4c0.181,1.085,1.229,2,2.329,2h10c1.1,0,2.146-0.915,2.329-2L35,29H19z"/>
<path fill="#FFFFFF" d="M24.5,31h-3c-0.275,0-0.5,0.225-0.5,0.5v1c0,0.275,0.225,0.5,0.5,0.5h3c0.275,0,0.5-0.225,0.5-0.5v-1
	C25,31.225,24.775,31,24.5,31z M32.5,31h-3c-0.275,0-0.5,0.225-0.5,0.5v1c0,0.275,0.225,0.5,0.5,0.5h3c0.275,0,0.5-0.225,0.5-0.5v-1
	C33,31.225,32.775,31,32.5,31z"/>
<path fill="#0FB4D4" d="M20,11l1.496,18h10.996L34,11H20z"/>
<path fill="#018BC9" d="M28.874,23.6h-3.758c-0.517,0-0.94,0.606-0.94,1.351V29h5.639v-4.05C29.814,24.206,29.391,23.6,28.874,23.6z
	"/>
<path opacity="0.5" fill="#FFFFFF" enable-background="new    " d="M21.311,26.771L21.496,29l12.235-14.797L34,11L21.311,26.771z"/>
<path opacity="0.5" fill="#FFFFFF" enable-background="new    " d="M20.281,14.378l0.37,5.06L27.32,11h-4.322L20.281,14.378z"/>
<path opacity="0.5" fill="#FFFFFF" enable-background="new    " d="M24.472,29h6.358l1.842-2.141l0.753-8.985L24.472,29z"/>
</svg>
