<?xml version="1.0" encoding="utf-8"?>
<!-- Generator: Adobe Illustrator 16.2.0, SVG Export Plug-In . SVG Version: 6.00 Build 0)  -->
<!DOCTYPE svg PUBLIC "-//W3C//DTD SVG 1.1//EN" "http://www.w3.org/Graphics/SVG/1.1/DTD/svg11.dtd">
<svg version="1.1" id="Layer_1" xmlns="http://www.w3.org/2000/svg" xmlns:xlink="http://www.w3.org/1999/xlink" x="0px" y="0px"
	 width="64px" height="64px" viewBox="0 0 64 64" enable-background="new 0 0 64 64" xml:space="preserve">
<path fill="#EA8800" d="M16.755,44.562C14.923,56.144,7.274,61.91,7.274,61.91S19.227,60.447,22,49.804L16.755,44.562z"/>
<path fill="#EA8800" d="M14.194,42C3.554,44.774,2.091,56.726,2.091,56.726s5.768-7.646,17.348-9.481L14.194,42z"/>
<path fill="#EA8800" d="M11.39,44.562C3.998,51.953,2,62,2,62s10.023-1.975,17.439-9.39L11.39,44.562z"/>
<path fill="#F9B700" d="M15.73,48.902c-1.467,4.665-3.791,8.064-5.637,10.217c2.993-1.447,7.377-4.541,10.345-7.509L15.73,48.902z"
	/>
<path fill="#F9B700" d="M12.39,43.562c-2.96,2.96-6.053,7.345-7.501,10.341c2.153-1.846,5.55-4.166,10.21-5.632L12.39,43.562z"/>
<path fill="#FFE12C" d="M18.68,39C8.529,44.646,7,57,7,57s12.336-1.496,18-11.681L18.68,39z"/>
<path fill="#E81C27" d="M2,36.948c0.346,0.379,1.078-1.421,5-1.956c4.248-0.578,7,1.956,7,1.956l6-7.959c0,0-4.01-1.989-8.02-1.989
	C3.961,27,2,36.948,2,36.948z"/>
<path fill="#E81C27" d="M27.052,62c-0.379-0.346,1.421-1.078,1.956-5c0.578-4.248-1.956-7-1.956-7l7.959-6
	c0,0,1.989,4.01,1.989,8.02C37,60.039,27.052,62,27.052,62z"/>
<path fill="#6E8189" d="M18.461,31c-9.45,9.451-9.057,12.751-3.635,18.174c5.42,5.421,8.723,5.816,18.173-3.635L18.461,31z"/>
<path fill="#302C3B" d="M24.014,42.979c-3.719,3.719-6.399,7.069-5.986,7.481c0.415,0.414,3.763-2.265,7.483-5.986L24.014,42.979z"
	/>
<path fill="#302C3B" d="M28.503,44.475c-3.718,3.722-6.399,7.07-5.985,7.483c0.414,0.413,3.763-2.267,7.482-5.986L28.503,44.475z"/>
<path fill="#302C3B" d="M19.525,38.49c-3.72,3.719-6.4,7.068-5.987,7.481c0.415,0.415,3.763-2.266,7.483-5.985L19.525,38.49z"/>
<path fill="#302C3B" d="M18.028,34c-3.719,3.72-6.399,7.069-5.985,7.482c0.414,0.414,3.763-2.266,7.483-5.986L18.028,34z"/>
<path fill="#CAE8F0" d="M56.979,7.021c0,0-15.94-1.45-36.951,19.562c-9.419,9.419-8.568,13.168-2.174,19.563
	c6.395,6.396,10.144,7.246,19.564-2.173C58.428,22.96,56.979,7.021,56.979,7.021z"/>
<circle fill="#E81C27" cx="40" cy="24" r="7"/>
<circle fill="#018BC9" cx="40" cy="24" r="5"/>
<circle opacity="0.5" fill="#FFFFFF" cx="40" cy="25" r="4"/>
<path fill="#B00505" d="M35.011,44l-7.959,6c0,0,0.999,1.086,1.599,2.945c2.832-1.339,5.437-3.078,7.739-5.149
	C35.805,45.604,35.011,44,35.011,44z"/>
<ellipse transform="matrix(0.7071 -0.7071 0.7071 0.7071 -27.2555 26.2021)" fill="#E81C27" cx="18" cy="46" rx="9.838" ry="1.094"/>
<path fill="#A0D8E9" d="M21.056,48.998c4.702,3.518,8.614,2.748,16.361-4.998C53.896,27.519,56.618,13.996,57,9
	C55.901,11.534,44,38.84,21.056,48.998z"/>
<path fill="#E81C27" d="M55,7c-2,0-6.233,0.904-11,2.84c0.712,1.85,2.218,3.683,4.348,5.812c2.129,2.129,3.963,3.635,5.813,4.348
	C55.979,15.229,57,9,57,9l5-7L55,7z"/>
<path fill="#FFFFFF" d="M28.232,20.9c-10.563,8.877-14.505,15.242-12.879,16.87c1.624,1.627,5.627-5.637,13.87-13.893
	C37.348,15.74,53,8,53,8S40.468,10.617,28.232,20.9z"/>
<path fill="#B00505" d="M54.16,20c0,0,1.267-3.217,1.961-5.844C56.943,10.888,57,9.25,57,9c-0.38,0.877-2.057,4.723-5.035,9.797
	C52.707,19.313,53.433,19.72,54.16,20z"/>
</svg>
