<?xml version="1.0" encoding="utf-8"?>
<!-- Generator: Adobe Illustrator 15.0.0, SVG Export Plug-In . SVG Version: 6.00 Build 0)  -->
<!DOCTYPE svg PUBLIC "-//W3C//DTD SVG 1.1//EN" "http://www.w3.org/Graphics/SVG/1.1/DTD/svg11.dtd">
<svg version="1.1" id="Layer_1" xmlns="http://www.w3.org/2000/svg" xmlns:xlink="http://www.w3.org/1999/xlink" x="0px" y="0px"
	 width="64px" height="64px" viewBox="0 0 64 64" enable-background="new 0 0 64 64" xml:space="preserve">
<path fill="#4E5E67" d="M48,3H28.722C28.375,2.405,27.738,2,27,2h-2c-0.738,0-1.377,0.405-1.724,1H4c0,0-2,0-2,2s2,2,2,2h5
	c3.041,0,12-2,12-2h2.276C23.623,5.595,24.26,6,25,6v2c-1.105,0-2,0.896-2,2v2h6v-2c0-1.104-0.896-2-2-2V6
	c0.737,0,1.375-0.405,1.723-1H31c0,0,8.958,2,12,2h5c0,0,2,0,2-2S48,3,48,3z"/>
<path fill="#E81C27" d="M36,18v9l21-5v-4H36z"/>
<path fill="#E81C27" d="M61.977,11.977C62.102,11.439,61.729,11,61.15,11h-3.162c-0.58,0-1.268,0.402-1.525,0.895l-4.326,8.211
	c-0.261,0.492-0.137,1.213,0.272,1.603l2.726,2.586c0.41,0.39,1.221,0.707,1.801,0.707h4.215c0.58,0,0.879-0.418,0.662-0.929
	l-1.324-3.143c-0.215-0.512-0.288-1.369-0.163-1.906L61.977,11.977z M2,34c0,4.375,3.524,9,10,9h16c3.422,0,3.619-6.619,8-11
	c5.213-5.214,6-5.966,6-10c0-2.018-1.998-11-18-11c-2.816,0-6.369,1.057-9.793,3H22L2,34z"/>
<path fill="#F59E01" d="M28,30H4l-2,4h26c1.1,0,2-0.9,2-2S29.099,30,28,30z"/>
<path fill="#0FB4D4" d="M18,28c4-4,4-14,4-14h-7.812C8.117,17.449,2,25.718,2,34C2,34,12.953,33.047,18,28z"/>
<path fill="#C21413" d="M12,43h16c3.422,0,3.619-6.619,8-11c-5.814,5.813-32.084,14.244-33.896,3.251C2.707,39.213,6.141,43,12,43z"
	/>
<path fill="#0FB4D4" d="M24,14v10c0,1.104,0.895,2,2,2h2c1.104,0,2-0.896,2-2v-8c0-1.104-0.896-2-2-2H24z"/>
<path fill="#E81C27" d="M33,50h-4v-5c0-2.762-2.239-5-5-5c-0.553,0-1,0.447-1,1s0.447,1,1,1c1.656,0,3,1.344,3,3v5H11v-5
	c0-1.656,1.344-3,3-3c0.552,0,1-0.447,1-1s-0.448-1-1-1c-2.762,0-5,2.238-5,5v5H7c-1.657,0-3-1.344-3-3c0-0.553-0.448-1-1-1
	c-0.553,0-1,0.447-1,1c0,2.762,2.238,5,5,5h26c0.553,0,1-0.447,1-1S33.553,50,33,50z"/>
<path fill="#006DAE" d="M14,26c-0.553,0-0.849,0.468-1,1l-1.369,4.788c1.162-0.431,2.289-0.952,3.369-1.56V27
	C15,26.447,14.551,26,14,26z M4,30h-1.53C2.173,31.32,2,32.659,2,34c0,0,2.226-0.195,5.131-0.869L4,30z"/>
<path opacity="0.5" fill="#FFFFFF" enable-background="new    " d="M3.376,26.99c4.71-4.803,13.46-8.49,18.338-8.99
	C21.999,15.711,22,14,22,14s-10.309,1.833-15.33,6.961C5.333,22.804,4.195,24.846,3.376,26.99z"/>
<path fill="#302C3B" d="M25,6h2v2h-2V6z"/>
<path fill="#4E5E67" d="M58.938,28.405c0.131,0.563,0.644,0.762,1.142,0.442l1.45-0.935c0.465-0.286,0.61-0.894,0.324-1.358
	c-0.016-0.025-0.032-0.051-0.051-0.074L52.197,13.52c-0.328-0.436-0.238-1.056,0.197-1.383c0.025-0.018,0.05-0.035,0.076-0.051
	l1.45-0.934c0.498-0.319,1.011-0.121,1.142,0.441L58.938,28.405L58.938,28.405z"/>
<circle fill="#F59E01" cx="57" cy="20" r="2"/>
<path opacity="0.5" fill="#FFFFFF" d="M24,24c0,1.104,0.895,2,2,2l4-4v-4L24,24z"/>
<path opacity="0.5" fill="#FFFFFF" d="M28,14l-4,4.125v3.844L30,16C30,14.896,29.103,14,28,14z"/>
<path opacity="0.5" fill="#FFFFFF" d="M20.359,24c0.417-1.137,0.728-2.341,0.959-3.505c-7.377,0.964-14.513,4.786-18.643,8.606
	c-0.288,1.064-0.491,2.146-0.596,3.232C6.368,29.031,11.699,25.584,20.359,24z"/>
</svg>
