<?xml version="1.0" encoding="utf-8"?>
<!-- Generator: Adobe Illustrator 15.0.0, SVG Export Plug-In . SVG Version: 6.00 Build 0)  -->
<!DOCTYPE svg PUBLIC "-//W3C//DTD SVG 1.1//EN" "http://www.w3.org/Graphics/SVG/1.1/DTD/svg11.dtd">
<svg version="1.1" id="Layer_1" xmlns="http://www.w3.org/2000/svg" xmlns:xlink="http://www.w3.org/1999/xlink" x="0px" y="0px"
	 width="64px" height="64px" viewBox="0 0 64 64" enable-background="new 0 0 64 64" xml:space="preserve">
<path fill="#302C3B" d="M35.365,3l5.381,3.286L32,15l1,1l9-9V5.814L35.635,2H31.5L30,3l0.557,0.658L31.5,3H35.365z M9,52h46v4H9V52z
	"/>
<circle fill="#4E5E67" cx="17" cy="55" r="5"/>
<circle fill="#302C3B" cx="17" cy="55" r="4"/>
<circle fill="#4E5E67" cx="17" cy="55" r="1"/>
<circle fill="#4E5E67" cx="47" cy="55" r="5"/>
<circle fill="#302C3B" cx="47" cy="55" r="4"/>
<circle fill="#4E5E67" cx="47" cy="55" r="1"/>
<path fill="#4E5E67" d="M22,52l2,4h16l2-4H22z"/>
<path fill="#302C3B" d="M2,52h60v2H2V52z"/>
<path fill="#99A8AE" d="M2,60h60v2H2V60z"/>
<path fill="#FDCA47" d="M4,38h56v14H4V38z"/>
<path fill="#E6EBEF" d="M4,20h56v18H4V20z"/>
<path fill="#6E8189" d="M60,20c0-2.209-1.791-4-4-4H8c-2.209,0-4,1.791-4,4H60z"/>
<path fill="#0FB4D4" d="M4,24h2v12H4V24z M58,24h2v12h-2V24z M12,28h4v8h-4V28z"/>
<path fill="#BEC3CF" d="M8,38h2V26h8v12h2V24H8V38z"/>
<path fill="#E6A400" d="M8,38h2v14H8V38z M18,38h2v14h-2V38z"/>
<path fill="#0FB4D4" d="M22,24h10v12H22V24z M46,24h10v12H46V24z M34,24h10v12H34V24z"/>
<path fill="#4E5E67" d="M7,52h8v2H7V52z M24,14h16v2H24V14z"/>
<path fill="#FEEC9A" d="M4,48l-2,4h4v-4H4z M60,48l2,4h-4v-4H60z"/>
<polygon opacity="0.5" fill="#FFFFFF" points="22,35 32,28 32,24 22,31 "/>
<polygon opacity="0.5" fill="#FFFFFF" points="34,35 44,28 44,24 34,31 "/>
<polygon opacity="0.5" fill="#FFFFFF" points="46,36 56,29 56,24 46,31 "/>
<polygon opacity="0.5" fill="#FFFFFF" points="12,35 16,32 16,28 12,31 "/>
<polygon opacity="0.5" fill="#FFFFFF" points="4,32 6,30 6,24 4,26 "/>
<polygon opacity="0.5" fill="#FFFFFF" points="58,34 60,32 60,26 58,28 "/>
<path fill="#E03636" d="M59,42h1c0.55,0,1,0.45,1,1v2c0,0.55-0.45,1-1,1h-1V42z"/>
<path fill="#BEC3CF" d="M4,42c-0.55,0-1,0.45-1,1v2c0,0.55,0.45,1,1,1V42z"/>
<path fill="#FFFFFF" d="M4,42h1v4H4V42z"/>
</svg>
