<?xml version="1.0" encoding="utf-8"?>
<!-- Generator: Adobe Illustrator 15.0.0, SVG Export Plug-In . SVG Version: 6.00 Build 0)  -->
<!DOCTYPE svg PUBLIC "-//W3C//DTD SVG 1.1//EN" "http://www.w3.org/Graphics/SVG/1.1/DTD/svg11.dtd">
<svg version="1.1" id="Layer_1" xmlns="http://www.w3.org/2000/svg" xmlns:xlink="http://www.w3.org/1999/xlink" x="0px" y="0px"
	 width="64px" height="64px" viewBox="0 0 64 64" enable-background="new 0 0 64 64" xml:space="preserve">
<path fill="#6E8189" d="M2,58h60v4H2V58z"/>
<path fill="#BEC3CF" d="M2,56h60v2H2V56z"/>
<path fill="#302C3B" d="M12,58h50V38H22L12,58z"/>
<path fill="#E6EBEF" d="M21,11c0,0,1.667-5,11-5h30v46H18.003C10,52,7,47,7,41L21,11z"/>
<path fill="#EA8800" d="M17.003,52H62V41H6C6,47,9,52,17.003,52z"/>
<path fill="#F9C802" d="M24.003,52H62V41H13C10.275,46.346,15,52,24.003,52z"/>
<path fill="#0FB4D4" d="M27.962,11H21L7.553,35h8.426L27.962,11z"/>
<path fill="#302C3B" d="M15.979,35H7.553C6.5,37.094,6,39.425,6,41h6.982L15.979,35z"/>
<path opacity="0.5" fill="#FFFFFF" enable-background="new    " d="M10.648,29.476l11.565-6.964l3.68-7.369l-10.371,5.633
	L10.648,29.476z"/>
<path fill="#FFFFFF" d="M11,47c-1.104,0-2-0.896-2-2s0.896-2,2-2h4l-2,4H11z"/>
<path fill="#0FB4D4" d="M62,31V11H32L22,31H62z"/>
<path fill="#018BC9" d="M58.764,25c-0.865,0-1.744,0.843-1.953,1.911L56,31h3.146l0.81-4.089C60.164,25.843,59.628,25,58.764,25z
	 M46.764,25c-0.865,0-1.744,0.843-1.953,1.911L44,31h3.146l0.81-4.089C48.164,25.843,47.628,25,46.764,25z M34.764,25
	c-0.865,0-1.744,0.843-1.953,1.911L32,31h3.146l0.81-4.089C36.164,25.843,35.628,25,34.764,25z"/>
<path fill="#EA8800" d="M36,41l4,4h22v-4H36z"/>
<path opacity="0.5" fill="#FFFFFF" enable-background="new    " d="M51.858,11h-5.5l-21.42,14.123L22,31L51.858,11z"/>
<path opacity="0.5" fill="#FFFFFF" enable-background="new    " d="M62,20.626V11L33.417,31h13.602L62,20.626z"/>
</svg>
