<?xml version="1.0" encoding="utf-8"?>
<!-- Generator: Adobe Illustrator 15.0.0, SVG Export Plug-In . SVG Version: 6.00 Build 0)  -->
<!DOCTYPE svg PUBLIC "-//W3C//DTD SVG 1.1//EN" "http://www.w3.org/Graphics/SVG/1.1/DTD/svg11.dtd">
<svg version="1.1" id="Layer_1" xmlns="http://www.w3.org/2000/svg" xmlns:xlink="http://www.w3.org/1999/xlink" x="0px" y="0px"
	 width="64px" height="64px" viewBox="0 0 64 64" enable-background="new 0 0 64 64" xml:space="preserve">
<path fill="#1A1626" d="M32,2C15.432,2,2,15.432,2,32c0,11.105,6.04,20.796,15.01,25.982h2.936v1.487C23.635,61.094,27.711,62,32,62
	s8.365-0.906,12.055-2.527v-1.49h2.937C55.96,52.796,62,43.105,62,32C62,15.432,48.568,2,32,2z"/>
<path fill="#4E5E67" d="M39.412,47h-1.471l6.113,12.473c0.529-0.232,1.053-0.481,1.567-0.746L39.412,47z"/>
<path fill="#6E8189" d="M41.5,47h-2.088l5.883,11.893c0.574-0.285,1.141-0.589,1.695-0.912L41.5,47z"/>
<path fill="#BEC3CF" d="M43,47c-0.553,0-1,0.447-1,1v4c0,0.553,0.447,1,1,1s1-0.447,1-1v-4C44,47.447,43.553,47,43,47z"/>
<path fill="#4E5E67" d="M18.377,58.727c0.516,0.264,1.037,0.514,1.568,0.746L26.059,47h-1.47L18.377,58.727z"/>
<path fill="#6E8189" d="M17.009,57.98c0.556,0.322,1.121,0.626,1.696,0.912L24.588,47H22.5L17.009,57.98z"/>
<path fill="#BEC3CF" d="M22,52c0,0.553-0.447,1-1,1s-1-0.447-1-1v-4c0-0.553,0.447-1,1-1s1,0.447,1,1V52z"/>
<path fill="#6E8189" d="M16,42c0,2,2,8,3,8h26c1,0,3-6,3-8V15c0-1.953-4.047-5-6-5H22c-1.953,0-6,3.047-6,5V42z"/>
<path fill="#99A8AE" d="M16,31v7c0,2,2,8,5,8h22c3,0,5-6,5-8v-7H16z"/>
<path fill="#CFD8DD" d="M16,32v6c0,2,2,8,5,8h22c3,0,5-6,5-8v-6H16z"/>
<path fill="#99A8AE" d="M16,29v7c0,2,2,8,5,8h22c3,0,5-6,5-8v-7H16z"/>
<path fill="#E81C27" d="M42,10H22c-1.953,0-6,3.047-6,5v17l6,4c4.852,3.234,4,8,8,8h4c4,0,4.268-5.512,8-8l6-4V15
	C48,13.047,43.953,10,42,10z"/>
<path fill="#B00505" d="M32,36c-16,0-16-21-16-21v17c7,4.738,11.809,5,16,5s9-0.262,16-5V15C48,15,48,36,32,36z"/>
<path fill="#0FB4D4" d="M19,21h26c0,0-0.596,10.596-3,13c-4,4-16,4-20,0C19.594,31.594,19,21,19,21z"/>
<path fill="#018BC9" d="M40,29h-4c-0.55,0-1,0.45-1,1v3h6v-3C41,29.45,40.55,29,40,29z M28,29h-4c-0.55,0-1,0.45-1,1v3h6v-3
	C29,29.45,28.55,29,28,29z"/>
<circle fill="#FFFFFF" cx="20" cy="39" r="2"/>
<circle fill="#FFE12C" cx="24" cy="41" r="1"/>
<circle fill="#FFFFFF" cx="44" cy="39" r="2"/>
<circle fill="#FFE12C" cx="40" cy="41" r="1"/>
<path fill="#302C3B" d="M35,46h-6l-2,4h10L35,46z"/>
<path fill="#99A8AE" d="M34,48h-4l-1,2h6L34,48z"/>
<path fill="#B00505" d="M43,13H21c-3,0-2,8-2,8h26C45,21,46,13,43,13z"/>
<path fill="#302C3B" d="M43,15H21c-2,0-2,6-2,6h26C45,21,45,15,43,15z"/>
<circle fill="#99A8AE" cx="32" cy="18" r="2"/>
<circle fill="#FFFFFF" cx="32" cy="18" r="1"/>
<path opacity="0.5" fill="#FFFFFF" enable-background="new    " d="M32,21h11.316L24.205,35.492c0,0-1.623-0.91-2.205-1.492
	c-0.846-0.846-1.468-2.704-1.919-4.758L32,21z"/>
<path opacity="0.5" fill="#FFFFFF" enable-background="new    " d="M44.489,26c0,0-0.357,3.294-1.321,5.909
	c-0.702,1.719-7.442,3.513-7.894,1.459L44.489,26z"/>
<path fill="#302C3B" d="M43.538,30c-4.615,4-18.461,4-23.077,0c-0.094-0.082-0.183-0.17-0.266-0.264
	C20.637,31.59,21.223,33.223,22,34c4,4,16,4,20,0c0.775-0.775,1.363-2.41,1.805-4.264C43.721,29.83,43.632,29.918,43.538,30z"/>
</svg>
