<?xml version="1.0" encoding="utf-8"?>
<!-- Generator: Adobe Illustrator 15.0.0, SVG Export Plug-In . SVG Version: 6.00 Build 0)  -->
<!DOCTYPE svg PUBLIC "-//W3C//DTD SVG 1.1//EN" "http://www.w3.org/Graphics/SVG/1.1/DTD/svg11.dtd">
<svg version="1.1" id="Layer_1" xmlns="http://www.w3.org/2000/svg" xmlns:xlink="http://www.w3.org/1999/xlink" x="0px" y="0px"
	 width="64px" height="64px" viewBox="0 0 64 64" enable-background="new 0 0 64 64" xml:space="preserve">
<path fill="#BEC3CF" d="M62,55V22c0-3-3-4-6-4H4c-1.1,0-2,0.9-2,2v35"/>
<path fill="#E6EBEF" d="M2,22h60v16H2V22z"/>
<path fill="#0FB4D4" d="M10,26H2v18h7c0.553,0,1-0.447,1-1V26z"/>
<path fill="#F9C802" d="M2,40h60v12H2V40z"/>
<path fill="#6E8189" d="M2,52v3c0,0.553,0.563,1,1.115,1H59l3-1v-3H2z"/>
<path fill="#4E5E67" d="M58.77,56c0.146-0.645,0.23-1.313,0.23-2.001c0.002-4.968-4.024-8.997-8.993-8.999c-0.003,0-0.006,0-0.009,0
	c-4.967-0.002-8.996,4.023-8.998,8.99c0,0.003,0,0.006,0,0.009c0,0.688,0.084,1.356,0.23,2.001H58.77z M24.77,56
	c0.146-0.645,0.23-1.313,0.23-2.001c0.002-4.968-4.024-8.997-8.993-8.999c-0.003,0-0.006,0-0.009,0
	C11.031,44.998,7.002,49.023,7,53.99c0,0.003,0,0.006,0,0.009C7,54.688,7.084,55.355,7.23,56H24.77z"/>
<path fill="#282433" d="M42,54c0,4.42,3.578,8,7.998,8c4.417,0.002,8-3.576,8.002-7.994c0-0.002,0-0.004,0-0.006
	c0-4.422-3.58-8-8.002-8c-4.416-0.002-7.996,3.576-7.998,7.992C42,53.994,42,53.997,42,54z"/>
<path fill="#FAFAFA" d="M44.999,54c0.001,2.761,2.238,4.998,4.999,4.999c2.76,0.002,4.998-2.233,5.001-4.993
	c0-0.002,0-0.004,0-0.006c0-2.762-2.239-5-5-5S44.999,51.238,44.999,54z"/>
<path fill="#AFBBC1" d="M46,54.001C46.001,56.21,47.793,58,50.002,58c2.209-0.002,3.999-1.793,3.998-4.002s-1.793-4-4.002-3.998
	C47.789,50,45.999,51.792,46,54.001z"/>
<path fill="#71858C" d="M48,54.001c0,1.104,0.896,2,2,1.999c1.105,0,2-0.896,2-2s-0.896-2-2-2S48,52.896,48,54.001L48,54.001z"/>
<path fill="#282433" d="M49,54.001c-0.018,0.552,0.416,1.014,0.968,1.031s1.014-0.416,1.031-0.968c0.001-0.021,0.001-0.043,0-0.063
	c-0.017-0.552-0.479-0.985-1.03-0.968C49.441,53.049,49.018,53.473,49,54.001L49,54.001z M8,54c0,4.42,3.578,8,7.998,8
	c4.417,0.002,8-3.576,8.002-7.994c0-0.002,0-0.004,0-0.006c0-4.422-3.58-8-8.002-8C11.582,45.998,8.002,49.576,8,53.992
	C8,53.994,8,53.997,8,54z"/>
<path fill="#FAFAFA" d="M10.999,54c0.001,2.761,2.238,4.998,4.999,4.999c2.76,0.002,4.998-2.233,5.001-4.993
	c0-0.002,0-0.004,0-0.006c0-2.762-2.239-5-5-5S10.999,51.238,10.999,54z"/>
<path fill="#AFBBC1" d="M12,54.001C12.001,56.21,13.793,58,16.002,58c2.209-0.002,3.999-1.793,3.998-4.002s-1.793-4-4.002-3.998
	C13.789,50,11.999,51.792,12,54.001z"/>
<path fill="#71858C" d="M14,54.001c0,1.104,0.896,2,2,1.999c1.105,0,2-0.896,2-2s-0.896-2-2-2S14,52.896,14,54.001L14,54.001z"/>
<path fill="#282433" d="M15,54.001c-0.018,0.552,0.416,1.014,0.968,1.031s1.014-0.416,1.031-0.968c0.001-0.021,0.001-0.043,0-0.063
	c-0.017-0.552-0.479-0.985-1.03-0.968C15.441,53.049,15.018,53.473,15,54.001L15,54.001z"/>
<path fill="#71858C" d="M5.5,46H2v4h3.5C5.775,50,6,49.775,6,49.5v-3C6,46.225,5.775,46,5.5,46z"/>
<path fill="#0FB4D4" d="M12,26h8v8h-8V26z M22,26h8v8h-8V26z M32,26h8v8h-8V26z M42,26h8v8h-8V26z"/>
<path fill="#D47706" d="M10,38h52v2H10V38z"/>
<path fill="#0FB4D4" d="M52,26h8v8h-8V26z"/>
<path fill="#FFFFFF" d="M3,46v4c1.104,0,2-0.896,2-2S4.104,46,3,46z"/>
<path fill="#E03636" d="M60.5,44c-0.275,0-0.5,0.225-0.5,0.5v5c0,0.275,0.225,0.5,0.5,0.5H62v-6H60.5z"/>
<path fill="#006DAE" d="M20,31h-1.5c-0.287,0.01-0.531,0.211-0.598,0.49L17,34h3V31z M30,31h-1.5
	c-0.287,0.01-0.531,0.211-0.598,0.49L27,34h3V31z M40,31h-1.5c-0.287,0.01-0.531,0.211-0.598,0.49L37,34h3V31z M50,31h-1.5
	c-0.287,0.01-0.531,0.211-0.598,0.49L47,34h3V31z M60,31h-1.5c-0.287,0.01-0.531,0.211-0.598,0.49L57,34h3V31z M7.902,35.49L7,40H5
	l-2-2H2v6h7c0.553,0,1-0.447,1-1v-8H8.5C8.213,35.01,7.969,35.211,7.902,35.49z"/>
<polygon opacity="0.5" fill="#FFFFFF" points="2,38 10,31.999 10,26 2,32 "/>
<polygon opacity="0.5" fill="#FFFFFF" points="22,29 22,34 30,28 30,26 26,26 "/>
<polygon opacity="0.5" fill="#FFFFFF" points="52,29 52,34 60,28 60,26 56,26 "/>
<polygon opacity="0.5" fill="#FFFFFF" points="12,34 20,28 20,26 12,32 "/>
<polygon opacity="0.5" fill="#FFFFFF" points="32,34 34,34 40,30 40,26 32,32 "/>
<polygon opacity="0.5" fill="#FFFFFF" points="42,34 50,28 50,26 42,32 "/>
<path fill="#282433" d="M5.5,27H4v-2.5C4,24.225,3.775,24,3.5,24S3,24.225,3,24.5v10.25C3,35.025,3.225,35,3.5,35h2
	C5.775,35,6,34.775,6,34.5v-7C6,27.225,5.775,27,5.5,27z"/>
</svg>
