<?xml version="1.0" encoding="utf-8"?>
<!-- Generator: Adobe Illustrator 16.2.0, SVG Export Plug-In . SVG Version: 6.00 Build 0)  -->
<!DOCTYPE svg PUBLIC "-//W3C//DTD SVG 1.1//EN" "http://www.w3.org/Graphics/SVG/1.1/DTD/svg11.dtd">
<svg version="1.1" id="Layer_1" xmlns="http://www.w3.org/2000/svg" xmlns:xlink="http://www.w3.org/1999/xlink" x="0px" y="0px"
	 width="64px" height="64px" viewBox="0 0 64 64" enable-background="new 0 0 64 64" xml:space="preserve">
<path fill="#4E5E67" d="M50,50c0,3.313,2.687,6,6,6s6-2.687,6-6H50z"/>
<path fill="#99A8AE" d="M60,50c0,2.209-1.791,4-4,4s-4-1.791-4-4H60z"/>
<path fill="#CFD8DD" d="M62,50V12c0,0-24,0-28,0c-5.103,0-7.399,6.867-10,9c-5.495,4.507-20,7.838-20,19c0,7,7.5,10,14,10
	C29.75,50,62,50,62,50z"/>
<path fill="#99A8AE" d="M13.512,44c-0.552,3.286-1.376,5.138-1.385,5.157C14.022,49.726,16.054,50,18,50c11.75,0,44,0,44,0v-6
	H13.512z"/>
<rect x="2" y="56" fill="#99A8AE" width="60" height="6"/>
<path fill="#E6EBEF" d="M24,21c-2.769,2.271-7.823,4.244-12.159,7.07L14,38c0,0,2.667-7,12-10c8.036-2.583,16-5.833,16-13L24,21z"/>
<path fill="#4E5E67" d="M54,50c0,1.104,0.896,2,2,2s2-0.896,2-2H54z"/>
<path fill="#4E5E67" d="M36,50c0,3.313,2.687,6,6,6s6-2.687,6-6H36z"/>
<path fill="#99A8AE" d="M46,50c0,2.209-1.791,4-4,4s-4-1.791-4-4H46z"/>
<path fill="#4E5E67" d="M40,50c0,1.104,0.896,2,2,2s2-0.896,2-2H40z"/>
<path fill="#006DAE" d="M34,50H18l-3,6c0,0,5,0,12,0C32,56,34,50,34,50z"/>
<path fill="#006DAE" d="M34,50h28v-6c0,0-14,0-21,0C36,44,34,50,34,50z"/>
<path fill="#018BC9" d="M4,40c0,4.905,3.686,7.84,8.126,9.16C12.126,49.16,14,45,14,38c0-8-2.027-10.017-2.027-10.017
	C7.645,30.777,4,34.404,4,40z"/>
<rect x="20" y="44" fill="#FDCA47" width="4" height="2"/>
<path fill="#006DAE" d="M12.126,49.16c0,0,0.833-1.861,1.388-5.175C5.339,43.834,4,40,4,40C4,44.905,7.686,47.84,12.126,49.16z"/>
<path fill="#0FB4D4" d="M42,15H28.63c-1.812,2.126-3.174,4.805-4.63,6c0,0,7,0,13,0C42,21,42,15,42,15z"/>
<path fill="#018BC9" d="M51,27c-9,0-9,10-9,10h20V27C62,27,60,27,51,27z"/>
<path fill="#006DAE" d="M37,21c0,0,0-0.563,0-1c0-1-0.484-1-1-1c-1,0-1,2-1,2H37z"/>
<path opacity="0.5" fill="#FFFFFF" d="M28.192,15.544C26.596,17.565,25.336,19.904,24,21c0,0,7,0,13,0
	c0.914,0,1.657-0.204,2.268-0.531C36.817,18.16,32.894,16.386,28.192,15.544z"/>
</svg>
