<?xml version="1.0" encoding="utf-8"?>
<!-- Generator: Adobe Illustrator 16.2.0, SVG Export Plug-In . SVG Version: 6.00 Build 0)  -->
<!DOCTYPE svg PUBLIC "-//W3C//DTD SVG 1.1//EN" "http://www.w3.org/Graphics/SVG/1.1/DTD/svg11.dtd">
<svg version="1.1" id="Layer_1" xmlns="http://www.w3.org/2000/svg" xmlns:xlink="http://www.w3.org/1999/xlink" x="0px" y="0px"
	 width="64px" height="64px" viewBox="0 0 64 64" enable-background="new 0 0 64 64" xml:space="preserve">
<rect x="2" y="58" fill="#99A8AE" width="60" height="2"/>
<rect x="2" y="60" fill="#4E5E67" width="60" height="2"/>
<rect x="32" y="54" fill="#302C3B" width="30" height="4"/>
<path fill="#4E5E67" d="M48,54c0,2.209,1.791,4,4,4s4-1.791,4-4H48z"/>
<path fill="#4E5E67" d="M38,54c0,2.209,1.791,4,4,4s4-1.791,4-4H38z"/>
<path fill="#006DAE" d="M17,52c-1.677,0-5,6-5,6c4.417,0,16.666,0,22,0c1.25,0,2.587-4,4-4c6,0,24,0,24,0v-2C62,52,27,52,17,52z"/>
<path fill="#4E5E67" d="M62,54h-4c0,2.209,1.791,4,4,4V54z"/>
<path fill="#E6EBEF" d="M62,2C51.375,2,27.618,13.866,12,26C6.234,30.479,2,37,2,41c0,11,15,11,15,11h45V2z"/>
<path fill="#0FB4D4" d="M42,8c-0.004,10.967-25.3,18-30,18C12,26,22,13.877,42,8z"/>
<path fill="#BEC3CF" d="M62,19c0,0-36,7-36,17c0,4.625,6.419,7,16,7c9.58,0,20,0,20,0V19z"/>
<path fill="#006DAE" d="M62,17c0,0-36,9-36,19c0,4.625,6.419,5,16,5c9.58,0,20,0,20,0V17z"/>
<path fill="#BEC3CF" d="M2,41c0,11,15,11,15,11h45v-4c0,0-28.834,0-40,0C2,48,2,41,2,41z"/>
<path opacity="0.5" fill="#FFFFFF" enable-background="new    " d="M26.752,14.455c0.009,0.018,0.022,0.034,0.03,0.052
	c1.206,2.585-0.636,6.147-4.295,9.057C31.269,20.614,41.997,15.143,42,8C36.021,9.757,30.943,12.072,26.752,14.455z"/>
<path fill="#99A8AE" d="M14.468,32.564c-1.143-1.125-3.612-0.518-5.515,1.357c-1.904,1.875-2.521,4.307-1.379,5.432
	c1.143,1.127,3.667,0.846,5.516-1.356C14.805,35.954,15.61,33.691,14.468,32.564z"/>
<path fill="#FFE12C" d="M13.571,34.434c-0.852-0.863-2.694-0.397-4.114,1.045c-1.42,1.44-1.883,3.313-1.029,4.176
	c0.734,0.742,2.844,0.24,4.114-1.043C13.966,37.174,14.423,35.299,13.571,34.434z"/>
</svg>
