<?xml version="1.0" encoding="utf-8"?>
<!-- Generator: Adobe Illustrator 15.0.0, SVG Export Plug-In . SVG Version: 6.00 Build 0)  -->
<!DOCTYPE svg PUBLIC "-//W3C//DTD SVG 1.1//EN" "http://www.w3.org/Graphics/SVG/1.1/DTD/svg11.dtd">
<svg version="1.1" id="Layer_1" xmlns="http://www.w3.org/2000/svg" xmlns:xlink="http://www.w3.org/1999/xlink" x="0px" y="0px"
	 width="64px" height="64px" viewBox="0 0 64 64" enable-background="new 0 0 64 64" xml:space="preserve">
<path fill="#297124" d="M18,22L6,25.999C4.658,26.445,2,27,2,30v20h16V22z"/>
<path fill="#D47706" d="M20,18h42v32H20V18z"/>
<path fill="#F59E01" d="M20,18h42v2H20V18z"/>
<path fill="#AB5C10" d="M20,48h42v2H20V48z"/>
<path fill="#BEC3CF" d="M2,50h60v6H2V50z"/>
<path fill="#FFE12C" d="M2,44h2v4H2V44z"/>
<path fill="#BEC3CF" d="M20,56H4c0-4.422,3.581-8,8-8C16.422,48,20,51.578,20,56z M60,56H44c0-4.422,3.582-8,8-8
	C56.422,48,60,51.578,60,56z"/>
<path fill="#71858C" d="M12,49c-3.866,0-7,3.134-7,7l0,0h14C19,52.134,15.866,49,12,49L12,49z"/>
<path fill="#AB5C10" d="M54,20h2v28h-2V20z M60,20h2v28h-2V20z M48,20h2v28h-2V20z M42,20h2v28h-2V20z M36,20h2v28h-2V20z M30,20h2
	v28h-2V20z M24,20h2v28h-2V20z"/>
<path fill="#0FB4D4" d="M5,30c-0.55,0-1,0.45-1,1v6c0,0.55,0.45,1,1,1h8c0.55,0,1-0.45,1-1v-6c0-0.55-0.45-1-1-1H5z"/>
<path opacity="0.5" fill="#FFFFFF" d="M5,30c-0.55,0-1,0.45-1,1v2l5-3H5z"/>
<path fill="#BEC3CF" d="M46,56H30c0-4.422,3.582-8,8-8C42.422,48,46,51.578,46,56z"/>
<path fill="#014F27" d="M10,40h4v2h-4V40z"/>
<path fill="#E81C27" d="M60,52h2v2h-2V52z"/>
<path fill="#006DAE" d="M12.379,34.646L12,38h1c0.55,0,1-0.45,1-1v-3h-1C12.725,34,12.445,34.292,12.379,34.646z"/>
<path fill="#71858C" d="M59,56c-0.004-3.866-3.142-6.996-7.008-6.992c-3.09,0.003-5.813,2.031-6.698,4.992h-0.588
	c-1.101-3.705-4.997-5.815-8.702-4.715C33.033,50.168,30.997,52.9,31,56H59z"/>
<path fill="#AFBBC1" d="M19,18v-2c-1.656,0-3,1.344-3,3v3.139c-0.596,0.174-1,0.492-1,0.862v14C15,37.552,15.896,38,17,38
	s2-0.448,2-0.999V23c0-0.37-0.404-0.688-1-0.861V19C18,18.447,18.447,18,19,18z"/>
<path fill="#282433" d="M6,56c0,3.314,2.684,6,5.999,6c3.313,0.001,6-2.684,6.001-5.997c0-0.001,0-0.002,0-0.003
	c0-3.316-2.684-6-6.001-6C8.688,49.999,6.001,52.684,6,55.995C6,55.996,6,55.998,6,56z"/>
<path fill="#FAFAFA" d="M8.25,56c0,2.071,1.68,3.75,3.75,3.75c2.072-0.001,3.75-1.68,3.75-3.751s-1.68-3.75-3.75-3.749
	C9.928,52.25,8.25,53.929,8.25,56z"/>
<path fill="#AFBBC1" d="M9,56.001c0,1.657,1.344,3,3,2.999c1.657,0,3-1.344,3-3s-1.344-3-3-3S9,54.344,9,56.001L9,56.001z"/>
<path fill="#71858C" d="M10.5,56.001c0,0.829,0.672,1.5,1.5,1.499c0.829,0,1.5-0.672,1.5-1.5s-0.672-1.5-1.5-1.5
	C11.171,54.501,10.5,55.172,10.5,56.001L10.5,56.001z"/>
<path fill="#282433" d="M11.25,56.001c0.001,0.415,0.338,0.75,0.752,0.749s0.75-0.338,0.749-0.752s-0.337-0.75-0.752-0.749
	S11.249,55.586,11.25,56.001L11.25,56.001z M32,56c0,3.314,2.684,6,5.998,6c3.313,0.002,6-2.683,6.002-5.996
	c0-0.001,0-0.002,0-0.004c0-3.316-2.684-6-6.002-6C34.686,50,32,52.684,32,55.996C32,55.997,32,55.998,32,56z"/>
<path fill="#FAFAFA" d="M34.25,56c-0.033,2.07,1.617,3.777,3.688,3.811c2.071,0.034,3.776-1.617,3.811-3.688
	c0.001-0.041,0.001-0.082,0-0.123c-0.034-2.07-1.739-3.723-3.811-3.688C35.915,52.345,34.283,53.977,34.25,56z"/>
<path fill="#AFBBC1" d="M35,56.001c0,1.657,1.344,3,3,2.999c1.657,0,3-1.344,3-3s-1.344-3-3-3S35,54.344,35,56.001L35,56.001z"/>
<path fill="#71858C" d="M36.5,56.001c0,0.829,0.672,1.5,1.5,1.499c0.829,0,1.5-0.672,1.5-1.5s-0.672-1.5-1.5-1.5
	C37.171,54.501,36.5,55.172,36.5,56.001L36.5,56.001z"/>
<path fill="#282433" d="M37.25,56.001c0.001,0.415,0.338,0.75,0.752,0.749s0.75-0.338,0.749-0.752s-0.337-0.75-0.752-0.749
	S37.249,55.586,37.25,56.001z M46,56c0,3.314,2.684,6,5.998,6c3.313,0.002,6-2.683,6.002-5.996c0-0.001,0-0.002,0-0.004
	c0-3.316-2.684-6-6.002-6C48.686,50,46,52.684,46,55.996C46,55.997,46,55.998,46,56z"/>
<path fill="#FAFAFA" d="M48.25,56.001c-0.033,2.071,1.617,3.776,3.688,3.811s3.776-1.617,3.811-3.688
	c0.001-0.041,0.001-0.081,0-0.122c-0.034-2.071-1.739-3.722-3.811-3.688C49.915,52.346,48.283,53.979,48.25,56.001z"/>
<path fill="#AFBBC1" d="M49,56.001c0,1.657,1.344,3,3,2.999c1.657,0,3-1.344,3-3s-1.344-3-3-3S49,54.344,49,56.001L49,56.001z"/>
<path fill="#71858C" d="M50.5,56.001c0,0.829,0.672,1.5,1.5,1.499c0.829,0,1.5-0.672,1.5-1.5s-0.672-1.5-1.5-1.5
	C51.171,54.501,50.5,55.172,50.5,56.001L50.5,56.001z"/>
<path fill="#282433" d="M51.25,56.001c0.001,0.415,0.338,0.75,0.752,0.749s0.75-0.338,0.749-0.752s-0.337-0.75-0.752-0.749
	S51.249,55.586,51.25,56.001z"/>
<path opacity="0.5" fill="#FFFFFF" d="M4,37c0,0.55,0.45,1,1,1h2l7-4v-3L4,37z"/>
</svg>
