<?xml version="1.0" encoding="utf-8"?>
<!-- Generator: Adobe Illustrator 15.0.0, SVG Export Plug-In . SVG Version: 6.00 Build 0)  -->
<!DOCTYPE svg PUBLIC "-//W3C//DTD SVG 1.1//EN" "http://www.w3.org/Graphics/SVG/1.1/DTD/svg11.dtd">
<svg version="1.1" id="Layer_1" xmlns="http://www.w3.org/2000/svg" xmlns:xlink="http://www.w3.org/1999/xlink" x="0px" y="0px"
	 width="64px" height="64px" viewBox="0 0 64 64" enable-background="new 0 0 64 64" xml:space="preserve">
<rect x="4" y="45" fill="#F9C802" width="56" height="3"/>
<path fill="#282433" d="M5.967,28H3.984C3,28,2,28,2,30.5C2,31.881,3,33,3.984,33h5.453C9.438,33,7.414,28,5.967,28"/>
<path fill="#282433" d="M58.033,28h1.984C61.008,28,62,28,62,30.5c0,1.381,0,2.5-1.982,2.5h-5.457C54.563,33,56.588,28,58.033,28"/>
<path fill="#282433" d="M49,54v6c0,1.1,0.9,2,2.002,2H57c1.1,0,2-0.9,2-2v-6H49z"/>
<path fill="#282433" d="M5,54v6c0,1.1,0.898,2,2,2h6c1.1,0,2-0.9,2-2v-6H5z"/>
<path fill="#F59E01" d="M59,56c1,0,2-1.455,2-4.729C61,47.999,60,48,60,48H4c0,0-1,0-1,3.271C3,54.544,4,56,5,56H59z"/>
<path fill="#F9C802" d="M60,48H4c0,0-0.271,0.004-0.529,0.465C3.854,49.499,4.424,50,5,50h54c0.576,0,1.146-0.501,1.529-1.535
	C60.271,48.004,60,48,60,48"/>
<path fill="#F9C802" d="M56,33c0-2-5.059-14-8-14H15c-2.939,0-6.063,10.499-7,14c0,0-4,5-4,8h56C60,38,56,33,56,33z"/>
<path fill="#F59E01" d="M6.5,41c0-2.375,1.5-8,1.5-8s-4,5-4,8H6.5z"/>
<path fill="#F59E01" d="M57.502,41c0-2.375-1.502-8-1.502-8s4,5,4,8H57.502z"/>
<path fill="#F9C802" d="M41.121,10.484C41.055,10.219,40.775,10,40.5,10H23.743c-0.276,0-0.556,0.219-0.621,0.484L22.243,16H42
	L41.121,10.484z"/>
<polygon fill="#282433" points="40,16 40,10 24,10 24,16 21,16 21,19 43,19 43,16 "/>
<path fill="#006DAE" d="M54,33c-1.293-4.83-5-12-6.5-12h-32c-1.5,0-4.206,7.17-5.5,12H54z"/>
<polygon fill="#FFE463" points="17.5,41 15,33 20.33,41 "/>
<polygon fill="#F59E01" points="52,41 46.5,41 49,33 43.672,41 12,41 4,45 4,48 60,48 60,45 "/>
<path fill="#0FB4D4" d="M24.127,27c0.541,0,1.123,0.427,1.295,0.949l1,3.051h11.156l1-3.051C38.75,27.427,39.334,27,39.875,27H47
	c0,0-1.252-4-2.402-4H19.402c-1.148,0-2.401,4-2.401,4H24.127z"/>
<rect x="24" y="52" fill="#282433" width="4" height="2"/>
<rect x="30" y="52" fill="#282433" width="4" height="2"/>
<rect x="36" y="52" fill="#282433" width="4" height="2"/>
<path fill="#282433" d="M45,52h-3v2h3C46.551,54,46.551,52,45,52"/>
<path fill="#282433" d="M19,52h3v2h-3C17.45,54,17.451,52,19,52"/>
<polygon fill="#FFFFFF" points="25,11 25,12 26,12 26,15 27,15 27,12 28,12 28,11 "/>
<path fill="#FFFFFF" d="M29,11v4h1v-1h1v1h1v-4H29z M31,13h-1v-1h1V13z"/>
<rect x="38" y="11" fill="#FFFFFF" width="1" height="4"/>
<rect x="33" y="11" fill="#FFFFFF" width="1" height="1"/>
<rect x="34" y="12" fill="#FFFFFF" width="2" height="2"/>
<rect x="36" y="14" fill="#FFFFFF" width="1" height="1"/>
<rect x="36" y="11" fill="#FFFFFF" width="1" height="1"/>
<rect x="33" y="14" fill="#FFFFFF" width="1" height="1"/>
<path fill="#282433" d="M43.672,41H20.33l1.298,5.551c0.125,0.246,0.455,0.447,0.733,0.447h19.277c0.279,0,0.609-0.201,0.734-0.447
	L43.672,41z"/>
<polygon fill="#CFD8DD" points="17.5,41 4,41 4,45 19,45 "/>
<polygon fill="#CFD8DD" points="60,41 46.5,41 45,45 60,45 "/>
<path fill="#FFFFFF" d="M17.001,44c0,0.55-0.451,1-1.001,1H6c-0.55,0-1-0.45-1-1v-2c0-0.55,0.451-1,1-1h10
	c0.55,0,1.001,0.45,1.001,1V44z"/>
<path fill="#FFFFFF" d="M59,44c0,0.55-0.449,1-1,1H48c-0.549,0-1-0.45-1-1v-2c0-0.55,0.451-1,1-1h10c0.551,0,1,0.45,1,1V44z"/>
<polygon opacity="0.5" fill="#FFFFFF" points="38.561,22 35.439,22 25.438,32 28.561,32 "/>
<polygon opacity="0.5" fill="#FFFFFF" points="12.95,32 22.316,32 32.316,22 22.95,22 "/>
<path opacity="0.5" fill="#FFFFFF" d="M49.014,24.036c-0.668-1.088-1.251-1.845-1.605-2.036h-2.603l-10,10h6.244L49.014,24.036z"/>
</svg>
