<?xml version="1.0" encoding="utf-8"?>
<!-- Generator: Adobe Illustrator 15.0.0, SVG Export Plug-In . SVG Version: 6.00 Build 0)  -->
<!DOCTYPE svg PUBLIC "-//W3C//DTD SVG 1.1//EN" "http://www.w3.org/Graphics/SVG/1.1/DTD/svg11.dtd">
<svg version="1.1" id="Layer_1" xmlns="http://www.w3.org/2000/svg" xmlns:xlink="http://www.w3.org/1999/xlink" x="0px" y="0px"
	 width="64px" height="64px" viewBox="0 0 64 64" enable-background="new 0 0 64 64" xml:space="preserve">
<path fill="#0FB4D4" d="M52,17H30l-3,24h27L52,17z"/>
<path fill="#006DAE" d="M43,32c-3,3-7-1-7,5h12V25C42,25,45.284,29.716,43,32z"/>
<path opacity="0.5" fill="#FFFFFF" d="M49.213,15L28.504,27.044L26.792,36.5l25.765-15.819L49.213,15z"/>
<path opacity="0.5" fill="#FFFFFF" d="M53.375,25L30.087,38.544L29.375,43L53.14,29.181L53.375,25z"/>
<path opacity="0.5" fill="#FFFFFF" enable-background="new    " d="M27.005,40.956L27,41h0.057
	C27.04,40.984,27.021,40.971,27.005,40.956z"/>
<path fill="#C21413" d="M6,38v8l8.188,7H48V38H6z"/>
<path fill="#302C3B" d="M52.625,17.001L29,17l-2.5,20H6v3h20l4,7h11l14.438-8.438L52.625,17.001z M29,37l2.063-18H50.75l1.875,18H29
	z"/>
<path fill="#E81C27" d="M7.5,33H28v5H5L7.5,33z"/>
<path fill="#F89987" d="M7.5,33H28v-3L7.5,33z"/>
<path fill="#F9B700" d="M5,38h23v-2H6L5,38z"/>
<path fill="#E81C27" d="M48,34.25c-6.109,0-11.395,3.298-14,8.473L48,50l14-7.277C59.395,37.548,54.111,34.25,48,34.25z"/>
<path fill="#F89987" d="M48,34c-6.109,0-11.395,3.548-14,8.723l0.053,0.027C36.904,38.107,42.077,35,48,35
	c5.924,0,11.098,3.107,13.947,7.75L62,42.723C59.395,37.548,54.111,34,48,34z"/>
<circle fill="#302C3B" cx="48" cy="50" r="12"/>
<path fill="#F9B700" d="M55,50.002c-0.004,3.864-3.136,6.996-7,6.998c-3.867,0-7-3.134-7-6.998c0-3.866,3.134-7,7-7
	S55,46.136,55,50.002z"/>
<circle fill="#302C3B" cx="48" cy="50" r="3"/>
<path fill="#E81C27" d="M10,44c-2.619-0.002-5.133,1.027-7,2.864L16,54h4C20,48.479,15.523,44,10,44z"/>
<path fill="#E81C27" d="M2,46h11v2H2V46z"/>
<circle fill="#302C3B" cx="10" cy="54" r="8"/>
<path fill="#F9B700" d="M15,54c0,2.762-2.238,5.002-5,5.002s-5.002-2.238-5.002-5S7.236,49,9.998,49H10C12.757,49,15,51.236,15,54z"
	/>
<circle fill="#302C3B" cx="10" cy="54" r="2"/>
<path fill="#E81C27" d="M4,40V30H2v14h2v-2c1.654,0,3,1.343,3,3h2C9,42.236,6.757,40,4,40z"/>
<path fill="#302C3B" d="M30,49h4v2h-4V49z M35,21h-1v-3h-1v3c-0.55,0-1,0.45-1,1v6c0,0.55,0.45,1,1,1h2c0.55,0,1-0.45,1-1v-6
	C36,21.45,35.55,21,35,21z"/>
<path fill="#E81C27" d="M54,16v1c0,0.73-0.24,1-0.896,1H28.896C28.24,18,28,17.73,28,17v-1H54z"/>
<path fill="#F89987" d="M54,16v-1c0-0.73-0.24-1-0.896-1H28.896C28.24,14,28,14.27,28,15v1H54z"/>
</svg>
