<?xml version="1.0" encoding="utf-8"?>
<!-- Generator: Adobe Illustrator 15.0.0, SVG Export Plug-In . SVG Version: 6.00 Build 0)  -->
<!DOCTYPE svg PUBLIC "-//W3C//DTD SVG 1.1//EN" "http://www.w3.org/Graphics/SVG/1.1/DTD/svg11.dtd">
<svg version="1.1" id="Layer_1" xmlns="http://www.w3.org/2000/svg" xmlns:xlink="http://www.w3.org/1999/xlink" x="0px" y="0px"
	 width="64px" height="64px" viewBox="0 0 64 64" enable-background="new 0 0 64 64" xml:space="preserve">
<path fill="#E6EBEF" d="M62,7c0-0.55-0.45-1-1-1H29c-0.55,0-1,0.45-1,1v49h34V7z M9,16L6,33c0,0-4,2-4,3v17h26V16H9z"/>
<path fill="#71858C" d="M2,50v5c0,0.55,0.45,1,1,1h59v-6H2z"/>
<path fill="#4E5E67" d="M25.77,56c0.146-0.645,0.23-1.313,0.23-2c0-4.975-4.027-9-9.002-9C12.031,44.998,8.002,49.023,8,53.99
	c0,0.003,0,0.006,0,0.01c0,0.688,0.084,1.355,0.23,2H25.77z M59.77,56c0.146-0.645,0.23-1.313,0.23-2c0-4.975-4.027-9-9.002-9
	c-4.967-0.002-8.996,4.023-8.998,8.99c0,0.003,0,0.006,0,0.01c0,0.688,0.084,1.355,0.23,2H59.77z"/>
<path fill="#282433" d="M43,54c0,4.42,3.578,8,7.998,8c4.417,0.002,8-3.576,8.002-7.994c0-0.002,0-0.004,0-0.006
	c0-4.422-3.58-8-8.002-8c-4.416-0.002-7.996,3.576-7.998,7.992C43,53.994,43,53.997,43,54z"/>
<path fill="#FAFAFA" d="M45.999,54c0.001,2.761,2.238,4.998,4.999,4.999c2.76,0.002,4.998-2.233,5.001-4.993
	c0-0.002,0-0.004,0-0.006c0-2.762-2.239-5-5-5S45.999,51.238,45.999,54z"/>
<path fill="#AFBBC1" d="M47,54.001C47.001,56.21,48.793,58,51.002,58c2.209-0.002,3.999-1.793,3.998-4.002s-1.793-4-4.002-3.998
	C48.789,50,46.999,51.792,47,54.001z"/>
<path fill="#71858C" d="M49,54.001c0,1.104,0.896,2,2,1.999c1.105,0,2-0.896,2-2s-0.896-2-2-2S49,52.896,49,54.001L49,54.001z"/>
<path fill="#282433" d="M50,54.001c-0.018,0.552,0.416,1.014,0.968,1.031s1.014-0.416,1.031-0.968c0.001-0.021,0.001-0.043,0-0.063
	c-0.017-0.552-0.479-0.985-1.03-0.968C50.441,53.049,50.018,53.473,50,54.001L50,54.001z M9,54c0,4.42,3.578,8,7.998,8
	c4.417,0.002,8-3.576,8.002-7.994c0-0.002,0-0.004,0-0.006c0-4.422-3.58-8-8.002-8C12.582,45.998,9.002,49.576,9,53.992
	C9,53.994,9,53.997,9,54z"/>
<path fill="#FAFAFA" d="M11.999,54c0.001,2.761,2.238,4.998,4.999,4.999c2.76,0.002,4.998-2.233,5.001-4.993
	c0-0.002,0-0.004,0-0.006c0-2.762-2.239-5-5-5S11.999,51.238,11.999,54z"/>
<path fill="#AFBBC1" d="M13,54.001C13.001,56.21,14.793,58,17.002,58c2.209-0.002,3.999-1.793,3.998-4.002s-1.793-4-4.002-3.998
	C14.789,50,12.999,51.792,13,54.001z"/>
<path fill="#71858C" d="M15,54.001c0,1.104,0.896,2,2,1.999c1.105,0,2-0.896,2-2s-0.896-2-2-2S15,52.896,15,54.001L15,54.001z"/>
<path fill="#282433" d="M16,54.001c-0.018,0.552,0.416,1.014,0.968,1.031s1.014-0.416,1.031-0.968c0.001-0.021,0.001-0.043,0-0.063
	c-0.017-0.552-0.479-0.985-1.03-0.968C16.441,53.049,16.018,53.473,16,54.001L16,54.001z"/>
<path fill="#0FB4D4" d="M6,33h18V20H8.294L6,33z"/>
<path fill="#006DAE" d="M24,27h-2c-0.55,0-1.109,0.438-1.242,0.973L20,33h4V27z"/>
<path fill="#99A8AE" d="M13,14h8v2h-8V14z"/>
<path fill="#E03636" d="M19,12h-4c-1.104,0-2,0.896-2,2h8C21,12.896,20.104,12,19,12z"/>
<circle fill="#F89987" cx="15" cy="13" r="1"/>
<circle fill="#F89987" cx="19" cy="13" r="1"/>
<path fill="#E03636" d="M61,42c-0.55,0-1,0.45-1,1v4c0,0.55,0.45,1,1,1h1v-6H61z"/>
<path fill="#99A8AE" d="M2,42h4v6H2V42z"/>
<path fill="#E03636" d="M2,36h60v4H2V36z"/>
<path fill="#F59E01" d="M6,42c0.55,0,1,0.45,1,1v4c0,0.55-0.45,1-1,1H5v-6H6z"/>
<path fill="#FFFFFF" d="M4,42c-0.55,0-1,0.45-1,1v4c0,0.55,0.45,1,1,1h1v-6H4z"/>
<path fill="#E03636" d="M23.434,9.497c-0.127-0.075,0.541-4.834,2.154-3.869C27.203,6.595,23.563,9.575,23.434,9.497z M18.975,8.999
	c-0.154-0.045-0.74-5.531,1.205-4.957C22.128,4.616,19.128,9.044,18.975,8.999z M8.335,6.105c1.353-0.866,2.291,3.813,2.163,3.893
	C10.372,10.075,6.934,7.006,8.335,6.105z M14.275,4.042c1.885-0.574,1.316,4.912,1.166,4.957
	C15.294,9.044,12.387,4.616,14.275,4.042z"/>
<path fill="#BEC3CF" d="M26,16h2v34h-2V16z"/>
<path fill="#006DAE" d="M42.75,13h4.5v16h-4.5V13z"/>
<path fill="#006DAE" d="M50.26,14.566l2.581,3.686L39.736,27.43l-2.58-3.685L50.26,14.566z"/>
<path fill="#006DAE" d="M37.154,18.253l2.58-3.687l13.107,9.176l-2.58,3.688L37.154,18.253z"/>
<path opacity="0.5" fill="#FFFFFF" d="M6,33l18-9v-4L6.706,29L6,33z"/>
<path opacity="0.5" fill="#FFFFFF" d="M24,33v-4.422L15.502,33H24z"/>
<path fill="#E6EBEF" d="M11.119,19L8.8,34h2l2.33-15H11.119z"/>
</svg>
