<?xml version="1.0" encoding="utf-8"?>
<!-- Generator: Adobe Illustrator 15.0.0, SVG Export Plug-In . SVG Version: 6.00 Build 0)  -->
<!DOCTYPE svg PUBLIC "-//W3C//DTD SVG 1.1//EN" "http://www.w3.org/Graphics/SVG/1.1/DTD/svg11.dtd">
<svg version="1.1" id="Layer_1" xmlns="http://www.w3.org/2000/svg" xmlns:xlink="http://www.w3.org/1999/xlink" x="0px" y="0px"
	 width="64px" height="64px" viewBox="0 0 64 64" enable-background="new 0 0 64 64" xml:space="preserve">
<path fill="#E03636" d="M29,20c-0.55,0-1,0.45-1,1v1h4v-2H29z"/>
<path fill="#282433" d="M3,42h58v13H3V42z"/>
<path fill="#71858C" d="M52,55c0,0.55,0.45,1,1,1h8c0.55,0,1-0.45,1-1v-4c0-0.55-0.45-1-1-1h-8c-0.55,0-1,0.45-1,1V55z M2,55
	c0,0.55,0.45,1,1,1h8c0.55,0,1-0.45,1-1v-4c0-0.55-0.45-1-1-1H3c-0.55,0-1,0.45-1,1V55z"/>
<path fill="#71858C" d="M12.001,54h40.001v2H12.001V54z"/>
<path fill="#4E5E67" d="M24.77,56c0.146-0.645,0.23-1.313,0.23-2c0-4.975-4.025-9-9.002-9C11.031,44.998,7.002,49.023,7,53.99
	c0,0.003,0,0.006,0,0.01c0,0.688,0.084,1.355,0.23,2H24.77z"/>
<path fill="#282433" d="M8.001,54c0,4.42,3.578,8,7.998,8c4.417,0.002,7.999-3.578,8.001-7.995c0-0.001,0-0.003,0-0.005
	c0-4.422-3.58-8-8.001-8c-4.415-0.002-7.997,3.576-7.998,7.992C8.001,53.994,8.001,53.997,8.001,54z"/>
<path fill="#FAFAFA" d="M11,54c0.039,2.762,2.309,4.968,5.07,4.929c2.706-0.038,4.891-2.223,4.929-4.929c0-2.762-2.238-5-4.999-5
	C13.238,49,11,51.238,11,54z"/>
<path fill="#AFBBC1" d="M12.001,54.001c0,2.209,1.791,4,4.001,4C18.211,58,20.001,56.209,20.001,54c0,0,0-0.001,0-0.002
	C20,51.789,18.209,49.998,16,50C13.791,50,12,51.792,12.001,54.001z"/>
<path fill="#71858C" d="M14.001,54.001C14,55.105,14.896,56.002,16,56.002c1.105,0,2-0.895,2.001-2c0,0,0-0.001,0-0.002
	c0-1.105-0.896-2-2.001-2C14.896,52,14,52.895,14.001,54.001L14.001,54.001z"/>
<path fill="#4E5E67" d="M58.77,56c0.146-0.645,0.23-1.313,0.23-2c0-4.975-4.025-9-9.002-9c-4.967-0.002-8.996,4.023-8.998,8.99
	c0,0.003,0,0.006,0,0.01c0,0.688,0.084,1.355,0.23,2H58.77z"/>
<path fill="#282433" d="M15.001,54.001c-0.018,0.552,0.416,1.014,0.968,1.031c0.553,0.018,1.014-0.416,1.031-0.968
	c0-0.021,0-0.043,0-0.063c0-0.552-0.447-1-1-1.001C15.448,53,15,53.447,15.001,54.001L15.001,54.001z M42,54c0,4.42,3.578,8,7.998,8
	c4.416,0.003,7.999-3.575,8.002-7.992c0-0.002,0-0.005,0-0.008c0-4.422-3.578-8-8.002-8c-4.416-0.002-7.996,3.576-7.998,7.992
	C42,53.994,42,53.997,42,54z"/>
<path fill="#FAFAFA" d="M45,54c0,2.761,2.237,4.998,4.998,4.999C52.76,59,54.999,56.763,55,54.001
	c0.001-2.761-2.236-5.001-4.998-5.002S45.001,51.235,45,53.997C45,53.998,45,53.999,45,54z"/>
<path fill="#AFBBC1" d="M46,54.001c0.049,2.209,1.881,3.96,4.09,3.911c2.139-0.049,3.862-1.771,3.91-3.911
	C54,51.791,52.209,50,50,50C47.793,50,46,51.794,46,54.001z"/>
<path fill="#71858C" d="M48,54.001C48,55.105,48.896,56,50.001,56S52,55.104,52,53.999l0,0C52,52.895,51.104,52,49.999,52
	S48,52.896,48,54.001z"/>
<path fill="#282433" d="M49,54.001C49,54.553,49.449,55,50.001,55S51,54.551,51,53.999l0,0c0-0.552-0.448-1-1-0.999
	C49.447,53,49,53.447,49,54.001L49,54.001z"/>
<path fill="#E6EBEF" d="M3,42c0-1,0.018-1.676,2-2c2-0.327,11-2,11-2c0.542-0.091,1.201-0.402,1.447-0.895l6.104-12.211
	C23.799,24.402,24.45,24,25,24h25c0.55,0,1.096,0.439,1.21,0.979L54,37c0.124,0.535,0.459,0.893,1,1l5,1c0.98,0.195,1,1,1,2v1H3"/>
<path fill="#0FB4D4" d="M36,38h13l-2.57-12H36V38z M34,26h-9l-6,12h15V26z"/>
<path fill="#006DAE" d="M47,34c-0.55,0-1.109,0.438-1.242,0.971L45,38h4l-0.857-4H47z M34,34h-2c-0.55,0-1.109,0.438-1.242,0.971
	L30,38h4V34z"/>
<path fill="#FFFFFF" d="M3,44h2v4H3V44z"/>
<path fill="#CFD8DD" d="M3,44h1v4H3V44z"/>
<path fill="#F9B700" d="M7,44.902V48H5v-4h1C6.939,44,6.997,44.396,7,44.902z"/>
<path fill="#E03636" d="M60,44c-0.55,0-1,0.45-1,1v2c0,0.55,0.45,1,1,1h1v-4H60z"/>
<path fill="#AFBBC1" d="M28,22h8v2h-8V22z"/>
<path fill="#018BC9" d="M32,22h4v-1c0-0.55-0.45-1-1-1h-3V22z"/>
<circle fill="#F89987" cx="30" cy="21" r="1"/>
<circle fill="#75D6FF" cx="34" cy="21" r="1"/>
<path fill="#71858C" d="M30,40h4v2h-4V40z"/>
<path fill="#E5BC5E" d="M33,48l1-2h-2l-1-2l-1,2h-2l1,2l-1,2h2l1,2l1-2h2L33,48z"/>
<path opacity="0.5" fill="#FFFFFF" d="M36,38h3.5l8.303-5.589l-0.989-4.618L36,35V38z M34,27l-13.721,8.441L19,38h4.232L34,31V27z"
	/>
<path fill="#302C3B" d="M20,35h-1c-0.55,0-1,0.45-1,1v2c0,0.55,0.45,1,1,1h1V35z"/>
</svg>
