<?xml version="1.0" encoding="utf-8"?>
<!-- Generator: Adobe Illustrator 15.0.0, SVG Export Plug-In . SVG Version: 6.00 Build 0)  -->
<!DOCTYPE svg PUBLIC "-//W3C//DTD SVG 1.1//EN" "http://www.w3.org/Graphics/SVG/1.1/DTD/svg11.dtd">
<svg version="1.1" id="Layer_1" xmlns="http://www.w3.org/2000/svg" xmlns:xlink="http://www.w3.org/1999/xlink" x="0px" y="0px"
	 width="64px" height="64px" viewBox="0 0 64 64" enable-background="new 0 0 64 64" xml:space="preserve">
<path fill="#302C3B" d="M60,44.105c0-1.162-10-1.162-10,0v15.787C50,61.057,50.996,62,52.223,62h5.555
	C59.004,62,60,61.057,60,59.895V44.105z"/>
<path fill="#302C3B" d="M13,44.105c0-1.162-9-1.162-9,0v15.789C4,61.057,4.896,62,6,62h5c1.104,0,2-0.943,2-2.105V44.105z"/>
<path fill="#E03636" d="M62,28.632c0-2.209-3.306-2.593-5.409-2.628c-1.695-4.381-2.093-9.144-4.622-11.798
	C49.193,11.296,42.62,10.021,32,10c-10.621,0.021-17.193,1.296-19.969,4.206C9.5,16.859,9.104,21.623,7.408,26.004
	C5.305,26.039,2,26.424,2,28.633c0,1.826,1.674,2.67,3.408,3.055c-0.59,5.273-0.367,15.781-0.367,19.609
	C5.041,54.823,8.214,56,32,56c23.79,0,26.958-1.177,26.958-4.705c0-3.827,0.224-14.334-0.366-19.607
	C60.326,31.302,62,30.458,62,28.632z"/>
<path fill="#B00505" d="M12,47C2,47,5.777,31.42,6,29c-1.332,2.354-2,9.125-2,14c0,9.051,1.27,11.205,2,12c0.941,1.027,2.176,3,26,3
	s25.059-1.973,26-3c0.73-0.795,2-2.949,2-12c0-4.875-0.667-11.646-2-14c0.223,2.42,4,18-6,18h-4c-4,0-5-3-10-3H26c-5,0-6,3-10,3H12z
	"/>
<path fill="#006DAE" d="M54,29c0,0-1.107-5.615-2-8c-1.785-4.773-2-8-20-8s-18.215,3.227-20,8c-0.893,2.384-2,8-2,8H54z"/>
<path fill="#FFFFFF" d="M17,43.715C17,44.857,15.109,46,12.277,46c-6.361,0-6.541-8-2.832-8C13.38,38,17,41.43,17,43.715"/>
<path fill="#FFFFFF" d="M47,43.717C47,44.857,48.889,46,51.723,46c6.362,0,6.539-8,2.832-8C50.619,38,47,41.43,47,43.717"/>
<path fill="#F9B700" d="M7,49c0,1.333,2,1.333,2,0S7,47.667,7,49z"/>
<path fill="#0FB4D4" d="M36.33,21.979C36.479,20.891,37.479,20,38.546,20h3.886c1.07,0,2.068,0.891,2.219,1.979l0.39,2.795
	C46.303,24.902,47,25,47,25s-0.753-3.509-1.363-5c-1.216-2.982-1.361-5-13.636-5c-12.272,0-12.42,2.018-13.638,5
	C17.756,21.491,17,25,17,25s0.6-0.085,1.706-0.2l0.392-2.819c0.15-1.09,1.149-1.98,2.217-1.98h3.887
	c1.068,0,2.066,0.891,2.218,1.979l0.313,2.25c1.328-0.039,2.75-0.063,4.271-0.063c1.425,0,2.761,0.021,4.017,0.057L36.33,21.979z"/>
<path fill="#302C3B" d="M22,46.416C22,48.645,32,50,32,50s10.008-1.422,10-3.584C42,45.861,22,45.861,22,46.416"/>
<path fill="#E03636" d="M32,53c-6.082-0.051-10.882-2-12-2H6c0,0,0.007,2.818,1.732,3.02c10.656,1.244,36.815,1.369,48.535,0
	C57.991,53.82,58,51,58,51H44C44,51,38.082,53.051,32,53"/>
<path fill="#F46C60" d="M10,29c6.184,2.797,11.426,10,11.93,14h20.143C42.574,39,47.816,31.797,54,29H10z"/>
<path fill="#C21413" d="M10,29c0,0,8.45,7,12,14C22,43,20,29,10,29"/>
<path fill="#C21413" d="M54,29c0,0-6.662,4.188-12,14C42,43,44,29,54,29"/>
<path fill="#F9B700" d="M56,49c0,1.333,2,1.333,2,0S56,47.667,56,49z"/>
<rect x="30.586" y="46.586" transform="matrix(-0.7071 0.7071 -0.7071 -0.7071 88.5685 59.3137)" fill="#FFFFFF" width="2.828" height="2.828"/>
<path fill="#A0D8E9" d="M54.875,41.222c-0.993-3.682-6.29-2.412-5.85,1.07c0.212-3.104,4.958-3.041,4.958,0.209
	c0,1.616-1.178,2.438-2.387,2.483C53.467,45.172,55.532,43.657,54.875,41.222z"/>
<path fill="#A0D8E9" d="M9.125,41.222c0.993-3.682,6.29-2.412,5.85,1.07c-0.212-3.104-4.958-3.041-4.958,0.209
	c0,1.616,1.178,2.438,2.387,2.483C10.533,45.172,8.468,43.657,9.125,41.222z"/>
<path opacity="0.5" fill="#FFFFFF" d="M45.541,15.264L32.806,27.999h6.244l10.33-10.33C48.638,16.688,47.517,15.874,45.541,15.264"
	/>
<path opacity="0.5" fill="#FFFFFF" d="M32,13.999c-2.88,0-5.275,0.083-7.289,0.238L11.303,27.646
	c-0.025,0.119-0.053,0.246-0.076,0.354h9.09l13.979-13.979C33.562,14.007,32.805,13.999,32,13.999"/>
<path opacity="0.5" fill="#FFFFFF" d="M40.24,14.32c-0.889-0.085-1.854-0.153-2.917-0.206L23.438,27.999h3.123L40.24,14.32z"/>
</svg>
