<?xml version="1.0" encoding="utf-8"?>
<!-- Generator: Adobe Illustrator 15.0.0, SVG Export Plug-In . SVG Version: 6.00 Build 0)  -->
<!DOCTYPE svg PUBLIC "-//W3C//DTD SVG 1.1//EN" "http://www.w3.org/Graphics/SVG/1.1/DTD/svg11.dtd">
<svg version="1.1" id="Layer_1" xmlns="http://www.w3.org/2000/svg" xmlns:xlink="http://www.w3.org/1999/xlink" x="0px" y="0px"
	 width="64px" height="64px" viewBox="0 0 64 64" enable-background="new 0 0 64 64" xml:space="preserve">
<path fill="#F9C802" d="M3,55c-1,0-1-2.832-1-6.001C2,45.5,2.529,40.95,3.5,40c2.014-1.971,14.716-3.416,15.5-4
	c0.602-0.447,7-12,7-12h25l5,13c0.907,0.361,3.752,0.752,5,2c0.96,0.96,1,4.501,1,8c0,3.169,0,8-1,8H3z"/>
<path fill="#F59E01" d="M2.001,50C2.012,52.74,2.105,55,3,55h58c0.712,0,0.916-2.447,0.977-5H2.001z"/>
<path fill="#D47706" d="M59,54c0-4.971-4.029-9-9-9s-9,4.029-9,9c0,0.338,0.021,0.671,0.059,1h17.883C58.979,54.671,59,54.338,59,54
	z"/>
<path fill="#282433" d="M42,54c0,4.42,3.578,8,7.998,8c4.417,0.002,8-3.576,8.002-7.994c0-0.002,0-0.004,0-0.006
	c0-4.422-3.58-8-8.002-8c-4.416-0.002-7.996,3.576-7.998,7.992C42,53.994,42,53.997,42,54z"/>
<path fill="#FAFAFA" d="M44.999,54c0.001,2.761,2.238,4.998,4.999,4.999c2.76,0.002,4.998-2.233,5.001-4.993
	c0-0.002,0-0.004,0-0.006c0-2.762-2.239-5-5-5S44.999,51.238,44.999,54z"/>
<path fill="#AFBBC1" d="M46,54.001C46.001,56.21,47.793,58,50.002,58c2.209-0.002,3.999-1.793,3.998-4.002s-1.793-4-4.002-3.998
	C47.789,50,45.999,51.792,46,54.001z"/>
<path fill="#71858C" d="M48,54.001c0,1.104,0.896,2,2,1.999c1.105,0,2-0.896,2-2s-0.896-2-2-2S48,52.896,48,54.001L48,54.001z"/>
<path fill="#282433" d="M49,54.001c-0.018,0.552,0.416,1.014,0.968,1.031s1.014-0.416,1.031-0.968c0.001-0.021,0.001-0.043,0-0.063
	c-0.017-0.552-0.479-0.985-1.03-0.968C49.441,53.049,49.018,53.473,49,54.001L49,54.001z"/>
<path fill="#D47706" d="M25,54c0-4.971-4.029-9-9-9s-9,4.029-9,9c0,0.338,0.021,0.671,0.059,1h17.883
	C24.979,54.668,24.999,54.334,25,54z"/>
<path fill="#282433" d="M8,54c0,4.42,3.578,8,7.998,8c4.417,0.002,8-3.576,8.002-7.994c0-0.002,0-0.004,0-0.006
	c0-4.422-3.58-8-8.002-8C11.582,45.998,8.002,49.576,8,53.992C8,53.994,8,53.997,8,54z"/>
<path fill="#FAFAFA" d="M10.999,54c0.001,2.761,2.238,4.998,4.999,4.999c2.762,0.001,5-2.237,5.001-4.999S18.762,49,16,48.999
	s-5,2.237-5.001,4.999V54z"/>
<path fill="#AFBBC1" d="M12,54.001C12.001,56.21,13.793,58,16.002,58c2.209-0.002,3.999-1.793,3.998-4.002s-1.793-4-4.002-3.998
	C13.789,50,11.999,51.792,12,54.001z"/>
<path fill="#71858C" d="M14,54.001c0,1.104,0.896,2,2,1.999c1.105,0,2-0.896,2-2s-0.896-2-2-2S14,52.896,14,54.001L14,54.001z"/>
<path fill="#282433" d="M15,54.001c-0.018,0.552,0.416,1.014,0.968,1.031s1.014-0.416,1.031-0.968c0.001-0.021,0.001-0.043,0-0.063
	c-0.017-0.552-0.479-0.985-1.03-0.968C15.441,53.049,15.018,53.473,15,54.001L15,54.001z"/>
<path fill="#302C3B" d="M25,43h2v2h-2V43z"/>
<path fill="#FFE463" d="M61.512,40c-0.133-0.439-0.298-0.786-0.512-1c-1.248-1.248-4.093-1.639-5-2l-5-13H26c0,0-6.398,11.553-7,12
	c-0.784,0.584-13.486,2.029-15.5,4H61.512z"/>
<path fill="#302C3B" d="M27,45h2v2h-2V45z"/>
<path fill="#0FB4D4" d="M27.5,26l-6,11H35V26H27.5z"/>
<path fill="#302C3B" d="M29,43h2v2h-2V43z M33,43h2v2h-2V43z M31,45h2v2h-2V45z"/>
<path fill="#282433" d="M4,52.5v-5C4,47.225,3.775,47,3.5,47H2.053C2.019,47.666,2.001,48.332,2,48.999
	C2,50.497,2.001,51.916,2.107,53H3.5C3.775,53,4,52.775,4,52.5z"/>
<path fill="#EA8800" d="M7,41H6v3.863C7.15,44.744,8,44.5,8,44C8,42,8,41,7,41z"/>
<path fill="#006DAE" d="M35,33h-1c-0.55,0-1.109,0.438-1.242,0.971L32,37h3V33z"/>
<path fill="#0FB4D4" d="M37,26h10v11H37V26z"/>
<path fill="#006DAE" d="M47,33h-1c-0.55,0-1.109,0.438-1.242,0.971L44,37h3V33z"/>
<path fill="#E81C27" d="M61.732,41H59.5c-0.218-0.01-0.402,0.158-0.413,0.376c-0.002,0.038,0.002,0.077,0.011,0.114l0.805,4.02
	c0.056,0.271,0.322,0.49,0.6,0.49H62C61.988,44.141,61.945,42.342,61.732,41z"/>
<path fill="#282433" d="M31,22v2h7v-2"/>
<path fill="#CFD8DD" d="M6,41H2.962c-0.372,0.371-0.754,2.844-0.754,3.977c1.196,0,2.644,0.006,3.792-0.111V41z"/>
<path fill="#FFFFFF" d="M4,41v4c0.553,0,2-0.137,2-2C6,41,4.553,41,4,41z"/>
<path fill="#F9C802" d="M36,18.484c-0.081-0.277-0.331-0.473-0.621-0.484h-1.758c-0.29,0.012-0.54,0.207-0.621,0.484L32.121,22
	h4.758L36,18.484z"/>
<path fill="#006DAE" d="M49,37h3l-1.5-4H49V37z"/>
<path fill="#0FB4D4" d="M50.5,33L49,29v4H50.5z"/>
<path opacity="0.5" fill="#FFFFFF" d="M23.774,32.83L21.5,37H25l10-7.844V26h-2.319L23.774,32.83z"/>
<path opacity="0.5" fill="#FFFFFF" d="M37,33l10-7v4l-10,7V33z"/>
<path fill="#D47706" d="M23,35c-0.829,0-2,0-2,1.313v1.375c0,1.313,1.171,1.313,2,1.313V35z"/>
</svg>
