<?xml version="1.0" encoding="utf-8"?>
<!-- Generator: Adobe Illustrator 15.0.0, SVG Export Plug-In . SVG Version: 6.00 Build 0)  -->
<!DOCTYPE svg PUBLIC "-//W3C//DTD SVG 1.1//EN" "http://www.w3.org/Graphics/SVG/1.1/DTD/svg11.dtd">
<svg version="1.1" id="Layer_1" xmlns="http://www.w3.org/2000/svg" xmlns:xlink="http://www.w3.org/1999/xlink" x="0px" y="0px"
	 width="64px" height="64px" viewBox="0 0 64 64" enable-background="new 0 0 64 64" xml:space="preserve">
<path fill="#E81C27" d="M61,40H7.146C6.169,40.428,5.4,40.859,5,41.273c-2.75,2.845-3,13.451-3,13.451S4,56,8,56h44.984
	C62,56,62,52.178,62,47.09c0-2.545-1-2.758-1-3.814V40z"/>
<path fill="#F46C60" d="M24,52h18v2H24V52z"/>
<path fill="#B00505" d="M59,53.999c0.002-4.968-4.024-8.997-8.993-8.999c-0.003,0-0.006,0-0.009,0
	c-4.968-0.002-8.996,4.024-8.998,8.992c0,0.002,0,0.005,0,0.008H25c0-4.975-4.027-9-9.002-9C11.031,44.998,7.002,49.023,7,53.99
	c0,0.003,0,0.006,0,0.009H2.027C2.006,54.457,2,54.725,2,54.725s2,1.274,6,1.274h44.984c3.965,0,6.184-0.739,7.428-2H59z"/>
<path fill="#F46C60" d="M51,28c0,0,2-0.729,2-2H34c-6,0-15,10.5-15,10.5S11.234,38.21,7.146,40H61v-1.275C61,34.911,51,28,51,28z"/>
<path fill="#0FB4D4" d="M21,38h30.757c3.026,0-4.106-10-5.044-10H33.598C28.544,28,21,38,21,38z"/>
<path fill="#BEC3CF" d="M8.5,42h-1C5.459,42,4,43.775,4,45h3.75C8.387,45,10,45,10,42.75C10,42.291,9.529,42,8.5,42z"/>
<path fill="#B00505" d="M36.5,40h-3c-0.275,0-0.5,0.225-0.5,0.501V41.5c0,0.275,0.225,0.5,0.5,0.5h3c0.275,0,0.5-0.225,0.5-0.5
	v-0.999C37,40.225,36.775,40.001,36.5,40z"/>
<ellipse fill="#FFFFFF" cx="7.5" cy="43.5" rx="0.5" ry="1.5"/>
<path fill="#282433" d="M42,53.999c-0.002,4.417,3.576,7.999,7.993,8.001c0.001,0,0.003,0,0.005,0
	c4.418,0.001,8.001-3.58,8.002-7.998c0-0.001,0-0.002,0-0.003c0.001-4.417-3.578-7.998-7.995-7.999c-0.003,0-0.005,0-0.007,0
	c-4.416-0.002-7.996,3.576-7.998,7.992C42,53.994,42,53.996,42,53.999z"/>
<path fill="#FAFAFA" d="M44.999,53.999c0,2.761,2.238,4.999,4.999,4.999l0,0c2.76,0.002,4.998-2.233,5.001-4.993
	c0-0.002,0-0.004,0-0.006c-0.056-2.762-2.339-4.955-5.101-4.899C47.215,49.152,45.053,51.315,44.999,53.999z"/>
<path fill="#AFBBC1" d="M46,54c0.001,2.209,1.793,4,4.002,3.998c2.209,0,3.999-1.792,3.998-4.001s-1.793-3.999-4.002-3.999
	C47.789,50,45.999,51.791,46,54z"/>
<path fill="#71858C" d="M48,53.999c0,1.104,0.896,2,2,1.999c1.105,0,2-0.896,2-2s-0.896-2-2-2C48.895,51.999,48,52.895,48,53.999z"
	/>
<path fill="#282433" d="M49,53.999c-0.018,0.552,0.416,1.014,0.967,1.032c0.553,0.018,1.015-0.416,1.032-0.968
	C51,54.042,51,54.021,50.999,54c-0.017-0.552-0.479-0.985-1.03-0.969C49.441,53.048,49.018,53.472,49,53.999z M8,53.999
	c-0.002,4.417,3.576,7.999,7.993,8.001c0.001,0,0.003,0,0.005,0c4.418,0.001,8.001-3.58,8.002-7.998c0-0.001,0-0.002,0-0.003
	c0.001-4.417-3.578-7.998-7.995-7.999c-0.003,0-0.005,0-0.007,0C11.582,45.998,8.002,49.576,8,53.992C8,53.994,8,53.996,8,53.999z"
	/>
<path fill="#FAFAFA" d="M10.999,53.999c0,2.761,2.238,4.999,4.999,4.999c2.762,0,5-2.238,5.001-4.999
	C21,51.237,18.762,48.998,16,48.998s-5,2.237-5.001,4.999C10.999,53.998,10.999,53.998,10.999,53.999z"/>
<path fill="#AFBBC1" d="M12,54c0.001,2.209,1.793,4,4.002,3.998c2.209,0,3.999-1.792,3.998-4.001s-1.793-3.999-4.002-3.999
	C13.789,50,11.999,51.791,12,54z"/>
<path fill="#71858C" d="M14,54c0,1.105,0.896,1.999,1.999,1.999C17.104,56,18,55.104,18,54s-0.895-2-1.999-2.001
	S14,52.894,14,53.998V54z"/>
<path fill="#282433" d="M15,54c-0.018,0.552,0.416,1.014,0.967,1.031c0.553,0.018,1.015-0.415,1.032-0.967
	c0.001-0.021,0.001-0.043,0-0.063c-0.017-0.552-0.479-0.985-1.03-0.968C15.441,53.049,15.018,53.473,15,54z"/>
<path fill="#006DAE" d="M51.301,34H50c-0.55,0-1.109,0.438-1.242,0.971L48,38h3.757C53.066,38,52.473,36.125,51.301,34z M37,34h-1
	c-0.55,0-1.109,0.438-1.242,0.971L34,38h3V34z"/>
<path fill="#B00505" d="M61,38.725c0-0.496-0.172-1.045-0.467-1.625C59.292,37.377,56,38.188,56,39c0,1,1,3,2,3h3V38.725z"/>
<circle fill="#E81C27" cx="58" cy="39" r="1"/>
<circle fill="#F46C60" cx="60" cy="40" r="1"/>
<path fill="#B00505" d="M20.339,45c2.35,1.135,4.163,3.141,5.054,5.593c0.063,0.138,0.119,0.274,0.159,0.407h14.896
	c0.042-0.133,0.096-0.27,0.157-0.407c0.891-2.451,2.704-4.458,5.053-5.593H20.339z"/>
<path opacity="0.5" fill="#FFFFFF" d="M30.149,38h8.219l10.11-8.241C47.655,28.713,46.963,28,46.713,28h-3.595L30.149,38z"/>
<path opacity="0.5" fill="#FFFFFF" d="M22,38h4.219c0,0,12.595-10,12.345-10h-3.595L22,38z"/>
<path fill="#302C3B" d="M37,28h2v10h-2V28z"/>
<path fill="#302C3B" d="M22.5,35c-0.829,0-1.5,0-1.5,1.313v1.377c0,1.313,0.671,1.313,1.5,1.313c0.5,0,0.5-0.589,0.5-1.313v-1.377
	C23,35.589,23,35,22.5,35z M6.563,47H2.801c-0.523,2.773-0.773,5.688-0.773,6.999h3.527c0.285-0.007,0.526-0.214,0.575-0.495
	l0.865-6.01c0.039-0.23-0.116-0.449-0.346-0.488C6.621,47.001,6.592,46.999,6.563,47z"/>
<path opacity="0.5" fill="#FFFFFF" d="M44.542,38h3.934l3.38-2.916c-0.555-1.084-1.198-2.188-1.198-2.188L44.542,38z"/>
</svg>
