<?xml version="1.0" encoding="utf-8"?>
<!-- Generator: Adobe Illustrator 15.0.0, SVG Export Plug-In . SVG Version: 6.00 Build 0)  -->
<!DOCTYPE svg PUBLIC "-//W3C//DTD SVG 1.1//EN" "http://www.w3.org/Graphics/SVG/1.1/DTD/svg11.dtd">
<svg version="1.1" id="Layer_1" xmlns="http://www.w3.org/2000/svg" xmlns:xlink="http://www.w3.org/1999/xlink" x="0px" y="0px"
	 width="64px" height="64px" viewBox="0 0 64 64" enable-background="new 0 0 64 64" xml:space="preserve">
<path fill="#E81C27" d="M60,20H9c-1.104,0-1.659,0.95-2,2c-0.309,0.951-4,15-4,16v17h58V21C61,20.447,60.553,20,60,20z"/>
<path fill="#C21413" d="M3,38h58v17H3V38z"/>
<path fill="#FFFFFF" d="M8,42h51v4H8V42z"/>
<path fill="#71858C" d="M61,50h-8c-0.55,0-1,0.45-1,1v4c0,0.55,0.45,1,1,1h8c0.55,0,1-0.45,1-1v-4C62,50.45,61.55,50,61,50z M11,50
	H3c-0.55,0-1,0.45-1,1v4c0,0.55,0.45,1,1,1h8c0.55,0,1-0.45,1-1v-4C12,50.45,11.55,50,11,50z"/>
<path fill="#71858C" d="M12.001,54h40.001v2H12.001V54z"/>
<path fill="#4E5E67" d="M24.77,56c0.146-0.645,0.23-1.313,0.23-2c0-4.975-4.025-9-9.002-9C11.031,44.998,7.002,49.023,7,53.99
	c0,0.003,0,0.006,0,0.01c0,0.688,0.084,1.355,0.23,2H24.77z"/>
<path fill="#282433" d="M8.001,54c0,4.42,3.578,8,7.998,8c4.417,0.002,7.999-3.578,8.001-7.995c0-0.001,0-0.003,0-0.005
	c0-4.422-3.58-8-8.001-8c-4.415-0.002-7.997,3.576-7.998,7.992C8.001,53.994,8.001,53.997,8.001,54z"/>
<path fill="#FAFAFA" d="M11,54c0.039,2.762,2.309,4.968,5.07,4.929c2.706-0.038,4.891-2.223,4.929-4.929c0-2.762-2.238-5-4.999-5
	C13.238,49,11,51.238,11,54z"/>
<path fill="#AFBBC1" d="M12.001,54.001c0,2.209,1.791,4,4.001,4C18.211,58,20.001,56.209,20.001,54c0,0,0-0.001,0-0.002
	C20,51.789,18.209,49.998,16,50C13.791,50,12,51.792,12.001,54.001z"/>
<path fill="#71858C" d="M14.001,54.001C14,55.105,14.896,56.002,16,56.002c1.105,0,2-0.895,2.001-2c0,0,0-0.001,0-0.002
	c0-1.105-0.896-2-2.001-2C14.896,52,14,52.895,14.001,54.001L14.001,54.001z"/>
<path fill="#4E5E67" d="M58.77,56c0.146-0.645,0.23-1.313,0.23-2c0-4.975-4.025-9-9.002-9c-4.967-0.002-8.996,4.023-8.998,8.99
	c0,0.003,0,0.006,0,0.01c0,0.688,0.084,1.355,0.23,2H58.77z"/>
<path fill="#282433" d="M15.001,54.001c-0.018,0.552,0.416,1.014,0.968,1.031c0.553,0.018,1.014-0.416,1.031-0.968
	c0-0.021,0-0.043,0-0.063c0-0.552-0.447-1-1-1.001C15.448,53,15,53.447,15.001,54.001L15.001,54.001z M42,54c0,4.42,3.578,8,7.998,8
	c4.416,0.003,7.999-3.575,8.002-7.992c0-0.002,0-0.005,0-0.008c0-4.422-3.578-8-8.002-8c-4.416-0.002-7.996,3.576-7.998,7.992
	C42,53.994,42,53.997,42,54z"/>
<path fill="#FAFAFA" d="M45,54c0,2.761,2.237,4.998,4.998,4.999C52.76,59,54.999,56.763,55,54.001
	c0.001-2.761-2.236-5.001-4.998-5.002S45.001,51.235,45,53.997C45,53.998,45,53.999,45,54z"/>
<path fill="#AFBBC1" d="M46,54.001c0.049,2.209,1.881,3.96,4.09,3.911c2.139-0.049,3.862-1.771,3.91-3.911
	C54,51.791,52.209,50,50,50C47.793,50,46,51.794,46,54.001z"/>
<path fill="#71858C" d="M48,54.001C48,55.105,48.896,56,50.001,56S52,55.104,52,53.999l0,0C52,52.895,51.104,52,49.999,52
	S48,52.896,48,54.001z"/>
<path fill="#282433" d="M49,54.001C49,54.553,49.449,55,50.001,55S51,54.551,51,53.999l0,0c0-0.552-0.448-1-1-0.999
	C49.447,53,49,53.447,49,54.001L49,54.001z"/>
<path fill="#CFD8DD" d="M27,22h12v14H27V22z"/>
<path fill="#4E5E67" d="M31,32h4v2h-4V32z"/>
<path fill="#282433" d="M12,36h4v2h-4V36z"/>
<path fill="#BEC3CF" d="M53,12H23l-4,8h38 M22,18l2-4l2,4H22z M26,14h4l-2,4L26,14z M30,18l2-4l2,4H30z M34,14h4l-2,4L34,14z M38,18
	l2-4l2,4H38z M42,14h4l-2,4L42,14z M46,18l2-4l2,4H46z"/>
<path fill="#CFD8DD" d="M3,42h2v4H3V42z"/>
<path fill="#FFFFFF" d="M4,42h2v4H4V42z"/>
<path fill="#F9B700" d="M6,42h2v4H6V42z"/>
<path fill="#AFBBC1" d="M10,18h6v2h-6V18z"/>
<path fill="#E81C27" d="M16,18v-1c0-0.55-0.45-1-1-1h-4c-0.55,0-1,0.45-1,1v1H16z"/>
<circle fill="#F89987" cx="12" cy="17" r="1"/>
<circle fill="#F89987" cx="14" cy="17" r="1"/>
<path fill="#C21413" d="M41,22v14h18V22H41z M57,34H43V24h14V34z"/>
<path fill="#EA8800" d="M61,41h-1c-0.553,0-1,0.447-1,1v4c0,0.553,0.447,1,1,1h1"/>
<path fill="#F9C802" d="M59,42h2v4h-2V42z"/>
<path fill="#0FB4D4" d="M19,22h6v12h-6V22z"/>
<path fill="#4E5E67" d="M46,20h12l-3-6h-6L46,20z"/>
<circle fill="#282433" cx="52" cy="16" r="1"/>
<path fill="#E03636" d="M6.671,10.747c0.988-1.231,2.771,3.151,2.692,3.25C9.288,14.094,5.684,11.982,6.671,10.747z M10.689,8
	c1.572,0,1.358,5.161,1.203,5.208C11.741,13.255,8.661,8,10.689,8z M16.637,13.997c-0.078-0.101,1.704-4.481,2.692-3.251
	C20.316,11.982,16.713,14.094,16.637,13.997z M14.105,13.208C13.951,13.161,13.738,8,15.311,8C17.339,8,14.259,13.255,14.105,13.208
	z"/>
<path fill="#0FB4D4" d="M9,22L6,34h10V22H9z"/>
<path fill="#006DAE" d="M16,34v-4h-2c-0.55,0-1.109,0.438-1.242,0.971L12,34H16z M25,34v-4h-2c-0.55,0-1.109,0.438-1.242,0.971
	L21,34H25z"/>
<path opacity="0.5" fill="#FFFFFF" d="M19,28l6-6v6l-6,6V28z"/>
<path opacity="0.5" fill="#FFFFFF" d="M7,30l-1,4l10.001-8.917L16,22L7,30z"/>
</svg>
