<?xml version="1.0" encoding="utf-8"?>
<!-- Generator: Adobe Illustrator 15.0.0, SVG Export Plug-In . SVG Version: 6.00 Build 0)  -->
<!DOCTYPE svg PUBLIC "-//W3C//DTD SVG 1.1//EN" "http://www.w3.org/Graphics/SVG/1.1/DTD/svg11.dtd">
<svg version="1.1" id="Layer_1" xmlns="http://www.w3.org/2000/svg" xmlns:xlink="http://www.w3.org/1999/xlink" x="0px" y="0px"
	 width="64px" height="64px" viewBox="0 0 64 64" enable-background="new 0 0 64 64" xml:space="preserve">
<path fill="#302C3B" d="M58,45h3.137c1.15,0,1.15-14,0-14H58V45z"/>
<path fill="#006DAE" d="M14.146,39c-3.104,0.868-6.235,1.891-7.145,2.999C5.192,44.205,3,53,3,53h57V41.999
	c0-0.463-0.107-1.573-0.271-2.999H14.146z"/>
<path fill="#018BC9" d="M59.729,39C59.182,34.266,58,26,58,26s0-2-2.998-2H33c-2.896,0-3.191,0.923-4,2c-3,4-8,11-8,11
	c-0.976,0.486-3.903,1.175-6.855,2H59.729z"/>
<path fill="#6E8189" d="M12.001,53h40.001v3H12.001V53z M11,56H3.217c-1.412,0-1.705-6-0.292-6H11V56z"/>
<path fill="#E6EBEF" d="M9.001,45l-3.954,1.146C4.577,46.146,6.001,42,7.001,42h3L9.001,45z"/>
<path fill="#6E8189" d="M57,49h4.092c1.852,0,0.59,6-1.264,6H57V49z"/>
<path fill="#0FB4D4" d="M37,26h-6l-7,11h13V26z M40.002,26H54v11H40.002V26z"/>
<path fill="#014D87" d="M36.684,41h-3.369c-0.42,0-0.42-2,0-2h3.369C37.105,39,37.105,41,36.684,41z"/>
<path fill="#4E5E67" d="M30,20h27v2H30V20z"/>
<path fill="#6E8189" d="M5.001,54.001h22c0-6.08-4.922-11-11.001-11C9.928,42.998,5.004,47.918,5.001,53.99
	C5.001,53.994,5.001,53.997,5.001,54.001z"/>
<path fill="#4E5E67" d="M15.999,44.999C11.031,44.996,7.003,49.021,7,53.988c0,0.004,0,0.007,0,0.011V56h18v-2.001
	C25,49.023,20.974,44.999,15.999,44.999z"/>
<path fill="#6E8189" d="M39,54.001h22c0-6.08-4.922-11-11.002-11C43.92,43.001,39,47.921,39,54.001z"/>
<path fill="#4E5E67" d="M49.998,44.999c-4.967-0.003-8.994,4.021-8.998,8.985c0,0.006,0,0.01,0,0.015V56l18-1v-1.001
	C59,49.023,54.973,44.999,49.998,44.999z"/>
<path fill="#E81C27" d="M60.5,41H59v5h1.5c0.275,0,0.5-0.225,0.5-0.5v-4C61,41.225,60.775,41,60.5,41z"/>
<path fill="#282433" d="M8.001,54c0,4.42,3.578,8,7.998,8c4.417,0.002,7.999-3.578,8.001-7.995c0-0.001,0-0.003,0-0.005
	c0-4.422-3.58-8-8.001-8c-4.416-0.002-7.997,3.576-7.998,7.992C8.001,53.994,8.001,53.997,8.001,54z"/>
<path fill="#FAFAFA" d="M11,54c0.039,2.762,2.309,4.968,5.07,4.929c2.706-0.038,4.891-2.223,4.929-4.929c0-2.762-2.238-5-5-5
	C13.238,49,11,51.238,11,54z"/>
<path fill="#AFBBC1" d="M12.001,54.001c0,2.209,1.791,4,4,4c2.209-0.001,4-1.792,4-4.001c0,0,0-0.001,0-0.002
	c-0.001-2.209-1.793-4-4.002-3.998C13.79,50,12,51.792,12.001,54.001z"/>
<path fill="#71858C" d="M14.001,54.001C14,55.105,14.896,56.002,16,56.002s2-0.895,2.001-2c0,0,0-0.001,0-0.002
	c0-1.105-0.896-2-2.001-2C14.896,52,14,52.895,14.001,54.001L14.001,54.001z"/>
<path fill="#282433" d="M15.001,54.001c-0.018,0.552,0.416,1.014,0.968,1.031s1.014-0.416,1.031-0.968c0-0.021,0-0.043,0-0.063
	c0-0.552-0.447-1-1-1.001C15.448,53,15,53.447,15.001,54.001L15.001,54.001z M42,54c0,4.42,3.578,8,7.998,8
	c4.416,0.003,7.999-3.575,8.002-7.992c0-0.002,0-0.005,0-0.008c0-4.422-3.578-8-8.002-8c-4.416-0.002-7.996,3.576-7.998,7.992
	C42,53.994,42,53.997,42,54z"/>
<path fill="#FAFAFA" d="M45,54c0,2.761,2.237,4.998,4.998,4.999C52.76,59,54.999,56.763,55,54.001
	c0.001-2.761-2.236-5.001-4.998-5.002S45.001,51.235,45,53.997C45,53.998,45,53.999,45,54z"/>
<path fill="#AFBBC1" d="M46,54.001c0.049,2.209,1.881,3.96,4.09,3.911c2.139-0.049,3.862-1.771,3.91-3.911
	C54,51.791,52.209,50,50,50C47.793,50,46,51.794,46,54.001z"/>
<path fill="#71858C" d="M48,54.001C48,55.105,48.896,56,50.001,56S52,55.104,52,53.999l0,0C52,52.895,51.104,52,49.999,52
	S48,52.896,48,54.001z"/>
<path fill="#282433" d="M49,54.001C49,54.553,49.449,55,50.001,55S51,54.551,51,53.999l0,0c0-0.552-0.448-1-1-0.999
	C49.447,53,49,53.447,49,54.001L49,54.001z"/>
<path fill="#014D87" d="M37,33h-2c-0.549,0-1.109,0.438-1.242,0.971L33,37h4V33z M54,33h-3c-0.549,0-1.109,0.438-1.242,0.971L49,37
	h5V33z"/>
<path opacity="0.5" fill="#FFFFFF" d="M37,26h-2l-7.891,6.115L24,37h3.149L37,29.833V26z M40.002,26H50l-9.998,7V26z"/>
<path opacity="0.5" fill="#FFFFFF" d="M54,27.75L42.114,37h6.694L54,33.583V27.75z"/>
<path fill="#302C3B" d="M26,38h-2.354c-0.862,0-0.862-5,0-5H26V38z M33,22h3v2h-3V22z M52,22h3.002v2H52V22z"/>
</svg>
