<?xml version="1.0" encoding="utf-8"?>
<!-- Generator: Adobe Illustrator 15.0.0, SVG Export Plug-In . SVG Version: 6.00 Build 0)  -->
<!DOCTYPE svg PUBLIC "-//W3C//DTD SVG 1.1//EN" "http://www.w3.org/Graphics/SVG/1.1/DTD/svg11.dtd">
<svg version="1.1" id="Layer_1" xmlns="http://www.w3.org/2000/svg" xmlns:xlink="http://www.w3.org/1999/xlink" x="0px" y="0px"
	 width="64px" height="64px" viewBox="0 0 64 64" enable-background="new 0 0 64 64" xml:space="preserve">
<path fill="#6E8189" d="M2,58h60v2H2V58z"/>
<path fill="#BEC3CF" d="M5,60h4v2H5V60z M15,60h4v2h-4V60z M25,60h4v2h-4V60z M35,60h4v2h-4V60z M45,60h4v2h-4V60z M55,60h4v2h-4V60
	z"/>
<path fill="#6E8189" d="M30,2c-0.484,0-2.583,3.417-3,3.75l-5.416,1.833C19.75,8.75,18.25,7,17.917,6.75
	c-0.173-0.13-0.752,0.889-1.5,1.292c-0.692,0.372-1.562,0.125-1.667,0.125C14.377,8.167,12,7,12,7
	c-1.139,0.229-2.633,1.829-4.458,2.913C5.355,11.209,2.852,12,2,12v46h60V12c-5.75,0-11.609-5.141-12.219-5.141
	c-0.418,0-3.541,4.539-6.114,3.141C43.667,10,30.695,2,30,2z"/>
<path fill="#4E5E67" d="M62,20v38H2V24c0,0,4.049,5.137,5,5.833c1.594,1.167,6,2.501,8,3.834s-4.667-7.261-6.5-8.714L30,33.807
	C30.833,34.167,15,22,13,19c-1.447-2.171-5.333-3.65-4-3.658s10.167,4.825,12,5.992s6.834,5,11,6.5s-1.75-9.573-1-9
	c10.883,8.333,29,11.5,29,11.5S49.166,18.667,48,16.667s7.746,6.252,5,0.649C51.375,14,55,20,62,20z"/>
<path fill="#4E5E67" d="M4.667,17.833c-0.144-0.589,3.25,2.667,4.25,3.25S5.584,21.583,4.667,17.833z M39.091,16.109
	c-0.53-0.529,3.47,9.559,10.269,9.559C54.875,25.668,43.43,20.449,39.091,16.109z"/>
<circle fill="#99A8AE" cx="20" cy="54" r="4"/>
<circle fill="#4E5E67" cx="20" cy="54" r="3"/>
<circle fill="#302C3B" cx="20" cy="54" r="1"/>
<circle fill="#99A8AE" cx="32" cy="54" r="4"/>
<circle fill="#4E5E67" cx="32" cy="54" r="3"/>
<circle fill="#302C3B" cx="32" cy="54" r="1"/>
<path fill="#99A8AE" d="M60,23H16c-1.1,0-2,0.9-2,2v4h48v-4C62,23.9,61.1,23,60,23z"/>
<path fill="#E6EBEF" d="M14,29h48v20H14V29z"/>
<path fill="#529320" d="M14,41h48v2H14V41z M14,31h48v8H14V31z"/>
<path fill="#297124" d="M16,33h8v16h-8V33z"/>
<path fill="#0FB4D4" d="M18,35h4v4h-4V35z M26,33h6v4h-6V33z M35,33h6v4h-6V33z M44,33h6v4h-6V33z M53,33h6v4h-6V33z"/>
<polygon opacity="0.5" fill="#FFFFFF" points="18,39 22,37 22,35 18,37 "/>
<polygon opacity="0.5" fill="#FFFFFF" points="26,37 28,37 32,35 32,33 26,36 "/>
<polygon opacity="0.5" fill="#FFFFFF" points="35,37 37,37 41,35 41,33 35,36 "/>
<polygon opacity="0.5" fill="#FFFFFF" points="44,37 46,37 50,35 50,33 44,36 "/>
<polygon opacity="0.5" fill="#FFFFFF" points="53,37 55,37 59,35 59,33 53,36 "/>
<path fill="#302C3B" d="M27,55h-2l-2-2h6L27,55z"/>
<circle fill="#99A8AE" cx="44" cy="54" r="4"/>
<circle fill="#4E5E67" cx="44" cy="54" r="3"/>
<circle fill="#302C3B" cx="44" cy="54" r="1"/>
<circle fill="#99A8AE" cx="56" cy="54" r="4"/>
<circle fill="#4E5E67" cx="56" cy="54" r="3"/>
<circle fill="#302C3B" cx="56" cy="54" r="1"/>
<path fill="#302C3B" d="M51,55h-2l-2-2h6L51,55z M16,51h46v2H16V51z"/>
<path fill="#6E8189" d="M14,49h48v2H14V49z"/>
<path fill="#E6EBEF" d="M20,41h2v2h-2V41z"/>
<path fill="#E6EBEF" d="M7.917,11.083c0.417-0.583,3.25-0.417,3.25-0.417S11.208,7.792,12,7c-2.5,0.5-8.438,5-10,5
	c0,0,4.809,0.758,6.667,1.583C9.417,13.917,7.5,11.667,7.917,11.083z M19.75,10.203c1.417,0.964-2.583-2.703-1.833-3.453
	c-0.333-0.25-2.948,1.417-3.167,1.417c0,0,2.833,1.75,4,2.917S18.333,9.239,19.75,10.203z M14.75,9.583c0,0,4.333,2.833,4.833,3.583
	s-2.026-0.083-2.181,0c-0.152,0.083,2.646,2.75,2.246,3c-0.398,0.25-3.398-2.833-4.898-3.292S17.25,13.333,14.75,9.583z
	 M25.583,7.583c0,0,3.583,1.678,3.417,1.13s-3.167-3.38,0-1.63s6.918,5.315,7.834,6.533c0,0-0.584-2.128-1.834-3.414
	s-4.42-4.04-3.667-5.536C31.333,4.667,30,3.583,30,2c-0.484,0-2.583,2.417-3,2.75s-0.916-0.25-1.25-0.333
	c-0.333-0.083-2.333,2-4.166,3.167c0,0,3.225,1.844,5,3.619c2.423,2.423,5.917,4.431,5.917,4.139
	C32.5,14.686,25.583,7.583,25.583,7.583z M33.834,6.072c0,0,2.584,1.595,3,3.095S35.168,8.145,33.834,6.072z M48.667,12.882
	c0.335,0.146-2.916-3.644-0.583-2.68s-0.166-1.941,0.75-1.489s4.332,3.249,4.166,2.643c-0.166-0.605-1.917-3.062,0-2.5h0.001
	C51.18,7.736,49.932,6.75,49.75,6.75c-0.417,0-4.188,3.25-6.083,3.25C43.667,10,46.188,11.813,48.667,12.882z M54.667,11.128
	c-0.827,0,3.166,3.722,4.833,4.213S55.417,11.128,54.667,11.128z"/>
</svg>
