<?xml version="1.0" encoding="utf-8"?>
<!-- Generator: Adobe Illustrator 15.0.0, SVG Export Plug-In . SVG Version: 6.00 Build 0)  -->
<!DOCTYPE svg PUBLIC "-//W3C//DTD SVG 1.1//EN" "http://www.w3.org/Graphics/SVG/1.1/DTD/svg11.dtd">
<svg version="1.1" id="Layer_1" xmlns="http://www.w3.org/2000/svg" xmlns:xlink="http://www.w3.org/1999/xlink" x="0px" y="0px"
	 width="64px" height="64px" viewBox="0 0 64 64" enable-background="new 0 0 64 64" xml:space="preserve">
<path fill="#4E5E67" d="M16,20h32v4H16V20z M54.396,30.68c1.734-0.635,4.771-1.073,5.949-0.15c1.297,1.021,0.391,3.617-0.367,4.304
	c-0.627,0.567-3.572,1.723-8.6,0.854C49.967,35.441,52.816,31.258,54.396,30.68 M9.603,30.68c-1.737-0.635-4.775-1.073-5.949-0.15
	c-1.297,1.021-0.391,3.617,0.367,4.304c0.627,0.567,3.572,1.723,8.595,0.854C14.034,35.441,11.183,31.258,9.603,30.68"/>
<path fill="#302C3B" d="M5,54v7c0,0.55,0.45,1,1,1h8c0.55,0,1-0.45,1-1v-7H5z M49,54v7c0,0.55,0.449,1,1,1h8c0.549,0,1-0.45,1-1v-7
	H49z"/>
<path fill="#1A1626" d="M60.682,40.719c-0.512-1.178-5.363-4.044-7.152-6.807c-1.684-2.59-2.646-9.834-3.827-10.838
	C48.68,22.212,36.389,22,31.937,22c-4.451,0-16.738,0.212-17.756,1.074c-1.186,1.004-2.066,9.129-3.749,11.721
	c-1.791,2.764-6.584,5.438-7.099,6.615c-0.635,1.471-0.187,9.755,0.082,9.968C3.921,51.792,17.82,52,31.937,52
	c14.118,0,28.098-0.208,28.605-0.622C60.813,51.165,61.318,42.186,60.682,40.719"/>
<polygon fill="#4E5E67" points="44,43 20,43 19,51 45,51 "/>
<path fill="#99A8AE" d="M61.379,49.036C60.688,49.393,46.445,50.25,32,50.25c-14.445,0-28.688-0.857-29.38-1.214
	c-1.005-0.521-0.626,4.719,0,5.935C3.289,56.27,17.564,57,32,57c14.436,0,28.711-0.73,29.379-2.029
	C62.006,53.755,62.387,48.518,61.379,49.036"/>
<path fill="#4E5E67" d="M14,35c0,0,3,3.093,3,6h3C20,41,19.396,36.775,14,35 M51,35c0,0-3,3.093-3,6h-3C45,41,45.602,36.775,51,35"
	/>
<path fill="#018BC9" d="M49,25.363c0,0-1.045-1.363-17-1.363c-15.954,0-17,1.363-17,1.363s-1.6,5.73-2,8.637h38
	C50.604,31.094,49,25.363,49,25.363"/>
<path fill="#E03636" d="M15,16c-0.55,0-1,0.45-1,1v2c0,0.55,0.45,1,1,1h11v-4H15z"/>
<path fill="#0FB4D4" d="M49,16H38v4h11c0.549,0,1-0.45,1-1v-2C50,16.45,49.549,16,49,16"/>
<rect x="26" y="16" fill="#CAE8F0" width="12" height="4"/>
<rect x="24" y="54" fill="#EA8800" width="16" height="4"/>
<path fill="#75D6FF" d="M49,16H38v4h11c0.549,0,1-0.45,1-1v-2C50,16.45,49.549,16,49,16"/>
<rect x="26" y="16" fill="#CAE8F0" width="12" height="4"/>
<path fill="#C21413" d="M24.5,16c0.275,0,0.5,0.225,0.5,0.5V18c0,0.55-0.45,1-1,1h-9c-0.55,0-1-0.45-1-1v1c0,0.55,0.45,1,1,1h11v-4
	H24.5z"/>
<path fill="#0FB4D4" d="M39.499,16c-0.275,0-0.5,0.225-0.5,0.5V18c0,0.55,0.45,1,1,1h9c0.55,0,1-0.45,1-1v1c0,0.55-0.45,1-1,1h-11
	v-4H39.499z M47.029,12.997c-0.246-0.151,1.049-9.669,4.172-7.739C54.328,7.191,47.277,13.15,47.029,12.997 M38.395,11.999
	c-0.299-0.091-1.436-11.063,2.336-9.915C44.504,3.232,38.691,12.09,38.395,11.999"/>
<path fill="#E03636" d="M12.797,6.258c3.123-1.93,4.418,7.586,4.173,7.739C16.722,14.15,9.669,8.191,12.797,6.258 M24.269,2.084
	c3.771-1.146,2.635,9.824,2.336,9.915S20.494,3.232,24.269,2.084"/>
<path fill="#75D6FF" d="M44.525,26.816c0,0-0.771-0.816-12.526-0.816c-11.756,0-12.525,0.816-12.525,0.816s-0.167,0.489-0.393,1.192
	l0.092-0.01h7c0.552,0,1.09,0.44,1.197,0.979L27.976,32H36.2l0.604-3.02C36.91,28.441,37.449,28,37.998,28h6.916
	C44.691,27.303,44.525,26.816,44.525,26.816"/>
<path fill="#C5D0D8" d="M55,32.984c0,0,5-3.531,5-1.172C60,33.221,55,32.984,55,32.984 M9,32.984c0,0-5-3.531-5-1.172
	C4,33.221,9,32.984,9,32.984"/>
<rect x="9" y="43" fill="#99A8AE" width="8" height="4"/>
<rect x="10" y="43" fill="#FFFFFF" width="7" height="3"/>
<rect x="6" y="43" fill="#F9B700" width="3" height="4"/>
<rect x="47" y="43" fill="#99A8AE" width="8" height="4"/>
<rect x="47" y="43" fill="#FFFFFF" width="7" height="3"/>
<rect x="55" y="43" fill="#F9B700" width="3" height="4"/>
<rect x="15" y="17" fill="#F89987" width="9" height="1"/>
<rect x="40" y="17" fill="#CAE8F0" width="9" height="1"/>
<path fill="#C5D0D8" d="M17,49h4v9h-4V49z M43,49h4v9h-4V49z"/>
<path opacity="0.5" fill="#FFFFFF" d="M40.393,25.168c-0.902-0.042-1.904-0.077-3.017-0.105L29.438,33h3.122L40.393,25.168z"/>
<path opacity="0.5" fill="#FFFFFF" d="M26.316,33l7.99-7.988C33.572,25.004,32.809,25,32,25c-2.854,0-5.207,0.045-7.166,0.117
	L16.95,33H26.316z"/>
<path opacity="0.5" fill="#FFFFFF" d="M48.947,29.103c-0.324-1.304-0.633-2.454-0.794-3.046c-0.286-0.096-0.882-0.249-1.995-0.409
	l-7.353,7.352h6.245L48.947,29.103z"/>
</svg>
