<?xml version="1.0" encoding="utf-8"?>
<!-- Generator: Adobe Illustrator 15.0.0, SVG Export Plug-In . SVG Version: 6.00 Build 0)  -->
<!DOCTYPE svg PUBLIC "-//W3C//DTD SVG 1.1//EN" "http://www.w3.org/Graphics/SVG/1.1/DTD/svg11.dtd">
<svg version="1.1" id="Layer_1" xmlns="http://www.w3.org/2000/svg" xmlns:xlink="http://www.w3.org/1999/xlink" x="0px" y="0px"
	 width="64px" height="64px" viewBox="0 0 64 64" enable-background="new 0 0 64 64" xml:space="preserve">
<path fill="#E6EBEF" d="M3,41v4c0,0-1,2-1,5h59V16H21c-2,0-3.954,0.419-6,4L3,41z"/>
<path fill="#CFD8DD" d="M3,41v4c0,0-1,2-1,5h59V36H5.857L3,41z"/>
<path fill="#4E5E67" d="M8,48c-5,0-6,2-6,2h59v-2H8z"/>
<path fill="#99A8AE" d="M15.999,43C9.928,42.997,5.003,47.917,5,53.989C5,53.992,5,53.996,5,54h22C27,47.92,22.078,43,15.999,43z"/>
<path fill="#99A8AE" d="M61,56c0.55,0,1-0.45,1-1v-4c0-0.55-0.45-1-1-1H2v5c0,0.55,0.45,1,1,1H61z"/>
<path fill="#4E5E67" d="M24.77,56c0.146-0.645,0.23-1.313,0.23-2c0-4.975-4.025-9-9.002-9C11.031,44.998,7.002,49.023,7,53.99
	c0,0.003,0,0.006,0,0.01c0,0.688,0.084,1.355,0.23,2H24.77z"/>
<path fill="#99A8AE" d="M49.998,43C43.92,43,39,47.92,39,54h22C61,47.92,56.078,43,49.998,43z"/>
<path fill="#282433" d="M8.001,54c0,4.42,3.578,8,7.998,8c4.417,0.002,7.999-3.578,8.001-7.995c0-0.001,0-0.003,0-0.005
	c0-4.422-3.58-8-8.001-8c-4.415-0.002-7.997,3.576-7.998,7.992C8.001,53.994,8.001,53.997,8.001,54z"/>
<path fill="#FAFAFA" d="M11,54c0.039,2.762,2.309,4.968,5.07,4.929c2.706-0.038,4.891-2.223,4.929-4.929c0-2.762-2.238-5-4.999-5
	C13.238,49,11,51.238,11,54z"/>
<path fill="#AFBBC1" d="M12.001,54.001c0,2.209,1.791,4,4.001,4C18.211,58,20.001,56.209,20.001,54c0,0,0-0.001,0-0.002
	C20,51.789,18.209,49.998,16,50C13.791,50,12,51.792,12.001,54.001z"/>
<path fill="#71858C" d="M14.001,54.001C14,55.105,14.896,56.002,16,56.002c1.105,0,2-0.895,2.001-2c0,0,0-0.001,0-0.002
	c0-1.105-0.896-2-2.001-2C14.896,52,14,52.895,14.001,54.001L14.001,54.001z"/>
<path fill="#4E5E67" d="M58.77,56c0.146-0.645,0.23-1.313,0.23-2c0-4.975-4.025-9-9.002-9c-4.967-0.002-8.996,4.023-8.998,8.99
	c0,0.003,0,0.006,0,0.01c0,0.688,0.084,1.355,0.23,2H58.77z"/>
<path fill="#282433" d="M15.001,54.001c-0.018,0.552,0.416,1.014,0.968,1.031c0.553,0.018,1.014-0.416,1.031-0.968
	c0-0.021,0-0.043,0-0.063c0-0.552-0.447-1-1-1.001C15.448,53,15,53.447,15.001,54.001L15.001,54.001z M42,54c0,4.42,3.578,8,7.998,8
	c4.416,0.003,7.999-3.575,8.002-7.992c0-0.002,0-0.005,0-0.008c0-4.422-3.578-8-8.002-8c-4.416-0.002-7.996,3.576-7.998,7.992
	C42,53.994,42,53.997,42,54z"/>
<path fill="#FAFAFA" d="M45,54c0,2.761,2.237,4.998,4.998,4.999C52.76,59,54.999,56.763,55,54.001
	c0.001-2.761-2.236-5.001-4.998-5.002S45.001,51.235,45,53.997C45,53.998,45,53.999,45,54z"/>
<path fill="#AFBBC1" d="M46,54.001c0.049,2.209,1.881,3.96,4.09,3.911c2.139-0.049,3.862-1.771,3.91-3.911
	C54,51.791,52.209,50,50,50C47.793,50,46,51.794,46,54.001z"/>
<path fill="#71858C" d="M48,54.001C48,55.105,48.896,56,50.001,56S52,55.104,52,53.999l0,0C52,52.895,51.104,52,49.999,52
	S48,52.896,48,54.001z"/>
<path fill="#282433" d="M49,54.001C49,54.553,49.449,55,50.001,55S51,54.551,51,53.999l0,0c0-0.552-0.448-1-1-0.999
	C49.447,53,49,53.447,49,54.001L49,54.001z"/>
<path fill="#0FB4D4" d="M51,20h8v14h-8V20z M41,20h8v14h-8V20z M27,20h12v14H27V20z M18,20l-7,12v2h14V20H18z"/>
<path fill="#FFFFFF" d="M4,41v4c1.402,0,2-1.188,2-2C6,42.094,5.402,41,4,41z"/>
<path fill="#006DAE" d="M23.758,30.971L23,34h2v-4C24.45,30,23.893,30.438,23.758,30.971z M57.758,30.971L57,34h2v-4
	C58.45,30,57.891,30.438,57.758,30.971z M47.758,30.971L47,34h2v-4C48.45,30,47.891,30.438,47.758,30.971z M37.758,30.971L37,34h2
	v-4C38.45,30,37.891,30.438,37.758,30.971z"/>
<path fill="#E81C27" d="M59,42v2l2,2v-4H59z"/>
<path fill="#EA8800" d="M59,40v2h2v-4L59,40z"/>
<path fill="#99A8AE" d="M3,41h1v4H3V41z"/>
<polygon opacity="0.5" fill="#FFFFFF" points="27,34 39,24 39,20 27,30 "/>
<polygon opacity="0.5" fill="#FFFFFF" points="13,34 25,24 25,20 11,32 "/>
<polygon opacity="0.5" fill="#FFFFFF" points="41,33.5 49,26.5 49,21.5 41,28.5 "/>
<polygon opacity="0.5" fill="#FFFFFF" points="51,28.5 51,32.5 59,25.5 59,21.5 "/>
<path fill="#282433" d="M24,36h-2c-0.55,0-1,0.45-1,1s0.45,1,1,1h2c0.55,0,1-0.45,1-1S24.55,36,24,36z M12,30c-0.553,0-1,0.447-1,1
	v4c0,0.553,0.447,1,1,1h1v-6H12z"/>
</svg>
