<?xml version="1.0" encoding="utf-8"?>
<!-- Generator: Adobe Illustrator 15.0.0, SVG Export Plug-In . SVG Version: 6.00 Build 0)  -->
<!DOCTYPE svg PUBLIC "-//W3C//DTD SVG 1.1//EN" "http://www.w3.org/Graphics/SVG/1.1/DTD/svg11.dtd">
<svg version="1.1" id="Layer_1" xmlns="http://www.w3.org/2000/svg" xmlns:xlink="http://www.w3.org/1999/xlink" x="0px" y="0px"
	 width="64px" height="64px" viewBox="0 0 64 64" enable-background="new 0 0 64 64" xml:space="preserve">
<path fill="#E6EBEF" d="M23,55V26c0-0.55-0.45-1-1-1H8c-0.55,0-1.124,0.434-1.275,0.961c0,0-0.109,0.387-0.291,1.039L6.5,32
	l-2.984,7C3.516,39,3,41.167,3,43v12H23z"/>
<path fill="#CFD8DD" d="M3,43v12h20V43H3z"/>
<path fill="#99A8AE" d="M7,51H3c-0.55,0-1,0.45-1,1v2c0,0.55,0.45,1,1,1h4V51z"/>
<path fill="#0FB4D4" d="M7,27H6.434L3.516,39H4.5c0.55,0,1.092-0.439,1.204-0.979l2.092-10.043C7.908,27.439,7.55,27,7,27z M20,39
	c0.55,0,1-0.45,1-1V28c0-0.55-0.45-1-1-1h-9c-0.55,0-1.092,0.439-1.204,0.979L7.704,38.021C7.592,38.561,7.95,39,8.5,39H20z"/>
<path fill="#F9B700" d="M60,18H24c-0.55,0-1,0.45-1,1v32h38V19C61,18.45,60.55,18,60,18z"/>
<path fill="#FFE12C" d="M25,20h34v29H25V20z"/>
<path fill="#99A8AE" d="M23,51v4h38c0.55,0,1-0.45,1-1v-2c0-0.55-0.45-1-1-1H23z"/>
<path fill="#CFD8DD" d="M38,50H28c-0.55,0-1,0.45-1,1v4c0,0.55,0.45,1,1,1h10c0.55,0,1-0.45,1-1v-4C39,50.45,38.55,50,38,50z"/>
<path fill="#99A8AE" d="M29,50h1v6h-1V50z M36,50h1v6h-1V50z M17,42c0,0.551,0.298,1,0.666,1h2.668C20.703,43,21,42.551,21,42
	s-0.298-1-0.666-1h-2.668C17.298,41,17,41.449,17,42z"/>
<path fill="#6E8189" d="M59,55c0-4.422-3.578-8-8.002-8c-4.416-0.002-7.996,3.576-7.998,7.992c0,0.002,0,0.005,0,0.008H59z"/>
<path fill="#282433" d="M44,55c0,3.867,3.131,7,6.998,7c3.865,0.002,7-3.129,7.002-6.994c0-0.002,0-0.004,0-0.006
	c0-3.869-3.131-7-7.002-7c-3.863-0.001-6.997,3.131-6.998,6.994C44,54.996,44,54.998,44,55z"/>
<path fill="#FAFAFA" d="M46.625,55c0,2.416,1.959,4.375,4.375,4.375c2.417-0.001,4.375-1.96,4.375-4.376S53.416,50.624,51,50.625
	C48.583,50.625,46.625,52.584,46.625,55L46.625,55z"/>
<path fill="#6E8189" d="M13.998,47C9.582,46.998,6.002,50.576,6,54.992C6,54.994,6,54.997,6,55h16C22,50.578,18.422,47,13.998,47z"
	/>
<path fill="#AFBBC1" d="M47.5,55.001c0,1.933,1.568,3.499,3.501,3.499s3.499-1.568,3.499-3.501l0,0c0-1.933-1.568-3.499-3.501-3.499
	S47.5,53.068,47.5,55.001z"/>
<path fill="#71858C" d="M49.25,55.001c0.001,0.967,0.785,1.749,1.752,1.749c0.966-0.002,1.749-0.785,1.748-1.752
	s-0.785-1.75-1.752-1.748C50.032,53.25,49.249,54.035,49.25,55.001z"/>
<path fill="#282433" d="M50.125,55.001c0,0.483,0.393,0.874,0.876,0.874s0.874-0.393,0.874-0.876s-0.393-0.874-0.876-0.874
	S50.125,54.518,50.125,55.001z M7,55c0,3.867,3.131,7,6.998,7c3.865,0.002,7-3.129,7.002-6.994c0-0.002,0-0.004,0-0.006
	c0-3.869-3.131-7-7.002-7C10.135,47.999,7.001,51.131,7,54.994C7,54.996,7,54.998,7,55z"/>
<path fill="#FAFAFA" d="M9.625,55c0,2.416,1.959,4.375,4.375,4.375c2.417-0.001,4.375-1.96,4.375-4.376S16.416,50.624,14,50.625
	C11.583,50.625,9.625,52.584,9.625,55L9.625,55z"/>
<path fill="#AFBBC1" d="M10.5,55.001c0,1.933,1.568,3.499,3.501,3.499s3.499-1.568,3.499-3.501l0,0c0-1.933-1.568-3.499-3.501-3.499
	S10.5,53.068,10.5,55.001z"/>
<path fill="#71858C" d="M12.25,55.001c0.001,0.967,0.785,1.749,1.752,1.749c0.966-0.002,1.749-0.785,1.748-1.752
	s-0.785-1.75-1.752-1.748C13.032,53.25,12.249,54.035,12.25,55.001z"/>
<path fill="#282433" d="M13.125,55.001c0,0.483,0.393,0.874,0.876,0.874s0.874-0.393,0.874-0.876s-0.393-0.874-0.876-0.874
	S13.125,54.518,13.125,55.001z"/>
<path fill="#E6EBEF" d="M3,45h1v4H3V45z"/>
<path fill="#FFFFFF" d="M4,45v4h1l1-1v-3H4z"/>
<path fill="#006DAE" d="M17.758,35.971L17,39h3c0.55,0,1-0.45,1-1v-3h-2C18.45,35,17.893,35.438,17.758,35.971z"/>
<path fill="#CFD8DD" d="M22,25v30h1V26C23,25.45,22.55,25,22,25z"/>
<path opacity="0.5" fill="#FFFFFF" d="M5.915,29.073l-0.894,3.674l2.111-1.659l0.647-3.109L5.915,29.073z M20.984,30.167V28
	c0-0.55-0.45-1-1-1L8.318,34.998l-0.63,3.023C7.576,38.561,7.935,39,8.484,39L20.984,30.167z"/>
</svg>
