<?xml version="1.0" encoding="utf-8"?>
<!-- Generator: Adobe Illustrator 15.0.0, SVG Export Plug-In . SVG Version: 6.00 Build 0)  -->
<!DOCTYPE svg PUBLIC "-//W3C//DTD SVG 1.1//EN" "http://www.w3.org/Graphics/SVG/1.1/DTD/svg11.dtd">
<svg version="1.1" id="Layer_1" xmlns="http://www.w3.org/2000/svg" xmlns:xlink="http://www.w3.org/1999/xlink" x="0px" y="0px"
	 width="64px" height="64px" viewBox="0 0 64 64" enable-background="new 0 0 64 64" xml:space="preserve">
<path fill="#E81C27" d="M32,2C15.432,2,2,15.432,2,32c0,16.566,13.432,30,30,30s30-13.434,30-30C62,15.432,48.568,2,32,2z M54,32
	c0,4.629-1.434,8.922-3.877,12.467l-30.59-30.592C23.076,11.432,27.369,10,32,10C44.15,10,54,19.85,54,32z M10,32
	c0-4.629,1.434-8.924,3.875-12.469l30.592,30.592C40.924,52.566,36.629,54,32,54C19.85,54,10,44.148,10,32z"/>
</svg>
