<?xml version="1.0" encoding="utf-8"?>
<!-- Generator: Adobe Illustrator 16.2.0, SVG Export Plug-In . SVG Version: 6.00 Build 0)  -->
<!DOCTYPE svg PUBLIC "-//W3C//DTD SVG 1.1//EN" "http://www.w3.org/Graphics/SVG/1.1/DTD/svg11.dtd">
<svg version="1.1" id="Layer_1" xmlns="http://www.w3.org/2000/svg" xmlns:xlink="http://www.w3.org/1999/xlink" x="0px" y="0px"
	 width="64px" height="64px" viewBox="0 0 64 64" enable-background="new 0 0 64 64" xml:space="preserve">
<path fill="#EA8800" d="M62,47"/>
<g>
	<path fill="#0FB4D4" d="M30,39.568L34,36c0,0,8.25,4.207,12,11.775L30,39.568z"/>
	<path opacity="0.5" fill="#FFFFFF" enable-background="new    " d="M40.034,40.26c-1.45-1.281-2.851-2.295-3.935-3.005
		c-0.595,1.781-2.146,3.104-4.054,3.365l3.065,1.573C36.447,41.046,38.604,40.26,40.034,40.26z"/>
	<path fill="#E03636" d="M61,55c0,0-30.325-5.514-59-17c0,0,5.5,24,38,24c15.5,0,21-2,21-2s1-2.587,1-3C62,56.038,61,55,61,55z"/>
	<path fill="#E6EBEF" d="M14.5,44.109c0,0-1.5,6.563,15.275,10.893c8.936,2.146,17.969,2.915,17.969,2.915l-4.323-5.667
		C43.421,52.25,25.038,48.834,14.5,44.109z"/>
	<path fill="#C21413" d="M2,38c0,0,16,13.324,59,17L2,38z"/>
	<path fill="#C21413" d="M62,57c0,0-28,2.156-44-7c0,0,10.563,10,43,10C61,60,62,58.225,62,57z"/>
	<path fill="#E6EBEF" d="M2,38c0,0,16,0,28,1.568c0,0,14.667,7.441,28,12.166c0,0,2.083,2.291,3,3.269C61,55,21.75,49.055,2,38z"/>
	<polygon fill="#BEC3CF" points="27,41 18,40 34,44 	"/>
	<path fill="#BEC3CF" d="M61,55c0,0-35.167-9.557-43-13c0,0,21.5,6.5,40,9.732L61,55z"/>
	<polygon fill="#FFFFFF" points="27,41 25.55,41.889 34,44 	"/>
</g>
</svg>
