<?xml version="1.0" encoding="utf-8"?>
<!-- Generator: Adobe Illustrator 16.2.0, SVG Export Plug-In . SVG Version: 6.00 Build 0)  -->
<!DOCTYPE svg PUBLIC "-//W3C//DTD SVG 1.1//EN" "http://www.w3.org/Graphics/SVG/1.1/DTD/svg11.dtd">
<svg version="1.1" id="Layer_1" xmlns="http://www.w3.org/2000/svg" xmlns:xlink="http://www.w3.org/1999/xlink" x="0px" y="0px"
	 width="64px" height="64px" viewBox="0 0 64 64" enable-background="new 0 0 64 64" xml:space="preserve">
<path fill="#302C3B" d="M9,53.305v4.347C9,60.053,19.297,62,32,62s23-1.947,23-4.347v-4.347L9,53.305L9,53.305z"/>
<path fill="#4E5E67" d="M12.353,53.305v4.347C12.353,60.053,21.148,62,32,62c10.853,0,19.647-1.947,19.647-4.347v-4.347
	L12.353,53.305L12.353,53.305z"/>
<polygon fill="#E03636" points="55,53.305 9,53.305 14.03,27.476 49.968,27.476 "/>
<ellipse fill="#B00505" cx="32" cy="53.304" rx="23" ry="4.347"/>
<path opacity="0.3" fill="#F6BEC1" enable-background="new    " d="M51.6,52.953l-4.25-25.39H16.65l-4.249,25.39
	c-0.03,0.095-0.049,0.191-0.049,0.289c0,2.387,8.795,4.321,19.647,4.321c10.853,0,19.647-1.937,19.647-4.321
	C51.647,53.145,51.628,53.048,51.6,52.953z"/>
<path fill="#E03636" d="M32,24c9.994,0,18.097,1.556,18.097,4.108c0,2.553-8.103,4.622-18.097,4.622
	c-9.995,0-18.097-2.069-18.097-4.622C13.903,25.556,22.005,24,32,24z"/>
<g opacity="0.5">
	<path fill="#B00505" d="M17,29c-0.014-0.7,0.649-1.184,1.198-1.521c0.582-0.35,1.208-0.615,1.843-0.847
		c1.279-0.435,2.597-0.734,3.921-0.975c2.656-0.478,5.346-0.64,8.041-0.658c2.683,0.018,5.383,0.18,8.033,0.656
		c1.324,0.242,2.642,0.541,3.924,0.975c0.635,0.231,1.261,0.499,1.843,0.848C46.352,27.814,47.01,28.299,47,29
		c-0.107-0.673-0.768-1.013-1.326-1.291c-0.594-0.271-1.224-0.459-1.861-0.614c-1.271-0.329-2.579-0.54-3.892-0.685
		c-2.63-0.292-5.271-0.426-7.925-0.419c-2.64-0.007-5.292,0.126-7.918,0.417c-1.312,0.146-2.618,0.356-3.891,0.686
		c-0.64,0.155-1.271,0.344-1.862,0.614C17.767,27.987,17.104,28.327,17,29z"/>
</g>
<g>
	<ellipse opacity="0.3" fill="#F6BEC1" enable-background="new    " cx="32" cy="41" rx="13" ry="13"/>
	<polygon fill="#FDE0DA" points="44,41 36.581,39.145 40.666,32.333 33.855,36.42 32,29 30.145,36.422 23.333,32.333 27.42,39.146 
		20,41 27.42,42.855 23.333,49.667 30.145,45.58 32,53 33.855,45.58 40.666,49.667 36.581,42.856 	"/>
</g>
<path fill="#E03636" d="M14,22c0,0-16.094-6.018-11.006-11.094C7.816,6.096,14,22,14,22z"/>
<path fill="#E03636" d="M50,22c0,0,16.094-6.018,11.006-11.094C56.184,6.096,50,22,50,22z"/>
<path fill="#E03636" d="M21.711,2c-3.702,0-4.971,6,5.188,18C26.898,20,28.17,2,21.711,2z"/>
<path fill="#E03636" d="M42.289,2c3.702,0,4.971,6-5.188,18C37.102,20,35.83,2,42.289,2z"/>
</svg>
