<?xml version="1.0" encoding="utf-8"?>
<!-- Generator: Adobe Illustrator 16.2.0, SVG Export Plug-In . SVG Version: 6.00 Build 0)  -->
<!DOCTYPE svg PUBLIC "-//W3C//DTD SVG 1.1//EN" "http://www.w3.org/Graphics/SVG/1.1/DTD/svg11.dtd">
<svg version="1.1" id="Layer_1" xmlns="http://www.w3.org/2000/svg" xmlns:xlink="http://www.w3.org/1999/xlink" x="0px" y="0px"
	 width="64px" height="64px" viewBox="0 0 64 64" enable-background="new 0 0 64 64" xml:space="preserve">
<path fill="#302C3B" d="M4,46c-1.1,0-2-0.9-2-2V20c0-1.1,0.9-2,2-2h56c1.1,0,2,0.9,2,2v24c0,1.1-0.9,2-2,2H4z"/>
<circle fill="#E03636" cx="12" cy="32" r="7"/>
<path fill="#F46C60" d="M14.98,32.917l2.677,1.911L15.637,32l2.021-2.829l-2.676,1.911l-0.859-1.204l-1.204-0.86l1.911-2.675
	L12,28.363l-2.829-2.02l1.911,2.675l-1.204,0.86l-0.86,1.204l-2.675-1.911L8.364,32l-2.02,2.829l2.675-1.911l0.86,1.204l1.204,0.86
	l-1.911,2.675L12,35.637l2.829,2.021l-1.911-2.675l1.204-0.86L14.98,32.917z M11.293,32.707L10.303,32l0.99-0.707L12,30.303
	l0.707,0.99L13.697,32l-0.99,0.707L12,33.697L11.293,32.707z"/>
<path fill="#C21413" d="M12,28c2.57,0,4.928,0.889,6.8,2.365C18.063,27.289,15.301,25,12,25c-3.302,0-6.063,2.29-6.8,5.366
	C7.072,28.889,9.431,28,12,28z"/>
<circle fill="#92C932" cx="52" cy="32" r="7"/>
<circle fill="#F9C802" cx="32" cy="32" r="7"/>
<path fill="#93E67F" d="M54.98,32.918l2.677,1.91L55.637,32l2.021-2.828l-2.676,1.91l-0.859-1.203l-1.204-0.859l1.911-2.676
	L52,28.363l-2.829-2.021l1.911,2.675l-1.204,0.86l-0.86,1.203l-2.675-1.91L48.363,32l-2.02,2.828l2.676-1.91l0.859,1.203
	l1.204,0.859l-1.911,2.676L52,35.637l2.829,2.021l-1.911-2.675l1.204-0.86L54.98,32.918z M51.293,32.707L50.303,32l0.99-0.707
	L52,30.303l0.707,0.99L53.697,32l-0.99,0.707L52,33.697L51.293,32.707z"/>
<path fill="#FFE12C" d="M34.98,32.918l2.677,1.91L35.637,32l2.021-2.829l-2.676,1.911l-0.859-1.204l-1.204-0.86l1.911-2.675
	L32,28.363l-2.829-2.02l1.911,2.675l-1.204,0.86l-0.86,1.204l-2.675-1.911L28.364,32l-2.02,2.828l2.675-1.91l0.86,1.203l1.204,0.859
	l-1.911,2.676L32,35.637l2.829,2.021l-1.911-2.675l1.204-0.86L34.98,32.918z M31.293,32.707L30.303,32l0.99-0.707L32,30.303
	l0.707,0.99L33.697,32l-0.99,0.707L32,33.697L31.293,32.707z"/>
<path fill="#4E5E67" d="M5.884,28.524c2.934-4.674,9.302-4.678,12.232,0.001c0.692,1.106,2.418,0.081,1.721-1.034
	c-3.753-5.99-11.918-5.986-15.674-0.001C3.464,28.604,5.19,29.629,5.884,28.524L5.884,28.524z"/>
<path fill="#F59E01" d="M32,28c2.57,0,4.928,0.889,6.8,2.365C38.063,27.289,35.301,25,32,25c-3.302,0-6.063,2.29-6.8,5.366
	C27.072,28.889,29.431,28,32,28z"/>
<path fill="#529320" d="M52,28c2.57,0,4.928,0.889,6.8,2.365C58.063,27.289,55.301,25,52,25c-3.302,0-6.063,2.29-6.8,5.366
	C47.072,28.889,49.432,28,52,28z"/>
<path fill="#4E5E67" d="M25.884,28.524c2.934-4.674,9.302-4.678,12.232,0.001c0.692,1.106,2.418,0.081,1.721-1.034
	c-3.753-5.99-11.918-5.986-15.674-0.001C23.464,28.604,25.19,29.629,25.884,28.524L25.884,28.524z"/>
<path fill="#4E5E67" d="M45.884,28.523c2.935-4.674,9.302-4.678,12.232,0.002c0.692,1.104,2.418,0.08,1.721-1.034
	c-3.753-5.99-11.918-5.985-15.674-0.001C43.464,28.604,45.189,29.629,45.884,28.523L45.884,28.523z"/>
</svg>
