<?xml version="1.0" encoding="utf-8"?>
<!-- Generator: Adobe Illustrator 15.0.0, SVG Export Plug-In . SVG Version: 6.00 Build 0)  -->
<!DOCTYPE svg PUBLIC "-//W3C//DTD SVG 1.1//EN" "http://www.w3.org/Graphics/SVG/1.1/DTD/svg11.dtd">
<svg version="1.1" id="Layer_1" xmlns="http://www.w3.org/2000/svg" xmlns:xlink="http://www.w3.org/1999/xlink" x="0px" y="0px"
	 width="64px" height="64px" viewBox="0 0 64 64" enable-background="new 0 0 64 64" xml:space="preserve">
<path fill="#EA8800" d="M13.073,18.21c1.467-0.399,2.795-6.205,2.075-8.682c-1.738-5.98,4.503-9.121,8.076-6.372l-1.865,2.816
	C18.157,2.992,20.767,18.907,13.073,18.21z"/>
<path fill="#EA8800" d="M12.674,15.72c3.949-1.464,0.629-7.286,3.159-10.994C18.583,8.288,17.714,16.552,12.674,15.72z"/>
<path fill="#EA8800" d="M18.404,14.809c1.472-1.561-2.438-8.629,1.809-9.234C18.677,8.185,21.347,13.115,18.404,14.809z"/>
<path fill="#8E3ED6" d="M24.048,3.217c0.922,1.078-0.548,4.25-2.761,3.57C19.472,6.232,22.831,1.784,24.048,3.217z"/>
<path fill="#FDCA47" d="M23.317,12.677c0,0,0.531,4.932-0.849,8.137C29.723,26.629,29.823,13.217,23.317,12.677z"/>
<path fill="#E6A400" d="M31.3,21.039c-4.451-3.06-4.634,9.895-5.664-6.315L31.3,21.039z"/>
<path fill="#FDCA47" d="M30.756,2.988c7.207,1.761,7.126,6.021,5.757,8.758c-0.726,1.452-0.308,2.779,0.56,4.11
	c0.533,0.82-0.231,1.471-1.569,1.144c-0.278,0.579,0.023,0.853,0.023,0.853s-1.161,0.453-1.008,0.74
	c0.309,0.076,0.601,0.87-0.213,1.004c-0.707,0.117,0.301,2.022-2.26,1.639c-1.948-0.292-3.967-1.506-5.401-3.583
	c-0.869-1.256-1.093-3.47-1.093-3.47C21.903,12.62,18.51,6.033,30.756,2.988z"/>
<path fill="#E6A400" d="M26.911,11.626c0.3-1.036-0.292-2.177-1.145-2.422c0,0,1.109,1.647,0.254,3.206
	C26.02,12.41,26.703,12.348,26.911,11.626z"/>
<path fill="#EA8800" d="M37.159,7.953c-3.071,2.831-6.781,0.327-9.355,3.068c-0.231-1.878-2.115-3.298-3.155-1.861
	c-1.229,1.7-0.735,4.463,0.919,4.642c-0.329,0.577-2.153,2.078-2.153,2.078c-3.659-1.416-4.201-10.375,1.411-13.113
	C30.733-0.116,39.366,5.921,37.159,7.953z"/>
<path fill-rule="evenodd" clip-rule="evenodd" fill="#E6A400" d="M35.98,11.559c0.787-2.083-2.096-1.477-3.064-1.517
	C33.65,10.435,35.678,10.21,35.98,11.559z"/>
<path fill="#F5BC2C" d="M32.536,17.122c0.456,1.417,1.167,2.168,1.643,2.526c0.923-0.053,0.739-1.031,0.342-1.128
	C34.213,18.445,33.727,17.99,32.536,17.122z"/>
<path fill="#E6A400" d="M32.536,17.122c0.538,0.93,1.983,1.471,1.983,1.471c0.236-0.016,0.847-0.08,1.008-0.74
	C35.02,18.085,33.523,17.828,32.536,17.122z"/>
<path fill="#FFFFFF" d="M33.006,11.612c-0.274,2.016,0.998,2.149,1.293,2.221C34.725,13.696,36.662,10.722,33.006,11.612z"/>
<path fill="#45332C" d="M35.203,12.623c-0.615,1.457-1.395,1.559-0.911-0.435C34.646,10.725,35.697,11.451,35.203,12.623z"/>
<path fill-rule="evenodd" clip-rule="evenodd" fill="#45332C" d="M35.329,12.204c0.142-1.505-1.666-0.888-2.463-0.602
	C33.967,11.696,34.813,11.407,35.329,12.204z"/>
<path fill="#8E3ED6" d="M12.018,37.457c0,0,8.24,2.053,11.598,1.32c0.407-2.49,0.745-7.271,1.464-7.156
	c1.045,0.167,5.325-1.176,2.734-8.342c-0.938-2.595-4.756-4.611-4.756-4.611C17.621,22.855,14.477,30.223,12.018,37.457z"/>
<path fill="#018BC9" d="M62,43.348c-31.966,5.164-32.531-3.666-60,1.143V62h60V43.348z"/>
<path fill="#B00505" d="M14.952,48.719L61,36h1v-2H5.342L5,33H2C3.333,41.313,10.249,47.289,14.952,48.719z"/>
<path fill="#F46C60" d="M14.952,48.719h44.365L61,36H6C9.313,45.252,14.952,48.719,14.952,48.719z"/>
<path fill="#E03636" d="M60.377,40.701c0,0.666-52.271,0.666-52.271,0C8.106,40.033,60.377,40.033,60.377,40.701z"/>
<path fill="#E03636" d="M59.848,44.709c0,0.666-49.08,0.666-49.08,0S59.848,44.043,59.848,44.709z"/>
<path fill="#0FB4D4" d="M62,62H2V47.523c27.467-4.914,28.033,4.107,60-1.166V62z"/>
<path opacity="0.3" fill="#302C3B" d="M39.752,34l-9.654,10.193c-1.06-0.645-2.25-0.811-3.068,0.008
	c-1.824,1.822-7.434,6.316-9.258,8.143l9.842,1.725c1.826-1.826,2.479-3.156,4.305-4.98c0.836-0.838,0.64-2.064-0.041-3.143
	l9.542-11.506L39.752,34z"/>
<path fill="#AB7044" d="M45.498,23.908c-1.26,1.262-1.4,2.705-0.906,3.846L29.098,43.193c-1.06-0.645-2.25-0.811-3.068,0.008
	c-1.824,1.822-7.434,6.316-9.258,8.143l9.842,1.725c1.826-1.826,2.479-3.156,4.305-4.98c0.836-0.838,0.64-2.064-0.041-3.143
	l15.478-15.424c1.143,0.498,2.588,0.361,3.852-0.904C51.521,27.303,46.814,22.594,45.498,23.908z"/>
<path fill="#75D6FF" d="M2,50.096c18.584-1.008,25.82,6.471,60,2.914V62H2V50.096z"/>
<path fill="#FDCA47" d="M42.072,30.279l0.676-0.676c-0.805-0.754-1.287,0.184-2.873,1.197c0,0-5.906-0.559-9.75-3.32l-1.803,3.225
	c4.5,2.742,10.421,2.758,10.421,2.758c0.477,0.443,2.623,1.221,3.264,0.902c1.717-0.859,1.357-1.219,2.318-2.043
	C45.389,31.412,42.293,31.063,42.072,30.279z"/>
<path fill="#5D1E96" d="M27.036,23.178c-0.701-1.145-2.469-1.018-3.463-0.082c-0.994,0.934-0.732,2.258-0.139,3.467
	c0.902,1.828,2.615,3.332,4.619,4.553l2.57-4.162C29.256,25.971,27.993,24.734,27.036,23.178z"/>
</svg>
