<?xml version="1.0" encoding="utf-8"?>
<!-- Generator: Adobe Illustrator 16.2.0, SVG Export Plug-In . SVG Version: 6.00 Build 0)  -->
<!DOCTYPE svg PUBLIC "-//W3C//DTD SVG 1.1//EN" "http://www.w3.org/Graphics/SVG/1.1/DTD/svg11.dtd">
<svg version="1.1" id="Layer_1" xmlns="http://www.w3.org/2000/svg" xmlns:xlink="http://www.w3.org/1999/xlink" x="0px" y="0px"
	 width="64px" height="64px" viewBox="0 0 64 64" enable-background="new 0 0 64 64" xml:space="preserve">
<path fill="#BEC3CF" d="M44,39v22c0,0.55,0.45,1,1,1h10c0.55,0,1-0.45,1-1V39H44z"/>
<rect x="44" y="40" fill="#6E8189" width="12" height="4"/>
<path fill="#BEC3CF" d="M8,39v22c0,0.55,0.45,1,1,1h10c0.55,0,1-0.45,1-1V39H8z"/>
<rect x="2" y="18" fill="#F9C802" width="60" height="22"/>
<polygon fill="#1A1626" points="18,18 2,34 2,40 6,40 28,18 "/>
<polygon fill="#1A1626" points="38,18 16,40 26,40 48,18 "/>
<polygon fill="#1A1626" points="62,18 58,18 36,40 46,40 62,24 "/>
<polygon fill="#1A1626" points="56,40 62,40 62,34 "/>
<polygon fill="#1A1626" points="8,18 2,18 2,24 "/>
<path fill="#BEC3CF" d="M22,10c0-4.419-3.581-8-8-8s-8,3.581-8,8c0,2.026,0.759,3.871,2,5.28V18h12v-2.72
	C21.241,13.871,22,12.026,22,10z"/>
<path fill="#BEC3CF" d="M58,10c0-4.419-3.581-8-8-8s-8,3.581-8,8c0,2.026,0.759,3.871,2,5.28V18h12v-2.72
	C57.241,13.871,58,12.026,58,10z"/>
<circle fill="#E81C27" cx="14" cy="10" r="6"/>
<path fill="#C21413" d="M14,14c-2.972,0-5.433-2.164-5.91-5C8.035,9.326,8,9.659,8,10c0,3.313,2.687,6,6,6s6-2.687,6-6
	c0-0.341-0.035-0.674-0.09-1C19.433,11.836,16.972,14,14,14z"/>
<circle fill="#E81C27" cx="50" cy="10" r="6"/>
<rect x="8" y="40" fill="#6E8189" width="12" height="4"/>
<path fill="#C21413" d="M50,14c-2.973,0-5.434-2.164-5.91-5C44.035,9.326,44,9.659,44,10c0,3.313,2.687,6,6,6s6-2.687,6-6
	c0-0.341-0.035-0.674-0.09-1C55.434,11.836,52.973,14,50,14z"/>
</svg>
