<?xml version="1.0" encoding="utf-8"?>
<!-- Generator: Adobe Illustrator 15.0.0, SVG Export Plug-In . SVG Version: 6.00 Build 0)  -->
<!DOCTYPE svg PUBLIC "-//W3C//DTD SVG 1.1//EN" "http://www.w3.org/Graphics/SVG/1.1/DTD/svg11.dtd">
<svg version="1.1" id="Layer_1" xmlns="http://www.w3.org/2000/svg" xmlns:xlink="http://www.w3.org/1999/xlink" x="0px" y="0px"
	 width="64px" height="64px" viewBox="0 0 64 64" enable-background="new 0 0 64 64" xml:space="preserve">
<path opacity="0.6" fill="#A6AEB0" d="M58.57,30.83C53.035,25.608,56.719,18,56.719,18S45.09,28.056,52.434,34.987
	C60.932,43.009,56.719,48,56.719,48S67.25,39.022,58.57,30.83z"/>
<path opacity="0.6" fill="#A6AEB0" d="M59.715,11.407C56.023,7.578,58.479,2,58.479,2s-7.752,7.374-2.857,12.458
	C61.287,20.338,58.479,24,58.479,24S65.498,17.414,59.715,11.407z"/>
<path fill="#F59E01" d="M6.594,36.058c-1.982-0.387-3.99,1.22-4.484,3.589c-0.492,2.367,0.713,4.603,2.695,4.991l16.343,5.546
	l1.949-9.252L6.594,36.058z"/>
<path fill="#99A8AE" d="M24.085,41.228L22,50.449c0,0-0.479-0.139-0.853-0.266c-1.99-0.676-3.151-2.795-2.616-5.376
	c0.537-2.581,2.582-4.274,4.565-3.876C23.449,41.002,24.085,41.228,24.085,41.228z"/>
<path fill="#E6EBEF" d="M24.085,41.228c-1.982-0.387-4.028,1.296-4.565,3.877c-0.535,2.581,0.632,4.987,2.616,5.376l30.782,10.746
	l2.139-10.244L24.085,41.228z"/>
<path fill="#302C3B" d="M55.324,61.705c0,0-0.865-0.18-2.406-0.479c-1.543-0.303-2.313-2.839-1.725-5.668
	c0.592-2.828,2.318-4.877,3.863-4.576c0.906,0.177,2.381,0.592,2.381,0.592L55.324,61.705z"/>
<path fill="#99A8AE" d="M58.156,61.914c-0.719,0.227-1.023-0.209-2.832-0.209c-1.547,0-2.268-2.803-1.686-5.601
	c0.584-2.796,2.266-4.72,3.799-4.53c1.432,0.176,0.869,0.795,2.641,1.139C61.271,52.945,59.938,61.355,58.156,61.914z"/>
<path fill="#4E5E67" d="M61.938,57.959c0.521,2.543-2.326,4.479-3.781,3.955c-1.338-0.482-1.045-0.595-1.365-3.167
	c-0.186-1.483,0.414-3.88,1.363-4.152c1.348-0.387,1.217-2.021,1.924-1.882C61.473,52.985,61.41,55.391,61.938,57.959z"/>
<polygon fill="#E03636" points="61.527,57.561 60.707,58.353 59.891,57.561 60.707,56.77 "/>
<polygon fill="#302C3B" points="59.438,60.435 58.619,61.227 57.803,60.435 58.619,59.643 "/>
<polygon fill="#E03636" points="58.893,57.561 58.072,58.353 57.258,57.561 58.072,56.77 "/>
<polygon fill="#302C3B" points="60.256,56.33 59.438,57.12 58.619,56.33 59.438,55.537 "/>
<polygon fill="#E03636" points="61.016,59.874 60.195,60.666 59.379,59.874 60.195,59.082 "/>
<polygon fill="#E03636" points="60.709,54.494 59.889,55.287 59.074,54.494 59.889,53.703 "/>
</svg>
