<?xml version="1.0" encoding="utf-8"?>
<!-- Generator: Adobe Illustrator 15.0.0, SVG Export Plug-In . SVG Version: 6.00 Build 0)  -->
<!DOCTYPE svg PUBLIC "-//W3C//DTD SVG 1.1//EN" "http://www.w3.org/Graphics/SVG/1.1/DTD/svg11.dtd">
<svg version="1.1" id="Layer_1" xmlns="http://www.w3.org/2000/svg" xmlns:xlink="http://www.w3.org/1999/xlink" x="0px" y="0px"
	 width="64px" height="64px" viewBox="0 0 64 64" enable-background="new 0 0 64 64" xml:space="preserve">
<path fill="#99A8AE" d="M30,8.525h4v12.047h-4V8.525z"/>
<path fill="#4E5E67" d="M31,9h2v10h-2V9z"/>
<path fill="#99A8AE" d="M39.438,10L24,6.868l0.563-3.021l3.377,0.686L30.915,2l3.856,0.784l2.092,3.559L40,6.979L39.438,10z"/>
<path fill="#302C3B" d="M62,16.055L2,4.008V2l60,12.046V16.055z"/>
<circle fill="#4E5E67" cx="24" cy="8" r="3"/>
<circle fill="#99A8AE" cx="24" cy="8" r="1"/>
<circle fill="#4E5E67" cx="39" cy="11" r="3"/>
<circle fill="#99A8AE" cx="39" cy="11" r="1"/>
<path fill="#4E5E67" d="M28,16h8v2h-8V16z"/>
<path fill="#F9C802" d="M9,22h46v30H9V22z"/>
<path fill="#FFE12C" d="M9,40h46v2H9V40z"/>
<path fill="#F59E01" d="M13,56h38c2.2,0,4-1.8,4-4H9C9,54.2,10.8,56,13,56z"/>
<path fill="#FFE12C" d="M51,18H13c-2.2,0-4,1.8-4,4h46C55,19.8,53.2,18,51,18z"/>
<path fill="#F59E01" d="M21,24h12v26H21V24z"/>
<path fill="#0FB4D4" d="M23,26h8v8h-8V26z M35,24h8v16h-8V24z M11,24h8v16h-8V24z M45,24h8v16h-8V24z"/>
<polygon opacity="0.5" fill="#FFFFFF" points="52.979,24 44.989,31.989 45,40 45.92,40 52.979,32.92 "/>
<polygon opacity="0.5" fill="#FFFFFF" points="43,25.184 35,33.184 35,38.302 43,30.302 "/>
<polygon opacity="0.5" fill="#FFFFFF" points="19,24.441 11,32.441 11,39.56 19,31.56 "/>
<polygon opacity="0.5" fill="#FFFFFF" points="31,26 23,34 26.591,34 31,29.591 "/>
</svg>
