<?xml version="1.0" encoding="utf-8"?>
<!-- Generator: Adobe Illustrator 15.0.0, SVG Export Plug-In . SVG Version: 6.00 Build 0)  -->
<!DOCTYPE svg PUBLIC "-//W3C//DTD SVG 1.1//EN" "http://www.w3.org/Graphics/SVG/1.1/DTD/svg11.dtd">
<svg version="1.1" id="Layer_1" xmlns="http://www.w3.org/2000/svg" xmlns:xlink="http://www.w3.org/1999/xlink" x="0px" y="0px"
	 width="64px" height="64px" viewBox="0 0 64 64" enable-background="new 0 0 64 64" xml:space="preserve">
<path fill="#B88A6F" d="M22.4,13.743c0,0,1.211,5.197-0.076,8.646C30.41,28.146,29.381,13.977,22.4,13.743z"/>
<path fill="#946346" d="M31.09,22.138c-4.932-2.997-3.695,10.701-5.734-6.33L31.09,22.138z"/>
<path fill="#B88A6F" d="M29.244,2.803c7.84,1.494,8.846,6.248,7.49,9.248c-0.678,1.5-0.156,2.964,0.795,4.318
	c0.906,1.287-0.637,1.706-1.496,1.542c-0.32,0.538-0.021,0.755-0.021,0.755s-1.223,0.551-1.043,0.851
	c0.336,0.063,0.508,0.738-0.164,0.924c-0.742,0.205,0.404,2.935-2.287,2.215c-2.18-0.583-5.492-2.729-5.959-3.323
	c-0.531-0.677-1.467-4.059-1.467-4.059C21.086,13.795,16.256,6.75,29.244,2.803z"/>
<path fill="#946346" d="M26.41,12.451c0.266-1.129-0.434-2.322-1.363-2.54c0,0,1.283,1.711,0.449,3.431
	C25.496,13.342,26.227,13.238,26.41,12.451z"/>
<path fill="#875B49" d="M37.193,8.996c-9.021-5.886-6.908,1.251-9.953,3.465c-0.193-3.167-2.322-4.192-3.395-2.533
	c-1.227,1.894-0.545,4.834,1.244,4.936c-0.322,0.638-2.199,2.352-2.199,2.352c-4.035-1.333-5.107-17.346,7.332-14.976
	C34.83,3.116,38.678,5.814,37.193,8.996z"/>
<path fill="#B07E61" d="M32.713,18.007c0.568,1.497,1.342,2.302,1.873,2.66c0.99-0.107,0.77-1.187,0.336-1.27
	C34.588,19.334,34.039,18.873,32.713,18.007z"/>
<path fill="#946346" d="M32.713,18.007c0.631,0.969,2.213,1.471,2.213,1.471c0.252-0.03,0.949-0.094,1.086-0.812
	C35.479,18.942,33.813,18.711,32.713,18.007z"/>
<path fill-rule="evenodd" clip-rule="evenodd" fill="#946346" d="M36.105,12.192c-0.244-0.69-1.201-0.607-3.668-1.095
	C34.281,10.474,36.664,10.492,36.105,12.192z"/>
<path fill="#FFFFFF" d="M32.912,12.414c-0.182,2.18,1.193,2.254,1.512,2.314C34.875,14.558,36.793,11.256,32.912,12.414z"/>
<path fill="#45332C" d="M35.33,13.378c-0.58,1.599-1.414,1.752-1.004-0.417C34.627,11.37,35.797,12.093,35.33,13.378z"/>
<path fill-rule="evenodd" clip-rule="evenodd" fill="#45332C" d="M35.441,12.921c0.068-1.624-1.838-0.86-2.68-0.511
	C33.949,12.45,34.842,12.094,35.441,12.921z"/>
<path fill="#92C932" d="M12.018,37.456c0,0,8.24,2.054,11.598,1.321c1.168-7.148,5.803-9.077,4.119-14.623
	c-0.801-2.641-4.842-4.558-4.842-4.558C17.455,23.783,14.477,30.223,12.018,37.456z"/>
<path fill="#018BC9" d="M62,43.348c-31.967,5.163-32.531-3.667-60,1.143V62h60V43.348z"/>
<path fill="#B00505" d="M14.951,48.718L61,36h1v-2H5.342L5,33H2C3.332,41.312,10.248,47.289,14.951,48.718z"/>
<path fill="#F46C60" d="M14.951,48.718h44.365L61,36H6C9.313,45.252,14.951,48.718,14.951,48.718z"/>
<path fill="#E03636" d="M60.377,40.7c0,0.667-52.271,0.667-52.271,0S60.377,40.033,60.377,40.7z"/>
<path fill="#E03636" d="M59.848,44.709c0,0.666-49.08,0.666-49.08,0S59.848,44.043,59.848,44.709z"/>
<path fill="#0FB4D4" d="M62,62H2V47.522c27.467-4.914,28.033,4.107,60-1.166V62z"/>
<path opacity="0.3" fill="#302C3B" d="M39.752,34l-9.654,10.192c-1.059-0.644-2.25-0.81-3.068,0.008
	c-1.824,1.823-7.434,6.317-9.258,8.143l9.842,1.725c1.826-1.825,2.479-3.156,4.305-4.98c0.836-0.837,0.641-2.063-0.041-3.142
	l9.543-11.506L39.752,34z"/>
<path fill="#AB7044" d="M45.498,23.908c-1.26,1.262-1.4,2.704-0.906,3.845L29.098,43.192c-1.059-0.644-2.25-0.81-3.068,0.008
	c-1.824,1.823-7.434,6.317-9.258,8.143l9.842,1.725c1.826-1.825,2.479-3.156,4.305-4.98c0.836-0.837,0.641-2.063-0.041-3.142
	l15.479-15.424c1.143,0.498,2.588,0.36,3.852-0.904C51.521,27.302,46.814,22.594,45.498,23.908z"/>
<path fill="#75D6FF" d="M2,50.095c18.584-1.008,25.82,6.471,60,2.914V62H2V50.095z"/>
<path fill="#B88A6F" d="M42.072,30.279l0.676-0.677c-0.805-0.754-1.287,0.184-2.873,1.198c0,0-5.906-0.56-9.75-3.321l-1.803,3.226
	c4.5,2.742,10.422,2.758,10.422,2.758c0.477,0.443,2.623,1.221,3.264,0.901c1.717-0.858,1.357-1.219,2.318-2.042
	C45.389,31.412,42.293,31.062,42.072,30.279z"/>
<path fill="#7AB51D" d="M27.035,23.177c-0.701-1.145-2.469-1.018-3.463-0.081c-0.994,0.934-0.732,2.258-0.139,3.466
	c0.902,1.828,2.615,3.333,4.619,4.553l2.57-4.162C29.256,25.97,27.992,24.734,27.035,23.177z"/>
</svg>
