<?xml version="1.0" encoding="utf-8"?>
<!-- Generator: Adobe Illustrator 15.0.0, SVG Export Plug-In . SVG Version: 6.00 Build 0)  -->
<!DOCTYPE svg PUBLIC "-//W3C//DTD SVG 1.1//EN" "http://www.w3.org/Graphics/SVG/1.1/DTD/svg11.dtd">
<svg version="1.1" id="Layer_1" xmlns="http://www.w3.org/2000/svg" xmlns:xlink="http://www.w3.org/1999/xlink" x="0px" y="0px"
	 width="64px" height="64px" viewBox="0 0 64 64" enable-background="new 0 0 64 64" xml:space="preserve">
<rect x="13" y="2" fill="#9E6C49" width="38" height="60"/>
<rect x="14" y="3" fill="#B47D56" width="36" height="59"/>
<polygon fill="#C4926E" points="46,58 18,58 26,45 46,37 "/>
<polygon fill="#785647" points="44,39 20,56 18,58 18,37 46,37 "/>
<rect x="20" y="39" fill="#9E6C49" width="24" height="17"/>
<polygon fill="#C4926E" points="46,27 18,27 26,15 46,6 "/>
<polygon fill="#785647" points="44,8 20,25 18,27 18,6 46,6 "/>
<rect x="20" y="8" fill="#9E6C49" width="24" height="17"/>
<rect x="15" y="28" fill="#FFE12C" width="5" height="8"/>
<rect x="15.5" y="28.5" fill="#F9B700" width="4" height="7"/>
<path fill="#D47706" d="M15.75,31.25c0,2.333,3.5,2.333,3.5,0S15.75,28.917,15.75,31.25z"/>
<path fill="#302C3B" d="M17,35.097l0.197-1.252c-0.117-0.085-0.191-0.222-0.191-0.376c0-0.26,0.209-0.469,0.467-0.469
	c0.26,0,0.469,0.209,0.469,0.469c0,0.154-0.076,0.291-0.191,0.376l0.195,1.252H17z"/>
<circle fill="#FFE12C" cx="17.5" cy="30.75" r="1.75"/>
<path fill-rule="evenodd" clip-rule="evenodd" fill="#FEEC9A" d="M16.07,30.39c0.055,0.376,0.76-0.361,1.475-0.995
	C18.006,28.987,15.91,29.256,16.07,30.39z"/>
<path fill="#F9C802" d="M16.42,32.126c0.168,0.038,0.34,0.061,0.518,0.061c1.115,0,2.045-0.789,2.264-1.839
	c0.031,0.129,0.049,0.264,0.049,0.402c0,0.967-0.783,1.75-1.75,1.75C17.092,32.5,16.719,32.359,16.42,32.126z"/>
</svg>
