<?xml version="1.0" encoding="utf-8"?>
<!-- Generator: Adobe Illustrator 16.2.0, SVG Export Plug-In . SVG Version: 6.00 Build 0)  -->
<!DOCTYPE svg PUBLIC "-//W3C//DTD SVG 1.1//EN" "http://www.w3.org/Graphics/SVG/1.1/DTD/svg11.dtd">
<svg version="1.1" id="Layer_1" xmlns="http://www.w3.org/2000/svg" xmlns:xlink="http://www.w3.org/1999/xlink" x="0px" y="0px"
	 width="64px" height="64px" viewBox="0 0 64 64" enable-background="new 0 0 64 64" xml:space="preserve">
<path fill="#302C3B" d="M46,60c0,1.1-0.9,2-2,2H20c-1.1,0-2-0.9-2-2V4c0-1.1,0.9-2,2-2h24c1.1,0,2,0.9,2,2V60z"/>
<circle fill="#E03636" cx="32" cy="13" r="7"/>
<path fill="#F46C60" d="M34.981,13.917l2.676,1.911L35.637,13l2.021-2.829l-2.676,1.911l-0.859-1.204l-1.204-0.86l1.911-2.675
	L32,9.363l-2.829-2.02l1.911,2.675l-1.204,0.86l-0.86,1.204l-2.675-1.911L28.364,13l-2.02,2.829l2.675-1.911l0.86,1.204l1.204,0.86
	l-1.911,2.675L32,16.637l2.829,2.02l-1.911-2.675l1.204-0.86L34.981,13.917z M31.293,13.707L30.303,13l0.99-0.707L32,11.303
	l0.707,0.99L33.697,13l-0.99,0.707L32,14.697L31.293,13.707z"/>
<path fill="#C21413" d="M32,9c2.57,0,4.928,0.889,6.8,2.365C38.063,8.289,35.301,6,32,6c-3.302,0-6.063,2.29-6.8,5.366
	C27.072,9.889,29.431,9,32,9z"/>
<circle fill="#92C932" cx="32" cy="51" r="7"/>
<circle fill="#F9C802" cx="32" cy="32" r="7"/>
<path fill="#93E67F" d="M34.981,51.918l2.676,1.91L35.637,51l2.021-2.828l-2.676,1.91l-0.859-1.203l-1.204-0.86l1.911-2.675
	L32,47.363l-2.829-2.02l1.911,2.675l-1.204,0.86l-0.86,1.203l-2.675-1.91L28.364,51l-2.02,2.828l2.675-1.91l0.86,1.203l1.204,0.86
	l-1.911,2.675L32,54.637l2.829,2.02l-1.911-2.675l1.204-0.86L34.981,51.918z M31.293,51.707L30.303,51l0.99-0.707L32,49.303
	l0.707,0.99L33.697,51l-0.99,0.707L32,52.697L31.293,51.707z"/>
<path fill="#FFE12C" d="M34.981,32.918l2.676,1.91L35.637,32l2.021-2.829l-2.676,1.911l-0.859-1.204l-1.204-0.86l1.911-2.675
	L32,28.363l-2.829-2.02l1.911,2.675l-1.204,0.86l-0.86,1.204l-2.675-1.911L28.364,32l-2.02,2.828l2.675-1.91l0.86,1.203l1.204,0.86
	l-1.911,2.675L32,35.637l2.829,2.02l-1.911-2.675l1.204-0.86L34.981,32.918z M31.293,32.707L30.303,32l0.99-0.707L32,30.303
	l0.707,0.99L33.697,32l-0.99,0.707L32,33.697L31.293,32.707z"/>
<path fill="#4E5E67" d="M25.884,9.524c2.934-4.674,9.301-4.678,12.232,0.001c0.692,1.106,2.418,0.081,1.721-1.034
	c-3.753-5.99-11.918-5.986-15.674-0.001C23.464,9.604,25.19,10.629,25.884,9.524L25.884,9.524z"/>
<path fill="#F59E01" d="M32,28c2.57,0,4.928,0.889,6.8,2.365C38.063,27.289,35.301,25,32,25c-3.302,0-6.063,2.29-6.8,5.366
	C27.072,28.889,29.431,28,32,28z"/>
<path fill="#529320" d="M32,47c2.57,0,4.928,0.889,6.8,2.365C38.063,46.289,35.301,44,32,44c-3.302,0-6.063,2.29-6.8,5.366
	C27.072,47.889,29.431,47,32,47z"/>
<path fill="#4E5E67" d="M25.884,28.524c2.934-4.674,9.301-4.678,12.232,0.001c0.692,1.106,2.418,0.081,1.721-1.034
	c-3.753-5.99-11.918-5.986-15.674-0.001C23.464,28.604,25.19,29.629,25.884,28.524L25.884,28.524z"/>
<path fill="#4E5E67" d="M25.884,47.523c2.934-4.674,9.301-4.678,12.232,0.002c0.692,1.105,2.418,0.08,1.721-1.034
	c-3.753-5.99-11.918-5.985-15.674-0.001C23.464,47.604,25.19,48.629,25.884,47.523L25.884,47.523z"/>
<polygon fill="#4E5E67" points="46,4 46,8 52,6 52,4 "/>
<polygon fill="#4E5E67" points="46,23 46,27 52,25 52,23 "/>
<polygon fill="#4E5E67" points="46,42 46,46 52,44 52,42 "/>
<polygon fill="#4E5E67" points="18,4 18,8 12,6 12,4 "/>
<polygon fill="#4E5E67" points="18,23 18,27 12,25 12,23 "/>
<polygon fill="#4E5E67" points="18,42 18,46 12,44 12,42 "/>
</svg>
