<?xml version="1.0" encoding="utf-8"?>
<!-- Generator: Adobe Illustrator 15.0.0, SVG Export Plug-In . SVG Version: 6.00 Build 0)  -->
<!DOCTYPE svg PUBLIC "-//W3C//DTD SVG 1.1//EN" "http://www.w3.org/Graphics/SVG/1.1/DTD/svg11.dtd">
<svg version="1.1" id="Layer_1" xmlns="http://www.w3.org/2000/svg" xmlns:xlink="http://www.w3.org/1999/xlink" x="0px" y="0px"
	 width="64px" height="64px" viewBox="0 0 64 64" enable-background="new 0 0 64 64" xml:space="preserve">
<path fill="#E81C27" d="M32,2C15.432,2,2,15.432,2,32s13.432,30,30,30s30-13.432,30-30S48.568,2,32,2z M32,56
	C18.744,56,8,45.256,8,32C8,18.746,18.744,8,32,8c13.254,0,24,10.746,24,24C56,45.256,45.254,56,32,56z"/>
<g>
	<path fill="#302C3B" d="M32.602,20.381h2.594c0.957,0,1.73-0.617,1.73-1.379v-3.439c0-0.762-0.773-1.379-1.73-1.379h-2.594
		c-0.957,0-1.73,0.617-1.73,1.379v3.439C30.871,19.764,31.645,20.381,32.602,20.381z"/>
</g>
<g>
	<path fill="#302C3B" d="M39.486,21.93H27.961c-0.816,0-1.479,0.521-1.479,1.162v5.811l-3.688,2.975v1.34l5.75-2.928l0.746-6.035
		v25.563h2.955l1.477-11.619l1.479,11.619h2.955V24.254l1.33,11.619h1.479V23.092C40.965,22.451,40.303,21.93,39.486,21.93z"/>
</g>
<rect x="19.924" y="34.23" fill="#302C3B" width="2.816" height="3.754"/>
<rect x="23.785" y="38.863" fill="#302C3B" width="2.814" height="3.756"/>
<rect x="19.162" y="43.146" fill="#302C3B" width="2.816" height="3.754"/>
<rect x="2.815" y="29" transform="matrix(-0.7071 -0.7071 0.7071 -0.7071 31.9989 77.2548)" fill="#E81C27" width="58.371" height="6.001"/>
</svg>
