<?xml version="1.0" encoding="utf-8"?>
<!-- Generator: Adobe Illustrator 15.0.0, SVG Export Plug-In . SVG Version: 6.00 Build 0)  -->
<!DOCTYPE svg PUBLIC "-//W3C//DTD SVG 1.1//EN" "http://www.w3.org/Graphics/SVG/1.1/DTD/svg11.dtd">
<svg version="1.1" id="Layer_1" xmlns="http://www.w3.org/2000/svg" xmlns:xlink="http://www.w3.org/1999/xlink" x="0px" y="0px"
	 width="64px" height="64px" viewBox="0 0 64 64" enable-background="new 0 0 64 64" xml:space="preserve">
<path fill="#614036" d="M13.072,18.21c1.467-0.399,2.795-6.205,2.076-8.682c-1.738-5.98,4.502-9.121,8.074-6.372l-1.865,2.816
	C18.156,2.992,20.768,18.907,13.072,18.21z"/>
<path fill="#614036" d="M12.674,15.719c3.949-1.464,0.629-7.286,3.16-10.994C18.584,8.287,17.715,16.552,12.674,15.719z"/>
<path fill="#614036" d="M18.404,14.809c1.471-1.561-2.438-8.629,1.809-9.234C18.676,8.184,21.346,13.114,18.404,14.809z"/>
<path fill="#8E3ED6" d="M24.049,3.216c0.922,1.078-0.549,4.25-2.762,3.57C19.471,6.232,22.83,1.784,24.049,3.216z"/>
<path fill="#916B50" d="M23.316,12.676c0,0,0.531,4.932-0.848,8.137C29.723,26.628,29.822,13.216,23.316,12.676z"/>
<path fill="#664935" d="M31.299,21.039c-4.451-3.06-4.633,9.895-5.664-6.315L31.299,21.039z"/>
<path fill="#916B50" d="M30.756,2.988c7.207,1.761,7.127,6.021,5.758,8.758c-0.727,1.452-0.309,2.779,0.559,4.11
	c0.533,0.82-0.23,1.471-1.568,1.144c-0.279,0.579,0.023,0.853,0.023,0.853s-1.162,0.453-1.008,0.74
	c0.309,0.076,0.6,0.87-0.213,1.004c-0.707,0.117,0.301,2.022-2.26,1.639c-1.949-0.292-3.967-1.506-5.402-3.583
	c-0.869-1.256-1.094-3.47-1.094-3.47C21.902,12.619,18.51,6.032,30.756,2.988z"/>
<path fill="#664935" d="M26.91,11.625c0.301-1.036-0.293-2.177-1.145-2.422c0,0,1.109,1.647,0.254,3.206
	C26.02,12.409,26.703,12.347,26.91,11.625z"/>
<path fill="#614036" d="M37.158,7.953c-3.07,2.831-6.781,0.327-9.354,3.068c-0.232-1.878-2.115-3.298-3.156-1.861
	c-1.229,1.7-0.734,4.463,0.92,4.642c-0.328,0.577-2.152,2.078-2.152,2.078c-3.66-1.416-4.201-10.375,1.41-13.113
	C30.732-0.117,39.365,5.921,37.158,7.953z"/>
<path fill-rule="evenodd" clip-rule="evenodd" fill="#664935" d="M35.98,11.559c0.787-2.083-2.096-1.477-3.064-1.517
	C33.65,10.434,35.678,10.21,35.98,11.559z"/>
<path fill="#75543D" d="M32.535,17.122c0.457,1.417,1.168,2.168,1.643,2.526c0.924-0.053,0.74-1.031,0.342-1.128
	C34.213,18.444,33.727,17.99,32.535,17.122z"/>
<path fill="#664935" d="M32.535,17.122c0.539,0.93,1.984,1.471,1.984,1.471c0.236-0.016,0.846-0.08,1.008-0.74
	C35.02,18.084,33.523,17.828,32.535,17.122z"/>
<path fill="#FFFFFF" d="M33.006,11.612c-0.273,2.016,0.998,2.149,1.293,2.221C34.725,13.695,36.662,10.722,33.006,11.612z"/>
<path fill="#45332C" d="M35.203,12.622c-0.615,1.457-1.395,1.559-0.912-0.435C34.646,10.725,35.697,11.451,35.203,12.622z"/>
<path fill-rule="evenodd" clip-rule="evenodd" fill="#45332C" d="M35.328,12.204c0.143-1.505-1.666-0.888-2.463-0.602
	C33.967,11.695,34.813,11.407,35.328,12.204z"/>
<path fill="#8E3ED6" d="M12.018,37.456c0,0,8.24,2.053,11.598,1.32c0.408-2.49,0.746-7.271,1.465-7.156
	c1.045,0.168,5.324-1.175,2.734-8.341c-0.938-2.595-4.756-4.611-4.756-4.611C17.621,22.855,14.477,30.222,12.018,37.456z"/>
<path fill="#018BC9" d="M62,43.347c-31.967,5.164-32.531-3.666-60,1.143v17.51h60V43.347z"/>
<path fill="#B00505" d="M14.951,48.718L61,35.999h1v-2H5.342l-0.342-1H2C3.332,41.312,10.248,47.288,14.951,48.718z"/>
<path fill="#F46C60" d="M14.951,48.718h44.365L61,35.999H6C9.313,45.251,14.951,48.718,14.951,48.718z"/>
<path fill="#E03636" d="M60.377,40.7c0,0.666-52.271,0.666-52.271,0C8.105,40.032,60.377,40.032,60.377,40.7z"/>
<path fill="#E03636" d="M59.848,44.708c0,0.666-49.08,0.666-49.08,0S59.848,44.042,59.848,44.708z"/>
<path fill="#0FB4D4" d="M62,61.999H2V47.522c27.467-4.914,28.033,4.107,60-1.166V61.999z"/>
<path opacity="0.3" fill="#302C3B" d="M39.752,33.999l-9.654,10.193c-1.059-0.645-2.25-0.811-3.068,0.008
	c-1.824,1.822-7.434,6.316-9.258,8.143l9.842,1.725c1.826-1.826,2.479-3.156,4.305-4.98c0.836-0.838,0.641-2.064-0.041-3.143
	l9.543-11.506L39.752,33.999z"/>
<path fill="#AB7044" d="M45.498,23.908c-1.26,1.262-1.4,2.705-0.906,3.846L29.098,43.192c-1.059-0.645-2.25-0.811-3.068,0.008
	c-1.824,1.822-7.434,6.316-9.258,8.143l9.842,1.725c1.826-1.826,2.479-3.156,4.305-4.98c0.836-0.838,0.641-2.064-0.041-3.143
	l15.479-15.423c1.143,0.498,2.588,0.361,3.852-0.904C51.521,27.302,46.814,22.593,45.498,23.908z"/>
<path fill="#75D6FF" d="M2,50.095c18.584-1.008,25.82,6.471,60,2.914v8.99H2V50.095z"/>
<path fill="#916B50" d="M42.072,30.279l0.676-0.676c-0.805-0.754-1.287,0.184-2.873,1.197c0,0-5.906-0.559-9.75-3.32l-1.803,3.225
	c4.5,2.742,10.422,2.757,10.422,2.757c0.477,0.443,2.623,1.221,3.264,0.902c1.717-0.859,1.357-1.219,2.318-2.043
	C45.389,31.411,42.293,31.062,42.072,30.279z"/>
<path fill="#5D1E96" d="M27.035,23.177c-0.701-1.145-2.469-1.018-3.463-0.082c-0.994,0.934-0.732,2.258-0.139,3.467
	c0.902,1.828,2.615,3.332,4.619,4.552l2.57-4.162C29.256,25.97,27.992,24.734,27.035,23.177z"/>
</svg>
