<?xml version="1.0" encoding="utf-8"?>
<!-- Generator: Adobe Illustrator 15.0.0, SVG Export Plug-In . SVG Version: 6.00 Build 0)  -->
<!DOCTYPE svg PUBLIC "-//W3C//DTD SVG 1.1//EN" "http://www.w3.org/Graphics/SVG/1.1/DTD/svg11.dtd">
<svg version="1.1" id="Layer_1" xmlns="http://www.w3.org/2000/svg" xmlns:xlink="http://www.w3.org/1999/xlink" x="0px" y="0px"
	 width="64px" height="64px" viewBox="0 0 64 64" enable-background="new 0 0 64 64" xml:space="preserve">
<path fill="#99A8AE" d="M45.691,2.018c-0.357-0.055-6.848,23.736-15.434,21.496L13,14.842c0,0,0.266,12.148-11,18.148v25.006h60
	v-30.76C50.266,13.967,52.723,3.113,45.691,2.018z"/>
<path fill="#CFD8DD" d="M30.258,23.514C40.344,20.42,43.891,0.572,45.852,2.092c0.957,0.742,5.113,15.41,0.848,12.201
	c-6.561-4.936,1.941,5.244,2.004,10.891c0.039,3.57-13.656-10.465-4.609,13.807L30.258,23.514z"/>
<polygon fill="#CFD8DD" points="56.682,28.59 51.4,18.41 52.906,25.682 "/>
<polygon fill="#CFD8DD" points="51.809,40.492 51.1,33.801 47.207,30.007 "/>
<path fill="#CFD8DD" d="M2,30.455c0,0,8.621-4.353,10.906-15.535c0.188-0.926,3.074,5.574,4.5,12.375
	c0.621,2.97-4.314-3.23-4.313,1.094c0.002,6.527-5.188,14.094-5.188,14.094C10.748,25.113,2,43.984,2,43.984V30.455z"/>
<path fill="#8C5138" d="M62,46.711c-36.494,2.328-42.457,8.85-60,9.646v5.633h60V46.711z"/>
<path fill="#614A36" d="M29.188,11.509c0,0-0.195,4.619,1.457,7.345C24.691,25.057,23.283,12.833,29.188,11.509z"/>
<path fill="#3B2B1C" d="M23.145,20.053c3.715-3.345,4.867,8.51,3.859-6.311L23.145,20.053z"/>
<path fill="#614A36" d="M21.602,3.303c-6.43,2.534-6.52,6.741-4.885,9.074c0.818,1.169,0.611,2.499,0.018,3.804
	c-0.563,1.241,0.816,1.349,1.521,1.07c0.359,0.407,0.141,0.641,0.141,0.641s1.129,0.271,1.025,0.556
	c-0.275,0.108-0.314,0.708,0.287,0.759c0.666,0.055,0.131,2.563,2.305,1.517c1.76-0.847,4.234-3.207,4.535-3.788
	c0.342-0.659,0.594-3.689,0.594-3.689C30.314,11.342,33.289,4.57,21.602,3.303z"/>
<path fill="#3B2B1C" d="M25.566,11.056c-0.406-0.917-0.004-2.047,0.752-2.381c0,0-0.816,1.662,0.168,2.993
	C26.486,11.668,25.85,11.696,25.566,11.056z"/>
<path fill="#38332D" d="M15.834,9.853c6.729-6.461,6.08-0.047,9.027,1.346c-0.344-2.726,1.301-3.942,2.482-2.703
	c1.348,1.416,1.24,4.025-0.264,4.402c0.375,0.488,2.248,1.646,2.248,1.646c3.219-1.784,1.553-15.583-8.65-11.563
	C16.898,4.47,14.059,7.384,15.834,9.853z"/>
<path fill="#523924" d="M21.098,16.799c-0.242,1.364-0.771,2.174-1.166,2.565c-0.859,0.066-0.846-0.888-0.49-1.026
	C19.717,18.229,20.109,17.75,21.098,16.799z"/>
<path fill="#3B2B1C" d="M21.098,16.799c-0.381,0.925-1.645,1.607-1.645,1.607c-0.221,0.014-0.824,0.072-1.057-0.515
	C18.895,18.04,20.275,17.574,21.098,16.799z"/>
<path fill-rule="evenodd" clip-rule="evenodd" fill="#3B2B1C" d="M17.275,12.396c0.096-0.627,0.924-0.71,2.945-1.522
	C18.551,10.64,16.525,11.04,17.275,12.396z"/>
<path fill="#FFFFFF" d="M20.027,12.071c0.506,1.827-0.65,2.11-0.914,2.214C18.703,14.212,16.539,11.711,20.027,12.071z"/>
<path fill="#45332C" d="M18.127,13.281c0.75,1.268,1.482,1.263,0.785-0.515C18.4,11.459,17.521,12.263,18.127,13.281z"/>
<path fill-rule="evenodd" clip-rule="evenodd" fill="#45332C" d="M17.957,12.911c-0.32-1.372,1.426-1.029,2.197-0.866
	C19.15,12.27,18.334,12.109,17.957,12.911z"/>
<path fill="#302C3B" d="M22.906,9.204c0,0,6.26,5.124-0.422,11.267c0,0,2.313-1.485,2.621-1.99c1.555-2.348,1.596-3.843,1.596-3.843
	c3.113-1.191,3.943-2.24,3.943-2.24s0.273-0.885,0.164-1.49c-1.875,1.527-4.182,2.491-4.182,2.491s-0.883-3.224-2.736-4.665
	L22.906,9.204z"/>
<path fill="#302C3B" d="M14.975,8.155c0,0-0.189-0.07-2.385,1.504c0,0,3.396,1.963,8.654-0.148L14.975,8.155z"/>
<path fill="#E81C27" d="M33.396,4.474C16.492-2.753,14.975,8.155,14.975,8.155c12.207,4.201,18.199-0.361,18.199-0.361L31.475,7.14
	C31.475,7.14,33.023,5.905,33.396,4.474z"/>
<path fill="#B00505" d="M16.918,7.517c1.824-3.67,4.779-4.996,7.898-4.189C19.498,4.847,16.918,7.517,16.918,7.517z"/>
<path fill="#B00505" d="M19.516,6.741c2.869-2.033,5.004-2.566,9.711-2.275C25.215,7.212,19.516,6.741,19.516,6.741z"/>
<path fill="#B00505" d="M19.166,7.878c2.49-0.863,5.979-1.189,8.516-0.533C24.313,9.39,19.166,7.878,19.166,7.878z"/>
<path fill="#3B2B1C" d="M28.262,31.818c-0.895,3.858,2.256,3.461,6.271,10.19l1.934-2.93c-2.637-2.76-1.303-3.398-3.064-6.717
	L28.262,31.818z"/>
<path fill="#C21413" d="M39.654,32.421L37,26.999c-2.615,1.5-6.764,2.455-8.951,4.653c0,0,1.688,1.698,6.324,3.225
	C36.322,34.1,39.654,32.421,39.654,32.421z"/>
<path fill="#E81C27" d="M46.236,25.462L37,26.999c-5.48-4.344-11.885-6.939-10.455-10.623
	C28.109,12.351,40.902,15.101,46.236,25.462z"/>
<path fill="#302C3B" d="M21,27.999c-0.717-0.336-3-1-3-1v2l1.883,0.471L19,33l2,1l1-4.001C22,29.999,23.564,29.2,21,27.999z"/>
<path fill="#99A8AE" d="M14,39C7.924,39,3,43.924,3,50s4.924,11,11,11c6.074,0,11-4.924,11-11S20.074,39,14,39z M14,59
	c-4.971,0-9-4.029-9-9s4.029-9,9-9s9,4.029,9,9S18.971,59,14,59z"/>
<path fill="#99A8AE" d="M50,39c-6.076,0-11,4.924-11,11s4.924,11,11,11c6.074,0,11-4.924,11-11S56.074,39,50,39z M50,59
	c-4.971,0-9-4.029-9-9s4.029-9,9-9s9,4.029,9,9S54.971,59,50,59z"/>
<path fill="#302C3B" d="M14,38C7.373,38,2,43.373,2,50s5.373,12,12,12s12-5.373,12-12S20.627,38,14,38z M14,60
	C8.477,60,4,55.523,4,50s4.477-10,10-10s10,4.477,10,10S19.523,60,14,60z"/>
<path fill="#302C3B" d="M50,38c-6.627,0-12,5.373-12,12s5.373,12,12,12s12-5.373,12-12S56.627,38,50,38z M50,60
	c-5.523,0-10-4.477-10-10s4.477-10,10-10s10,4.477,10,10S55.523,60,50,60z"/>
<path fill="#0FB4D4" d="M50.66,49.232L40.521,37.191l1.373-2.744c0.246-0.494-1.543-1.389-1.789-0.895l-1.316,2.633l-19.494-4.368
	l-6.238,17.85c-0.396,1.121,1.525,1.684,1.887,0.666l5.385-15.26l11.877,15.533c0.008,0.012,0.023,0.016,0.031,0.025
	C32.322,50.738,32.855,51,33,51h17c0.006,0,0.014,0,0.02,0C50.572,51,50.881,49.416,50.66,49.232z M37.867,38.029L32.82,48.121
	L22.465,34.576L37.867,38.029z M34.617,49l4.932-9.859L47.85,49H34.617z"/>
<path fill="#302C3B" d="M16,50c0,2.668-4,2.668-4,0S16,47.332,16,50z"/>
<polygon fill="#BEC3CF" points="50,48 32.998,47 32.998,46 50,47 "/>
<polygon fill="#BEC3CF" points="50,53 33,54 33,53 50,52 "/>
<path fill="#302C3B" d="M53,50c0,4-6,4-6,0S53,46,53,50z"/>
<path fill="#302C3B" d="M32.998,54c-5.33,0-5.33-8,0-8C38.334,46,38.334,54,32.998,54z"/>
<rect x="27" y="57" fill="#99A8AE" width="7" height="2"/>
<polygon fill="#6E8189" points="31,57 29,57 32,50 34,50 "/>
<path fill="#99A8AE" d="M34,50.004c0,1.33-2,1.33-2,0C32,48.666,34,48.666,34,50.004z"/>
<path fill="#302C3B" d="M45,35c-2,1-4-1-8-1c0,0,0-2,2-2c4.123,0,5.434-0.783,7,0C48,33,46.264,34.367,45,35z"/>
<path fill="#614A36" d="M32.287,39.258c-0.514,2.1,2.369,7.18,0.883,14.344h4.221c-1.109-7.164,0.672-8.637,0.172-13.965
	C37.563,39.637,32.914,36.703,32.287,39.258z"/>
<path fill="#302C3B" d="M37.285,52.82c-2.598,0.979-3.096,0.643-4.049,0.309c-1.236,0.768-5.275,1.592-6.469,2.846
	c-0.172,0.18,0,1.025,0,1.025h11.281C38.049,57,38.158,52.492,37.285,52.82z"/>
<path fill="#E81C27" d="M46.236,25.462c0,0-5.424-2.354-9.236,1.537c-1.25,2.517-3.631,8.874-5.318,12.632
	c0,0,2.611-0.143,6.318,1.291C39.832,35.682,48.816,31.664,46.236,25.462z"/>
<path fill="#F46C60" d="M36.289,40.299l-1.953-0.43c0.945-4.285,3.246-6.83,5.096-8.875c1.629-1.799,2.537-2.881,2.303-4.208
	c-0.564-3.188-4.67-6.254-11.561-8.637l0.654-1.891c5.381,1.861,11.982,5.137,12.875,10.178c0.418,2.355-1.068,3.999-2.787,5.899
	C39.137,34.303,37.119,36.533,36.289,40.299z"/>
<path fill="#614A36" d="M27.16,23.108c0.156,0.887,0.287,1.654,0.34,2.191c-3.188,1.656-3.996,2.463-6.982,0.699
	c-2-1.182-5.875-1.275-5.051,2.797c0.354,1.749,2.559-2.938,3.402-1.314c1.332,2.563,1.801,2.018,3.693,1.918
	c4.49-0.236,9.119-0.4,8.945-2.123c-0.105-1.043,0.213-2.047,0.17-3.48L27.16,23.108z"/>
<path fill="#E81C27" d="M31.453,17.665c-0.531-3.928-5.32-3.313-5.084-0.086c0.135,1.855,0.332,4.775,0.619,6.404l4.992,0.174
	C31.916,21.991,31.721,19.647,31.453,17.665z"/>
<path fill="#302C3B" d="M20,28.005c0,2.659-4,2.659-4,0C16,25.331,20,25.331,20,28.005z"/>
<path fill="#99A8AE" d="M19,28.001c0,1.33-2,1.33-2,0C17,26.665,19,26.665,19,28.001z"/>
</svg>
