<?xml version="1.0" encoding="utf-8"?>
<!-- Generator: Adobe Illustrator 15.0.0, SVG Export Plug-In . SVG Version: 6.00 Build 0)  -->
<!DOCTYPE svg PUBLIC "-//W3C//DTD SVG 1.1//EN" "http://www.w3.org/Graphics/SVG/1.1/DTD/svg11.dtd">
<svg version="1.1" id="Layer_1" xmlns="http://www.w3.org/2000/svg" xmlns:xlink="http://www.w3.org/1999/xlink" x="0px" y="0px"
	 width="64px" height="64px" viewBox="0 0 64 64" enable-background="new 0 0 64 64" xml:space="preserve">
<path fill="#614036" d="M46.795,21.32c-1.307-0.723-1.221-6.572,0.044-8.768c3.054-5.301-2.17-9.752-6.219-7.962l1.123,3.122
	C45.492,5.615,39.291,20.191,46.795,21.32z"/>
<path fill="#614036" d="M47.756,19.037c-3.427-2.318,1.098-7.099-0.451-11.227C43.851,10.568,42.753,18.656,47.756,19.037z"/>
<path fill="#614036" d="M42.502,16.832C41.461,15,46.839,9.167,42.929,7.599C43.786,10.448,40.089,14.529,42.502,16.832z"/>
<path fill="#8E3ED6" d="M39.819,4.456c-1.131,0.813-0.469,4.183,1.801,4.05C43.482,8.4,41.315,3.373,39.819,4.456z"/>
<path fill="#916B50" d="M38.312,13.652c0,0-1.657,4.582-1.088,7.961C28.946,25.47,31.978,12.65,38.312,13.652z"/>
<path fill="#664935" d="M28.745,19.769c4.96-1.881,2.114,10.521,6.877-4.705L28.745,19.769z"/>
<path fill="#916B50" d="M33.472,2.673c-7.286,0-8.203,4.083-7.535,7.014c0.354,1.555-0.354,2.724-1.492,3.791
	c-0.7,0.658-0.122,1.457,1.23,1.457c0.131,0.617-0.222,0.809-0.222,0.809s1.003,0.703,0.79,0.941c-0.312,0-0.775,0.689-0.03,1.008
	c0.646,0.275-0.76,1.859,1.773,2.09c1.927,0.176,4.136-0.512,5.989-2.158c1.122-0.996,1.853-3.057,1.853-3.057
	C39.674,13.927,44.446,8.433,33.472,2.673z"/>
<path fill="#664935" d="M35.127,11.811c-0.044-1.058,0.787-2.009,1.657-2.044c0,0-1.442,1.313-0.99,3
	C35.794,12.767,35.157,12.548,35.127,11.811z"/>
<path fill="#614036" d="M26.205,5.917c2.271,3.417,6.395,1.893,8.211,5.108c0.658-1.738,2.787-2.654,3.443-1.04
	c0.776,1.908-0.339,4.43-1.959,4.215c0.179,0.627,1.569,2.484,1.569,2.484c3.821-0.498,6.428-8.92,1.711-12.841
	C34.218-0.284,24.573,3.464,26.205,5.917z"/>
<path fill-rule="evenodd" clip-rule="evenodd" fill="#664935" d="M26.489,9.633c-0.266-2.171,2.344-0.921,3.276-0.733
	C28.974,9.103,27.093,8.417,26.489,9.633z"/>
<path fill="#75543D" d="M28.479,15.744c-0.766,1.246-1.619,1.797-2.156,2.027c-0.869-0.266-0.466-1.156-0.063-1.156
	C26.57,16.615,27.141,16.294,28.479,15.744z"/>
<path fill="#664935" d="M28.479,15.744c-0.73,0.762-2.235,0.941-2.235,0.941c-0.222-0.07-0.79-0.273-0.79-0.941
	C25.885,16.083,27.372,16.187,28.479,15.744z"/>
<path fill="#CFD8DD" d="M41.448,55.879c1.296,3.99-3.832,3.475-1.677,6.111c4.502,0,4.275,0.453,6.551-4.67L48,55.168
	C44.247,49.678,41.448,55.879,41.448,55.879z"/>
<path fill="#CFD8DD" d="M22.509,55.75c-1.587,1.287-4.981-2.877-6.509,0.082c0,0,1.972,3.947,6.225,4.709l2.666,1.449
	C31.116,56.252,22.509,55.75,22.509,55.75z"/>
<path fill="#1A1626" d="M37.341,34.197c-7.944-1.127-8.403,2.748-8.403,2.748c2.029,9.617,4.76,14.701,12.378,19.996
	c0,0,5.856-3.135,4.613-4.139C38.016,46.441,35.517,40.141,37.341,34.197z"/>
<path fill="#302C3B" d="M37.341,34.197c0,0-5.53-2.164-7.403,2.254c-1,6.623-6.564,6.977-8.331,19.299c0,0,5.248,4.932,5.665,3.137
	C31.479,40.77,40.784,44.543,37.341,34.197z"/>
<path fill="#916B50" d="M24.813,35.969l-1.479-2.559c-2.773,0.57-4.479,2.484-2.947,2.686
	C18.378,37.918,20.568,41.807,24.813,35.969z"/>
<path fill="#5D1E96" d="M30.709,22.384c-2.938,6.1-5.188,9.063-7.979,11.149c0,0,0.166,2.172,2.146,2.621
	c3.996-3.83,6.313-7.688,6.313-7.688L30.709,22.384z"/>
<path fill="#8E3ED6" d="M37.805,34.598c0,0-4.363,0.477-8.867,2.547c-0.255-2.238,0.013-6.704-0.232-6.817
	c-4.021-1.861,0.569-5.098,1.372-6.979c0.389-0.908,0.982-1.732,1.553-2.324c0.704,1.631,3.479-3.125,5.839-0.094
	C39.37,25.75,36.503,28.531,37.805,34.598z"/>
<path fill="#916B50" d="M42.964,36.465l-3.003,0.355c-1.45,2.35-1.34,3.369-0.541,3.168c0,0-0.333,2.037,0.524,2.268
	c0.54,0.139,1.018-0.463,1.018-0.463C42.782,41.686,43.569,39.678,42.964,36.465z"/>
<path fill="#5D1E96" d="M37.62,20.996c-2.151-2.889-5.273,1.094-3.296,3.334c4.321,4.908,4.722,6.098,5.211,12.987
	c0,0,3.809,0.139,3.714-0.881C42.402,27.357,42.822,27.976,37.62,20.996z"/>
<path fill="#FFFFFF" d="M29.315,10.377c-0.209,1.986-1.454,1.817-1.752,1.817C27.189,11.964,26.033,8.675,29.315,10.377z"/>
<path fill="#45332C" d="M26.983,10.829c0.246,1.533,0.967,1.813,0.97-0.202C27.956,9.148,26.784,9.596,26.983,10.829z"/>
<path fill-rule="evenodd" clip-rule="evenodd" fill="#45332C" d="M26.96,10.4c0.217-1.469,1.797-0.458,2.49,0
	C28.379,10.233,27.639,9.76,26.96,10.4z"/>
</svg>
