<?xml version="1.0" encoding="utf-8"?>
<!-- Generator: Adobe Illustrator 15.0.0, SVG Export Plug-In . SVG Version: 6.00 Build 0)  -->
<!DOCTYPE svg PUBLIC "-//W3C//DTD SVG 1.1//EN" "http://www.w3.org/Graphics/SVG/1.1/DTD/svg11.dtd">
<svg version="1.1" id="Layer_1" xmlns="http://www.w3.org/2000/svg" xmlns:xlink="http://www.w3.org/1999/xlink" x="0px" y="0px"
	 width="64px" height="64px" viewBox="0 0 64 64" enable-background="new 0 0 64 64" xml:space="preserve">
<path fill="#E81C27" d="M32,2C15.432,2,2,15.432,2,32s13.432,30,30,30s30-13.432,30-30S48.568,2,32,2z M32,56
	C18.746,56,8,45.256,8,32C8,18.746,18.746,8,32,8c13.256,0,24,10.746,24,24C56,45.256,45.256,56,32,56z"/>
<path fill="#302C3B" d="M35.279,26.053v-0.779h-5.781v0.779c0,0.43-0.348,0.777-0.779,0.777h-3.773
	c-1.764,0-3.193,1.424-3.193,3.182v3.801h4.336V32.48c0-0.734,0.598-1.332,1.336-1.332h0.486c0.182,0,0.389,0.178,0.471,0.328h0.002
	c0.787,1.395,2.285,2.336,4.006,2.336c1.727,0,3.23-0.949,4.018-2.354c0.088-0.146,0.285-0.311,0.463-0.311h0.002h3.668V26.83
	h-4.479C35.629,26.83,35.279,26.482,35.279,26.053z"/>
<path fill="#302C3B" d="M26.578,19.305c0.125,0,1.113-0.016,1.229-0.045c0.48-0.033,0.996-0.076,3.373-0.09
	c0.102,0.131,0.221,0.25,0.352,0.355v1.668h-0.777c-0.432,0-0.779,0.34-0.779,0.758c0,0.42,0.348,0.76,0.779,0.76h0.777h2.648h0.777
	c0.43,0,0.777-0.34,0.777-0.76c0-0.418-0.348-0.758-0.777-0.758H34.18v-1.668c0.131-0.105,0.248-0.225,0.352-0.355
	c2.375,0.014,2.889,0.057,3.369,0.09c0.119,0.029,1.105,0.045,1.232,0.045c0.777,0,1.406-0.613,1.406-1.373
	s-0.629-1.375-1.406-1.375c-0.127,0-1.113,0.016-1.232,0.047c-0.48,0.035-0.994,0.076-3.369,0.09
	c-0.385-0.494-0.99-0.814-1.676-0.814s-1.291,0.32-1.676,0.814c-2.377-0.014-2.893-0.055-3.373-0.09
	c-0.115-0.031-1.104-0.047-1.229-0.047c-0.777,0-1.41,0.615-1.41,1.375S25.801,19.305,26.578,19.305z"/>
<rect x="42.248" y="25.273" fill="#302C3B" width="1.709" height="6.832"/>
<path fill="#302C3B" d="M21.182,46.623h6.264l1.139-10.248h-8.539L21.182,46.623z M27.461,40.053H21.17l-0.33-2.971h6.951
	L27.461,40.053z"/>
<rect x="2.815" y="29" transform="matrix(-0.7071 -0.7071 0.7071 -0.7071 31.9989 77.2548)" fill="#E81C27" width="58.371" height="6.001"/>
</svg>
