<?xml version="1.0" encoding="utf-8"?>
<!-- Generator: Adobe Illustrator 15.0.0, SVG Export Plug-In . SVG Version: 6.00 Build 0)  -->
<!DOCTYPE svg PUBLIC "-//W3C//DTD SVG 1.1//EN" "http://www.w3.org/Graphics/SVG/1.1/DTD/svg11.dtd">
<svg version="1.1" id="Layer_1" xmlns="http://www.w3.org/2000/svg" xmlns:xlink="http://www.w3.org/1999/xlink" x="0px" y="0px"
	 width="64px" height="64px" viewBox="0 0 64 64" enable-background="new 0 0 64 64" xml:space="preserve">
<path fill="#EA8800" d="M46.796,21.319c-1.308-0.722-1.22-6.572,0.044-8.767c3.053-5.301-2.17-9.752-6.219-7.962l1.123,3.122
	C45.492,5.614,39.292,20.19,46.796,21.319z"/>
<path fill="#EA8800" d="M47.757,19.037c-3.427-2.319,1.099-7.099-0.451-11.227C43.852,10.567,42.754,18.655,47.757,19.037z"/>
<path fill="#EA8800" d="M42.502,16.831c-1.04-1.832,4.338-7.665,0.428-9.232C43.787,10.447,40.09,14.527,42.502,16.831z"/>
<path fill="#8E3ED6" d="M39.82,4.455c-1.131,0.813-0.469,4.183,1.801,4.05C43.483,8.399,41.316,3.372,39.82,4.455z"/>
<path fill="#FDCA47" d="M38.313,13.651c0,0-1.657,4.583-1.088,7.961C28.946,25.47,31.979,12.649,38.313,13.651z"/>
<path fill="#E6A400" d="M28.745,19.769c4.96-1.881,2.114,10.521,6.877-4.707L28.745,19.769z"/>
<path fill="#FDCA47" d="M33.473,2.673c-7.286,0-8.204,4.083-7.536,7.014c0.354,1.555-0.354,2.724-1.491,3.791
	c-0.7,0.657-0.123,1.457,1.23,1.457c0.131,0.617-0.222,0.809-0.222,0.809s1.003,0.703,0.79,0.941c-0.313,0-0.776,0.689-0.031,1.007
	c0.647,0.275-0.759,1.859,1.774,2.091c1.927,0.176,4.136-0.512,5.988-2.159c1.122-0.996,1.853-3.056,1.853-3.056
	C39.674,13.926,44.447,8.433,33.473,2.673z"/>
<path fill="#E6A400" d="M35.128,11.811c-0.045-1.058,0.787-2.009,1.657-2.044c0,0-1.443,1.313-0.99,3
	C35.795,12.767,35.157,12.548,35.128,11.811z"/>
<path fill="#EA8800" d="M26.206,5.917c2.271,3.417,6.394,1.893,8.21,5.108c0.659-1.738,2.787-2.654,3.444-1.04
	c0.776,1.908-0.339,4.429-1.96,4.215c0.18,0.626,1.57,2.485,1.57,2.485c3.82-0.498,6.428-8.92,1.711-12.841
	C34.219-0.284,24.573,3.464,26.206,5.917z"/>
<path fill-rule="evenodd" clip-rule="evenodd" fill="#E6A400" d="M26.49,9.633c-0.266-2.171,2.344-0.921,3.276-0.733
	C28.975,9.103,27.093,8.416,26.49,9.633z"/>
<path fill="#F5BC2C" d="M28.479,15.744c-0.766,1.245-1.618,1.796-2.156,2.026c-0.868-0.266-0.465-1.156-0.063-1.156
	C26.57,16.614,27.141,16.294,28.479,15.744z"/>
<path fill="#E6A400" d="M28.479,15.744c-0.73,0.761-2.234,0.941-2.234,0.941c-0.222-0.071-0.79-0.274-0.79-0.941
	C25.885,16.083,27.372,16.187,28.479,15.744z"/>
<path fill="#CFD8DD" d="M41.449,55.877c1.296,3.99-3.832,3.475-1.677,6.112c4.501,0,4.275,0.452,6.551-4.67L48,55.167
	C44.248,49.676,41.449,55.877,41.449,55.877z"/>
<path fill="#CFD8DD" d="M22.51,55.748c-1.588,1.288-4.981-2.877-6.51,0.082c0,0,1.973,3.947,6.226,4.71l2.666,1.449
	C31.116,56.251,22.51,55.748,22.51,55.748z"/>
<path fill="#1A1626" d="M37.341,34.195c-7.944-1.127-8.403,2.748-8.403,2.748c2.029,9.618,4.761,14.701,12.379,19.997
	c0,0,5.856-3.135,4.613-4.139C38.017,46.44,35.517,40.14,37.341,34.195z"/>
<path fill="#302C3B" d="M37.341,34.195c0,0-5.53-2.163-7.403,2.254c-1,6.623-6.564,6.977-8.33,19.299c0,0,5.248,4.933,5.664,3.138
	C31.48,40.769,40.785,44.541,37.341,34.195z"/>
<path fill="#FDCA47" d="M24.813,35.968l-1.479-2.56c-2.774,0.571-4.48,2.484-2.947,2.686C18.379,37.917,20.569,41.805,24.813,35.968
	z"/>
<path fill="#5D1E96" d="M30.709,22.384c-2.938,6.099-5.188,9.063-7.979,11.148c0,0,0.166,2.172,2.145,2.621
	c3.997-3.83,6.313-7.688,6.313-7.688L30.709,22.384z"/>
<path fill="#8E3ED6" d="M37.806,34.597c0,0-4.364,0.477-8.868,2.546c-0.255-2.238,0.013-6.702-0.231-6.815
	c-4.022-1.862,0.568-5.098,1.372-6.979c0.388-0.909,0.981-1.732,1.553-2.325c0.704,1.632,3.479-3.124,5.838-0.093
	C39.371,25.75,36.503,28.531,37.806,34.597z"/>
<path fill="#FDCA47" d="M42.965,36.464l-3.004,0.355c-1.449,2.349-1.34,3.368-0.54,3.167c0,0-0.333,2.038,0.524,2.269
	c0.539,0.139,1.018-0.463,1.018-0.463C42.783,41.685,43.57,39.677,42.965,36.464z"/>
<path fill="#5D1E96" d="M37.62,20.995c-2.15-2.888-5.273,1.095-3.296,3.335c4.322,4.908,4.723,6.098,5.212,12.985
	c0,0,3.808,0.139,3.714-0.881C42.402,27.356,42.823,27.975,37.62,20.995z"/>
<path fill="#FFFFFF" d="M29.315,10.377c-0.209,1.986-1.454,1.817-1.751,1.817C27.189,11.964,26.034,8.675,29.315,10.377z"/>
<path fill="#45332C" d="M26.983,10.828c0.247,1.533,0.968,1.813,0.971-0.202C27.957,9.147,26.784,9.596,26.983,10.828z"/>
<path fill-rule="evenodd" clip-rule="evenodd" fill="#45332C" d="M26.961,10.399c0.216-1.469,1.796-0.458,2.49,0
	C28.379,10.232,27.64,9.76,26.961,10.399z"/>
</svg>
