<?xml version="1.0" encoding="utf-8"?>
<!-- Generator: Adobe Illustrator 15.0.0, SVG Export Plug-In . SVG Version: 6.00 Build 0)  -->
<!DOCTYPE svg PUBLIC "-//W3C//DTD SVG 1.1//EN" "http://www.w3.org/Graphics/SVG/1.1/DTD/svg11.dtd">
<svg version="1.1" id="Layer_1" xmlns="http://www.w3.org/2000/svg" xmlns:xlink="http://www.w3.org/1999/xlink" x="0px" y="0px"
	 width="64px" height="64px" viewBox="0 0 64 64" enable-background="new 0 0 64 64" xml:space="preserve">
<path fill="#614A36" d="M29.186,11.509c0,0-0.193,4.619,1.457,7.346C24.689,25.058,23.283,12.833,29.186,11.509z"/>
<path fill="#3B2B1C" d="M23.145,20.054c3.713-3.346,4.867,8.51,3.859-6.311L23.145,20.054z"/>
<path fill="#614A36" d="M21.602,3.304c-6.432,2.533-6.521,6.74-4.885,9.074c0.818,1.168,0.611,2.498,0.018,3.803
	c-0.563,1.242,0.816,1.35,1.521,1.07c0.359,0.408,0.141,0.641,0.141,0.641s1.129,0.271,1.023,0.557
	c-0.273,0.107-0.313,0.707,0.289,0.758c0.666,0.055,0.129,2.563,2.305,1.518c1.76-0.848,4.234-3.207,4.533-3.789
	c0.344-0.658,0.596-3.689,0.596-3.689C30.313,11.343,33.289,4.572,21.602,3.304z"/>
<path fill="#3B2B1C" d="M25.566,11.056c-0.406-0.916-0.006-2.047,0.75-2.381c0,0-0.816,1.662,0.17,2.994
	C26.486,11.669,25.848,11.697,25.566,11.056z"/>
<path fill="#38332D" d="M15.834,9.853c6.729-6.461,6.078-0.047,9.027,1.346c-0.344-2.725,1.301-3.941,2.48-2.703
	c1.35,1.416,1.242,4.025-0.264,4.402c0.377,0.488,2.25,1.646,2.25,1.646c3.219-1.783,1.553-15.582-8.65-11.563
	C16.898,4.47,14.059,7.384,15.834,9.853z"/>
<path fill="#523924" d="M21.098,16.8c-0.244,1.363-0.771,2.174-1.166,2.564c-0.859,0.066-0.846-0.887-0.49-1.025
	C19.715,18.23,20.109,17.751,21.098,16.8z"/>
<path fill="#3B2B1C" d="M21.098,16.8c-0.381,0.924-1.645,1.607-1.645,1.607c-0.221,0.014-0.826,0.072-1.057-0.516
	C18.895,18.041,20.275,17.576,21.098,16.8z"/>
<path fill-rule="evenodd" clip-rule="evenodd" fill="#3B2B1C" d="M17.275,12.398c0.096-0.627,0.922-0.711,2.943-1.523
	C18.549,10.64,16.525,11.041,17.275,12.398z"/>
<path fill="#FFFFFF" d="M20.027,12.072c0.506,1.828-0.652,2.111-0.914,2.215C18.703,14.212,16.539,11.712,20.027,12.072z"/>
<path fill="#45332C" d="M18.125,13.283c0.752,1.268,1.484,1.262,0.787-0.516C18.4,11.46,17.521,12.263,18.125,13.283z"/>
<path fill-rule="evenodd" clip-rule="evenodd" fill="#45332C" d="M17.957,12.912c-0.32-1.371,1.426-1.029,2.197-0.865
	C19.15,12.271,18.332,12.111,17.957,12.912z"/>
<path fill="#302C3B" d="M22.906,9.205c0,0,6.26,5.125-0.422,11.268c0,0,2.313-1.486,2.621-1.99c1.553-2.348,1.596-3.844,1.596-3.844
	c3.113-1.191,3.941-2.24,3.941-2.24s0.275-0.885,0.166-1.49c-1.875,1.527-4.182,2.492-4.182,2.492s-0.883-3.225-2.736-4.666
	L22.906,9.205z"/>
<path fill="#302C3B" d="M14.975,8.156c0,0-0.189-0.07-2.385,1.504c0,0,3.396,1.963,8.654-0.148L14.975,8.156z"/>
<path fill="#E81C27" d="M33.396,4.474C16.492-2.752,14.975,8.156,14.975,8.156c12.207,4.201,18.199-0.361,18.199-0.361L31.475,7.14
	C31.475,7.14,33.023,5.906,33.396,4.474z"/>
<path fill="#B00505" d="M16.918,7.517c1.824-3.67,4.779-4.996,7.898-4.189C19.498,4.847,16.918,7.517,16.918,7.517z"/>
<path fill="#B00505" d="M19.516,6.742c2.869-2.033,5.004-2.566,9.711-2.275C25.215,7.212,19.516,6.742,19.516,6.742z"/>
<path fill="#B00505" d="M19.166,7.878c2.49-0.863,5.979-1.189,8.516-0.533C24.313,9.39,19.166,7.878,19.166,7.878z"/>
<path fill="#3B2B1C" d="M28.262,31.818c-0.895,3.857,2.256,3.46,6.271,10.189l1.934-2.93c-2.637-2.76-1.303-3.398-3.064-6.716
	L28.262,31.818z"/>
<path fill="#C21413" d="M39.654,32.421L37,27c-2.615,1.5-6.764,2.455-8.951,4.652c0,0,1.688,1.697,6.324,3.224
	C36.322,34.099,39.654,32.421,39.654,32.421z"/>
<path fill="#E81C27" d="M46.236,25.462L37,27c-5.48-4.344-11.885-6.939-10.455-10.623C28.109,12.351,40.902,15.101,46.236,25.462z"
	/>
<path fill="#302C3B" d="M21,28c-0.717-0.336-3-1-3-1v2l1.883,0.471L19,33l2,1l1-4C22,30,23.564,29.201,21,28z"/>
<path fill="#99A8AE" d="M14,38.999c-6.076,0-11,4.924-11,11s4.924,11,11,11c6.074,0,11-4.924,11-11S20.074,38.999,14,38.999z
	 M14,58.999c-4.971,0-9-4.029-9-9s4.029-9,9-9s9,4.029,9,9S18.971,58.999,14,58.999z"/>
<path fill="#99A8AE" d="M50,38.999c-6.076,0-11,4.924-11,11s4.924,11,11,11c6.074,0,11-4.924,11-11S56.074,38.999,50,38.999z
	 M50,58.999c-4.971,0-9-4.029-9-9s4.029-9,9-9s9,4.029,9,9S54.971,58.999,50,58.999z"/>
<path fill="#302C3B" d="M14,37.999c-6.627,0-12,5.373-12,12s5.373,12,12,12s12-5.373,12-12S20.627,37.999,14,37.999z M14,59.999
	c-5.523,0-10-4.477-10-10s4.477-10,10-10s10,4.477,10,10S19.523,59.999,14,59.999z"/>
<path fill="#302C3B" d="M50,37.999c-6.627,0-12,5.373-12,12s5.373,12,12,12s12-5.373,12-12S56.627,37.999,50,37.999z M50,59.999
	c-5.523,0-10-4.477-10-10s4.477-10,10-10s10,4.477,10,10S55.523,59.999,50,59.999z"/>
<path fill="#0FB4D4" d="M50.66,49.231L40.521,37.19l1.373-2.744c0.246-0.494-1.543-1.389-1.789-0.895l-1.316,2.633l-19.494-4.367
	l-6.238,17.849c-0.396,1.121,1.525,1.684,1.887,0.666l5.385-15.26l11.877,15.533c0.008,0.012,0.023,0.016,0.031,0.025
	c0.086,0.105,0.619,0.367,0.764,0.367h17c0.006,0,0.014,0,0.02,0C50.572,50.999,50.881,49.415,50.66,49.231z M37.867,38.028
	L32.82,48.12L22.465,34.575L37.867,38.028z M34.617,48.999l4.932-9.859l8.301,9.859H34.617z"/>
<path fill="#302C3B" d="M16,49.999c0,2.668-4,2.668-4,0S16,47.331,16,49.999z"/>
<polygon fill="#BEC3CF" points="50,47.999 32.998,46.999 32.998,45.999 50,46.999 "/>
<polygon fill="#BEC3CF" points="50,52.999 33,53.999 33,52.999 50,51.999 "/>
<path fill="#302C3B" d="M53,49.999c0,4-6,4-6,0S53,45.999,53,49.999z"/>
<path fill="#302C3B" d="M32.998,53.999c-5.33,0-5.33-8,0-8C38.334,45.999,38.334,53.999,32.998,53.999z"/>
<rect x="27" y="56.999" fill="#99A8AE" width="7" height="2"/>
<polygon fill="#6E8189" points="31,56.999 29,56.999 32,49.999 34,49.999 "/>
<path fill="#99A8AE" d="M34,50.003c0,1.33-2,1.33-2,0C32,48.665,34,48.665,34,50.003z"/>
<path fill="#302C3B" d="M45,34.999c-2,1-4-1-8-1c0,0,0-2,2-2c4.123,0,5.434-0.783,7,0C48,33,46.264,34.366,45,34.999z"/>
<path fill="#614A36" d="M32.287,39.257c-0.514,2.1,2.369,7.18,0.883,14.344h4.221c-1.109-7.164,0.672-8.637,0.172-13.965
	C37.563,39.636,32.914,36.702,32.287,39.257z"/>
<path fill="#302C3B" d="M37.285,52.819c-2.598,0.979-3.096,0.643-4.049,0.309c-1.236,0.768-5.275,1.592-6.469,2.846
	c-0.172,0.18,0,1.025,0,1.025h11.281C38.049,56.999,38.158,52.491,37.285,52.819z"/>
<path fill="#E81C27" d="M46.236,25.462c0,0-5.424-2.354-9.236,1.537c-1.25,2.518-3.631,8.873-5.318,12.63
	c0,0,2.611-0.143,6.318,1.291C39.832,35.681,48.816,31.664,46.236,25.462z"/>
<path fill="#F46C60" d="M36.289,40.298l-1.953-0.43c0.945-4.285,3.246-6.83,5.096-8.875c1.629-1.799,2.537-2.881,2.303-4.207
	c-0.564-3.188-4.67-6.254-11.561-8.637l0.654-1.891c5.381,1.861,11.982,5.137,12.875,10.178c0.418,2.355-1.068,3.998-2.787,5.898
	C39.137,34.302,37.119,36.532,36.289,40.298z"/>
<path fill="#614A36" d="M27.16,23.109c0.156,0.887,0.287,1.654,0.34,2.191c-3.188,1.656-3.996,2.463-6.982,0.699
	c-2-1.182-5.875-1.275-5.051,2.797c0.354,1.748,2.559-2.938,3.402-1.314c1.332,2.563,1.801,2.018,3.693,1.918
	c4.49-0.236,9.119-0.4,8.945-2.123c-0.105-1.043,0.213-2.047,0.17-3.48L27.16,23.109z"/>
<path fill="#E81C27" d="M31.453,17.666c-0.531-3.928-5.32-3.313-5.084-0.086c0.135,1.855,0.332,4.775,0.619,6.404l4.992,0.174
	C31.916,21.992,31.721,19.648,31.453,17.666z"/>
<path fill="#302C3B" d="M20,28.005c0,2.658-4,2.658-4,0C16,25.332,20,25.332,20,28.005z"/>
<path fill="#99A8AE" d="M19,28.001c0,1.33-2,1.33-2,0C17,26.666,19,26.666,19,28.001z"/>
</svg>
