<?xml version="1.0" encoding="utf-8"?>
<!-- Generator: Adobe Illustrator 15.0.0, SVG Export Plug-In . SVG Version: 6.00 Build 0)  -->
<!DOCTYPE svg PUBLIC "-//W3C//DTD SVG 1.1//EN" "http://www.w3.org/Graphics/SVG/1.1/DTD/svg11.dtd">
<svg version="1.1" id="Layer_1" xmlns="http://www.w3.org/2000/svg" xmlns:xlink="http://www.w3.org/1999/xlink" x="0px" y="0px"
	 width="64px" height="64px" viewBox="0 0 64 64" enable-background="new 0 0 64 64" xml:space="preserve">
<path fill="#BEC3CF" d="M54.207,35.425H40.652l-25.601,8.48c5.204,9.938-3.234,16.688-3.234,16.688h34.489
	C35.896,50.075,54.207,45.589,54.207,35.425z"/>
<path fill="#99A8AE" d="M53.809,37.999H42.467v-4h11.697C54.449,36.214,53.809,37.999,53.809,37.999z"/>
<path fill="#BEC3CF" d="M45,12v22.479c0,0.527,0.746,1.52,1.666,1.52h10.67c0.918,0,1.664-0.992,1.664-1.52V12H45z"/>
<path fill="#CFD8DD" d="M56.861,6h-9.721C45.955,6,45,7.037,45,7.807V12h14V7.807C59,7.037,58.045,6,56.861,6z"/>
<path fill="#E6EBEF" d="M55.396,16h-2.791C51.719,16,51,16.691,51,17.204V18h6v-0.796C57,16.691,56.281,16,55.396,16z"/>
<path fill="#CFD8DD" d="M46.725,61.999H11.398c-1.782,0-1.782-4,0-4h35.326C48.508,57.999,48.508,61.999,46.725,61.999z"/>
<path fill="#CFD8DD" d="M43.693,35.425H6.958C6.958,57.792,43.693,57.792,43.693,35.425z"/>
<path fill="#E6EBEF" d="M26.077,49.882c-7.389,0-16.697-5.703-16.697-15.068h11.915C21.295,48.632,32.095,49.882,26.077,49.882z"/>
<path fill="#BEC3CF" d="M43.448,37.999H7.202c0,0-0.451-2-0.438-4h36.93C43.859,36.325,43.448,37.999,43.448,37.999z"/>
<path fill="#CFD8DD" d="M43.742,35.999H6.257c-1.676,0-1.676-3.999,0-3.999h37.485C45.42,32,45.42,35.999,43.742,35.999z"/>
<path fill="#E6EBEF" d="M16.742,33.999H7.257c-0.676,0-0.676-0.999,0-0.999h9.485C17.42,33,17.42,33.999,16.742,33.999z"/>
<rect x="45" y="12" fill="#99A8AE" width="14" height="2"/>
<path fill-rule="evenodd" clip-rule="evenodd" fill="#E6EBEF" d="M46.218,8.15c0,2.024,1.791,0.303,2.961-0.045
	C53.321,6.875,46.218,6.328,46.218,8.15z"/>
<path fill="#CFD8DD" d="M41.001,34.742V3.257c0-1.676,4-1.676,4,0v31.485C45.001,36.42,41.001,36.42,41.001,34.742z"/>
<path fill="#E6EBEF" d="M43.001,13.742V4.257c0-0.676,1-0.676,1,0v9.485C44.001,14.42,43.001,14.42,43.001,13.742z"/>
</svg>
