<?xml version="1.0" encoding="utf-8"?>
<!-- Generator: Adobe Illustrator 15.0.0, SVG Export Plug-In . SVG Version: 6.00 Build 0)  -->
<!DOCTYPE svg PUBLIC "-//W3C//DTD SVG 1.1//EN" "http://www.w3.org/Graphics/SVG/1.1/DTD/svg11.dtd">
<svg version="1.1" id="Layer_1" xmlns="http://www.w3.org/2000/svg" xmlns:xlink="http://www.w3.org/1999/xlink" x="0px" y="0px"
	 width="64px" height="64px" viewBox="0 0 64 64" enable-background="new 0 0 64 64" xml:space="preserve">
<path fill="#BEC3CF" d="M16.002,60.674C16.08,61.403,16.828,62,17.664,62h16.724c0.837,0,1.582-0.597,1.662-1.326l1.997-18.667
	c0.079-0.73-0.543-1.328-1.379-1.328H15.384c-0.836,0-1.456,0.598-1.377,1.328L16.002,60.674z"/>
<path fill="#018BC9" d="M16.023,51.003c-0.037-0.365,0.274-0.663,0.691-0.663h18.623c0.421,0,0.728,0.298,0.688,0.663l-0.979,9.003
	c-0.04,0.365-0.414,0.664-0.832,0.664H17.799c-0.42,0-0.797-0.299-0.833-0.664L16.023,51.003z"/>
<path fill="#014D87" d="M17.271,59.564c0-0.184,0-0.332,8.643-0.332c8.703,0,8.647,0.148,8.647,0.332s0.056,0.332-8.647,0.332
	C17.271,59.896,17.271,59.748,17.271,59.564z"/>
<path fill="#0FB4D4" d="M18.113,54.322c-0.414,0.079-0.791-0.167-0.842-0.547l-0.263-2.087c-0.046-0.379,0.263-0.686,0.69-0.683
	h17.022c0.425,0.005,0.433,0.099,0.019,0.177c0,0-2.283,0.09-4.531,0.515c-1.57,0.296-2.135,0.745-3.961,1.089
	c-1.767,0.334-2.663,0.162-4.273,0.465C19.94,53.636,18.113,54.322,18.113,54.322z"/>
<path opacity="0.5" fill="#FFFFFF" d="M20.827,58.165c0.009,0.366-0.308,0.665-0.701,0.665H17.93c-0.396,0-0.76-0.297-0.812-0.66
	c-0.389-2.835-1.217-12.997-1.608-15.831c-0.051-0.363,0.229-0.66,0.624-0.66h3.632c0.395,0,0.723,0.301,0.731,0.665
	C20.564,45.175,20.762,55.333,20.827,58.165z"/>
<rect x="22.493" y="40.679" fill="#018BC9" width="7.066" height="9.811"/>
<rect x="22.493" y="37.132" fill="#006DAE" width="7.066" height="3.547"/>
<rect x="18.886" y="33.396" fill="#99A8AE" width="14.282" height="5.543"/>
<rect x="20.792" y="33.396" fill="#CFD8DD" width="3.154" height="5.543"/>
<rect x="29.593" y="33.396" fill="#6E8189" width="3.575" height="5.543"/>
<path fill="#99A8AE" d="M62,22.205c-3.542-0.596-8.974,2.693-7.877-4.557c0,0-7.923-1.926-15.145,0
	c0.996,7.25-15.594,1.805-17.438,15.747h5.097c7.171-6.738,9.552,0.551,18.767,0.551c11.607,0,8.121-4.643,16.596-3.578V22.205z"/>
<path fill="#6E8189" d="M62,26.198c-7.628,0-12.908,6.281-19.267,3.599c-6.258-2.641-13.52-4.456-16.408,3.599h4.482
	c2.492-4.153,7.027,1.694,14.147,2.01c9.317,0.413,10.713-4.035,17.045-3.464V26.198z"/>
<path fill-rule="evenodd" clip-rule="evenodd" fill="#CFD8DD" d="M23.553,30.399c-0.734,2.921,1.573-2.244,7.026-5.217
	C34.826,22.869,25.102,24.231,23.553,30.399z"/>
<path fill-rule="evenodd" clip-rule="evenodd" fill="#CFD8DD" d="M41.354,18.636c-0.314-1.405-1.108,2.21-4.221,3.648
	C32.298,24.521,42.637,24.379,41.354,18.636z"/>
<rect x="44.258" y="7.721" fill="#99A8AE" width="4.783" height="2.202"/>
<path fill="#99A8AE" d="M32.285,5.337c0-6.146,13.15-1.907,13.15,0C45.436,7.171,32.285,11.368,32.285,5.337z"/>
<path fill-rule="evenodd" clip-rule="evenodd" fill="#CFD8DD" d="M33.104,4.605c0.109,0.658,1.512-0.627,2.929-1.734
	C36.948,2.162,32.784,2.628,33.104,4.605z"/>
<path fill="#99A8AE" d="M61.016,5.337c0-6.146-13.152-1.907-13.152,0C47.863,7.171,61.016,11.368,61.016,5.337z"/>
<path fill-rule="evenodd" clip-rule="evenodd" fill="#CFD8DD" d="M60.196,4.605c-0.108,0.658-1.51-0.627-2.929-1.734
	C56.353,2.162,60.517,2.628,60.196,4.605z"/>
<path fill="#6E8189" d="M44.221,4.345c0,1.424-7.931,4.271-11.475,2.647c2.321,3.466,12.689-0.021,12.689-1.65
	C45.436,4.97,44.221,4.253,44.221,4.345z"/>
<path fill="#6E8189" d="M60.846,4.248c-0.584,4.375-9.612,2.874-12.959,1.199c0.489,1.883,13.129,5.805,13.129-0.11
	C61.016,4.928,60.953,4.568,60.846,4.248z"/>
<path fill="#99A8AE" d="M41.868,5.301c0-4.401,9.563-4.401,9.563,0C51.432,9.705,41.868,9.705,41.868,5.301z"/>
<path fill="#6E8189" d="M49.666,2.696c0.337,0.45,0.553,0.981,0.553,1.613c0,3.2-5.035,4.063-7.797,2.614
	c2.015,2.687,9.01,2.154,9.01-1.617C51.432,4.103,50.706,3.241,49.666,2.696z"/>
<path fill-rule="evenodd" clip-rule="evenodd" fill="#CFD8DD" d="M43.048,4.128c0.104,0.518,1.449-0.494,2.808-1.363
	C46.733,2.206,42.743,2.574,43.048,4.128z"/>
<path fill="#99A8AE" d="M55.119,12.619c0,0-3.268-3.437-8.469-3.437c-5.2,0-8.468,3.437-8.468,3.437H55.119z"/>
<path fill-rule="evenodd" clip-rule="evenodd" fill="#CFD8DD" d="M40.453,11.738c-0.61,0.797,2.34-0.472,4.063-1.468
	C46.416,9.174,41.668,10.156,40.453,11.738z"/>
<polygon fill="#CFD8DD" points="56.057,17.655 51.445,18.053 51.445,12.479 56.057,12.882 "/>
<rect x="41.855" y="12.479" fill="#E6EBEF" width="9.59" height="5.573"/>
<polygon fill="#CFD8DD" points="41.855,18.053 37.244,17.655 37.244,12.882 41.855,12.479 "/>
<path fill="#6E8189" d="M51.997,17.259c-0.112-0.081-0.199-0.191-0.273-0.321c-0.103-0.495-0.103-2.843,0-3.338
	c0.074-0.13,0.161-0.239,0.273-0.32c0.814-0.587,4.06-0.399,4.06-0.399s0-0.398-0.554-0.398c-0.979,0-16.825,0-17.704,0
	c-0.554,0-0.555,0.397-0.555,0.397s3.242-0.188,4.059,0.399c0.111,0.081,0.203,0.189,0.274,0.32c0.102,0.495,0.102,2.844,0,3.338
	c-0.071,0.131-0.163,0.24-0.274,0.321c-0.815,0.587-4.059,0.398-4.059,0.398s0,0.399,0.555,0.399c0.979,0,16.823,0,17.704,0
	c0.554,0,0.554-0.398,0.554-0.398S52.812,17.846,51.997,17.259z M50.892,17.259c-1.304,0.938-7.178,0.939-8.484,0
	c-0.112-0.081-0.202-0.19-0.272-0.32c-0.104-0.496-0.104-2.845,0-3.339c0.07-0.13,0.16-0.239,0.272-0.32
	c1.307-0.94,7.181-0.94,8.484,0c0.112,0.081,0.202,0.188,0.274,0.32c0.102,0.495,0.102,2.844,0,3.339
	C51.094,17.068,51.004,17.178,50.892,17.259z"/>
</svg>
