<?xml version="1.0" encoding="utf-8"?>
<!-- Generator: Adobe Illustrator 15.0.0, SVG Export Plug-In . SVG Version: 6.00 Build 0)  -->
<!DOCTYPE svg PUBLIC "-//W3C//DTD SVG 1.1//EN" "http://www.w3.org/Graphics/SVG/1.1/DTD/svg11.dtd">
<svg version="1.1" id="Layer_1" xmlns="http://www.w3.org/2000/svg" xmlns:xlink="http://www.w3.org/1999/xlink" x="0px" y="0px"
	 width="64px" height="64px" viewBox="0 0 64 64" enable-background="new 0 0 64 64" xml:space="preserve">
<path fill="#EBBEA0" d="M38.226,13.654c0,0-1.976,4.455-1.409,7.768C28.579,25.204,31.924,12.671,38.226,13.654z"/>
<path fill="#BF8D69" d="M28.997,19.698c4.936-1.845,1.485,10.229,6.225-4.697L28.997,19.698z"/>
<path fill="#CFD8DD" d="M41.449,55.878c1.296,3.99-3.832,3.475-1.677,6.112c4.501,0,4.275,0.452,6.551-4.67L48,55.168
	C44.248,49.677,41.449,55.878,41.449,55.878z"/>
<path fill="#CFD8DD" d="M22.51,55.749c-1.588,1.288-4.981-2.877-6.51,0.082c0,0,1.973,3.947,6.226,4.71l2.666,1.449
	C31.116,56.252,22.51,55.749,22.51,55.749z"/>
<path fill="#1A1626" d="M37.341,34.196c-7.944-1.127-8.403,2.748-8.403,2.748c2.029,9.618,4.761,14.701,12.379,19.997
	c0,0,5.856-3.135,4.613-4.139C38.017,46.441,35.517,40.141,37.341,34.196z"/>
<path fill="#302C3B" d="M37.341,34.196c0,0-5.53-2.163-7.403,2.254c-1,6.623-6.564,6.977-8.33,19.299c0,0,5.248,4.933,5.664,3.138
	C31.48,40.77,40.785,44.542,37.341,34.196z"/>
<path fill="#EBBEA0" d="M24.813,35.969l-1.479-2.56c-2.774,0.571-4.48,2.484-2.947,2.686C18.379,37.918,20.569,41.806,24.813,35.969
	z"/>
<path fill="#7AB51D" d="M30.709,22.385c-2.938,6.099-5.188,9.063-7.979,11.148c0,0,0.166,2.172,2.145,2.621
	c3.997-3.83,6.313-7.688,6.313-7.688L30.709,22.385z"/>
<path fill="#92C932" d="M37.806,34.598c0,0-4.364,0.477-8.868,2.546c-0.702-6.175,0.04-13.465,2.788-16.32
	c0.754,1.489,3.016-2.562,5.588-0.188C39.216,25.454,36.503,28.531,37.806,34.598z"/>
<path fill="#EBBEA0" d="M42.964,36.465l-3.003,0.355c-1.45,2.349-1.34,3.368-0.54,3.167c0,0-0.334,2.038,0.523,2.269
	c0.54,0.139,1.018-0.463,1.018-0.463C42.782,41.686,43.57,39.678,42.964,36.465z"/>
<path fill="#7AB51D" d="M37.62,20.995c-2.15-2.888-5.273,1.095-3.296,3.335c4.321,4.908,4.722,6.098,5.212,12.985
	c0,0,3.808,0.139,3.713-0.881C42.402,27.356,42.823,27.976,37.62,20.995z"/>
<path fill="#EBBEA0" d="M33.957,2.673c-7.286,0-9.001,4.092-8.299,7.014c0.352,1.462-0.365,2.686-1.451,3.737
	c-1.032,0.999,0.279,1.639,1.078,1.639c0.195,0.537-0.109,0.681-0.109,0.681s1.003,0.703,0.79,0.941
	c-0.313,0-0.582,0.575-0.011,0.856c0.631,0.311-0.863,2.563,1.674,2.378c2.054-0.15,5.392-1.51,5.911-1.962
	c0.593-0.517,2.01-3.39,2.01-3.39C39.396,13.926,44.932,8.433,33.957,2.673z"/>
<path fill="#BF8D69" d="M34.85,11.811c-0.045-1.058,0.787-2.009,1.657-2.045c0,0-1.443,1.314-0.99,3
	C35.517,12.766,34.879,12.548,34.85,11.811z"/>
<path fill="#C8A35D" d="M25.77,6.868c9.097-3.736,5.98,2.303,8.333,4.81c0.717-2.808,2.8-3.363,3.479-1.692
	c0.775,1.908-0.339,4.429-1.96,4.215c0.18,0.626,1.57,2.484,1.57,2.484C41.039,16.179,44.738,2.001,33.176,2
	C28.893,1.999,24.981,3.762,25.77,6.868z"/>
<path fill="#DEA885" d="M28.247,15.716c-0.766,1.245-1.598,1.835-2.135,2.065c-0.869-0.266-0.487-1.195-0.084-1.195
	C26.339,16.586,26.909,16.267,28.247,15.716z"/>
<path fill="#BF8D69" d="M28.247,15.716c-0.73,0.761-2.235,0.941-2.235,0.941c-0.222-0.071-0.836-0.247-0.836-0.914
	C25.606,16.082,27.141,16.159,28.247,15.716z"/>
<path fill-rule="evenodd" clip-rule="evenodd" fill="#BF8D69" d="M26.198,9.922c0.337-0.578,1.181-0.34,3.478-0.355
	C28.129,8.691,25.988,8.301,26.198,9.922z"/>
<path fill="#FFFFFF" d="M29.024,10.666c-0.209,1.986-1.454,1.817-1.752,1.817C26.898,12.253,25.742,8.964,29.024,10.666z"/>
<path fill="#45332C" d="M26.692,11.117c0.246,1.533,0.967,1.813,0.97-0.202C27.665,9.437,26.493,9.885,26.692,11.117z"/>
<path fill-rule="evenodd" clip-rule="evenodd" fill="#45332C" d="M26.669,10.688c0.217-1.469,1.797-0.458,2.49,0
	C28.088,10.521,27.348,10.049,26.669,10.688z"/>
</svg>
