<?xml version="1.0" encoding="utf-8"?>
<!-- Generator: Adobe Illustrator 16.2.0, SVG Export Plug-In . SVG Version: 6.00 Build 0)  -->
<!DOCTYPE svg PUBLIC "-//W3C//DTD SVG 1.1//EN" "http://www.w3.org/Graphics/SVG/1.1/DTD/svg11.dtd">
<svg version="1.1" id="Layer_1" xmlns="http://www.w3.org/2000/svg" xmlns:xlink="http://www.w3.org/1999/xlink" x="0px" y="0px"
	 width="64px" height="64px" viewBox="0 0 64 64" enable-background="new 0 0 64 64" xml:space="preserve">
<path fill="#302C3B" d="M36,52h-2c-0.553,0-1,0.447-1,1s0.447,1,1,1h2c0.553,0,1-0.447,1-1S36.553,52,36,52z"/>
<g>
	<path fill="#302C3B" d="M13.5,62C7.159,62,2,56.842,2,50.5C2,44.16,7.159,39,13.5,39C19.841,39,25,44.16,25,50.5
		C25,56.842,19.841,62,13.5,62z M13.5,41.447c-4.992,0-9.053,4.061-9.053,9.053s4.061,9.055,9.053,9.055s9.053-4.063,9.053-9.055
		S18.492,41.447,13.5,41.447z"/>
</g>
<g>
	<path fill="#302C3B" d="M50.5,62C44.159,62,39,56.842,39,50.5C39,44.16,44.159,39,50.5,39S62,44.16,62,50.5
		C62,56.842,56.841,62,50.5,62z M50.5,41.447c-4.992,0-9.054,4.061-9.054,9.053s4.062,9.055,9.054,9.055
		c4.991,0,9.054-4.063,9.054-9.055S55.491,41.447,50.5,41.447z"/>
</g>
<g>
	<polygon fill="#0FB4D4" points="37.941,40 19,30.193 20.058,28 39,37.807 	"/>
</g>
<g>
	<polygon fill="#0FB4D4" points="50.537,51.624 31.402,51.624 17.047,32.862 18.975,31.35 32.598,49.153 50.537,49.153 	"/>
</g>
<g>
	<polygon fill="#0FB4D4" points="49.015,50 39,35.287 40.986,34 51,48.713 	"/>
</g>
<polygon fill="#75D6FF" points="41,35 48,46 40.5,36 "/>
<g>
	<polygon fill="#0FB4D4" points="33.091,50.94 30.909,49.837 42.641,27.094 44.822,28.2 	"/>
</g>
<g>
	<circle fill="#99A8AE" cx="32" cy="50.389" r="4"/>
</g>
<g>
	<circle fill="#6E8189" cx="32" cy="50.389" r="2"/>
</g>
<g>
	<path fill="#302C3B" d="M31.609,55.793c-2.696,0-4.975-2.489-4.975-5.436c0-3.103,2.516-5.682,5.412-5.413
		c3.242,0.313,8.839,0.92,13.337,1.407c1.987,0.216,3.807,0.412,5.204,0.561c1.95,0.205,3.364,1.654,3.364,3.445
		s-1.414,3.24-3.364,3.444c-1.397,0.149-3.216,0.346-5.202,0.562c-4.5,0.487-10.097,1.094-13.339,1.408
		C31.899,55.786,31.753,55.793,31.609,55.793z M31.612,45.91c-2.169,0-4.002,2.036-4.002,4.447c0,2.538,2.025,4.664,4.344,4.431
		c3.237-0.313,8.831-0.919,13.326-1.407c1.988-0.216,3.808-0.413,5.207-0.562c1.466-0.154,2.489-1.167,2.489-2.462
		s-1.023-2.308-2.489-2.462c-1.399-0.149-3.22-0.345-5.208-0.561c-4.495-0.487-10.089-1.093-13.325-1.407
		C31.839,45.916,31.725,45.91,31.612,45.91z"/>
</g>
<line fill="none" stroke="#E6EBEF" stroke-miterlimit="10" x1="30" y1="47" x2="32" y2="50.389"/>
<g>
	<circle fill="#302C3B" cx="50.537" cy="50.389" r="2"/>
</g>
<path fill="#302C3B" d="M30,46h-2c-0.552,0-1,0.447-1,1s0.448,1,1,1h2c0.553,0,1-0.447,1-1S30.553,46,30,46z"/>
<g>
	<circle fill="#E6EBEF" cx="32" cy="50.389" r="1"/>
</g>
<path fill="#0FB4D4" d="M21.375,28c0,0-4.78,12.718-4.865,13c1.28,5.895-2.261,10.39-2.261,10.39l-1.875-2.001
	C15.502,46,14.078,41,14.078,41l4.864-13H21.375z"/>
<rect x="18" y="26" fill="#99A8AE" width="4" height="2"/>
<g>
	<circle fill="#302C3B" cx="13.463" cy="50.389" r="2"/>
</g>
<polygon fill="#75D6FF" points="20.5,28 15.5,39 19.582,28 "/>
<path fill="#018BC9" d="M42.03,28.331l-1.304,2.641C41.148,30.99,41.58,31,42.013,31c0.493,0,0.972-0.01,1.44-0.026l1.369-2.774
	L42.03,28.331z"/>
<path fill="#302C3B" d="M47.05,25c-2.011,0-4.021,2.094-9.757,1.43c-0.47-0.054-0.303,1.401,0,1.713
	C37.969,28.842,40.008,29,42.013,29c2.834,0,5.347-0.229,6.517-1C48.946,27.726,49.832,25,47.05,25z"/>
<path fill="#6E8189" d="M48,26.591c0-1.715-6.125,0.809-8,1.202C40,27.792,48,28.738,48,26.591z"/>
<path fill="#99A8AE" d="M19,19c-2,0-3,1-3,2.5c0,2.5,3,3.5,3,4.5h2c0-2-3-3-3-4c0-0.552,0.448-1,1-1h5v-2H19z"/>
<path fill="#302C3B" d="M27,19h-3v-1h-1v4h1v-1h3c0.461,0,1-0.31,1-1C28,19.31,27.461,19,27,19z"/>
</svg>
