<?xml version="1.0" encoding="utf-8"?>
<!-- Generator: Adobe Illustrator 15.0.0, SVG Export Plug-In . SVG Version: 6.00 Build 0)  -->
<!DOCTYPE svg PUBLIC "-//W3C//DTD SVG 1.1//EN" "http://www.w3.org/Graphics/SVG/1.1/DTD/svg11.dtd">
<svg version="1.1" id="Layer_1" xmlns="http://www.w3.org/2000/svg" xmlns:xlink="http://www.w3.org/1999/xlink" x="0px" y="0px"
	 width="64px" height="64px" viewBox="0 0 64 64" enable-background="new 0 0 64 64" xml:space="preserve">
<path fill="#E81C27" d="M32,2C15.432,2,2,15.432,2,32s13.432,30,30,30s30-13.432,30-30S48.568,2,32,2z M32,56
	C18.744,56,8,45.256,8,32C8,18.746,18.744,8,32,8c13.254,0,24,10.746,24,24C56,45.256,45.254,56,32,56z"/>
<path fill="#302C3B" d="M41.969,47.213l-3.881-9.293c-0.281-0.76-0.543-3.213-0.543-3.213l0,0c-0.023-0.26-0.068-0.518-0.137-0.766
	l-2.289-8.799l2.967,1.516v2.785c0,0.881,0.699,1.594,1.564,1.594c0.863,0,1.564-0.713,1.564-1.594v-4.754l-8.361-4.264
	l-0.008-0.002l0,0c-0.531-0.258-1.125-0.398-1.754-0.398c-1.229,0-2.33,0.547-3.084,1.414L28,21.432l-4.023,4.1h-5.021
	c-0.863,0-1.563,0.711-1.563,1.592c0,0.883,0.699,1.596,1.563,1.596h6.318l2.271-2.314l1.449,6.736l-4.148,4.227v10.502
	c0,0.883,0.701,1.594,1.564,1.594c0.865,0,1.564-0.711,1.564-1.594v-9.182l3.311-3.369c0.279-0.281,0.666-0.457,1.092-0.457
	c0.635,0,1.184,0.389,1.426,0.943l5.289,12.658c0.23,0.588,0.793,1,1.451,1c0.863,0,1.564-0.711,1.564-1.594
	C42.107,47.635,42.059,47.414,41.969,47.213z"/>
<circle fill="#302C3B" cx="29.749" cy="15.695" r="2.931"/>
<rect x="2.815" y="29" transform="matrix(-0.7071 -0.7071 0.7071 -0.7071 31.9989 77.2548)" fill="#E81C27" width="58.371" height="6.001"/>
</svg>
