<?xml version="1.0" encoding="utf-8"?>
<!-- Generator: Adobe Illustrator 15.0.0, SVG Export Plug-In . SVG Version: 6.00 Build 0)  -->
<!DOCTYPE svg PUBLIC "-//W3C//DTD SVG 1.1//EN" "http://www.w3.org/Graphics/SVG/1.1/DTD/svg11.dtd">
<svg version="1.1" id="Layer_1" xmlns="http://www.w3.org/2000/svg" xmlns:xlink="http://www.w3.org/1999/xlink" x="0px" y="0px"
	 width="64px" height="64px" viewBox="0 0 64 64" enable-background="new 0 0 64 64" xml:space="preserve">
<polygon fill="#CFD8DD" points="36.041,21.069 50.874,2 61.121,2 49.635,21.069 "/>
<path fill="#BEC3CF" d="M48.284,5.33c0,0,3.034,1.845,6.419,1.673C58.111,6.829,61.121,2,61.121,2l-5.486,9.108L48.284,5.33z"/>
<path fill="#CFD8DD" d="M57.758,37.334L23.246,9.803C39.49-11.709,74.002,15.823,57.758,37.334z"/>
<path fill="#99A8AE" d="M27.73,5.336c-3.105,0-7.546,3.555-7.546,3.555l38.19,30.519c0,0,3.467-4.223,2.609-8.792
	c-0.36-1.921-1.591-4.548-3.26-7.075c-1.677-2.541-3.791-4.97-6.174-7.182c-2.39-2.218-5.04-4.209-7.785-5.871
	c-2.739-1.661-5.563-2.985-8.302-3.879C32.736,5.723,30.104,5.266,27.73,5.336"/>
<path fill="#6E8189" d="M26.467,6.735c-2.525,0.074-5.268,0.768-6.941,2.86c-1.789,2.237-1.718,5.334-0.975,7.979
	c1.629,5.803,5.995,10.738,10.406,14.532c4.768,4.101,10.42,7.466,16.467,9.075c4.62,1.23,12.195,1.838,14.227-3.938
	c1.318-3.747-0.439-7.999-2.337-11.188c-2.142-3.6-5.005-6.733-8.146-9.431c-3.275-2.813-6.922-5.203-10.816-7
	C34.652,7.915,30.563,6.614,26.467,6.735"/>
<path fill="#99A8AE" d="M27.927,8.807c-2.503,0.07-5.251,0.855-6.618,3.198c-1.404,2.403-0.862,5.446,0.109,7.901
	c2.225,5.629,6.88,10.241,11.646,13.658c4.946,3.545,11.209,6.711,17.393,6.417c2.484-0.118,5.159-0.998,6.43-3.374
	c1.344-2.511,0.68-5.613-0.372-8.102c-2.327-5.505-6.896-10.009-11.628-13.373C40.033,11.686,33.965,8.639,27.927,8.807"/>
<path fill="#302C3B" d="M44.829,33.482c-1.207-0.019-0.925,1.188-0.394,1.859c0.635,0.804,1.711,1.539,2.746,1.561
	c1.209,0.027,0.951-1.166,0.415-1.849C46.96,34.242,45.875,33.497,44.829,33.482"/>
<path fill="#302C3B" d="M36.354,23.533c-1.369,0.004-0.99,1.412-0.404,2.156c0.711,0.902,1.924,1.748,3.092,1.752
	c1.377,0.006,1.016-1.398,0.424-2.152C38.752,24.381,37.529,23.527,36.354,23.533"/>
<path fill="#302C3B" d="M29.521,11.123c-1.533,0.034-1.035,1.671-0.397,2.479c0.788,0.999,2.135,1.957,3.435,1.938
	c1.541-0.023,1.067-1.646,0.422-2.469C32.191,12.063,30.83,11.092,29.521,11.123"/>
<path fill="#302C3B" d="M25.614,18.933c-1.231,0.017-0.799,1.325-0.294,1.959c0.637,0.796,1.713,1.568,2.755,1.563
	c1.231-0.006,0.812-1.313,0.306-1.951C27.746,19.704,26.659,18.921,25.614,18.933"/>
<path fill="#302C3B" d="M33.225,29.488c-0.922-0.006-0.627,0.948-0.245,1.428c0.48,0.602,1.282,1.164,2.063,1.173
	c1.024,0.013,0.559-1.089,0.146-1.55C34.71,30.002,33.959,29.492,33.225,29.488"/>
<path fill="#302C3B" d="M41.082,17.289c-1.676,0.021-1.26,1.741-0.531,2.676c0.866,1.111,2.354,2.142,3.788,2.135
	c1.677-0.008,1.28-1.725,0.552-2.666C44.024,18.315,42.521,17.271,41.082,17.289"/>
<path fill="#302C3B" d="M49.86,27.895c-1.51-0.008-1.196,1.494-0.523,2.357c0.789,1.01,2.133,1.92,3.431,1.937
	c1.506,0.02,1.217-1.475,0.544-2.342C52.522,28.829,51.165,27.9,49.86,27.895"/>
<polygon fill="#75D6FF" points="30.035,11.536 2.079,28.809 2.079,29.814 30.704,12.215 "/>
<polygon fill="#75D6FF" points="26.447,19.135 2.079,39.684 2.079,40.689 26.929,19.842 "/>
<polygon fill="#75D6FF" points="27.177,19.928 2.079,44.326 2.079,45.331 27.699,20.485 "/>
<polygon fill="#75D6FF" points="28.018,20.85 2.079,48.081 2.079,49.087 28.498,21.348 "/>
<polygon fill="#75D6FF" points="31.266,12.553 2.079,32.363 2.079,33.398 31.938,13.331 "/>
<polygon fill="#75D6FF" points="32.309,13.627 2.079,35.982 2.079,37.244 32.918,14.418 "/>
<polygon fill="#75D6FF" points="41.169,17.903 2.079,51.177 2.079,52.569 41.98,18.548 "/>
<polygon fill="#75D6FF" points="36.479,23.616 2.079,56.064 2.079,57.457 37.174,24.334 "/>
<polygon fill="#75D6FF" points="42.623,18.933 7.87,62 9.156,62 43.398,19.563 "/>
<polygon fill="#75D6FF" points="37.317,24.363 2,62 3.286,62 38.093,24.993 "/>
<polygon fill="#75D6FF" points="38.688,25.73 13.026,62 14.313,62 39.463,26.36 "/>
<polygon fill="#75D6FF" points="43.957,19.928 17.795,62 18.934,62 44.769,20.588 "/>
<polygon fill="#75D6FF" points="49.907,28.312 30.145,62 31.211,62 50.762,28.799 "/>
<polygon fill="#75D6FF" points="44.713,33.748 21.848,62 22.914,62 45.568,34.235 "/>
<polygon fill="#75D6FF" points="45.795,34.436 26.09,62 27.156,62 46.648,34.923 "/>
<polygon fill="#75D6FF" points="46.974,35.192 34.109,62 35.177,62 47.828,35.68 "/>
<polygon fill="#75D6FF" points="51.318,29.27 37.368,62 38.382,62 52.203,29.707 "/>
<polygon fill="#75D6FF" points="52.498,30.173 40.875,62 41.877,62 53.444,30.673 "/>
<path fill-rule="evenodd" clip-rule="evenodd" fill="#E6EBEF" d="M45.115,6.844c0.621,2.231-5.145-0.14-10.705-1.913
	C30.824,3.793,43.252,0.128,45.115,6.844z"/>
<path fill-rule="evenodd" clip-rule="evenodd" fill="#E6EBEF" d="M55.338,2h-2.731c-1.062,0.907-2.659,3.133-1.636,2.974
	C51.295,4.924,53.295,3.871,55.338,2z"/>
</svg>
