<?xml version="1.0" encoding="utf-8"?>
<!-- Generator: Adobe Illustrator 15.0.0, SVG Export Plug-In . SVG Version: 6.00 Build 0)  -->
<!DOCTYPE svg PUBLIC "-//W3C//DTD SVG 1.1//EN" "http://www.w3.org/Graphics/SVG/1.1/DTD/svg11.dtd">
<svg version="1.1" id="Layer_1" xmlns="http://www.w3.org/2000/svg" xmlns:xlink="http://www.w3.org/1999/xlink" x="0px" y="0px"
	 width="64px" height="64px" viewBox="0 0 64 64" enable-background="new 0 0 64 64" xml:space="preserve">
<path fill="#006DAE" d="M62,50c0,6.6-5.4,12-12,12H14C7.4,62,2,56.6,2,50V14C2,7.399,7.4,2,14,2h36c6.6,0,12,5.399,12,12V50z"/>
<path fill="#014D87" d="M56.838,4.162C58.197,6.105,59,8.462,59,11v37c0,6.6-4.398,11-11,11H11c-2.537,0-4.895-0.805-6.838-2.162
	C6.336,59.949,9.938,62,14,62h36c6.602,0,12-5.4,12-12V14C62,9.938,59.951,6.336,56.838,4.162z"/>
<path fill-rule="evenodd" clip-rule="evenodd" fill="#0FB4D4" d="M4.975,12.585c0.338,2.703,4.793-2.587,9.303-7.136
	C17.188,2.524,3.957,4.45,4.975,12.585z"/>
<path fill="#FFFFFF" d="M46.29,33.061c-8.403-8.505-0.085,0.017-8.403-8.505c-0.362-0.37-1.176-0.843-1.89-0.843
	c-2.313,0-5.682,0-7.994,0c-0.714,0-1.528,0.473-1.89,0.843c-8.318,8.521,0,0-8.403,8.505c-1.666,1.686,1.042,4.494,2.734,2.834
	c5.264-5.163,5.264-5.163,5.264-5.163l-0.034,4.454h12.65l-0.033-4.454c0,0,0,0,5.264,5.163
	C45.247,37.555,47.955,34.746,46.29,33.061z"/>
<path fill="#FFFFFF" d="M25.686,37.66l4.747,4.748l-3.464,3.374c0,0,0,0,3.69,3.825c1.873,1.941-1.194,4.672-3.06,2.722
	c-5.917-6.187,0,0-5.917-6.187c-1.28-1.338-0.893-3.641,0-4.522C25.686,37.66,25.686,37.66,25.686,37.66z"/>
<path fill="#FFFFFF" d="M38.313,37.66l-4.746,4.748l3.465,3.374c0,0,0,0-3.69,3.825c-1.873,1.941,1.194,4.672,3.06,2.722
	c5.917-6.187,0,0,5.917-6.187c1.28-1.338,0.893-3.641,0-4.522C38.313,37.66,38.313,37.66,38.313,37.66z"/>
<circle fill="#FFFFFF" cx="32" cy="16.891" r="5.891"/>
</svg>
