<?xml version="1.0" encoding="utf-8"?>
<!-- Generator: Adobe Illustrator 15.0.0, SVG Export Plug-In . SVG Version: 6.00 Build 0)  -->
<!DOCTYPE svg PUBLIC "-//W3C//DTD SVG 1.1//EN" "http://www.w3.org/Graphics/SVG/1.1/DTD/svg11.dtd">
<svg version="1.1" id="Layer_1" xmlns="http://www.w3.org/2000/svg" xmlns:xlink="http://www.w3.org/1999/xlink" x="0px" y="0px"
	 width="64px" height="64px" viewBox="0 0 64 64" enable-background="new 0 0 64 64" xml:space="preserve">
<path fill="#E81C27" d="M32,2C15.432,2,2,15.432,2,32s13.432,30,30,30s30-13.432,30-30S48.568,2,32,2z M32,56
	C18.746,56,8,45.256,8,32C8,18.746,18.746,8,32,8c13.256,0,24,10.746,24,24C56,45.256,45.256,56,32,56z"/>
<path fill="#302C3B" d="M51.998,32.824c-0.373-0.887-0.91-1.682-1.594-2.365c-0.682-0.682-1.477-1.219-2.363-1.594
	c-0.916-0.389-1.891-0.586-2.895-0.586s-1.977,0.197-2.895,0.586c-0.27,0.115-0.533,0.244-0.785,0.389l-2.533-3.467l0.873-2.211
	c0.844-0.471,1.906-1.141,2.221-1.699c0.549-0.971-1.363-0.42-5.533-0.42c0,0-2.242-0.223-1.219,0.803
	c0.646,0.645,1.828,1.234,2.611,1.582l-0.426,1.078H26.586c0.01-0.063,0.018-0.123,0.023-0.186c0.123-1.176-0.385-2.16-1.143-3.309
	c-0.063-0.094-0.121-0.178-0.172-0.258c-0.041-0.063-0.061-0.139-0.061-0.219c0-0.234,0.188-0.422,0.422-0.422
	c0.838,0,3.354,0,3.354,0l1.055-1.689h-5.313c0,0-0.029,0.004-0.037,0.004c-0.516,0.047-1.217,0.344-1.486,1.021
	c-0.154,0.389-0.143,0.822,0.035,1.291c0.16,0.418,0.451,0.865,0.895,1.365c1.322,1.506,0.707,2.691,0.059,3.949
	c-0.061,0.115-0.121,0.236-0.182,0.352c-0.186,0.375-0.793,1.287-1.564,2.398c-0.232-0.131-0.475-0.248-0.721-0.354
	c-0.92-0.389-1.893-0.586-2.896-0.586s-1.977,0.197-2.896,0.586c-0.885,0.375-1.68,0.912-2.361,1.594
	c-0.684,0.684-1.219,1.479-1.594,2.365c-0.389,0.918-0.584,1.893-0.584,2.898c0,1.004,0.195,1.977,0.584,2.895
	c0.375,0.887,0.91,1.684,1.594,2.367c0.682,0.682,1.477,1.219,2.361,1.594c0.92,0.389,1.893,0.586,2.896,0.586
	s1.977-0.197,2.896-0.586c0.885-0.375,1.68-0.912,2.361-1.594c0.684-0.684,1.219-1.48,1.594-2.367
	c0.389-0.918,0.584-1.891,0.584-2.895c0-1.006-0.195-1.98-0.584-2.898c-0.375-0.887-0.91-1.682-1.594-2.365
	c-0.086-0.088-0.176-0.172-0.268-0.256c0.264-0.379,0.51-0.74,0.73-1.072l7.035,7.16c-0.098,0.242-0.15,0.51-0.15,0.787
	c0,1.102,0.844,2.006,1.918,2.104l0.371,2.287h-0.666v0.846h2.32v-0.846h-0.801l-0.385-2.381c0.654-0.213,1.17-0.736,1.369-1.395
	l2.32-0.273c0.094,0.41,0.223,0.809,0.389,1.197c0.375,0.887,0.91,1.684,1.594,2.367c0.682,0.682,1.479,1.219,2.363,1.594
	c0.918,0.389,1.891,0.586,2.895,0.586s1.979-0.197,2.895-0.586c0.887-0.375,1.682-0.912,2.363-1.594
	c0.684-0.684,1.221-1.48,1.594-2.367c0.389-0.918,0.586-1.891,0.586-2.895C52.584,34.717,52.387,33.742,51.998,32.824z
	 M24.604,35.723c0,3.172-2.58,5.752-5.75,5.752s-5.75-2.58-5.75-5.752c0-3.174,2.58-5.754,5.75-5.754
	c0.953,0,1.85,0.234,2.643,0.645c-1.229,1.734-2.582,3.6-3.318,4.602c0,0.002,0,0.002,0,0.002c-0.002,0.002-0.004,0.004-0.004,0.006
	l0,0c-0.104,0.141-0.164,0.313-0.164,0.5c0,0.465,0.377,0.844,0.844,0.844c0.279,0,0.525-0.137,0.68-0.346v0.002
	c0.297-0.406,1.861-2.543,3.33-4.619C23.936,32.648,24.604,34.107,24.604,35.723z M25.545,27.576
	c0.055-0.105,0.111-0.215,0.17-0.332c0.104-0.199,0.213-0.41,0.32-0.637h10.76l-3.26,8.25l-0.484-3.014h0.664v-0.846h-2.32v0.846
	h0.801l0.508,3.152L25.5,27.664C25.518,27.633,25.531,27.604,25.545,27.576z M35.389,36.016c-0.09-0.156-0.199-0.299-0.326-0.426
	l3.139-7.945l1.904,2.607c-0.074,0.066-0.146,0.137-0.217,0.207c-0.684,0.684-1.219,1.479-1.594,2.365
	c-0.389,0.918-0.584,1.893-0.584,2.898c0,0.006,0,0.014,0,0.02L35.389,36.016z M41.109,31.629l2.502,3.422l-4.209,0.494
	C39.447,34.016,40.094,32.635,41.109,31.629z M45.146,41.475c-2.652,0-4.889-1.807-5.549-4.254l7.084-0.83l-4.209-5.76
	c0.799-0.422,1.709-0.662,2.674-0.662c3.17,0,5.748,2.58,5.748,5.754C50.895,38.895,48.316,41.475,45.146,41.475z"/>
<rect x="2.815" y="29" transform="matrix(-0.7071 -0.7071 0.7071 -0.7071 31.9989 77.2548)" fill="#E81C27" width="58.371" height="6.001"/>
</svg>
