<?xml version="1.0" encoding="utf-8"?>
<!-- Generator: Adobe Illustrator 15.0.0, SVG Export Plug-In . SVG Version: 6.00 Build 0)  -->
<!DOCTYPE svg PUBLIC "-//W3C//DTD SVG 1.1//EN" "http://www.w3.org/Graphics/SVG/1.1/DTD/svg11.dtd">
<svg version="1.1" id="Layer_1" xmlns="http://www.w3.org/2000/svg" xmlns:xlink="http://www.w3.org/1999/xlink" x="0px" y="0px"
	 width="64px" height="64px" viewBox="0 0 64 64" enable-background="new 0 0 64 64" xml:space="preserve">
<path fill="#006DAE" d="M62,50c0,6.6-5.4,12-12,12H14C7.4,62,2,56.6,2,50V14C2,7.399,7.4,2,14,2h36c6.6,0,12,5.399,12,12V50z"/>
<path fill="#014D87" d="M56.838,4.162C58.197,6.105,59,8.462,59,11v37c0,6.6-4.398,11-11,11H11c-2.537,0-4.895-0.805-6.838-2.162
	C6.336,59.949,9.938,62,14,62h36c6.602,0,12-5.4,12-12V14C62,9.938,59.951,6.336,56.838,4.162z"/>
<path fill-rule="evenodd" clip-rule="evenodd" fill="#0FB4D4" d="M4.975,12.585c0.338,2.703,4.793-2.587,9.303-7.136
	C17.188,2.524,3.957,4.45,4.975,12.585z"/>
<path fill="#FFFFFF" d="M15.586,45L11,19h3.971l2.895,17.855L21.375,19h4.609l3.365,18.16L32.297,19h3.904l-4.666,26h-4.111
	l-3.822-19.439L19.789,45H15.586z"/>
<path fill="#FFFFFF" d="M46,41.287c-1.93,0-3.5-1.67-3.5-3.717V26.428c0-2.047,1.57-3.713,3.5-3.713s3.5,1.666,3.5,3.713H53
	C53,22.334,49.861,19,46,19c-3.857,0-7,3.334-7,7.428V37.57c0,4.098,3.143,7.43,7,7.43c3.861,0,7-3.332,7-7.43h-3.5
	C49.5,39.617,47.93,41.287,46,41.287z"/>
</svg>
