<?xml version="1.0" encoding="utf-8"?>
<!-- Generator: Adobe Illustrator 15.0.0, SVG Export Plug-In . SVG Version: 6.00 Build 0)  -->
<!DOCTYPE svg PUBLIC "-//W3C//DTD SVG 1.1//EN" "http://www.w3.org/Graphics/SVG/1.1/DTD/svg11.dtd">
<svg version="1.1" id="Layer_1" xmlns="http://www.w3.org/2000/svg" xmlns:xlink="http://www.w3.org/1999/xlink" x="0px" y="0px"
	 width="64px" height="64px" viewBox="0 0 64 64" enable-background="new 0 0 64 64" xml:space="preserve">
<path fill="#99A8AE" d="M60,48h-2.022V26.754c0-9.922-4.969-17.858-13.291-21.229C37.536,2.63,29.74,3.862,24.825,8.667l-1.43-1.398
	c5.496-5.372,14.158-6.772,22.065-3.57C54.565,7.386,60,16.005,60,26.754V48z"/>
<path fill="#6E8189" d="M24.34,8.192l0.485,0.474c3.014-2.946,7.111-4.542,11.478-4.673C31.809,3.897,27.538,5.341,24.34,8.192z"/>
<path fill="#6E8189" d="M45.46,3.699c-3.035-1.229-6.18-1.774-9.214-1.683c2.719,0.046,5.504,0.59,8.203,1.683
	c9.104,3.688,14.54,12.307,14.54,23.056V48H60V26.755C60,16.005,54.565,7.386,45.46,3.699z"/>
<path fill="#E6EBEF" d="M14,7.67v7.908h20.22V7.67C34.22,6.352,14,6.352,14,7.67z"/>
<path fill="#FFFFFF" d="M16.136,15.331h3.817V7.003c-1.48,0.057-2.811,0.149-3.817,0.276V15.331z"/>
<path fill="#6E8189" d="M34.22,15.578c0,1.318-20.22,1.318-20.22,0C14,14.26,34.22,14.26,34.22,15.578z"/>
<path fill="#302C3B" d="M33.209,15.331c0,0.989-18.198,0.989-18.198,0C15.011,14.342,33.209,14.342,33.209,15.331z"/>
<path fill="#302C3B" d="M54,56v4.813c0,1.583-6,1.583-6,0V56H54z"/>
<path fill="#302C3B" d="M16,56v4.813c0,1.583-6,1.583-6,0V56H16z"/>
<path fill="#006DAE" d="M56,51.998H8v4.037c0,2.322,1.592,1.941,3.555,1.941h40.889c1.964,0,3.557,0.381,3.557-1.941V51.998z"/>
<rect x="6" y="50" fill="#013366" width="52" height="4"/>
<rect x="6" y="36" fill="#013366" width="52" height="14"/>
<path fill="#006DAE" d="M32.5,48H55V29.788C55,27.697,53.476,26,51.597,26H35.903c-1.88,0-3.403,1.697-3.403,3.788V48z"/>
<path fill="#006DAE" d="M58.999,34C59.856,34,62,33.979,62,35.796v20.407C62,58.02,59.856,58,59,58c-0.857,0-3,0.02-3-1.797V35.796
	C56,33.979,58.143,34,58.999,34z"/>
<path fill="#006DAE" d="M5,34c0.857,0,3-0.021,3,1.796v20.407C8,58.02,5.857,58,5,58c-0.855,0-3,0.02-3-1.797V35.796
	C2,33.979,4.145,34,5,34z"/>
<path fill="#006DAE" d="M9,48h22.5V29.788c0-2.091-1.523-3.788-3.403-3.788H12.403C10.526,26,9,27.697,9,29.788V48z"/>
<path fill="#018BC9" d="M32.5,52H57v-4.037c0-2.318-1.659-1.939-3.706-1.939H36.206c-2.047,0-3.706-0.379-3.706,1.939V52z"/>
<path fill="#018BC9" d="M7,52h24.5v-4.037c0-2.318-1.659-1.939-3.704-1.939h-17.09C8.659,46.023,7,45.645,7,47.963V52z"/>
<path fill="#014D87" d="M47.688,33.313c0,1.334,2,1.334,2,0S47.688,31.979,47.688,33.313z"/>
<path fill="#014D87" d="M37.813,33.313c0,1.334,2,1.334,2,0S37.813,31.979,37.813,33.313z"/>
<path fill="#014D87" d="M47.688,40.688c0,1.334,2,1.334,2,0S47.688,39.354,47.688,40.688z"/>
<path fill="#014D87" d="M37.813,40.688c0,1.334,2,1.334,2,0S37.813,39.354,37.813,40.688z"/>
<path fill="#014D87" d="M14.313,40.688c0,1.334,2,1.334,2,0S14.313,39.354,14.313,40.688z"/>
<path fill="#014D87" d="M24.188,33.313c0,1.334,2,1.334,2,0S24.188,31.979,24.188,33.313z"/>
<path fill="#014D87" d="M14.313,33.313c0,1.334,2,1.334,2,0S14.313,31.979,14.313,33.313z"/>
<path fill="#014D87" d="M24.188,40.688c0,1.334,2,1.334,2,0S24.188,39.354,24.188,40.688z"/>
</svg>
