<?xml version="1.0" encoding="utf-8"?>
<!-- Generator: Adobe Illustrator 15.0.0, SVG Export Plug-In . SVG Version: 6.00 Build 0)  -->
<!DOCTYPE svg PUBLIC "-//W3C//DTD SVG 1.1//EN" "http://www.w3.org/Graphics/SVG/1.1/DTD/svg11.dtd">
<svg version="1.1" id="Layer_1" xmlns="http://www.w3.org/2000/svg" xmlns:xlink="http://www.w3.org/1999/xlink" x="0px" y="0px"
	 width="64px" height="64px" viewBox="0 0 64 64" enable-background="new 0 0 64 64" xml:space="preserve">
<path fill="#006DAE" d="M62,50c0,6.6-5.4,12-12,12H14C7.4,62,2,56.6,2,50V14C2,7.399,7.4,2,14,2h36c6.6,0,12,5.399,12,12V50z"/>
<path fill="#014D87" d="M56.838,4.162C58.197,6.105,59,8.462,59,11v37c0,6.6-4.398,11-11,11H11c-2.537,0-4.893-0.805-6.838-2.162
	C6.336,59.949,9.938,62,14,62h36c6.602,0,12-5.4,12-12V14C62,9.938,59.951,6.336,56.838,4.162z"/>
<path fill-rule="evenodd" clip-rule="evenodd" fill="#0FB4D4" d="M4.975,12.585c0.34,2.703,4.793-2.587,9.303-7.136
	C17.188,2.524,3.957,4.45,4.975,12.585z"/>
<path fill="#FFFFFF" d="M35.26,22.973c0,4.764,9.555,4.764,9.555,0c0-2.586,0-4.75,0-4.75H35.26l-3.801,2.85h3.801
	C35.26,21.744,35.26,22.424,35.26,22.973z"/>
<polygon fill="#FFFFFF" points="44.814,17.271 44.814,13.471 34.311,13.471 35.26,17.271 "/>
<polygon fill="#FFFFFF" points="25.639,25.609 15.318,23.424 15.318,33.26 25.639,35.445 "/>
<polygon fill="#FFFFFF" points="25.639,19.055 15.318,21.238 25.639,23.424 "/>
<polygon fill="#FFFFFF" points="31.891,43.084 46.283,28.674 37.582,28.674 31.891,28.674 31.881,28.674 25.229,40.646 
	23.328,37.227 17.627,37.227 22.379,45.777 28.08,45.777 31.891,38.918 "/>
<polygon fill="#FFFFFF" points="33.57,43.805 48.682,43.805 48.682,28.674 "/>
<rect x="31.891" y="45.486" fill="#FFFFFF" width="16.791" height="5.043"/>
</svg>
