<?xml version="1.0" encoding="utf-8"?>
<!-- Generator: Adobe Illustrator 15.0.0, SVG Export Plug-In . SVG Version: 6.00 Build 0)  -->
<!DOCTYPE svg PUBLIC "-//W3C//DTD SVG 1.1//EN" "http://www.w3.org/Graphics/SVG/1.1/DTD/svg11.dtd">
<svg version="1.1" id="Layer_1" xmlns="http://www.w3.org/2000/svg" xmlns:xlink="http://www.w3.org/1999/xlink" x="0px" y="0px"
	 width="64px" height="64px" viewBox="0 0 64 64" enable-background="new 0 0 64 64" xml:space="preserve">
<path fill="#006DAE" d="M62,50c0,6.6-5.4,12-12,12H14C7.4,62,2,56.6,2,50V14C2,7.399,7.4,2,14,2h36c6.6,0,12,5.399,12,12V50z"/>
<path fill="#014D87" d="M56.838,4.162C58.197,6.105,59,8.462,59,11v37c0,6.6-4.398,11-11,11H11c-2.537,0-4.894-0.805-6.838-2.162
	C6.336,59.949,9.938,62,14,62h36c6.602,0,12-5.4,12-12V14C62,9.938,59.951,6.336,56.838,4.162z"/>
<path fill-rule="evenodd" clip-rule="evenodd" fill="#0FB4D4" d="M4.975,12.585c0.339,2.703,4.793-2.587,9.303-7.136
	C17.188,2.524,3.957,4.45,4.975,12.585z"/>
<circle fill="#FFFFFF" cx="14.5" cy="49" r="2"/>
<circle fill="#FFFFFF" cx="21.5" cy="49" r="2"/>
<circle fill="#FFFFFF" cx="28.5" cy="49" r="2"/>
<circle fill="#FFFFFF" cx="35.5" cy="49" r="2"/>
<circle fill="#FFFFFF" cx="42.5" cy="49" r="2"/>
<circle fill="#FFFFFF" cx="49.5" cy="49" r="2"/>
<path fill="#FFFFFF" d="M41,20h-2v-3.902c0-0.57-0.447-1.033-1-1.033H26c-0.551,0-1,0.463-1,1.033V20h-2v-3.902
	C23,14.389,24.346,13,26,13h12c1.654,0,3,1.389,3,3.098V20z"/>
<path fill="#FFFFFF" d="M14,20c-1.104,0-2,0.896-2,2v20c0,1.105,0.896,2,2,2h3.5V20H14z"/>
<rect x="19.5" y="20" fill="#FFFFFF" width="25" height="24"/>
<path fill="#FFFFFF" d="M50,20h-3.5v24H50c1.105,0,2-0.895,2-2V22C52,20.896,51.105,20,50,20z"/>
</svg>
