<?xml version="1.0" encoding="utf-8"?>
<!-- Generator: Adobe Illustrator 15.0.0, SVG Export Plug-In . SVG Version: 6.00 Build 0)  -->
<!DOCTYPE svg PUBLIC "-//W3C//DTD SVG 1.1//EN" "http://www.w3.org/Graphics/SVG/1.1/DTD/svg11.dtd">
<svg version="1.1" id="Layer_1" xmlns="http://www.w3.org/2000/svg" xmlns:xlink="http://www.w3.org/1999/xlink" x="0px" y="0px"
	 width="64px" height="64px" viewBox="0 0 64 64" enable-background="new 0 0 64 64" xml:space="preserve">
<path fill="#BF8D69" d="M20.677,32.619c2.808,3.584-6.02,2.654-1.917,5.25c-7.926,1.767-11.366-3.782-10.616-5.195
	C12.472,31.673,20.677,32.619,20.677,32.619z"/>
<path fill="#EBBEA0" d="M8.213,21.659c6.535-3.048,9.066,0.23,9.692,3.138c0.334,1.543,1.459,2.295,2.924,2.777
	c0.903,0.297,0.721,1.256-0.494,1.821c0.141,0.607,0.537,0.632,0.537,0.632s-0.605,1.051-0.315,1.176
	c0.28-0.132,0.985,0.294,0.449,0.89c-0.464,0.518,1.46,1.351-0.717,2.616c-1.654,0.964-3.924,1.272-6.274,0.569
	c-1.422-0.425-2.94-1.967-2.94-1.967C7.358,34.346,0.779,31.415,8.213,21.659z"/>
<path fill="#BF8D69" d="M10.55,30.547c-0.401-0.966-1.545-1.473-2.341-1.14c0,0,1.844,0.575,2.143,2.277
	C10.352,31.684,10.833,31.221,10.55,30.547z"/>
<path fill-rule="evenodd" clip-rule="evenodd" fill="#BF8D69" d="M17.388,24.981c-0.671-2.059-2.487,0.155-3.246,0.713
	C14.937,25.545,16.338,24.142,17.388,24.981z"/>
<path fill="#DEA885" d="M18.16,31.294c1.207,0.795,2.203,0.933,2.781,0.915c0.669-0.601-0.065-1.232-0.428-1.063
	C20.235,31.276,19.589,31.228,18.16,31.294z"/>
<path fill="#BF8D69" d="M18.16,31.294c0.974,0.375,2.397-0.091,2.397-0.091c0.17-0.157,0.595-0.576,0.315-1.176
	C20.627,30.513,19.337,31.228,18.16,31.294z"/>
<path fill="#FFFFFF" d="M15.165,26.831c1.018,1.694,2.064,1.021,2.331,0.898C17.735,27.364,17.396,23.931,15.165,26.831z"/>
<path fill="#45332C" d="M17.493,26.469c0.421,1.478-0.11,2.029-0.955,0.223C15.917,25.368,17.156,25.28,17.493,26.469z"/>
<path fill-rule="evenodd" clip-rule="evenodd" fill="#45332C" d="M17.287,25.866c-0.808-1.227-1.804,0.34-2.233,1.041
	C15.943,26.309,16.41,25.576,17.287,25.866z"/>
<path fill="#C8A35D" d="M16.059,21.146c0.609,1.33-4.724,7.01-7.606,6.94c-0.774,4.292,7.125,10.366,10.308,9.783
	C6.99,43.447,0.362,31.37,2.349,25.366C4.094,20.094,14.831,18.466,16.059,21.146z"/>
<path fill="#A3864C" d="M16.059,21.146c0.609,1.33-4.485,7.148-7.368,7.079c-0.775,4.293,6.887,10.228,10.069,9.645
	c-7.441,2.115-13.314-8.221-11.4-10.722C11.565,26.811,15.297,22.88,16.059,21.146z"/>
<path fill="#EBBEA0" d="M47.581,36.557c1.703,2.852-3.283,5.125-6.129,5.125c-2.844,0-9.649-1.016-8.297-4.053
	c1.416-3.184,6.949-8.917,9.795-8.917C45.794,28.711,45.905,33.75,47.581,36.557z"/>
<path fill="#BF8D69" d="M41.415,37.629c0.777-0.135,1.512-3.707,1.814-4.563L41.415,37.629z"/>
<path opacity="0.6" fill="#A6AEB0" d="M40.339,11.409C36.649,7.579,39.104,2,39.104,2s-7.752,7.373-2.857,12.457
	C41.913,20.34,39.104,24,39.104,24S46.126,17.417,40.339,11.409z"/>
<path opacity="0.6" fill="#A6AEB0" d="M29.286,14.842C26.516,12.057,28.358,8,28.358,8s-5.814,5.363-2.143,9.061
	C30.465,21.338,28.358,24,28.358,24S33.624,19.211,29.286,14.842z"/>
<path opacity="0.6" fill="#A6AEB0" d="M51.286,14.842C48.517,12.057,50.358,8,50.358,8s-5.814,5.363-2.143,9.061
	C52.466,21.338,50.358,24,50.358,24S55.624,19.211,51.286,14.842z"/>
<path fill="#4E5E67" d="M15.696,56.754c-0.242,0.9-2.23,2.58,0.365,3.275s1.715-1.754,1.955-2.652
	C18.918,54.012,16.596,53.391,15.696,56.754z"/>
<path fill="#4E5E67" d="M48.767,56.754c-0.9-3.363-3.223-2.742-2.322,0.623c0.242,0.898-0.639,3.348,1.955,2.652
	C50.995,59.334,49.007,57.654,48.767,56.754z"/>
<path fill="#CFD8DD" d="M59.097,40.098c0,18.416-12.029,18.791-26.866,18.791c-14.836,0-26.865-0.375-26.865-18.791H59.097z"/>
<path fill="#BEC3CF" d="M57.769,49.01c-3.516,9.637-13.621,9.879-25.538,9.879c-14.836,0-26.865-0.375-26.865-18.791h4.096
	c0,13.16,7.477,17.438,22.77,17.438C50.231,57.535,55.181,54.521,57.769,49.01z"/>
<path fill="#E6EBEF" d="M59.397,41.396H5.086c-4.115,0-4.115-4.756,0-4.756h54.311C62.868,36.641,62.868,41.396,59.397,41.396z"/>
<path fill="#FFFFFF" d="M60.001,39.018H4c-1.441,0-1.441-1.361,0-1.361h56C61.423,37.656,61.423,39.018,60.001,39.018z"/>
<path fill="#6E8189" d="M13.612,52.357c-2.697-0.723-3.914,0.561-4.193,1.604c-0.305,1.133,1.672,3.164,1.277,4.641
	c-0.242,0.9-2.23,2.58,0.365,3.275s1.715-1.754,1.955-2.652c0.396-1.477,3.123-2.248,3.428-3.381
	C16.723,54.801,16.311,53.08,13.612,52.357z"/>
<path fill="#99A8AE" d="M10.161,59.881c-0.277,1.035,1.74,1.576,2.018,0.541S10.438,58.846,10.161,59.881z"/>
<path fill="#99A8AE" d="M10.377,54.637c1.957,6.5,2.041,1.48,4.371-0.275C16.219,53.256,9.383,51.336,10.377,54.637z"/>
<path fill="#6E8189" d="M55.044,53.961c-0.279-1.043-1.496-2.326-4.195-1.604c-2.697,0.723-3.109,2.443-2.83,3.486
	c0.305,1.133,3.031,1.904,3.426,3.381c0.242,0.898-0.639,3.348,1.955,2.652c2.596-0.695,0.607-2.375,0.367-3.275
	C53.372,57.125,55.349,55.094,55.044,53.961z"/>
<path fill="#99A8AE" d="M54.302,59.881c0.277,1.035-1.742,1.576-2.02,0.541S54.024,58.846,54.302,59.881z"/>
<path fill="#99A8AE" d="M54.085,54.637c-1.957,6.5-2.041,1.48-4.371-0.275C48.243,53.256,55.077,51.336,54.085,54.637z"/>
<path fill="#E6EBEF" d="M57.722,43.592c-1.012-2.375-1.354,2.721-2.473,6.963C54.581,53.09,59.044,46.697,57.722,43.592z"/>
</svg>
