<?xml version="1.0" encoding="utf-8"?>
<!-- Generator: Adobe Illustrator 15.0.0, SVG Export Plug-In . SVG Version: 6.00 Build 0)  -->
<!DOCTYPE svg PUBLIC "-//W3C//DTD SVG 1.1//EN" "http://www.w3.org/Graphics/SVG/1.1/DTD/svg11.dtd">
<svg version="1.1" id="Layer_1" xmlns="http://www.w3.org/2000/svg" xmlns:xlink="http://www.w3.org/1999/xlink" x="0px" y="0px"
	 width="64px" height="64px" viewBox="0 0 64 64" enable-background="new 0 0 64 64" xml:space="preserve">
<path fill="#CFD8DD" d="M60,10c-0.002-4.418-3.584-8-8-8c-4.42,0-8,3.582-8,8v3.719h3V10c0-2.762,2.238-5,5-5c2.76,0,5,2.238,5,5
	v28.773h3V10z"/>
<path fill="#BEC3CF" d="M52,2c-0.17,0-0.334,0.015-0.5,0.025C55.684,2.285,59,5.75,59,10v28.774h1V10C60,5.581,56.418,2,52,2z"/>
<path fill="#BEC3CF" d="M51,5c-2.762,0-5,2.238-5,5v3.719h1V10c0-2.59,1.977-4.695,4.5-4.95C51.332,5.034,51.17,5,51,5z"/>
<path fill="#CFD8DD" d="M45.5,11.757c-3.162,0-5.725,2.365-5.725,5.284h11.447C51.223,14.122,48.66,11.757,45.5,11.757z"/>
<path fill-rule="evenodd" clip-rule="evenodd" fill="#E6EBEF" d="M41.133,15.507c0.098,0.88,1.391-0.84,2.701-2.317
	C44.676,12.239,40.838,12.865,41.133,15.507z"/>
<path fill="#BEC3CF" d="M49.662,17.041c0-2.673-2.152-4.876-4.943-5.229c0.256-0.033,0.516-0.055,0.781-0.055
	c3.16,0,5.723,2.367,5.723,5.284H49.662z"/>
<path fill="#BEC3CF" d="M40.268,19.683c-2.418,0-2.418-3.522,0-3.522H50.73c2.418,0,2.418,3.522,0,3.522H40.268z"/>
<path fill="#99A8AE" d="M52.473,17.432c0,1.126-0.762,1.67-1.742,1.67c0,0-11.898,0.581-10.463,0.581H50.73
	C52.168,19.683,52.744,18.441,52.473,17.432z"/>
<path fill="#CFD8DD" d="M40.281,16.925l7.795-0.567h-7.795c-1.186,0-1.66,1.024-1.438,1.857
	C38.998,17.646,39.473,16.925,40.281,16.925z"/>
<path fill="#4E5E67" d="M15.696,56.755c-0.242,0.898-2.23,2.58,0.365,3.275s1.715-1.754,1.955-2.654
	C18.918,54.013,16.596,53.39,15.696,56.755z"/>
<path fill="#4E5E67" d="M48.766,56.755c-0.9-3.365-3.223-2.742-2.322,0.621c0.242,0.9-0.639,3.35,1.955,2.654
	C50.994,59.335,49.006,57.653,48.766,56.755z"/>
<path fill="#CFD8DD" d="M59.096,40.097c0,18.418-12.029,18.791-26.865,18.791c-14.836,0-26.865-0.373-26.865-18.791H59.096z"/>
<path fill="#BEC3CF" d="M57.768,49.009c-3.516,9.639-13.621,9.879-25.537,9.879c-14.836,0-26.865-0.373-26.865-18.791h4.096
	c0,13.16,7.477,17.439,22.77,17.439C50.23,57.536,55.18,54.521,57.768,49.009z"/>
<path fill="#E6EBEF" d="M59.396,41.396H5.086c-4.115,0-4.115-4.755,0-4.755h54.31C62.867,36.641,62.867,41.396,59.396,41.396z"/>
<path fill="#FFFFFF" d="M60,39.018H4c-1.441,0-1.441-1.361,0-1.361h56C61.422,37.656,61.422,39.018,60,39.018z"/>
<path fill="#E6EBEF" d="M57.721,43.591c-1.012-2.374-1.354,2.722-2.473,6.964C54.58,53.091,59.043,46.697,57.721,43.591z"/>
<path fill="#6E8189" d="M13.612,52.358c-2.697-0.725-3.914,0.561-4.193,1.604c-0.305,1.133,1.672,3.164,1.277,4.641
	c-0.242,0.898-2.23,2.58,0.365,3.275s1.715-1.754,1.955-2.654c0.396-1.475,3.123-2.246,3.428-3.379
	C16.723,54.8,16.311,53.081,13.612,52.358z"/>
<path fill="#99A8AE" d="M10.161,59.882c-0.277,1.033,1.74,1.574,2.018,0.541C12.456,59.388,10.438,58.847,10.161,59.882z"/>
<path fill="#99A8AE" d="M10.377,54.636c1.957,6.5,2.041,1.48,4.371-0.273C16.219,53.257,9.383,51.336,10.377,54.636z"/>
<path fill="#6E8189" d="M55.043,53.962c-0.279-1.043-1.496-2.328-4.195-1.604c-2.697,0.723-3.109,2.441-2.83,3.486
	c0.305,1.133,3.031,1.904,3.426,3.379c0.242,0.9-0.639,3.35,1.955,2.654c2.596-0.695,0.607-2.377,0.367-3.275
	C53.371,57.126,55.348,55.095,55.043,53.962z"/>
<path fill="#99A8AE" d="M54.301,59.882c0.277,1.033-1.742,1.574-2.02,0.541C52.004,59.388,54.023,58.847,54.301,59.882z"/>
<path fill="#99A8AE" d="M54.084,54.636c-1.957,6.5-2.041,1.48-4.371-0.273C48.242,53.257,55.076,51.336,54.084,54.636z"/>
</svg>
