<?xml version="1.0" encoding="utf-8"?>
<!-- Generator: Adobe Illustrator 15.0.0, SVG Export Plug-In . SVG Version: 6.00 Build 0)  -->
<!DOCTYPE svg PUBLIC "-//W3C//DTD SVG 1.1//EN" "http://www.w3.org/Graphics/SVG/1.1/DTD/svg11.dtd">
<svg version="1.1" id="Layer_1" xmlns="http://www.w3.org/2000/svg" xmlns:xlink="http://www.w3.org/1999/xlink" x="0px" y="0px"
	 width="64px" height="64px" viewBox="0 0 64 64" enable-background="new 0 0 64 64" xml:space="preserve">
<path fill="#785647" d="M53.643,51.492c-1.443-0.771-3.293-4.746-3.293-4.746H13.646c0,0-1.848,3.977-3.293,4.746
	C8.475,52.496,5,53.5,5,57.199V62h54v-4.801C59,53.502,55.523,52.498,53.643,51.492z"/>
<path fill="#45332C" d="M53.645,51.492c-1.443-0.771-3.293-4.746-3.293-4.746H13.648c0,0-1.848,3.977-3.293,4.746H53.645z"/>
<path fill="#8A6859" d="M55.4,57.932c0,1.123-0.807,2.033-1.801,2.033H10.4c-0.994,0-1.801-0.91-1.801-2.033l0,0
	c0-1.123,0.807-2.033,1.801-2.033H53.6C54.594,55.898,55.4,56.809,55.4,57.932L55.4,57.932z"/>
<rect x="30.143" y="14.203" fill="#D47706" width="3.715" height="6.102"/>
<rect x="30.143" y="14.203" fill="#AB5C10" width="3.715" height="3.051"/>
<rect x="26" y="19.847" fill="#F9C802" width="12" height="6"/>
<rect x="34" y="19.847" fill="#F59E01" width="4" height="6"/>
<rect x="27" y="19.847" fill="#FEEC9A" width="2" height="6"/>
<rect x="26" y="11.135" fill="#F9C802" width="12" height="4"/>
<rect x="34" y="11.135" fill="#F59E01" width="4" height="4"/>
<rect x="27" y="11.135" fill="#FEEC9A" width="2" height="4"/>
<path fill="#F9C802" d="M32,24.797c-13.807,0-25,11.19-25,25h50C57,35.987,45.804,24.797,32,24.797z"/>
<path fill-rule="evenodd" clip-rule="evenodd" fill="#FEEC9A" d="M12.931,42.538c0.429,4.162,6.073-3.977,11.792-10.962
	C28.401,27.076,11.643,30.038,12.931,42.538z"/>
<path fill="#F59E01" d="M50.183,49.797c0-12.646-9.403-23.071-21.591-24.74c1.117-0.154,2.25-0.26,3.408-0.26
	c14.523,0,25,11.198,25,25H50.183z"/>
<path fill="#F9C802" d="M11.148,9.156c4.001,3.987,10.495,6.63,10.495,6.63S18.99,9.319,14.987,5.332
	C8.505-1.124,4.664,2.701,11.148,9.156z"/>
<path fill="#F9C802" d="M49.013,5.334c-4.003,3.985-6.659,10.452-6.659,10.452s6.495-2.643,10.499-6.629
	C59.336,2.702,55.494-1.123,49.013,5.334z"/>
<path fill="#F9C802" d="M8.877,23.611c5.66,0.001,12.129-2.702,12.129-2.702s-6.469-2.704-12.129-2.705
	C-0.292,18.204-0.292,23.612,8.877,23.611z"/>
<path fill="#F9C802" d="M55.126,18.204c-5.661-0.001-12.13,2.704-12.13,2.704s6.467,2.704,12.127,2.705
	C64.292,23.612,64.292,18.204,55.126,18.204z"/>
</svg>
