<?xml version="1.0" encoding="utf-8"?>
<!-- Generator: Adobe Illustrator 15.0.0, SVG Export Plug-In . SVG Version: 6.00 Build 0)  -->
<!DOCTYPE svg PUBLIC "-//W3C//DTD SVG 1.1//EN" "http://www.w3.org/Graphics/SVG/1.1/DTD/svg11.dtd">
<svg version="1.1" id="Layer_1" xmlns="http://www.w3.org/2000/svg" xmlns:xlink="http://www.w3.org/1999/xlink" x="0px" y="0px"
	 width="64px" height="64px" viewBox="0 0 64 64" enable-background="new 0 0 64 64" xml:space="preserve">
<path fill="#AA5BEF" d="M8.857,9.692v10.309c0,1.143,1.714,1.143,1.714,0c0-0.002,0-10.309,0-10.309
	c0.033-7.967,11.968-7.967,12.001,0v10.309c0,1.143,1.714,1.143,1.714,0V9.692C24.253-0.564,8.89-0.564,8.857,9.692z"/>
<rect x="2" y="14.001" fill="#C28FEF" width="30.857" height="31.714"/>
<rect x="2" y="18.286" fill="#C28FEF" width="30.857" height="31.714"/>
<polygon fill="#302C3B" points="32.857,14.001 2,14.001 3.714,15.715 2,18.286 32.857,18.286 31.144,15.715 "/>
<rect x="2" y="18.286" fill="#AA5BEF" width="30.857" height="3.523"/>
<rect x="2" y="25.333" fill="#AA5BEF" width="30.857" height="3.523"/>
<rect x="2" y="32.381" fill="#AA5BEF" width="30.857" height="3.524"/>
<rect x="2" y="39.429" fill="#AA5BEF" width="30.857" height="3.524"/>
<rect x="2" y="46.477" fill="#AA5BEF" width="30.857" height="3.523"/>
<path fill="#302C3B" d="M26,22.556c0,2.285-3.428,2.285-3.428,0C22.572,20.27,26,20.27,26,22.556z"/>
<path fill="#3E4347" d="M12.286,22.556c0,2.285-3.428,2.285-3.428,0C8.857,20.27,12.286,20.27,12.286,22.556z"/>
<path fill="#C28FEF" d="M9.714,12.264v10.309c0,1.143,1.714,1.143,1.714,0c0-0.002-0.001-10.309-0.001-10.309
	c0.034-7.967,11.968-7.967,12.001,0v10.309c0,1.143,1.714,1.143,1.714,0V12.264C25.11,2.008,9.748,2.008,9.714,12.264z"/>
<polygon opacity="0.5" fill="#302C3B" points="18.265,49.988 32.857,49.988 25.857,20.001 "/>
<path fill="#F9B700" d="M33.999,14.975v12.026c0,1.333,2,1.333,2,0c0-0.002,0-12.026,0-12.026c0.039-9.296,13.963-9.296,14.002,0
	v12.026c0,1.333,2,1.333,2,0V14.975C51.962,3.008,34.039,3.008,33.999,14.975z"/>
<rect x="26" y="20.001" fill="#F9B700" width="36" height="37"/>
<rect x="26" y="25" fill="#F9B700" width="36" height="37"/>
<polygon fill="#302C3B" points="62,20.001 26,20.001 28,22 26,25 62,25 60,22 "/>
<rect x="26" y="25" fill="#F59E01" width="4" height="37"/>
<rect x="33.999" y="25" fill="#F59E01" width="4.002" height="37"/>
<rect x="42" y="25" fill="#F59E01" width="4" height="37"/>
<rect x="50.001" y="25" fill="#F59E01" width="4" height="37"/>
<rect x="58" y="25" fill="#F59E01" width="4" height="37"/>
<path fill="#302C3B" d="M54.001,29.981c0,2.666-4,2.666-4,0C50.001,27.314,54.001,27.314,54.001,29.981z"/>
<path fill="#302C3B" d="M38.001,29.981c0,2.666-4.002,2.666-4.002,0C33.999,27.314,38.001,27.314,38.001,29.981z"/>
<path fill="#FFE12C" d="M35,17.975v12.026c0,1.333,2,1.333,2,0c0-0.003-0.001-12.026-0.001-12.026
	c0.039-9.295,13.963-9.295,14.001,0v12.026c0,1.333,2,1.333,2,0V17.975C52.962,6.01,35.038,6.01,35,17.975z"/>
</svg>
