<?xml version="1.0" encoding="utf-8"?>
<!-- Generator: Adobe Illustrator 15.0.0, SVG Export Plug-In . SVG Version: 6.00 Build 0)  -->
<!DOCTYPE svg PUBLIC "-//W3C//DTD SVG 1.1//EN" "http://www.w3.org/Graphics/SVG/1.1/DTD/svg11.dtd">
<svg version="1.1" id="Layer_1" xmlns="http://www.w3.org/2000/svg" xmlns:xlink="http://www.w3.org/1999/xlink" x="0px" y="0px"
	 width="64px" height="64px" viewBox="0 0 64 64" enable-background="new 0 0 64 64" xml:space="preserve">
<path fill="#006DAE" d="M62,50c0,6.6-5.4,12-12,12H14C7.4,62,2,56.6,2,50V14C2,7.399,7.4,2,14,2h36c6.6,0,12,5.399,12,12V50z"/>
<path fill="#014D87" d="M56.838,4.162C58.197,6.105,59,8.462,59,11v37c0,6.6-4.398,11-11,11H11c-2.537,0-4.894-0.805-6.838-2.162
	C6.336,59.949,9.938,62,14,62h36c6.602,0,12-5.4,12-12V14C62,9.938,59.951,6.336,56.838,4.162z"/>
<path fill-rule="evenodd" clip-rule="evenodd" fill="#0FB4D4" d="M4.975,12.585c0.339,2.703,4.793-2.587,9.303-7.136
	C17.188,2.524,3.957,4.45,4.975,12.585z"/>
<path fill="#FFFFFF" d="M48.621,52H15.377C13.516,52,12,50.504,12,48.666V25.334C12,23.496,13.516,22,15.377,22h33.244
	C50.484,22,52,23.496,52,25.334v23.332C52,50.504,50.484,52,48.621,52z M15.377,24C14.617,24,14,24.6,14,25.334v23.332
	C14,49.402,14.617,50,15.377,50h33.244C49.381,50,50,49.402,50,48.666V25.334C50,24.6,49.381,24,48.621,24H15.377z"/>
<path fill="#FFFFFF" d="M47,32h-3v16h3c0.553,0,1-0.447,1-1V33C48,32.447,47.553,32,47,32z"/>
<path fill="#FFFFFF" d="M38,32v-4c0-1.104-0.898-2-2-2h-8c-1.104,0-2,0.896-2,2v4h-4v16h20V32H38z M36,32h-8v-4h8V32z"/>
<path fill="#FFFFFF" d="M17,32c-0.553,0-1,0.447-1,1v14c0,0.553,0.447,1,1,1h3V32H17z"/>
<path fill="#FFFFFF" d="M42,14H27.445c-0.693-1.189-1.969-2-3.445-2c-2.209,0-4,1.791-4,4s1.791,4,4,4c1.477,0,2.752-0.809,3.445-2
	H30l2-2l2,2h2l2-2l2,2h2l2-2L42,14z M23,18c-1.105,0-2-0.896-2-2s0.895-2,2-2c1.104,0,2,0.896,2,2S24.104,18,23,18z"/>
</svg>
