<?xml version="1.0" encoding="utf-8"?>
<!-- Generator: Adobe Illustrator 15.0.0, SVG Export Plug-In . SVG Version: 6.00 Build 0)  -->
<!DOCTYPE svg PUBLIC "-//W3C//DTD SVG 1.1//EN" "http://www.w3.org/Graphics/SVG/1.1/DTD/svg11.dtd">
<svg version="1.1" id="Layer_1" xmlns="http://www.w3.org/2000/svg" xmlns:xlink="http://www.w3.org/1999/xlink" x="0px" y="0px"
	 width="64px" height="64px" viewBox="0 0 64 64" enable-background="new 0 0 64 64" xml:space="preserve">
<rect x="4" y="38" fill="#BEC3CF" width="20" height="12"/>
<path fill="#99A8AE" d="M23.744,38h-20v4.348c0,0,15.186-1.814,17.006,4.363C21.598,49.589,23.744,38,23.744,38z"/>
<path fill="#4E5E67" d="M6,50H2V11c0-0.551,0.45-1,1-1h2c0.55,0,1,0.449,1,1V50z"/>
<rect x="4" y="54" fill="#302C3B" width="4" height="8"/>
<rect x="56" y="54" fill="#302C3B" width="4" height="8"/>
<path fill="#4E5E67" d="M62,49c0-0.551-0.451-1-1-1H2v9c0,0.549,0.45,1,1,1h58c0.549,0,1-0.451,1-1V49z"/>
<path opacity="0.5" fill="#302C3B" d="M34.679,47.991C32.891,44.504,18.455,48,18.455,48C23.744,65.364,25.117,47.17,34.679,47.991z
	"/>
<path fill="#E6EBEF" d="M23.489,38.85c0,0-6.323,3.137-14.346,0.848c-2.521-0.719-5.35,0.889-4.749-0.34
	c1.746-3.578,2.211-10.955-0.082-13.938c-1.628-2.119,3.589-0.6,4.492,2.725C11.484,37.998,23.489,34.248,23.489,38.85z"/>
<path fill="#CFD8DD" d="M21.211,38.012c0,0-13.036,3.782-14.144-7.09C7.067,30.922,15.933,29.162,21.211,38.012z"/>
<polygon fill="#FDCA47" points="16.938,32.562 15.17,34.085 21.746,36.479 23.02,32.982 "/>
<path fill="#E6A400" d="M21.002,30.808c0.316,1.53,2.065,2.045,2.065,2.045c-0.634,1.741-4.258,1.092-6.354,0.328L21.002,30.808z"/>
<path fill="#FDCA47" d="M7.881,30.708l5.395-6.628c2.111-0.32,2.805,0.673,3.578,0.917c0.344,0.107,1.209-0.352,1.664-0.597
	c1.016-0.545,1.105,1.021,0.816,1.487c0.49,0.457,1.326-0.045,1.127,0.746c-0.081,0.32,0.703-0.453,0.715,1.004
	c0.971,0.167,2.762,0.636-0.755,4.718c-1.046,1.214-3.708,0.825-3.708,0.825l-1.279,2.224L7.881,30.708z"/>
<path fill="#EA8800" d="M9.196,25.094c-3.475,4.379-1.876,8.039-0.899,8.932c2.598,2.375,6.398,2.53,9.811,1.129
	c0,0-0.064-1.266-1.395-1.974c0,0,0.105,1.438-2.713,1.031c-2.396-0.346-2.682-3.118,0.778-3.184l0.116-0.318
	c-1.271-1.207-3.621-0.706-3.568-2.683c0.047-1.741,2.416-3.999,2.416-3.999C12.959,23.183,10.616,23.305,9.196,25.094z"/>
<path fill="#E6A400" d="M15.854,27.623c0.113-0.903,1.232-1.438,1.098-1.785C15.827,25.412,15.26,27.407,15.854,27.623z"/>
<path fill="#E6A400" d="M15.056,31.889c-0.932-0.34-2.013,0.145-2.295,0.92c0,0,1.583-0.934,2.952-0.05
	C15.713,32.759,15.701,32.123,15.056,31.889z"/>
<path fill="#E81C27" d="M60,37c-0.48-0.543-27.781-13.662-34.947-8.105L23.07,48H61C61,48,61.654,38.873,60,37z"/>
<path fill="#B00505" d="M30.033,29.255L23.07,48H61C36.742,45.823,36.374,32.507,30.033,29.255z"/>
<path fill="#E81C27" d="M29.395,27.655c-1-1.361-2.324-1.332-3.152,0.23c-1.375-0.563-1.828,0.938-1.828,0.938
	s-0.535-0.969-1.063-0.156C15.313,41.054,17.807,50.677,21.534,53c2.072,1.292,2.21-5.469,12.75-5
	C39.719,48.242,34.18,34.165,29.395,27.655z"/>
<path fill="#B00505" d="M26.664,28.292c1.719,6.188,4.561,16.071,4.439,14.919C29.352,26.589,26.383,27.279,26.664,28.292z"/>
<path fill="#B00505" d="M24.617,29.448c1.387,6.699,2.105,16.531,2.188,15.375C27.941,28.815,24.404,28.419,24.617,29.448z"/>
<path fill="#B00505" d="M24.151,29.369C22.764,36.068,22.09,51.134,21.849,50C18.49,34.18,24.364,28.34,24.151,29.369z"/>
</svg>
