<?xml version="1.0" encoding="utf-8"?>
<!-- Generator: Adobe Illustrator 15.0.0, SVG Export Plug-In . SVG Version: 6.00 Build 0)  -->
<!DOCTYPE svg PUBLIC "-//W3C//DTD SVG 1.1//EN" "http://www.w3.org/Graphics/SVG/1.1/DTD/svg11.dtd">
<svg version="1.1" id="Layer_1" xmlns="http://www.w3.org/2000/svg" xmlns:xlink="http://www.w3.org/1999/xlink" x="0px" y="0px"
	 width="64px" height="64px" viewBox="0 0 64 64" enable-background="new 0 0 64 64" xml:space="preserve">
<rect x="4" y="38" fill="#BEC3CF" width="20" height="12"/>
<path fill="#99A8AE" d="M23.744,38h-20v4.348c0,0,15.186-1.814,17.006,4.363C21.598,49.59,23.744,38,23.744,38z"/>
<path fill="#4E5E67" d="M6,50H2V11c0-0.551,0.451-1,1-1h2c0.551,0,1,0.449,1,1V50z"/>
<rect x="4" y="54" fill="#302C3B" width="4" height="8"/>
<rect x="56" y="54" fill="#302C3B" width="4" height="8"/>
<path fill="#4E5E67" d="M62,49c0-0.551-0.451-1-1-1H2v9c0,0.549,0.451,1,1,1h58c0.549,0,1-0.451,1-1V49z"/>
<path fill="#E6EBEF" d="M23.49,38.85c0,0-6.324,3.137-14.346,0.848c-2.521-0.719-5.35,0.889-4.75-0.34
	c1.746-3.578,2.211-10.955-0.082-13.938c-1.627-2.119,3.59-0.6,4.492,2.725C11.484,37.998,23.49,34.248,23.49,38.85z"/>
<path fill="#CFD8DD" d="M21.211,38.012c0,0-13.035,3.783-14.143-7.09C7.068,30.922,15.934,29.162,21.211,38.012z"/>
<path fill="#B88A6F" d="M14.838,35.076c0,0,3.848-0.207,6.137,1.143C26.088,31.196,15.883,30.141,14.838,35.076z"/>
<path fill="#946346" d="M21.902,29.955c-2.754,3.129,7.143,3.977-5.225,3.279L21.902,29.955z"/>
<path fill="#B88A6F" d="M7.922,28.83c2.051-5.385,5.557-5.501,7.52-4.16c0.982,0.671,2.088,0.485,3.17-0.021
	c1.029-0.482,1.133,0.667,0.908,1.258c0.342,0.295,0.533,0.111,0.533,0.111s0.238,0.939,0.475,0.849
	c0.088-0.231,0.588-0.269,0.635,0.233c0.053,0.554,2.139,0.083,1.287,1.906c-0.689,1.476-2.633,3.561-3.113,3.818
	c-0.549,0.293-3.07,0.531-3.07,0.531C14.709,36.017,9.092,38.563,7.922,28.83z"/>
<path fill="#946346" d="M14.424,32.062c-0.768-0.331-1.705,0.016-1.977,0.649c0,0,1.377-0.696,2.496,0.112
	C14.943,32.823,14.961,32.291,14.424,32.062z"/>
<path fill="#875B49" d="M13.326,23.959c-5.32,5.672,0.02,5.069,1.211,7.513c-2.277-0.261-3.273,1.123-2.23,2.094
	c1.191,1.111,3.369,0.996,3.666-0.262c0.414,0.309,1.395,1.859,1.395,1.859c-1.455,2.701-12.977,1.445-9.723-7.101
	C8.85,24.898,11.252,22.503,13.326,23.959z"/>
<path fill="#B07E61" d="M19.17,28.28c1.135-0.215,1.805-0.664,2.127-0.997c0.047-0.717-0.746-0.696-0.861-0.398
	C20.35,27.115,19.953,27.446,19.17,28.28z"/>
<path fill="#946346" d="M19.17,28.28c0.768-0.326,1.324-1.387,1.324-1.387c0.01-0.184,0.053-0.688-0.441-0.875
	C20.184,26.432,19.809,27.587,19.17,28.28z"/>
<path fill-rule="evenodd" clip-rule="evenodd" fill="#946346" d="M15.463,25.136c-0.521,0.086-0.584,0.776-1.242,2.47
	C14.01,26.216,14.324,24.524,15.463,25.136z"/>
<path fill="#946346" d="M15.463,25.915c1.527,0.405,1.508,0.956,1.592,0.736C16.988,26.309,15.813,25.295,15.463,25.915z"/>
<path fill-rule="evenodd" clip-rule="evenodd" fill="#946346" d="M15.787,27.755c0.959,0.677,1.242-0.779,1.357-1.426
	C16.656,27.034,16.523,27.715,15.787,27.755z"/>
<path opacity="0.5" fill="#302C3B" d="M34.68,47.992C32.891,44.504,18.455,48,18.455,48C23.744,65.365,25.117,47.17,34.68,47.992z"
	/>
<path fill="#E81C27" d="M60,37c-0.48-0.543-27.781-13.662-34.947-8.105L23.07,48H61C61,48,61.654,38.873,60,37z"/>
<path fill="#B00505" d="M30.033,29.256L23.07,48H61C36.742,45.824,36.375,32.508,30.033,29.256z"/>
<path fill="#E81C27" d="M29.395,27.656c-1-1.361-2.324-1.332-3.152,0.23c-1.375-0.563-1.828,0.938-1.828,0.938
	s-0.535-0.969-1.063-0.156C15.313,41.055,17.807,50.678,21.535,53c2.072,1.293,2.209-5.469,12.75-5
	C39.719,48.242,34.18,34.166,29.395,27.656z"/>
<path fill="#B00505" d="M26.664,28.293c1.719,6.188,4.561,16.07,4.439,14.918C29.352,26.59,26.383,27.279,26.664,28.293z"/>
<path fill="#B00505" d="M24.617,29.449c1.387,6.699,2.105,16.531,2.188,15.375C27.941,28.816,24.404,28.42,24.617,29.449z"/>
<path fill="#B00505" d="M24.152,29.369C22.764,36.068,22.09,51.135,21.85,50C18.49,34.18,24.365,28.34,24.152,29.369z"/>
</svg>
