<?xml version="1.0" encoding="utf-8"?>
<!-- Generator: Adobe Illustrator 15.0.0, SVG Export Plug-In . SVG Version: 6.00 Build 0)  -->
<!DOCTYPE svg PUBLIC "-//W3C//DTD SVG 1.1//EN" "http://www.w3.org/Graphics/SVG/1.1/DTD/svg11.dtd">
<svg version="1.1" id="Layer_1" xmlns="http://www.w3.org/2000/svg" xmlns:xlink="http://www.w3.org/1999/xlink" x="0px" y="0px"
	 width="64px" height="64px" viewBox="0 0 64 64" enable-background="new 0 0 64 64" xml:space="preserve">
<rect x="4" y="37" fill="#BEC3CF" width="20" height="12"/>
<path fill="#99A8AE" d="M23.604,36H3.744v4.348C23.334,42.488,23.604,36,23.604,36z"/>
<path fill="#4E5E67" d="M6,50H2V11c0-0.551,0.451-1,1-1h2c0.551,0,1,0.449,1,1V50z"/>
<rect x="4" y="54" fill="#302C3B" width="4" height="8"/>
<rect x="56" y="54" fill="#302C3B" width="4" height="8"/>
<path fill="#4E5E67" d="M62,49c0-0.551-0.451-1-1-1H2v9c0,0.549,0.451,1,1,1h58c0.549,0,1-0.451,1-1V49z"/>
<path fill="#E81C27" d="M59,36c-2,0-37,0-37,0v12h39C61,48,61.499,36,59,36z"/>
<path fill="#B00505" d="M28.801,36l-6.73,12H61C36.742,45.823,29.231,46.886,28.801,36z"/>
<path fill="#F46C60" d="M29,36c0-1.689-8-2.053-8,0c0,8.982,0,12,0,12h8C29,48,29,39.106,29,36z"/>
<path fill="#E6EBEF" d="M23.509,36.341c-1.627,4.826-18.511,2.084-19.172-6.65c-0.273-3.61,3.661-4.766,8.916,0.984
	C16.212,33.912,24.998,31.925,23.509,36.341z"/>
</svg>
