<?xml version="1.0" encoding="utf-8"?>
<!-- Generator: Adobe Illustrator 15.0.0, SVG Export Plug-In . SVG Version: 6.00 Build 0)  -->
<!DOCTYPE svg PUBLIC "-//W3C//DTD SVG 1.1//EN" "http://www.w3.org/Graphics/SVG/1.1/DTD/svg11.dtd">
<svg version="1.1" id="Layer_1" xmlns="http://www.w3.org/2000/svg" xmlns:xlink="http://www.w3.org/1999/xlink" x="0px" y="0px"
	 width="64px" height="64px" viewBox="0 0 64 64" enable-background="new 0 0 64 64" xml:space="preserve">
<path fill="#BEC3CF" d="M53.129,38.563h-7.5v3.75h7.5c1.035,0,1.877,0.84,1.877,1.875c0,1.033-0.842,1.875-1.877,1.875H6.254
	c-1.035,0-1.873,0.838-1.873,1.875c0,1.033,0.838,1.875,1.873,1.875h46.877c3.105-0.002,5.625-2.52,5.625-5.625
	C58.756,41.08,56.236,38.563,53.129,38.563z"/>
<path fill="#CFD8DD" d="M46.629,39.563h7.5c1.299,0,2.491,0.443,3.444,1.184c-1.029-1.326-2.635-2.184-4.444-2.184h-7.5
	L46.629,39.563z"/>
<path fill="#CFD8DD" d="M5.381,48.938c0-1.037,0.838-1.875,1.873-1.875h45.875c1.035,0,2.233-1.543,1.877-2.875
	c0,1.033-0.842,1.875-1.877,1.875H6.254c-1.035,0-1.873,0.838-1.873,1.875c0,0.777,0.473,1.443,1.146,1.729
	C5.433,49.441,5.381,49.195,5.381,48.938z"/>
<path fill="#BEC3CF" d="M54.488,25.672l-3.725-0.313c0.023-0.141,2.348-13.817,2.787-16.563c0.252-1.586,0.945-6.094,6.563-6.094
	v3.75c-2.311,0-2.561,0.904-2.838,2.639C56.836,11.854,54.512,25.532,54.488,25.672z"/>
<path fill="#CFD8DD" d="M54.488,9.797c0.236-1.486,0.86-5.54,5.563-6.042V2.703c-5.617,0-6.311,4.508-6.563,6.094
	c-0.439,2.746-2.764,16.422-2.787,16.563l1.153,0.097C52.382,22.348,54.115,12.13,54.488,9.797z"/>
<path fill="#E81C27" d="M54.672,12.313H3.988c-1.938,0-2.156,1.811-1.902,2.813l5.746,25.367c0.252,1.002,1.313,1.82,2.354,1.82
	h39.756c1.039,0,2.023-0.836,2.184-1.854l4.229-26.271C56.516,13.169,55.715,12.313,54.672,12.313z M6.865,20.778l-0.949-3.805
	c-0.123-0.502,0.197-0.911,0.715-0.911h7.059c0.518,0,0.984,0.419,1.041,0.932l0.402,3.762c0.055,0.512-0.322,0.932-0.84,0.932
	h-6.26C7.516,21.688,6.992,21.278,6.865,20.778z M10.137,30.125c-0.518,0-1.041-0.41-1.166-0.91l-0.717-2.867
	c-0.125-0.502,0.197-0.91,0.713-0.91h5.73c0.516,0,0.984,0.418,1.039,0.932l0.303,2.824c0.057,0.512-0.322,0.932-0.838,0.932H10.137
	z M16.107,38.563H12.24c-0.518,0-1.041-0.41-1.166-0.91l-0.715-2.867c-0.125-0.502,0.195-0.91,0.713-0.91h4.531
	c0.516,0,0.984,0.418,1.041,0.932l0.301,2.824C17.002,38.143,16.623,38.563,16.107,38.563z M27.598,37.625
	c0,0.514-0.424,0.938-0.939,0.938h-4.893c-0.516,0-0.982-0.42-1.039-0.932l-0.303-2.824c-0.057-0.514,0.322-0.932,0.84-0.932h5.395
	c0.516,0,0.939,0.42,0.939,0.938V37.625z M27.598,29.188c0,0.514-0.424,0.938-0.939,0.938h-5.799c-0.516,0-0.984-0.42-1.039-0.932
	l-0.303-2.824c-0.055-0.514,0.322-0.932,0.84-0.932h6.301c0.516,0,0.939,0.42,0.939,0.938V29.188z M27.598,20.75
	c0,0.514-0.424,0.938-0.939,0.938h-6.703c-0.518,0-0.986-0.42-1.041-0.932l-0.404-3.762c-0.055-0.513,0.324-0.932,0.84-0.932h7.309
	c0.516,0,0.939,0.421,0.939,0.938V20.75z M37.758,37.631c-0.055,0.512-0.523,0.932-1.041,0.932h-4.42
	c-0.516,0-0.939-0.424-0.939-0.938v-2.813c0-0.518,0.424-0.938,0.939-0.938h4.924c0.516,0,0.895,0.418,0.84,0.932L37.758,37.631z
	 M38.664,29.194c-0.055,0.512-0.523,0.932-1.041,0.932h-5.326c-0.516,0-0.939-0.424-0.939-0.938v-2.813
	c0-0.518,0.424-0.938,0.939-0.938h5.83c0.516,0,0.895,0.418,0.838,0.932L38.664,29.194z M39.57,20.756
	c-0.055,0.512-0.523,0.932-1.041,0.932h-6.232c-0.516,0-0.939-0.424-0.939-0.938V17c0-0.517,0.424-0.938,0.939-0.938h6.838
	c0.516,0,0.895,0.419,0.84,0.932L39.57,20.756z M48.309,37.635c-0.078,0.51-0.566,0.928-1.084,0.928h-4.848
	c-0.516,0-0.895-0.42-0.838-0.932l0.301-2.824c0.055-0.514,0.523-0.932,1.041-0.932h5.076c0.516,0,0.873,0.416,0.793,0.926
	L48.309,37.635z M49.625,29.198c-0.08,0.51-0.568,0.928-1.084,0.928h-5.258c-0.516,0-0.895-0.42-0.84-0.932l0.303-2.824
	c0.057-0.514,0.523-0.932,1.041-0.932h5.484c0.516,0,0.875,0.416,0.795,0.926L49.625,29.198z M50.939,20.76
	c-0.08,0.51-0.568,0.928-1.084,0.928h-5.664c-0.518,0-0.896-0.42-0.84-0.932l0.404-3.762c0.053-0.513,0.523-0.932,1.039-0.932h5.938
	c0.516,0,0.875,0.416,0.795,0.926L50.939,20.76z"/>
<path fill="#E81C27" d="M61.063,2H58.25v5.625h2.813C61.578,7.625,62,7.202,62,6.688v-3.75C62,2.421,61.578,2,61.063,2z"/>
<path fill="#F46C60" d="M61.5,2.422h-2.813v3.625C58.688,6.047,59.779,3.307,61.5,2.422z"/>
<path fill="#75A843" d="M42.283,38.441l-0.043,0.092c0.018,0.004,0.033,0.01,0.055,0.012C42.289,38.512,42.289,38.477,42.283,38.441
	z"/>
<polygon fill="#75A843" points="46.793,38.563 46.801,38.563 46.801,38.555 "/>
<circle fill="#302C3B" cx="12.313" cy="56.375" r="5.625"/>
<polygon fill="#1A1626" points="17.891,57.098 6.734,57.098 6.687,56.375 17.938,56.375 "/>
<circle fill="#CFD8DD" cx="12.313" cy="56.375" r="2.813"/>
<path fill="#E81C27" d="M12.313,48.875c-4.143,0-7.5,3.357-7.5,7.5h15C19.813,52.232,16.453,48.875,12.313,48.875z"/>
<path fill-rule="evenodd" clip-rule="evenodd" fill="#F46C60" d="M6.538,54.637c0.207,1.576,2.935-1.51,5.699-4.16
	C14.018,48.771,5.915,49.895,6.538,54.637z"/>
<polygon fill="#BEC3CF" points="15.03,57.098 9.595,57.098 9.5,56.375 15.125,56.375 "/>
<circle fill="#302C3B" cx="46.063" cy="56.375" r="5.625"/>
<polygon fill="#1A1626" points="51.641,57.098 40.484,57.098 40.437,56.375 51.688,56.375 "/>
<circle fill="#CFD8DD" cx="46.063" cy="56.375" r="2.813"/>
<path fill="#E81C27" d="M46.063,48.875c-4.143,0-7.5,3.357-7.5,7.5h15C53.563,52.232,50.203,48.875,46.063,48.875z"/>
<path fill-rule="evenodd" clip-rule="evenodd" fill="#F46C60" d="M40.288,54.637c0.207,1.576,2.935-1.51,5.699-4.16
	C47.768,48.771,39.665,49.895,40.288,54.637z"/>
<polygon fill="#BEC3CF" points="48.78,57.098 43.345,57.098 43.25,56.375 48.875,56.375 "/>
<path fill="#F46C60" d="M3.878,16.667c-0.254-1.002-0.035-2.813,1.902-2.813h48.252c-0.253-0.587-0.849-1-1.568-1H4.78
	c-1.938,0-2.156,1.811-1.902,2.813L7.054,34.1L3.878,16.667z"/>
</svg>
