<?xml version="1.0" encoding="utf-8"?>
<!-- Generator: Adobe Illustrator 15.0.0, SVG Export Plug-In . SVG Version: 6.00 Build 0)  -->
<!DOCTYPE svg PUBLIC "-//W3C//DTD SVG 1.1//EN" "http://www.w3.org/Graphics/SVG/1.1/DTD/svg11.dtd">
<svg version="1.1" id="Layer_1" xmlns="http://www.w3.org/2000/svg" xmlns:xlink="http://www.w3.org/1999/xlink" x="0px" y="0px"
	 width="64px" height="64px" viewBox="0 0 64 64" enable-background="new 0 0 64 64" xml:space="preserve">
<polygon fill="#E6EBEF" points="62,44.426 44.426,62 19.575,62 2,44.426 2,19.575 19.575,2 44.426,2 62,19.575 "/>
<polygon fill="#FFFFFF" points="4.454,20.691 3.26,40.354 3.26,20.26 20.197,3.322 40.291,3.322 20.597,4.571 "/>
<polygon fill="#BEC3CF" points="60.806,44.044 62,19.575 62,44.426 44.426,62 19.575,62 44.026,60.751 "/>
<polygon fill="#E81C27" points="56,41.939 41.941,56 22.06,56 8,41.939 8,22.059 22.06,8 41.941,8 56,22.059 "/>
</svg>
