<?xml version="1.0" encoding="utf-8"?>
<!-- Generator: Adobe Illustrator 15.0.0, SVG Export Plug-In . SVG Version: 6.00 Build 0)  -->
<!DOCTYPE svg PUBLIC "-//W3C//DTD SVG 1.1//EN" "http://www.w3.org/Graphics/SVG/1.1/DTD/svg11.dtd">
<svg version="1.1" id="Layer_1" xmlns="http://www.w3.org/2000/svg" xmlns:xlink="http://www.w3.org/1999/xlink" x="0px" y="0px"
	 width="64px" height="64px" viewBox="0 0 64 64" enable-background="new 0 0 64 64" xml:space="preserve">
<path fill="#AA5BEF" d="M62,50c0,6.601-5.4,12-12,12H14C7.4,62,2,56.601,2,50V14C2,7.4,7.4,2,14,2h36c6.6,0,12,5.4,12,12V50z"/>
<path fill="#8D40CF" d="M56.838,4.162C58.196,6.106,59,8.462,59,11v37c0,6.601-4.399,11-11,11H11c-2.537,0-4.894-0.804-6.838-2.162
	C6.336,59.95,9.938,62,14,62h36c6.601,0,12-5.399,12-12V14C62,9.938,59.95,6.336,56.838,4.162z"/>
<path fill-rule="evenodd" clip-rule="evenodd" fill="#C28FEF" d="M4.975,12.585c0.339,2.704,4.793-2.587,9.303-7.135
	C17.188,2.525,3.957,4.45,4.975,12.585z"/>
<polygon fill="#FFFFFF" points="42.092,26.604 45,23.921 31,11 17,23.921 19.907,26.604 31,16.367 "/>
<path fill="#FFFFFF" d="M41.623,42.611c0.807-0.793,0.633-1.949,0-2.764c-2.031-2.605-4.063-5.209-6.094-7.813
	c-0.656-0.844-1.997-0.674-2.681,0c-1.179,1.16-2.356,2.32-3.534,3.486c0,0,0,0-3.686-3.084l-0.947,0.979
	c3.289,5.211,3.289,5.211,3.289,5.211c0.468,0.971,1.921,0.748,2.683,0l2.413-2.336l3.712,5.732
	c-2.235,2.209-3.523,3.436-5.758,5.639C29.816,48.854,30.735,51,32.36,51c3.453,0,7.854,0,11.306,0v-1.955
	c-6.582-1.955-6.582-1.955-6.582-1.955C38.595,45.598,40.107,44.105,41.623,42.611z"/>
<path fill="#FFFFFF" d="M29.924,25.344l-2.559,2.296c-0.383,0.341-0.423,0.948-0.09,1.346l2.223,2.636
	c0.332,0.396,0.918,0.441,1.304,0.092l2.556-2.293c0.383-0.342,0.425-0.947,0.092-1.344l-2.222-2.637
	C30.893,25.044,30.307,25,29.924,25.344z"/>
</svg>
