<?xml version="1.0" encoding="utf-8"?>
<!-- Generator: Adobe Illustrator 16.2.0, SVG Export Plug-In . SVG Version: 6.00 Build 0)  -->
<!DOCTYPE svg PUBLIC "-//W3C//DTD SVG 1.1//EN" "http://www.w3.org/Graphics/SVG/1.1/DTD/svg11.dtd">
<svg version="1.1" id="Layer_1" xmlns="http://www.w3.org/2000/svg" xmlns:xlink="http://www.w3.org/1999/xlink" x="0px" y="0px"
	 width="64px" height="64px" viewBox="0 0 64 64" enable-background="new 0 0 64 64" xml:space="preserve">
<polygon fill="#F9C802" points="7.804,23.732 20.895,28.619 21.356,25.419 "/>
<polygon fill="#006DAE" points="52.125,19.399 54,25.318 51.971,25.755 50,24.364 50,18.636 "/>
<path fill="#99A8AE" d="M29.188,32c0,0,0.951-3.128,0.449-3.996c-0.449-0.777-6.074-3.2-9.25-3.2c-0.75,0-0.967,1.875-0.967,3.01
	L29.188,32z"/>
<polygon fill="#018BC9" points="50,24.364 33.33,36.952 45.551,41.002 54,25.318 "/>
<polygon fill="#006DAE" points="36.064,34.863 40.438,36.06 49.813,25.755 48.681,25.36 "/>
<ellipse fill="#302C3B" cx="29.188" cy="30.091" rx="0.938" ry="2.386"/>
<path fill="#E6EBEF" d="M11.677,30.554c7.795,2.161,16.567,11.542,16.567,11.542c29.258,12.042,38.158,11.68,31.824,5.413
	c-5.58-5.521-2.949-8.245-10.645-10.964c-7.697-2.718-29.541-8.947-29.541-8.947L14.188,18.2l-5.415-2.4L11.677,30.554z"/>
<polygon fill="#CFD8DD" points="8.773,15.799 9.865,21.346 14.188,18.2 "/>
<g>
	<path fill="#CFD8DD" d="M21.541,36.061c3.874,3.01,6.705,6.036,6.705,6.036c14.095,5.801,23.456,8.717,28.673,9.488
		C56.486,51.434,32.733,43.209,21.541,36.061z"/>
</g>
<polygon fill="#018BC9" points="9.5,14.818 2,17.78 5.856,20.545 14.186,18.458 17,12.193 13.25,11 "/>
<polygon fill="#018BC9" points="27.162,39.201 2,50.22 5.871,53 42.01,45.9 "/>
<polygon fill="#006DAE" points="3.879,44.657 5.871,53 2,50.22 2,43.454 "/>
<path fill="#0FB4D4" d="M51.357,40.4c-0.727,0-2.904,0-2.904,0c0,2.65,2.166,4.799,4.838,4.799c1.465,0,2.762-0.658,3.648-1.677
	c-0.967-1.645-1.459-2.979-2.59-4.164C53.525,40.007,52.49,40.4,51.357,40.4z"/>
<path fill="#E6EBEF" d="M49.818,38.651l0.568-0.924c0.098,0.132,2.498,3.35,3.176,9.545l-1.006-0.19
	c-0.607-5.528-2.723-8.406-2.744-8.437L49.818,38.651z"/>
<polygon fill="#F9C802" points="2,26.918 13.153,33.319 13.615,30.119 "/>
<path fill="#99A8AE" d="M13.25,34.403c3.068,3.123,9.075,3.599,9.075,3.599l0.412-4.565c-2.269-2.311-7.32-3.831-9.123-3.831
	C12.636,29.605,11.899,33.026,13.25,34.403z"/>
<ellipse fill="#302C3B" cx="22.324" cy="35.6" rx="0.938" ry="2.386"/>
<polygon fill="#006DAE" points="4.904,48.948 6.688,50.137 30.125,42.5 24.926,40.18 "/>
<ellipse fill="#0FB4D4" cx="36" cy="38" rx="1" ry="2"/>
<ellipse fill="#0FB4D4" cx="41" cy="40" rx="1" ry="2"/>
<ellipse fill="#0FB4D4" cx="31" cy="36" rx="1" ry="2"/>
</svg>
