<?xml version="1.0" encoding="utf-8"?>
<!-- Generator: Adobe Illustrator 16.2.0, SVG Export Plug-In . SVG Version: 6.00 Build 0)  -->
<!DOCTYPE svg PUBLIC "-//W3C//DTD SVG 1.1//EN" "http://www.w3.org/Graphics/SVG/1.1/DTD/svg11.dtd">
<svg version="1.1" id="Layer_1" xmlns="http://www.w3.org/2000/svg" xmlns:xlink="http://www.w3.org/1999/xlink" x="0px" y="0px"
	 width="64px" height="64px" viewBox="0 0 64 64" enable-background="new 0 0 64 64" xml:space="preserve">
<polygon fill="#E6EBEF" points="35,34 45,24 49,24 43,34 "/>
<path fill="#CFD8DD" d="M49,24c0,0-4.2,7.151-11.15,7.151l5.67,1.982L49,24z"/>
<path fill="#E6EBEF" d="M53,36c-1,0-1.563-0.563-3-2c-3-3-3-3-18-3c-11.458,0-21,18-21,18s14.625,5,41,5c0,0-1-9.375-2-10
	c-2.967-1.854-7-4-3-4c2,0,2.625,0,4,0c1.168,0,4-2,4-2C55,37.209,54.247,36,53,36z"/>
<path fill="#302C3B" d="M19.011,38c-1.924,2.003-3.582,4.143-4.88,6c4.059,0,17.974,0,22.87,0c2.915,0-2-6-10-6
	C24.75,38,21.695,38,19.011,38z"/>
<path fill="#302C3B" d="M39,46c-7.758,0-14,2-14,2v4h24C49,52,47,46,39,46z"/>
<polygon fill="#6E8189" points="25,38 21,44 23,44 27,38 "/>
<path fill="#BEC3CF" d="M52.473,49c-0.061-0.46-0.257-0.832-0.727-0.964c-5.457-1.536-15.663-3.021-15.663-3.021
	c-0.293-0.295-0.587-0.594-0.881-0.891c-0.573-0.581-0.948-1.023-1.733-1.198c-9.63-2.12-19.634-2.895-29.467-2.927
	c-0.605-0.002-1.175,0.646-0.954,1.266C3.897,43.639,5.1,45.98,6.666,48H9.28c-1.614-1.716-2.857-3.801-3.783-5.98
	C7.317,42.04,9,42.096,11,42.172V47h2v-4.734c2,0.106,4,0.252,6,0.44V48h2v-5.085c2,0.219,4,0.479,6,0.791V49h2v-4.96
	c1,0.248,2.68,0.515,4.076,0.817c0.047,0.011,0.027,0.021,0.074,0.031c-0.068-0.008,0.133,0.092,0.375,0.336
	c0.315,0.32,0.785,0.643,1.102,0.963C34.707,46.27,35,46.322,35,46.389V52h2v-4.936c1,0.119,3,0.477,6,0.957V54h2v-5.614
	c2,0.423,4.206,0.904,5.816,1.392c0.142,1.074,0.063,2.148,0.205,3.225H53C52.824,51.667,52.648,50.333,52.473,49z"/>
<path fill="#E6EBEF" d="M59,62c1.1,0,2-0.9,2-2s-0.9-2-2-2h-1.068c-0.639-1.906-1.588-4.162-2.932-6c0,0-22-6-52-6
	c0,0,9.125,16,11,16H59z"/>
<path fill="#99A8AE" d="M59,62H14C12.125,62,3,46,3,46S23.375,62,59,62z"/>
<path fill="#E81C27" d="M56.242,54.035c-6.135-0.934-27.55-3.916-50.892-4.029c0.328,0.549,0.676,1.125,1.041,1.725
	c24.89,0.209,47.095,3.601,50.741,4.184C56.869,55.284,56.572,54.657,56.242,54.035z"/>
<path fill="#302C3B" d="M27,54h-2c-0.55,0-1,0.45-1,1s0.45,1,1,1h2c0.55,0,1-0.45,1-1S27.55,54,27,54z"/>
<path fill="#302C3B" d="M21,54h-2c-0.55,0-1,0.45-1,1s0.45,1,1,1h2c0.55,0,1-0.45,1-1S21.55,54,21,54z"/>
<path fill="#CFD8DD" d="M51,40c3.208,0,4-1,4-2H37C37,38,44,40,51,40z"/>
</svg>
