<?xml version="1.0" encoding="utf-8"?>
<!-- Generator: Adobe Illustrator 16.2.0, SVG Export Plug-In . SVG Version: 6.00 Build 0)  -->
<!DOCTYPE svg PUBLIC "-//W3C//DTD SVG 1.1//EN" "http://www.w3.org/Graphics/SVG/1.1/DTD/svg11.dtd">
<svg version="1.1" id="Layer_1" xmlns="http://www.w3.org/2000/svg" xmlns:xlink="http://www.w3.org/1999/xlink" x="0px" y="0px"
	 width="64px" height="64px" viewBox="0 0 64 64" enable-background="new 0 0 64 64" xml:space="preserve">
<path fill="#018BC9" d="M29.74,4.073C28.051,4.564,29.309,6.632,32.951,10L39,5.808C39,5.808,31.47,3.571,29.74,4.073z"/>
<path fill="#018BC9" d="M8,14c0,0,4.141-6,6-6c1.034,0,1,4,1,4L8,14z"/>
<path fill="#006DAE" d="M29.193,5.65L30,5.063l2.794,2.663C32.794,7.725,31.824,10.55,29.193,5.65z"/>
<path fill="#E6EBEF" d="M8.035,14.237c0,0-2.516,0.537-2.967,1.558C4.634,16.778,1.59,29.49,60,8.561
	c3.467-1.242,2.197-3.47-2.037-4.734C45.186,0.004,48.211,1.596,8.035,14.237z"/>
<path fill="#E6EBEF" d="M31.451,23.369c0,0-9.693-0.866-17.43,4.734c-0.442,0.323-1.393,1.206-0.272,2
	c2.214,1.084,7.505,2.572,17.429-0.285L31.451,23.369z"/>
<path fill="#99A8AE" d="M31.42,29.704c-0.852,0.144-1.623-1.16-1.719-2.899c-0.096-1.74,0.514-3.276,1.365-3.419
	c0.853-0.14,1.622,1.154,1.717,2.897C32.883,28.025,32.273,29.561,31.42,29.704z"/>
<path fill="#018BC9" d="M31.761,13.439c-2.507,0.651-3.677,1.019-5.351,2.931l-12.1,12.991c-1.676,1.914-0.959,3.17,1.592,2.79
	c2.552-0.38,6.223-2.04,8.16-3.69l18.406-15.7c1.938-1.651,1.474-2.473-1.034-1.823L31.761,13.439z"/>
<path fill="#302C3B" d="M31.041,27.262c-0.069-1.254-0.488-2.269-1.037-2.688c-0.229,0.609-0.349,1.395-0.303,2.231
	c0.07,1.254,0.491,2.272,1.04,2.693C30.971,28.887,31.09,28.102,31.041,27.262z"/>
<path fill="#0FB4D4" d="M53.549,3.261c-0.537,0.634-3.475,2.362-3.475,2.362s0.355,0.895,1.811,0.739
	c1.26-0.136,2.654-1.117,3.559-2.302L53.549,3.261z"/>
<path fill="#0FB4D4" d="M20.152,12.697c-0.467,0.148-0.73,0.659-0.588,1.137c0.145,0.479,0.643,0.745,1.109,0.594
	c0.469-0.148,0.731-0.659,0.586-1.139C21.117,12.812,20.621,12.546,20.152,12.697z"/>
<path fill="#0FB4D4" d="M23.785,11.528c-0.467,0.151-0.73,0.66-0.586,1.14c0.145,0.477,0.641,0.744,1.109,0.592
	c0.468-0.149,0.73-0.66,0.586-1.139C24.752,11.645,24.254,11.379,23.785,11.528z"/>
<path fill="#0FB4D4" d="M27.42,10.362c-0.467,0.15-0.73,0.66-0.587,1.138c0.145,0.478,0.642,0.744,1.108,0.595
	c0.469-0.151,0.732-0.662,0.588-1.139C28.386,10.477,27.889,10.212,27.42,10.362z"/>
<path fill="#0FB4D4" d="M31.055,9.194c-0.468,0.151-0.73,0.66-0.588,1.138c0.145,0.478,0.642,0.743,1.109,0.594
	c0.467-0.15,0.73-0.66,0.587-1.14C32.02,9.31,31.523,9.042,31.055,9.194z"/>
<path fill="#0FB4D4" d="M34.688,8.027c-0.467,0.15-0.729,0.66-0.586,1.138c0.145,0.478,0.641,0.743,1.108,0.592
	c0.47-0.149,0.729-0.658,0.587-1.138C35.654,8.143,35.157,7.877,34.688,8.027z"/>
<path fill="#0FB4D4" d="M38.322,6.859c-0.467,0.149-0.73,0.661-0.586,1.139c0.145,0.477,0.641,0.744,1.107,0.593
	c0.469-0.15,0.731-0.66,0.588-1.138C39.289,6.976,38.791,6.708,38.322,6.859z"/>
<path fill="#0FB4D4" d="M41.957,5.692c-0.467,0.149-0.73,0.662-0.588,1.139c0.145,0.478,0.643,0.743,1.109,0.593
	c0.469-0.149,0.731-0.661,0.588-1.138C42.922,5.808,42.425,5.542,41.957,5.692z"/>
<g>
	<rect x="2" y="46" fill="#BEC3CF" width="60" height="12"/>
	<rect x="2" y="58" fill="#7AB51D" width="60" height="4"/>
	<rect x="2" y="44" fill="#7AB51D" width="60" height="2"/>
	<rect x="2" y="50.5" fill="#FFFFFF" width="60" height="1"/>
</g>
<ellipse opacity="0.4" fill="#302C3B" enable-background="new    " cx="32" cy="53" rx="23" ry="3"/>
<path fill="#018BC9" d="M2,4.774C2,6.27,5.061,16,5.061,16s11.437-3.603,10.922-3.986C7.841,5.97,2,2.318,2,4.774z"/>
<path fill="#018BC9" d="M5.965,17.606c-0.646,0.422-3.217,5.602-2.479,5.602c0.738,0,5.302-2.676,9.812-7.186
	C13.769,15.551,8.84,15.725,5.965,17.606z"/>
<path fill="#006DAE" d="M26.851,15.899L14.31,29.361c-0.414,0.473-0.68,0.905-0.81,1.282L15,30l15-15L26.851,15.899z"/>
</svg>
