<?xml version="1.0" encoding="utf-8"?>
<!-- Generator: Adobe Illustrator 15.0.0, SVG Export Plug-In . SVG Version: 6.00 Build 0)  -->
<!DOCTYPE svg PUBLIC "-//W3C//DTD SVG 1.1//EN" "http://www.w3.org/Graphics/SVG/1.1/DTD/svg11.dtd">
<svg version="1.1" id="Layer_1" xmlns="http://www.w3.org/2000/svg" xmlns:xlink="http://www.w3.org/1999/xlink" x="0px" y="0px"
	 width="64px" height="64px" viewBox="0 0 64 64" enable-background="new 0 0 64 64" xml:space="preserve">
<path fill="#6E8189" d="M52.646,4.686l1.66,0.57l-6.887,7.093l2.799,10.859l9.84-10.89l1.656,0.569
	c0.803,3.402-0.086,7.142-2.669,9.797c-2.578,2.658-6.087,3.697-9.391,2.873L16.012,59.426c-2.931,2.955-6.791,3.467-9.902,0.33
	c5.931,1.99,10.188-4.363,10.188-4.363l-2.36-8.832L42.12,17.804C41.319,14.4,52.646,4.686,52.646,4.686z"/>
<path fill="#CFD8DD" d="M43.132,7.435c-2.58,2.657-3.376,6.492-2.572,9.896c0,0-32.301,32.518-34.547,34.782
	c-2.068,2.084-1.973,5.56,0.097,7.643c2.067,2.084,5.354,2.02,7.424-0.063l34.468-34.701c3.302,0.824,6.807-0.218,9.388-2.876
	c2.582-2.656,3.47-6.395,2.669-9.798l-6.887,7.091l-5.843-1.613l-1.566-6.016l6.884-7.093C49.344,3.864,45.714,4.776,43.132,7.435z
	 M9.309,54.295c0.595-0.6,1.378-0.891,2.158-0.88c0.143,0.101,0.282,0.209,0.41,0.337c1.169,1.18,1.169,3.09-0.001,4.27
	c-0.596,0.601-1.379,0.892-2.159,0.882c-0.143-0.101-0.282-0.208-0.409-0.337C8.137,57.386,8.138,55.475,9.309,54.295z"/>
<path fill="#BEC3CF" d="M19.878,42.845c-0.801,0.825,2.099,3.813,2.901,2.987l12.781-13.161c0.801-0.824-2.101-3.812-2.901-2.986
	L19.878,42.845z"/>
<path fill="#99A8AE" d="M33.69,29.758L20.981,42.844c-0.577,0.598,0.771,2.313,1.87,2.915l-0.072,0.073
	c-0.803,0.826-3.702-2.162-2.901-2.987l12.781-13.16C32.883,29.455,33.269,29.527,33.69,29.758z"/>
<path fill="#6E8189" d="M11.467,53.415c-0.78-0.011-1.563,0.28-2.158,0.88c-1.171,1.18-1.172,3.091-0.001,4.271
	c0.127,0.129,0.267,0.236,0.409,0.337c-0.755-0.011-1.504-0.302-2.077-0.881c-1.172-1.18-1.171-3.092,0-4.27
	C8.681,52.701,10.298,52.593,11.467,53.415z"/>
<polygon fill="#302C3B" points="29.626,22.571 23.819,28.38 17.571,22.13 23.378,16.32 "/>
<rect x="21.304" y="19.287" transform="matrix(0.7072 -0.707 0.707 0.7072 -10.2482 22.6659)" fill="#4E5E67" width="1.878" height="8.84"/>
<path fill="#302C3B" d="M39.05,5.954c-9.441-9.666-20.18,1.429-20.18,1.429l6.236,6.239c0,0,6.127-8.169,13.59-5.971
	c0.867,0.254,1.639,0.694,1.859,0.469C40.853,7.813,39.716,6.639,39.05,5.954z"/>
<path fill="#4E5E67" d="M38.892,6.417c-9.383-9.27-19.449,1.539-19.449,1.539l1.447,1.448C23.798,6.537,30.483,0.278,38.892,6.417z"
	/>
<path fill="#785647" d="M26.392,25.806l-3.189,3.192c0,0,1.471,2.537,4.475,5.633c3.311,3.42,7.689,5.336,12.061,9.848
	c6.576,6.785,12.049,14.07,14.033,16.805c0.748,1.033,0.822,0.893,1.736-0.054l3.148-3.148L26.392,25.806z"/>
<path fill="#B47D56" d="M26.392,25.806l3.693-3.694c0,0,2.344,1.42,5.346,4.518c3.314,3.417,5.172,7.936,9.545,12.447
	c6.576,6.785,13.637,12.43,16.289,14.477c0.998,0.771,0.951,0.939,0.035,1.883l-2.645,2.646L26.392,25.806z"/>
<path fill="#302C3B" d="M8.349,17.495c-0.4,2.256-2.375,1.554-4.197,3.375l7.965,7.967c1.459-1.457,0.285-3.5,3.262-4.31
	L8.349,17.495z"/>
<path fill="#6E8189" d="M12.116,28.836l-1.809,1.812c-0.457,0.457-1.199,0.457-1.656-0.001l-6.309-6.312
	c-0.457-0.458-0.457-1.198,0-1.655l1.809-1.811L12.116,28.836z"/>
<path fill="#99A8AE" d="M4.03,21.816l-1.098,1.281c-0.215,0.223-0.215,0.583,0,0.805l4.406,4.546
	C3.392,23.057,3.37,23.31,4.03,21.816z"/>
<path fill="#6E8189" d="M25.673,12.785c0.795,0.794,0.793,2.082,0,2.877l-8.629,8.632c-0.793,0.793-2.08,0.794-2.875-0.001
	l-5.752-5.753c-0.795-0.794-0.795-2.083,0-2.876l8.627-8.632c0.795-0.794,2.082-0.794,2.877,0L25.673,12.785z"/>
<path fill="#99A8AE" d="M17.216,8.133L9.06,16.548c-0.299,0.31-0.299,0.808,0,1.117l6.104,6.298
	C9.694,16.494,9.136,17.932,17.216,8.133z"/>
</svg>
