<?xml version="1.0" encoding="utf-8"?>
<!-- Generator: Adobe Illustrator 15.0.0, SVG Export Plug-In . SVG Version: 6.00 Build 0)  -->
<!DOCTYPE svg PUBLIC "-//W3C//DTD SVG 1.1//EN" "http://www.w3.org/Graphics/SVG/1.1/DTD/svg11.dtd">
<svg version="1.1" id="Layer_1" xmlns="http://www.w3.org/2000/svg" xmlns:xlink="http://www.w3.org/1999/xlink" x="0px" y="0px"
	 width="64px" height="64px" viewBox="0 0 64 64" enable-background="new 0 0 64 64" xml:space="preserve">
<path fill="#6E8189" d="M51,55.508c0,7.322-38,7.322-38,0V7h38V55.508z"/>
<rect x="46" y="8.5" fill="#99A8AE" width="3" height="50"/>
<path fill="#302C3B" d="M25,7.815H13V55.73c0,2.711,5.333,4.404,12,5.082v-1.557l-1.873-0.207L25,56.668V43.223l-1.873-0.215
	L25,41.238V27.189l-1.873-0.224L25,24.688V7.815z"/>
<ellipse fill="#302C3B" cx="32" cy="7.952" rx="20" ry="5.949"/>
<path fill="#6E8189" d="M50,7.579c0,2.738-8.059,4.958-18,4.958s-18-2.22-18-4.958c0-2.741,8.059-4.959,18-4.959S50,4.838,50,7.579z
	"/>
<path fill="#302C3B" d="M44.885,5.004c0.102,0.124,0.242,0.244,0.242,0.378c0,0.858-2.215,1.554-4.945,1.554
	s-4.945-0.695-4.945-1.554c0-0.134,0.141-0.254,0.242-0.378c-0.49,0.246-0.793,0.529-0.793,0.835c0,0.903,2.461,1.635,5.496,1.635
	s5.496-0.731,5.496-1.635C45.678,5.533,45.377,5.25,44.885,5.004z"/>
<ellipse fill="#302C3B" cx="40.182" cy="5.38" rx="4.154" ry="1.145"/>
<path fill="#302C3B" d="M50.775,22c0.086,0.191,0.223,0.382,0.223,0.579c0,2.739-8.504,4.959-18.998,4.959
	c-10.493,0-18.998-2.22-18.998-4.959c0-0.197,0.137-0.388,0.224-0.579C12.481,22.624,12,23.286,12,23.985
	c0,3.285,8.956,5.948,20,5.948c11.047,0,20-2.663,20-5.948C52,23.286,51.52,22.624,50.775,22z"/>
<path fill="#302C3B" d="M50.775,38.033c0.086,0.193,0.223,0.381,0.223,0.578c0,2.74-8.504,4.959-18.998,4.959
	c-10.493,0-18.998-2.219-18.998-4.959c0-0.197,0.137-0.385,0.224-0.578C12.481,38.656,12,39.318,12,40.018
	c0,3.285,8.956,5.949,20,5.949c11.047,0,20-2.664,20-5.949C52,39.318,51.52,38.656,50.775,38.033z"/>
<path fill="#302C3B" d="M50.775,54.066c0.086,0.191,0.223,0.381,0.223,0.578c0,2.738-8.504,4.959-18.998,4.959
	c-10.493,0-18.998-2.221-18.998-4.959c0-0.197,0.137-0.387,0.224-0.578C12.481,54.689,12,55.352,12,56.051
	C12,59.336,20.956,62,32,62c11.047,0,20-2.664,20-5.949C52,55.352,51.52,54.689,50.775,54.066z"/>
</svg>
