<?xml version="1.0" encoding="utf-8"?>
<!-- Generator: Adobe Illustrator 16.2.0, SVG Export Plug-In . SVG Version: 6.00 Build 0)  -->
<!DOCTYPE svg PUBLIC "-//W3C//DTD SVG 1.1//EN" "http://www.w3.org/Graphics/SVG/1.1/DTD/svg11.dtd">
<svg version="1.1" id="Layer_1" xmlns="http://www.w3.org/2000/svg" xmlns:xlink="http://www.w3.org/1999/xlink" x="0px" y="0px"
	 width="64px" height="64px" viewBox="0 0 64 64" enable-background="new 0 0 64 64" xml:space="preserve">
<path fill="#302C3B" d="M29.666,27.955c-2.145,0-1.477,3.723,0.727,3.723C32.708,31.678,32,27.955,29.666,27.955z"/>
<path fill="#E6EBEF" d="M23.474,33.98c-5.515,0-17.625-4.285-15.299-6.611c1.514-1.514,9.785-0.721,17.089,1.361L23.474,33.98z"/>
<path fill="#018BC9" d="M16.687,9.748c-1.725-0.679-7.827,3.199-7.827,3.199l7.247,0.759C16.106,13.706,17.646,10.125,16.687,9.748z
	"/>
<path fill="#302C3B" d="M52.8,28.917c0.62,0.92,0.514,2.053-0.235,2.532c-0.751,0.479-1.861,0.119-2.479-0.797
	c-0.618-0.922-0.513-2.057,0.235-2.529C51.07,27.641,52.178,27.998,52.8,28.917z"/>
<path fill="#99A8AE" d="M51.596,23.54c-0.086-1.017-1.705-0.852-1.623,0.161c0.164,2.019,0.328,4.038,0.494,6.054
	c0.08,1.021,1.703,0.854,1.619-0.161C51.924,27.575,51.758,25.561,51.596,23.54z"/>
<path fill="#302C3B" d="M51.877,29.343c0.616,0.918,0.513,2.051-0.238,2.53c-0.751,0.479-1.857,0.121-2.476-0.798
	c-0.62-0.919-0.515-2.056,0.234-2.531C50.146,28.064,51.255,28.422,51.877,29.343z"/>
<path fill="#99A8AE" d="M50.993,29.928c0.271,0.406,0.227,0.906-0.105,1.117c-0.331,0.211-0.819,0.053-1.093-0.352
	c-0.273-0.406-0.228-0.909,0.104-1.118C50.229,29.363,50.718,29.521,50.993,29.928z"/>
<path fill="#018BC9" d="M30.75,17.756c0,0-1.318-1.957-2.381-3.534c-1.06-1.58-0.917-2.617,0.321-2.316
	c1.236,0.304,3.733,1.566,5.547,2.803c0.818,0.561,3.291,2.247,3.291,2.247L30.75,17.756z"/>
<path fill="#006DAE" d="M28.605,13.041l-0.815,0.084c0.115,0.321,0.323,0.679,0.579,1.097c1.913,3.131,3.447,3.408,3.447,3.408
	l0.021-0.002C32.994,17.47,28.605,13.041,28.605,13.041z"/>
<path fill="#99A8AE" d="M30.231,23.586c-0.086-1.017-1.705-0.853-1.623,0.161c0.164,2.019,0.329,4.038,0.495,6.054
	c0.081,1.021,1.703,0.854,1.62-0.161C30.56,27.622,30.394,25.607,30.231,23.586z"/>
<path fill="#302C3B" d="M28.835,28.381c-2.335,0-1.626,3.753,0.728,3.753S30.92,28.381,28.835,28.381z"/>
<path fill="#E6EBEF" d="M8.475,13.174c0,0-2.546-1.206-3.212-0.005c-1.652,2.976-2.21,10.872,54.364,13.827
	c3.359,0.175,3.015-2.065-0.166-4.535C49.867,14.996,66.473,18.038,8.475,13.174z"/>
<path fill="#99A8AE" d="M23.474,33.98c-0.771-0.173-0.994-1.496-0.502-2.939c0.495-1.446,1.52-2.485,2.292-2.311
	c0.771,0.179,0.997,1.493,0.502,2.938C25.273,33.119,24.248,34.157,23.474,33.98z"/>
<path fill="#018BC9" d="M29.145,20.899c-2.345-0.328-3.461-0.428-5.518,0.553L9.043,27.862c-2.057,0.983-1.864,2.243,0.431,2.81
	c2.296,0.564,5.965,0.465,8.157-0.212l20.841-6.456c2.19-0.677,2.065-1.503-0.28-1.833L29.145,20.899z"/>
<ellipse fill="#0FB4D4" cx="20.033" cy="17.869" rx="0.816" ry="0.79"/>
<path fill="#0FB4D4" d="M23.58,17.356c-0.447-0.036-0.843,0.29-0.88,0.724c-0.036,0.435,0.3,0.818,0.749,0.854
	c0.445,0.036,0.841-0.288,0.877-0.723C24.362,17.775,24.029,17.392,23.58,17.356z"/>
<path fill="#0FB4D4" d="M27.061,17.633c-0.447-0.036-0.843,0.29-0.878,0.723c-0.037,0.436,0.296,0.818,0.747,0.852
	c0.445,0.038,0.841-0.288,0.876-0.723C27.843,18.051,27.508,17.668,27.061,17.633z"/>
<ellipse fill="#0FB4D4" cx="30.474" cy="18.698" rx="0.817" ry="0.791"/>
<path fill="#0FB4D4" d="M34.023,18.184c-0.449-0.032-0.845,0.29-0.882,0.726c-0.033,0.435,0.3,0.814,0.748,0.85
	c0.448,0.036,0.84-0.288,0.879-0.723C34.804,18.603,34.47,18.22,34.023,18.184z"/>
<ellipse fill="#0FB4D4" cx="37.437" cy="19.248" rx="0.816" ry="0.79"/>
<ellipse fill="#0FB4D4" cx="40.917" cy="19.523" rx="0.817" ry="0.791"/>
<path fill="#0FB4D4" d="M45.209,19.861c0.037-0.431-0.299-0.814-0.747-0.85c-0.446-0.036-0.839,0.288-0.876,0.723
	c-0.037,0.433,0.295,0.816,0.745,0.853C44.778,20.623,45.174,20.299,45.209,19.861z"/>
<rect x="2" y="46" fill="#BEC3CF" width="60" height="12"/>
<rect x="2" y="58" fill="#7AB51D" width="60" height="4"/>
<rect x="2" y="44" fill="#7AB51D" width="60" height="2"/>
<rect x="2" y="50.5" fill="#FFFFFF" width="60" height="1"/>
<path fill="#018BC9" d="M4.771,2.5C4.207,3.844,5.38,13.7,5.38,13.7S17.333,14.536,17,14.004C11.727,5.603,5.696,0.294,4.771,2.5z"
	/>
<path fill="#018BC9" d="M5.41,15.473C4.652,15.616,2,18.884,2,19.599c0,1.07,5.619-0.352,10.809-2.872
	C13.406,16.437,8.786,14.833,5.41,15.473z"/>
<polygon fill="#006DAE" points="11,28.001 26.875,22.002 23.807,21.373 9.043,27.862 "/>
<ellipse opacity="0.4" fill="#302C3B" cx="32" cy="53" rx="23" ry="3"/>
<path fill="#302C3B" d="M23.969,29.337c-0.454,0.35-1.844,2.663-1.003,4.247C23.524,33.356,25.052,30.421,23.969,29.337z"/>
<path fill="#0FB4D4" d="M57.241,21.787l-1.344-1.297c0,0-1.647,0.735-3.736,0.735C52.161,21.225,53.203,23.813,57.241,21.787z"/>
<path fill="#99A8AE" d="M28.854,29.528c-1,0-0.688,1.655,0.308,1.655C30.188,31.183,29.806,29.528,28.854,29.528z"/>
</svg>
