<?xml version="1.0" encoding="utf-8"?>
<!-- Generator: Adobe Illustrator 15.0.0, SVG Export Plug-In . SVG Version: 6.00 Build 0)  -->
<!DOCTYPE svg PUBLIC "-//W3C//DTD SVG 1.1//EN" "http://www.w3.org/Graphics/SVG/1.1/DTD/svg11.dtd">
<svg version="1.1" id="Layer_1" xmlns="http://www.w3.org/2000/svg" xmlns:xlink="http://www.w3.org/1999/xlink" x="0px" y="0px"
	 width="64px" height="64px" viewBox="0 0 64 64" enable-background="new 0 0 64 64" xml:space="preserve">
<path fill="#E6EBEF" d="M51.932,8.902c-4.304-8.391-35.561-8.349-39.868,0c-0.21,0.42-5.219,10.425-2.996,23.764
	c2.674,16.02,22.607,28.709,22.931,28.709c0.322,0,20.262-12.689,22.934-28.709C57.154,19.328,52.147,9.323,51.932,8.902z"/>
<path fill="#E6EBEF" d="M55.305,29.713c1.11-11.834-3.174-20.424-3.373-20.813c-2.17-4.23-11.192-6.314-20.157-6.273v27.086H55.305z
	"/>
<path fill="#E81C27" d="M31.775,29.713V61.26c0.123,0.07,0.207,0.114,0.224,0.114c0.322,0,20.262-12.689,22.934-28.71
	c0.167-1.006,0.281-1.985,0.372-2.951H31.775z"/>
<path fill="#E81C27" d="M31.775,2.627C22.959,2.667,14.199,4.762,12.064,8.9c-0.194,0.389-4.479,8.979-3.369,20.813h23.08V2.627z"/>
<path fill="#E6EBEF" d="M8.695,29.713c0.09,0.966,0.205,1.945,0.373,2.951c2.531,15.166,20.521,27.34,22.707,28.596V29.713H8.695z"
	/>
<path opacity="0.3" fill="#302C3B" d="M32.032,7.032c9.529,0,15.213,2.428,16.055,4.07c0.047,0.089,4.549,9.088,2.574,20.935
	C48.843,42.94,36.946,52.82,31.999,56.268c-4.946-3.447-16.841-13.326-18.661-24.229c-1.951-11.713,2.402-20.598,2.567-20.929
	C16.753,9.464,22.464,7.032,32.032,7.032 M32.032,3.25c-8.713,0-17.434,2.053-19.544,6.144C12.283,9.805,7.38,19.597,9.555,32.651
	c2.616,15.68,22.127,28.099,22.443,28.099c0.315,0,19.831-12.419,22.446-28.099c2.175-13.055-2.726-22.846-2.938-23.258
	C49.403,5.293,40.722,3.25,32.032,3.25L32.032,3.25z"/>
<path fill="#BEC3CF" d="M32.033,5.946c9.943,0,15.875,2.533,16.753,4.247c0.049,0.093,4.746,9.483,2.688,21.846
	c-1.898,11.377-14.313,21.686-19.475,25.283c-5.161-3.597-17.573-13.904-19.472-25.283C10.49,19.817,15.033,10.546,15.205,10.2
	C16.09,8.484,22.05,5.946,32.033,5.946 M32.033,2C22.941,2,13.841,4.142,11.64,8.411C11.425,8.84,6.31,19.058,8.58,32.68
	C11.31,49.041,31.668,62,31.999,62c0.329,0,20.693-12.959,23.421-29.32c2.27-13.622-2.844-23.839-3.064-24.269
	C50.161,4.132,41.101,2,32.033,2L32.033,2z"/>
<path fill="#E6EBEF" d="M12.982,9.159c2.918-5.425,16-6.206,18.793-6.741c-9.092,0-17.509,2.215-19.711,6.484
	c-0.18,0.361-3.754,7.158-3.559,17.571C9.107,21.777,10.353,14.05,12.982,9.159z"/>
<path fill="#99A8AE" d="M32,60.027c-2.412-0.887-4.725-2.244-4.725-2.244c3.256,2.615,4.613,3.412,4.725,3.412
	c0.324,0,19.312-11.493,22.524-27.498C50.794,47.045,37.648,57.085,32,60.027z"/>
<path fill="#F46C60" d="M16.88,12.618c2.146-3.985,11.768-4.559,13.82-4.951c-6.687,0-12.877,1.627-14.496,4.763
	c-0.132,0.266-2.762,5.258-2.617,12.907C14.031,21.887,14.947,16.211,16.88,12.618z"/>
</svg>
