<?xml version="1.0" encoding="utf-8"?>
<!-- Generator: Adobe Illustrator 16.2.0, SVG Export Plug-In . SVG Version: 6.00 Build 0)  -->
<!DOCTYPE svg PUBLIC "-//W3C//DTD SVG 1.1//EN" "http://www.w3.org/Graphics/SVG/1.1/DTD/svg11.dtd">
<svg version="1.1" id="Layer_1" xmlns="http://www.w3.org/2000/svg" xmlns:xlink="http://www.w3.org/1999/xlink" x="0px" y="0px"
	 width="64px" height="64px" viewBox="0 0 64 64" enable-background="new 0 0 64 64" xml:space="preserve">
<rect x="23.151" y="38.019" transform="matrix(-0.707 0.7072 -0.7072 -0.707 70.2929 48.802)" fill="#6E8189" width="3.771" height="1.888"/>
<rect x="3.272" y="40.929" transform="matrix(-0.7071 0.7071 -0.7071 -0.7071 61.2548 70.6274)" fill="#018BC9" width="25.456" height="14.142"/>
<rect x="37.114" y="24.055" transform="matrix(-0.707 0.7072 -0.7072 -0.707 84.2526 15.089)" fill="#6E8189" width="3.772" height="1.886"/>
<rect x="12.628" y="55.263" transform="matrix(-0.7073 0.7069 -0.7069 -0.7073 63.756 87.5227)" fill="#75D6FF" width="2.263" height="3.395"/>
<rect x="5.909" y="48.543" transform="matrix(-0.7071 0.7071 -0.7071 -0.7071 47.5445 80.7879)" fill="#CAE8F0" width="2.264" height="3.396"/>
<rect x="11.508" y="49.664" transform="matrix(-0.7073 0.7069 -0.7069 -0.7073 57.8856 78.755)" fill="#0FB4D4" width="2.261" height="3.394"/>
<rect x="12.628" y="41.823" transform="matrix(-0.7071 0.7071 -0.7071 -0.7071 54.2627 64.5637)" fill="#75D6FF" width="2.264" height="3.394"/>
<rect x="21.587" y="46.304" transform="matrix(-0.7071 0.7071 -0.7071 -0.7071 72.7251 65.8782)" fill="#CAE8F0" width="2.264" height="3.393"/>
<rect x="20.469" y="40.702" transform="matrix(-0.7069 0.7073 -0.7073 -0.7069 66.8587 57.0921)" fill="#0FB4D4" width="2.263" height="3.394"/>
<polygon fill="#018BC9" points="34,19.92 52,2 62,12 44,30 "/>
<rect x="51.269" y="3.101" transform="matrix(-0.7069 0.7073 -0.7073 -0.7069 92.8354 -28.8746)" fill="#0FB4D4" width="2.263" height="3.394"/>
<rect x="50.229" y="10.942" transform="matrix(-0.7069 0.7073 -0.7073 -0.7069 96.6068 -14.7563)" fill="#75D6FF" width="2.263" height="3.393"/>
<rect x="51.35" y="16.541" transform="matrix(-0.707 0.7072 -0.7072 -0.707 102.4828 -5.9814)" fill="#CAE8F0" width="2.261" height="3.396"/>
<rect x="43.509" y="17.661" transform="matrix(-0.7072 0.707 -0.707 -0.7072 89.8967 1.4884)" fill="#CAE8F0" width="2.263" height="3.395"/>
<rect x="44.63" y="23.261" transform="matrix(-0.7073 0.7069 -0.7069 -0.7073 95.7723 10.2644)" fill="#75D6FF" width="2.263" height="3.395"/>
<rect x="37.909" y="16.54" transform="matrix(-0.7071 0.7071 -0.7071 -0.7071 79.5414 3.528)" fill="#0FB4D4" width="2.262" height="3.396"/>
<path fill="#E6EBEF" d="M47.394,34.816L34.815,22.237L22.237,34.816l12.578,12.578c3.474,3.474,9.105,3.474,12.578,0
	C50.868,43.922,50.868,38.29,47.394,34.816z"/>
<path fill="#CFD8DD" d="M25.032,32.021l-2.795,2.796l12.578,12.578c2.181,2.181,5.211,2.991,8.024,2.434L25.032,32.021z"/>
<path fill="#F59E01" d="M44.599,32.021l-1.397-1.397c1.931,1.93,0.679,6.31-2.795,9.783c-3.475,3.474-7.854,4.726-9.783,2.795
	l1.398,1.398c1.929,1.93,6.309,0.678,9.782-2.796S46.529,33.951,44.599,32.021z"/>
<ellipse transform="matrix(0.7071 -0.7071 0.7071 0.7071 -11.8164 28.5281)" fill="#BEC3CF" cx="28.526" cy="28.527" rx="8.894" ry="4.942"/>
<rect x="34.057" y="33.114" transform="matrix(0.7071 -0.7071 0.7071 0.7071 -14.4976 34.9997)" fill="#BEC3CF" width="1.885" height="3.771"/>
<path fill="#E6EBEF" d="M32.72,22.936l-4.193-4.192l-9.784,9.783l4.193,4.192c1.544,1.544,4.985,0.606,7.687-2.096
	S34.263,24.48,32.72,22.936z"/>
<path fill="#CFD8DD" d="M21.539,25.732l-2.795,2.795l4.193,4.192c1.115,1.115,3.218,0.93,5.318-0.272L21.539,25.732z"/>
<ellipse transform="matrix(0.7071 -0.7071 0.7071 0.7071 -9.7901 23.6342)" fill="#BEC3CF" cx="23.635" cy="23.635" rx="6.918" ry="3.953"/>
<ellipse transform="matrix(0.7071 -0.7072 0.7072 0.7071 -9.7902 23.6372)" fill="#6E8189" cx="23.635" cy="23.635" rx="4.941" ry="2.471"/>
<path fill="#E6EBEF" d="M27.928,11.63L11.63,27.927c1.801,1.799,6.869,1.825,12.495-3.803C29.751,18.5,29.727,13.429,27.928,11.63z"
	/>
<path fill="#BEC3CF" d="M27.928,11.63L11.63,27.927c1.801,1.799,6.908-0.389,11.408-4.89C27.539,18.538,29.727,13.429,27.928,11.63z
	"/>
<path fill="#E6EBEF" d="M16.52,16.52c-4.5,4.5-6.689,9.609-4.89,11.408c0,0,3.803-1.629,9.235-7.063
	c5.433-5.432,7.062-9.235,7.062-9.235C26.128,9.831,21.021,12.019,16.52,16.52z"/>
<path fill="#CFD8DD" d="M23.698,17.074c-3.048-1.017-6.098-2.032-9.146-3.048c-0.527-0.177-0.745,0.658-0.219,0.834
	c3.048,1.016,6.098,2.032,9.146,3.048C24.006,18.083,24.224,17.249,23.698,17.074z"/>
<path fill="#CFD8DD" d="M17.907,23.479c-1.016-3.048-2.032-6.098-3.048-9.147c-0.175-0.526-1.01-0.309-0.834,0.219
	c1.016,3.049,2.034,6.098,3.048,9.148C17.249,24.225,18.084,24.006,17.907,23.479z"/>
<circle fill="#CFD8DD" cx="15" cy="15" r="2"/>
<path fill="#E6EBEF" d="M16.821,15.82C16.935,15.569,17,15.293,17,15c0.001-1.104-0.894-2-2-2c-0.293,0-0.569,0.066-0.819,0.18
	C14.068,13.431,14,13.708,14,14c0,1.105,0.896,2.001,2,2C16.293,16,16.57,15.934,16.821,15.82z"/>
</svg>
