<?xml version="1.0" encoding="utf-8"?>
<!-- Generator: Adobe Illustrator 16.2.0, SVG Export Plug-In . SVG Version: 6.00 Build 0)  -->
<!DOCTYPE svg PUBLIC "-//W3C//DTD SVG 1.1//EN" "http://www.w3.org/Graphics/SVG/1.1/DTD/svg11.dtd">
<svg version="1.1" id="Layer_1" xmlns="http://www.w3.org/2000/svg" xmlns:xlink="http://www.w3.org/1999/xlink" x="0px" y="0px"
	 width="64px" height="64px" viewBox="0 0 64 64" enable-background="new 0 0 64 64" xml:space="preserve">
<polygon fill="#529320" points="26,57 22,57 12,39 16,39 "/>
<path fill="#302C3B" d="M3,4C2.448,4,2,4.896,2,6s0.448,2,1,2h7V4H3z"/>
<path fill="#92C932" d="M13.038,42c-3.313,0-6.235,2.687-6.525,6C6.513,48,6,54,6,56c0,1.108,0.533,2,1.638,2s2.079-0.896,2.175-2
	l0.7-8c0.097-1.104,1.07-2,2.175-2s1.922,0.896,1.825,2h4C18.803,44.687,16.351,42,13.038,42z"/>
<path fill="#529320" d="M8.25,51C7.751,56.703,6,56,6,56c0,1.104,0.533,2,1.638,2s2.079-0.896,2.175-2l0.7-8
	c0.097-1.104,1.07-2,2.175-2C10.854,46,8.6,47,8.25,51z"/>
<polygon fill="#92C932" points="16,45 10,45 11,30 17,30 "/>
<circle fill="#302C3B" cx="53" cy="55" r="7"/>
<ellipse fill="#302C3B" cx="12" cy="55" rx="4" ry="7"/>
<rect x="12" y="48" fill="#302C3B" width="2" height="14"/>
<ellipse fill="#302C3B" cx="14" cy="55" rx="4" ry="7"/>
<ellipse fill="#BEC3CF" cx="14" cy="55" rx="2" ry="4"/>
<ellipse fill="#6E8189" cx="14" cy="55" rx="1" ry="2"/>
<path fill="#92C932" d="M14.513,48l-0.7,8c-0.097,1.104,0.72,2,1.825,2s2.079-0.896,2.175-2l0.7-8L16.6,47L14.513,48z"/>
<ellipse fill="#4E5E67" cx="10" cy="6" rx="2" ry="4"/>
<path fill="#529320" d="M51,45c-5.514,0-10,4.486-10,10h2c0-4.411,3.589-8,8-8h2v-2H51z"/>
<path fill="#92C932" d="M61,47c-1.27,0-1.672,0-2.566-0.478C56.669,45.581,55.028,45.054,53,45c-5.514,0-10,4.486-10,10h2
	c0-4.411,3.589-8.059,8-8c2.146,0.028,3.63,0.896,5.506,1.735C59.063,48.984,59.881,49,61,49C62.29,49,62.375,47,61,47z"/>
<path fill="#BEC3CF" d="M10.362,4C9.81,4,9.284,4.896,9.187,6s1.273,2,1.825,2h3l-1.75,20h4l1.75-20h5l0.35-4H10.362z"/>
<circle fill="#BEC3CF" cx="53" cy="55" r="4"/>
<polygon fill="#92C932" points="15,34 15,38 26,57 26,53 "/>
<polygon fill="#529320" points="16.867,32 17,30 11,30 10.867,32 "/>
<path fill="#D9E617" d="M13.038,42L13.038,42c3,0,3.75,2.855,3.475,6c-0.153,1.75-0.263,3-0.612,7c-0.048,0.553,0.36,1,0.913,1
	s1.039-0.447,1.087-1l0.612-7C18.803,44.687,16.351,42,13.038,42z"/>
<path fill="#D9E617" d="M16,32h-2l-1,10c1.5,0,2,0.453,2,0.453L16,32z"/>
<polygon fill="#E6EBEF" points="16.012,8 14.263,28 15.263,28 17.012,8 "/>
<path fill="#92C932" d="M53,53H24l2,4h27c1.104,0,2-0.896,2-2S54.104,53,53,53z"/>
<path fill="#6E8189" d="M18.187,6c-0.552,0-1.039,0.448-1.087,1s0.36,1,0.913,1h4l0.175-2H18.187z"/>
<circle fill="#FFFFFF" cx="53" cy="55" r="1"/>
<ellipse fill="#4E5E67" cx="23" cy="6" rx="2" ry="4"/>
<path fill="#6E8189" d="M13.187,6h-4C9.09,7.104,9.459,8,10.012,8h3c0.552,0,1.039-0.448,1.087-1S13.739,6,13.187,6z"/>
<path fill="#302C3B" d="M23,4c-0.552,0-1,0.896-1,2s0.448,2,1,2h7V4H23z"/>
<ellipse fill="#4E5E67" cx="30" cy="6" rx="1" ry="2"/>
<rect x="10" y="28" fill="#99A8AE" width="8" height="2"/>
<rect x="14" y="28" fill="#BEC3CF" width="2" height="2"/>
</svg>
