<?xml version="1.0" encoding="utf-8"?>
<!-- Generator: Adobe Illustrator 16.2.0, SVG Export Plug-In . SVG Version: 6.00 Build 0)  -->
<!DOCTYPE svg PUBLIC "-//W3C//DTD SVG 1.1//EN" "http://www.w3.org/Graphics/SVG/1.1/DTD/svg11.dtd">
<svg version="1.1" id="Layer_1" xmlns="http://www.w3.org/2000/svg" xmlns:xlink="http://www.w3.org/1999/xlink" x="0px" y="0px"
	 width="64px" height="64px" viewBox="0 0 64 64" enable-background="new 0 0 64 64" xml:space="preserve">
<path fill="#CFD8DD" d="M51,19c0-0.812-0.484-1.507-1.18-1.82C49.507,16.485,48.813,16,48,16c-0.749,0-1.395,0.417-1.736,1.026
	C46.176,17.015,46.09,17,46,17c-1.104,0-2,0.896-2,2s0.896,2,2,2c0.602,0,1.134-0.271,1.5-0.689C47.866,20.729,48.398,21,49,21
	c0.457,0,0.873-0.159,1.21-0.417C50.393,20.829,50.67,21,51,21c0.552,0,1-0.448,1-1S51.552,19,51,19z"/>
<path fill="#E6EBEF" d="M46,20c-1.656,0-3,0.447-3,1v7h6v-7C49,20.447,47.656,20,46,20z"/>
<path fill="#CFD8DD" d="M40,9c0-1.657-1.343-3-3-3c-0.621,0-1.197,0.188-1.676,0.512C34.971,6.197,34.51,6,34,6
	c-1.104,0-2,0.896-2,2c0,0.061,0.013,0.118,0.018,0.178C30.846,8.586,30,9.688,30,11c0,1.657,1.343,3,3,3
	c1.387,0,2.539-0.943,2.885-2.22C36.229,11.919,36.605,12,37,12c0.409,0,0.799-0.083,1.154-0.231C38.455,12.491,39.168,13,40,13
	c1.104,0,2-0.896,2-2S41.104,9,40,9z"/>
<path fill="#E03636" d="M46,22c-2,0-3,1-3,1v2c0,0,1-1,3-1s3,1,3,1v-2C49,23,48,22,46,22z"/>
<polygon fill="#6E8189" points="12,24 16,21 16,24 "/>
<polygon fill="#6E8189" points="10,28 18,23 18,30 "/>
<path fill="#E6EBEF" d="M32,11c-2.209,0-4,0.447-4,1v7h8v-7C36,11.447,34.209,11,32,11z"/>
<path fill="#E03636" d="M32,13c-3,0-4,1-4,1v2c0,0,1-1,4-1s4,1,4,1v-2C36,14,35,13,32,13z"/>
<polygon fill="#6E8189" points="60,49 60,35 36,18 22,16 14,20 16,20 16,29 "/>
<polygon fill="#302C3B" points="17,28 29,29 29,27 "/>
<path fill="#E6EBEF" d="M8,28c0,0-4.568,1.292-6,6c0,0,1.466,6.059,6,13c4.534,6.945,7,15,7,15V35L8,28z"/>
<polygon fill="#E6EBEF" points="8,32 14,29 14,27 8,30 "/>
<path fill="#CFD8DD" d="M8.035,28c0,0-0.547,7.366,2.67,16.477C15.156,57.074,15,62,15,62h42c0,0,0.212-1.896,2.002-5
	C61.369,52.896,62,50,62,50C34.021,35.001,25.022,28,8.035,28z"/>
<polygon fill="#E6EBEF" points="10,28 16,25 16,23 10,26 "/>
<polygon fill="#CFD8DD" points="14,27 30,29 30,31 14,29 "/>
<polygon fill="#E6EBEF" points="12,24 18,21 18,19 12,22 "/>
<polygon fill="#302C3B" points="19,24 31,25 31,23 "/>
<polygon fill="#CFD8DD" points="16,23 32,25 32,27 16,25 "/>
<polygon fill="#302C3B" points="21,20 33,21 33,19 "/>
<polygon fill="#CFD8DD" points="18,19 34,21 34,23 18,21 "/>
<polygon fill="#CFD8DD" points="20,15 36,17 36,19 20,17 "/>
<polygon fill="#E6EBEF" points="14,20 20,17 20,15 14,18 "/>
<polygon fill="#302C3B" points="33,29 33,31 59,46 59,45 "/>
<polygon fill="#302C3B" points="35,25 35,27 59,42 59,41 "/>
<polygon fill="#BEC3CF" points="60,48 30,31 30,29 60,47 "/>
<polygon fill="#BEC3CF" points="60,44 32,27 32,25 60,43 "/>
<polygon fill="#302C3B" points="37,21 37,23 59,38 59,37 "/>
<polygon fill="#BEC3CF" points="60,40 34,23 34,21 60,39 "/>
<polygon fill="#BEC3CF" points="60,36 36,19 36,17 60,35 "/>
<polygon fill="#302C3B" points="30,35 30,37 60,51 60,50 "/>
<path fill="#94989B" d="M8.001,16c0,0-0.091-1.582,1.541-2.13c0,0,0.51-2.001,2.458-1.863c0,0-2.014,1.045-1.865,2.783
	C10.133,14.79,8.699,14.325,8.001,16z"/>
<path fill="#94989B" d="M10,8.949c0,0-2.553-0.781-3.245,1.051C6.754,9.999,5.522,8.259,4,9.271c0,0,0.678-1.629,2.6-0.705
	C6.6,8.566,8.089,7.066,10,8.949"/>
<g>
	<path fill="#E03636" d="M32.372,37.898c-4.444-2.002-4.521-0.313-0.077,1.688C36.738,41.59,36.816,39.9,32.372,37.898z"/>
	<path fill="#E03636" d="M40.15,41.404c-4.443-2.004-4.522-0.313-0.078,1.688C44.516,45.096,44.594,43.406,40.15,41.404z"/>
	<path fill="#E03636" d="M47.928,44.906c-4.443-2.004-4.521-0.313-0.078,1.689C52.293,48.6,52.372,46.91,47.928,44.906z"/>
	<path fill="#E03636" d="M55.705,48.411c-4.443-2.001-4.521-0.312-0.077,1.687C60.072,52.105,60.148,50.415,55.705,48.411z"/>
</g>
</svg>
