<?xml version="1.0" encoding="utf-8"?>
<!-- Generator: Adobe Illustrator 15.0.0, SVG Export Plug-In . SVG Version: 6.00 Build 0)  -->
<!DOCTYPE svg PUBLIC "-//W3C//DTD SVG 1.1//EN" "http://www.w3.org/Graphics/SVG/1.1/DTD/svg11.dtd">
<svg version="1.1" id="Layer_1" xmlns="http://www.w3.org/2000/svg" xmlns:xlink="http://www.w3.org/1999/xlink" x="0px" y="0px"
	 width="64px" height="64px" viewBox="0 0 64 64" enable-background="new 0 0 64 64" xml:space="preserve">
<path opacity="0.5" fill="#A6E639" d="M40.98,59.794c0,2.512-18,2.512-18,0S40.98,57.282,40.98,59.794z"/>
<path opacity="0.5" fill="#A6E639" d="M14,30.544c0,0,6.5,15.896,8.395,29.323c0.402,2.844,18.809,2.844,19.209,0
	C43.498,46.44,50,30.544,50,30.544H14z"/>
<polygon opacity="0.5" fill="#FFFFFF" points="29.838,36.034 31.98,62 34.125,36.034 "/>
<polygon opacity="0.7" fill="#FFFFFF" points="29.838,36.034 31.98,49.99 34.125,36.034 "/>
<polygon opacity="0.5" fill="#FFFFFF" points="39.131,35.903 38.883,61.378 43.404,36.252 "/>
<polygon opacity="0.7" fill="#FFFFFF" points="39.131,35.903 39.982,49.787 43.404,36.252 "/>
<polygon opacity="0.5" fill="#FFFFFF" points="24.83,35.647 20.559,35.997 25.078,61.378 "/>
<polygon opacity="0.7" fill="#FFFFFF" points="20.559,36.252 23.979,49.787 24.83,35.903 "/>
<path fill="#4E5E67" d="M52,34.348c0.002,1.037-6.383,4.651-20,4.651s-20-3.614-20-4.648C12,31.807,52.002,31.807,52,34.348z"/>
<path fill="#99A8AE" d="M61.479,27.079c0.002,2.429-9.412,10.92-29.488,10.92c-20.078,0-29.49-8.489-29.488-10.919
	C2.5,21.108,61.479,21.108,61.479,27.079z"/>
<path fill="#6E8189" d="M61.5,27.079c0,2.429-9.412,10.92-29.488,10.92C50.277,35.821,43.076,25.345,61.5,27.079z"/>
<path fill="#302C3B" d="M61.49,27.079c0,5.308-58.979,5.309-58.979,0.001C2.512,21.108,61.49,21.108,61.49,27.079z"/>
<path fill-rule="evenodd" clip-rule="evenodd" fill="#A6E639" d="M33.426,29.677c-0.008,1.302-2.805,1.302-2.813,0
	C30.604,28.393,33.434,28.393,33.426,29.677z"/>
<path fill-rule="evenodd" clip-rule="evenodd" fill="#A6E639" d="M27.742,29.621c0.018,1.301-2.779,1.192-2.813-0.109
	C24.898,28.227,27.727,28.336,27.742,29.621z"/>
<path fill-rule="evenodd" clip-rule="evenodd" fill="#A6E639" d="M22.063,29.426c0.039,1.303-2.752,1.085-2.809-0.219
	C19.199,27.92,22.021,28.14,22.063,29.426z"/>
<path fill-rule="evenodd" clip-rule="evenodd" fill="#A6E639" d="M16.395,29.088c0.063,1.305-2.721,0.979-2.801-0.328
	C13.514,27.471,16.33,27.801,16.395,29.088z"/>
<path fill-rule="evenodd" clip-rule="evenodd" fill="#A6E639" d="M10.742,28.379c0.088,1.308-2.686,0.873-2.789-0.438
	C7.85,26.648,10.654,27.088,10.742,28.379z"/>
<path fill-rule="evenodd" clip-rule="evenodd" fill="#A6E639" d="M5.115,27.189c0.111,1.312-2.648,0.768-2.773-0.547
	C2.213,25.346,5.002,25.895,5.115,27.189z"/>
<path fill-rule="evenodd" clip-rule="evenodd" fill="#A6E639" d="M39.109,29.512c-0.031,1.302-2.826,1.41-2.811,0.109
	C36.314,28.336,39.143,28.227,39.109,29.512z"/>
<path fill-rule="evenodd" clip-rule="evenodd" fill="#A6E639" d="M44.785,29.207c-0.055,1.303-2.846,1.521-2.807,0.219
	C42.018,28.139,44.842,27.92,44.785,29.207z"/>
<path fill-rule="evenodd" clip-rule="evenodd" fill="#A6E639" d="M50.445,28.76c-0.078,1.307-2.861,1.633-2.799,0.328
	C47.711,27.801,50.527,27.471,50.445,28.76z"/>
<path fill-rule="evenodd" clip-rule="evenodd" fill="#A6E639" d="M56.086,27.941c-0.102,1.311-2.875,1.744-2.787,0.438
	C53.387,27.088,56.191,26.648,56.086,27.941z"/>
<path fill-rule="evenodd" clip-rule="evenodd" fill="#A6E639" d="M61.699,26.643c-0.127,1.314-2.885,1.858-2.773,0.547
	C59.039,25.895,61.828,25.345,61.699,26.643z"/>
<path fill="#B5C2C9" d="M2,24.048c0.002-1.842,9.664-12.05,29.99-12.049c20.326-0.001,29.99,10.207,29.99,12.049
	C61.979,29.54,2.002,29.539,2,24.048z"/>
<path fill="#99A8AE" d="M46.824,14.058c10.24,3.083,15.178,8.674,15.176,9.99c0,3.163-19.893,4.504-36.768,4.022
	C59.154,27.353,42.738,12.829,46.824,14.058z"/>
<path fill-rule="evenodd" clip-rule="evenodd" fill="#CFD8DD" d="M3.275,23.332c-1.094,1.492,4.75-2.91,8.863-4.969
	C15.668,16.6,7.488,17.564,3.275,23.332z"/>
<path fill="#529320" d="M50.306,15.277c0.002,1.181-0.509,5.294-18.306,5.294s-18.306-4.114-18.306-5.291
	C13.694,12.385,50.308,12.385,50.306,15.277z"/>
<path fill="#A6E639" d="M14.732,15.092c0-2.001,5.565-13.099,17.262-13.092c11.699-0.007,17.264,11.091,17.264,13.092
	C49.255,21.063,14.732,21.063,14.732,15.092z"/>
<path opacity="0.5" fill="#E0FFAB" d="M46.849,17.514c-2.666-4.777-7.57-10.285-14.854-10.279
	c-7.283-0.006-12.188,5.502-14.853,10.279C23.467,20.256,40.522,20.256,46.849,17.514z"/>
<path opacity="0.5" fill="#529320" d="M40.532,4.23c5.896,3.36,8.735,9.429,8.735,10.861c0,3.441-11.451,4.897-21.162,4.377
	C47.632,18.686,38.182,2.892,40.532,4.23z"/>
<path fill-rule="evenodd" clip-rule="evenodd" fill="#E0FFAB" d="M15.98,13.581c-1.63,4.607,6.724-5.731,8.95-7.848
	C26.844,3.933,18.579,6.233,15.98,13.581z"/>
<path fill-rule="evenodd" clip-rule="evenodd" fill="#E0FFAB" d="M26.134,4.494c-0.185,0.711,2.142-0.241,2.654-1.056
	C29.229,2.738,26.579,2.786,26.134,4.494z"/>
</svg>
