<?xml version="1.0" encoding="utf-8"?>
<!-- Generator: Adobe Illustrator 16.2.0, SVG Export Plug-In . SVG Version: 6.00 Build 0)  -->
<!DOCTYPE svg PUBLIC "-//W3C//DTD SVG 1.1//EN" "http://www.w3.org/Graphics/SVG/1.1/DTD/svg11.dtd">
<svg version="1.1" id="Layer_1" xmlns="http://www.w3.org/2000/svg" xmlns:xlink="http://www.w3.org/1999/xlink" x="0px" y="0px"
	 width="64px" height="64px" viewBox="0 0 64 64" enable-background="new 0 0 64 64" xml:space="preserve">
<rect x="56" y="42" fill="#4E5E67" width="5" height="4"/>
<path fill="#E81C27" d="M61,42h-1v4h1c1,0,1-0.896,1-2S62,42,61,42z"/>
<path fill="#282433" d="M44,54c0,4.42,3.578,8,7.998,8C56.42,62,60,58.42,60,54c0-4.422-3.58-8-8.002-8C47.578,46,44,49.578,44,54z"
	/>
<path fill="#FAFAFA" d="M46.999,54c0,2.761,2.239,4.999,4.999,4.999c2.766,0,5.001-2.238,5.001-4.999s-2.235-5.001-5.001-5.001
	C49.238,48.999,46.999,51.239,46.999,54z"/>
<path fill="#AFBBC1" d="M48,54.001C48,56.209,49.792,58,51.999,58C54.211,58,56,56.209,56,54.001C56,51.794,54.211,50,51.999,50
	C49.792,50,48,51.794,48,54.001z"/>
<path fill="#71858C" d="M50,54.001C50,55.105,50.896,56,51.999,56C53.105,56,54,55.105,54,54.001S53.105,52,51.999,52
	C50.896,52,50,52.896,50,54.001z"/>
<path fill="#282433" d="M51,54.001C51,54.553,51.448,55,51.999,55C52.555,55,53,54.553,53,54.001C53,53.448,52.555,53,51.999,53
	C51.448,53,51,53.448,51,54.001z"/>
<path fill="#282433" d="M2,54c0,4.42,3.578,8,7.998,8C14.42,62,18,58.42,18,54c0-4.422-3.58-8-8.002-8C5.578,46,2,49.578,2,54z"/>
<path fill="#FAFAFA" d="M4.999,54c0,2.761,2.239,4.999,4.999,4.999c2.766,0,5.001-2.238,5.001-4.999s-2.235-5.001-5.001-5.001
	C7.238,48.999,4.999,51.239,4.999,54z"/>
<path fill="#AFBBC1" d="M6,54.001C6,56.209,7.792,58,9.999,58C12.211,58,14,56.209,14,54.001C14,51.794,12.211,50,9.999,50
	C7.792,50,6,51.794,6,54.001z"/>
<path fill="#71858C" d="M8,54.001C8,55.105,8.896,56,9.999,56C11.105,56,12,55.105,12,54.001S11.105,52,9.999,52
	C8.896,52,8,52.896,8,54.001z"/>
<path fill="#282433" d="M9,54.001C9,54.553,9.448,55,9.999,55C10.555,55,11,54.553,11,54.001C11,53.448,10.555,53,9.999,53
	C9.448,53,9,53.448,9,54.001z"/>
<path fill="#F9B700" d="M18,30c0-1,0-6,0-6s1.82,0,4,0c3,0,2,6,0,6c-2.167,0-4,5.75-4,10c0,6.5,3,10,6,10h9c2.762,0,5-2.238,5-5
	s-2.238-5-5-5h-1c-0.553,0-1-0.447-1-1v-1h20c11,0,11,16,11,16H21c-2,0-2-2-2-2c0-4.834-7-8-7-10S18,32,18,30z"/>
<circle fill="#6E8189" cx="22" cy="27" r="2"/>
<path fill="#4E5E67" d="M22,26c-0.552,0-1,0.448-1,1s0.448,1,1,1h2v-2H22z"/>
<path fill="#302C3B" d="M47,32c-3,0-8,2-16,2c-2.004,0-2,4-2,4h22C51,38,51,32,47,32z"/>
<ellipse fill="#CFD8DD" cx="16" cy="27" rx="1" ry="3"/>
<rect x="16" y="24" fill="#99A8AE" width="2" height="6"/>
<path fill="#EA8800" d="M19,52c0,0,0,2,2,2h31v-2H19z"/>
<path fill="#F9C802" d="M7,48c4,0,6,4,9,4c4,0,4,0,4,0c0-5-4-10-11-10c-5,0-7,3-7,4s0.087,2,2,2C5.833,48,7,48,7,48z"/>
<path fill="#F9C802" d="M49,40c-3.866,0-7,3.134-7,7s3.134,7,7,7h13C62,54,62,40,49,40z"/>
<path fill="#AB5C10" d="M56,45h-8c-0.55,0-1,0.45-1,1s0.45,1,1,1h8c0.55,0,1-0.45,1-1S56.55,45,56,45z"/>
<path fill="#AB5C10" d="M56,49h-8c-0.55,0-1,0.45-1,1s0.45,1,1,1h8c0.55,0,1-0.45,1-1S56.55,49,56,49z"/>
<circle fill="#6E8189" cx="24" cy="27" r="1"/>
<path fill="#FFE12C" d="M48.997,40C45.158,40,42,43.203,42,47c0,0,0.574-5,7.998-5C61,42,62,54,62,54S62,40,48.997,40z"/>
<path fill="#FFE12C" d="M9,42c-5,0-7,3-7,4c0,0,1-2,7-2s11,5,11,8C20,47,16,42,9,42z"/>
<path fill="#EA8800" d="M19.807,32c0.635-1.209,1.391-2,2.193-2h-4c0,0.475-0.345,1.181-0.861,2H19.807z"/>
<path fill="#6E8189" d="M19.459,25c0.297,0,0.581-0.222,0.63-0.493l0.904-5.014C21.042,19.222,20.838,19,20.541,19l0,0
	c-0.297,0-0.492,0.222-0.541,0.493l-0.993,5.014C18.958,24.778,19.162,25,19.459,25L19.459,25z"/>
<path fill="#99A8AE" d="M22,16h-1v6h1c0.276,0,1-1,1-3S22.276,16,22,16z"/>
<path fill="#6E8189" d="M21,16c-0.276,0-1,1-1,3s0.724,3,1,3s1-1,1-3S21.276,16,21,16z"/>
</svg>
