<?xml version="1.0" encoding="utf-8"?>
<!-- Generator: Adobe Illustrator 16.2.0, SVG Export Plug-In . SVG Version: 6.00 Build 0)  -->
<!DOCTYPE svg PUBLIC "-//W3C//DTD SVG 1.1//EN" "http://www.w3.org/Graphics/SVG/1.1/DTD/svg11.dtd">
<svg version="1.1" id="Layer_1" xmlns="http://www.w3.org/2000/svg" xmlns:xlink="http://www.w3.org/1999/xlink" x="0px" y="0px"
	 width="64px" height="64px" viewBox="0 0 64 64" enable-background="new 0 0 64 64" xml:space="preserve">
<path fill="#F7C711" d="M59.625,39.001c0,0,2.375,3.633,2.375,7C62,53.501,56.5,54,52,54c-2.967,0-38.763,0-43,0
	c-4.833,0-7-2.166-7-6.999c0-3.888,2.5-8,2.5-8s0.833,4.5,7.5,4.5c8.22,0,33.915,0,39,0C57.833,43.501,59.625,41.001,59.625,39.001z
	"/>
<g>
	<path fill="#785648" d="M4.018,38.729C4.964,43.101,8.978,44,12,44c5.5,0,14.231,0,20,0c6.029,0,11.971,0,18,0
		c4.667,0,10-0.153,10-5.425c0-0.759-1-0.755-1,0c0,4.922-5.863,4.426-9,4.426c-5.407,0-12.594,0-18,0c-4.952,0-15.048,0-20,0
		c-3.386,0-6.25-0.855-7.019-4.581C4.83,37.685,3.859,37.999,4.018,38.729L4.018,38.729z"/>
</g>
<path fill="#F7B617" d="M52,52.001c-6.417,0-33.417,0-43,0c-6.998,0-6.969-4.271-6.998-4.934C2.023,51.853,4.19,54,9,54
	c4.237,0,40.033,0,43,0c4.5,0,10-0.499,10-7.999C62,50.751,58.417,52.001,52,52.001z"/>
<path fill="#5A4740" d="M36,44.001l1-1c-0.68,0-1.344,0-2,0l-1,1C34.668,44.001,35.333,44.001,36,44.001z"/>
<path fill="#F7B617" d="M23,54.001c0,0,3.15,0,5.861,0c0.356-0.561,0.643-1.264,0.704-1.814l0.063-0.563
	c0.087-0.773,0.604-1.605,1.155-2.155L36,44.001c-0.66,0-2,0-2,0L23,54.001z"/>
<g>
	<path fill="#957769" d="M47.144,30.87c0.91,0.923,1.099,2.228,0.549,2.786c-0.547,0.559-1.836,0.365-2.743-0.558
		c-0.909-0.922-1.232-2.09-0.547-2.787C44.948,29.756,46.235,29.946,47.144,30.87z"/>
	<path fill="#AB897C" d="M23.35,50.687l-6.94,6.939c-0.545,0.544-0.545,1.438,0,1.983l1.983,1.982c0.544,0.545,1.438,0.545,1.984,0
		l6.94-6.94c0.545-0.549,1.062-1.619,1.146-2.386l0.063-0.559c0.085-0.769,0.599-1.84,1.146-2.388l16.484-16.485
		c0.274-0.274,0.274-0.718,0-0.992c-0.275-0.274-0.72-0.274-0.992,0L28.68,48.33c-0.546,0.546-1.618,1.061-2.385,1.147l-0.56,0.062
		C24.969,49.625,23.896,50.139,23.35,50.687z"/>
	<polygon fill="#957769" points="16.907,60.104 17.896,61.097 21.366,56.635 	"/>
</g>
</svg>
