<?xml version="1.0" encoding="utf-8"?>
<!-- Generator: Adobe Illustrator 15.0.0, SVG Export Plug-In . SVG Version: 6.00 Build 0)  -->
<!DOCTYPE svg PUBLIC "-//W3C//DTD SVG 1.1//EN" "http://www.w3.org/Graphics/SVG/1.1/DTD/svg11.dtd">
<svg version="1.1" id="Layer_1" xmlns="http://www.w3.org/2000/svg" xmlns:xlink="http://www.w3.org/1999/xlink" x="0px" y="0px"
	 width="64px" height="64px" viewBox="0 0 64 64" enable-background="new 0 0 64 64" xml:space="preserve">
<circle fill="#FDCA47" cx="32" cy="30" r="28"/>
<path fill="#F9B700" d="M50.344,8.856C54.61,13.771,57.2,20.182,57.2,27.2c0,15.463-12.537,28-28,28
	c-7.02,0-13.43-2.59-18.344-6.857C15.99,54.257,23.555,57.999,32,57.999c15.464,0,28-12.535,28-27.999
	C60,21.557,56.257,13.991,50.344,8.856z"/>
<path fill-rule="evenodd" clip-rule="evenodd" fill="#FFE8BB" d="M8.124,19.267C7.082,22.76,14.267,10.4,25.467,5.812
	C30.911,3.58,12.557,4.412,8.124,19.267z"/>
<path fill="#302C3B" d="M37.479,34.663c-3.75-3.326-10.733-5.52-15.958-2.414c-0.936,0.557-0.839,1.68,0.183,1.488
	c3.9-0.723,10.082,0.699,13.544,3.742C36.573,38.642,38.853,35.905,37.479,34.663z"/>
<path fill="#E8A329" d="M35.778,40.911c5.177,0.377,4.189,7.852-1.23,7.998c0.703,1.133,0.578,3.525-0.391,4.57
	c0.898,1.094,0.437,3.281,2.189,4.186C12.98,61.052,34.272,40.802,35.778,40.911z"/>
<path fill="#FFFFFF" d="M21.694,60.062C10.468,62.644,5.54,52.31,8.846,43.116c1.184-3.289-1.924-8.182,1.338-10.094
	c3.355-1.966,6.497,0.975,6.609,7.391c2.982-0.676,7.03-3.195,9.599-3.018c1.402,0.098,6.303,2.309,7.914,2.426
	c5.546,0.404,5.357,7.5-1.776,6.74c0.113,1.082-0.331,3.012-1.368,4.131c0.453,1.254,0.518,3.111-1.049,4.781
	C30.724,59.825,25.361,62.397,21.694,60.062z"/>
<path fill="#99A8AE" d="M21.44,60.995C9.434,63.831,4.739,52.142,7.885,43.46c1.304-3.598-2.151-9.195,1.338-11.296
	c3.589-2.159,8.048,0.175,8.167,7.222c3.191-0.742,6.681-3.271,9.426-3.076c1.503,0.107,6.751,2.666,8.475,2.797
	c5.931,0.443,5.466,8.803-2.165,7.971c0.12,1.186-0.098,2.607-1.205,3.838c0.482,1.379,0.551,3.418-1.124,5.252
	C31.45,60.948,25.362,63.562,21.44,60.995z M23.664,57.683l-1.333,1.516c5.486,2.707,9.328-3.658,3.527-5.984
	c1.637,0.078,2.822,0.76,3.396,1.254c1.699-2.611,1.516-4.311-1.854-6.584c2.299,0.523,3.145,1.656,3.145,1.656
	c1.663-3.303,0.696-4.688-2.364-6.41c2.277,0.156,3.701,1.475,5.072,1.828c3.449,0.889,4.938-3.736,2.064-3.945
	c-3.543-0.258-6.934-2.646-9.015-2.463c-2.974,0.264-4.711,2.148-11.219,4.105c0.307-6.381-1.327-9.646-4.187-8.68
	c-2.474,0.836,0.591,4.633-0.941,9.65C6.519,54.878,14.441,62.358,23.664,57.683z"/>
<ellipse fill="#302C3B" cx="20.268" cy="19" rx="4" ry="5"/>
<ellipse fill="#302C3B" cx="39.732" cy="21" rx="4" ry="5"/>
<path fill="#917524" d="M47.398,13.243c-3.903-1.624-9.03-1.597-11.523-0.109c-0.525,0.314-0.299,2.516,0.174,2.311
	c3.626-1.576,7.933-2.017,11.63-0.75C48.175,14.866,47.985,13.486,47.398,13.243z"/>
<path fill="#917524" d="M15.177,8.757c4.03-1.279,9.136-0.805,11.489,0.895c0.497,0.358,0.078,2.534-0.374,2.287
	c-3.475-1.886-7.726-2.7-11.519-1.76C14.262,10.307,14.571,8.949,15.177,8.757z"/>
</svg>
