<?xml version="1.0" encoding="utf-8"?>
<!-- Generator: Adobe Illustrator 15.0.0, SVG Export Plug-In . SVG Version: 6.00 Build 0)  -->
<!DOCTYPE svg PUBLIC "-//W3C//DTD SVG 1.1//EN" "http://www.w3.org/Graphics/SVG/1.1/DTD/svg11.dtd">
<svg version="1.1" id="Layer_1" xmlns="http://www.w3.org/2000/svg" xmlns:xlink="http://www.w3.org/1999/xlink" x="0px" y="0px"
	 width="64px" height="64px" viewBox="0 0 64 64" enable-background="new 0 0 64 64" xml:space="preserve">
<path fill="#916B50" d="M10.581,48.693c0.455,2.355,9.838,0.805,9.382-1.551l-6.508-33.689c-0.457-2.355-2.919-3.92-5.496-3.496
	L7.917,9.965c-2.577,0.426-4.301,2.684-3.844,5.039L10.581,48.693z"/>
<path fill="#664935" d="M17.655,46.494l-6.51-33.689c-0.247-1.279-1.219-2.297-2.346-2.918c2.46,0,4.249,1.479,4.65,3.535
	l6.507,33.691C20.415,49.471,18.108,48.854,17.655,46.494z"/>
<path fill="#916B50" d="M55.068,30.059c-8.449,0-7.977,6.389-12.201,6.389v-4.26H8.601v10.648C8.601,52.617,12.828,62,25.499,62l0,0
	l0,0c21.121,0,19.007-19.164,33.794-27.682C61.125,33.262,59.284,30.059,55.068,30.059z"/>
<path fill="#664935" d="M55.068,30.059c-0.506,0-0.975,0.025-1.42,0.068c3.678,0.352,5.223,3.197,3.503,4.191
	C42.687,42.65,44.379,61.164,24.688,61.963C24.961,61.973,25.217,62,25.5,62c21.12,0,19.006-19.164,33.793-27.682
	C61.125,33.262,59.284,30.059,55.068,30.059z"/>
<path fill="#916B50" d="M33.314,32.674c-0.125,2.391,9.426,4.033,9.553,1.645L44.23,6.553c0.127-2.391-1.895-4.428-4.513-4.545
	l-0.042-0.002c-2.618-0.119-4.84,1.725-4.965,4.113L33.314,32.674z"/>
<path fill="#916B50" d="M14.635,27.361c0-2.445,2.116-4.43,4.727-4.43h0.075c2.612,0,4.728,1.984,4.728,4.43v12
	c0,2.449-9.53,2.449-9.53,0V27.361z"/>
<path fill="#664935" d="M22.739,37.777V25.771c0-0.66-0.323-1.48-0.6-2.045c1.404,0.787,2.026,2.281,2.026,3.719v12.004
	c0,5.82-9.165,5.154-9.342,1.151C16.094,42.988,22.739,43.703,22.739,37.777z"/>
<path fill="#916B50" d="M24.165,26.867c0-2.447,2.112-4.43,4.724-4.43h0.077c2.607,0,4.726,1.982,4.726,4.43v12
	c0,2.447-9.526,2.447-9.526,0V26.867z"/>
<path fill="#664935" d="M32.268,37.834V25.277c0-0.66-0.357-1.5-0.63-2.064c1.502,0.945,2.054,2.299,2.054,3.736v12.004
	c0,6.171-9.526,5.38-9.317,1.22C25.406,43.02,32.268,43.303,32.268,37.834z"/>
<path fill="#664935" d="M40.552,2.113c0.946,0.838,1.649,2.031,1.583,3.326l-1.459,29.957c-6.033,4.08-2.093,1.051,2.191,1.051
	l1.365-29.926C44.342,4.434,42.898,2.564,40.552,2.113z"/>
<path fill="#B08A6F" d="M21.44,39.393c0.494-3.328-1.083-3.465-3.054-3.465c-1.969,0-3.545,0.137-3.05,3.465
	c0.185,1.238,1.501,1.66,3.05,1.66C19.938,41.053,21.256,40.631,21.44,39.393z"/>
<path fill="#B08A6F" d="M31.029,39.393c0.493-3.328-1.083-3.465-3.054-3.465c-1.969,0-3.545,0.137-3.05,3.465
	c0.185,1.238,1.501,1.66,3.05,1.66C29.526,41.053,30.844,40.631,31.029,39.393z"/>
</svg>
