<?xml version="1.0" encoding="utf-8"?>
<!-- Generator: Adobe Illustrator 15.0.0, SVG Export Plug-In . SVG Version: 6.00 Build 0)  -->
<!DOCTYPE svg PUBLIC "-//W3C//DTD SVG 1.1//EN" "http://www.w3.org/Graphics/SVG/1.1/DTD/svg11.dtd">
<svg version="1.1" id="Layer_1" xmlns="http://www.w3.org/2000/svg" xmlns:xlink="http://www.w3.org/1999/xlink" x="0px" y="0px"
	 width="64px" height="64px" viewBox="0 0 64 64" enable-background="new 0 0 64 64" xml:space="preserve">
<polygon fill="#664935" points="62,35.307 39.464,36.139 39.464,30.373 62,30.373 "/>
<polygon fill="#916B50" points="62,33.52 39.464,34.352 39.464,11.223 62,11.223 "/>
<path fill="#916B50" d="M42.985,11.328c0,0-37.969-1.395-39.783,1.564c-2.503,4.074-0.244,11.57-0.724,20.555
	c-0.291,5.459,2.335,6.699,5.447,6.326c-1.854,1.434-3.627,3.684-4.358,7.26c-0.94,4.588,3.004,6.439,5.276,5.244
	c4.057-2.135,11.868-2.842,18.837-6.697c6.251-3.459,9.972-7.518,16.049-10.541C49.782,32.027,47.554,11.328,42.985,11.328z"/>
<path fill="#664935" d="M17.436,21.742c-2.594,0.998-3.753,3.434-3.753,3.434c-0.881-2.705-3.105-2.949-3.105-2.949
	c2.587,2.457,1.703,9.588,1.703,9.588s1.89-7.154,6.493-7.68c3.062-0.348,2.773,10.102-5.349,13.25
	c-3.575,1.387-10.11,1.1-10.967-3.338c-0.494,4.838,1.632,6.301,4.256,6.381c-1.359,1.416-2.536,3.373-3.032,6.094
	c2.333-7.104,7.406-6.258,9.903-6.738c3.536-0.689,8.46-5.945,9.006-11.242C23.058,24.006,20.766,20.461,17.436,21.742z"/>
<path fill="#664935" d="M26.768,44.604c5.973-3.273,6.102-3.398,14.544-9.305c2.509-1.756,4.22-2.695,5.556-5.855
	c-0.245,4.32-1.722,5.611-4.128,7.078c-6.615,4.033-8.958,6.27-15.4,9.783c-4.606,2.51-12.836,3.758-17.132,5.365
	C13.314,49.967,22.419,46.988,26.768,44.604z"/>
<path fill="#664935" d="M12.821,45.844c-4.47,0.518-6.22,3.217-6.041,5.779c0.178,2.561,5.893-1.152,8.925-1.801
	C15.565,47.807,14.622,45.637,12.821,45.844z"/>
<path fill="#B08A6F" d="M12.163,46.295c-4.469,0.518-6.219,3.215-6.04,5.777s5.831-0.902,8.819-1.799
	C14.802,48.256,13.964,46.088,12.163,46.295z"/>
</svg>
