<?xml version="1.0" encoding="utf-8"?>
<!-- Generator: Adobe Illustrator 15.0.0, SVG Export Plug-In . SVG Version: 6.00 Build 0)  -->
<!DOCTYPE svg PUBLIC "-//W3C//DTD SVG 1.1//EN" "http://www.w3.org/Graphics/SVG/1.1/DTD/svg11.dtd">
<svg version="1.1" id="Layer_1" xmlns="http://www.w3.org/2000/svg" xmlns:xlink="http://www.w3.org/1999/xlink" x="0px" y="0px"
	 width="64px" height="64px" viewBox="0 0 64 64" enable-background="new 0 0 64 64" xml:space="preserve">
<path fill="#FDCA47" d="M47.182,55.74c0,0-6.042-4.86-7.208-7.609c-2.1-4.949-1.557-22.317-1.557-22.317s-8.68-2.343-3.318-8.131
	c3.603-3.89,5.199-8.535,4.154-11.47c-2.291-6.452-6.309-4.131-7.01-1.635c-3.346,11.91-11.17,9.546-15.831,26.143
	c-2.345,8.348-2.989,12.754,4.548,18.685l12.258,2.603l8.909,8.621C45.544,63.856,50.6,58.968,47.182,55.74z"/>
<path fill="#CC9200" d="M32.89,28.226c-0.934,3.325-4.63,7.9-10.911,9.683c7.025,0.005,13.106-5.177,14.049-8.499L32.89,28.226z"/>
<path fill="#FDCA47" d="M45.255,32.742l-10.451-1.759c-4.729-0.71-3.696-8.102,1.035-7.392l10.703,1.608
	C51.271,25.909,49.982,33.452,45.255,32.742z"/>
<path fill="#CC9200" d="M47.352,31.123l-10.703-1.608c-3.054-0.459-3.589-3.757-2.317-5.852c-3.441,0.892-3.965,6.842,0.216,7.47
	l10.703,1.608c1.677,0.252,2.909-0.542,3.606-1.691C48.403,31.167,47.903,31.206,47.352,31.123z"/>
<path fill="#FDCA47" d="M42.676,47.828l-10.704-1.607c-4.73-0.711-3.441-8.254,1.289-7.543l10.703,1.607
	C48.694,40.996,47.405,48.538,42.676,47.828z"/>
<path fill="#CC9200" d="M44.775,46.209l-10.706-1.607c-3.051-0.459-3.585-3.758-2.318-5.852c-3.437,0.891-3.961,6.842,0.216,7.47
	l10.706,1.608c1.677,0.252,2.91-0.541,3.607-1.691C45.825,46.254,45.325,46.292,44.775,46.209z"/>
<path fill="#FDCA47" d="M45.741,40.553l-12.07-1.886c-4.733-0.71-3.854-8.245,0.881-7.533l12.479,1.875
	C51.763,33.72,50.475,41.262,45.741,40.553z"/>
<path fill="#CC9200" d="M47.839,38.934l-12.478-1.876c-3.057-0.458-3.524-3.94-2.253-6.034c-3.441,0.89-4.03,7.025,0.151,7.653
	l12.478,1.875c1.678,0.251,2.912-0.542,3.609-1.692C48.894,38.979,48.393,39.016,47.839,38.934z"/>
<path fill="#CC9200" d="M48.04,56.926c0.145,3.086-2.432,4.141-5.279,2.471c-3.111-1.824-9.222-8.544-9.222-8.544
	c-3.687,0.407-9.083-1.446-11.521-2.722c-8.14-4.264-7.023-8.748-4.677-17.098c4.662-16.596,13.3-14.104,16.646-26.013
	c0.354-1.26,1.022-2.572,2.689-2.594c-2.211-1.238-3.958,0.451-4.433,2.149c-3.345,11.909-11.984,9.416-16.645,26.012
	c-2.344,8.349-3.031,14.369,4.486,18.629c3.31,1.875,9.233,3.535,12.989,3.3c0,0,6.88,6.98,9.476,8.734
	C46.001,63.584,49.435,60,48.04,56.926z"/>
</svg>
