<?xml version="1.0" encoding="utf-8"?>
<!-- Generator: Adobe Illustrator 15.0.0, SVG Export Plug-In . SVG Version: 6.00 Build 0)  -->
<!DOCTYPE svg PUBLIC "-//W3C//DTD SVG 1.1//EN" "http://www.w3.org/Graphics/SVG/1.1/DTD/svg11.dtd">
<svg version="1.1" id="Layer_1" xmlns="http://www.w3.org/2000/svg" xmlns:xlink="http://www.w3.org/1999/xlink" x="0px" y="0px"
	 width="64px" height="64px" viewBox="0 0 64 64" enable-background="new 0 0 64 64" xml:space="preserve">
<path fill="#FDCA47" d="M62,29.937V7.457l-11.759,6.342c-5.024-0.851-6.418-0.844-10.313-2.795c-2.316-1.159-4.465-1.79-6.781,0.446
	c-2.216-2.407-16.61,1.09-18.207,1.822C10.583,12.084,2,7,2,7v25.437l2.915,0.678c0.299,0.894,0.961,2.987,0.961,2.987
	c-2.71,3.528,0.547,7.543,3.561,6.211c-1.322,3.438,2.188,6.677,5.016,4.484c-0.412,3.225,3.014,5.557,5.465,3.314
	c-1.124,3.868,3.225,6.724,5.748,3.576c1.841,1.268,3.537,2.247,5.025,2.775v-0.002c2.561,1.111,5.432-1.395,4.955-4.508
	c3.021,3.499,7.394,0.072,6.417-3.751c3.358,2.575,7.44-1.784,5.245-5.618c3.7,2.143,6.924-3.629,3.333-7.296L62,29.937z"/>
<path fill="#CC9200" d="M9.741,33.489c1.905,0.886,2.127,3.255,0.359,5.913c-1.344,2.02-2.117,2.947-3.123,2.879
	c0.748,0.347,1.615,0.395,2.463,0.024c0.164-0.425,0.381-0.851,0.701-1.269l0.842-1.022c0.504-0.659,1.06-1.069,1.621-1.316
	C14.058,36.094,12.897,33.333,9.741,33.489z"/>
<path fill="#CC9200" d="M15.17,44.81l1.978-3.072c0.41-1.773-0.965-3.313-3.137-3.313c1.903,0.884,1.949,3.39,0.221,6.071
	c-1.229,1.906-1.984,2.79-2.988,2.721c0.97,0.449,2.139,0.4,3.209-0.428C14.534,46.152,14.748,45.486,15.17,44.81z"/>
<path fill="#CC9200" d="M20.407,39.211c1.978,0.664,3.117,3.467,1.557,6.285c-3.051,5.512-4.127,5.291-5.139,5.336
	c1.292,0.432,3.178,1.454,6.648-4.715C25.909,41.789,23.349,38.7,20.407,39.211z"/>
<path fill="#CC9200" d="M6.767,35.114c-0.959-1.118-1.354-3.419-1.354-3.419L2,30.063v2.373l2.614,0.711
	c0.337,1.215,0.802,2.188,1.268,2.946L6.767,35.114z"/>
<path fill="#CC9200" d="M39.975,10.697c-2.5-1.252-5.052-1.401-7.327,0.752c-7.688,7.273-12.529,8.757-12.045,12.816
	c0.23,1.939,2.811,7.922,11.866,2.043l4.839-1.038c0,0,4.984,2.828,11.018,9.437c-0.02-0.011-0.031-0.018-0.031-0.018
	c0.806,1.648-2.247,5.625-4.174,4.984c0.729,3.297-2.828,5.428-4.912,5.221c-0.208,2.363-4.064,5.393-6.213,4.662
	c-2.089,3.46-4.524,2.62-6.149,3.068c0.166-0.266,0.333-0.549,0.503-0.871c2.25-4.255,0.162-6.654-3.519-6.005
	c2.009,0.546,3.831,2.104,1.759,5.841c-1.533,2.766-2.268,3.205-3.273,3.311c0.976,0.266,2.167,0.514,3.549-0.961
	c5.235,4.954,11.518,3.533,9.928-1.678c2.844,3.154,8.104,0.235,6.391-3.87c3.359,2.425,7.609-1.71,5.375-5.563
	c4.25,2.16,7.266-4.444,3.773-7.167L62,29.937v-2.779c0,0-4.31,3.941-12.458,6.325c-1.098-1.379-2.584-3.114-5.301-5.416
	c1.723-0.361,2.57-1.759,4.001-1.983c-0.462-0.499-2.278-0.189-3.532,0.285c-2.453,0.928-8.096-3.121-8.096-3.121l-4.712,0.677
	c-3.334,3.237-10.472,4.912-10.889,0.028c-0.296-3.459,2.583-2.706,12.583-11.657c1.422-1.272,3.514-2.022,6.117-0.784
	c4.969,2.362,9.281,1.367,13.813,3.481C49.995,12.415,43.771,12.601,39.975,10.697z"/>
</svg>
