<?xml version="1.0" encoding="utf-8"?>
<!-- Generator: Adobe Illustrator 15.0.0, SVG Export Plug-In . SVG Version: 6.00 Build 0)  -->
<!DOCTYPE svg PUBLIC "-//W3C//DTD SVG 1.1//EN" "http://www.w3.org/Graphics/SVG/1.1/DTD/svg11.dtd">
<svg version="1.1" id="Layer_1" xmlns="http://www.w3.org/2000/svg" xmlns:xlink="http://www.w3.org/1999/xlink" x="0px" y="0px"
	 width="64px" height="64px" viewBox="0 0 64 64" enable-background="new 0 0 64 64" xml:space="preserve">
<circle fill="#FDCA47" cx="32" cy="30" r="28"/>
<path fill="#F9B700" d="M50.343,8.857C54.61,13.771,57.2,20.182,57.2,27.201c0,15.463-12.537,28-28,28
	c-7.02,0-13.431-2.59-18.345-6.857C15.99,54.258,23.555,58,32,58c15.464,0,28-12.535,28-28
	C59.999,21.557,56.256,13.992,50.343,8.857z"/>
<path fill-rule="evenodd" clip-rule="evenodd" fill="#FFE8BB" d="M8.124,19.268C7.082,22.76,14.267,10.4,25.467,5.813
	C30.912,3.58,12.557,4.412,8.124,19.268z"/>
<path fill="#302C3B" d="M26.743,18.154c-2.452-4.252-5.342-6.084-7.831-5.646c-2.488,0.439-4.576,3.15-5.427,7.984
	c-0.081,0.486,0.915,1.16,1.262,0.637c1.304-1.973,3.101-2.98,5.097-3.334c2-0.352,4.034-0.018,5.934,1.389
	C26.281,19.557,26.988,18.584,26.743,18.154z"/>
<path fill="#302C3B" d="M46.175,14.729c-2.455-4.25-5.342-6.086-7.832-5.646c-2.488,0.439-4.576,3.15-5.425,7.984
	c-0.086,0.486,0.912,1.16,1.259,0.637c1.303-1.973,3.098-2.98,5.098-3.334s4.033-0.018,5.932,1.389
	C45.71,16.131,46.419,15.158,46.175,14.729z"/>
<path fill="#302C3B" d="M42.929,26.516c-6.318,6.295-14.32,7.676-22.361,3.943c-0.968-0.451-1.563,0.727-0.809,1.586
	c2.817,3.213,7.788,5.635,13.434,4.639c5.645-0.994,9.488-4.971,11.039-8.953C44.646,26.664,43.685,25.76,42.929,26.516z"/>
<circle fill="#F18D84" cx="12.267" cy="28.189" r="5.5"/>
<circle fill="#F18D84" cx="49.953" cy="21.545" r="5.5"/>
<path fill="#E8A329" d="M30.367,53.527c0,0,2.252-3.265,0.106-6.085c0.935-2.25-0.044-5.723-2.908-6.061l-5.377,0.922
	c0,0,2.083-3.058-2.706-4.775c-23.772,17.504-1.802,19.249,10.288,20.384C29.769,57.912,31.273,56.215,30.367,53.527z"/>
<path fill="#FFFFFF" d="M26.568,46.157c0,0,1.736-0.576,1.066-2.992c-0.692-2.504-6.542,0-9.458-1.17c0,0,2.4-0.787,1.572-2.889
	c-0.752-1.906-7.25-2.553-13.549,2.551c-6.375,5.164-2.224,17.152,5.633,18.629c5.487,1.029,13.843,0.859,14.9-1.629
	c0.843-1.988-1.805-2.746-1.805-2.746s3.359-0.021,3.359-2.686c0-1.557-1.266-1.576-1.266-1.576s2.769-0.432,2.769-3.137
	C29.79,46.321,26.568,46.157,26.568,46.157z"/>
<path fill="#99A8AE" d="M28.392,45.791c2.049-1.477,0.449-5.497-2.296-4.81c-3.338,0.836-5.865,0.833-5.865,0.833
	c0.005-0.01,1.339-1.035,1.017-2.802c-0.336-1.839-3.282-4.229-12.906-0.093c-3.558,1.531-5.92,4.74-6.287,8.624
	c-0.399,4.229,1.436,9.103,4.267,11.33c3.234,2.546,10.274,4.001,17.528,2.551c4.201-0.84,4.426-4.279,3.354-5.24
	c2.19-0.536,2.822-3.224,1.934-4.62C31.941,50.731,31.488,45.898,28.392,45.791z M26.925,50.877
	c-3.97,1.188-9.914,1.386-9.914,1.386s4.74,0.406,8.408-0.238c2.827-0.496,2.572,2.478,0.696,3.02
	c-2.68,0.774-8.838,1.125-8.838,1.125s3.436,0.281,5.898-0.025c4.185-0.521,3.745,2.721-0.236,3.307
	c-6.917,1.016-12.552-0.037-15.235-2.148c-3.859-3.039-6.19-12.965,1.391-16.723c3.454-1.711,9.258-3.369,10.125-1.379
	c1.274,2.926-4.639,3.5-4.639,3.5s3.871,1.364,10.744-0.344c2.149-0.534,3.298,2.229,0.928,3.435
	c-3.303,1.68-8.769,1.972-8.769,1.972s4.389,0.172,9.006-0.844C29.508,46.255,30.125,49.92,26.925,50.877z"/>
<path fill="#E8A329" d="M33.633,53.527c0,0-2.251-3.265-0.106-6.085c-0.935-2.25,0.045-5.723,2.908-6.061l5.377,0.922
	c0,0-2.083-3.058,2.707-4.775C68.29,55.032,46.32,56.777,34.229,57.912C34.229,57.912,32.727,56.215,33.633,53.527z"/>
<path fill="#FFFFFF" d="M37.432,46.157c0,0-1.735-0.576-1.066-2.992c0.692-2.504,6.542,0,9.458-1.17c0,0-2.4-0.787-1.572-2.889
	c0.752-1.906,7.25-2.553,13.549,2.551c6.375,5.164,2.224,17.152-5.633,18.629c-5.487,1.029-13.844,0.859-14.9-1.629
	c-0.842-1.988,1.805-2.746,1.805-2.746s-3.359-0.021-3.359-2.686c0-1.557,1.266-1.576,1.266-1.576s-2.768-0.432-2.768-3.137
	C34.21,46.321,37.432,46.157,37.432,46.157z"/>
<path fill="#99A8AE" d="M34.862,51.564c-0.889,1.396-0.257,4.084,1.934,4.62c-1.07,0.961-0.848,4.4,3.354,5.24
	c7.253,1.45,14.294-0.005,17.528-2.551c2.83-2.228,4.666-7.101,4.267-11.33c-0.366-3.884-2.729-7.093-6.286-8.624
	c-9.625-4.136-12.57-1.746-12.906,0.093c-0.322,1.767,1.011,2.792,1.016,2.802c0,0-2.527,0.003-5.865-0.833
	c-2.744-0.688-4.345,3.333-2.296,4.81C32.513,45.898,32.058,50.731,34.862,51.564z M37.509,46.919
	c4.617,1.016,9.006,0.844,9.006,0.844s-5.467-0.292-8.77-1.972c-2.369-1.205-1.221-3.969,0.929-3.435
	c6.873,1.708,10.743,0.344,10.743,0.344s-5.913-0.574-4.639-3.5c0.867-1.99,6.672-0.332,10.125,1.379
	c7.582,3.758,5.25,13.684,1.391,16.723c-2.683,2.111-8.318,3.164-15.234,2.148c-3.98-0.586-4.42-3.828-0.236-3.307
	c2.463,0.307,5.898,0.025,5.898,0.025s-6.158-0.351-8.838-1.125c-1.876-0.542-2.131-3.516,0.696-3.02
	c3.669,0.645,8.408,0.238,8.408,0.238s-5.944-0.198-9.914-1.386C33.876,49.92,34.491,46.255,37.509,46.919z"/>
</svg>
