<?xml version="1.0" encoding="utf-8"?>
<!-- Generator: Adobe Illustrator 15.0.0, SVG Export Plug-In . SVG Version: 6.00 Build 0)  -->
<!DOCTYPE svg PUBLIC "-//W3C//DTD SVG 1.1//EN" "http://www.w3.org/Graphics/SVG/1.1/DTD/svg11.dtd">
<svg version="1.1" id="Layer_1" xmlns="http://www.w3.org/2000/svg" xmlns:xlink="http://www.w3.org/1999/xlink" x="0px" y="0px"
	 width="64px" height="64px" viewBox="0 0 64 64" enable-background="new 0 0 64 64" xml:space="preserve">
<path fill="#FDCA47" d="M17.354,47.342c0.44,2.287,2.814,3.808,5.304,3.395l0.041-0.007c2.49-0.414,4.153-2.606,3.714-4.894
	l-6.284-32.713c-0.441-2.287-2.818-3.807-5.307-3.394l-0.04,0.007c-2.489,0.414-4.154,2.606-3.712,4.893L17.354,47.342z"/>
<path fill="#CC9200" d="M20.449,50.137l0.045-0.008c2.49-0.414,4.128-2.633,3.689-4.924l-6.285-32.711
	c-0.239-1.242-1.048-2.259-2.136-2.861c2.117,0.053,3.975,1.464,4.36,3.461l6.284,32.713c0.441,2.289-1.204,4.506-3.693,4.92
	l-0.043,0.008c-1.136,0.188-2.249-0.025-3.163-0.533C19.813,50.21,20.131,50.189,20.449,50.137z"/>
<path fill="#FDCA47" d="M47.902,34.352c0,0-24.305,1.987-26.71-4.711l-6.364,4.545c0,0-1.948,11.045,1.173,18.358
	c3.357,7.868,14.38,7.519,14.38,7.519c11.358,2.15,15.991,0.519,20.669-9.933C52.675,46.496,47.902,34.352,47.902,34.352z"/>
<path fill="#FDCA47" d="M39.922,39.189c-0.12,2.321,1.828,4.299,4.356,4.412l0.038,0.002c2.527,0.115,4.674-1.674,4.797-3.994
	l1.734-33.19c0.123-2.32-1.83-4.298-4.357-4.412l-0.041-0.002C43.924,1.89,41.778,3.68,41.657,6L39.922,39.189z"/>
<path fill="#CC9200" d="M42.269,42.559l0.047,0.002c2.522,0.115,4.655-1.706,4.776-4.031L48.825,5.34
	c0.064-1.259-0.48-2.419-1.395-3.231c2.052,0.492,3.526,2.254,3.419,4.281l-1.734,33.189c-0.123,2.322-2.258,4.14-4.784,4.025
	l-0.043-0.002c-1.152-0.052-2.187-0.492-2.953-1.178C41.63,42.498,41.944,42.543,42.269,42.559z"/>
<path fill="#FDCA47" d="M22.274,26.625c0-2.375,2.044-4.302,4.565-4.302h0.072c2.52,0,4.564,1.927,4.564,4.302v6.652
	c0,2.377-2.044,4.307-4.564,4.307H26.84c-2.521,0-4.565-1.93-4.565-4.307V26.625z"/>
<path fill="#FDCA47" d="M31.476,26.144c0-2.375,2.038-4.301,4.561-4.301h0.075c2.517,0,4.562,1.926,4.562,4.301v6.652
	c0,2.377-2.045,4.307-4.562,4.307h-0.075c-2.522,0-4.561-1.93-4.561-4.307V26.144z"/>
<path fill="#CC9200" d="M25.521,35.985h0.058c2.52,0,4.52-1.868,4.52-4.247v-6.657c0-0.64-0.148-1.248-0.417-1.797
	c1.091,0.787,1.793,2.026,1.793,3.422v6.657c0,2.376-2,4.221-4.519,4.221h-0.06c-1.839,0-3.423-1.016-4.145-2.495
	C23.52,35.643,24.482,35.985,25.521,35.985z"/>
<path fill="#CC9200" d="M34.701,35.504h0.055c2.521,0,4.541-1.867,4.541-4.247v-6.656c0-0.641-0.151-1.249-0.415-1.797
	c1.088,0.786,1.791,2.025,1.791,3.421v6.656c0,2.376-2.019,4.222-4.536,4.222h-0.06c-1.838,0-3.424-1.016-4.146-2.496
	C32.702,35.162,33.661,35.504,34.701,35.504z"/>
<path fill="#CC9200" d="M44.094,41.748c-6.2-2.111-17.137,1.768-15.618,11.99c0-9.573,9.395-11.947,14.551-11.947
	C43.645,41.791,44.094,41.748,44.094,41.748z"/>
<path fill="#CC9200" d="M42.563,31.799c-3.421-2.431-4.524,0.755-10.762,0.308c-2.733-0.195-4.56,5.038-0.655,7.388
	c5.429,3.267,6.314-0.505,7.543,1.123c1.307,1.729,2.671,2.179,3.712,4.136c0.761,1.421,7.047,0.081,8.114-2.573
	C52.56,37.083,47.992,35.662,42.563,31.799z"/>
<path fill="#FDCA47" d="M42.931,32.759c-3.554-2.53-4.702,0.787-11.197,0.322c-2.841-0.206-4.74,5.237-0.678,7.683
	c5.644,3.401,6.567-0.523,7.843,1.171c1.359,1.797,2.778,2.266,3.863,4.302c0.789,1.479-2.332,6.461-2.332,6.461
	s5.688,5.623,7.504,2.982c3.366-4.904,3.906-7.738,4.169-10.797C52.705,37.841,48.579,36.777,42.931,32.759z"/>
<path fill="#CC9200" d="M41.917,46.291c0.243,0.457,0.113,1.252-0.184,2.128c0.594-1.322,1.045-2.714,0.688-3.386
	c-1.087-2.035-1.778-2.502-3.138-4.301c-1.277-1.696-2.198,2.23-7.848-1.171c-2.087-1.257-2.591-3.304-2.21-4.972
	c-1.048,1.742-0.954,4.627,1.708,6.23c5.646,3.399,6.569-0.525,7.845,1.169C40.138,43.789,40.833,44.256,41.917,46.291z"/>
<path fill="#CC9200" d="M47.28,34.93c7.223,5.305,4.101,15.666,0.646,20.067c-5.432,6.929-10.454,5.853-17.585,4.479
	c0,0-9.242,0.998-14.251-6.75c3.134,8.21,14.251,7.83,14.251,7.83c7.562,2.213,12.766,2.669,18.583-4.436
	C52.632,51.592,56.537,39.159,47.28,34.93z"/>
</svg>
