<?xml version="1.0" encoding="utf-8"?>
<!-- Generator: Adobe Illustrator 15.0.0, SVG Export Plug-In . SVG Version: 6.00 Build 0)  -->
<!DOCTYPE svg PUBLIC "-//W3C//DTD SVG 1.1//EN" "http://www.w3.org/Graphics/SVG/1.1/DTD/svg11.dtd">
<svg version="1.1" id="Layer_1" xmlns="http://www.w3.org/2000/svg" xmlns:xlink="http://www.w3.org/1999/xlink" x="0px" y="0px"
	 width="64px" height="64px" viewBox="0 0 64 64" enable-background="new 0 0 64 64" xml:space="preserve">
<polygon fill="#CC9200" points="62,35.308 39.465,36.14 39.465,30.374 62,30.374 "/>
<polygon fill="#FDCA47" points="62,33.521 39.465,34.353 39.465,11.223 62,11.223 "/>
<path fill="#FDCA47" d="M42.986,11.329c0,0-37.969-1.395-39.784,1.564C0.7,16.967,2.958,24.463,2.478,33.448
	c-0.29,5.458,2.336,6.698,5.448,6.326c-1.854,1.434-3.627,3.683-4.358,7.26c-0.94,4.588,3.004,6.439,5.276,5.244
	c4.056-2.135,11.868-2.842,18.837-6.697c6.251-3.459,9.971-7.518,16.049-10.541C49.783,32.028,47.555,11.329,42.986,11.329z"/>
<path fill="#CC9200" d="M17.435,21.743c-2.594,0.998-3.752,3.434-3.752,3.434c-0.881-2.706-3.105-2.949-3.105-2.949
	c2.586,2.457,1.703,9.588,1.703,9.588s1.889-7.154,6.492-7.68c3.063-0.348,2.773,10.101-5.348,13.25
	c-3.576,1.387-10.11,1.099-10.967-3.339c-0.494,4.838,1.631,6.302,4.256,6.382c-1.359,1.416-2.536,3.372-3.033,6.094
	c2.334-7.104,7.407-6.258,9.904-6.739c3.536-0.689,8.46-5.944,9.006-11.241C23.058,24.007,20.766,20.461,17.435,21.743z"/>
<path fill="#CC9200" d="M26.767,44.604c5.973-3.273,6.102-3.399,14.545-9.306c2.509-1.755,4.219-2.694,5.555-5.854
	c-0.244,4.319-1.721,5.611-4.127,7.078c-6.615,4.032-8.959,6.27-15.401,9.783c-4.607,2.51-12.836,3.758-17.133,5.365
	C13.315,49.968,22.419,46.989,26.767,44.604z"/>
<path fill="#CC9200" d="M12.822,45.845c-4.47,0.518-6.221,3.217-6.041,5.779c0.178,2.561,5.893-1.152,8.925-1.801
	C15.566,47.807,14.623,45.637,12.822,45.845z"/>
<path fill="#FFE8BB" d="M12.164,46.296c-4.469,0.518-6.219,3.215-6.041,5.777c0.18,2.562,5.832-0.902,8.82-1.799
	C14.802,48.256,13.964,46.089,12.164,46.296z"/>
</svg>
