<?xml version="1.0" encoding="utf-8"?>
<!-- Generator: Adobe Illustrator 15.0.0, SVG Export Plug-In . SVG Version: 6.00 Build 0)  -->
<!DOCTYPE svg PUBLIC "-//W3C//DTD SVG 1.1//EN" "http://www.w3.org/Graphics/SVG/1.1/DTD/svg11.dtd">
<svg version="1.1" id="Layer_1" xmlns="http://www.w3.org/2000/svg" xmlns:xlink="http://www.w3.org/1999/xlink" x="0px" y="0px"
	 width="64px" height="64px" viewBox="0 0 64 64" enable-background="new 0 0 64 64" xml:space="preserve">
<circle fill="#FDCA47" cx="32" cy="32" r="30"/>
<path fill="#F9B700" d="M51.654,9.346C56.227,14.611,59,21.48,59,29c0,16.568-13.432,30-30,30c-7.521,0-14.389-2.773-19.654-7.346
	C14.846,57.99,22.952,62,32,62c16.568,0,30-13.432,30-30C62,22.953,57.988,14.848,51.654,9.346z"/>
<path fill-rule="evenodd" clip-rule="evenodd" fill="#FFE8BB" d="M6.418,20.5C5.302,24.242,13,11,25,6.084
	C30.834,3.693,11.168,4.584,6.418,20.5z"/>
<path fill="#302C3B" d="M47.876,37c-0.32,0-6.65,2-15.875,2c-9.227,0-15.556-2-15.876-2C15.392,37,15,37.508,15,38
	c0,7.271,5.96,15,17.001,15s17-7.729,17-15C49.001,37.508,48.609,37,47.876,37z"/>
<path fill="#529320" d="M22.001,44.85c0,0.893,0,2.389,0,3.994c0,8.758,4.479,13.152,10,13.156c5.521-0.004,10-4.398,10-13.156
	c0-1.605,0-3.102,0-3.994c0-5.232-10-2.846-10-2.846S22.001,39.617,22.001,44.85z"/>
<path fill="#92C932" d="M23.001,44.596c0,0.824,0,2.209,0,3.695c0,8.1,4.025,12.166,9,12.168c4.975-0.002,9-4.068,9-12.168
	c0-1.486,0-2.871,0-3.695c0-4.842-9-2.633-9-2.633S23.001,39.754,23.001,44.596z"/>
<path fill="#FFFFFF" d="M30.645,48.484c0-1.678,3.504-0.871,4.684,0.268c0.695-1.189,0.366-2.191,0.366-2.191
	s-1.015-0.742-2.508-1.029l-0.002-1.561c-1.226-0.393-2.542,0-2.542,0v1.449c0,0-2.417,0.463-2.417,3.064
	c0,3.367,4.961,2.717,4.961,4.885c0,1.584-3.33,0.924-4.961-0.338c-0.506,1.275,0,2.373,0,2.373
	c1.206,0.551,2.416,0.707,2.416,0.707l0.003,1.365c0,0,1.315,0.42,2.542,0V56.02c0,0,2.814-0.162,2.814-2.65
	C36.001,50.137,30.645,50.418,30.645,48.484z"/>
<path fill="#302C3B" d="M18.969,20.759c0-2.417,5.252-1.254,7.023,0.387c1.044-1.713,0.548-3.157,0.548-3.157
	s-1.521-1.075-3.76-1.488l-0.007-2.248c-1.835-0.567-3.811,0-3.811,0v2.092c0,0-3.625,0.663-3.625,4.415
	c0,4.859,7.441,3.92,7.441,7.049c0,2.279-4.998,1.333-7.441-0.488c-0.76,1.837,0,3.424,0,3.424c1.809,0.793,3.623,1.019,3.623,1.019
	l0.008,1.973c0,0,1.972,0.601,3.811,0V31.63c0,0,4.221-0.234,4.221-3.822C27,23.146,18.969,23.547,18.969,20.759z"/>
<path fill="#302C3B" d="M40.967,20.761c0-2.419,5.253-1.256,7.025,0.385c1.045-1.712,0.547-3.156,0.547-3.156
	s-1.521-1.076-3.759-1.489l-0.007-2.248c-1.836-0.566-3.811,0-3.811,0v2.092c0,0-3.625,0.667-3.625,4.417
	c0,4.857,7.441,3.918,7.441,7.047c0,2.281-4.997,1.333-7.441-0.488c-0.76,1.837,0,3.426,0,3.426c1.81,0.791,3.623,1.017,3.623,1.017
	l0.006,1.97c0,0,1.974,0.604,3.813,0V31.63c0,0,4.221-0.234,4.221-3.822C49,23.143,40.967,23.552,40.967,20.761z"/>
</svg>
