<?xml version="1.0" encoding="utf-8"?>
<!-- Generator: Adobe Illustrator 15.0.0, SVG Export Plug-In . SVG Version: 6.00 Build 0)  -->
<!DOCTYPE svg PUBLIC "-//W3C//DTD SVG 1.1//EN" "http://www.w3.org/Graphics/SVG/1.1/DTD/svg11.dtd">
<svg version="1.1" id="Layer_1" xmlns="http://www.w3.org/2000/svg" xmlns:xlink="http://www.w3.org/1999/xlink" x="0px" y="0px"
	 width="64px" height="64px" viewBox="0 0 64 64" enable-background="new 0 0 64 64" xml:space="preserve">
<path fill="#0FB4D4" d="M57.598,13.652c-0.656-0.975-1.637-1.658-2.674-2.168c-3.377-1.658-11.639-1.31-12.334-5.653
	c-0.914-5.694-5.855,0.062-6.771,0.062C34.76,5.893,34.246,2,32.096,2c-2.152,0-2.664,3.893-3.723,3.893
	c-0.916,0-5.859-5.756-6.771-0.062c-0.695,4.344-8.959,3.995-12.334,5.653c-1.037,0.51-2.02,1.193-2.674,2.168
	c-0.521,0.773,0.625,1.613,1.207,0.887c1.586-1.984,4.832-2.37,7.145-2.827c1.941-0.384,4.049-0.612,5.881-1.394
	c2.596-1,2.48-4.931,3.268-4.931c0.588,0,2.697,3.019,4.549,3.019c1.58,0,2.58-3.697,3.453-3.697c0.877,0,1.871,3.697,3.451,3.697
	c1.854,0,3.963-3.019,4.551-3.019c0.785,0,0.672,3.931,3.268,4.931c1.832,0.781,3.939,1.01,5.881,1.394
	c2.313,0.457,5.559,0.843,7.145,2.827C56.973,15.266,58.119,14.426,57.598,13.652z"/>
<path fill="#529320" d="M54,56c0,2.762-3.238,6-6,6H16c-2.76,0-6-3.238-6-6V32.677h44V56z"/>
<path fill="#297124" d="M54,56c0,2.762-3.238,6-6,6h-2c0,0,4-1.433,5-6H54z"/>
<path fill="#A3C86B" d="M10,32.677V56h44V32.677C54,5.098,10,5.098,10,32.677z"/>
<path fill="#529320" d="M10,54c-1.104,0-2-1.168-2-2.609v-4.783C8,45.168,8.896,44,10,44V54z"/>
<path fill="#297124" d="M54,44c1.105,0,2,1.168,2,2.607v4.783C56,52.832,55.105,54,54,54V44z"/>
<polygon fill="#302C3B" points="6,19.98 4,19.98 4,49.98 8,49.98 8,47.98 6,47.98 "/>
<polygon fill="#302C3B" points="58,19.98 58,47.98 56,47.98 56,49.98 60,49.98 60,19.98 "/>
<path fill="#BFFFAB" d="M22,40c-4.415,0-8-3.582-8-8c0-4.42,3.585-8,8-8c4.422,0,8,3.58,8,8C30,36.418,26.422,40,22,40z"/>
<circle fill="#014F27" cx="22" cy="32" r="6"/>
<path fill="#BFFFAB" d="M42,40c-4.414,0-8-3.582-8-8c0-4.42,3.586-8,8-8c4.422,0,8,3.58,8,8C50,36.418,46.422,40,42,40z"/>
<circle fill="#014F27" cx="42" cy="32" r="6"/>
<path fill="#BFFFAB" d="M20.975,54c-6.633,0-6.633-12,0-12h22.051c6.633,0,6.633,12,0,12H20.975z"/>
<path fill="#529320" d="M21.207,53c-5.609,0-5.609-10,0-10h21.574c5.625,0,5.625,10,0,10H21.207z"/>
<path fill="#302C3B" d="M24,51.074c0,1.234-2,1.234-2,0v-6.148c0-1.234,2-1.234,2,0V51.074z"/>
<path fill="#302C3B" d="M30,51.074c0,1.234-2,1.234-2,0v-6.148c0-1.234,2-1.234,2,0V51.074z"/>
<path fill="#302C3B" d="M36,51.074c0,1.234-2,1.234-2,0v-6.148c0-1.234,2-1.234,2,0V51.074z"/>
<path fill="#302C3B" d="M42,51.074c0,1.234-2,1.234-2,0v-6.148c0-1.234,2-1.234,2,0V51.074z"/>
<circle fill="#FFFFFF" cx="32" cy="38" r="2"/>
<rect x="31.617" y="35.999" transform="matrix(0.7071 -0.7071 0.7071 0.7071 -17.4968 33.7571)" fill="#302C3B" width="0.765" height="4"/>
<path fill="#7AB51D" d="M30.533,12.042C40.999,12.654,51,19.528,51,32.677V56H10v0.004h44V32.681C54,18.277,42,11.401,30.533,12.042
	z"/>
<circle fill="#E81C27" cx="5" cy="19.98" r="3"/>
<path fill="#C21413" d="M6.874,17.64c0.409,0.513,0.656,1.162,0.656,1.87c0,1.657-1.344,3-3,3c-0.71,0-1.361-0.248-1.874-0.659
	C3.205,22.539,4.05,22.98,5,22.98c1.657,0,3-1.343,3-3C8,19.033,7.56,18.189,6.874,17.64z"/>
<path fill-rule="evenodd" clip-rule="evenodd" fill="#F46C60" d="M2.773,18.682c0.055,0.386,0.776-0.37,1.508-1.021
	C4.753,17.244,2.608,17.519,2.773,18.682z"/>
<circle fill="#F46C60" cx="22" cy="32" r="2.5"/>
<path fill-rule="evenodd" clip-rule="evenodd" fill="#F89987" d="M20.145,30.918c0.046,0.322,0.646-0.309,1.257-0.851
	C21.794,29.719,20.007,29.949,20.145,30.918z"/>
<circle fill="#F46C60" cx="42" cy="32" r="2.5"/>
<path fill-rule="evenodd" clip-rule="evenodd" fill="#F89987" d="M40.145,30.918c0.046,0.322,0.646-0.309,1.257-0.851
	C41.794,29.719,40.007,29.949,40.145,30.918z"/>
<circle fill="#006DAE" cx="59" cy="19.98" r="3"/>
<path fill="#014D87" d="M60.873,17.64c0.41,0.513,0.656,1.162,0.656,1.87c0,1.657-1.343,3-2.999,3c-0.71,0-1.361-0.248-1.875-0.659
	c0.55,0.688,1.395,1.13,2.345,1.13c1.656,0,2.999-1.343,2.999-3C61.999,19.033,61.559,18.189,60.873,17.64z"/>
<path fill-rule="evenodd" clip-rule="evenodd" fill="#0FB4D4" d="M56.773,18.682c0.055,0.386,0.776-0.37,1.508-1.021
	C58.753,17.244,56.607,17.519,56.773,18.682z"/>
<path fill-rule="evenodd" clip-rule="evenodd" fill="#C5DCA8" d="M11.064,33.15c0.023,2.748,0.322-9.112,12.029-17.582
	C26.67,12.981,10.922,16.653,11.064,33.15z"/>
</svg>
