<?xml version="1.0" encoding="utf-8"?>
<!-- Generator: Adobe Illustrator 15.0.0, SVG Export Plug-In . SVG Version: 6.00 Build 0)  -->
<!DOCTYPE svg PUBLIC "-//W3C//DTD SVG 1.1//EN" "http://www.w3.org/Graphics/SVG/1.1/DTD/svg11.dtd">
<svg version="1.1" id="Layer_1" xmlns="http://www.w3.org/2000/svg" xmlns:xlink="http://www.w3.org/1999/xlink" x="0px" y="0px"
	 width="64px" height="64px" viewBox="0 0 64 64" enable-background="new 0 0 64 64" xml:space="preserve">
<circle fill="#FDCA47" cx="32" cy="32" r="30"/>
<path fill="#F9B700" d="M51.654,9.346C56.226,14.611,59,21.48,59,29c0,16.568-13.432,30-30,30c-7.521,0-14.39-2.773-19.654-7.346
	C14.846,57.99,22.951,62,32,62c16.568,0,30-13.432,30-30C62,22.953,57.988,14.848,51.654,9.346z"/>
<path fill="#302C3B" d="M26.156,31c0,5.334-12,5.334-12,0C14.156,25.667,26.156,25.667,26.156,31z"/>
<path fill="#E8A329" d="M45.768,7.108c0,0-38.898,7.487-41.258,12.876c11.629-1.11,22.319,1.431,33.425,4.63
	c7.559,7.095,14.917,14.001,19.388,23.462C60.047,43.793,45.768,7.108,45.768,7.108z"/>
<path fill="#302C3B" d="M40.801,42.498c-5.803-1.402-14.496-0.184-18.496,5.273c-0.717,0.979-0.02,2.008,0.982,1.34
	c3.828-2.547,11.25-4.123,16.592-2.854C41.922,46.742,42.938,43.037,40.801,42.498z"/>
<path fill="#302C3B" d="M49.656,31c0,5.334-12,5.334-12,0C37.656,25.667,49.656,25.667,49.656,31z"/>
<path fill="#917524" d="M9.455,24.993c5.243,0.237,11.211-1.973,13.488-4.765c0.478-0.591-0.721-3.061-1.184-2.622
	c-3.561,3.379-8.396,5.719-13.247,5.811C7.862,23.429,8.668,24.958,9.455,24.993z"/>
<path fill="#BEC3CF" d="M32,2c-6.039,0-11.656,1.789-16.361,4.859c17.615,9.119,33.115,23.082,41.684,41.217
	C60.279,43.428,62,37.916,62,32C62,15.432,48.568,2,32,2z"/>
<path fill="#FFFFFF" d="M32.918,3.568c-5.5,0-10.617,1.631-14.904,4.428c16.684,7.688,31.572,19.311,39.377,35.832
	C60.475,37.982,60.25,30.9,60.25,30.9C60.25,15.805,48.014,3.568,32.918,3.568z"/>
<path fill="#BEC3CF" d="M15.826,6.748c14.525-0.068,28.896,3.291,41.879,9.779C60.43,21.045,62,26.338,62,32
	c0,0.467-0.014,0.932-0.035,1.393C44.828,22.803,24.586,18.068,4.51,19.984C6.898,14.531,10.865,9.936,15.826,6.748z"/>
<path fill="#FFFFFF" d="M16.965,8.135c13.588-0.059,27.635,3.977,39.777,9.623c3.346,6.539,3.477,11.863,3.477,11.863
	C43.828,20.9,24.891,16.525,7.361,18.176C7.361,18.176,11.6,10.4,16.965,8.135z"/>
<path opacity="0.2" fill="#302C3B" d="M51.654,9.346C56.226,14.611,59,21.48,59,29c0,5.37-1.412,10.41-3.883,14.771
	c0,0,0.965,1.802,2.217,4.305C60.288,43.43,62,37.914,62,32C62,22.953,57.988,14.848,51.654,9.346z"/>
</svg>
