<?xml version="1.0" encoding="utf-8"?>
<!-- Generator: Adobe Illustrator 15.0.0, SVG Export Plug-In . SVG Version: 6.00 Build 0)  -->
<!DOCTYPE svg PUBLIC "-//W3C//DTD SVG 1.1//EN" "http://www.w3.org/Graphics/SVG/1.1/DTD/svg11.dtd">
<svg version="1.1" id="Layer_1" xmlns="http://www.w3.org/2000/svg" xmlns:xlink="http://www.w3.org/1999/xlink" x="0px" y="0px"
	 width="64px" height="64px" viewBox="0 0 64 64" enable-background="new 0 0 64 64" xml:space="preserve">
<path fill="#FDCA47" d="M48.402,35.649c0,0,2.974,13.032-1.073,19.363c-6.02,9.432-27.625,11.141-33.461-6.453
	c-0.625-1.877,8.482-16.993,8.482-16.993L48.402,35.649z"/>
<path fill="#FDCA47" d="M35.429,31.385c0.667,2.081-0.692,4.231-3.038,4.802l-0.037,0.008c-2.346,0.572-4.791-0.651-5.457-2.729
	L17.375,6.953c-0.67-2.081,0.695-4.232,3.041-4.806l0.037-0.005c2.342-0.575,4.785,0.647,5.453,2.729L35.429,31.385z"/>
<path fill="#CC9200" d="M34.028,34.868l-0.041,0.012c-2.346,0.569-4.781-0.684-5.448-2.765L19.015,5.601
	c-0.36-1.132-0.125-2.281,0.541-3.186c-1.813,0.826-2.774,2.69-2.188,4.507l9.521,26.515c0.667,2.083,3.105,3.335,5.452,2.763
	l0.037-0.008c1.071-0.261,1.939-0.853,2.497-1.616C34.614,34.698,34.328,34.798,34.028,34.868z"/>
<path fill="#CC9200" d="M28.122,29.535c0.066,2.292,1.627,3.355,7.557,1.913l0.77,2.854l-16.151,0.226l9.988-17.465L28.122,29.535z"
	/>
<path fill="#FDCA47" d="M23.206,40.441c-0.627,2.22-3.182,3.554-5.695,2.98l-0.041-0.008c-2.518-0.575-4.049-2.839-3.418-5.055
	L24.13,7.085c0.628-2.22,2.573-3.549,5.089-2.974l0.039,0.008c2.518,0.575,4.045,2.838,3.416,5.054L23.206,40.441z"/>
<path fill="#CC9200" d="M19.818,42.981l-0.046-0.012c-2.516-0.573-4.018-2.861-3.393-5.082L25.85,6.621
	c0.344-1.203,1.253-2.15,2.412-2.666c-2.173-0.092-4.184,1.168-4.736,3.107l-9.467,31.267c-0.631,2.219,0.877,4.506,3.395,5.08
	l0.043,0.011c1.147,0.263,2.304,0.124,3.279-0.313C20.464,43.095,20.139,43.052,19.818,42.981z"/>
<path fill="#FDCA47" d="M50.913,34.278c0.463-2.209-0.963-4.373-3.189-4.836l-0.065-0.016c-2.222-0.462-4.396,0.95-4.858,3.159
	l-1.291,6.177c-0.461,2.208,0.963,4.373,3.184,4.837l0.067,0.015c2.226,0.466,4.399-0.949,4.86-3.156L50.913,34.278z"/>
<path fill="#CC9200" d="M46.214,42.37l-0.055-0.012c-2.221-0.464-3.599-2.593-3.135-4.801l1.291-6.181
	c0.125-0.599,0.381-1.133,0.72-1.592c-1.114,0.528-1.973,1.549-2.243,2.848l-1.293,6.183c-0.461,2.207,0.912,4.309,3.136,4.773
	l0.051,0.01c1.625,0.342,3.216-0.313,4.144-1.553C48.041,42.417,47.132,42.563,46.214,42.37z"/>
<path fill="#FDCA47" d="M44.093,28.74c0.604-2.686-1.047-5.273-3.689-5.771l-0.076-0.016c-2.643-0.502-5.279,1.273-5.883,3.962
	l-1.692,7.526c-0.605,2.689,1.046,5.279,3.689,5.78l0.077,0.011c2.642,0.505,5.273-1.271,5.881-3.962L44.093,28.74z"/>
<path fill="#CC9200" d="M38.306,38.689l-0.061-0.013c-2.642-0.498-4.266-3.012-3.658-5.704l1.697-7.531
	c0.16-0.726,0.47-1.385,0.889-1.949c-1.34,0.671-2.395,1.934-2.75,3.514l-2.065,7.533c-0.606,2.688,1.395,5.171,4.035,5.673
	l0.063,0.01c1.928,0.369,3.846-0.466,4.981-1.998C40.493,38.696,39.397,38.896,38.306,38.689z"/>
<path fill="#CC9200" d="M36.12,48.083c0-6.197-5.065-11.274-11.507-11.791c0.785-0.194,1.606-0.311,2.456-0.311
	c5.516,0,9.991,4.207,9.991,9.397c0,1.499-0.383,2.907-1.049,4.161C36.076,49.062,36.12,48.577,36.12,48.083z"/>
<path fill="#CC9200" d="M30.262,27.951c6.096-5.873,10.911,1.794,5.336,8.387c-3.86,4.563-10.602,6.45-11.819,8.16
	c-0.887,1.241-7.809-0.67-8.524-3.22C13,33.248,24.573,33.431,30.262,27.951z"/>
<path fill="#FDCA47" d="M30.836,29.383c5.127-4.334,7.037,0.483,4.038,5.192c-3.317,5.206-6.303,4.536-9.749,8.979
	c-0.973,1.256-0.328,8.446-0.328,8.446s-7.1,4.566-8.549,1.965c-2.693-4.832-1.848-8.639-1.848-11.482
	C14.401,34.92,21.375,37.38,30.836,29.383z"/>
<path fill="#CC9200" d="M17.459,36.637c-3.942,1.65-3.752,10.972-0.816,15.464c7.312,11.168,21.473,10.856,29.063,4.877
	c-7.035,6.859-22.238,7.667-30.178-3.91C12.343,48.433,11.351,37.811,17.459,36.637z"/>
</svg>
