<?xml version="1.0" encoding="utf-8"?>
<!-- Generator: Adobe Illustrator 15.0.0, SVG Export Plug-In . SVG Version: 6.00 Build 0)  -->
<!DOCTYPE svg PUBLIC "-//W3C//DTD SVG 1.1//EN" "http://www.w3.org/Graphics/SVG/1.1/DTD/svg11.dtd">
<svg version="1.1" id="Layer_1" xmlns="http://www.w3.org/2000/svg" xmlns:xlink="http://www.w3.org/1999/xlink" x="0px" y="0px"
	 width="64px" height="64px" viewBox="0 0 64 64" enable-background="new 0 0 64 64" xml:space="preserve">
<path fill="#916B50" d="M12.605,32c7.891,0,7.449,6,11.395,6v-4h32v10c0,9.188-3.947,18-15.78,18l0,0l0,0
	C20.496,62,22.469,44,8.66,36C6.949,35.008,8.668,32,12.605,32z"/>
<path fill="#664935" d="M12.605,32c0.473,0,0.91,0.023,1.326,0.064c-3.436,0.33-4.877,3.003-3.271,3.935
	c13.508,7.826,11.928,25.213,30.316,25.963C40.721,61.973,40.482,62,40.219,62C20.496,62,22.469,44,8.66,36
	C6.949,35.008,8.668,32,12.605,32z"/>
<path fill="#916B50" d="M32,10.043L33,38h-9V10.043C24,4.653,32,4.653,32,10.043z"/>
<path fill="#916B50" d="M40,6.045V38h-8V6.045C32,0.653,40,0.653,40,6.045z"/>
<path fill="#916B50" d="M48,8.043V38h-9l1-29.957C40,2.653,48,2.653,48,8.043z"/>
<path fill="#916B50" d="M56,16.045V40h-9l1-23.955C48,10.653,56,10.653,56,16.045z"/>
<path fill="#664935" d="M28.996,6.129c-1.613,0.379-3,1.674-3,3.914V38H24V10.043C24,6.893,26.727,5.598,28.996,6.129z"/>
<path fill="#664935" d="M32,6.032V30l0.963,1.705L33.998,30V6.032c0-2.242,1.385-3.537,3.002-3.916C34.727,1.584,32,2.879,32,6.032z
	"/>
<path fill="#664935" d="M40,8.03V30h-0.022l0.963,1.705L41.976,30h0.022V8.03c0-2.24,1.385-3.535,3.002-3.912
	C42.727,3.584,40,4.879,40,8.03z"/>
<path fill="#664935" d="M52.998,12.118C50.727,11.584,48,12.881,48,16.032V32l0.963,1.705L49.998,32h-0.002V16.032
	C49.996,13.79,51.383,12.495,52.998,12.118z"/>
<path fill="#B08A6F" d="M30.67,11.1C31.103,8.124,29.723,8,27.998,8c-1.723,0-3.102,0.123-2.668,3.1
	c0.16,1.107,1.313,1.484,2.668,1.484C29.355,12.584,30.508,12.208,30.67,11.1z"/>
<path fill="#B08A6F" d="M38.67,7.1C39.103,4.124,37.723,4,35.999,4c-1.723,0-3.102,0.123-2.669,3.1
	c0.161,1.107,1.313,1.484,2.669,1.484C37.356,8.584,38.509,8.208,38.67,7.1z"/>
<path fill="#B08A6F" d="M46.67,9.102C47.103,6.124,45.723,6,43.998,6c-1.723,0-3.102,0.123-2.668,3.102
	c0.16,1.105,1.313,1.482,2.668,1.482C45.355,10.584,46.508,10.208,46.67,9.102z"/>
<path fill="#B08A6F" d="M54.67,17.102C55.103,14.124,53.723,14,51.998,14c-1.723,0-3.102,0.123-2.668,3.102
	c0.16,1.105,1.313,1.482,2.668,1.482C53.355,18.584,54.508,18.208,54.67,17.102z"/>
<path fill="#8F674E" d="M26.412,8.155C25.547,8.42,25.045,9.141,25.33,11.1c0.066,0.461,0.313,0.789,0.666,1.023v-2.08
	C25.996,9.309,26.156,8.688,26.412,8.155z"/>
<path fill="#8F674E" d="M34.407,4.159C33.545,4.424,33.046,5.147,33.33,7.1c0.067,0.463,0.313,0.791,0.668,1.023V6.032
	C33.998,5.303,34.155,4.688,34.407,4.159z"/>
<path fill="#8F674E" d="M42.407,6.159c-0.862,0.266-1.361,0.988-1.077,2.943c0.066,0.461,0.313,0.789,0.668,1.023V8.03
	C41.998,7.303,42.155,6.686,42.407,6.159z"/>
<path fill="#8F674E" d="M50.405,14.159c-0.861,0.268-1.359,0.988-1.075,2.943c0.066,0.459,0.313,0.787,0.666,1.021v-2.092
	C49.996,15.303,50.153,14.688,50.405,14.159z"/>
<path fill="#B08A6F" d="M13.836,35.768c-2.15-2.01-4.253-1.697-5.473-0.479c-1.218,1.219,2.895,2.604,4.504,3.836
	C13.827,38.166,14.702,36.576,13.836,35.768z"/>
<path fill="#8F674E" d="M12.869,39.123c0.296-0.295,0.576-0.652,0.808-1.027c-0.92-0.752-1.913-1.459-3.016-2.098
	c-0.621-0.361-0.781-0.982-0.551-1.629c-0.68,0.121-1.278,0.451-1.745,0.918C7.146,36.506,11.26,37.891,12.869,39.123z"/>
</svg>
