<?xml version="1.0" encoding="utf-8"?>
<!-- Generator: Adobe Illustrator 15.0.0, SVG Export Plug-In . SVG Version: 6.00 Build 0)  -->
<!DOCTYPE svg PUBLIC "-//W3C//DTD SVG 1.1//EN" "http://www.w3.org/Graphics/SVG/1.1/DTD/svg11.dtd">
<svg version="1.1" id="Layer_1" xmlns="http://www.w3.org/2000/svg" xmlns:xlink="http://www.w3.org/1999/xlink" x="0px" y="0px"
	 width="64px" height="64px" viewBox="0 0 64 64" enable-background="new 0 0 64 64" xml:space="preserve">
<circle fill="#FDCA47" cx="32" cy="32" r="30"/>
<path fill="#F9B700" d="M51.654,9.346C56.226,14.611,59,21.48,59,29c0,16.568-13.432,30-30,30c-7.521,0-14.39-2.773-19.654-7.346
	C14.846,57.99,22.952,62,32,62c16.568,0,30-13.432,30-30C62,22.953,57.988,14.848,51.654,9.346z"/>
<path fill-rule="evenodd" clip-rule="evenodd" fill="#FFE8BB" d="M6.418,20.5C5.301,24.242,13,11,25,6.084
	C30.834,3.693,11.168,4.584,6.418,20.5z"/>
<path fill="#302C3B" d="M37.496,30.307c0,5.334,12,5.334,12,0C49.496,24.973,37.496,24.973,37.496,30.307z"/>
<path fill="#302C3B" d="M14.497,30.307c0,5.334,12,5.334,12,0C26.497,24.973,14.497,24.973,14.497,30.307z"/>
<path fill="#E5E5E5" d="M4.446,38.729l24.227,14.156l4.605-6.527l-21.466-18.07C5.444,23.793-1.925,34.238,4.446,38.729z"/>
<path fill="#FFFFFF" d="M5.786,36.547L29.592,51.58l2.762-3.916L10.206,30.283C6.514,27.678,2.094,33.941,5.786,36.547z"/>
<polygon fill="#E03636" points="7.477,36.178 29.639,50.639 31.481,48.027 10.424,32 "/>
<ellipse transform="matrix(0.5765 -0.8171 0.8171 0.5765 -24.0639 21.7519)" fill="#B00505" cx="8.951" cy="34.089" rx="2.556" ry="0.856"/>
<polygon fill="#302C3B" points="18.071,41.498 16.075,44.328 15.182,43.762 17.178,40.934 "/>
<polygon fill="#302C3B" points="20.534,43.205 18.618,45.918 17.727,45.354 19.641,42.641 "/>
<polygon fill="#302C3B" points="22.983,44.928 21.143,47.535 20.252,46.967 22.092,44.361 "/>
<polygon fill="#302C3B" points="25.442,46.639 23.782,48.99 22.897,48.416 24.553,46.068 "/>
<polygon fill="#302C3B" points="27.903,48.346 26.37,50.52 25.485,49.943 27.018,47.771 "/>
<path fill="#302C3B" d="M42.756,43.309c-5.967,0.146-14.048,3.574-16.5,9.881c-0.439,1.131,0.5,1.943,1.295,1.039
	c3.039-3.451,9.798-6.893,15.289-7.051C44.938,47.119,44.959,43.277,42.756,43.309z"/>
<path fill="#917524" d="M9.456,23.591c5.242,0.237,11.211-1.973,13.486-4.765c0.479-0.591-0.719-3.061-1.184-2.622
	c-3.561,3.379-8.396,5.719-13.246,5.811C7.862,22.027,8.668,23.556,9.456,23.591z"/>
<path fill="#917524" d="M54.543,23.589c-5.243,0.238-11.211-1.971-13.486-4.764c-0.48-0.588,0.721-3.062,1.184-2.621
	c3.561,3.376,8.396,5.719,13.245,5.81C56.138,22.025,55.33,23.555,54.543,23.589z"/>
</svg>
