<?xml version="1.0" encoding="utf-8"?>
<!-- Generator: Adobe Illustrator 15.0.0, SVG Export Plug-In . SVG Version: 6.00 Build 0)  -->
<!DOCTYPE svg PUBLIC "-//W3C//DTD SVG 1.1//EN" "http://www.w3.org/Graphics/SVG/1.1/DTD/svg11.dtd">
<svg version="1.1" id="Layer_1" xmlns="http://www.w3.org/2000/svg" xmlns:xlink="http://www.w3.org/1999/xlink" x="0px" y="0px"
	 width="64px" height="64px" viewBox="0 0 64 64" enable-background="new 0 0 64 64" xml:space="preserve">
<polygon fill="#946346" points="2,35.307 24.536,36.139 24.536,30.374 2,30.374 "/>
<polygon fill="#B88A6F" points="2,33.52 24.536,34.352 24.536,11.223 2,11.223 "/>
<path fill="#B88A6F" d="M21.014,11.329c0,0,37.97-1.395,39.784,1.563c2.502,4.075,0.243,11.57,0.724,20.555
	c0.29,5.458-2.336,6.698-5.448,6.326c1.854,1.434,3.627,3.683,4.359,7.26c0.939,4.588-3.004,6.439-5.277,5.244
	c-4.056-2.135-11.867-2.842-18.837-6.697c-6.251-3.459-9.971-7.518-16.049-10.541C14.217,32.028,16.445,11.329,21.014,11.329z"/>
<path fill="#946346" d="M46.564,21.743c2.594,0.998,3.752,3.434,3.752,3.434c0.881-2.706,3.105-2.949,3.105-2.949
	c-2.586,2.457-1.703,9.588-1.703,9.588s-1.889-7.154-6.492-7.68c-3.062-0.348-2.773,10.1,5.348,13.25
	c3.576,1.387,10.11,1.099,10.967-3.339c0.494,4.838-1.631,6.302-4.256,6.382c1.359,1.416,2.536,3.372,3.033,6.094
	c-2.333-7.104-7.407-6.258-9.904-6.739c-3.536-0.689-8.46-5.944-9.006-11.241C40.941,24.006,43.233,20.46,46.564,21.743z"/>
<path fill="#946346" d="M37.232,44.604c-5.973-3.273-6.102-3.399-14.545-9.306c-2.509-1.755-4.219-2.694-5.555-5.854
	c0.244,4.319,1.722,5.611,4.128,7.078c6.614,4.032,8.958,6.27,15.4,9.783c4.606,2.51,12.835,3.758,17.132,5.365
	C50.685,49.967,41.581,46.988,37.232,44.604z"/>
<path fill="#946346" d="M51.178,45.844c4.47,0.518,6.221,3.217,6.042,5.779c-0.179,2.561-5.893-1.152-8.926-1.801
	C48.435,47.807,49.377,45.636,51.178,45.844z"/>
<path fill="#D4AD97" d="M51.837,46.295c4.468,0.518,6.219,3.215,6.04,5.777s-5.832-0.902-8.82-1.799
	C49.197,48.256,50.036,46.088,51.837,46.295z"/>
</svg>
