<?xml version="1.0" encoding="utf-8"?>
<!-- Generator: Adobe Illustrator 15.0.0, SVG Export Plug-In . SVG Version: 6.00 Build 0)  -->
<!DOCTYPE svg PUBLIC "-//W3C//DTD SVG 1.1//EN" "http://www.w3.org/Graphics/SVG/1.1/DTD/svg11.dtd">
<svg version="1.1" id="Layer_1" xmlns="http://www.w3.org/2000/svg" xmlns:xlink="http://www.w3.org/1999/xlink" x="0px" y="0px"
	 width="64px" height="64px" viewBox="0 0 64 64" enable-background="new 0 0 64 64" xml:space="preserve">
<path fill="#EBBEA0" d="M47.182,55.741c0,0-6.041-4.861-7.209-7.611c-2.1-4.948-1.557-22.317-1.557-22.317s-8.678-2.342-3.318-8.131
	c3.604-3.89,5.199-8.535,4.156-11.47c-2.291-6.452-6.311-4.131-7.012-1.635c-3.344,11.91-11.169,9.546-15.831,26.144
	c-2.345,8.348-2.989,12.754,4.548,18.684l12.257,2.602l8.91,8.623C45.545,63.856,50.6,58.968,47.182,55.741z"/>
<path fill="#BF8D69" d="M32.891,28.225c-0.934,3.325-4.629,7.901-10.911,9.683c7.026,0.005,13.104-5.177,14.047-8.499L32.891,28.225
	z"/>
<path fill="#EBBEA0" d="M45.254,32.742l-10.451-1.759c-4.729-0.711-3.695-8.102,1.035-7.393l10.703,1.608
	C51.271,25.909,49.982,33.452,45.254,32.742z"/>
<path fill="#BF8D69" d="M47.352,31.124l-10.703-1.608c-3.053-0.459-3.588-3.757-2.318-5.852c-3.439,0.892-3.965,6.842,0.217,7.47
	l10.703,1.607c1.678,0.252,2.908-0.541,3.605-1.69C48.402,31.167,47.902,31.206,47.352,31.124z"/>
<path fill="#EBBEA0" d="M42.676,47.829l-10.703-1.608c-4.73-0.71-3.441-8.253,1.287-7.544l10.705,1.609
	C48.693,40.995,47.406,48.538,42.676,47.829z"/>
<path fill="#BF8D69" d="M44.775,46.21L34.07,44.601c-3.051-0.458-3.586-3.757-2.318-5.852c-3.438,0.893-3.961,6.844,0.217,7.471
	l10.703,1.608c1.678,0.251,2.91-0.542,3.607-1.691C45.826,46.253,45.326,46.292,44.775,46.21z"/>
<path fill="#EBBEA0" d="M45.742,40.552L33.67,38.667c-4.732-0.71-3.852-8.245,0.881-7.533l12.48,1.875
	C51.762,33.72,50.475,41.262,45.742,40.552z"/>
<path fill="#BF8D69" d="M47.84,38.935l-12.479-1.877c-3.057-0.457-3.523-3.939-2.254-6.034c-3.439,0.889-4.029,7.026,0.152,7.653
	l12.479,1.875c1.678,0.252,2.912-0.541,3.607-1.693C48.895,38.978,48.393,39.017,47.84,38.935z"/>
<path fill="#BF8D69" d="M48.039,56.926c0.145,3.085-2.432,4.142-5.277,2.472c-3.113-1.824-9.223-8.545-9.223-8.545
	c-3.688,0.408-9.083-1.446-11.521-2.723c-8.141-4.263-7.022-8.748-4.678-17.096c4.662-16.596,13.3-14.104,16.646-26.014
	c0.354-1.26,1.023-2.572,2.689-2.594c-2.209-1.238-3.955,0.45-4.432,2.148c-3.346,11.91-11.985,9.417-16.645,26.014
	c-2.345,8.348-3.031,14.369,4.485,18.627c3.311,1.877,9.234,3.535,12.99,3.301c0,0,6.879,6.98,9.475,8.734
	C46,63.583,49.436,60.001,48.039,56.926z"/>
</svg>
