<?xml version="1.0" encoding="utf-8"?>
<!-- Generator: Adobe Illustrator 15.0.0, SVG Export Plug-In . SVG Version: 6.00 Build 0)  -->
<!DOCTYPE svg PUBLIC "-//W3C//DTD SVG 1.1//EN" "http://www.w3.org/Graphics/SVG/1.1/DTD/svg11.dtd">
<svg version="1.1" id="Layer_1" xmlns="http://www.w3.org/2000/svg" xmlns:xlink="http://www.w3.org/1999/xlink" x="0px" y="0px"
	 width="64px" height="64px" viewBox="0 0 64 64" enable-background="new 0 0 64 64" xml:space="preserve">
<circle fill="#FDCA47" cx="32" cy="32" r="30"/>
<path fill="#F9B700" d="M51.654,9.346C56.227,14.611,59,21.48,59,29c0,16.568-13.432,30-30,30c-7.52,0-14.389-2.773-19.654-7.346
	C14.847,57.99,22.953,62,32,62c16.568,0,30-13.432,30-30C62,22.953,57.989,14.848,51.654,9.346z"/>
<path fill-rule="evenodd" clip-rule="evenodd" fill="#FFE8BB" d="M6.418,20.5C5.303,24.242,13.001,11,25.001,6.084
	C30.834,3.693,11.168,4.584,6.418,20.5z"/>
<path fill="#E8A329" d="M37.252,49.002c-1.199,0.124-2.76,0.246-5.252,0.246c-2.49,0-4.053-0.122-5.252-0.246
	c-1.035-0.11-0.953,4.92-0.018,5.401c0.889,0.459,3.807,0.74,4.604,0.521C32.002,54.736,32,54.321,32,54.321
	s-0.004,0.415,0.666,0.603c0.797,0.22,3.715-0.062,4.604-0.521C38.205,53.922,38.289,48.892,37.252,49.002z"/>
<path id="Shape_13_" fill="#E8A329" d="M46,19.103c-3.975,0-7.488,1.939-9.672,4.918c-2.789-1.279-6.07-1.152-8.648,0.009
	c-2.184-2.983-5.701-4.927-9.68-4.927c-6.627,0-12,5.371-12,12c0,6.627,5.373,12,12,12c6.629,0,12-5.373,12-12
	c0-1.277-0.203-2.506-0.572-3.66c1.547-0.449,3.602-0.447,5.146,0.001C34.203,28.598,34,29.825,34,31.103c0,6.627,5.373,12,12,12
	s12-5.373,12-12C58,24.474,52.627,19.103,46,19.103L46,19.103z M18,40.103c-4.969,0-9-4.031-9-9c0-4.971,4.031-9,9-9
	c4.971,0,9,4.029,9,9C27,36.071,22.971,40.103,18,40.103L18,40.103z M46,40.103c-4.969,0-9-4.031-9-9c0-4.971,4.031-9,9-9
	c4.971,0,9,4.029,9,9C55,36.071,50.971,40.103,46,40.103L46,40.103z"/>
<ellipse id="Oval_6_" fill="#302C3B" cx="19.5" cy="30" rx="3.5" ry="4.5"/>
<ellipse id="Oval_3_" fill="#302C3B" cx="44.5" cy="30" rx="3.5" ry="4.5"/>
<path id="Shape_12_" fill="#302C3B" d="M46,18c-3.975,0-7.488,1.939-9.672,4.918c-2.789-1.279-6.07-1.152-8.648,0.009
	C25.496,19.943,21.979,18,18,18c-6.627,0-12,5.371-12,12c0,6.627,5.373,12,12,12c6.629,0,12-5.373,12-12
	c0-1.277-0.203-2.506-0.572-3.66c1.547-0.449,3.602-0.447,5.146,0.001C34.203,27.495,34,28.723,34,30c0,6.627,5.373,12,12,12
	s12-5.373,12-12C58,23.371,52.627,18,46,18L46,18z M18,39c-4.969,0-9-4.031-9-9c0-4.971,4.031-9,9-9c4.971,0,9,4.029,9,9
	C27,34.969,22.971,39,18,39L18,39z M46,39c-4.969,0-9-4.031-9-9c0-4.971,4.031-9,9-9c4.971,0,9,4.029,9,9C55,34.969,50.971,39,46,39
	L46,39z"/>
<path id="Shape_11_" fill="#302C3B" d="M44.584,45.189C38.979,46.75,32,46.754,32,46.754s-6.977-0.004-12.584-1.563
	c-1.121-0.313-1.631,0.609-1.092,1.709C19.813,49.93,28.016,52,32,52c3.986,0,12.189-2.07,13.676-5.102
	C46.217,45.801,45.707,44.879,44.584,45.189L44.584,45.189z"/>
<path fill="#FFFFFF" d="M37.252,48.002c-1.199,0.124-2.76,0.246-5.252,0.246c-2.49,0-4.053-0.122-5.252-0.246
	c-1.035-0.11-0.953,4.92-0.018,5.401c0.889,0.459,3.807,0.74,4.604,0.521C32.002,53.736,32,53.321,32,53.321
	s-0.004,0.415,0.666,0.603c0.797,0.22,3.715-0.062,4.604-0.521C38.205,52.922,38.289,47.892,37.252,48.002z"/>
<path opacity="0.3" fill="#E6EBEF" d="M45.998,21c4.971,0,9,4.025,9,9s-4.029,9-9,9c-4.969,0-8.996-4.025-8.998-9
	C37.002,25.025,41.029,21,45.998,21z"/>
<path opacity="0.3" fill="#FFFFFF" d="M42.93,21.545c-2.494,0.896-4.467,2.883-5.375,5.379L42.93,21.545"/>
<path opacity="0.3" fill="#FFFFFF" d="M49.617,21.756L37.766,33.604c0.234,0.527,0.516,1.037,0.842,1.512L51.125,22.6
	C50.652,22.266,50.148,21.984,49.617,21.756"/>
<path opacity="0.3" fill="#FFFFFF" d="M52.596,23.883L39.893,36.592c0.385,0.352,0.799,0.668,1.242,0.967l12.428-12.445
	C53.275,24.674,52.953,24.27,52.596,23.883"/>
<path opacity="0.3" fill="#FFFFFF" d="M54.855,28.436L44.443,38.842c0.508,0.088,1.027,0.141,1.559,0.141c0.014,0,0.027,0,0.043,0
	c0.279,0,0.557-0.018,0.83-0.035l8.082-8.086C54.984,30.58,55,30.281,55,29.982C55,29.455,54.947,28.945,54.855,28.436"/>
<path opacity="0.3" fill="#E6EBEF" d="M17.998,21c4.971,0,9,4.025,9,9s-4.029,9-9,9C13.029,39,9.002,34.975,9,30
	C9.002,25.025,13.029,21,17.998,21z"/>
<path opacity="0.3" fill="#FFFFFF" d="M14.93,21.545c-2.494,0.896-4.467,2.883-5.375,5.379L14.93,21.545"/>
<path opacity="0.3" fill="#FFFFFF" d="M21.617,21.756L9.766,33.604c0.234,0.527,0.516,1.037,0.842,1.512L23.125,22.6
	C22.652,22.266,22.148,21.984,21.617,21.756"/>
<path opacity="0.3" fill="#FFFFFF" d="M24.596,23.883L11.893,36.592c0.385,0.352,0.799,0.668,1.242,0.967l12.428-12.445
	C25.275,24.674,24.953,24.27,24.596,23.883"/>
<path opacity="0.3" fill="#FFFFFF" d="M26.855,28.436L16.443,38.842c0.508,0.088,1.027,0.141,1.559,0.141c0.014,0,0.027,0,0.043,0
	c0.279,0,0.557-0.018,0.83-0.035l8.082-8.086C26.984,30.58,27,30.281,27,29.982C27,29.455,26.947,28.945,26.855,28.436"/>
<path fill="#917524" d="M54.345,15.997c-4.158-3.201-10.314-4.814-13.779-3.832c-0.732,0.208-1.167,2.92-0.535,2.826
	c4.854-0.725,10.158,0.131,14.184,2.838C54.754,18.192,54.97,16.478,54.345,15.997z"/>
<path fill="#917524" d="M9.657,16c4.157-3.204,10.313-4.816,13.78-3.834c0.73,0.206,1.166,2.921,0.533,2.825
	c-4.853-0.723-10.157,0.131-14.182,2.838C9.247,18.195,9.031,16.479,9.657,16z"/>
</svg>
