<?xml version="1.0" encoding="utf-8"?>
<!-- Generator: Adobe Illustrator 15.0.0, SVG Export Plug-In . SVG Version: 6.00 Build 0)  -->
<!DOCTYPE svg PUBLIC "-//W3C//DTD SVG 1.1//EN" "http://www.w3.org/Graphics/SVG/1.1/DTD/svg11.dtd">
<svg version="1.1" id="Layer_1" xmlns="http://www.w3.org/2000/svg" xmlns:xlink="http://www.w3.org/1999/xlink" x="0px" y="0px"
	 width="64px" height="64px" viewBox="0 0 64 64" enable-background="new 0 0 64 64" xml:space="preserve">
<path fill="#FCD5B2" d="M48.402,35.649c0,0,2.973,13.031-1.073,19.363c-6.02,9.432-27.625,11.141-33.462-6.454
	c-0.624-1.877,8.483-16.993,8.483-16.993L48.402,35.649z"/>
<path fill="#FCD5B2" d="M35.428,31.385c0.668,2.081-0.691,4.231-3.036,4.802l-0.037,0.007c-2.346,0.572-4.791-0.65-5.458-2.729
	L17.376,6.953c-0.67-2.08,0.695-4.232,3.041-4.806l0.037-0.005c2.342-0.574,4.785,0.647,5.453,2.729L35.428,31.385z"/>
<path fill="#DBA97F" d="M34.028,34.868l-0.042,0.012c-2.346,0.568-4.779-0.684-5.447-2.765L19.016,5.601
	c-0.361-1.133-0.125-2.281,0.541-3.186c-1.813,0.825-2.774,2.689-2.189,4.506l9.521,26.515c0.667,2.082,3.105,3.335,5.451,2.762
	l0.038-0.008c1.07-0.26,1.938-0.852,2.496-1.615C34.614,34.698,34.328,34.798,34.028,34.868z"/>
<path fill="#DBA97F" d="M28.121,29.535c0.067,2.293,1.628,3.355,7.557,1.913l0.771,2.854l-16.151,0.225l9.988-17.464L28.121,29.535z
	"/>
<path fill="#FCD5B2" d="M23.206,40.441c-0.628,2.22-3.182,3.554-5.695,2.979l-0.041-0.008c-2.518-0.575-4.049-2.838-3.419-5.054
	l10.08-31.274c0.628-2.221,2.573-3.549,5.089-2.975l0.039,0.008c2.517,0.576,4.045,2.838,3.415,5.055L23.206,40.441z"/>
<path fill="#DBA97F" d="M19.818,42.981l-0.046-0.013c-2.516-0.573-4.019-2.86-3.393-5.081l9.471-31.267
	c0.343-1.202,1.253-2.15,2.412-2.665c-2.173-0.093-4.184,1.168-4.737,3.106l-9.467,31.267c-0.63,2.219,0.878,4.506,3.395,5.079
	l0.044,0.011c1.147,0.263,2.304,0.125,3.279-0.313C20.465,43.095,20.139,43.052,19.818,42.981z"/>
<path fill="#FCD5B2" d="M50.912,34.278c0.464-2.209-0.962-4.373-3.188-4.835l-0.065-0.016c-2.222-0.463-4.396,0.949-4.859,3.158
	l-1.29,6.177c-0.461,2.207,0.963,4.373,3.184,4.836l0.067,0.016c2.225,0.465,4.399-0.95,4.86-3.156L50.912,34.278z"/>
<path fill="#DBA97F" d="M46.214,42.37l-0.055-0.012c-2.221-0.465-3.599-2.593-3.136-4.801l1.291-6.181
	c0.126-0.598,0.382-1.133,0.721-1.592c-1.114,0.529-1.973,1.55-2.243,2.848l-1.293,6.183c-0.461,2.207,0.912,4.309,3.136,4.773
	l0.051,0.01c1.625,0.341,3.216-0.313,4.143-1.554C48.041,42.417,47.131,42.562,46.214,42.37z"/>
<path fill="#FCD5B2" d="M44.093,28.74c0.604-2.686-1.047-5.273-3.689-5.771l-0.077-0.016c-2.642-0.502-5.278,1.273-5.882,3.963
	l-1.692,7.526c-0.605,2.689,1.047,5.278,3.689,5.78l0.076,0.011c2.643,0.505,5.274-1.271,5.881-3.962L44.093,28.74z"/>
<path fill="#DBA97F" d="M38.305,38.688l-0.061-0.012c-2.641-0.498-4.265-3.012-3.657-5.705l1.696-7.531
	c0.161-0.726,0.471-1.385,0.89-1.949c-1.341,0.672-2.395,1.934-2.75,3.514l-2.065,7.533c-0.605,2.689,1.396,5.172,4.035,5.674
	l0.063,0.01c1.929,0.369,3.847-0.466,4.982-1.998C40.493,38.696,39.397,38.896,38.305,38.688z"/>
<path fill="#DBA97F" d="M36.119,48.083c0-6.197-5.064-11.274-11.506-11.791c0.785-0.194,1.606-0.311,2.456-0.311
	c5.516,0,9.989,4.207,9.989,9.396c0,1.5-0.382,2.908-1.048,4.161C36.076,49.061,36.119,48.577,36.119,48.083z"/>
<path fill="#DBA97F" d="M30.262,27.951c6.097-5.872,10.911,1.795,5.336,8.386c-3.858,4.564-10.602,6.451-11.818,8.16
	c-0.886,1.242-7.808-0.67-8.523-3.219C13,33.247,24.572,33.431,30.262,27.951z"/>
<path fill="#FCD5B2" d="M30.836,29.383c5.128-4.335,7.037,0.483,4.038,5.192c-3.316,5.206-6.303,4.535-9.748,8.979
	c-0.974,1.256-0.328,8.447-0.328,8.447s-7.101,4.566-8.55,1.964c-2.693-4.831-1.847-8.639-1.847-11.481
	C14.401,34.919,21.375,37.38,30.836,29.383z"/>
<path fill="#DBA97F" d="M17.459,36.636c-3.941,1.65-3.751,10.973-0.815,15.465c7.312,11.168,21.473,10.855,29.063,4.876
	c-7.035,6.86-22.237,7.667-30.179-3.91C12.344,48.432,11.352,37.811,17.459,36.636z"/>
</svg>
