<?xml version="1.0" encoding="utf-8"?>
<!-- Generator: Adobe Illustrator 15.0.0, SVG Export Plug-In . SVG Version: 6.00 Build 0)  -->
<!DOCTYPE svg PUBLIC "-//W3C//DTD SVG 1.1//EN" "http://www.w3.org/Graphics/SVG/1.1/DTD/svg11.dtd">
<svg version="1.1" id="Layer_1" xmlns="http://www.w3.org/2000/svg" xmlns:xlink="http://www.w3.org/1999/xlink" x="0px" y="0px"
	 width="64px" height="64px" viewBox="0 0 64 64" enable-background="new 0 0 64 64" xml:space="preserve">
<circle fill="#FDCA47" cx="32" cy="32" r="30"/>
<path fill="#F9B700" d="M51.654,9.346C56.226,14.611,59,21.48,59,29c0,16.568-13.432,30-30,30c-7.521,0-14.39-2.773-19.654-7.346
	C14.846,57.99,22.952,62,32,62c16.568,0,30-13.432,30-30C62,22.953,57.988,14.848,51.654,9.346z"/>
<path fill-rule="evenodd" clip-rule="evenodd" fill="#FFE8BB" d="M6.418,20.5C5.302,24.242,13,11,25,6.084
	C30.834,3.693,11.168,4.584,6.418,20.5z"/>
<path fill="#E8A329" d="M43.445,59.738c5.555-2.148,8.842-5.69,8.842-5.69S50.02,42.59,45.173,44
	C43.5,43.999,40.59,56.132,43.445,59.738z"/>
<ellipse fill="#302C3B" cx="20.5" cy="25" rx="4.5" ry="6.5"/>
<ellipse fill="#302C3B" cx="43.5" cy="25" rx="4.5" ry="6.5"/>
<path fill="#302C3B" d="M48.602,43.5H15.4c-0.221,0-0.4,0.16-0.4,0.359v0.281c0,0.199,0.18,0.359,0.4,0.359h33.201
	C48.82,44.5,49,44.34,49,44.141v-0.281C49,43.66,48.82,43.5,48.602,43.5z"/>
<path fill="#6E8189" d="M41.602,43H38.4c-0.221,0-0.4,0.16-0.4,0.359v5.281C38,48.84,38.18,49,38.4,49h3.201
	C41.82,49,42,48.84,42,48.641v-5.281C42,43.16,41.82,43,41.602,43z"/>
<path fill="#99A8AE" d="M41.602,43H38.4c-0.221,0-0.4,0.16-0.4,0.359v5.281h0.4v-5.281H42C42,43.16,41.82,43,41.602,43z"/>
<path fill="#4E5E67" d="M38.398,49H41.6c0.221,0,0.4-0.16,0.4-0.359v-5.281h-0.4v5.281H38C38,48.84,38.18,49,38.398,49z"/>
<path fill="#6E8189" d="M21.602,38H18.4c-0.221,0-0.4,0.16-0.4,0.359v5.281C18,43.84,18.18,44,18.4,44h3.201
	C21.82,44,22,43.84,22,43.641v-5.281C22,38.16,21.82,38,21.602,38z"/>
<path fill="#99A8AE" d="M21.602,38H18.4c-0.221,0-0.4,0.16-0.4,0.359v5.281h0.4v-5.281H22C22,38.16,21.82,38,21.602,38z"/>
<path fill="#4E5E67" d="M18.398,44H21.6c0.221,0,0.4-0.16,0.4-0.359v-5.281h-0.4v5.281H18C18,43.84,18.18,44,18.398,44z"/>
<path fill="#6E8189" d="M45.602,38H42.4c-0.221,0-0.4,0.16-0.4,0.359v5.281C42,43.84,42.18,44,42.4,44h3.201
	C45.82,44,46,43.84,46,43.641v-5.281C46,38.16,45.82,38,45.602,38z"/>
<path fill="#99A8AE" d="M45.602,38H42.4c-0.221,0-0.4,0.16-0.4,0.359v5.281h0.4v-5.281H46C46,38.16,45.82,38,45.602,38z"/>
<path fill="#4E5E67" d="M42.398,44H45.6c0.221,0,0.4-0.16,0.4-0.359v-5.281h-0.4v5.281H42C42,43.84,42.18,44,42.398,44z"/>
<path fill="#6E8189" d="M25.602,43H22.4c-0.221,0-0.4,0.16-0.4,0.359v5.281C22,48.84,22.18,49,22.4,49h3.201
	C25.82,49,26,48.84,26,48.641v-5.281C26,43.16,25.82,43,25.602,43z"/>
<path fill="#99A8AE" d="M25.602,43H22.4c-0.221,0-0.4,0.16-0.4,0.359v5.281h0.4v-5.281H26C26,43.16,25.82,43,25.602,43z"/>
<path fill="#4E5E67" d="M22.398,49H25.6c0.221,0,0.4-0.16,0.4-0.359v-5.281h-0.4v5.281H22C22,48.84,22.18,49,22.398,49z"/>
<path fill="#6E8189" d="M29.602,38H26.4c-0.221,0-0.4,0.16-0.4,0.359v5.281C26,43.84,26.18,44,26.4,44h3.201
	C29.82,44,30,43.84,30,43.641v-5.281C30,38.16,29.82,38,29.602,38z"/>
<path fill="#99A8AE" d="M29.602,38H26.4c-0.221,0-0.4,0.16-0.4,0.359v5.281h0.4v-5.281H30C30,38.16,29.82,38,29.602,38z"/>
<path fill="#4E5E67" d="M26.398,44H29.6c0.221,0,0.4-0.16,0.4-0.359v-5.281h-0.4v5.281H26C26,43.84,26.18,44,26.398,44z"/>
<path fill="#6E8189" d="M33.602,43H30.4c-0.221,0-0.4,0.16-0.4,0.359v5.281C30,48.84,30.18,49,30.4,49h3.201
	C33.82,49,34,48.84,34,48.641v-5.281C34,43.16,33.82,43,33.602,43z"/>
<path fill="#99A8AE" d="M33.602,43H30.4c-0.221,0-0.4,0.16-0.4,0.359v5.281h0.4v-5.281H34C34,43.16,33.82,43,33.602,43z"/>
<path fill="#4E5E67" d="M30.398,49H33.6c0.221,0,0.4-0.16,0.4-0.359v-5.281h-0.4v5.281H30C30,48.84,30.18,49,30.398,49z"/>
<path fill="#6E8189" d="M37.602,38H34.4c-0.221,0-0.4,0.16-0.4,0.359v5.281C34,43.84,34.18,44,34.4,44h3.201
	C37.82,44,38,43.84,38,43.641v-5.281C38,38.16,37.82,38,37.602,38z"/>
<path fill="#99A8AE" d="M37.602,38H34.4c-0.221,0-0.4,0.16-0.4,0.359v5.281h0.4v-5.281H38C38,38.16,37.82,38,37.602,38z"/>
<path fill="#4E5E67" d="M34.398,44H37.6c0.221,0,0.4-0.16,0.4-0.359v-5.281h-0.4v5.281H34C34,43.84,34.18,44,34.398,44z"/>
<path fill="#6E8189" d="M49.435,45.181c-1.563-2.432-4.708-1.876-5.345,0.943c-0.619,2.734-1.494,6.668-0.942,9.8
	c0.831,4.717,3.387,5.429,6.292,4.916c2.906-0.512,5.063-2.055,4.232-6.771C53.119,50.936,50.951,47.539,49.435,45.181z
	 M48.965,46.915c0.564,3.2-3.276,3.878-3.84,0.678C44.561,44.391,48.4,43.714,48.965,46.915z M44.869,56.241
	c-0.856-4.86,6.436-6.146,7.292-1.285C53.019,59.816,45.727,61.102,44.869,56.241z"/>
<path fill="#99A8AE" d="M45.107,56.192c-0.408-2.322,0.943-3.803,2.555-4.187c-1.789,0.206-3.425,1.738-2.98,4.261
	c0.445,2.524,2.506,3.403,4.258,2.986C47.294,59.443,45.518,58.513,45.107,56.192z"/>
<path fill="#99A8AE" d="M47.264,49.679c-0.756,0.008-1.729-0.636-1.988-2.106c-0.259-1.47,0.436-2.407,1.148-2.66
	c0,0-1.814,0.325-1.395,2.704C45.436,49.918,47.264,49.679,47.264,49.679z"/>
<path fill="#99A8AE" d="M49.434,45.174c-0.838-1.303-2.128-1.74-3.245-1.439c0.999-0.086,2.063,0.391,2.789,1.521
	c1.517,2.359,3.685,5.755,4.237,8.886c0.809,4.592-1.217,6.172-4.005,6.727c0.076-0.011,0.152-0.022,0.229-0.035
	c2.906-0.512,5.063-2.054,4.231-6.771C53.117,50.93,50.95,47.533,49.434,45.174z"/>
<path fill="#4E5E67" d="M43.602,55.836c-0.553-3.132,0.324-7.063,0.942-9.8c0.296-1.309,1.134-2.122,2.101-2.383
	c-1.152,0.101-2.215,0.952-2.557,2.464c-0.619,2.735-1.494,6.668-0.941,9.799c0.832,4.718,3.386,5.428,6.292,4.916
	c0.077-0.014,0.151-0.029,0.228-0.046C46.855,61.22,44.412,60.427,43.602,55.836z"/>
<path fill="#4E5E67" d="M48.801,46.951c0.26,1.471-0.421,2.406-1.134,2.656c0,0,1.801-0.4,1.395-2.702
	c-0.419-2.379-2.234-2.063-2.235-2.063C47.582,44.836,48.541,45.48,48.801,46.951z"/>
<path fill="#4E5E67" d="M48.089,51.93c1.646-0.19,3.423,0.739,3.831,3.061c0.41,2.322-0.941,3.804-2.553,4.188
	c1.789-0.207,3.424-1.739,2.979-4.264C51.901,52.393,49.841,51.513,48.089,51.93z"/>
</svg>
