<?xml version="1.0" encoding="utf-8"?>
<!-- Generator: Adobe Illustrator 15.0.0, SVG Export Plug-In . SVG Version: 6.00 Build 0)  -->
<!DOCTYPE svg PUBLIC "-//W3C//DTD SVG 1.1//EN" "http://www.w3.org/Graphics/SVG/1.1/DTD/svg11.dtd">
<svg version="1.1" id="Layer_1" xmlns="http://www.w3.org/2000/svg" xmlns:xlink="http://www.w3.org/1999/xlink" x="0px" y="0px"
	 width="64px" height="64px" viewBox="0 0 64 64" enable-background="new 0 0 64 64" xml:space="preserve">
<path fill="#FDCA47" d="M12.606,32c7.891,0,7.449,6,11.395,6v-4h32v10c0,9.188-3.947,18-15.779,18l0,0l0,0
	c-19.724,0-17.751-18-31.56-26C6.95,35.009,8.668,32,12.606,32z"/>
<path fill="#CC9200" d="M12.606,32c0.473,0,0.91,0.023,1.326,0.064c-3.436,0.33-4.877,3.004-3.271,3.936
	c13.508,7.826,11.928,25.213,30.316,25.963c-0.256,0.01-0.494,0.037-0.758,0.037c-19.722,0-17.75-18-31.558-26
	C6.95,35.009,8.668,32,12.606,32z"/>
<path fill="#FDCA47" d="M32,10.043v27.958h-8V10.043C24,4.652,32,4.652,32,10.043z"/>
<path fill="#FDCA47" d="M40,6.045v31.956h-8V6.045C32,0.652,40,0.652,40,6.045z"/>
<path fill="#FDCA47" d="M48,8.044v29.957h-8V8.044C40,2.653,48,2.653,48,8.044z"/>
<path fill="#FDCA47" d="M56,16.045v23.956h-8V16.045C48,10.652,56,10.652,56,16.045z"/>
<path fill="#CC9200" d="M28.996,6.129c-1.613,0.379-3,1.674-3,3.914v27.958H24V10.043C24,6.893,26.727,5.599,28.996,6.129z"/>
<path fill="#CC9200" d="M32,6.031V30l0.964,1.706L33.998,30V6.031c0-2.242,1.385-3.537,3.002-3.916C34.727,1.585,32,2.879,32,6.031z
	"/>
<path fill="#CC9200" d="M40,8.03V30h-0.021l0.963,1.706L41.977,30h0.021V8.03c0-2.241,1.385-3.535,3.002-3.912
	C42.727,3.584,40,4.88,40,8.03z"/>
<path fill="#CC9200" d="M52.998,12.117C50.727,11.584,48,12.881,48,16.031V32l0.964,1.706L49.998,32h-0.002V16.031
	C49.996,13.789,51.383,12.495,52.998,12.117z"/>
<path fill="#FFE8BB" d="M30.67,11.1C31.104,8.123,29.723,8,27.999,8c-1.723,0-3.102,0.123-2.668,3.1
	c0.161,1.107,1.313,1.484,2.668,1.484C29.356,12.584,30.509,12.207,30.67,11.1z"/>
<path fill="#FFE8BB" d="M38.671,7.101C39.104,4.123,37.724,4,36,4c-1.723,0-3.102,0.123-2.669,3.1
	C33.492,8.208,34.645,8.584,36,8.584C37.357,8.584,38.51,8.208,38.671,7.101z"/>
<path fill="#FFE8BB" d="M46.67,9.101c0.434-2.978-0.947-3.1-2.671-3.1c-1.723,0-3.102,0.123-2.669,3.1
	c0.161,1.107,1.314,1.484,2.669,1.484C45.356,10.585,46.509,10.208,46.67,9.101z"/>
<path fill="#FFE8BB" d="M54.67,17.101C55.104,14.124,53.723,14,51.999,14c-1.723,0-3.102,0.123-2.669,3.101
	c0.161,1.106,1.314,1.483,2.669,1.483C53.356,18.584,54.509,18.208,54.67,17.101z"/>
<path fill="#E5BC5E" d="M26.413,8.155c-0.866,0.266-1.368,0.986-1.083,2.945c0.067,0.461,0.313,0.789,0.666,1.022v-2.08
	C25.997,9.31,26.157,8.688,26.413,8.155z"/>
<path fill="#E5BC5E" d="M34.408,4.158c-0.862,0.267-1.361,0.988-1.077,2.943c0.067,0.461,0.313,0.79,0.667,1.023V6.031
	C33.998,5.304,34.156,4.687,34.408,4.158z"/>
<path fill="#E5BC5E" d="M42.408,6.158c-0.863,0.267-1.361,0.988-1.078,2.943c0.067,0.461,0.313,0.79,0.668,1.023V8.03
	C41.998,7.303,42.156,6.687,42.408,6.158z"/>
<path fill="#E5BC5E" d="M50.406,14.158c-0.861,0.268-1.359,0.989-1.076,2.943c0.067,0.46,0.313,0.789,0.666,1.022v-2.092
	C49.996,15.304,50.154,14.687,50.406,14.158z"/>
<path fill="#FFE8BB" d="M13.836,35.768c-2.15-2.01-4.253-1.696-5.472-0.478c-1.218,1.218,2.895,2.604,4.504,3.836
	C13.828,38.167,14.703,36.577,13.836,35.768z"/>
<path fill="#E5BC5E" d="M12.87,39.124c0.296-0.295,0.577-0.653,0.808-1.027c-0.92-0.752-1.914-1.459-3.016-2.098
	c-0.622-0.361-0.782-0.983-0.551-1.629c-0.68,0.121-1.278,0.451-1.746,0.918C7.147,36.506,11.26,37.892,12.87,39.124z"/>
</svg>
