<?xml version="1.0" encoding="utf-8"?>
<!-- Generator: Adobe Illustrator 15.0.0, SVG Export Plug-In . SVG Version: 6.00 Build 0)  -->
<!DOCTYPE svg PUBLIC "-//W3C//DTD SVG 1.1//EN" "http://www.w3.org/Graphics/SVG/1.1/DTD/svg11.dtd">
<svg version="1.1" id="Layer_1" xmlns="http://www.w3.org/2000/svg" xmlns:xlink="http://www.w3.org/1999/xlink" x="0px" y="0px"
	 width="64px" height="64px" viewBox="0 0 64 64" enable-background="new 0 0 64 64" xml:space="preserve">
<ellipse fill="#F9B700" cx="31.999" cy="29.795" rx="19.95" ry="2.101"/>
<path fill="#CC9200" d="M14.477,30.797c3.385,0.652,9.962,1.099,17.523,1.099c7.561,0,14.137-0.446,17.523-1.099
	c-3.387-0.648-9.963-1.094-17.523-1.094C24.438,29.703,17.861,30.148,14.477,30.797z"/>
<path fill="#E81C27" d="M47.346,19.242H16.675c0,0,5.55,4.192,5.55,8.608c0,4.421-5.55,8.61-5.55,8.61h30.671
	c0,0-5.227-3.228-5.227-8.61C42.119,22.473,47.346,19.242,47.346,19.242z"/>
<path fill="#F59E01" d="M44.277,19.242H19.266c0,0,4.096,4.256,4.096,8.608c0,4.355-4.096,8.61-4.096,8.61h25.012
	c0,0-3.828-3.306-3.828-8.61C40.449,22.55,44.277,19.242,44.277,19.242z"/>
<path fill="#FFE12C" d="M40.457,19.242h-17.37c0,0,3.299,4.323,3.299,8.608c0,4.286-3.299,8.61-3.299,8.61h17.37
	c0,0-3.115-3.046-3.115-8.61C37.342,22.291,40.457,19.242,40.457,19.242z"/>
<path fill="#F59E01" d="M29.075,21.829c1.554,1.177,2.261,7.895,1.487,10.188C29.742,34.459,27.523,20.654,29.075,21.829z"/>
<path fill="#F59E01" d="M34.58,20.271c1.297,1.975,0.631,11.938-0.6,15.168C32.675,38.885,33.283,18.298,34.58,20.271z"/>
<path fill="#FDCA47" d="M51.945,29.7h-0.041c0.014,0.03,0.045,0.063,0.045,0.095c0,1.159-8.932,2.101-19.949,2.101
	s-19.951-0.941-19.951-2.101c0-0.032,0.032-0.062,0.045-0.092h-0.04c-1.576,3.033-2.464,6.475-2.464,10.119
	C9.589,52.07,19.623,62,32,62s22.412-9.93,22.412-22.178C54.412,36.178,53.521,32.732,51.945,29.7z"/>
<path fill="#F9B700" d="M50.701,29.7c0.949,2.456,1.469,5.118,1.469,7.905c0,12.246-10.035,22.178-22.41,22.178
	c-5.619,0-10.748-2.053-14.683-5.432C19.186,59.035,25.243,62,32,62c12.377,0,22.412-9.93,22.412-22.178
	c0-3.648-0.893-7.09-2.471-10.122H50.701z"/>
<path fill="#302C3B" d="M26.826,36.904c0,1.879-1.508,3.408-3.414,3.408c-1.822,0-3.403-1.529-3.403-3.408
	c0-1.883,1.581-3.409,3.403-3.409C25.318,33.495,26.826,35.021,26.826,36.904z"/>
<path fill="#302C3B" d="M43.996,36.904c0,1.879-1.521,3.408-3.367,3.408c-1.926,0-3.449-1.529-3.449-3.408
	c0-1.883,1.523-3.409,3.449-3.409C42.475,33.495,43.996,35.021,43.996,36.904z"/>
<path fill="#E6EBEF" d="M47.736,7.344c-3.701-4.7-9.564-2.774-12.705-1.197c-3.324-4.264-15.716-4.264-19.058-0.016
	c-2.154-0.609-6.154,0.529-4.708,4.191c-9.695,5.063-1.233,10.824,2.036,10.664c0.686,4.896,12.729,5.022,13.816,0.411
	c6.85-0.53,6.554,0.546,7.829,0.225c1.361,4.589,12.916,3.718,12.373-1.688C63.523,20.867,57.797,5.128,47.736,7.344z"/>
<path fill="#BEC3CF" d="M25.598,15.404c-0.559,2.615-6.049,3.013-8.072,0.993c-1.117,5.25-6.356,3.692-6.356,3.692
	c2.265,2.683,6.734,0.881,7.349-1.735c2.005,1.255,5.663,0.47,7.097-0.649c0.646,0.893,2.027,0.878,2.87,0.555
	C28.485,18.26,25.356,17.764,25.598,15.404z"/>
<path fill="#BEC3CF" d="M27.571,22.184c1.32,0.337,2.78,0.075,3.788-0.686c0.828,0.632,1.976,0.925,3.129,0.801
	c0.203,4.295,11.346,6.112,13.52-1.617c6.186,1.372,10.141-2.729,9.988-7.455c-0.146-4.513-4.797-8.028-10.027-6.52
	C47.326,5.099,41.66,1.495,35.23,5.396c-4.373-4.079-13.156-4.76-19.393-0.526c-4.656-0.339-6.055,2.49-5.414,5.056
	C3.296,12.008,5.3,21.423,12.733,21.573C13.719,27.397,25.782,27.041,27.571,22.184z M17.243,6.082
	c9.136-5.872,17.579,0.845,17.579,0.845s12.594-6.403,13.744,4.486c0,0,0.652-1.63,0.221-3.633c4.908-0.486,8.725,2.853,7.738,6.993
	c-1.6,6.72-9.951,4.354-9.951,4.354s-2.271,7.514-9.107,4.527c-1.783-0.775-2.037-2.753-2.037-2.753
	c-2.875,1.379-4.07-1.254-4.07-1.254c-1.568,2.571-4.691,0.874-4.691,0.874c-0.026-0.129-0.115,4.453-8.615,3.654
	c-3.837-0.358-4.155-3.803-4.155-3.803l-0.634,0.034c-6.972-0.045-8.325-8.212-1.843-9.515l0.752-0.151l-0.274-0.628
	c-1.243-3.503,4.26-4.31,6.749-1.614C18.297,6.734,17.243,6.082,17.243,6.082z"/>
<path fill="#BEC3CF" d="M44.645,12.703c1.082,1.246-0.207,4.373-2.109,4.535C46.811,16.876,46.252,13.947,44.645,12.703z"/>
<path fill-rule="evenodd" clip-rule="evenodd" fill="#FFFFFF" d="M7.938,14.816c0.185,1.118,2.619-1.067,5.084-2.949
	C14.615,10.657,7.381,11.456,7.938,14.816z"/>
<path fill-rule="evenodd" clip-rule="evenodd" fill="#FFFFFF" d="M36.09,20.797c0.086,0.737,0.5-1.785,4.656-3.432
	C42.146,16.812,35.5,15.659,36.09,20.797z"/>
<path fill-rule="evenodd" clip-rule="evenodd" fill="#FFFFFF" d="M34.117,11.456c0.115,1.005,0.678-2.428,6.336-4.669
	C42.361,6.03,33.311,4.461,34.117,11.456z"/>
<path fill-rule="evenodd" clip-rule="evenodd" fill="#FFFFFF" d="M26.296,15.713c0.156,1.355,0.915-3.276,8.552-6.304
	C37.422,8.388,25.207,6.271,26.296,15.713z"/>
<circle fill="#302C3B" cx="32" cy="52" r="6"/>
<path fill="#FFFFFF" d="M28,50c0.798-1.555,2.289-2.602,3.998-2.602c1.713,0,3.203,1.045,4.002,2.602H28z"/>
</svg>
