<?xml version="1.0" encoding="utf-8"?>
<!-- Generator: Adobe Illustrator 15.0.0, SVG Export Plug-In . SVG Version: 6.00 Build 0)  -->
<!DOCTYPE svg PUBLIC "-//W3C//DTD SVG 1.1//EN" "http://www.w3.org/Graphics/SVG/1.1/DTD/svg11.dtd">
<svg version="1.1" id="Layer_1" xmlns="http://www.w3.org/2000/svg" xmlns:xlink="http://www.w3.org/1999/xlink" x="0px" y="0px"
	 width="64px" height="64px" viewBox="0 0 64 64" enable-background="new 0 0 64 64" xml:space="preserve">
<path fill="#E81C27" d="M60.007,35.188c3.781-1.818,0.611-8.465-3.477-8.103c2.086-3.296-0.918-8.007-4.672-7.023
	c0.752-5.476-6.086-7.623-9.598-4.653C41.657,10.87,33.966,9.528,32,13.485c-1.967-3.957-9.658-2.615-10.26,1.924
	c-3.512-2.97-10.35-0.822-9.599,4.653c-3.754-0.983-6.757,3.728-4.672,7.023c-4.087-0.362-7.257,6.284-3.476,8.103
	c-5.41,3.762,1.013,10.935,9.469,8.207c4.514-1.455,32.563-1.455,37.076,0C58.993,46.123,65.417,38.95,60.007,35.188z"/>
<circle fill="#FFE8BB" cx="32" cy="39" r="23"/>
<path fill="#F5CFA0" d="M47.067,21.632C50.573,25.669,52.7,30.935,52.7,36.7c0,12.702-10.299,23-23,23
	c-5.767,0-11.032-2.127-15.069-5.632C18.849,58.926,25.063,62,32,62c12.703,0,23-10.298,23-23
	C54.999,32.064,51.925,25.85,47.067,21.632z"/>
<path fill-rule="evenodd" clip-rule="evenodd" fill="#FFFAF0" d="M12.387,30.184c-0.856,2.869,5.046-7.283,14.247-11.053
	C31.106,17.298,16.029,17.981,12.387,30.184z"/>
<path fill="#AB8A7B" d="M25.654,25.32c-3.257-0.886-6.744-0.27-9.503,1.676c-0.383,0.277-1.469-1.093-1.006-1.429
	c3.184-2.244,7.206-2.955,10.967-1.934C26.661,23.791,26.107,25.449,25.654,25.32z"/>
<path fill="#AB8A7B" d="M47.849,26.995c-2.76-1.943-6.246-2.56-9.506-1.676c-0.451,0.133-1.006-1.529-0.455-1.686
	c3.758-1.02,7.781-0.311,10.967,1.934C49.317,25.902,48.229,27.272,47.849,26.995z"/>
<ellipse fill="#018BC9" cx="20.946" cy="33.46" rx="3.5" ry="4.5"/>
<ellipse fill="#018BC9" cx="43.054" cy="33.46" rx="3.5" ry="4.5"/>
<ellipse fill="#FFFFFF" cx="19.12" cy="31.428" rx="0.777" ry="1"/>
<ellipse fill="#FFFFFF" cx="41.227" cy="31.428" rx="0.778" ry="1"/>
<ellipse fill="#E81C27" cx="32" cy="41.776" rx="6.44" ry="5.52"/>
<path fill="#B00505" d="M30.314,45.379c3.554,0,6.439-2.47,6.439-5.521c0-0.815-0.211-1.586-0.582-2.283
	c1.387,1.012,2.27,2.517,2.27,4.199c0,3.051-2.887,5.521-6.441,5.521c-2.604,0-4.842-1.328-5.856-3.235
	C27.267,44.882,28.722,45.379,30.314,45.379z"/>
<ellipse fill="#F89987" cx="29.904" cy="38.96" rx="1.609" ry="1.577"/>
<ellipse transform="matrix(-0.9659 0.2588 -0.2588 -0.9659 50.8102 28.5716)" fill="#006DAE" cx="23.524" cy="17.63" rx="16.68" ry="6.11"/>
<path fill="#014D87" d="M28.623,18.209l2.254-7.878c4.748-0.148,8.199,0.894,8.759,2.982c0.656,2.449-2.67,5.561-8.23,8.008
	C31.406,21.321,30.703,19.942,28.623,18.209z"/>
<path fill="#018BC9" d="M13.396,18.504c1.417,5.285,20.751,0.104,19.333-5.18c-1.414-5.284-6.889-8.408-12.228-6.978
	S11.981,13.221,13.396,18.504z"/>
<path fill="#006DAE" d="M23.683,6.019c4.184,0.235,7.917,3.077,9.051,7.306c0.31,1.169-0.393,2.335-1.693,3.382
	C30.244,11.792,27.603,7.79,23.683,6.019z"/>
<path fill="#FFE12C" d="M32.175,11.779c0.225,0.492,0.412,1.007,0.555,1.545c1.417,5.284-17.917,10.465-19.333,5.18
	c-0.143-0.537-0.237-1.078-0.288-1.615C15.875,20.764,31.716,16.519,32.175,11.779z"/>
<path fill="#F9B700" d="M30.494,14.335c0.973-0.802,1.594-1.67,1.682-2.556c0.225,0.492,0.412,1.007,0.555,1.545
	c0.314,1.169-0.252,2.996-4.107,4.885C28.623,18.209,30.572,16.054,30.494,14.335z"/>
<path fill="#529320" d="M13.149,19.243c-0.442,0-1.118-0.15-1.86-0.85c-1.604-1.513-2.77-4.799-3.464-9.766L8.69,8.343
	c0.793,5.676,2.086,7.955,3.032,8.868c0.947,0.915,1.703,0.648,1.736,0.637l0.22,1.312C13.66,19.167,13.464,19.243,13.149,19.243z"
	/>
<path fill="#FFE12C" d="M11.46,5.788c-1.045,1.045-3.191,1.784-3.539,1.438s0.392-2.494,1.437-3.539
	C10.831,2.214,12.933,4.315,11.46,5.788z"/>
<path fill="#FFE12C" d="M3.687,9.358c1.045-1.045,3.192-1.785,3.54-1.438c0.347,0.347-0.394,2.494-1.439,3.539
	C4.315,12.933,2.214,10.831,3.687,9.358z"/>
<path fill="#FFE12C" d="M9.357,11.46C8.313,10.415,7.573,8.268,7.92,7.921c0.348-0.348,2.495,0.393,3.54,1.438
	C12.933,10.831,10.831,12.933,9.357,11.46z"/>
<path fill="#FFE12C" d="M5.787,3.687c1.046,1.045,1.786,3.192,1.438,3.54C6.879,7.573,4.731,6.833,3.687,5.788
	C2.214,4.315,4.315,2.214,5.787,3.687z"/>
<path fill="#FEEC9A" d="M11.583,9.06c-1.477,0-3.519-0.995-3.519-1.486s2.042-1.486,3.519-1.486
	C13.666,6.087,13.666,9.06,11.583,9.06z"/>
<path fill="#FEEC9A" d="M3.563,6.087c1.478,0,3.52,0.995,3.52,1.486S5.04,9.06,3.563,9.06C1.479,9.06,1.479,6.087,3.563,6.087z"/>
<path fill="#FEEC9A" d="M6.088,11.584c0-1.478,0.994-3.52,1.484-3.52c0.492,0,1.486,2.042,1.486,3.52
	C9.059,13.667,6.088,13.667,6.088,11.584z"/>
<path fill="#FEEC9A" d="M9.059,3.563c0,1.478-0.994,3.52-1.486,3.52c-0.49,0-1.484-2.042-1.484-3.52
	C6.088,1.479,9.059,1.479,9.059,3.563z"/>
<circle fill="#EA8800" cx="7.573" cy="7.573" r="2.046"/>
<path fill="#92C932" d="M11.283,21.357c2.283-0.638,2.521-2.139,2.521-2.139s-1.073-1.489-3.355-0.851
	c-1.572,0.439-3.709,2.648-3.709,2.648S9.712,21.798,11.283,21.357z"/>
<path fill="#92C932" d="M14.33,16.489c0.467,1.974-0.557,2.773-0.557,2.773s-1.557-0.188-2.025-2.16
	c-0.322-1.357,0.444-3.871,0.444-3.871S14.008,15.13,14.33,16.489z"/>
<path fill="#FFFFFF" d="M19.881,46.241c0.423,0,0.835,0.215,1.069,0.602c1.801,2.968,5.647,6.139,11.047,6.139
	c5.398,0,9.246-3.171,11.048-6.139c0.234-0.387,0.648-0.6,1.07-0.6c0.221,0,0.445,0.058,0.646,0.18
	c0.59,0.359,0.777,1.127,0.42,1.718c-2.156,3.549-6.75,7.341-13.185,7.341c-6.437,0-11.032-3.793-13.184-7.342
	c-0.358-0.59-0.17-1.358,0.42-1.717C19.437,46.3,19.66,46.241,19.881,46.241 M19.881,43.241c-0.775,0-1.537,0.213-2.202,0.615
	c-2.005,1.219-2.646,3.838-1.43,5.841c2.575,4.245,8.065,8.784,15.749,8.784c7.679,0,13.169-4.537,15.75-8.783
	c0.588-0.971,0.766-2.113,0.496-3.215c-0.27-1.104-0.953-2.035-1.926-2.625c-0.662-0.402-1.424-0.615-2.201-0.615
	c-1.475,0-2.867,0.781-3.633,2.039c-1.381,2.273-4.332,4.699-8.486,4.699c-4.154,0-7.105-2.426-8.483-4.695
	C22.752,44.026,21.358,43.241,19.881,43.241L19.881,43.241z"/>
<g>
	<path fill="#302C3B" d="M32,55.481c-6.437,0-11.032-3.793-13.184-7.342c-0.358-0.59-0.17-1.358,0.42-1.717
		c0.591-0.357,1.359-0.17,1.717,0.42C22.753,49.811,26.6,52.981,32,52.981c5.398,0,9.246-3.171,11.048-6.139
		c0.359-0.59,1.131-0.775,1.717-0.42c0.59,0.359,0.777,1.127,0.42,1.718C43.028,51.689,38.435,55.481,32,55.481z"/>
</g>
</svg>
