<?xml version="1.0" encoding="utf-8"?>
<!-- Generator: Adobe Illustrator 15.0.0, SVG Export Plug-In . SVG Version: 6.00 Build 0)  -->
<!DOCTYPE svg PUBLIC "-//W3C//DTD SVG 1.1//EN" "http://www.w3.org/Graphics/SVG/1.1/DTD/svg11.dtd">
<svg version="1.1" id="Layer_1" xmlns="http://www.w3.org/2000/svg" xmlns:xlink="http://www.w3.org/1999/xlink" x="0px" y="0px"
	 width="64px" height="64px" viewBox="0 0 64 64" enable-background="new 0 0 64 64" xml:space="preserve">
<rect x="23.334" y="44.857" fill="#E6A400" width="17.332" height="15"/>
<path fill="#018BC9" d="M40.666,51.285c0,0.002-2.566,6.16-8.668,6.162c-6.096,0.002-8.664-6.15-8.664-6.148
	C10.314,51.619,6,53.279,6,62h52C58,53.279,53.68,51.607,40.666,51.285z"/>
<path fill="#EA8800" d="M31.999,2c-20.77,0-20.775,12.5-20.775,28.125h41.551C52.774,14.5,52.769,2,31.999,2z"/>
<path fill="#F5BC2C" d="M15.349,36.201c2.25-2.096,0.208-10.313-2.694-10.809C6.454,24.336,10.493,40.721,15.349,36.201z"/>
<path fill="#F5BC2C" d="M48.65,36.201c-2.251-2.096-0.208-10.313,2.693-10.809C57.543,24.336,53.506,40.719,48.65,36.201z"/>
<path fill="#FDCA47" d="M32,10.334c-21.7,0-12.956,2.514-18.75,15.26c0,0,0.042,5.846,1.255,12.116C16.069,45.794,25.166,52,32,52
	s15.931-6.206,17.494-14.29c1.215-6.271,1.256-12.116,1.256-12.116C44.957,12.848,53.699,10.334,32,10.334z"/>
<path fill="#EA8800" d="M48.591,8.421c7.739,10.613-28.184,7.843-35.655,6.294C12.936,14.716,23.909-0.251,48.591,8.421z"/>
<path fill="#D67C00" d="M12.936,14.716c10.73,2.258,43.541,1.946,33.215-9.247C62.986,18.901,22.021,20.099,12.936,14.716z"/>
<path fill="#E6A400" d="M27.775,37.709c1.379,3.328,7.064,3.359,8.449,0H27.775z"/>
<path fill="#45332C" d="M34.818,28.969c3.035,5.668,9.146,5.664,12.182,0c0.15-0.283-0.244-0.412-0.727-0.736
	c-3.043,2.365-7.967,2.146-10.729,0.002C35.064,28.557,34.67,28.686,34.818,28.969z"/>
<path fill="#45332C" d="M16.998,28.969c3.037,5.668,9.146,5.664,12.184,0c0.148-0.283-0.246-0.412-0.729-0.736
	c-3.041,2.365-7.965,2.146-10.727,0.002C17.244,28.557,16.85,28.686,16.998,28.969z"/>
<path fill="#45332C" d="M35.469,46.803c0,3.039-6.938,3.039-6.938,0C28.531,42.623,35.469,42.623,35.469,46.803z"/>
<path opacity="0.3" d="M45.205,21.691c-3.066,1.267-3.754,4.86-6.164,5.698c0,0-5.725-14.055-6.283-11.994
	c0.443,4,0.912,8.156,0.912,8.156s-4.775-9.172-6.462-8.089c0.815,4.427,1.837,10.995,1.837,10.995s-4.856-9.603-5.955-8.125
	c0.894,3.918,2.486,10.938,2.486,10.938s-4.681-7.636-5.871-6.331c3.83,11.675,5.278,15.642,8.826,18.361
	c0.25,0.191,0.814,1.626,0.814,1.626c-3.356,1.769-1.093,3.447,4.48,19.072L55.326,62C44.139,39.739,35.469,52.927,45.205,21.691z"
	/>
<path fill="#FFD870" d="M46.143,48.075c0,0-2.81-5.94-3.435-9.635c0.819-1.315,1.852-3.38,1.998-5.216
	c0.151-1.922,1.196-3.653,1.972-5.662c0.939-2.417,3.131-4.798,1.752-6.144c-1.256-1.23-3.685-0.365-5.281,3.146
	c-0.947,2.093-1.215,2.913-2.361,3.462c0,0-2.84-6.986-4.396-13.1c-0.68-2.665-4.39-1.703-3.568,0.708
	c1.906,5.594,2.803,10.25,2.803,10.25S33.124,20.14,31.26,15.01c-0.899-2.477-5.122-1.602-3.815,1.302
	c2.534,5.636,3.884,10.66,3.884,10.66s-2.817-4.774-4.536-9.056c-1.191-2.966-4.569-1.219-3.578,0.905
	c2.641,5.658,4.536,10.564,4.536,10.564s-1.777-2.531-4.833-7.906c-1.385-2.435-4.419-0.758-3.344,1.219
	c6.25,11.5,6.906,15.063,10.454,17.781c1.518,1.163,2.555,7.597,2.555,7.597H46.143z"/>
<path fill="#018BC9" d="M30.121,45.083c-1.433-3.646,13.9-5.399,14.798-3.132C47.333,48.053,50.375,55.677,54,62H37.25
	C37.25,62,34.309,55.73,30.121,45.083z"/>
</svg>
