<?xml version="1.0" encoding="utf-8"?>
<!-- Generator: Adobe Illustrator 15.0.0, SVG Export Plug-In . SVG Version: 6.00 Build 0)  -->
<!DOCTYPE svg PUBLIC "-//W3C//DTD SVG 1.1//EN" "http://www.w3.org/Graphics/SVG/1.1/DTD/svg11.dtd">
<svg version="1.1" id="Layer_1" xmlns="http://www.w3.org/2000/svg" xmlns:xlink="http://www.w3.org/1999/xlink" x="0px" y="0px"
	 width="64px" height="64px" viewBox="0 0 64 64" enable-background="new 0 0 64 64" xml:space="preserve">
<circle fill="#FF4D4D" cx="32" cy="32" r="30"/>
<path fill="#E03636" d="M51.654,9.346C56.227,14.611,59,21.48,59,29c0,16.568-13.432,30-30,30c-7.521,0-14.39-2.773-19.655-7.346
	C14.846,57.99,22.953,62,32,62c16.569,0,30-13.432,30-30C62,22.953,57.989,14.848,51.654,9.346z"/>
<path fill-rule="evenodd" clip-rule="evenodd" fill="#F89987" d="M6.418,20.5C5.302,24.242,13,11,25,6.084
	C30.834,3.693,11.168,4.584,6.418,20.5z"/>
<path fill="#FFFFFF" d="M10.166,22.935c-1.548,4.728,0.646,9.975,5.27,12.128c4.616,2.154,10.04,0.467,12.668-3.746l-6.895-7.721
	L10.166,22.935z"/>
<path fill="#1A1626" d="M14.24,23.775c-1.361,2.916-0.1,6.381,2.815,7.742c2.918,1.359,6.383,0.098,7.744-2.818
	C25.661,26.848,15.104,21.924,14.24,23.775z"/>
<g>
	<path fill="#1A1626" d="M10.166,22.936c1.586-1.035,3.473-1.463,5.387-1.455c1.92,0.018,3.84,0.469,5.59,1.279
		c1.744,0.801,3.346,1.98,4.596,3.441c1.24,1.461,2.162,3.23,2.365,5.115c-1.33-1.33-2.605-2.43-3.971-3.387
		c-1.359-0.959-2.766-1.758-4.25-2.449c-1.477-0.684-3.012-1.244-4.622-1.666C13.646,23.383,12.037,23.117,10.166,22.936z"/>
</g>
<path fill="#FFFFFF" d="M53.834,22.935c1.547,4.728-0.646,9.975-5.269,12.128c-4.616,2.154-10.04,0.467-12.669-3.746l6.895-7.721
	L53.834,22.935z"/>
<path fill="#1A1626" d="M49.76,23.775c1.361,2.916,0.1,6.381-2.814,7.742c-2.918,1.359-6.383,0.098-7.744-2.818
	C38.34,26.848,48.897,21.924,49.76,23.775z"/>
<g>
	<path fill="#1A1626" d="M53.834,22.936c-1.586-1.035-3.473-1.463-5.385-1.455c-1.922,0.018-3.842,0.469-5.592,1.279
		c-1.744,0.801-3.346,1.98-4.596,3.441c-1.24,1.461-2.161,3.23-2.365,5.115c1.33-1.33,2.605-2.43,3.971-3.387
		c1.359-0.959,2.766-1.758,4.25-2.449c1.477-0.684,3.013-1.244,4.622-1.666C50.354,23.383,51.963,23.117,53.834,22.936z"/>
</g>
<path fill="#B00505" d="M51.152,55.092l-33.708,3.142C9.8,54.361,6.024,46.292,6.024,46.292l51.601-6.8
	c1.1-0.1,2.373,0.608,2.485,3.01C60.11,42.502,57.957,49.715,51.152,55.092z"/>
<path fill="#302C3B" d="M58.959,49.432c0.121,1.376-0.967,2.598-2.426,2.729L8.911,56.326c-1.462,0.125-2.743-0.885-2.865-2.266
	L5.041,42.566c-0.119-1.376,0.966-2.599,2.428-2.723l47.621-4.17c1.461-0.129,2.744,0.888,2.863,2.264L58.959,49.432z"/>
<path fill="#FFFFFF" d="M9.956,52.641l0.178-2.714l-1.301,0.114l-0.12-1.378l1.539-0.134l0.106-1.713l-1.333,0.114l-0.12-1.376
	l1.555-0.135l0.185-2.64l1.396-0.123l-0.17,2.638l1.46-0.127l0.169-2.637l1.411-0.124l-0.168,2.637l1.27-0.11l0.121,1.376
	l-1.508,0.132l-0.091,1.713l1.302-0.113l0.121,1.376l-1.556,0.136l-0.161,2.713l-1.428,0.126l0.178-2.715l-1.443,0.126l-0.162,2.713
	L9.956,52.641z M13.124,48.277l0.09-1.712l-1.444,0.126l-0.106,1.714L13.124,48.277z"/>
<path fill="#FFFFFF" d="M22.69,44.47c0.178,2.036-1.09,3.233-2.582,3.363c-1.571,0.138-2.905-0.862-3.066-2.702
	c-0.153-1.735,0.859-3.151,2.635-3.308C21.438,41.67,22.545,42.811,22.69,44.47z M18.83,44.93c0.072,1.019,0.517,1.718,1.215,1.656
	c0.683-0.059,0.959-0.746,0.861-1.854c-0.086-0.986-0.439-1.725-1.201-1.659C18.993,43.137,18.744,43.939,18.83,44.93z
	 M20.573,51.878l5.055-10.561l1.285-0.112l-5.039,10.56L20.573,51.878z M30.469,47.86c0.176,2.021-1.093,3.219-2.585,3.349
	c-1.554,0.137-2.888-0.863-3.048-2.689c-0.151-1.733,0.86-3.151,2.62-3.306C29.216,45.061,30.323,46.201,30.469,47.86z
	 M26.623,48.301c0.073,1.022,0.518,1.722,1.201,1.661c0.681-0.06,0.957-0.746,0.861-1.841c-0.086-0.986-0.438-1.725-1.185-1.657
	C26.787,46.525,26.538,47.33,26.623,48.301z"/>
<path fill="#FFFFFF" d="M39.932,51.045c-0.916,0.487-1.73,0.693-2.871,0.794c-2.635,0.23-5.107-1.349-5.364-4.279
	c-0.267-3.056,1.866-5.911,5.436-6.223c2.808-0.246,4.964,1.39,5.186,3.906c0.191,2.197-0.988,3.688-2.702,3.839
	c-0.745,0.064-1.316-0.262-1.465-1.035l-0.031,0.004c-0.441,0.792-1.105,1.258-1.961,1.333c-1.018,0.088-1.842-0.579-1.949-1.804
	c-0.161-1.84,1.139-3.615,3.424-3.813c0.697-0.063,1.504,0.035,1.918,0.192l-0.231,2.827c-0.081,0.896,0.064,1.291,0.511,1.267
	c0.684-0.03,1.469-0.928,1.316-2.662c-0.172-1.961-1.635-3.342-4.094-3.125c-2.443,0.213-4.397,2.178-4.146,5.05
	c0.22,2.515,2.025,3.774,4.389,3.566c0.81-0.07,1.667-0.311,2.274-0.665L39.932,51.045z M37.979,44.987
	c-0.129-0.02-0.307-0.034-0.497-0.018c-1.046,0.093-1.786,1.137-1.687,2.289c0.051,0.567,0.352,0.906,0.875,0.86
	c0.588-0.053,1.145-0.809,1.211-1.69L37.979,44.987z"/>
<path fill="#FFFFFF" d="M47.086,50.705l-0.125-1.423c-1.065,0.05-2.123-0.145-2.752-0.406l0.322-1.792
	c0.696,0.286,1.66,0.518,2.69,0.428c0.921-0.08,1.509-0.479,1.458-1.063c-0.049-0.569-0.588-0.885-1.811-1.154
	c-1.746-0.389-2.969-1.036-3.096-2.488c-0.117-1.33,0.776-2.449,2.447-2.898l-0.123-1.42l1.555-0.136l0.115,1.315
	c1.05-0.063,1.783,0.102,2.359,0.291l-0.328,1.733c-0.412-0.146-1.188-0.424-2.331-0.323c-1.031,0.09-1.326,0.554-1.29,0.973
	c0.042,0.477,0.626,0.756,2.031,1.103c1.943,0.465,2.762,1.221,2.88,2.583c0.117,1.332-0.768,2.555-2.567,2.999l0.135,1.541
	L47.086,50.705z"/>
<path fill="#FFFFFF" d="M54.32,48.926c-0.824,0.073-1.447-0.461-1.514-1.239c-0.071-0.81,0.468-1.413,1.308-1.486
	c0.842-0.075,1.445,0.43,1.532,1.237c0.067,0.777-0.436,1.411-1.293,1.485L54.32,48.926z M53.145,45.529l-0.941-6.748l2.507-0.22
	l0.243,6.811L53.145,45.529z"/>
</svg>
