<?xml version="1.0" encoding="utf-8"?>
<!-- Generator: Adobe Illustrator 15.0.0, SVG Export Plug-In . SVG Version: 6.00 Build 0)  -->
<!DOCTYPE svg PUBLIC "-//W3C//DTD SVG 1.1//EN" "http://www.w3.org/Graphics/SVG/1.1/DTD/svg11.dtd">
<svg version="1.1" id="Layer_1" xmlns="http://www.w3.org/2000/svg" xmlns:xlink="http://www.w3.org/1999/xlink" x="0px" y="0px"
	 width="64px" height="64px" viewBox="0 0 64 64" enable-background="new 0 0 64 64" xml:space="preserve">
<circle fill="#FDCA47" cx="32" cy="32" r="30"/>
<path fill="#F9B700" d="M51.654,9.346C56.227,14.609,59,21.479,59,29c0,16.568-13.432,30-30,30c-7.52,0-14.389-2.773-19.654-7.346
	C14.846,57.988,22.953,62,32,62c16.568,0,30-13.432,30-30C62,22.951,57.988,14.846,51.654,9.346z"/>
<path fill-rule="evenodd" clip-rule="evenodd" fill="#FFE8BB" d="M6.418,20.5C5.303,24.24,13,11,25,6.082
	C30.834,3.693,11.168,4.582,6.418,20.5z"/>
<path fill="#302C3B" d="M48,42.348c0-0.752-0.447-1.691-1.717-1.934c-3.26-0.621-8.076-1.258-14.283-1.258l0,0l0,0h-0.002l0,0
	c-6.207,0-11.025,0.637-14.283,1.258C16.445,40.656,16,41.596,16,42.348C16,49.15,21.281,56,31.998,56l0,0H32l0,0l0,0
	C42.719,56,48,49.15,48,42.348z"/>
<path fill="#1A1626" d="M33.553,45.893c-0.488-0.008-1.238,0.385-0.965,1.422c0.137,0.523,1.004,1.158,1.004,2.006
	c0,1.723-3.186,1.723-3.186,0c0-0.848,0.863-1.482,1.004-2.006c0.275-1.037-0.477-1.43-0.965-1.422
	c-1.324,0.033-3.5,1.262-3.5,3.346c0,2.338,2.264,4.234,5.055,4.234c2.789,0,5.051-1.896,5.051-4.234
	C37.051,47.154,34.877,45.926,33.553,45.893z"/>
<path fill="#F46C60" d="M25.262,52.699c1.949,0.885,4.193,1.406,6.738,1.406c2.543,0,4.787-0.521,6.736-1.406
	c-1.879-0.959-4.115-1.543-6.736-1.543C29.377,51.156,27.143,51.74,25.262,52.699z"/>
<path fill="#FFFFFF" d="M44.213,42.83C42.102,42.527,37.631,42,31.998,42c-5.631,0-10.1,0.527-12.213,0.83
	c-1.244,0.176-1.32,0.605-1.234,1.215c0.053,0.359,0.133,0.801,0.254,1.27c0.137,0.52,0.246,0.66,1.219,0.67
	c1.871,0.021,22.082,0.021,23.953,0c0.973-0.01,1.078-0.15,1.219-0.67c0.119-0.469,0.201-0.91,0.252-1.27
	C45.535,43.436,45.457,43.006,44.213,42.83z"/>
<path fill="#E8A329" d="M29,25.667c0,5.523-4.494,9.999-10.031,9.999C13.43,35.666,9,31.19,9,25.667
	c0-5.521,4.43-10.001,9.969-10.001C24.506,15.666,29,20.146,29,25.667z"/>
<path fill="#FFFFFF" d="M27.5,25.666c0,4.694-3.82,8.5-8.526,8.5c-4.709,0-8.474-3.806-8.474-8.5c0-4.693,3.765-8.5,8.474-8.5
	C23.68,17.166,27.5,20.973,27.5,25.666z"/>
<circle fill="#302C3B" cx="19" cy="25.666" r="3"/>
<path fill="#E8A329" d="M55,23.668c0,6.627-5.393,11.998-12.037,11.998C36.315,35.666,31,30.295,31,23.668
	c0-6.626,5.315-12.002,11.963-12.002C49.607,11.666,55,17.042,55,23.668z"/>
<path fill="#FFFFFF" d="M53.5,23.667c0,5.8-4.719,10.499-10.532,10.499c-5.817,0-10.468-4.699-10.468-10.499
	c0-5.799,4.65-10.501,10.468-10.501C48.781,13.166,53.5,17.868,53.5,23.667z"/>
<path fill="#302C3B" d="M43.002,18.666c2.762,0,4.998,2.237,4.998,4.999c0,2.761-2.236,5.001-4.998,5.001
	c-2.764,0-5.002-2.24-5.002-5.001C38,20.903,40.238,18.666,43.002,18.666z"/>
</svg>
