<?xml version="1.0" encoding="utf-8"?>
<!-- Generator: Adobe Illustrator 15.0.0, SVG Export Plug-In . SVG Version: 6.00 Build 0)  -->
<!DOCTYPE svg PUBLIC "-//W3C//DTD SVG 1.1//EN" "http://www.w3.org/Graphics/SVG/1.1/DTD/svg11.dtd">
<svg version="1.1" id="Layer_1" xmlns="http://www.w3.org/2000/svg" xmlns:xlink="http://www.w3.org/1999/xlink" x="0px" y="0px"
	 width="64px" height="64px" viewBox="0 0 64 64" enable-background="new 0 0 64 64" xml:space="preserve">
<circle fill="#FDCA47" cx="32" cy="29.999" r="27.999"/>
<path fill="#F9B700" d="M50.344,8.857C54.61,13.771,57.2,20.182,57.2,27.201c0,15.464-12.536,27.997-28,27.997
	c-7.02,0-13.431-2.586-18.344-6.855c5.133,5.914,12.699,9.654,21.144,9.654c15.464,0,28-12.533,28-27.997
	C60,21.557,56.256,13.99,50.344,8.857z"/>
<path fill-rule="evenodd" clip-rule="evenodd" fill="#FFE8BB" d="M8.123,19.266c-1.041,3.494,6.144-8.864,17.344-13.452
	C30.912,3.582,12.557,4.412,8.123,19.266z"/>
<path fill="#302C3B" d="M28.757,28.102c-1.735-4.771-4.35-7.158-6.963-7.158c-2.614,0-5.229,2.387-6.963,7.158
	c-0.172,0.48,0.723,1.348,1.17,0.877c1.682-1.775,3.693-2.48,5.793-2.48s4.111,0.705,5.793,2.48
	C28.033,29.449,28.929,28.582,28.757,28.102z"/>
<path fill="#302C3B" d="M49.168,28.102c-1.735-4.771-4.35-7.158-6.963-7.158c-2.614,0-5.229,2.387-6.964,7.158
	c-0.172,0.48,0.724,1.348,1.17,0.877c1.683-1.775,3.693-2.48,5.794-2.48c2.1,0,4.11,0.705,5.793,2.48
	C48.444,29.449,49.34,28.582,49.168,28.102z"/>
<path fill="#CC9200" d="M37.979,57.356c-0.234-3.855,13.951-11.674,6.833-16.447C31.445,50.399,20.712,61.159,37.979,57.356z"/>
<path fill="#FFFFFF" d="M36.771,33.429c-1.486-5.444-5.938-1.645-13.224,8.203c0,0-2.031-6.791-6.18-6.063
	c-1.781,0.313,2.266,3.354-1.159,13.76c-3.132,9.502,8.9,15.633,16.896,9.143c5.584-4.535,10.111-10.006,12.204-12.441
	c3.649-4.246-0.343-4.955-1.733-4.361c1.965-4.365-1.711-4.822-2.534-4.23C42.935,34.487,40.802,31.471,36.771,33.429z"/>
<path fill="#99A8AE" d="M37.321,32.87c0.676-3.092-3.604-3.909-6.068-1.649c-2.648,2.431-7.547,8.563-7.547,8.563
	s-1.546-5.744-6.229-5.107c-3.616,0.492,1.027,6.148-1.409,12.098c-1.761,4.305-1.91,8.111,0.71,11.088
	c2.85,3.24,8.03,4.881,12.047,3.813c4.587-1.219,12.004-9.014,17.57-15.328c2.403-2.727,0.208-5.672-1.583-5.438
	c1.237-2.721-0.747-4.908-2.429-4.424C44.183,32.663,39.771,30.552,37.321,32.87z M40.396,36.722
	c-2.172,2.295-7.541,8.748-7.541,8.748s4.666-4.342,7.431-6.816c1.9-1.701,5.06,0.02,2.194,3.066
	c-2.038,2.168-6.625,6.793-6.625,6.793s4.444-3.605,6.875-5.666c1.916-1.625,4.227,0.604,2.479,2.531
	c-6.125,6.75-12.484,13.592-16.485,14.66c-5.759,1.529-15.468-2.969-11.148-12.689c2.642-5.951-1.839-11.838,1.075-11.258
	c3.532,0.705,4.341,6.973,4.341,6.973s5.517-7.238,9.697-10.926c1.608-1.418,4.052-0.135,2.741,1.709
	c-2.16,3.035-6.242,8.5-6.242,8.5s4.303-4.375,7.459-7.531C39.7,31.762,42.583,34.409,40.396,36.722z"/>
<path fill="#917524" d="M52.511,17.873c-3.817-2.938-9.469-4.419-12.65-3.518c-0.671,0.19-1.07,2.681-0.49,2.595
	c4.455-0.666,9.324,0.12,13.02,2.604C52.886,19.889,53.084,18.314,52.511,17.873z"/>
<path fill="#917524" d="M11.488,17.876c3.816-2.941,9.467-4.422,12.649-3.52c0.671,0.189,1.07,2.682,0.49,2.594
	c-4.455-0.664-9.324,0.12-13.02,2.604C11.112,19.891,10.914,18.315,11.488,17.876z"/>
</svg>
