<?xml version="1.0" encoding="utf-8"?>
<!-- Generator: Adobe Illustrator 15.0.0, SVG Export Plug-In . SVG Version: 6.00 Build 0)  -->
<!DOCTYPE svg PUBLIC "-//W3C//DTD SVG 1.1//EN" "http://www.w3.org/Graphics/SVG/1.1/DTD/svg11.dtd">
<svg version="1.1" id="Layer_1" xmlns="http://www.w3.org/2000/svg" xmlns:xlink="http://www.w3.org/1999/xlink" x="0px" y="0px"
	 width="64px" height="64px" viewBox="0 0 64 64" enable-background="new 0 0 64 64" xml:space="preserve">
<circle fill="#FDCA47" cx="32" cy="28" r="26"/>
<path fill="#F9B700" d="M49.033,8.364c3.963,4.564,6.367,10.518,6.367,17.035c0,14.358-11.641,26.001-26,26.001
	c-6.519,0-12.472-2.404-17.034-6.367C17.134,50.523,24.159,54,32,54c14.359,0,26-11.641,26-25.999
	C58,20.157,54.523,13.134,49.033,8.364z"/>
<path fill-rule="evenodd" clip-rule="evenodd" fill="#FFE8BB" d="M9.829,18.032c-0.968,3.242,5.705-8.234,16.104-12.494
	C30.989,3.466,13.946,4.237,9.829,18.032z"/>
<path fill="#302C3B" d="M21.601,18.166c2.207,0,3.999,2.463,3.999,5.499c0,3.039-1.792,5.501-3.999,5.501
	c-2.213,0-4.001-2.463-4.001-5.501C17.6,20.629,19.388,18.166,21.601,18.166z"/>
<ellipse fill="#302C3B" cx="42.4" cy="23.666" rx="3.999" ry="5.5"/>
<path fill="#302C3B" d="M38.066,36.408c0,4.002-10,4.002-10,0C28.066,32.411,38.066,32.411,38.066,36.408z"/>
<path fill="#CC9200" d="M36.717,49.912C37.547,48.295,38,27.006,38,27.006c3.998,1.531,3.191,8.082,2.686,11.531
	c3.75,0.25,7.531,4.031,8.594,8.891C49.279,47.428,39.52,57.748,36.717,49.912z"/>
<path fill="#FFFFFF" d="M47.242,49.277c-0.146-2.592-1.703-8.957-9.428-9.16c0.438-1.607,1.424-5.043,1.492-8.718
	c0.114-6.12-7.132-6.134-7.104-0.041c0.015,3.272-1.375,8.462-1.716,9.679c-13.554,8.58-1.702,23.633,4.563,19.785
	c6.027,0,5.176-5.789,13.861-6.287C52.963,54.488,51.23,47.609,47.242,49.277z"/>
<path fill="#99A8AE" d="M50.419,48.801c-0.829-0.639-1.823-0.854-2.847-0.645c-0.152-2.684-2.377-6.094-4.646-7.355
	c-1.1-0.611-2.581-1.078-4.222-1.334c0.453-1.666,1.131-4.705,1.202-8.51c0.118-6.336-7.938-6.359-7.908-0.051
	c0.015,3.389-1.24,8.053-1.594,9.313c-1.174,0.463-2.253,1.096-3.14,1.949c-4.003,3.85-3.761,11.213-2.058,14.84
	c1.293,2.646,3.634,4.373,6.594,4.857C32.357,61.957,32.92,62,33.482,62c2.719,0,5.414-1.035,7.189-2.834
	c3.082-3.123,6.229-3.918,8.627-4.26c1.316-0.188,2.248-0.971,2.557-2.143C52.217,51.389,51.613,49.723,50.419,48.801z
	 M33.632,30.906c0-4.074,4.772-4.086,4.64,0.051c-0.113,3.525-0.803,6.855-1.215,8.33c-1.582-0.1-3.236,0.002-4.805,0.361
	C32.769,37.66,33.632,33.895,33.632,30.906z M50.275,52.348c-0.139,0.529-0.545,0.846-1.209,0.939
	c-2.443,0.352-6.094,1.223-9.559,4.73c-1.754,1.777-4.746,2.674-7.443,2.234c-2.422-0.396-4.336-1.803-5.384-3.949
	c-1.526-3.252-1.612-9.756,1.717-12.957c1.848-1.777,4.726-2.477,7.491-2.477c2.424,0,4.762,0.537,6.242,1.361
	c2.248,1.248,4.287,5.195,3.697,6.963c-0.361,1.086-1.869,0.734-1.87,0.715c-0.021-0.365-0.073-0.684-0.146-1.014
	c-0.303-1.301-0.932-2.445-1.714-3.426c-0.788-0.979-1.745-1.795-2.806-2.395c0.947,0.766,1.728,1.705,2.306,2.734
	c0.574,1.027,0.997,2.156,1.018,3.264c0.079,4.336-2.475,2.637-2.475,2.637c-0.138-1.168-0.694-2.268-1.344-3.115
	c-1.34-1.688-3.115-2.822-4.968-3.641c1.555,1.293,3.064,2.65,4.051,4.275c0.492,0.801,0.826,1.676,0.875,2.525
	c0.134,2.367-3.059,5.127-4.244,2.158c-0.678-1.695-1.893-4.08-3.795-4.707c1.992,1.902,1.979,5.225,3.502,6.771
	c2.182,2.32,5.502-0.896,5.569-1.977c2.371,0.582,3.737-0.797,4.044-2.406c2.178,0.166,3.077-0.834,3.442-1.625
	c0.806-0.377,1.544-0.338,2.147,0.129C50.096,50.615,50.471,51.605,50.275,52.348z"/>
<path fill="#917524" d="M48.846,13.569c-3.621-2.787-8.981-4.192-12-3.337c-0.638,0.183-1.016,2.543-0.466,2.461
	c4.227-0.631,8.846,0.114,12.351,2.472C49.202,15.481,49.39,13.988,48.846,13.569z"/>
<path fill="#917524" d="M15.155,13.573c3.62-2.791,8.981-4.194,11.999-3.339c0.638,0.179,1.017,2.542,0.466,2.459
	c-4.227-0.629-8.846,0.114-12.35,2.472C14.8,15.484,14.611,13.989,15.155,13.573z"/>
</svg>
