<?xml version="1.0" encoding="utf-8"?>
<!-- Generator: Adobe Illustrator 15.0.0, SVG Export Plug-In . SVG Version: 6.00 Build 0)  -->
<!DOCTYPE svg PUBLIC "-//W3C//DTD SVG 1.1//EN" "http://www.w3.org/Graphics/SVG/1.1/DTD/svg11.dtd">
<svg version="1.1" id="Layer_1" xmlns="http://www.w3.org/2000/svg" xmlns:xlink="http://www.w3.org/1999/xlink" x="0px" y="0px"
	 width="64px" height="64px" viewBox="0 0 64 64" enable-background="new 0 0 64 64" xml:space="preserve">
<circle fill="#92C932" cx="32" cy="32" r="30"/>
<path fill="#7AB51D" d="M51.654,9.346C56.226,14.611,59,21.48,59,29c0,16.568-13.432,30-30,30c-7.521,0-14.39-2.773-19.654-7.346
	C14.846,57.99,22.951,62,32,62c16.568,0,30-13.432,30-30C62,22.953,57.988,14.848,51.654,9.346z"/>
<path fill-rule="evenodd" clip-rule="evenodd" fill="#A6E639" d="M6.418,20.5C5.301,24.242,13,11,25,6.084
	C30.834,3.693,11.168,4.584,6.418,20.5z"/>
<path fill="#302C3B" d="M37.393,46.743c-4.055-1.873-6.73-1.873-10.785,0.001c-0.668,0.323-1.678-3.631-1.678-3.631
	c5.119-2.366,9.021-2.366,14.141-0.001C39.07,43.112,38.063,47.068,37.393,46.743z"/>
<path fill="#529320" d="M22,35.962c1.338,2.521,2.137,5.628,2.137,9c0,3.375-0.799,6.481-2.137,9c2.758-1.192,4.76-4.771,4.76-9
	S24.758,37.157,22,35.962z"/>
<path fill="#529320" d="M42,53.962c-1.34-2.519-2.137-5.625-2.137-9c0-3.372,0.797-6.479,2.137-9c-2.76,1.195-4.76,4.771-4.76,9
	S39.24,52.77,42,53.962z"/>
<circle fill="#7AB51D" cx="50.811" cy="40" r="6"/>
<circle fill="#7AB51D" cx="13.189" cy="40" r="6"/>
<path fill="#302C3B" d="M20.001,20.5c2.482,0,4.5,2.91,4.5,6.5c0,3.593-2.018,6.5-4.5,6.5c-2.488,0-4.5-2.907-4.5-6.5
	C15.501,23.41,17.513,20.5,20.001,20.5z"/>
<path fill="#302C3B" d="M44.001,20.5c2.482,0,4.5,2.911,4.5,6.5c0,3.592-2.018,6.5-4.5,6.5c-2.488,0-4.5-2.908-4.5-6.5
	C39.501,23.411,41.513,20.5,44.001,20.5z"/>
<path fill="#529320" d="M14.454,17.751c5.243,0.237,11.211-1.973,13.488-4.765c0.478-0.591-0.721-3.061-1.184-2.622
	c-3.561,3.379-8.396,5.719-13.247,5.811C12.861,16.188,13.667,17.716,14.454,17.751z"/>
<path fill="#529320" d="M49.542,17.749c-5.242,0.238-11.209-1.971-13.486-4.764c-0.48-0.588,0.722-3.062,1.185-2.621
	c3.56,3.376,8.396,5.719,13.245,5.81C51.138,16.186,50.331,17.715,49.542,17.749z"/>
</svg>
