<?xml version="1.0" encoding="utf-8"?>
<!-- Generator: Adobe Illustrator 15.0.0, SVG Export Plug-In . SVG Version: 6.00 Build 0)  -->
<!DOCTYPE svg PUBLIC "-//W3C//DTD SVG 1.1//EN" "http://www.w3.org/Graphics/SVG/1.1/DTD/svg11.dtd">
<svg version="1.1" id="Layer_1" xmlns="http://www.w3.org/2000/svg" xmlns:xlink="http://www.w3.org/1999/xlink" x="0px" y="0px"
	 width="64px" height="64px" viewBox="0 0 64 64" enable-background="new 0 0 64 64" xml:space="preserve">
<path fill="#FDCA47" d="M10.495,10.491c11.33-11.322,29.695-11.321,41.023,0c11.327,11.322,11.326,29.676-0.001,40.996
	C40.189,62.812,21.823,62.812,10.496,51.49C-0.832,40.167-0.832,21.813,10.495,10.491z"/>
<path fill="#F9B700" d="M28.957,2.08c6.724,0.473,13.318,3.271,18.459,8.41c11.327,11.323,11.327,29.677-0.001,40.998
	c-5.142,5.139-11.733,7.938-18.458,8.411c8.091,0.569,16.375-2.229,22.561-8.412c11.327-11.32,11.328-29.674,0.001-40.996
	C45.332,4.309,37.048,1.511,28.957,2.08z"/>
<path fill-rule="evenodd" clip-rule="evenodd" fill="#FFE8BB" d="M5.654,40.612c1.794,3.318-1.995-10.988,2.848-22.548
	C10.856,12.445-1.98,26.493,5.654,40.612z"/>
<path fill="#E8A329" d="M28.838,59.877c0,0,0.722,0.108,1.867,0.094c2.261-1.384,2.336-5.267,1.389-7.872
	C32.094,52.099,27.931,49.033,28.838,59.877z"/>
<path fill="#E8A329" d="M59.904,28.68c0,0,0.12,0.788,0.107,1.936c-1.388,2.26-5.309,2.382-7.916,1.433
	C52.096,32.048,49.053,27.773,59.904,28.68z"/>
<path fill="#302C3B" d="M47.954,21.962c-0.609-0.609-1.734-1.011-2.962-0.176c-3.15,2.141-7.577,5.533-12.618,10.571l0,0l0,0h-0.002
	l0,0c-5.037,5.037-8.433,9.461-10.576,12.608c-0.834,1.229-0.432,2.354,0.178,2.963c5.523,5.52,15.37,6.79,24.071-1.904l0,0
	l0.002-0.001l0,0l0,0C54.75,37.325,53.478,27.482,47.954,21.962z"/>
<path fill="#1A1626" d="M39.104,36.563c-0.403,0.388-0.694,1.315,0.371,1.935c0.537,0.314,1.755,0.125,2.443,0.813
	c1.397,1.397-1.189,3.982-2.588,2.587c-0.688-0.688-0.5-1.905-0.811-2.443c-0.619-1.064-1.55-0.773-1.939-0.37
	c-1.049,1.103-1.815,3.863-0.127,5.552c1.9,1.9,5.277,1.604,7.543-0.662c2.262-2.264,2.562-5.639,0.661-7.538
	C42.97,34.748,40.206,35.513,39.104,36.563z"/>
<path fill="#F46C60" d="M37.899,48.812c2.301-0.862,4.545-2.264,6.609-4.325c2.066-2.067,3.467-4.31,4.33-6.607
	c-2.304,0.746-4.594,2.087-6.722,4.214C39.987,44.222,38.647,46.51,37.899,48.812z"/>
<path fill="#FFFFFF" d="M45.052,25.205c-1.974,1.457-6.054,4.634-10.627,9.203c-4.572,4.571-7.749,8.646-9.208,10.619
	c-0.86,1.162-0.553,1.59,0.037,2.04c0.351,0.267,0.791,0.578,1.292,0.878c0.557,0.335,0.762,0.363,1.561-0.415
	c1.537-1.501,17.947-17.901,19.447-19.438c0.783-0.797,0.752-1,0.418-1.558c-0.304-0.501-0.612-0.942-0.881-1.291
	C46.644,24.651,46.211,24.346,45.052,25.205z"/>
<path fill="#75D6FF" d="M18.198,38.807c-2.177,7.503-2.683,13.865-1.053,18.347c1.388,3.806,5.573,5.783,9.344,4.41
	c3.774-1.373,5.706-5.575,4.32-9.379C29.177,47.702,24.591,43.088,18.198,38.807z"/>
<path opacity="0.3" fill="#0FB4D4" d="M26.681,45.86c0.724,1.1,1.299,2.191,1.695,3.282c1.387,3.806-0.523,7.999-4.268,9.36
	c-2.39,0.871-4.94,0.367-6.841-1.093c1.483,3.632,5.538,5.493,9.222,4.153c3.774-1.373,5.706-5.575,4.32-9.379
	C30.047,50.089,28.617,47.966,26.681,45.86z"/>
<path opacity="0.5" fill="#FFFFFF" d="M18.843,51.958c-2.506,0.119-0.706-8.766-0.21-10.393
	C19.086,40.092,23.446,51.739,18.843,51.958z"/>
<path fill="#75D6FF" d="M38.809,18.162c4.349,6.484,8.897,10.959,13.376,12.588c3.806,1.385,8.008-0.547,9.379-4.313
	c1.373-3.769-0.604-7.946-4.409-9.33C52.673,15.478,46.195,16.022,38.809,18.162z"/>
<path opacity="0.3" fill="#0FB4D4" d="M49.659,16.204c1.309,0.151,2.514,0.413,3.604,0.811c3.805,1.384,5.791,5.538,4.429,9.277
	c-0.87,2.386-2.894,4.014-5.231,4.53c3.733,1.198,7.764-0.709,9.104-4.386c1.373-3.769-0.604-7.946-4.409-9.33
	C55.061,16.345,52.515,16.076,49.659,16.204z"/>
<path opacity="0.5" fill="#FFFFFF" d="M49.296,26.116c-1.518,1.993-7.167-5.09-8.095-6.514
	C40.362,18.31,52.087,22.455,49.296,26.116z"/>
<path fill="#302C3B" d="M31.808,8.793c0.267-0.555,1.216-0.081,1.152,0.367c-0.779,5.245-0.729,8.953-0.729,8.953
	s3.477-1.594,8.802-2.635c0.568-0.111,0.898,1.237,0.505,1.429c-7.09,3.46-10.576,6.094-12.967,7.991
	c-0.353,0.28-0.713,0.17-0.734-0.278C27.677,21.126,28.722,15.22,31.808,8.793z"/>
<path fill="#302C3B" d="M8.808,31.792c-0.556,0.267-0.081,1.217,0.365,1.15c5.246-0.779,8.954-0.726,8.954-0.726
	s-1.594,3.477-2.633,8.801c-0.113,0.567,1.235,0.898,1.428,0.505c3.459-7.092,6.094-10.575,7.991-12.969
	c0.28-0.352,0.168-0.711-0.278-0.731C21.142,27.662,15.236,28.708,8.808,31.792z"/>
</svg>
