<?xml version="1.0" encoding="utf-8"?>
<!-- Generator: Adobe Illustrator 15.0.0, SVG Export Plug-In . SVG Version: 6.00 Build 0)  -->
<!DOCTYPE svg PUBLIC "-//W3C//DTD SVG 1.1//EN" "http://www.w3.org/Graphics/SVG/1.1/DTD/svg11.dtd">
<svg version="1.1" id="Layer_1" xmlns="http://www.w3.org/2000/svg" xmlns:xlink="http://www.w3.org/1999/xlink" x="0px" y="0px"
	 width="64px" height="64px" viewBox="0 0 64 64" enable-background="new 0 0 64 64" xml:space="preserve">
<circle fill="#FDCA47" cx="34" cy="32" r="28"/>
<path fill="#F9B700" d="M52.345,10.856c4.267,4.914,6.856,11.325,6.856,18.344c0,15.464-12.537,28-28,28
	c-7.02,0-13.431-2.589-18.345-6.856C17.99,56.258,25.556,60,34,60c15.465,0,28-12.536,28-28C62,23.557,58.257,15.991,52.345,10.856z
	"/>
<path fill-rule="evenodd" clip-rule="evenodd" fill="#FFE8BB" d="M10.124,21.267C9.082,24.76,16.268,12.4,27.468,7.812
	C32.912,5.58,14.557,6.412,10.124,21.267z"/>
<path fill="#302C3B" d="M27,26.229c0,3.316-2.018,6.003-4.5,6.003c-2.487,0-4.5-2.687-4.5-6.003c0-3.313,2.013-5.997,4.5-5.997
	C24.982,20.232,27,22.916,27,26.229z"/>
<path fill="#302C3B" d="M48,26.229c0,3.313-2.018,6.003-4.5,6.003c-2.485,0-4.5-2.689-4.5-6.003s2.015-5.997,4.5-5.997
	C45.982,20.232,48,22.916,48,26.229z"/>
<path fill="#E6A400" d="M30.609,39.346c-7.332,1.307-15.73,1.834-23.055,1.238c-8.723-0.713-6.23-11.195,0.986-9.59
	c7.33,1.338,14.736,1.779,22.068,1.326C35.111,32.041,35.152,38.344,30.609,39.346z"/>
<path fill="#302C3B" d="M25.422,44.602c4.996-1.207,12.482-0.158,15.928,4.541c0.617,0.844,0.018,1.729-0.846,1.154
	c-3.297-2.193-9.688-3.551-14.289-2.457C24.457,48.256,23.582,45.066,25.422,44.602z"/>
<path fill="#917524" d="M52.717,17.504c-3.67-2.824-9.102-4.248-12.159-3.381c-0.646,0.184-1.029,2.576-0.472,2.494
	c4.283-0.64,8.963,0.115,12.514,2.504C53.077,19.441,53.268,17.928,52.717,17.504z"/>
<path fill="#917524" d="M15.285,15.507c3.668-2.827,9.1-4.25,12.158-3.383c0.646,0.182,1.029,2.577,0.472,2.493
	c-4.282-0.638-8.963,0.115-12.514,2.504C14.924,17.443,14.733,15.93,15.285,15.507z"/>
</svg>
