<?xml version="1.0" encoding="utf-8"?>
<!-- Generator: Adobe Illustrator 15.0.0, SVG Export Plug-In . SVG Version: 6.00 Build 0)  -->
<!DOCTYPE svg PUBLIC "-//W3C//DTD SVG 1.1//EN" "http://www.w3.org/Graphics/SVG/1.1/DTD/svg11.dtd">
<svg version="1.1" id="Layer_1" xmlns="http://www.w3.org/2000/svg" xmlns:xlink="http://www.w3.org/1999/xlink" x="0px" y="0px"
	 width="64px" height="64px" viewBox="0 0 64 64" enable-background="new 0 0 64 64" xml:space="preserve">
<circle fill="#FDCA47" cx="32" cy="32" r="30"/>
<path fill="#F9B700" d="M51.654,9.346C56.226,14.611,59,21.48,59,29c0,16.568-13.432,30-30,30c-7.521,0-14.389-2.773-19.654-7.346
	C14.846,57.99,22.952,62,32,62c16.568,0,30-13.432,30-30C62,22.953,57.989,14.848,51.654,9.346z"/>
<path fill-rule="evenodd" clip-rule="evenodd" fill="#FFE8BB" d="M6.418,20.5C5.302,24.242,13,11,25,6.084
	C30.834,3.693,11.168,4.584,6.418,20.5z"/>
<path fill="#302C3B" d="M26,28.566c0,2.826-2.464,5.115-5.5,5.115c-3.04,0-5.5-2.289-5.5-5.115C15,24.721,26,24.721,26,28.566z"/>
<path fill="#302C3B" d="M49.001,28.566c0,2.826-2.465,5.115-5.5,5.115c-3.041,0-5.5-2.289-5.5-5.115
	C38.001,24.721,49.001,24.721,49.001,28.566z"/>
<path fill="#302C3B" d="M17.593,40.389c9.771,4.473,23.037,3.555,26.943,3.555c1.049,0,1.66,0.379,1.408,1.141
	c-2.816,8.545-23.942,8.545-29.753-3.354C15.542,40.4,16.696,39.979,17.593,40.389z"/>
<path fill="#75D6FF" d="M29.929,50.84c0.801-1.335,5.977-0.897,5.977-0.897c2.699-1.781,7.084-1.605,6.73-0.438
	c-1.752,5.777,2.25,10.656-2.063,10.656c-4.125,0,1.656-10.19-4.25-9.125C32.933,51.647,29.929,50.84,29.929,50.84z"/>
<path fill="#917524" d="M52.345,20.273c-4.158-3.201-10.314-4.814-13.78-3.832c-0.731,0.208-1.167,2.92-0.534,2.826
	c4.854-0.725,10.157,0.131,14.183,2.838C52.753,22.469,52.97,20.754,52.345,20.273z"/>
<path fill="#917524" d="M11.656,20.276c4.157-3.204,10.313-4.816,13.779-3.834c0.731,0.206,1.167,2.921,0.534,2.825
	c-4.854-0.723-10.158,0.131-14.182,2.838C11.247,22.472,11.031,20.756,11.656,20.276z"/>
<path fill="#D4F2FF" d="M39.621,54.286c0.177,2.686,1.756,5.5,0.562,5.5C38.558,59.786,39.593,53.854,39.621,54.286z"/>
</svg>
