<?xml version="1.0" encoding="utf-8"?>
<!-- Generator: Adobe Illustrator 15.0.0, SVG Export Plug-In . SVG Version: 6.00 Build 0)  -->
<!DOCTYPE svg PUBLIC "-//W3C//DTD SVG 1.1//EN" "http://www.w3.org/Graphics/SVG/1.1/DTD/svg11.dtd">
<svg version="1.1" id="Layer_1" xmlns="http://www.w3.org/2000/svg" xmlns:xlink="http://www.w3.org/1999/xlink" x="0px" y="0px"
	 width="64px" height="64px" viewBox="0 0 64 64" enable-background="new 0 0 64 64" xml:space="preserve">
<path fill="#785647" d="M2.614,14.984c-2.922,7.385,5.412,14.952,7.627,15.521C18.874,32.723,32,23.762,32,23.762l-20.41-8.125
	C11.59,15.637,5.043,8.843,2.614,14.984z"/>
<path fill="#785647" d="M61.388,14.984c2.917,7.385-5.41,14.952-7.627,15.521C45.127,32.723,32,23.762,32,23.762l20.41-8.125
	C52.41,15.637,58.96,8.842,61.388,14.984z"/>
<circle fill="#FDCA47" cx="32" cy="35.5" r="26.5"/>
<path fill="#F9B700" d="M49.362,15.488c4.037,4.652,6.488,10.721,6.488,17.361c0,14.636-11.865,26.501-26.5,26.501
	c-6.645,0-12.711-2.45-17.361-6.489C16.846,58.458,24.007,62,32,62c14.636,0,26.501-11.865,26.501-26.5
	C58.501,27.51,54.958,20.349,49.362,15.488z"/>
<path fill-rule="evenodd" clip-rule="evenodd" fill="#FFE8BB" d="M9.402,25.342c-0.985,3.307,5.814-8.391,16.415-12.734
	C30.969,10.496,13.598,11.283,9.402,25.342z"/>
<path fill="#B47D56" d="M47.167,8.707c-2.684-2.18,0.322-3.381-1.762-5.357c-1.309-1.24-2.537-1.87-4.369-0.814
	c-3.006,1.731-15.065,1.731-18.07,0c-1.831-1.056-3.061-0.426-4.368,0.814c-2.084,1.977,0.922,3.178-1.763,5.357
	c-1.64,1.33-3.327,6.6-3.327,6.6L32,17.363l18.494-2.057C50.493,15.307,48.806,10.037,47.167,8.707z"/>
<path fill="#D6A57C" d="M19.885,4.756c0,0,3.203,2.146,3.159,3.217c-0.053,1.253-3.999,3.504-3.999,3.504s1.773-2.749,1.84-3.778
	C20.936,6.931,19.885,4.756,19.885,4.756z"/>
<path fill="#785647" d="M44.117,4.756c0,0-3.204,2.146-3.159,3.217c0.053,1.253,4,3.504,4,3.504s-1.774-2.749-1.841-3.778
	C43.067,6.931,44.117,4.756,44.117,4.756z"/>
<path fill="#302C3B" d="M50.657,14.965c-10.695,1.563-26.617,1.563-37.311,0l-0.846,1.51C12.5,16.475,27.045,20,32,20
	c4.955,0,19.501-3.525,19.501-3.525L50.657,14.965z"/>
<path fill="#B47D56" d="M11.59,15.637c0,0,10.16,9.841,20.408,9.841c13.528,0.005,20.417-9.847,20.412-9.841
	C39.265,20.273,24.737,20.273,11.59,15.637z"/>
<path fill="#302C3B" d="M40.806,45.795c-5.676,4.147-11.97,4.124-17.608,0c-0.68-0.496-1.291,0.364-0.831,1.157
	c1.718,2.968,5.188,5.61,9.633,5.61c4.447,0,7.917-2.643,9.634-5.61C42.095,46.159,41.483,45.299,40.806,45.795z"/>
<ellipse fill="#302C3B" cx="21.841" cy="33.027" rx="4" ry="5.5"/>
<ellipse fill="#302C3B" cx="42.159" cy="33.027" rx="4" ry="5.5"/>
</svg>
