<?xml version="1.0" encoding="utf-8"?>
<!-- Generator: Adobe Illustrator 15.0.0, SVG Export Plug-In . SVG Version: 6.00 Build 0)  -->
<!DOCTYPE svg PUBLIC "-//W3C//DTD SVG 1.1//EN" "http://www.w3.org/Graphics/SVG/1.1/DTD/svg11.dtd">
<svg version="1.1" id="Layer_1" xmlns="http://www.w3.org/2000/svg" xmlns:xlink="http://www.w3.org/1999/xlink" x="0px" y="0px"
	 width="64px" height="64px" viewBox="0 0 64 64" enable-background="new 0 0 64 64" xml:space="preserve">
<circle fill="#FDCA47" cx="32" cy="32" r="30"/>
<path fill="#F9B700" d="M51.654,9.346C56.226,14.611,58.999,21.48,58.999,29c0,16.568-13.432,30-30,30
	c-7.52,0-14.389-2.773-19.653-7.346C14.845,57.99,22.951,62,32,62c16.568,0,30-13.432,30-30C62,22.953,57.988,14.848,51.654,9.346z"
	/>
<path fill-rule="evenodd" clip-rule="evenodd" fill="#FFE8BB" d="M6.417,20.5C5.301,24.242,13,11,25,6.084
	C30.834,3.693,11.167,4.584,6.417,20.5z"/>
<path fill="#E8A329" d="M31.684,32.955C19.529,44.459-3.74,23.145,4.289,43.514c3.358,4.693,9.396,2.402,10.076,12.752
	c3.103-0.715,4.012-3.492,4.832-1.922c2.41,4.615,2.521,5.5,8.857,7.398C36.261,49.385,35.673,35.51,31.684,32.955z"/>
<path fill="#302C3B" d="M45.503,41.602c-5.076-0.664-12.374,1.174-15.281,6.193c-0.521,0.9,0.168,1.713,0.96,1.053
	c3.029-2.523,9.21-4.547,13.881-3.957C46.848,45.115,47.374,41.863,45.503,41.602z"/>
<path fill="#E6EBEF" d="M29.505,32.63c-7.509,0.991-11.535,3.53-27.412-0.576c0,0-1.534,11.498,7.863,12.584
	c6.25,0.725,1.264,9.033,1.264,9.033s8.83-6.209,9.226-1.236c0.404,5.092,4.22,6.465,4.22,6.465
	C34.13,51.715,38.794,31.407,29.505,32.63z"/>
<path fill="#BEC3CF" d="M31.667,37.936c-0.051-0.967-8.357,7.061-20.447,15.736c3.918,0.6,8.25-4.107,8.538-1.375
	c0.153,1.459,2.046,4.203,2.046,4.203S32.155,47.203,31.667,37.936z"/>
<path fill="#BEC3CF" d="M27.916,35.713c1.595-2.807-10.799-0.033-25.219,2.898c1.579,6.676,7.255,5.59,9.343,6.799
	C12.04,45.41,24.397,41.916,27.916,35.713z"/>
<path fill="#302C3B" d="M49.561,18.718c0.627-0.221,0.991,0.867,0.6,1.158c-4.6,3.41-7.391,6.281-7.391,6.281
	s3.871,1.438,8.731,4.709c0.519,0.35-0.258,1.631-0.704,1.477c-8.057-2.771-12.729-3.422-16.004-3.799
	c-0.482-0.055-0.674-0.416-0.348-0.771C36.99,24.981,42.297,21.271,49.561,18.718z"/>
<path fill="#302C3B" d="M14.439,18.718c-0.628-0.221-0.991,0.867-0.6,1.158c4.6,3.41,7.39,6.281,7.39,6.281s-3.872,1.438-8.73,4.709
	c-0.52,0.348,0.257,1.631,0.705,1.477c8.056-2.773,12.728-3.422,16.003-3.801c0.483-0.055,0.672-0.416,0.348-0.771
	C27.01,24.981,21.702,21.271,14.439,18.718z"/>
</svg>
