<?xml version="1.0" encoding="utf-8"?>
<!-- Generator: Adobe Illustrator 15.0.0, SVG Export Plug-In . SVG Version: 6.00 Build 0)  -->
<!DOCTYPE svg PUBLIC "-//W3C//DTD SVG 1.1//EN" "http://www.w3.org/Graphics/SVG/1.1/DTD/svg11.dtd">
<svg version="1.1" id="Layer_1" xmlns="http://www.w3.org/2000/svg" xmlns:xlink="http://www.w3.org/1999/xlink" x="0px" y="0px"
	 width="64px" height="64px" viewBox="0 0 64 64" enable-background="new 0 0 64 64" xml:space="preserve">
<circle fill="#FDCA47" cx="32" cy="32" r="30"/>
<path fill="#F9B700" d="M51.654,9.346C56.227,14.611,59,21.48,59,29c0,16.568-13.432,30-30,30c-7.521,0-14.389-2.773-19.654-7.346
	C14.846,57.99,22.952,62,32,62c16.568,0,30-13.432,30-30C62,22.953,57.988,14.848,51.654,9.346z"/>
<path fill-rule="evenodd" clip-rule="evenodd" fill="#FFE8BB" d="M6.418,20.5C5.302,24.242,13,11,25,6.084
	C30.834,3.693,11.168,4.584,6.418,20.5z"/>
<path fill="#302C3B" d="M43.8,23.1c2.829,0,4.999,2.719,4.999,6s-2.264,6-4.999,6c-2.829,0-4.999-2.719-4.999-6
	C38.707,25.818,40.971,23.1,43.8,23.1z"/>
<path fill="#302C3B" d="M25.601,30.072c0,3.703-10.999,3.703-10.999,0C14.414,23.444,25.601,23.442,25.601,30.072z"/>
<path fill="#917524" d="M11.317,21.788c7.517-3.538,13.433,2.343,16.142,0.504c0.682-0.463,1.475,1.093,0.819,1.592
	c-3.528,2.688-10.111-2.521-15.701,0.9C11.809,25.254,10.489,22.178,11.317,21.788z"/>
<path fill="#917524" d="M35.673,18.375c9.51-3.941,10.493-9.875,17.06-1.803c0.547,0.671-2.049,2.185-2.615,1.528
	c-4.773-5.547-4.596-0.59-13.719,1.889C35.482,20.237,35.085,18.619,35.673,18.375z"/>
<path fill="#302C3B" d="M38.363,43.206C32.97,43.92,25.95,43.42,21.236,42.371c-1.231-0.307-1.548,0.91-0.516,1.584
	c5.734,3.651,12.708,3.78,18.223,3.078C40.983,46.734,40.521,42.911,38.363,43.206z"/>
</svg>
