<?xml version="1.0" encoding="utf-8"?>
<!-- Generator: Adobe Illustrator 15.0.0, SVG Export Plug-In . SVG Version: 6.00 Build 0)  -->
<!DOCTYPE svg PUBLIC "-//W3C//DTD SVG 1.1//EN" "http://www.w3.org/Graphics/SVG/1.1/DTD/svg11.dtd">
<svg version="1.1" id="Layer_1" xmlns="http://www.w3.org/2000/svg" xmlns:xlink="http://www.w3.org/1999/xlink" x="0px" y="0px"
	 width="64px" height="64px" viewBox="0 0 64 64" enable-background="new 0 0 64 64" xml:space="preserve">
<rect x="23.334" y="44.857" fill="#3B2B1C" width="17.332" height="15"/>
<path fill="#018BC9" d="M40.666,51.285c0,0.002-2.566,6.16-8.668,6.162c-6.096,0.002-8.664-6.15-8.664-6.148
	C10.314,51.619,6,53.279,6,62h52C58,53.279,53.68,51.607,40.666,51.285z"/>
<path fill="#38332D" d="M32,2C11.23,2,11.225,14.5,11.225,30.125h41.551C52.775,14.5,52.77,2,32,2z"/>
<path fill="#523924" d="M15.35,36.201c2.25-2.096,0.207-10.313-2.695-10.809C6.455,24.336,10.494,40.721,15.35,36.201z"/>
<path fill="#523924" d="M48.65,36.201c-2.25-2.096-0.207-10.313,2.695-10.809C57.545,24.336,53.508,40.719,48.65,36.201z"/>
<path fill="#614A36" d="M32,10.334c-21.699,0-12.955,2.514-18.75,15.26c0,0,0.043,5.846,1.256,12.116C16.07,45.794,25.166,52,32,52
	s15.932-6.206,17.496-14.29c1.213-6.271,1.254-12.116,1.254-12.116C44.957,12.848,53.701,10.334,32,10.334z"/>
<path fill="#38332D" d="M48.592,8.421c7.738,10.613-28.184,7.843-35.656,6.294C12.936,14.716,23.91-0.251,48.592,8.421z"/>
<path fill="#26221E" d="M12.936,14.716c10.73,2.258,43.541,1.946,33.215-9.247C62.986,18.901,22.021,20.099,12.936,14.716z"/>
<path fill="#3B2B1C" d="M27.775,37.709c1.379,3.328,7.064,3.359,8.449,0H27.775z"/>
<path fill="#45332C" d="M34.818,28.969c3.035,5.668,9.146,5.664,12.182,0c0.15-0.283-0.244-0.412-0.727-0.736
	c-3.043,2.365-7.967,2.146-10.729,0.002C35.064,28.557,34.67,28.686,34.818,28.969z"/>
<path fill="#45332C" d="M16.998,28.969c3.037,5.668,9.146,5.664,12.184,0c0.148-0.283-0.246-0.412-0.729-0.736
	c-3.041,2.365-7.965,2.146-10.727,0.002C17.244,28.557,16.85,28.686,16.998,28.969z"/>
<path fill="#45332C" d="M35.469,46.803c0,3.039-6.938,3.039-6.938,0C28.531,42.623,35.469,42.623,35.469,46.803z"/>
<path opacity="0.3" d="M45.205,21.691c-3.066,1.267-3.754,4.86-6.164,5.698c0,0-5.725-14.055-6.281-11.994
	c0.441,4,0.91,8.156,0.91,8.156s-4.775-9.172-6.461-8.089c0.814,4.427,1.836,10.995,1.836,10.995s-4.855-9.603-5.955-8.125
	c0.895,3.918,2.486,10.938,2.486,10.938s-4.68-7.636-5.871-6.331c3.83,11.675,5.279,15.642,8.826,18.361
	c0.25,0.191,0.816,1.626,0.816,1.626c-3.357,1.769-1.094,3.447,4.479,19.072L55.326,62C44.139,39.739,35.469,52.927,45.205,21.691z"
	/>
<path fill="#826348" d="M46.143,48.075c0,0-2.809-5.94-3.434-9.635c0.818-1.315,1.852-3.38,1.998-5.216
	c0.152-1.922,1.195-3.653,1.971-5.662c0.939-2.417,3.133-4.798,1.752-6.144c-1.256-1.23-3.684-0.365-5.281,3.146
	c-0.945,2.093-1.213,2.913-2.361,3.462c0,0-2.838-6.986-4.396-13.1c-0.678-2.665-4.389-1.703-3.566,0.708
	c1.906,5.594,2.801,10.25,2.801,10.25s-2.5-5.745-4.363-10.875c-0.9-2.477-5.123-1.602-3.816,1.302
	c2.535,5.636,3.885,10.66,3.885,10.66s-2.818-4.774-4.537-9.056c-1.191-2.966-4.57-1.219-3.578,0.905
	c2.641,5.658,4.535,10.564,4.535,10.564s-1.777-2.531-4.832-7.906c-1.385-2.435-4.42-0.758-3.344,1.219
	c6.25,11.5,6.906,15.063,10.453,17.781c1.518,1.163,2.555,7.597,2.555,7.597H46.143z"/>
<path fill="#018BC9" d="M30.121,45.083c-1.432-3.646,13.9-5.399,14.799-3.132C47.334,48.053,50.375,55.677,54,62H37.25
	C37.25,62,34.309,55.73,30.121,45.083z"/>
</svg>
