<?xml version="1.0" encoding="utf-8"?>
<!-- Generator: Adobe Illustrator 15.0.0, SVG Export Plug-In . SVG Version: 6.00 Build 0)  -->
<!DOCTYPE svg PUBLIC "-//W3C//DTD SVG 1.1//EN" "http://www.w3.org/Graphics/SVG/1.1/DTD/svg11.dtd">
<svg version="1.1" id="Layer_1" xmlns="http://www.w3.org/2000/svg" xmlns:xlink="http://www.w3.org/1999/xlink" x="0px" y="0px"
	 width="64px" height="64px" viewBox="0 0 64 64" enable-background="new 0 0 64 64" xml:space="preserve">
<path fill="#38332D" d="M44.783,6.16C38.275-2.292,6,1.094,6,26.02C6.135,39.412,8.295,62,31.932,62S57.73,39.539,58,26.02
	C58,17.717,53.273,7.902,44.783,6.16z"/>
<path fill="#26221E" d="M6.404,34.199C7.568,48.975,12.381,62,31.955,62c19.635,0,24.369-13.071,25.592-27.897
	c-0.643-6.827-4.533-15.643-13.143-26.035C26.76,19.696,7.729,17.886,6.404,34.199z"/>
<rect x="23.334" y="44.857" fill="#3B2B1C" width="17.332" height="15"/>
<path fill="#8E3ED6" d="M40.666,51.285c0,0.002-2.566,6.16-8.668,6.162c-6.096,0.002-8.664-6.15-8.664-6.148
	C10.314,51.619,6,53.279,6,62h52C58,53.279,53.68,51.607,40.666,51.285z"/>
<path fill="#614A36" d="M49.66,24.155c-2.648-5.964-7.506-12.435-7.506-12.435C22.967,23.403,9.939,19.805,13.529,36.127
	c2.016,9.161,13.859,16.272,18.541,16.272c4.676,0,16.857-7.05,18.535-16.272C51.578,30.783,50.895,26.933,49.66,24.155z"/>
<path fill="#3B2B1C" d="M27.502,34.971c1.49,3.598,7.635,3.631,9.133,0H27.502z"/>
<path fill="#45332C" d="M35.115,25.523c3.279,6.126,9.887,6.122,13.168,0c0.162-0.306-0.266-0.446-0.785-0.796
	c-3.291,2.557-8.613,2.32-11.598,0.002C35.381,25.078,34.955,25.218,35.115,25.523z"/>
<path fill="#45332C" d="M15.852,25.523c3.283,6.126,9.887,6.122,13.17,0c0.16-0.306-0.266-0.446-0.787-0.796
	c-3.287,2.557-8.609,2.32-11.594,0.002C16.119,25.078,15.691,25.218,15.852,25.523z"/>
<path fill="#45332C" d="M35.818,44.801c0,3.285-7.498,3.285-7.498,0C28.32,40.281,35.818,40.281,35.818,44.801z"/>
<path opacity="0.3" d="M45.205,21.692c-3.066,1.267-3.754,4.86-6.164,5.697c0,0-5.725-14.055-6.283-11.993
	c0.443,4,0.912,8.156,0.912,8.156s-4.775-9.173-6.463-8.089c0.816,4.427,1.838,10.995,1.838,10.995s-4.857-9.603-5.955-8.125
	c0.893,3.918,2.486,10.938,2.486,10.938s-4.68-7.636-5.871-6.331c3.83,11.675,5.277,15.642,8.826,18.36
	c0.25,0.191,0.814,1.627,0.814,1.627c-3.355,1.77-1.092,3.447,4.48,19.072h21.5C44.139,39.74,35.469,52.928,45.205,21.692z"/>
<path fill="#826348" d="M46.143,48.076c0,0-2.809-5.941-3.434-9.635c0.818-1.316,1.852-3.381,1.998-5.217
	c0.15-1.922,1.195-3.652,1.971-5.661c0.939-2.417,3.131-4.798,1.752-6.144c-1.256-1.23-3.684-0.365-5.281,3.146
	c-0.947,2.094-1.215,2.913-2.361,3.462c0,0-2.84-6.985-4.396-13.1c-0.68-2.665-4.389-1.703-3.568,0.708
	c1.906,5.594,2.803,10.25,2.803,10.25s-2.5-5.745-4.365-10.875c-0.898-2.477-5.121-1.603-3.816,1.302
	c2.535,5.636,3.885,10.66,3.885,10.66s-2.818-4.774-4.537-9.056c-1.189-2.967-4.568-1.22-3.576,0.904
	c2.639,5.658,4.535,10.564,4.535,10.564s-1.777-2.531-4.834-7.906c-1.383-2.436-4.418-0.759-3.344,1.219
	c6.25,11.499,6.906,15.062,10.455,17.78c1.518,1.164,2.555,7.598,2.555,7.598H46.143z"/>
<path fill="#8E3ED6" d="M30.121,45.084c-1.434-3.645,13.9-5.4,14.799-3.131C47.334,48.053,50.375,55.678,54,62H37.25
	C37.25,62,34.309,55.73,30.121,45.084z"/>
</svg>
