<?xml version="1.0" encoding="utf-8"?>
<!-- Generator: Adobe Illustrator 15.0.0, SVG Export Plug-In . SVG Version: 6.00 Build 0)  -->
<!DOCTYPE svg PUBLIC "-//W3C//DTD SVG 1.1//EN" "http://www.w3.org/Graphics/SVG/1.1/DTD/svg11.dtd">
<svg version="1.1" id="Layer_1" xmlns="http://www.w3.org/2000/svg" xmlns:xlink="http://www.w3.org/1999/xlink" x="0px" y="0px"
	 width="64px" height="64px" viewBox="0 0 64 64" enable-background="new 0 0 64 64" xml:space="preserve">
<path fill="#297124" d="M49.99,57.781c0,5.041-38.516,5.041-38.516,0S49.99,52.74,49.99,57.781z"/>
<path fill="#297124" d="M54.164,59.891c0,2.813-21.488,2.813-21.488,0S54.164,57.078,54.164,59.891z"/>
<path fill="#297124" d="M62,56.902c0,2.813-21.49,2.813-21.49,0S62,54.09,62,56.902z"/>
<path fill="#7AB51D" d="M58.553,56.508c0,2.041-15.607,2.041-15.607,0C42.945,54.465,58.553,54.465,58.553,56.508z"/>
<path fill="#297124" d="M23.49,56.902c0,2.813-21.49,2.813-21.49,0S23.49,54.09,23.49,56.902z"/>
<path fill="#7AB51D" d="M52.174,58.715c0,2.539-19.389,2.539-19.389,0C32.785,56.178,52.174,56.178,52.174,58.715z"/>
<path fill="#7AB51D" d="M20.98,56.508c0,2.09-15.969,2.09-15.969,0S20.98,54.418,20.98,56.508z"/>
<path fill="#7AB51D" d="M46.297,57.332c0,4.074-31.129,4.074-31.129,0S46.297,53.258,46.297,57.332z"/>
<path fill="#529320" d="M54.037,56.33c0,1.506-12.881,1.506-12.881,0C41.156,54.826,54.037,54.826,54.037,56.33z"/>
<path fill="#529320" d="M50.086,58.275c0,1.83-14.371,1.83-14.371,0S50.086,56.445,50.086,58.275z"/>
<path fill="#CBD716" d="M48.512,58.43c0,0.77-6.031,0.77-6.031,0C42.48,57.662,48.512,57.662,48.512,58.43z"/>
<path fill="#529320" d="M46.596,56.199c0,2.936-33.914,2.936-33.914,0C12.682,53.266,46.596,53.266,46.596,56.199z"/>
<path fill="#CBD716" d="M14.492,56.199c0,0.77-6.033,0.77-6.033,0C8.459,55.432,14.492,55.432,14.492,56.199z"/>
<circle fill="#FDCA47" cx="32" cy="29" r="27"/>
<path fill="#F9B700" d="M49.689,8.611c4.115,4.738,6.611,10.92,6.611,17.688c0,14.914-12.088,27-27,27
	c-6.77,0-12.949-2.496-17.689-6.609C16.563,52.391,23.857,56,32,56c14.912,0,27-12.088,27-26.998
	C59,20.857,55.391,13.563,49.689,8.611z"/>
<path fill-rule="evenodd" clip-rule="evenodd" fill="#FFE8BB" d="M8.977,18.65C7.973,22.018,14.9,10.1,25.701,5.676
	C30.951,3.523,13.252,4.324,8.977,18.65z"/>
<path fill="#302C3B" d="M32,34.903c-7.699-0.049-13.889,4.119-13.938,9.308c-0.029,2.871,1.158,7.174,4.854,7.197
	c2.678,0.018,5.648-2.886,9.084-2.866c3.398,0.022,6.203,3.017,8.861,3.03c3.266,0.021,5.051-4.284,5.076-7.185
	C45.988,39.201,39.695,34.953,32,34.903z"/>
<path fill="#297124" d="M40.711,37.021c-2.391-1.302-5.42-2.096-8.711-2.117c-3.305-0.021-6.328,0.739-8.711,2.021V56.02h17.422
	V37.021z"/>
<path fill="#529320" d="M25.902,37.823V58.02h12.195V37.897c-1.846-0.618-3.912-0.979-6.098-0.994
	C29.807,36.89,27.742,37.226,25.902,37.823z"/>
<path fill="#529320" d="M26.109,44.477c-0.189,7.514-6.434,12.908-8.521,9.002C15.877,50.277,23.088,50.432,26.109,44.477z"/>
<path fill="#297124" d="M26.109,44.477c-1.768,12.131-10.449,11.137-8.258,7C14.039,55.326,25.756,59.65,26.109,44.477z"/>
<path fill="#7AB51D" d="M24.766,46.912c-2.605,3.959-6.604,3.941-6.736,6.023C17.117,50.514,21.99,50.121,24.766,46.912z"/>
<path fill="#CBD716" d="M40.658,44.86c-2.088,7.362,2.352,14.493,5.563,11.327C48.852,53.596,41.795,51.563,40.658,44.86z"/>
<path fill="#909900" d="M40.658,44.86c-1.951,12.327,6.789,13.989,5.912,9.306C49.111,59.057,36.412,59.719,40.658,44.86z"/>
<path fill="#EFFF00" d="M41.23,47.634c1.336,4.636,5.227,5.829,4.725,7.894C47.574,53.451,42.957,51.592,41.23,47.634z"/>
<path fill="#529320" d="M27.266,37.873c7.953,7.293,6.797,18.209,0.205,16.453C22.076,52.887,30.342,46.322,27.266,37.873z"/>
<path fill="#297124" d="M29.457,40.252c5.322,8.164-0.059,16.23-3.855,12.102C26.064,57.842,39.186,55.129,29.457,40.252z"/>
<path fill="#7AB51D" d="M26.605,39.307c2.459,8.211,1.393,11.258,0.209,13.113C28.277,51.66,30.91,48.861,26.605,39.307z"/>
<path fill="#529320" d="M34.838,40.831c-6.396,9.946-3.105,22.53,3.041,19.308C42.912,57.502,33.473,51.271,34.838,40.831z"/>
<path fill="#297124" d="M32.965,44.005c-3.633,10.503,3.443,19.001,6.367,13.495C39.961,64.01,26.314,63.15,32.965,44.005z"/>
<path fill="#7AB51D" d="M36.527,43.028c-1.174,9.767,0.23,13.435,1.76,15.401C36.697,57.801,33.352,54.488,36.527,43.028z"/>
<path fill="#7AB51D" d="M33.092,35.662c4.279,7.851,1.58,17.43-2.709,14.76C26.869,48.239,33.771,43.736,33.092,35.662z"/>
<path fill="#297124" d="M33.092,35.662c5.527,13.617-3.26,18.203-3.646,12.533C28.127,54.613,41.762,51.494,33.092,35.662z"/>
<path fill="#A6E639" d="M33.266,39.035c-0.113,5.752-3.896,8.316-2.785,10.545C28.182,47.68,32.549,44.127,33.266,39.035z"/>
<path fill="#CBD716" d="M25.656,44.607c3.666,8.217-0.303,17.26-4.568,14.115C17.592,56.148,25.461,52.598,25.656,44.607z"/>
<path fill="#909900" d="M25.656,44.607c4.34,14.016-5.549,17.418-5.314,11.82C18.207,62.547,33.092,61.186,25.656,44.607z"/>
<path fill="#EFFF00" d="M25.457,47.934c-0.775,5.617-5.1,7.66-4.168,9.977C19.055,55.766,24.113,52.83,25.457,47.934z"/>
<path fill="#7AB51D" d="M37.902,39.599c-3.229,10.077-0.027,20.249,3.623,16.062C44.516,52.229,37.936,48.964,37.902,39.599z"/>
<path fill="#297124" d="M37.902,39.599c-3.891,16.97,4.396,19.829,4.289,13.274C43.893,59.82,31.359,59.938,37.902,39.599z"/>
<path fill="#A6E639" d="M38.016,43.482c0.563,6.512,4.178,8.414,3.354,11.244C43.289,51.945,39.07,49.083,38.016,43.482z"/>
<path fill="#917524" d="M15.137,19.254c5.04,0.228,10.776-1.896,12.965-4.58c0.46-0.568-0.692-2.942-1.138-2.521
	c-3.423,3.248-8.07,5.497-12.734,5.585C13.604,17.751,14.38,19.22,15.137,19.254z"/>
<path fill="#917524" d="M48.866,19.252c-5.041,0.229-10.776-1.895-12.965-4.579c-0.462-0.565,0.693-2.943,1.139-2.52
	c3.422,3.245,8.07,5.497,12.732,5.584C50.399,17.749,49.623,19.219,48.866,19.252z"/>
<path fill="#302C3B" d="M47.529,21.697c0.553-0.194,0.873,0.764,0.528,1.021c-4.054,3.005-6.514,5.535-6.514,5.535
	s3.412,1.268,7.696,4.151c0.457,0.307-0.228,1.438-0.621,1.301c-7.102-2.443-11.219-3.016-14.105-3.348
	c-0.426-0.049-0.594-0.367-0.307-0.681C36.45,27.218,41.127,23.946,47.529,21.697z"/>
<path fill="#302C3B" d="M16.574,21.696c-0.554-0.194-0.874,0.765-0.529,1.021c4.055,3.006,6.514,5.536,6.514,5.536
	s-3.412,1.267-7.695,4.15c-0.457,0.308,0.227,1.438,0.622,1.302c7.101-2.445,11.218-3.017,14.104-3.35
	c0.426-0.049,0.592-0.366,0.307-0.681C27.653,27.218,22.976,23.946,16.574,21.696z"/>
</svg>
