<?xml version="1.0" encoding="utf-8"?>
<!-- Generator: Adobe Illustrator 15.0.0, SVG Export Plug-In . SVG Version: 6.00 Build 0)  -->
<!DOCTYPE svg PUBLIC "-//W3C//DTD SVG 1.1//EN" "http://www.w3.org/Graphics/SVG/1.1/DTD/svg11.dtd">
<svg version="1.1" id="Layer_1" xmlns="http://www.w3.org/2000/svg" xmlns:xlink="http://www.w3.org/1999/xlink" x="0px" y="0px"
	 width="64px" height="64px" viewBox="0 0 64 64" enable-background="new 0 0 64 64" xml:space="preserve">
<path fill="#594640" d="M36.896,17.223c-3.254-4.05-19.392-2.427-19.392,9.516c0.067,6.417,1.146,20.991,12.966,20.991
	c11.819,0,12.899-14.513,13.034-20.991C43.504,22.76,41.141,18.058,36.896,17.223z"/>
<path fill="#422F2A" d="M17.691,30.658c0.582,7.08,3.003,17.071,12.791,17.071c9.819,0,12.223-10.014,12.836-17.118
	c-0.322-3.271-2.307-7.495-6.611-12.476C27.884,23.709,18.354,22.841,17.691,30.658z"/>
<circle fill="#AA5BEF" cx="22.855" cy="6.502" r="4.5"/>
<circle fill="#FFFFFF" cx="21.21" cy="4.742" r="1.304"/>
<circle fill="#E81C27" cx="6.5" cy="26.434" r="4.5"/>
<circle fill="#FFFFFF" cx="4.854" cy="24.674" r="1.305"/>
<path fill="#FFE12C" d="M55.627,12.463c0,2.484-2.016,4.496-4.5,4.496c-2.482,0-4.5-2.012-4.5-4.496c0-2.486,2.018-4.504,4.5-4.504
	C53.611,7.959,55.627,9.977,55.627,12.463z"/>
<circle fill="#FFFFFF" cx="49.482" cy="10.701" r="1.305"/>
<path fill="#0FB4D4" d="M62,37.023c0,2.486-2.016,4.498-4.5,4.498c-2.482,0-4.5-2.012-4.5-4.498s2.018-4.502,4.5-4.502
	C59.984,32.521,62,34.537,62,37.023z"/>
<circle fill="#FFFFFF" cx="55.855" cy="35.264" r="1.305"/>
<path fill="#8E3ED6" d="M48.404,57.045c-0.375-1.955-1.217-4.305-3.84-10.826c-1.535-3.816-9.393-4.333-14.053-4.333
	c-4.662,0-12.519,0.517-14.054,4.333c-2.623,6.521-4.637,6.357-8.47,6.549c0.432,2.936,1.333,8.125,4,8.125
	c2.833,0,4.722-2.199,7.546-7.678L19.537,62h21.947l0.004-10.785c2.514,8.238,2.979,10.35,6.307,10.35
	C52.029,61.564,54.811,56.777,48.404,57.045z"/>
<path fill="#302C3B" d="M40.031,57.834c0.141-3.889,0.191-9.854-0.463-15.053c-1.418-0.523-3.271-0.52-3.271-0.52
	c0.375,5.891,0.338,11.779,0.246,15.572H24.479c-0.092-3.793-0.13-9.682,0.246-15.572c0,0-1.854-0.004-3.271,0.52
	c-0.654,5.199-0.604,11.164-0.463,15.053h-1.454V62h21.947v-4.166H40.031z"/>
<path fill="#DBA97F" d="M7.492,52.572c0.48,0.109,1.05-2.42,0.569-2.527c0,0-2.373-0.223-3.063-0.047
	c-1.628,0.414-1.28,1.789-0.868,1.797C5.332,51.824,7.492,52.572,7.492,52.572z"/>
<path fill="#5D1E96" d="M14.53,57.215c0,0-0.258-2.912-0.97-5.121l-0.958,0.459C13.728,54.719,14.53,57.215,14.53,57.215z"/>
<path fill="#FCD5B2" d="M7.418,47.031c0.142,1.469,0.608,2.576,0.608,2.576c0-1.236,0.221-2.17,0.221-2.949
	c0-1.432,2.125-1.432,2.125,0c0,0.564,0.078,1.924,0.078,2.936c0,0,0.172-0.516,0.328-2.344c0.118-1.381,1.938-1.238,1.912,0.146
	c-0.021,1.119-0.287,2.879-0.287,2.879s0.359-0.555,0.521-1.563c0.218-1.359,1.67-1.354,1.604,0.021
	c-0.078,1.641-0.48,2.908-0.824,3.73c-0.354,0.848-1.357,0.971-1.613,0.373c-0.396,0.521-1.407,0.762-1.833,0.334
	c-0.35,0.412-1.438,0.395-1.771-0.209c-0.514,0.354-1.708,0.104-2-0.729c-0.566-1.617-1.021-3.313-1.099-4.781
	C5.311,46.008,7.279,45.592,7.418,47.031z"/>
<path fill="#DBA97F" d="M52.529,60.572c-0.48,0.109-1.049-2.42-0.568-2.527c0,0,2.373-0.223,3.063-0.047
	c1.627,0.414,1.279,1.789,0.867,1.797C54.689,59.824,52.529,60.572,52.529,60.572z"/>
<path fill="#FCD5B2" d="M52.604,55.031c-0.141,1.469-0.607,2.576-0.607,2.576c0-1.236-0.221-2.17-0.221-2.949
	c0-1.432-2.125-1.432-2.125,0c0,0.564-0.078,1.924-0.078,2.936c0,0-0.172-0.516-0.328-2.344c-0.119-1.381-1.939-1.238-1.912,0.146
	c0.021,1.119,0.287,2.879,0.287,2.879s-0.359-0.555-0.521-1.563c-0.217-1.359-1.67-1.354-1.604,0.021
	c0.078,1.641,0.48,2.908,0.824,3.73c0.354,0.848,1.357,0.971,1.613,0.373c0.395,0.521,1.406,0.762,1.832,0.334
	c0.35,0.412,1.438,0.395,1.771-0.209c0.514,0.354,1.709,0.104,2-0.729c0.566-1.617,1.021-3.313,1.1-4.781
	C54.711,54.008,52.742,53.592,52.604,55.031z"/>
<path fill="#DBA97F" d="M25.955,41.921c0,4.455,9.1,4.455,9.1,0c0-2.717,0-7.209,0-7.209h-9.1
	C25.955,34.712,25.955,38.413,25.955,41.921z"/>
<polygon fill="#302C3B" points="34.783,43.127 31.58,44.953 31.58,44.014 29.431,44.014 29.431,44.953 26.228,43.127 26.228,48.006 
	29.431,46.18 29.431,47.119 31.58,47.119 31.58,46.18 34.783,48.006 "/>
<path fill="#FCD5B2" d="M39.514,26.301c-1.348-3.177-3.818-6.623-3.818-6.623c-9.039,5.432-16.68,2.706-14.558,13
	c1.006,4.884,7.049,8.667,9.43,8.667c2.377,0,8.573-3.754,9.426-8.667C40.488,29.831,40.141,27.78,39.514,26.301z"/>
<path fill="#F5F5F5" d="M38.83,28.425c-1.076,2.802-5.451,2.391-6.254,0.432C33.186,25.706,38.24,25.437,38.83,28.425z"/>
<path fill="#45332C" d="M33.693,27.775c0,2.074,3.574,2.074,3.574,0C37.268,25.85,33.693,25.85,33.693,27.775z"/>
<path fill="#45332C" d="M38.83,28.404c0-3.009-6.254-3.009-6.254,0.477C33.471,26.021,37.938,26.021,38.83,28.404z"/>
<path fill="#F5F5F5" d="M22.302,28.425c1.076,2.802,5.453,2.391,6.254,0.432C27.947,25.706,22.894,25.437,22.302,28.425z"/>
<path fill="#45332C" d="M27.439,27.775c0,2.074-3.574,2.074-3.574,0C23.865,25.85,27.439,25.85,27.439,27.775z"/>
<path fill="#45332C" d="M22.302,28.404c0-3.008,6.254-3.008,6.254,0.475C27.663,26.021,23.195,26.021,22.302,28.404z"/>
<path fill="#CC9D76" d="M35.033,35.611c-0.84,0.95-1.365,2.633-4.467,2.633c-2.706,0-3.451-1.482-4.467-2.633H35.033z"/>
<path fill="#FFFFFF" d="M34.475,35.641c-1.838,1.882-5.956,1.908-7.818,0H34.475z"/>
<path fill="#CC9D76" d="M30.566,35.459c-1.75-0.768-1.764-0.03-4.467,0.152c3.413,0.382,5.521,0.382,8.934,0
	C32.33,35.429,32.316,34.691,30.566,35.459z"/>
<path fill="#DBA97F" d="M38.451,25.724c-1.895-0.78-4.486-0.933-5.819-0.411c-0.279,0.11-0.271,0.782-0.023,0.715
	c1.909-0.52,4.106-0.561,5.915,0.068C38.766,26.181,38.736,25.842,38.451,25.724z"/>
<path fill="#DBA97F" d="M22.612,25.726c1.894-0.78,4.486-0.933,5.818-0.413c0.28,0.11,0.272,0.783,0.023,0.715
	c-1.909-0.52-4.105-0.561-5.912,0.069C22.298,26.181,22.327,25.842,22.612,25.726z"/>
<path fill="#DBA97F" d="M32.798,32.906c0,1.435-4.406,1.435-4.406,0C28.392,32.577,32.798,32.577,32.798,32.906z"/>
<path fill="#4E5E67" d="M47.506,22.83c0,2.721-34,2.721-34,0C13.506,20.111,47.506,20.111,47.506,22.83z"/>
<path fill="#302C3B" d="M42.506,21.676c0,2.342-24,2.342-24,0C18.506,8.787,42.506,8.787,42.506,21.676z"/>
</svg>
