<?xml version="1.0" encoding="utf-8"?>
<!-- Generator: Adobe Illustrator 15.0.0, SVG Export Plug-In . SVG Version: 6.00 Build 0)  -->
<!DOCTYPE svg PUBLIC "-//W3C//DTD SVG 1.1//EN" "http://www.w3.org/Graphics/SVG/1.1/DTD/svg11.dtd">
<svg version="1.1" id="Layer_1" xmlns="http://www.w3.org/2000/svg" xmlns:xlink="http://www.w3.org/1999/xlink" x="0px" y="0px"
	 width="64px" height="64px" viewBox="0 0 64 64" enable-background="new 0 0 64 64" xml:space="preserve">
<path fill="#B88A6F" d="M57.066,24.377c0.879-1.529-0.441-2.502-2.525,0.173c-1.607,2.067-7.045,5.778-3.119,6.712
	c2.797,0.665,9.613-4.374,10.465-9.442C62.662,17.214,59.281,23.384,57.066,24.377z"/>
<path fill="#B88A6F" d="M9.458,24.55c-2.083-2.676-3.403-1.703-2.523-0.173c-2.215-0.993-5.596-7.163-4.821-2.557
	c0.853,5.069,7.668,10.107,10.465,9.442C16.503,30.328,11.067,26.617,9.458,24.55z"/>
<rect x="8.958" y="29.458" fill="#B88A6F" width="4.585" height="2.125"/>
<rect x="50.459" y="29.458" fill="#B88A6F" width="4.584" height="2.125"/>
<path fill="#018BC9" d="M55.584,31.173h-5.709l0.207,13.102c0,0-1.922-3.742-5.029-6.279C41.75,35.297,32.005,36.665,32,36.666
	c-0.004-0.001-9.748-1.369-13.053,1.329c-3.105,2.537-5.027,6.279-5.027,6.279l0.205-13.102H8.416c0,0-0.736,15.72-0.458,20.952
	c0.258,4.833,3.917,6.666,11.458-3.375C20.25,55.791,19.833,62,19.833,62H32l0,0h12.168c0,0-0.418-6.209,0.416-13.25
	c7.541,10.041,11.201,8.208,11.459,3.375C56.32,46.893,55.584,31.173,55.584,31.173z"/>
<polygon fill="#006DAE" points="15.726,41.447 13.931,43.515 13.828,48.26 "/>
<polygon fill="#006DAE" points="48.273,41.447 50.07,43.515 50.172,48.26 "/>
<path fill="#946346" d="M27.451,38.369c0,4.455,9.1,4.455,9.1,0c0-2.717,0-7.208,0-7.208h-9.1
	C27.451,31.161,27.451,34.861,27.451,38.369z"/>
<path fill="#875B49" d="M27.988,8.4c-12.943,2.282-11.573,10.072-9.856,19.809l25.892-4.566C42.307,13.906,40.93,6.118,27.988,8.4z"
	/>
<path fill="#B07E61" d="M21.371,31.541c1.171-1.553-1.006-6.449-2.867-6.438C14.523,25.125,18.839,34.891,21.371,31.541z"/>
<path fill="#B07E61" d="M42.121,27.883c-1.633-1.059-1.262-6.404,0.492-7.032C46.359,19.512,45.645,30.164,42.121,27.883z"/>
<path fill="#B88A6F" d="M28.904,13.593c-13.522,2.384-7.798,2.99-10.008,11.57c0,0,0.668,3.638,2.113,7.412
	c1.863,4.866,8.214,7.734,12.473,6.982c4.258-0.75,9.244-5.617,9.332-10.826c0.066-4.042-0.549-7.688-0.549-7.688
	C37.254,13.736,42.426,11.208,28.904,13.593z"/>
<path fill="#875B49" d="M39.033,10.578c5.988,5.763-16.703,7.984-21.528,7.84C17.505,18.418,22.699,7.886,39.033,10.578z"/>
<path fill="#6B4435" d="M17.505,18.418c6.935,0.228,27.346-3.572,19.682-9.412C49.154,15.526,23.759,20.774,17.505,18.418z"/>
<path fill="#F5F5F5" d="M40.676,22.419c-0.699,3.594-6.043,4.026-7.422,1.843C33.32,20.349,39.332,18.954,40.676,22.419z"/>
<path fill="#45332C" d="M34.441,23.148c0.523,2.969,4.816,2.212,4.293-0.757C38.248,19.635,33.955,20.392,34.441,23.148z"/>
<path fill="#45332C" d="M40.672,22.395c-0.637-3.615-8.151-2.29-7.412,1.896C33.727,20.667,39.094,19.721,40.672,22.395z"/>
<path fill="#F5F5F5" d="M20.82,25.92c1.887,3.139,7.057,1.716,7.604-0.807C27.025,21.458,20.898,22.205,20.82,25.92z"/>
<path fill="#45332C" d="M26.929,24.473c0.523,2.969-3.771,3.727-4.294,0.757C22.148,22.474,26.443,21.717,26.929,24.473z"/>
<path fill="#45332C" d="M20.816,25.896c-0.637-3.614,6.875-4.938,7.613-0.754C26.751,21.897,21.384,22.844,20.816,25.896z"/>
<path fill="#F5F5F5" d="M34.578,22.379c0.131,0.743,1.205,0.554,1.072-0.189C35.531,21.501,34.457,21.691,34.578,22.379z"/>
<path fill="#F5F5F5" d="M23.953,24.098c0.131,0.742-0.941,0.931-1.072,0.189C22.757,23.598,23.832,23.409,23.953,24.098z"/>
<path fill="#946346" d="M39.404,17.875c-2.439-0.536-5.586-0.17-7.076,0.737c-0.313,0.191-0.161,0.998,0.122,0.864
	c2.182-1.028,4.813-1.542,7.118-1.17C39.879,18.356,39.771,17.956,39.404,17.875z"/>
<path fill="#946346" d="M20.404,21.38c2.111-1.339,5.192-2.071,6.901-1.728c0.361,0.073,0.493,0.882,0.18,0.854
	c-2.402-0.22-5.05,0.197-7.087,1.335C20.125,21.995,20.087,21.581,20.404,21.38z"/>
<path fill="#946346" d="M34.381,29.079c0.303,1.724-4.991,2.657-5.295,0.935C29.015,29.617,34.311,28.684,34.381,29.079z"/>
<path fill="#6B4435" d="M35.336,33.076c-1.592,0.381-3.674,0.674-5.546,0.664c-0.71-0.004-1.021,1.01-0.276,1.049
	c2.091,0.107,4.461-0.287,6.083-1.182C35.988,33.391,35.723,32.984,35.336,33.076z"/>
</svg>
