<?xml version="1.0" encoding="utf-8"?>
<!-- Generator: Adobe Illustrator 15.0.0, SVG Export Plug-In . SVG Version: 6.00 Build 0)  -->
<!DOCTYPE svg PUBLIC "-//W3C//DTD SVG 1.1//EN" "http://www.w3.org/Graphics/SVG/1.1/DTD/svg11.dtd">
<svg version="1.1" id="Layer_1" xmlns="http://www.w3.org/2000/svg" xmlns:xlink="http://www.w3.org/1999/xlink" x="0px" y="0px"
	 width="64px" height="64px" viewBox="0 0 64 64" enable-background="new 0 0 64 64" xml:space="preserve">
<circle fill="#AA5BEF" cx="22.855" cy="6.503" r="4.5"/>
<circle fill="#FFFFFF" cx="21.21" cy="4.742" r="1.304"/>
<circle fill="#E81C27" cx="6.5" cy="26.435" r="4.5"/>
<circle fill="#FFFFFF" cx="4.854" cy="24.674" r="1.305"/>
<path fill="#FFE12C" d="M55.627,12.463c0,2.485-2.016,4.497-4.5,4.497c-2.482,0-4.5-2.012-4.5-4.497c0-2.486,2.018-4.503,4.5-4.503
	C53.611,7.96,55.627,9.977,55.627,12.463z"/>
<circle fill="#FFFFFF" cx="49.482" cy="10.702" r="1.305"/>
<path fill="#0FB4D4" d="M62,37.025c0,2.484-2.016,4.496-4.5,4.496c-2.482,0-4.5-2.012-4.5-4.496c0-2.486,2.018-4.504,4.5-4.504
	C59.984,32.521,62,34.539,62,37.025z"/>
<circle fill="#FFFFFF" cx="55.855" cy="35.264" r="1.305"/>
<path fill="#FDCA47" d="M33.572,40.756v-1.799h-6.122v1.799c0,0.799-0.803,1.697-3.355,1.697l0.002,7.357h12.826l0.002-7.357
	C34.373,42.453,33.572,41.555,33.572,40.756z"/>
<path fill="#92C932" d="M48.404,57.045c-0.375-1.955-1.217-4.303-3.84-10.826c-1.535-3.816-9.641-4.029-9.641-4.029
	c-0.848,3.596-7.979,3.596-8.827,0c0,0-8.105,0.213-9.64,4.029c-2.623,6.523-4.637,6.357-8.47,6.549
	c0.432,2.936,1.333,8.125,4,8.125c2.833,0,4.722-2.197,7.546-7.678L19.537,62h21.947l0.004-10.785
	c2.514,8.238,2.979,10.35,6.307,10.35C52.029,61.564,54.811,56.777,48.404,57.045z"/>
<path fill="#302C3B" d="M40.031,57.834c0.141-3.889,0.191-9.854-0.463-15.051c-1.418-0.523-3.271-0.521-3.271-0.521
	c0.375,5.891,0.338,11.781,0.246,15.572H24.479c-0.092-3.791-0.13-9.682,0.246-15.572c0,0-1.854-0.002-3.271,0.521
	c-0.654,5.197-0.604,11.162-0.463,15.051h-1.454V62h21.947v-4.166H40.031z"/>
<path fill="#E6A400" d="M7.492,52.574c0.48,0.107,1.05-2.42,0.569-2.529c0,0-2.373-0.223-3.063-0.047
	c-1.628,0.416-1.28,1.789-0.868,1.799C5.332,51.826,7.492,52.574,7.492,52.574z"/>
<path fill="#7AB51D" d="M14.53,57.215c0,0-0.258-2.912-0.97-5.119l-0.958,0.457C13.728,54.721,14.53,57.215,14.53,57.215z"/>
<path fill="#FDCA47" d="M7.418,47.033c0.142,1.467,0.608,2.574,0.608,2.574c0-1.236,0.221-2.17,0.221-2.947
	c0-1.434,2.125-1.434,2.125,0c0,0.563,0.078,1.922,0.078,2.934c0,0,0.172-0.516,0.328-2.344c0.118-1.381,1.938-1.238,1.912,0.148
	c-0.021,1.117-0.287,2.879-0.287,2.879s0.359-0.557,0.521-1.563c0.218-1.359,1.67-1.355,1.604,0.02
	c-0.078,1.641-0.48,2.908-0.824,3.732c-0.354,0.848-1.357,0.971-1.613,0.373c-0.396,0.52-1.407,0.76-1.833,0.332
	c-0.35,0.412-1.438,0.396-1.771-0.207c-0.514,0.354-1.708,0.104-2-0.73c-0.566-1.615-1.021-3.313-1.099-4.781
	C5.311,46.01,7.279,45.594,7.418,47.033z"/>
<polygon fill="#302C3B" points="34.783,43.127 31.58,44.955 31.58,44.014 29.431,44.014 29.431,44.955 26.228,43.127 26.228,48.008 
	29.431,46.18 29.431,47.121 31.58,47.121 31.58,46.18 34.783,48.008 "/>
<path fill="#E6A400" d="M52.529,60.574c-0.48,0.107-1.049-2.42-0.568-2.529c0,0,2.373-0.223,3.063-0.047
	c1.627,0.416,1.279,1.789,0.867,1.799C54.689,59.826,52.529,60.574,52.529,60.574z"/>
<path fill="#FDCA47" d="M52.604,55.033c-0.141,1.467-0.607,2.574-0.607,2.574c0-1.236-0.221-2.17-0.221-2.947
	c0-1.434-2.125-1.434-2.125,0c0,0.563-0.078,1.922-0.078,2.934c0,0-0.172-0.516-0.328-2.344c-0.119-1.381-1.939-1.238-1.912,0.148
	c0.021,1.117,0.287,2.879,0.287,2.879s-0.359-0.557-0.521-1.563c-0.217-1.359-1.67-1.355-1.604,0.02
	c0.078,1.641,0.48,2.908,0.824,3.732c0.354,0.848,1.357,0.971,1.613,0.373c0.395,0.52,1.406,0.76,1.832,0.332
	c0.35,0.412,1.438,0.396,1.771-0.207c0.514,0.354,1.709,0.104,2-0.73c0.566-1.615,1.021-3.313,1.1-4.781
	C54.711,54.01,52.742,53.594,52.604,55.033z"/>
<path fill="#EA8800" d="M30.504,14.505c-11.077,0-11.08,6.666-11.08,15h22.16C41.584,21.171,41.582,14.505,30.504,14.505z"/>
<path fill="#F5BC2C" d="M21.624,32.745c1.2-1.117,0.111-5.5-1.437-5.764C16.88,26.417,19.035,35.156,21.624,32.745z"/>
<path fill="#F5BC2C" d="M39.385,32.745c-1.199-1.117-0.111-5.5,1.438-5.764C44.129,26.417,41.975,35.154,39.385,32.745z"/>
<path fill="#FDCA47" d="M30.505,18.949c-11.574,0-6.911,1.34-10,8.14c0,0,0.022,3.117,0.669,6.462
	c0.834,4.311,5.686,7.621,9.331,7.621c3.645,0,8.497-3.311,9.331-7.621c0.646-3.345,0.668-6.462,0.668-6.462
	C37.416,20.289,42.078,18.949,30.505,18.949z"/>
<path fill="#F5F5F5" d="M38.727,28.069c-1.07,2.788-5.424,2.38-6.222,0.43C33.111,25.365,38.139,25.098,38.727,28.069z"/>
<path fill="#45332C" d="M33.615,27.432c0,2.074,3.557,2.074,3.557,0C37.172,25.506,33.615,25.506,33.615,27.432z"/>
<path fill="#45332C" d="M38.727,28.05c0-2.994-6.222-2.994-6.222,0.473C33.395,25.679,37.838,25.679,38.727,28.05z"/>
<path fill="#F5F5F5" d="M22.282,28.069c1.071,2.788,5.425,2.38,6.222,0.43C27.899,25.365,22.872,25.098,22.282,28.069z"/>
<path fill="#45332C" d="M27.394,27.432c0,2.074-3.556,2.074-3.556,0C23.838,25.506,27.394,25.506,27.394,27.432z"/>
<path fill="#45332C" d="M22.282,28.05c0-2.992,6.222-2.992,6.222,0.472C27.617,25.679,23.171,25.679,22.282,28.05z"/>
<path fill="#D99025" d="M30.504,35.101c-1.79-0.476-4.444,0.225-4.444,0.225c1.012,0.991,1.752,2.275,4.444,2.275
	c3.085,0,3.609-1.46,4.445-2.275C34.949,35.325,32.292,34.625,30.504,35.101z"/>
<path fill="#FFFFFF" d="M26.685,35.359c1.902,1.77,5.748,1.78,7.663,0C32.318,35.457,28.728,35.457,26.685,35.359z"/>
<path fill="#E6A400" d="M38.49,25.317c-1.91-0.787-4.525-0.941-5.868-0.416c-0.282,0.11-0.273,0.788-0.023,0.72
	c1.924-0.523,4.139-0.563,5.961,0.069C38.807,25.776,38.777,25.435,38.49,25.317z"/>
<path fill="#E6A400" d="M22.519,25.317c1.91-0.787,4.523-0.941,5.867-0.416c0.282,0.11,0.273,0.788,0.023,0.72
	c-1.925-0.523-4.14-0.563-5.961,0.069C22.203,25.776,22.232,25.435,22.519,25.317z"/>
<path fill="#EA8800" d="M39.354,17.929c4.127,5.66-15.031,4.184-19.017,3.358C20.337,21.287,26.19,13.304,39.354,17.929z"/>
<path fill="#D67C00" d="M20.337,21.287c5.723,1.204,23.222,1.037,17.714-4.932C47.031,23.519,25.183,24.156,20.337,21.287z"/>
<path fill="#E6A400" d="M32.726,32.335c0,1.445-4.443,1.445-4.443,0C28.283,32.003,32.726,32.003,32.726,32.335z"/>
<path fill="#4E5E67" d="M46.129,22.83c0,2.721-31.245,2.721-31.245,0C14.884,20.111,46.129,20.111,46.129,22.83z"/>
<path fill="#302C3B" d="M41.963,21.677c0,2.342-22.913,2.342-22.913,0C19.05,8.788,41.963,8.788,41.963,21.677z"/>
</svg>
