<?xml version="1.0" encoding="utf-8"?>
<!-- Generator: Adobe Illustrator 15.0.0, SVG Export Plug-In . SVG Version: 6.00 Build 0)  -->
<!DOCTYPE svg PUBLIC "-//W3C//DTD SVG 1.1//EN" "http://www.w3.org/Graphics/SVG/1.1/DTD/svg11.dtd">
<svg version="1.1" id="Layer_1" xmlns="http://www.w3.org/2000/svg" xmlns:xlink="http://www.w3.org/1999/xlink" x="0px" y="0px"
	 width="64px" height="64px" viewBox="0 0 64 64" enable-background="new 0 0 64 64" xml:space="preserve">
<path fill="#B88A6F" d="M19.447,25.387c0.521,3.51,0.814,5.146-2.338,7.32c-2.471,1.706,11.641,15.155,25.002,13.741
	c14.174-9.49-5.264-15.645-6.459-16.215c-1.984-0.945-5.277,0.148-8.551,0.348c-1.367,0.084-1.299-3.385-0.869-4.242L19.447,25.387z
	"/>
<path fill="#946346" d="M28.471,37.313c8.207,4.789,4.924,8.412,1.871,9.285c1.904,1.725,15.484-0.779,12.406-10.076
	c-3.486,0.51-4.465,3.713-4.279,4.67C34.742,43.108,33.807,38.845,28.471,37.313z"/>
<path fill="#8E3ED6" d="M16.896,32.301c-2.521,1.633-5.297,4.461-5.859,6.831c-0.803,3.383,13.557,20.314,16.369,19.219
	c10.473-4.078,18.588-8.584,19.336-13.168c1.141-6.963-10.08-14.811-11.275-15.381c-0.574-0.271-4.834-0.07-4.313,0.27
	c3.037,1.979,3.381,3.098,3.381,3.098c13.682,2.926,8.443,6.334,2.17,11.883C26.313,44.614,18.502,31.26,16.896,32.301z"/>
<path fill="#E635DE" d="M51.463,40.503c-2.184-8.795-13.398-4.277-11.301,2.254C46.285,49.521,51.463,40.503,51.463,40.503z"/>
<path fill="#7D0C7A" d="M49.646,37.087c-0.805,2.256-2.494,4.104-2.494,4.104s-1.557-0.586-2.604-0.34
	c-0.197-2.08-2.199-1.99-1.752,0.527C47.498,49.009,52.305,38.251,49.646,37.087z"/>
<path fill="#0FB4D4" d="M49.129,44.499c-2.182-8.797-23.664,2.307-23.248,10.977C32.002,62.237,49.129,44.499,49.129,44.499z"/>
<path fill="#018BC9" d="M49.129,44.499c-0.74-2.992-2.746-3.855-6.332-3.121c1.584,5.676-0.07,3.828-16.916,14.098
	C30.182,69.136,53.254,54.96,49.129,44.499z"/>
<path fill="#B88A6F" d="M52.574,40.685c0.26-0.574-0.438-2.063-1.232-2.035c-0.221-1.244-1.65-2.727-1.695-1.563
	c-0.096,2.467-2.797,6.209-4.02,5.678c-1.418-0.613-1.23-3.947-2.127-2.725c-0.891,1.209,1.449,6.021,0.621,6.545
	c-6.918,4.35-9.85,4.568-16.383,8.717C17.354,37.638,13.082,36.669,12.191,37.675c-5.789,6.525,11.264,23.6,13.855,24.23
	c3.354,0.82,12.883-3.707,21.861-12.914C49.775,47.075,54.422,44.765,52.574,40.685z"/>
<path fill="#946346" d="M31.154,30.071c-0.826,6.801-9.23-3.582-7.627,3.547c-10.314-6.555-8.07-16.122-5.77-16.827
	C23.43,20.333,31.154,30.071,31.154,30.071z"/>
<path fill="#B88A6F" d="M29.555,5.143c10.197,3.711,9.402,9.894,6.975,13.654c-1.287,1.997-0.891,3.994,0.156,6.066
	c0.646,1.277-0.57,2.104-2.465,1.412c-0.496,0.797-0.1,1.244-0.1,1.244s-1.764,0.475-1.588,0.916
	c0.439,0.158,0.736,1.361-0.469,1.426c-1.045,0.057,0.115,2.99-3.547,2.021c-2.787-0.734-5.529-2.822-7.283-6.072
	c-1.061-1.965-1.037-5.221-1.037-5.221C15.143,17.733,11.26,7.613,29.555,5.143z"/>
<path fill="#946346" d="M22.584,17.088c0.6-1.456-0.078-3.212-1.279-3.704c0,0,1.35,2.574-0.143,4.703
	C21.162,18.087,22.166,18.106,22.584,17.088z"/>
<path fill-rule="evenodd" clip-rule="evenodd" fill="#946346" d="M35.783,18.442c1.477-2.904-2.813-2.482-4.213-2.695
	C32.574,16.434,35.559,16.432,35.783,18.442z"/>
<path fill="#B07E61" d="M29.885,25.981c0.439,2.131,1.352,3.338,1.988,3.934c1.352,0.072,1.24-1.381,0.676-1.586
	C32.113,28.17,31.479,27.432,29.885,25.981z"/>
<path fill="#946346" d="M29.885,25.981c0.637,1.437,2.648,2.455,2.648,2.455c0.348,0.014,1.246,0.02,1.588-0.916
	C33.344,27.776,31.209,27.165,29.885,25.981z"/>
<path fill="#FFFFFF" d="M31.449,18.043c-0.721,2.887,1.109,3.284,1.525,3.437C33.615,21.347,36.908,17.333,31.449,18.043z"/>
<path fill="#45332C" d="M34.311,20.136c-1.125,2.021-2.277,2.042-1.254-0.778C33.807,17.288,35.217,18.512,34.311,20.136z"/>
<path fill-rule="evenodd" clip-rule="evenodd" fill="#45332C" d="M34.732,19.275c0.447-2.165-2.279-1.557-3.484-1.269
	C32.832,18.317,34.109,18.034,34.732,19.275z"/>
<path fill="#875B49" d="M38.449,12.946c-0.766,2.064-12.486,2.434-15.48-0.709c-5.393,3.744-3.449,18.613,0.559,21.381
	C5.064,27.028,10.865,7.122,19.369,2.846C26.836-0.906,39.994,8.788,38.449,12.946z"/>
<path fill="#6B4435" d="M38.449,12.946c-0.766,2.064-12.379,2.834-15.373-0.309c-5.393,3.744-3.557,18.213,0.451,20.981
	c-10.17-5.668-5.42-22.918-0.721-23.543C27.639,14.192,35.795,13.981,38.449,12.946z"/>
</svg>
