<?xml version="1.0" encoding="utf-8"?>
<!-- Generator: Adobe Illustrator 15.0.0, SVG Export Plug-In . SVG Version: 6.00 Build 0)  -->
<!DOCTYPE svg PUBLIC "-//W3C//DTD SVG 1.1//EN" "http://www.w3.org/Graphics/SVG/1.1/DTD/svg11.dtd">
<svg version="1.1" id="Layer_1" xmlns="http://www.w3.org/2000/svg" xmlns:xlink="http://www.w3.org/1999/xlink" x="0px" y="0px"
	 width="64px" height="64px" viewBox="0 0 64 64" enable-background="new 0 0 64 64" xml:space="preserve">
<path fill="#B88A6F" d="M37.337,27.839c-1.943,2.367-8.388,7.119-11.339,7.119c-0.469-2.695,0.878-4.854,0.739-7.438
	C26.737,27.521,35.471,24.396,37.337,27.839z"/>
<path fill="#B88A6F" d="M47.602,9.688c-1.913,2.746-3.214,1.797-7.688,6.105c-1.02,0.98,2.564,4.436,2.564,4.436
	s4.412-4.082,7-7.043c1.09-1.246,4.556-5.49,6.35-6.057c3.777-1.191,8.278,0.311,5.09-1.855c-1.496-1.017-2.926-0.617-5.438-2.962
	c-0.576-0.535-1.396-0.328-1.562,0.199C52.388,7.368,49.261,7.306,47.602,9.688z"/>
<path fill="#B88A6F" d="M16.399,9.688c1.912,2.746,3.213,1.797,7.688,6.105c1.019,0.98-2.564,4.436-2.564,4.436
	s-4.412-4.082-7-7.043c-1.09-1.246-4.556-5.49-6.35-6.057C4.396,5.938-0.105,7.44,3.083,5.274C4.58,4.258,6.009,4.657,8.522,2.313
	c0.576-0.535,1.396-0.328,1.562,0.199C11.613,7.368,14.739,7.306,16.399,9.688z"/>
<path fill="#302C3B" d="M26.737,27.521c0,0,5.492-1.688,10.527,0c2.577-1.889,6.621-8.332,6.621-8.332
	c-2.043-3.863-3.236-4.563-3.236-4.563s-6.228,4.195-7.037,4.564c-0.541,0.244-2.683,0.244-3.223,0
	c-0.811-0.369-7.039-4.564-7.039-4.564s-1.192,0.699-3.235,4.563C20.115,19.188,23.798,24.694,26.737,27.521z"/>
<path fill="#B88A6F" d="M44.403,38.021l1.907-3.234c0.7,0.383,2.573,0.951,5.274,2.779c2.031,1.375,5.072,5.586,6.051,6.285
	c3.625,2.586,4.774,4.584,3.29,6.301c0,0,0.062,0.764-0.54,1.119c-0.953,0.561-2.458-1.352-2.458-1.352
	c-0.504,0.896-1.69-0.309-2.479-3.482c-0.438-1.76-4.344-4.229-5.531-5.826C48.254,39.372,46.491,39.222,44.403,38.021z"/>
<path fill="#946346" d="M39.38,39.382c-1.943,2.367-4.357,2.836-7.309,2.836C29.915,37.581,36.665,34.374,39.38,39.382z"/>
<path fill="#B88A6F" d="M24.195,59.722c-3.673,1.461-7.43,2.279-1.051,2.279c1.857,0,2.451-0.514,5.087-0.514
	c1.304,0,1.643,0.514,2.835,0.514c0.394,0,0.533-0.771,0.004-0.98c-1.472-0.584-2.732-1.326-2.843-3.225
	c-0.359-6.227,0.646-9.363,1.023-18.068h-4.157c-0.234,7.105,0.848,9.48,0.534,14.691C25.417,57.915,25.257,59.298,24.195,59.722z"
	/>
<path fill="#8E3ED6" d="M24.792,47.729c0,0,2.773-0.344,4.042,0.602c0,0,1.333-4.227,4-5.914c-0.053-3.803,4.407-5.207,6.116-2.479
	c0,0,2.86-0.031,6.207-1.25c0,0,0.284-1.748,2.135-4.293c0,0-3.769-0.248-6.291-1c-0.938-2.5-3.125-3.096-3.191-6.422
	c0,0-11.314,4.047-13.539,6.672C25.316,40.657,23.813,42.521,24.792,47.729z"/>
<path fill="#875B49" d="M53.655,41.359c-1.943,1.219-2.458,3.076-0.315,6.301c5.173,7.781-4.345,14.02-8.319,8.902l1.904-2.219
	c1.969,1.188,4.018-1.174,1.992-4.648C46.829,46.11,48.046,41.844,53.655,41.359z"/>
<path fill="#8E3ED6" d="M43.744,57.02c-1.959-0.859,2.187-6.844,3.271-3.51C47.623,55.383,44.987,57.568,43.744,57.02z"/>
<path fill="#875B49" d="M41.728,58.2c-5.419,1.973-9.161-0.628-11.363-5.15c-1.168-2.397-1.244-4.402,0.293-6.643
	c1.811-2.639,8.887-5.214,11.969-4.356c2.617,0.729,3.848,2.313,4.495,4.9c1.862,7.453-2.058,8.314-2.058,8.314
	S45.295,56.902,41.728,58.2z"/>
<path fill="#B07E61" d="M31.558,48.209c1.9,3.882,1.139,5.115-1.387,2.742C29.853,49.463,30.216,47.641,31.558,48.209z"/>
<path fill="#B07E61" d="M43.095,44.009c1.618,4.212,1.752,5.274,3.156,2.036C45.833,44.452,43.893,42.448,43.095,44.009z"/>
<path fill="#B88A6F" d="M45.616,47.49c-4.006,5.121-2.197,6.432-2.197,6.432c-7.361-1.152-11.541-1.441-11.541-1.441
	s-0.844-2.311-1.254-4.819c-0.398-2.448,2.104-6.822,4.471-7.685c2.367-0.861,7.096,0.881,8.363,3.014
	C44.757,45.176,45.616,47.49,45.616,47.49z"/>
<path fill="#6B4435" d="M30.17,50.946c3.251,2.839,11.087-0.22,13.851,3.554C37.772,52.268,32.219,54.636,30.17,50.946z"/>
<path fill="#6B4435" d="M46.251,46.046c-2.172,3.637-6.165,7.017-2.23,8.454C41.929,51.629,45.44,49.967,46.251,46.046z"/>
<path fill="#F5F5F5" d="M43.728,46.293c-1.408-1.62-4.248-0.273-4.307,1.239C40.601,49.5,44.062,48.445,43.728,46.293z"/>
<path fill="#45332C" d="M40.349,47.75c-0.604-1.66,1.798-2.535,2.402-0.874C43.312,48.417,40.91,49.291,40.349,47.75z"/>
<path fill="#45332C" d="M43.733,46.307c0.735,2.021-3.467,3.551-4.318,1.209C40.714,49.218,43.715,48.125,43.733,46.307z"/>
<path fill="#F5F5F5" d="M32.623,50.334c0.038-2.146,3.079-2.939,4.097-1.818C37.081,50.779,33.752,52.197,32.623,50.334z"/>
<path fill="#45332C" d="M36.147,49.279c-0.604-1.66-3.006-0.787-2.4,0.873C34.308,51.693,36.708,50.82,36.147,49.279z"/>
<path fill="#45332C" d="M32.628,50.348c0.736,2.021,4.938,0.492,4.086-1.848C36.813,50.638,33.812,51.73,32.628,50.348z"/>
<path fill="#80553C" d="M39.42,42.394c-0.798-0.433-1.562-1.436-3.646-0.678c-1.818,0.661-1.957,1.841-2.357,2.862L39.42,42.394z"/>
<path fill="#FFFFFF" d="M39.037,42.512c-1.695-0.816-4.468,0.172-5.253,1.911L39.037,42.512z"/>
<path fill="#80553C" d="M36.456,43.588c-0.988,0.943-1.178,0.451-3.039,0.99c2.199-1.092,3.615-1.607,6.004-2.185
	C37.647,43.177,37.819,43.676,36.456,43.588z"/>
<path fill="#946346" d="M44.134,48.199c-1.082,0.988-2.787,1.724-3.809,1.7c-0.216-0.005-0.374-0.459-0.191-0.475
	c1.41-0.118,2.896-0.628,3.957-1.491C44.232,47.816,44.296,48.052,44.134,48.199z"/>
<path fill="#946346" d="M33.493,52.072c1.463,0.061,3.24-0.471,4.008-1.145c0.162-0.143-0.008-0.593-0.158-0.486
	c-1.155,0.816-2.621,1.379-3.99,1.398C33.169,51.843,33.272,52.063,33.493,52.072z"/>
<path fill="#946346" d="M38.58,44.757c-0.351-0.964-3.312,0.114-2.961,1.077C35.7,46.056,38.661,44.978,38.58,44.757z"/>
</svg>
