<?xml version="1.0" encoding="utf-8"?>
<!-- Generator: Adobe Illustrator 15.0.0, SVG Export Plug-In . SVG Version: 6.00 Build 0)  -->
<!DOCTYPE svg PUBLIC "-//W3C//DTD SVG 1.1//EN" "http://www.w3.org/Graphics/SVG/1.1/DTD/svg11.dtd">
<svg version="1.1" id="Layer_1" xmlns="http://www.w3.org/2000/svg" xmlns:xlink="http://www.w3.org/1999/xlink" x="0px" y="0px"
	 width="64px" height="64px" viewBox="0 0 64 64" enable-background="new 0 0 64 64" xml:space="preserve">
<path fill="#CFD8DD" d="M36.79,35.242c2.993-1.877,11.102-1.706,11.102-1.706c2.295,2.706,4.764,7.284,5.677,11.066
	c0,0,2.338,5.043,4.289,12.992h-4.49c-3.782-7.374-7.261-11.693-10.299-15.956c-0.258-0.361-0.872-0.837-1.75-0.004
	c-1.645,1.564-4.094,3.358-7.015,5.045c2.702,2.209,2.677,5.151,5.858,10.915h-4.423c0,0-8.542-9.827-7.627-12.067
	C29.121,43.039,35.665,36.561,36.79,35.242z"/>
<path fill="#4E5E67" d="M18.705,26.287c0,0,3.669-1.89,5.785,0.355C26.006,25.116,21.772,23.196,18.705,26.287z"/>
<path fill="#99A8AE" d="M24.4,30.211c0,0-1.357,0.822-3.52,0.8l0.219-4.68c2.015,0.021,3.363,0.5,3.363,0.5L24.4,30.211z"/>
<path fill="#6E8189" d="M17.1,28.711c-0.063,1.919,1.779,3.516,2.935,3.539c1.154,0.021,1.183-1.54,1.246-3.455
	c0.062-1.92,0.043-3.473-1.112-3.495C19.015,25.276,17.162,26.795,17.1,28.711z"/>
<path fill="#4E5E67" d="M18.04,26.49c0.055,0.503,0.254,1.48,0.899,0.973c0.84-0.662,2.189-1.822,2.355,0.252
	c0.002,0.342-0.002,0.702-0.015,1.08c-0.063,1.915-0.092,3.477-1.246,3.455c-1.155-0.023-2.997-1.62-2.935-3.539
	C17.125,27.855,17.521,27.089,18.04,26.49z"/>
<path fill="#6E8189" d="M18.783,27.931L2,28.441l17.19,0.247C19.208,28.236,19.024,27.933,18.783,27.931z"/>
<path fill="#302C3B" d="M18.729,29.562L2,28.441l17.19,0.247C19.176,29.142,18.968,29.565,18.729,29.562z"/>
<path fill="#FFFFFF" d="M20.692,31.425c0.128,0.113-0.12,0.572-0.526,0.566c-1.706-0.017-2.646-2.048-2.646-2.048
	s1.192,1.64,2.617,1.657C20.395,31.603,20.607,31.348,20.692,31.425z"/>
<path fill="#CFD8DD" d="M23.754,26.571c3.911,0.254,6.849-0.41,8.502-0.418c1.701-3.442,4.883-7.354,4.883-7.354
	c1.067-0.93,8.332-0.61,8.332-0.61s-9.957,12.705-13.215,12.705c-0.893,0-8.742-0.16-8.742-0.16
	C24.964,27.903,23.754,26.571,23.754,26.571z"/>
<path fill="#CFD8DD" d="M44.138,18.399c0,0-0.056-1.493,1.193-3.707c1.425-2.521,3.054-11.794-6.036-11.794v15.423L44.138,18.399z"
	/>
<path fill="#99A8AE" d="M34.353,10.057c0,4.179,2.55,7.564,4.577,7.564c2.024,0,3.666-3.386,3.666-7.564
	c0-4.176-1.521-7.564-3.544-7.564C37.026,2.492,34.353,5.881,34.353,10.057z"/>
<path fill="#302C3B" d="M33.957,10.057c0,3.654,2.099,6.621,3.618,6.621c1.517,0,2.745-2.967,2.745-6.621
	c0-3.655-1.229-6.618-2.745-6.618C36.056,3.438,33.957,6.401,33.957,10.057z"/>
<polygon fill="#99A8AE" points="37.887,9.71 38.796,11.048 37.887,12.388 36.976,11.048 "/>
<polygon fill="#99A8AE" points="38.07,14.519 37.431,15.463 36.79,14.519 37.431,13.577 "/>
<polygon fill="#99A8AE" points="35.775,12.793 35.322,13.461 34.867,12.793 35.322,12.125 "/>
<polygon fill="#99A8AE" points="36.551,12.793 36.096,12.123 36.551,11.456 37.006,12.123 "/>
<polygon fill="#99A8AE" points="38.526,8.292 38.07,8.964 37.617,8.292 38.07,7.626 "/>
<polygon fill="#99A8AE" points="37.887,5.846 38.339,5.178 38.792,5.846 38.339,6.515 "/>
<polygon fill="#99A8AE" points="36.551,4.665 37.004,3.997 37.459,4.665 37.004,5.333 "/>
<polygon fill="#99A8AE" points="39.128,9.392 39.583,10.057 39.128,10.723 38.674,10.057 "/>
<polygon fill="#99A8AE" points="39.249,13.67 38.792,14.34 38.339,13.67 38.792,13.002 "/>
<polygon fill="#99A8AE" points="35.643,9.826 36.094,9.159 36.551,9.826 36.094,10.494 "/>
<polygon fill="#99A8AE" points="35.589,8.294 35.27,7.819 35.589,7.351 35.908,7.819 "/>
<polygon fill="#99A8AE" points="35.521,5.648 35.842,5.178 36.164,5.648 35.842,6.121 "/>
<polygon fill="#99A8AE" points="34.547,10.985 34.866,10.516 35.188,10.985 34.866,11.46 "/>
<polygon fill="#99A8AE" points="36.229,14.519 35.908,14.989 35.591,14.519 35.908,14.048 "/>
<polygon fill="#99A8AE" points="36.006,7.114 36.683,6.121 37.361,7.114 36.683,8.112 "/>
<path fill="#99A8AE" d="M37.361,18.398c1.231-0.674,0.021,1.881,1.669,1.983c2.447,0.153,4.587-5.023,7.599-2.337
	c0,0,1.772,8.151,1.263,15.491c0,0-5.018,6.859-4.823,8.103c-0.491,0.021-1.22,0.118-1.75-0.004
	c-3.763-2.781-4.528-6.393-4.528-6.393C35.025,29.354,35.384,19.48,37.361,18.398z"/>
<path fill="#99A8AE" d="M57.722,9.449L54.58,8.792c-1.432-3.089-1.18-4.353-0.263-4.003c0,0-0.151-2.589,0.887-2.777
	c0.655-0.119,1.146,0.689,1.146,0.689C58.484,3.038,58.815,5.519,57.722,9.449z"/>
<path fill="#CFD8DD" d="M47.226,22.692c-3.636,0.358-3.744-4.69-0.843-4.951c2.668-0.24,5.092-0.988,6.654-1.894
	c0.59-2.863,1.577-2.493,1.375-7.243l3.563,0.73c0,0-0.227,6.463-1.464,8.794C55.365,20.289,49.596,22.458,47.226,22.692z"/>
<path fill="#99A8AE" d="M35.739,57.595c-0.698,1.604-5.366,1.342-5.366,4.405h9.758c0,0,0.699-2.512,0.031-4.405H35.739z"/>
<path fill="#99A8AE" d="M53.367,57.595C52.671,60.6,53.506,62,53.506,62H62c0,0-0.243-2.202-4.143-4.405H53.367z"/>
</svg>
