<?xml version="1.0" encoding="utf-8"?>
<!-- Generator: Adobe Illustrator 15.0.0, SVG Export Plug-In . SVG Version: 6.00 Build 0)  -->
<!DOCTYPE svg PUBLIC "-//W3C//DTD SVG 1.1//EN" "http://www.w3.org/Graphics/SVG/1.1/DTD/svg11.dtd">
<svg version="1.1" id="Layer_1" xmlns="http://www.w3.org/2000/svg" xmlns:xlink="http://www.w3.org/1999/xlink" x="0px" y="0px"
	 width="64px" height="64px" viewBox="0 0 64 64" enable-background="new 0 0 64 64" xml:space="preserve">
<path fill="#018BC9" d="M2,43.078c31.967,15.957,32.531-11.338,60,3.529V62H2V43.078z"/>
<path fill="#B88A6F" d="M49.411,15.314l-4.554,8.02c0,0-2.985,2.278-5.982,3.011c-3.472-0.199-8.461,1.176-12.315,3.238
	c-1.563,0.208-4.12,1.208-4.729,4.042c-1.234,2.104-4.854,3.901-5.666,5.25c-3.232,0.654-4.652,2.062-7.158,2.288
	c-4.008,0.36-6.026,2.291-6.218,4.368c0,0-1.096,0.917-0.705,1.702c0.618,1.244,3.478-0.028,3.478-0.028
	c-0.036,1.314,1.484,0.656,4.418-2.461c2.044-1.11,7.46-2.071,9.318-3.01c1.135-0.576,2.84-1.254,3.908-2.6
	c0,4.74,2.815,4.324-2.415,16.699L36.665,52c1.479-8.908,1.957-7.094,2.801-15.063c0.283-2.664,4.32-5.992,8.021-9.357
	c2.514-2.287,5.736-10.797,5.736-10.797L49.411,15.314z"/>
<path fill="#F59E01" d="M56.965,3.096c4.632,2.429,6.385,8.099,3.916,12.674c-2.468,4.576-8.219,6.312-12.847,3.887
	c-4.629-2.425-6.386-8.099-3.916-12.67C46.587,2.408,52.34,0.669,56.965,3.096z"/>
<path fill="#D47706" d="M50.534,16.505c-4.525-2.37-6.294-7.843-4.064-12.357c-0.938,0.763-1.745,1.714-2.352,2.839
	c-2.47,4.571-0.713,10.245,3.916,12.67c4.628,2.425,10.379,0.689,12.847-3.887c0.056-0.104,0.099-0.21,0.149-0.314
	C58.153,17.794,54.024,18.334,50.534,16.505z"/>
<path fill="#AB5C10" d="M59.424,4.959c-4.948,0.568-8.286,2.461-9.588,3.326c-0.291-0.471-0.541-1.045-0.723-1.708
	c0.67-0.698,2.893-2.684,7.242-3.762c-0.886-0.388-1.8-0.633-2.723-0.739c-2.308,0.859-3.859,1.926-4.793,2.723
	c-0.031-0.633,0.023-1.35,0.127-2.112c-0.551,0.22-1.085,0.49-1.589,0.811c-0.373,5.644,3.188,7.816,4.456,8.402
	c0.043,0.409,0.061,1.128-0.151,1.98c-1.396-0.636-4.773-2.52-7.604-6.807c-0.285,0.538-0.514,1.087-0.682,1.646
	c2.945,4.089,6.29,5.915,7.754,6.558c-0.258,0.48-0.619,0.972-1.088,1.451c-0.952-0.24-3.854-1.224-7.025-4.617
	c0.072,0.926,0.285,1.84,0.629,2.703c1.993,1.729,3.793,2.61,4.999,3.043c-0.544,0.354-1.175,0.682-1.907,0.979
	c0.396,0.299,0.816,0.581,1.275,0.819c0.088,0.045,0.177,0.078,0.263,0.122c5.029-2.504,5.115-6.687,4.988-8.083
	c0.322-0.238,0.909-0.599,1.716-0.842c0.041,1.599-0.105,5.444-2.007,9.874c0.584-0.029,1.159-0.115,1.726-0.251
	c1.761-4.512,1.829-8.334,1.759-9.878c0.559-0.022,1.179,0.049,1.845,0.22c0.268,0.941,0.859,3.885-0.402,8.237
	c0.732-0.502,1.401-1.111,1.976-1.818c0.463-2.548,0.324-4.52,0.1-5.763c0.604,0.311,1.235,0.718,1.894,1.245
	c0.088-0.595,0.117-1.186,0.092-1.776c-4.735-3.276-8.442-1.23-9.597-0.412c-0.367-0.162-0.978-0.494-1.593-1.084
	c1.339-0.852,4.765-2.684,9.741-3.074C60.213,5.871,59.842,5.397,59.424,4.959z"/>
<path fill="#946346" d="M27.021,38.059c0.027,1.346-1.976,1.474-2,0.128C24.995,36.838,26.997,36.71,27.021,38.059z"/>
<path fill="#946346" d="M34.939,36.552c0.024,1.351-1.976,1.477-2.001,0.129C32.911,35.334,34.911,35.207,34.939,36.552z"/>
<path fill="#B88A6F" d="M30.789,21.437l3.197-1.816c0,0-0.927,4.764,1.104,7.13c1.807,2.104-9.069,6.776-7.16,4.016
	C29.274,28.823,30.789,21.437,30.789,21.437z"/>
<path fill="#946346" d="M26.021,26.563c2.087,1.304,2.034,4.69,2.034,4.69c2.907,0,3.771-6.264,3.771-9.817L26.021,26.563z"/>
<path fill="#0FB4D4" d="M2,62h60v-9.569C34.533,37.563,33.967,63.858,2,47.9V62z"/>
<path fill="#75D6FF" d="M62,55.313c-18.583-2.318-25.82,8.89-60,0.707V62h60V55.313z"/>
<ellipse opacity="0.2" fill="#FFE12C" cx="54.015" cy="8.347" rx="6.365" ry="5.76"/>
<path fill="#B88A6F" d="M29.408,7.644c-8.665,0-10.704,4.866-9.869,8.341c0.418,1.738-0.435,3.194-1.726,4.444
	c-1.228,1.188,0.331,1.949,1.281,1.949c0.232,0.639-0.13,0.81-0.13,0.81s1.193,0.836,0.939,1.119c-0.371,0-0.692,0.684-0.012,1.019
	c0.75,0.369-1.027,3.048,1.99,2.828c2.442-0.179,6.411-1.795,7.03-2.333c0.704-0.614,2.39-4.031,2.39-4.031
	C35.876,21.026,42.459,14.494,29.408,7.644z"/>
<path fill="#B07E61" d="M22.617,23.155c-0.91,1.48-1.899,2.183-2.538,2.457c-1.033-0.316-0.579-1.422-0.101-1.422
	C20.349,24.19,21.026,23.81,22.617,23.155z"/>
<path fill="#946346" d="M22.617,23.155c-0.868,0.905-2.657,1.12-2.657,1.12c-0.264-0.085-0.995-0.294-0.995-1.087
	C19.478,23.591,21.302,23.682,22.617,23.155z"/>
<path fill-rule="evenodd" clip-rule="evenodd" fill="#946346" d="M20.182,16.265c0.4-0.688,1.403-0.404,4.135-0.423
	C22.477,14.801,19.932,14.337,20.182,16.265z"/>
<path fill="#FFFFFF" d="M23.542,17.15c-0.248,2.362-1.729,2.161-2.083,2.161C21.014,19.037,19.64,15.125,23.542,17.15z"/>
<path fill="#45332C" d="M20.769,17.687c0.293,1.823,1.15,2.155,1.153-0.24C21.926,15.688,20.532,16.221,20.769,17.687z"/>
<path fill-rule="evenodd" clip-rule="evenodd" fill="#45332C" d="M20.741,17.177c0.258-1.747,2.137-0.545,2.961,0
	C22.429,16.978,21.549,16.416,20.741,17.177z"/>
<path fill="#E81C27" d="M19.959,11.908c0,0,9.97-0.538,14.025,12.37l4.891-11.529C36.182,2.611,22.508,2.611,19.959,11.908z"/>
<path fill="#B00505" d="M38.875,12.749c-2.89,1.704-3.814,5.154-3.814,5.154c-2.365-2.23-4.921-0.935-4.921-0.935
	s2.384,2.553,3.845,7.31C37.37,22.559,40.226,17.771,38.875,12.749z"/>
<path fill="#E81C27" d="M34.646,19.266c0.055,4.029-5.947,4.546-6.003,0.513C28.584,15.744,34.588,15.229,34.646,19.266z"/>
</svg>
