<?xml version="1.0" encoding="utf-8"?>
<!-- Generator: Adobe Illustrator 15.0.0, SVG Export Plug-In . SVG Version: 6.00 Build 0)  -->
<!DOCTYPE svg PUBLIC "-//W3C//DTD SVG 1.1//EN" "http://www.w3.org/Graphics/SVG/1.1/DTD/svg11.dtd">
<svg version="1.1" id="Layer_1" xmlns="http://www.w3.org/2000/svg" xmlns:xlink="http://www.w3.org/1999/xlink" x="0px" y="0px"
	 width="64px" height="64px" viewBox="0 0 64 64" enable-background="new 0 0 64 64" xml:space="preserve">
<path fill="#8E3ED6" d="M40.179,27.331l-8.467-0.562c0,4.772-10.376,6.981-10.376,10.764c0,2.701,2.522,3.449,2.522,3.449
	S16,43.941,16,52.385C16,59.076,21.318,62,27.603,62h10.265c0,0,0.699-2.043-0.629-9.148C34.625,38.871,44.706,41.186,40.179,27.331
	z"/>
<path fill="#916B50" d="M20.6,46.715l0.615-1.424l1.113-0.283c2.738,0,3.547,1.742,4.862,1.742v5.719c0,0-1.062,1.037-5.433,1.037
	c-2.091,0-3.479-1.404-4.137-4.41C17.072,46.59,20.6,46.715,20.6,46.715z"/>
<path fill="#664935" d="M22.328,45.008c0,0-1.158,0.277-1.158,1.012c0,0.377,1.431-0.057,2.388,1.014
	c-1.388-0.691-2.958-0.318-2.958-0.318C19.985,46.111,20.488,45.008,22.328,45.008z"/>
<path fill="#5D1E96" d="M26.26,46.154c5.759-1.15,11.602-3.096,11.602-3.096l-0.942,7.643l0.172,1.205c0,0-3.538,1.891-10.784,2.484
	l0.021-0.635c0,0-5.363,0.775-7.062-1.213c2.688,1.215,6.993-0.184,6.993-0.184V46.154z"/>
<polygon fill="#5D1E96" points="35.995,31.5 40.13,38.725 38.801,41.158 "/>
<path fill="#8E3ED6" d="M40.857,27.315c0,0,8.047,11.951,7.059,16.822c-1.128,5.57-21.022,8.715-21.022,8.715l-0.337-6.395
	c0,0,13.108-3.131,14.769-5.361c-1.113-2.545-5.33-9.596-5.33-9.596L40.857,27.315z"/>
<path fill="#664935" d="M27.901,26.769c4.125,1.229,2.42,3.993,2.42,3.993c1.936-0.081,6.345-1.734,7.145-4.042
	c0.776-2.239,0.276-8.521,0.276-8.521L27.901,26.769z"/>
<path fill="#916B50" d="M31.684,3.695c-10.19,0.798-11.027,6.609-9.772,10.634c0.666,2.137-0.197,3.85-1.671,5.466
	c-0.907,0.997-0.012,2.053,1.882,1.903c0.249,0.848-0.223,1.155-0.223,1.155s1.48,0.875,1.209,1.231
	c-0.438,0.033-1.011,1.051,0.066,1.412c0.934,0.315-0.857,2.685,2.709,2.729c2.715,0.036,5.73-1.167,8.141-3.675
	c1.458-1.516,2.259-4.477,2.259-4.477C41.59,18.754,47.665,10.548,31.684,3.695z"/>
<path fill="#664935" d="M35,16.293c-0.178-1.473,0.88-2.896,2.093-3.039c0,0-1.873,1.995-1.057,4.304
	C36.036,17.559,35.122,17.322,35,16.293z"/>
<path fill-rule="evenodd" clip-rule="evenodd" fill="#664935" d="M22.679,14.195c-0.607-3.008,3.178-1.544,4.502-1.384
	C26.098,13.182,23.389,12.427,22.679,14.195z"/>
<path fill="#75543D" d="M26.132,22.524c-0.937,1.824-2.068,2.689-2.797,3.069c-1.245-0.275-0.777-1.566-0.213-1.61
	C23.558,23.949,24.318,23.439,26.132,22.524z"/>
<path fill="#664935" d="M26.132,22.524c-0.941,1.144-3.023,1.561-3.023,1.561c-0.319-0.075-1.135-0.297-1.209-1.231
	C22.54,23.281,24.631,23.264,26.132,22.524z"/>
<path fill="#FFFFFF" d="M26.713,14.926c-0.074,2.802-1.836,2.702-2.251,2.734C23.914,17.378,21.938,12.905,26.713,14.926z"/>
<path fill="#45332C" d="M23.589,16.104c0.511,2.117,1.553,2.427,1.333-0.391C24.764,13.646,23.176,14.401,23.589,16.104z"/>
<path fill-rule="evenodd" clip-rule="evenodd" fill="#45332C" d="M23.422,15.216c0.141-2.078,2.462-0.839,3.481-0.273
	C25.389,14.826,24.301,14.247,23.422,15.216z"/>
<path fill="#614036" d="M21.644,8.535c0.175,2.066,10.72,5.356,14.229,3.258c3.951,4.758-1.561,17.763-5.896,19.264
	c18.418-1.327,18.17-20.855,11.529-26.878C35.675-1.109,21.29,4.372,21.644,8.535z"/>
<path fill="#4A2E24" d="M21.644,8.535c0.175,2.066,10.521,5.692,14.03,3.595c3.95,4.758-1.362,17.426-5.697,18.927
	c10.659-2.581,10.695-19.433,6.588-21.185C31.142,12.391,23.792,10.144,21.644,8.535z"/>
<path fill="#8E3ED6" d="M30.502,30.111c0,0,7.16-7.831,10.355-2.796c3.045,4.798-12.478,3.994-12.478,3.994L30.502,30.111z"/>
</svg>
