<?xml version="1.0" encoding="utf-8"?>
<!-- Generator: Adobe Illustrator 15.0.0, SVG Export Plug-In . SVG Version: 6.00 Build 0)  -->
<!DOCTYPE svg PUBLIC "-//W3C//DTD SVG 1.1//EN" "http://www.w3.org/Graphics/SVG/1.1/DTD/svg11.dtd">
<svg version="1.1" id="Layer_1" xmlns="http://www.w3.org/2000/svg" xmlns:xlink="http://www.w3.org/1999/xlink" x="0px" y="0px"
	 width="64px" height="64px" viewBox="0 0 64 64" enable-background="new 0 0 64 64" xml:space="preserve">
<path fill="#EBBEA0" d="M57.066,24.377c0.88-1.529-0.44-2.502-2.524,0.173c-1.609,2.067-7.045,5.778-3.119,6.712
	c2.797,0.665,9.611-4.374,10.465-9.442C62.661,17.214,59.281,23.384,57.066,24.377z"/>
<path fill="#EBBEA0" d="M9.458,24.551c-2.083-2.676-3.404-1.703-2.524-0.173c-2.215-0.993-5.595-7.163-4.821-2.557
	c0.853,5.069,7.668,10.107,10.465,9.442C16.504,30.329,11.067,26.618,9.458,24.551z"/>
<rect x="8.958" y="29.458" fill="#EBBEA0" width="4.584" height="2.125"/>
<rect x="50.458" y="29.458" fill="#EBBEA0" width="4.584" height="2.125"/>
<path fill="#018BC9" d="M55.585,31.173h-5.709l0.205,13.101c0,0-1.922-3.742-5.027-6.279c-3.305-2.698-13.049-1.33-13.053-1.329
	c-0.006-0.001-9.75-1.369-13.053,1.329c-3.106,2.537-5.028,6.279-5.028,6.279l0.206-13.101H8.416c0,0-0.736,15.719-0.458,20.952
	c0.258,4.833,3.917,6.666,11.458-3.375C20.25,55.791,19.833,62,19.833,62H32l0,0h12.167c0,0-0.416-6.209,0.418-13.25
	c7.541,10.041,11.199,8.208,11.457,3.375C56.321,46.893,55.585,31.173,55.585,31.173z"/>
<polygon fill="#006DAE" points="15.727,41.447 13.931,43.515 13.828,48.26 "/>
<polygon fill="#006DAE" points="48.274,41.447 50.069,43.515 50.173,48.26 "/>
<path fill="#BF8D69" d="M27.45,38.369c0,4.455,9.1,4.455,9.1,0c0-2.717,0-7.208,0-7.208h-9.1
	C27.45,31.162,27.45,34.861,27.45,38.369z"/>
<path fill="#C8A35D" d="M27.988,8.401c-12.943,2.282-11.573,10.072-9.856,19.809l25.893-4.566
	C42.308,13.907,40.931,6.118,27.988,8.401z"/>
<path fill="#DEA885" d="M21.37,31.542c1.171-1.553-1.005-6.449-2.867-6.438C14.523,25.126,18.84,34.891,21.37,31.542z"/>
<path fill="#DEA885" d="M42.122,27.883c-1.633-1.059-1.264-6.404,0.491-7.032C46.36,19.512,45.646,30.165,42.122,27.883z"/>
<path fill="#EBBEA0" d="M28.903,13.593c-13.522,2.384-7.797,2.99-10.007,11.57c0,0,0.668,3.638,2.113,7.412
	c1.863,4.866,8.214,7.734,12.472,6.982c4.26-0.75,9.246-5.617,9.333-10.826c0.066-4.042-0.55-7.688-0.55-7.688
	C37.254,13.736,42.427,11.209,28.903,13.593z"/>
<path fill="#C8A35D" d="M39.032,10.579c5.988,5.763-16.702,7.984-21.527,7.84C17.505,18.419,22.699,7.886,39.032,10.579z"/>
<path fill="#A3864C" d="M17.505,18.419c6.935,0.228,27.346-3.572,19.682-9.412C49.155,15.527,23.759,20.775,17.505,18.419z"/>
<path fill="#F5F5F5" d="M40.675,22.419c-0.697,3.594-6.043,4.026-7.42,1.843C33.319,20.35,39.333,18.955,40.675,22.419z"/>
<path fill="#45332C" d="M34.44,23.148c0.523,2.969,4.818,2.212,4.295-0.757C38.249,19.635,33.956,20.392,34.44,23.148z"/>
<path fill="#45332C" d="M40.671,22.395c-0.637-3.615-8.15-2.29-7.412,1.896C33.728,20.668,39.093,19.722,40.671,22.395z"/>
<path fill="#F5F5F5" d="M20.82,25.92c1.886,3.139,7.056,1.716,7.604-0.807C27.025,21.459,20.898,22.205,20.82,25.92z"/>
<path fill="#45332C" d="M26.929,24.473c0.523,2.969-3.771,3.727-4.293,0.757C22.148,22.475,26.442,21.718,26.929,24.473z"/>
<path fill="#45332C" d="M20.815,25.896c-0.637-3.614,6.876-4.938,7.614-0.754C26.752,21.897,21.385,22.844,20.815,25.896z"/>
<path fill="#F5F5F5" d="M34.579,22.38c0.131,0.743,1.203,0.554,1.072-0.189C35.53,21.502,34.456,21.691,34.579,22.38z"/>
<path fill="#F5F5F5" d="M23.952,24.099c0.131,0.742-0.941,0.931-1.072,0.189C22.758,23.599,23.831,23.41,23.952,24.099z"/>
<path fill="#BF8D69" d="M39.405,17.875c-2.441-0.536-5.588-0.17-7.077,0.737c-0.314,0.191-0.162,0.998,0.123,0.864
	c2.182-1.028,4.813-1.542,7.118-1.17C39.878,18.356,39.771,17.956,39.405,17.875z"/>
<path fill="#BF8D69" d="M20.404,21.38c2.111-1.339,5.192-2.071,6.901-1.728c0.361,0.073,0.493,0.882,0.18,0.854
	c-2.402-0.22-5.05,0.197-7.086,1.335C20.124,21.995,20.088,21.581,20.404,21.38z"/>
<path fill="#BF8D69" d="M34.38,29.08c0.305,1.724-4.99,2.657-5.295,0.935C29.016,29.618,34.31,28.684,34.38,29.08z"/>
<path fill="#6B4435" d="M35.337,33.076c-1.594,0.381-3.676,0.674-5.547,0.664c-0.71-0.004-1.021,1.01-0.277,1.049
	c2.091,0.107,4.461-0.287,6.084-1.182C35.987,33.391,35.722,32.985,35.337,33.076z"/>
</svg>
