<?xml version="1.0" encoding="utf-8"?>
<!-- Generator: Adobe Illustrator 15.0.0, SVG Export Plug-In . SVG Version: 6.00 Build 0)  -->
<!DOCTYPE svg PUBLIC "-//W3C//DTD SVG 1.1//EN" "http://www.w3.org/Graphics/SVG/1.1/DTD/svg11.dtd">
<svg version="1.1" id="Layer_1" xmlns="http://www.w3.org/2000/svg" xmlns:xlink="http://www.w3.org/1999/xlink" x="0px" y="0px"
	 width="64px" height="64px" viewBox="0 0 64 64" enable-background="new 0 0 64 64" xml:space="preserve">
<path fill="#916B50" d="M44.133,38.237l2.563-4.348c1.289,0.703,2.611,1.215,3.504,1.555c2.521,0.965,4.684,4.465,8.273,6.951
	c3.416,2.365,4.322,5.145,2.838,6.861c0,0,0.139,0.961-0.463,1.316c-0.953,0.561-2.535-1.549-2.535-1.549
	c-0.504,0.896-1.504-0.146-2.422-3.285c-0.715-2.436-3.715-3.156-6.186-5.586C47.852,40.05,44.813,38.563,44.133,38.237z"/>
<path fill="#916B50" d="M39.307,39.38c-1.943,2.367-4.357,2.836-7.308,2.836C29.842,37.579,36.592,34.372,39.307,39.38z"/>
<path fill="#916B50" d="M23.136,59.614c-4.377,1.531-6.846,2.387-1.252,2.387c4.771,0,4.806-0.754,6.062-0.537
	c1.445,0.25,1.957,0.537,3.379,0.537c1.42,0,1.307-0.91-0.504-1.418c-1.709-0.48-2.25-1.188-2.656-2.875
	c-0.682-2.832-1.486-8.896-1.486-8.896s0.477-2.264,2.482-5.791l-4.953-1.346c-2.48,8.283-2.262,4.369,0.207,14.939
	C24.737,57.993,24.401,59.171,23.136,59.614z"/>
<path fill="#92C932" d="M23.136,42.517c0,0,3.724,0.797,4.914,3.576c0,0,0.398-1.43,1.303-3.246
	c0.305-0.227,1.035-0.596,2.646-0.631c-0.053-3.803,5.599-5.564,7.308-2.836c0,0,0.004-0.002,2.127-0.734l2.873,0.105
	c0,0,2.076-2.717,3.178-5.383c0,0-6.184,0.533-9.869-6.227l-5.039-2.383l-4.279,3.393c0,0-2.158,3.559-2.297,9.121
	C25.466,38.05,24.29,39.88,23.136,42.517z"/>
<path fill="#CFD8DD" d="M49.553,6.507l-3.818-1.082c-0.373-1.426-0.23-1.773-0.23-1.799c0.002-0.881,0.695-1.607,1.557-1.627h8.215
	C55.043,4.19,51.834,6.239,49.553,6.507z"/>
<path fill="#916B50" d="M45.734,5.425l3.818,1.082c0,0-1.918,5.143-2.938,8.939c-0.324,1.188-1.236,1.586-1.619,2.082
	c-2.4,3.074-7.119,6.369-7.119,6.369l-4.113-4.623c0,0,3.447-3.332,6.979-5.205c0.35-0.186,1.713-1.25,1.898-2.436
	C43.006,9.347,45.281,7.374,45.734,5.425z"/>
<path fill="#CFD8DD" d="M9.323,15.437l2.609-3.027c-0.453-1.402-0.762-1.611-0.773-1.635c-0.479-0.736-1.451-0.957-2.184-0.496
	l-6.975,4.414C3.38,16.396,7.272,16.481,9.323,15.437z"/>
<path fill="#916B50" d="M11.933,12.409l-2.609,3.027c0,0,4.072,2.783,6.494,5.865c0.764,0.965,1.76,0.969,2.305,1.27
	c3.406,1.875,9.031,3.029,9.031,3.029l1.975-5.883c0,0-5.332-1.852-9.31-2.172c-0.393-0.029-1-0.023-1.797-0.914
	C16.481,14.921,13.366,13.786,11.933,12.409z"/>
<path fill="#302C3B" d="M22.56,25.128c0,0,0.6-4.287,4.009-7.037c0,0,4.316,1.908,5.322,1.805c1.018-0.107,4.542-3.424,4.542-3.424
	s3.404,1.924,5.811,5.787l-4.629,4.883c0,0-2.578-1.254-9.318,1.01C28.297,28.151,25.704,27.333,22.56,25.128z"/>
<path fill="#614036" d="M42.084,57.993c7.407-2.695,5.787-7.154,3.758-12.727L31.024,50.66
	C33.053,56.233,34.676,60.69,42.084,57.993z"/>
<path fill="#75543D" d="M43.583,43.635c-0.531,1.039,1.265,3.705,2.364,3.505C48.295,46.712,44.728,41.393,43.583,43.635z"/>
<path fill="#75543D" d="M31.706,47.958c1.074,0.455,1.413,3.65,0.442,4.204C30.075,53.345,29.387,46.977,31.706,47.958z"/>
<path fill="#916B50" d="M41.002,55.022c7.739-2.817,4.295-2.578,4.706-7.877c0,0-0.773-2.08-2.021-4.158
	c-1.607-2.68-5.657-3.713-8.094-2.826c-2.438,0.887-4.876,4.282-4.384,7.367c0.381,2.395,1.125,4.484,1.125,4.484
	C36.055,55.808,33.262,57.839,41.002,55.022z"/>
<path fill="#F5F5F5" d="M33.284,50.925c0.036-2.126,3.048-2.912,4.056-1.803C37.697,51.365,34.4,52.769,33.284,50.925z"/>
<path fill="#45332C" d="M36.773,49.878c-0.598-1.645-2.976-0.779-2.377,0.866C34.951,52.271,37.33,51.405,36.773,49.878z"/>
<path fill="#45332C" d="M33.289,50.937c0.729,2.003,4.889,0.488,4.045-1.83C37.432,51.225,34.46,52.307,33.289,50.937z"/>
<path fill="#F5F5F5" d="M44.281,46.921c-1.395-1.604-4.208-0.27-4.266,1.229C41.183,50.097,44.609,49.053,44.281,46.921z"/>
<path fill="#45332C" d="M40.935,48.364c-0.599-1.645,1.779-2.51,2.378-0.865C43.868,49.025,41.49,49.891,40.935,48.364z"/>
<path fill="#45332C" d="M44.285,46.935c0.729,2.002-3.432,3.516-4.275,1.199C41.295,49.818,44.268,48.737,44.285,46.935z"/>
<path fill="#734A2E" d="M37.07,44.222c1.314-0.117,2.918-1.232,2.918-1.232c-0.917-0.416-1.725-1.096-3.525-0.439
	c-2.064,0.75-2.059,1.854-2.419,2.604C34.044,45.153,35.99,44.976,37.07,44.222z"/>
<path fill="#FFFFFF" d="M39.562,43.118c-1.702-0.72-4.276,0.209-5.124,1.865C35.771,44.425,38.172,43.55,39.562,43.118z"/>
<path fill="#664935" d="M34.111,52.706c1.469,0.063,3.256-0.471,4.025-1.148c0.162-0.143-0.009-0.595-0.16-0.488
	c-1.158,0.819-2.631,1.385-4.003,1.405C33.789,52.478,33.893,52.698,34.111,52.706z"/>
<path fill="#664935" d="M44.791,48.819c-1.084,0.992-2.795,1.73-3.82,1.707c-0.217-0.006-0.375-0.461-0.191-0.477
	c1.414-0.118,2.905-0.631,3.969-1.497C44.892,48.436,44.955,48.671,44.791,48.819z"/>
<path fill="#614036" d="M35.333,57.858c-4.137-2.781,9.034-6.457,11.899-6.875C47.232,50.983,45.262,57.747,35.333,57.858z"/>
<path fill="#4A2E24" d="M47.232,50.983c-4.12,0.588-15.781,4.959-10.646,7.61C28.838,55.988,43.293,50.244,47.232,50.983z"/>
<path fill="#664935" d="M36.258,46.611c-0.352-0.966,2.621-2.048,2.973-1.082C39.311,45.752,36.339,46.833,36.258,46.611z"/>
</svg>
