<?xml version="1.0" encoding="utf-8"?>
<!-- Generator: Adobe Illustrator 15.0.0, SVG Export Plug-In . SVG Version: 6.00 Build 0)  -->
<!DOCTYPE svg PUBLIC "-//W3C//DTD SVG 1.1//EN" "http://www.w3.org/Graphics/SVG/1.1/DTD/svg11.dtd">
<svg version="1.1" id="Layer_1" xmlns="http://www.w3.org/2000/svg" xmlns:xlink="http://www.w3.org/1999/xlink" x="0px" y="0px"
	 width="64px" height="64px" viewBox="0 0 64 64" enable-background="new 0 0 64 64" xml:space="preserve">
<path fill="#FDCA47" d="M51.77,12.34c0,0-0.787,4.607,0.344,7.698C44.873,25.097,45.545,12.48,51.77,12.34z"/>
<path fill="#E6A400" d="M37.279,26.964c3.771,0.814,9.494,4.008,11.012,3.531l-1.022-4.27c-3.644-1.078-7.579-0.439-8.749-3.066
	c-1.021-2.283-2.647-2.313-2.041-0.732c0,0-2.36-1.977-3.781-0.127C31.244,24.197,34.036,26.257,37.279,26.964z"/>
<path fill="#E6A400" d="M42.806,41.82c0.347-2.377,4.563,0.18,4.563,0.18c-0.808,0.957-0.214,2.541,0.899,4.971l-4.611,0.197
	C43.656,47.168,42.462,44.189,42.806,41.82z"/>
<path fill="#E6EBEF" d="M50.166,52.695h-4.463c-0.426-2.088-2.047-5.527-2.047-5.527l5.503-0.449
	C49.852,48.23,50.401,50.16,50.166,52.695z"/>
<path fill="#302C3B" d="M50.439,49.719c0,0-1.815,0.611-5.707,0.467l0.308,1.988c-3.69,3.072-4.841,1.615-6.103,2.84
	c-0.182,0.178,0,1.002,0,1.002h11.924C50.861,56.016,51.908,54.025,50.439,49.719z"/>
<path fill="#C21413" d="M50.477,33.648c0,0-6.96,3.262-7.732,8.338c0,0,2.398,1.607,5.248,1.893c1.295-2.311,3.914-1.33,7.988-5.385
	L50.477,33.648z"/>
<path fill="#FDCA47" d="M46.314,46.74c0.41-2.367,6.812,1.244,6.812,1.244c-0.806,0.955,0.679,2.289,1.793,4.719l-5.323,0.783
	C47.926,50.311,46.009,48.52,46.314,46.74z"/>
<path fill="#FDCA47" d="M51.652,18.203c-1.172,10.029-4.768,13.658-5.724,3.102C47.109,20.81,48.225,18.167,51.652,18.203z"/>
<path fill="#E81C27" d="M60.919,32.621c-2.143-3.645-1.471-9.426-5.973-13.809c-1.653-1.609-3.788-0.654-4.505,0.414
	c-1.41,2.107-4.379,6.074-4.061,1.795c0.032-0.438-0.699,0.344-0.699,0.344c-1.209,6.311-0.3,7.197,1.962,8.084
	c0.647,0.254,3.37,3.445,2.962,6.868c-0.973,1.857-3.674,6.117-4.291,10.424c0,0,0.105-0.693,6.812,1.244
	C56.981,40.254,64.877,39.352,60.919,32.621z"/>
<path fill="#E6A400" d="M56.527,21.394c1.913,4.244-2.375,6.262-4.439,2.094C49.529,18.322,54.308,16.47,56.527,21.394z"/>
<path fill="#FDCA47" d="M41.543,34.465c3.639-1.188,10.279-1.33,11.283-2.499c1.78-2.068,1.572-7.322,2.511-9.898
	c1.434-3.947-4.229-4.994-4.703-1.666c-0.425,2.959-0.925,6.865-1.11,8.451c-3.682,0.9-6.627,3.408-9.113,1.764
	c-2.165-1.43-3.552-0.643-2.137,0.396c0,0-3.117-0.5-3.251,1.779C34.883,35.129,38.412,35.486,41.543,34.465z"/>
<path fill="#E6EBEF" d="M55.925,58.68h-4.462c-0.427-2.088-1.302-4.113-2.047-5.529l5.503-0.447
	C55.61,54.213,56.16,56.145,55.925,58.68z"/>
<path fill="#302C3B" d="M56.199,55.703c0,0-1.818,0.611-5.709,0.469l0.309,1.988c-3.689,3.07-4.84,1.613-6.104,2.838
	c-0.18,0.176,0,1.002,0,1.002h11.924C56.619,62,57.667,60.01,56.199,55.703z"/>
<path fill="#EA8800" d="M61.209,18.121c-1.374-0.458-2.308-5.993-1.48-8.281c1.996-5.525-3.768-8.831-7.326-6.446l1.615,2.754
	C57.236,3.524,53.842,18.342,61.209,18.121z"/>
<path fill="#EA8800" d="M61.73,15.802c-3.678-1.602-0.184-6.888-2.381-10.518C56.528,8.48,56.884,16.3,61.73,15.802z"/>
<path fill="#EA8800" d="M56.326,14.622c-1.313-1.551,2.814-7.977-1.194-8.785C56.445,8.376,53.621,12.862,56.326,14.622z"/>
<path fill="#E81C27" d="M51.614,3.404c-0.939,0.961,0.279,4.026,2.425,3.512C55.8,6.498,52.855,2.125,51.614,3.404z"/>
<path fill="#E6A400" d="M43.801,19.705c4.149-2.384,3.525,8.526,5.428-5.07L43.801,19.705z"/>
<path fill="#FDCA47" d="M45.239,2.81c-6.962,1.249-7.13,5.26-5.983,7.91c0.609,1.406,0.135,2.632-0.766,3.832
	c-0.555,0.742,0.135,1.397,1.428,1.166c0.232,0.559-0.071,0.8-0.071,0.8s1.081,0.492,0.919,0.754
	c-0.299,0.053-0.621,0.782,0.146,0.956c0.665,0.148-0.403,1.885,2.059,1.667c1.87-0.165,3.862-1.191,5.347-3.063
	c0.9-1.134,1.24-3.202,1.24-3.202C53.119,12.366,56.727,6.363,45.239,2.81z"/>
<path fill="#E6A400" d="M48.408,11.149c-0.227-0.991,0.402-2.03,1.229-2.213c0,0-1.15,1.486-0.426,3
	C49.211,11.936,48.564,11.839,48.408,11.149z"/>
<path fill="#EA8800" d="M38.859,7.118c2.764,2.835,6.438,0.689,8.732,3.412c0.328-1.753,2.203-2.982,3.11-1.572
	c1.073,1.667,0.446,4.239-1.141,4.313c0.28,0.561,1.933,2.075,1.933,2.075c3.563-1.125,4.592-9.519-0.596-12.411
	C45.439-0.109,36.873,5.082,38.859,7.118z"/>
<path fill-rule="evenodd" clip-rule="evenodd" fill="#E6A400" d="M39.775,10.574c-0.631-2.002,2.08-1.27,3.004-1.253
	C42.058,9.649,40.141,9.323,39.775,10.574z"/>
<path fill="#F5BC2C" d="M42.737,16c-0.515,1.307-1.234,1.974-1.708,2.283c-0.877-0.102-0.645-1.012-0.261-1.081
	C41.065,17.149,41.555,16.748,42.737,16z"/>
<path fill="#E6A400" d="M42.737,16c-0.565,0.844-1.972,1.272-1.972,1.272c-0.225-0.029-0.803-0.123-0.919-0.754
	C40.318,16.765,41.758,16.608,42.737,16z"/>
<path fill="#FFFFFF" d="M42.605,10.793c0.146,1.909-1.074,1.963-1.357,2.015C40.85,12.655,39.174,9.749,42.605,10.793z"/>
<path fill="#45332C" d="M40.455,11.619c0.502,1.403,1.239,1.544,0.893-0.357C41.094,9.866,40.051,10.49,40.455,11.619z"/>
<path fill-rule="evenodd" clip-rule="evenodd" fill="#45332C" d="M40.359,11.217c-0.049-1.423,1.637-0.739,2.379-0.427
	C41.686,10.817,40.896,10.498,40.359,11.217z"/>
<path fill="#FDCA47" d="M12.23,12.34c0,0,0.788,4.607-0.343,7.698C19.127,25.097,18.456,12.48,12.23,12.34z"/>
<path fill="#E6A400" d="M26.721,26.964c-3.771,0.814-9.494,4.008-11.012,3.531l1.022-4.27c3.644-1.078,7.579-0.439,8.75-3.066
	c1.021-2.283,2.647-2.313,2.041-0.732c0,0,2.36-1.977,3.781-0.127C32.756,24.197,29.964,26.257,26.721,26.964z"/>
<path fill="#E6A400" d="M21.194,41.82C20.848,39.443,16.632,42,16.632,42c0.808,0.957,0.214,2.541-0.899,4.971l4.611,0.197
	C20.343,47.168,21.538,44.189,21.194,41.82z"/>
<path fill="#E6EBEF" d="M13.834,52.695h4.462c0.426-2.088,2.047-5.527,2.047-5.527l-5.502-0.449
	C14.148,48.23,13.599,50.16,13.834,52.695z"/>
<path fill="#302C3B" d="M13.56,49.719c0,0,1.816,0.611,5.708,0.467l-0.308,1.988c3.69,3.072,4.84,1.615,6.103,2.84
	c0.182,0.178,0,1.002,0,1.002H13.139C13.139,56.016,12.092,54.025,13.56,49.719z"/>
<path fill="#5D1E96" d="M13.523,33.648c0,0,6.96,3.262,7.732,8.338c0,0-2.398,1.607-5.248,1.893
	c-1.296-2.311-3.914-1.33-7.988-5.385L13.523,33.648z"/>
<path fill="#FDCA47" d="M17.686,46.74c-0.41-2.367-6.812,1.244-6.812,1.244c0.806,0.955-0.678,2.289-1.793,4.719l5.323,0.783
	C16.074,50.311,17.991,48.52,17.686,46.74z"/>
<path fill="#FDCA47" d="M12.348,18.203c1.172,10.029,4.768,13.658,5.723,3.102C16.89,20.81,15.776,18.167,12.348,18.203z"/>
<path fill="#8E3ED6" d="M3.081,32.621c2.143-3.645,1.471-9.426,5.973-13.809c1.653-1.609,3.788-0.654,4.505,0.414
	c1.41,2.107,4.378,6.074,4.061,1.795c-0.033-0.438,0.699,0.344,0.699,0.344c1.209,6.311,0.3,7.197-1.962,8.084
	c-0.647,0.254-3.371,3.445-2.961,6.868c0.972,1.857,3.673,6.117,4.291,10.424c0,0-0.105-0.693-6.812,1.244
	C7.019,40.254-0.876,39.352,3.081,32.621z"/>
<path fill="#E6A400" d="M7.472,21.394c-1.913,4.244,2.375,6.262,4.44,2.094C14.471,18.322,9.692,16.47,7.472,21.394z"/>
<path fill="#FDCA47" d="M22.457,34.465c-3.638-1.188-10.279-1.33-11.282-2.499c-1.781-2.068-1.573-7.322-2.511-9.898
	c-1.434-3.947,4.229-4.994,4.703-1.666c0.424,2.959,0.924,6.865,1.11,8.451c3.682,0.9,6.627,3.408,9.114,1.764
	c2.165-1.43,3.551-0.643,2.136,0.396c0,0,3.118-0.5,3.251,1.779C29.117,35.129,25.588,35.486,22.457,34.465z"/>
<path fill="#E6EBEF" d="M8.075,58.68h4.462c0.427-2.088,1.302-4.113,2.047-5.529l-5.503-0.447C8.39,54.213,7.84,56.145,8.075,58.68z
	"/>
<path fill="#302C3B" d="M7.801,55.703c0,0,1.818,0.611,5.708,0.469l-0.308,1.988c3.69,3.07,4.84,1.613,6.103,2.838
	c0.181,0.176,0,1.002,0,1.002H7.38C7.38,62,6.333,60.01,7.801,55.703z"/>
<path fill="#EA8800" d="M2.792,18.121c1.374-0.458,2.307-5.993,1.48-8.281c-1.997-5.525,3.768-8.831,7.326-6.446L9.982,6.147
	C6.764,3.524,10.158,18.342,2.792,18.121z"/>
<path fill="#EA8800" d="M2.27,15.802c3.677-1.602,0.184-6.888,2.38-10.518C7.472,8.48,7.116,16.3,2.27,15.802z"/>
<path fill="#EA8800" d="M7.673,14.622c1.313-1.551-2.813-7.977,1.195-8.785C7.555,8.376,10.379,12.862,7.673,14.622z"/>
<path fill="#8E3ED6" d="M12.386,3.404c0.939,0.961-0.279,4.026-2.424,3.512C8.2,6.498,11.144,2.125,12.386,3.404z"/>
<path fill="#E6A400" d="M20.2,19.705c-4.15-2.384-3.526,8.526-5.429-5.07L20.2,19.705z"/>
<path fill="#FDCA47" d="M18.761,2.81c6.962,1.249,7.13,5.26,5.983,7.91c-0.609,1.406-0.135,2.632,0.767,3.832
	c0.555,0.742-0.136,1.397-1.429,1.166c-0.232,0.559,0.072,0.8,0.072,0.8s-1.081,0.492-0.918,0.754
	c0.298,0.053,0.621,0.782-0.146,0.956c-0.666,0.148,0.403,1.885-2.059,1.667c-1.871-0.165-3.862-1.191-5.347-3.063
	c-0.899-1.134-1.239-3.202-1.239-3.202C10.88,12.366,7.273,6.363,18.761,2.81z"/>
<path fill="#E6A400" d="M15.592,11.149c0.226-0.991-0.403-2.03-1.229-2.213c0,0,1.151,1.486,0.425,3
	C14.789,11.936,15.436,11.839,15.592,11.149z"/>
<path fill="#EA8800" d="M25.141,7.118c-2.763,2.835-6.438,0.689-8.733,3.412c-0.327-1.753-2.202-2.982-3.11-1.572
	c-1.073,1.667-0.446,4.239,1.141,4.313c-0.28,0.561-1.932,2.075-1.932,2.075c-3.563-1.125-4.592-9.519,0.595-12.411
	C18.561-0.109,27.127,5.082,25.141,7.118z"/>
<path fill-rule="evenodd" clip-rule="evenodd" fill="#E6A400" d="M24.224,10.574c0.631-2.002-2.08-1.27-3.003-1.253
	C21.942,9.649,23.859,9.323,24.224,10.574z"/>
<path fill="#F5BC2C" d="M21.263,16c0.515,1.307,1.234,1.974,1.708,2.283c0.876-0.102,0.645-1.012,0.261-1.081
	C22.935,17.149,22.445,16.748,21.263,16z"/>
<path fill="#E6A400" d="M21.263,16c0.566,0.844,1.972,1.272,1.972,1.272c0.224-0.029,0.803-0.123,0.918-0.754
	C23.682,16.765,22.243,16.608,21.263,16z"/>
<path fill="#FFFFFF" d="M21.395,10.793c-0.146,1.909,1.074,1.963,1.357,2.015C23.151,12.655,24.827,9.749,21.395,10.793z"/>
<path fill="#45332C" d="M23.545,11.619c-0.502,1.403-1.239,1.544-0.892-0.357C22.907,9.866,23.949,10.49,23.545,11.619z"/>
<path fill-rule="evenodd" clip-rule="evenodd" fill="#45332C" d="M23.641,11.217c0.048-1.423-1.637-0.739-2.379-0.427
	C22.315,10.817,23.104,10.498,23.641,11.217z"/>
</svg>
