<?xml version="1.0" encoding="utf-8"?>
<!-- Generator: Adobe Illustrator 15.0.0, SVG Export Plug-In . SVG Version: 6.00 Build 0)  -->
<!DOCTYPE svg PUBLIC "-//W3C//DTD SVG 1.1//EN" "http://www.w3.org/Graphics/SVG/1.1/DTD/svg11.dtd">
<svg version="1.1" id="Layer_1" xmlns="http://www.w3.org/2000/svg" xmlns:xlink="http://www.w3.org/1999/xlink" x="0px" y="0px"
	 width="64px" height="64px" viewBox="0 0 64 64" enable-background="new 0 0 64 64" xml:space="preserve">
<path fill="#92C932" d="M2,45.738v14.238c0,0,21.276,3.356,27.528,1.423c7.196-2.227,13.261-10.674,18.306-21.156
	c1.414-2.938-8.592-9.478-10.47-6.883C31.723,41.153,22.11,48.586,22.11,48.586L2,45.738z"/>
<path fill="#FDCA47" d="M38.045,33.834c0.953-1.065,1.189-3.399,1.189-3.399s-6.798-4.013-6.143-6.367
	c1.235-4.456-1.237-6.558,1.289-7.476c1.204-0.438,14.037,0.479,14.037,0.479l5.581,2.54c-0.841,7.406-6.028,13.406-7.53,19.918
	C45.931,41.861,36.409,35.662,38.045,33.834z"/>
<path fill="#6E8189" d="M20.427,25.664c2.195,3.584,8.972-4.508,8.796-4.788C29.051,20.591,18.231,22.075,20.427,25.664z"/>
<path fill="#6E8189" d="M20.427,8.475c2.195-3.581,8.972,4.508,8.797,4.793C29.05,13.552,18.231,12.065,20.427,8.475z"/>
<path fill="#6E8189" d="M17.997,17.071c0,4.143,10.157,0.326,10.158,0C28.155,16.745,17.999,12.928,17.997,17.071z"/>
<polygon fill="#302C3B" points="35.621,7.237 45.85,2 45.85,30.142 35.621,29.089 "/>
<polygon fill="#4E5E67" points="46.854,2.902 45.85,2 45.85,30.142 46.854,29.29 "/>
<polygon fill="#0FB4D4" points="36.338,9.688 44.809,5.387 44.809,26.284 36.338,25.8 "/>
<path fill="#6E8189" d="M43.766,5.194c-0.706,0-0.706-1.614,0-1.614C44.474,3.58,44.474,5.194,43.766,5.194z"/>
<path fill="#4E5E67" d="M40.235,28.704c-1.926-0.218-1.843-1.617,0.144-1.608C42.467,27.107,42.307,28.94,40.235,28.704z"/>
<path fill="#6E8189" d="M42.523,5.413c-0.364,0-0.364-0.833,0-0.833C42.889,4.58,42.889,5.413,42.523,5.413z"/>
<path fill="#FDCA47" d="M52.876,12.642c-0.369-1.54,0.29-1.591-3.668-4.297c-2.197-1.501-3.159-0.197-5.655,0.862
	c-2.811,1.196,0.012,2.659,0.834,2.378c3.585-1.224,3.982,0.654,3.982,0.654s-2.935-0.552-4.076,0.195
	c-2.972,1.946-0.858,3.916,0.695,3.28c2.161-0.883,3.398-0.073,3.398-0.073s-3.349,0.385-4.662,1.43
	c-1.305,1.038-0.446,3.234,1.133,2.699c2.862-0.967,3.466-0.9,3.466-0.9s-3.167,1.25-3.909,2.688
	c-0.337,0.654,0.628,2.105,1.436,1.763c1.716-0.731,6.414,0.041,6.414,0.041s2.399-2.997,1.557-4.842
	c-0.628-1.377,0.288-2.001-0.43-3.448C52.858,13.997,53.057,13.396,52.876,12.642z"/>
</svg>
