<?xml version="1.0" encoding="utf-8"?>
<!-- Generator: Adobe Illustrator 15.0.0, SVG Export Plug-In . SVG Version: 6.00 Build 0)  -->
<!DOCTYPE svg PUBLIC "-//W3C//DTD SVG 1.1//EN" "http://www.w3.org/Graphics/SVG/1.1/DTD/svg11.dtd">
<svg version="1.1" id="Layer_1" xmlns="http://www.w3.org/2000/svg" xmlns:xlink="http://www.w3.org/1999/xlink" x="0px" y="0px"
	 width="64px" height="64px" viewBox="0 0 64 64" enable-background="new 0 0 64 64" xml:space="preserve">
<path fill="#C8A35D" d="M42.966,22.532c-1.275-0.698-1.19-6.345,0.044-8.464c2.979-5.12-2.117-9.417-6.069-7.69l1.097,3.018
	C41.694,7.369,35.645,21.44,42.966,22.532z"/>
<path fill="#C8A35D" d="M38.776,18.199c-1.014-1.771,4.233-7.4,0.417-8.912C40.03,12.037,36.423,15.975,38.776,18.199z"/>
<path fill="#EBBEA0" d="M22.319,25.415l2.021,3.63c-1.104,0.564-1.063,0.453-1.724,0.914c-1.872,1.301-5.343,1.146-8.782,2.47
	C10.561,33.687,8.191,33,7.699,31.149c0,0-0.736-0.36-0.697-0.948c0.062-0.933,2.285-1.033,2.285-1.033
	c-0.387-0.777,0.816-0.98,3.442-0.129c2.038,0.658,3.966-1.092,6.835-1.662C19.625,27.019,21.767,25.734,22.319,25.415z"/>
<path fill="#302C3B" d="M34.749,54.313c2.383,0.375,5.365,4.38,7.762,2.436l-6.75-8.362c0,0-1.52,0.435-2.564,2.177L34.749,54.313z"
	/>
<path fill="#EBBEA0" d="M42.659,18.083l2.889-5.662l3.115,1.332c0,0-2.109,5.764-3.205,7.477c-0.838,1.309-4.996,2.932-4.996,2.932
	l-1.465-4.311L42.659,18.083z"/>
<path fill="#EBBEA0" d="M48.946,53.903l0.986,4.555c0,0-5.42-1.64-9.17-2.253c-3.771-0.618-6.834-8.351-6.834-8.351l6.396-1.332
	c0,0,1.463,5.045,2.52,5.203C46.169,52.225,45.683,53.861,48.946,53.903z"/>
<path fill="#EBBEA0" d="M34.749,54.313l-1.553-3.75c-1.57,0.426-2.619-0.301-4.042-0.08c-1.824,0.283-0.498-2.539-0.498-2.539
	l-6.787-0.897c0,0,0.489,11.503,6.271,9.228C31.681,54.88,34.749,54.313,34.749,54.313z"/>
<path fill="#8E3ED6" d="M41.091,48.387c0.635,1.208,1.551,2.24,2.67,2.996c-0.4,4.485-2.908,5.026-2.908,5.026
	c-1.877,0-3.727-1.271-4.207-3.012C36.974,52.101,38.237,50.04,41.091,48.387z"/>
<path fill="#8E3ED6" d="M28.398,50.012c0.127,0.149,0.277,0.279,0.447,0.38c0.475,4.643-0.588,6.16-0.588,6.16
	c-3.761,1.186-5.197-2.586-5.197-2.586C23.99,51.394,26.541,50.012,28.398,50.012z"/>
<path fill="#302C3B" d="M49.933,58.458c2.275,0.797,4.359,4.689,7.066,3.209l-5.143-9.442c0,0-1.57,0.153-2.91,1.679L49.933,58.458z
	"/>
<path fill="#8E3ED6" d="M41.149,23.982c-1.217-0.82-1.822-4.472-1.822-4.472c-7.236,2.21-12.025,2.21-17.267,5.438l2.428,4.365
	c0.303-0.154,0.605-0.322,0.909-0.494c0.031,3.569-1.485,9.699-1.485,9.699h13.562c0,0-2.066-5.78-0.662-10.708
	C37.163,26.573,41.149,23.982,41.149,23.982z"/>
<path fill="#302C3B" d="M37.474,38.519H23.912c-2.592,5.521-2.777,10.902-2.777,10.902l7.636-1.034
	c1.449-4.951,2.541-3.374,5.644,1.267l6.734-2.803L37.474,38.519z"/>
<polygon fill="#FFE463" points="40.304,47.203 39.056,47.722 34.749,38.519 36.313,38.519 "/>
<path fill="#FFE463" d="M35.476,20.544l-1.383,0.332c-1.648,8.449-0.486,17.642-0.486,17.642h1.643
	C35.249,38.519,33.595,28.747,35.476,20.544z"/>
<path fill="#A6E639" d="M52.081,2.95c3.42,1.952,4.588,6.274,2.617,9.658c-1.977,3.384-6.342,4.539-9.76,2.586
	c-3.416-1.95-4.59-6.272-2.615-9.655C44.296,2.152,48.665,0.997,52.081,2.95z"/>
<path fill="#E81C27" d="M51.866,2.839c-4.459,5.095-11.4,5.755-3.682-0.783c0.018-0.016,0.035-0.029,0.053-0.043
	C49.464,1.964,50.714,2.231,51.866,2.839z"/>
<path fill="#E81C27" d="M51.081,15.666c-3.551-9.322,1.443-11.445,2.625-1.748C52.958,14.701,52.062,15.292,51.081,15.666z"/>
<path fill="#E81C27" d="M41.401,8.425c8.152,1.906,8.004,6.275,0.539,3.406C41.483,10.761,41.292,9.591,41.401,8.425z"/>
<path fill="#EBBEA0" d="M27.306,19.825c3.274,0.192,1.652,2.71,0.967,3.831c-0.741,1.214,4.205-0.654,5.089-1.969
	c0.972-1.439,0.203-7.488,0.203-7.488L27.306,19.825z"/>
<path fill="#8E3ED6" d="M36.159,6.248c-1.102,0.787-0.457,4.039,1.758,3.913C39.734,10.057,37.619,5.203,36.159,6.248z"/>
<path fill="#BF8D69" d="M27.306,19.825c2.301,0.963,1.232,3.688,1.232,3.688c3.285-1.09,3.795-9.313,3.795-9.313L27.306,19.825z"/>
<path fill="#EBBEA0" d="M29.851,4.406c-7.287,0-8.204,4.083-7.536,7.014c0.354,1.555-0.354,2.724-1.492,3.791
	c-0.7,0.658-0.123,1.457,1.23,1.457c0.131,0.617-0.222,0.809-0.222,0.809s1.003,0.703,0.79,0.941c-0.312,0-0.776,0.689-0.031,1.008
	c0.647,0.275-0.759,1.859,1.774,2.09c1.927,0.176,4.136-0.512,5.989-2.158c1.122-0.996,1.853-3.057,1.853-3.057
	C36.052,15.66,40.825,10.166,29.851,4.406z"/>
<path fill="#BF8D69" d="M31.505,13.543c-0.044-1.058,0.787-2.009,1.658-2.044c0,0-1.443,1.313-0.99,3
	C32.173,14.5,31.536,14.281,31.505,13.543z"/>
<path fill="#C8A35D" d="M22.584,7.65c2.271,3.417,6.394,1.893,8.21,5.108c0.658-1.738,2.787-2.654,3.443-1.04
	c0.776,1.908-0.338,4.43-1.958,4.215c0.18,0.627,1.57,2.484,1.57,2.484c3.82-0.498,6.427-8.92,1.711-12.841
	C30.597,1.449,20.952,5.197,22.584,7.65z"/>
<path fill-rule="evenodd" clip-rule="evenodd" fill="#BF8D69" d="M22.868,11.366c-0.266-2.171,2.344-0.921,3.276-0.733
	C25.353,10.835,23.471,10.149,22.868,11.366z"/>
<path fill="#DEA885" d="M24.857,17.476c-0.766,1.246-1.619,1.797-2.156,2.027c-0.869-0.266-0.465-1.156-0.063-1.156
	C22.949,18.347,23.519,18.027,24.857,17.476z"/>
<path fill="#BF8D69" d="M24.857,17.476c-0.73,0.762-2.235,0.941-2.235,0.941c-0.222-0.07-0.79-0.273-0.79-0.941
	C22.263,17.816,23.75,17.919,24.857,17.476z"/>
<path fill="#FFFFFF" d="M25.694,12.11c-0.209,1.986-1.454,1.817-1.751,1.817C23.568,13.697,22.412,10.408,25.694,12.11z"/>
<path fill="#45332C" d="M23.362,12.561c0.247,1.533,0.967,1.813,0.97-0.202C24.335,10.88,23.163,11.329,23.362,12.561z"/>
<path fill-rule="evenodd" clip-rule="evenodd" fill="#45332C" d="M23.339,12.132c0.216-1.469,1.796-0.458,2.49,0
	C24.757,11.965,24.018,11.493,23.339,12.132z"/>
</svg>
