<?xml version="1.0" encoding="utf-8"?>
<!-- Generator: Adobe Illustrator 15.0.0, SVG Export Plug-In . SVG Version: 6.00 Build 0)  -->
<!DOCTYPE svg PUBLIC "-//W3C//DTD SVG 1.1//EN" "http://www.w3.org/Graphics/SVG/1.1/DTD/svg11.dtd">
<svg version="1.1" id="Layer_1" xmlns="http://www.w3.org/2000/svg" xmlns:xlink="http://www.w3.org/1999/xlink" x="0px" y="0px"
	 width="64px" height="64px" viewBox="0 0 64 64" enable-background="new 0 0 64 64" xml:space="preserve">
<path fill="#92C932" d="M2,45.738v14.238c0,0,21.275,3.357,27.527,1.424c7.198-2.229,13.263-10.676,18.308-21.158
	c1.414-2.938-8.592-9.477-10.471-6.882C31.723,41.152,22.11,48.586,22.11,48.586L2,45.738z"/>
<path fill="#916B50" d="M38.046,33.834c0.953-1.066,1.189-3.4,1.189-3.4s-6.8-4.013-6.143-6.367
	c1.234-4.456-1.239-6.558,1.289-7.476c1.203-0.438,14.037,0.479,14.037,0.479l5.58,2.54c-0.84,7.406-6.027,13.407-7.529,19.918
	C45.931,41.861,36.409,35.662,38.046,33.834z"/>
<path fill="#6E8189" d="M20.426,25.664c2.195,3.584,8.972-4.508,8.796-4.788C29.051,20.59,18.231,22.075,20.426,25.664z"/>
<path fill="#6E8189" d="M20.426,8.474c2.195-3.581,8.972,4.508,8.796,4.793C29.049,13.551,18.231,12.065,20.426,8.474z"/>
<path fill="#6E8189" d="M17.997,17.071c0,4.143,10.158,0.326,10.158,0S17.999,12.927,17.997,17.071z"/>
<polygon fill="#302C3B" points="35.622,7.237 45.851,2 45.851,30.141 35.622,29.088 "/>
<polygon fill="#4E5E67" points="46.854,2.902 45.851,2 45.851,30.141 46.854,29.29 "/>
<polygon fill="#0FB4D4" points="36.339,9.688 44.81,5.386 44.81,26.284 36.339,25.799 "/>
<path fill="#6E8189" d="M43.767,5.194c-0.707,0-0.707-1.614,0-1.614S44.474,5.194,43.767,5.194z"/>
<path fill="#4E5E67" d="M40.235,28.704c-1.926-0.218-1.842-1.617,0.145-1.608C42.468,27.107,42.308,28.94,40.235,28.704z"/>
<path fill="#6E8189" d="M42.524,5.413c-0.365,0-0.365-0.833,0-0.833S42.89,5.413,42.524,5.413z"/>
<path fill="#916B50" d="M52.876,12.641c-0.369-1.54,0.291-1.591-3.668-4.297c-2.197-1.501-3.158-0.197-5.654,0.862
	c-2.811,1.196,0.012,2.659,0.834,2.378c3.584-1.224,3.982,0.654,3.982,0.654s-2.936-0.552-4.076,0.195
	c-2.973,1.946-0.859,3.916,0.695,3.28c2.16-0.883,3.398-0.073,3.398-0.073s-3.35,0.385-4.662,1.43
	c-1.305,1.038-0.447,3.234,1.133,2.699c2.861-0.967,3.465-0.9,3.465-0.9s-3.166,1.25-3.908,2.688
	c-0.338,0.654,0.627,2.105,1.436,1.763c1.715-0.731,6.414,0.041,6.414,0.041s2.398-2.997,1.557-4.842
	c-0.629-1.377,0.287-2.001-0.43-3.448C52.858,13.997,53.058,13.395,52.876,12.641z"/>
</svg>
