<?xml version="1.0" encoding="utf-8"?>
<!-- Generator: Adobe Illustrator 15.0.0, SVG Export Plug-In . SVG Version: 6.00 Build 0)  -->
<!DOCTYPE svg PUBLIC "-//W3C//DTD SVG 1.1//EN" "http://www.w3.org/Graphics/SVG/1.1/DTD/svg11.dtd">
<svg version="1.1" id="Layer_1" xmlns="http://www.w3.org/2000/svg" xmlns:xlink="http://www.w3.org/1999/xlink" x="0px" y="0px"
	 width="64px" height="64px" viewBox="0 0 64 64" enable-background="new 0 0 64 64" xml:space="preserve">
<path fill="#38332D" d="M36.133,9.495C31.25,5.035,11.904,10.578,14.587,25.8c1.523,8.164,6.119,26.505,20.553,23.96
	c14.434-2.545,12.494-21.274,11.203-29.56C45.449,15.13,41.506,9.645,36.133,9.495z"/>
<path fill="#26221E" d="M15.697,30.755c2.303,8.897,7.504,21.11,19.459,19.002c11.99-2.114,12.68-15.395,11.83-24.58
	c-1.129-4.1-4.502-9.057-10.879-14.476C22.726,19.066,14.75,20.649,15.697,30.755z"/>
<rect x="9.138" y="29.458" fill="#614A36" width="4.584" height="2.125"/>
<path fill="#614A36" d="M57.066,24.377c0.879-1.529-0.441-2.502-2.525,0.174c-1.607,2.066-7.045,5.777-3.119,6.712
	c2.797,0.666,9.613-4.373,10.465-9.442C62.662,17.214,59.281,23.384,57.066,24.377z"/>
<path fill="#614A36" d="M6.935,24.377c-0.881-1.529,0.439-2.502,2.523,0.174c1.609,2.066,7.045,5.777,3.119,6.712
	C9.781,31.929,2.966,26.89,2.113,21.82C1.339,17.214,4.72,23.384,6.935,24.377z"/>
<rect x="50.639" y="29.458" fill="#614A36" width="4.584" height="2.125"/>
<path fill="#8E3ED6" d="M55.764,31.173h-5.709l0.207,13.102c0,0-1.922-3.742-5.029-6.279c-3.303-2.697-13.047-1.33-13.053-1.329
	c-0.004,0-9.748-1.368-13.053,1.329c-3.105,2.537-5.027,6.279-5.027,6.279l0.205-13.102H8.595c0,0-0.736,15.721-0.457,20.952
	c0.258,4.833,3.916,6.667,11.457-3.375C20.429,55.792,20.013,62,20.013,62h12.166l0,0h12.168c0,0-0.418-6.208,0.416-13.25
	c7.541,10.042,11.201,8.208,11.459,3.375C56.5,46.894,55.764,31.173,55.764,31.173z"/>
<polygon fill="#5D1E96" points="15.906,41.447 14.111,43.515 14.007,48.26 "/>
<polygon fill="#5D1E96" points="48.453,41.447 50.25,43.515 50.352,48.26 "/>
<path fill="#3B2B1C" d="M27.63,38.37c0,4.455,9.1,4.455,9.1,0c0-2.717,0-7.209,0-7.209h-9.1C27.63,31.161,27.63,34.862,27.63,38.37z
	"/>
<path fill="#614A36" d="M41.086,19.951c-2.26-3.358-5.924-6.788-5.924-6.788c-13.084,7.622-19.491,6.637-14.86,17.994
	c2.197,5.389,10.221,8.448,13.081,7.944c2.855-0.503,9.539-6.122,9.57-11.938C42.973,23.794,42.139,21.515,41.086,19.951z"/>
<path fill="#F5F5F5" d="M40.676,22.419c-0.699,3.595-6.043,4.026-7.422,1.843C33.32,20.35,39.332,18.954,40.676,22.419z"/>
<path fill="#45332C" d="M34.441,23.148c0.523,2.969,4.816,2.212,4.293-0.758C38.248,19.635,33.955,20.392,34.441,23.148z"/>
<path fill="#45332C" d="M40.672,22.395c-0.637-3.614-8.151-2.29-7.412,1.896C33.727,20.668,39.094,19.722,40.672,22.395z"/>
<path fill="#F5F5F5" d="M20.82,25.92c1.887,3.139,7.057,1.717,7.604-0.807C27.025,21.459,20.898,22.205,20.82,25.92z"/>
<path fill="#45332C" d="M26.929,24.473c0.523,2.969-3.771,3.727-4.295,0.757C22.148,22.475,26.443,21.718,26.929,24.473z"/>
<path fill="#45332C" d="M20.816,25.896c-0.637-3.613,6.875-4.938,7.613-0.754C26.751,21.897,21.384,22.844,20.816,25.896z"/>
<path fill="#F5F5F5" d="M34.578,22.38c0.131,0.742,1.205,0.554,1.072-0.189C35.531,21.502,34.457,21.691,34.578,22.38z"/>
<path fill="#F5F5F5" d="M23.953,24.099c0.131,0.742-0.941,0.931-1.072,0.188C22.757,23.599,23.832,23.409,23.953,24.099z"/>
<path fill="#3B2B1C" d="M39.404,17.875c-2.439-0.536-5.586-0.17-7.077,0.736c-0.313,0.191-0.16,0.998,0.123,0.864
	c2.182-1.028,4.813-1.542,7.118-1.17C39.879,18.356,39.771,17.956,39.404,17.875z"/>
<path fill="#3B2B1C" d="M20.404,21.38c2.111-1.339,5.191-2.07,6.9-1.728c0.361,0.072,0.494,0.882,0.18,0.854
	c-2.402-0.22-5.049,0.197-7.086,1.335C20.125,21.995,20.087,21.581,20.404,21.38z"/>
<path fill="#3B2B1C" d="M34.381,29.079c0.303,1.724-4.991,2.657-5.295,0.935C29.015,29.618,34.311,28.685,34.381,29.079z"/>
<path fill="#26221E" d="M35.336,33.077c-1.592,0.38-3.674,0.673-5.547,0.663c-0.709-0.004-1.02,1.011-0.275,1.049
	c2.09,0.108,4.461-0.287,6.083-1.182C35.988,33.392,35.723,32.984,35.336,33.077z"/>
</svg>
