<?xml version="1.0" encoding="utf-8"?>
<!-- Generator: Adobe Illustrator 15.0.0, SVG Export Plug-In . SVG Version: 6.00 Build 0)  -->
<!DOCTYPE svg PUBLIC "-//W3C//DTD SVG 1.1//EN" "http://www.w3.org/Graphics/SVG/1.1/DTD/svg11.dtd">
<svg version="1.1" id="Layer_1" xmlns="http://www.w3.org/2000/svg" xmlns:xlink="http://www.w3.org/1999/xlink" x="0px" y="0px"
	 width="64px" height="64px" viewBox="0 0 64 64" enable-background="new 0 0 64 64" xml:space="preserve">
<path fill="#EBBEA0" d="M44.134,38.238l2.563-4.348c1.289,0.703,2.611,1.215,3.504,1.555c2.521,0.965,4.684,4.465,8.273,6.951
	c3.416,2.365,4.322,5.145,2.838,6.861c0,0,0.139,0.961-0.463,1.316c-0.953,0.561-2.535-1.549-2.535-1.549
	c-0.504,0.896-1.504-0.146-2.422-3.285c-0.715-2.436-3.715-3.156-6.186-5.586C47.853,40.051,44.813,38.564,44.134,38.238z"/>
<path fill="#EBBEA0" d="M39.308,39.381c-1.943,2.367-4.357,2.836-7.309,2.836C29.843,37.58,36.593,34.373,39.308,39.381z"/>
<path fill="#EBBEA0" d="M23.135,59.615c-4.377,1.531-6.846,2.387-1.252,2.387c4.772,0,4.807-0.754,6.063-0.537
	c1.445,0.25,1.957,0.537,3.379,0.537c1.42,0,1.307-0.91-0.504-1.418c-1.709-0.48-2.25-1.188-2.656-2.875
	c-0.682-2.832-1.486-8.896-1.486-8.896s0.477-2.264,2.482-5.791l-4.954-1.346c-2.48,8.283-2.262,4.369,0.207,14.939
	C24.737,57.994,24.401,59.172,23.135,59.615z"/>
<path fill="#92C932" d="M23.135,42.518c0,0,3.725,0.797,4.915,3.576c0,0,0.398-1.43,1.303-3.246
	c0.305-0.227,1.035-0.596,2.646-0.631c-0.053-3.803,5.6-5.564,7.309-2.836c0,0,0.004-0.002,2.127-0.734l2.873,0.105
	c0,0,2.076-2.717,3.178-5.383c0,0-6.184,0.533-9.869-6.228l-5.039-2.383l-4.279,3.393c0,0-2.158,3.559-2.297,9.122
	C25.465,38.051,24.29,39.881,23.135,42.518z"/>
<path fill="#CFD8DD" d="M49.554,6.507l-3.818-1.082c-0.373-1.426-0.23-1.773-0.23-1.799c0.002-0.881,0.695-1.607,1.557-1.627h8.215
	C55.044,4.19,51.835,6.239,49.554,6.507z"/>
<path fill="#EBBEA0" d="M45.735,5.425l3.818,1.082c0,0-1.918,5.143-2.938,8.939c-0.324,1.188-1.236,1.586-1.619,2.082
	c-2.4,3.074-7.119,6.369-7.119,6.369l-4.113-4.623c0,0,3.447-3.332,6.979-5.205c0.35-0.186,1.713-1.25,1.898-2.436
	C43.007,9.347,45.282,7.374,45.735,5.425z"/>
<path fill="#CFD8DD" d="M9.323,15.437l2.609-3.027c-0.453-1.402-0.762-1.611-0.773-1.635c-0.479-0.736-1.451-0.957-2.184-0.496
	L2,14.692C3.379,16.396,7.272,16.481,9.323,15.437z"/>
<path fill="#EBBEA0" d="M11.932,12.409l-2.609,3.027c0,0,4.072,2.783,6.494,5.865c0.764,0.965,1.76,0.969,2.305,1.27
	c3.406,1.875,9.032,3.029,9.032,3.029l1.975-5.883c0,0-5.333-1.852-9.311-2.172c-0.393-0.029-1-0.023-1.797-0.914
	C16.481,14.921,13.366,13.786,11.932,12.409z"/>
<path fill="#302C3B" d="M22.559,25.128c0,0,0.6-4.287,4.01-7.037c0,0,4.316,1.908,5.322,1.805c1.018-0.107,4.543-3.424,4.543-3.424
	s3.404,1.924,5.811,5.787l-4.629,4.883c0,0-2.578-1.254-9.318,1.01C28.298,28.151,25.704,27.333,22.559,25.128z"/>
<path fill="#C8A35D" d="M42.084,57.994c7.407-2.695,5.787-7.154,3.759-12.727L31.023,50.66
	C33.052,56.234,34.677,60.691,42.084,57.994z"/>
<path fill="#DEA885" d="M43.583,43.635c-0.531,1.039,1.265,3.705,2.363,3.506C48.296,46.713,44.728,41.393,43.583,43.635z"/>
<path fill="#DEA885" d="M31.706,47.959c1.074,0.455,1.412,3.65,0.441,4.203C30.074,53.346,29.388,46.977,31.706,47.959z"/>
<path fill="#EBBEA0" d="M41.002,55.023c7.739-2.818,4.295-2.578,4.706-7.877c0,0-0.773-2.08-2.02-4.158
	c-1.607-2.68-5.658-3.713-8.096-2.826s-4.876,4.281-4.385,7.367c0.381,2.395,1.126,4.484,1.126,4.484
	C36.055,55.809,33.263,57.84,41.002,55.023z"/>
<path fill="#F5F5F5" d="M33.284,50.926c0.037-2.127,3.048-2.912,4.056-1.803C37.698,51.365,34.401,52.77,33.284,50.926z"/>
<path fill="#45332C" d="M36.774,49.879c-0.6-1.645-2.977-0.779-2.379,0.865C34.952,52.271,37.329,51.406,36.774,49.879z"/>
<path fill="#45332C" d="M33.289,50.938c0.728,2.002,4.89,0.488,4.046-1.83C37.433,51.225,34.46,52.307,33.289,50.938z"/>
<path fill="#F5F5F5" d="M44.281,46.922c-1.396-1.604-4.208-0.27-4.267,1.229C41.183,50.098,44.61,49.053,44.281,46.922z"/>
<path fill="#45332C" d="M40.935,48.365c-0.598-1.645,1.779-2.51,2.378-0.865C43.868,49.025,41.491,49.891,40.935,48.365z"/>
<path fill="#45332C" d="M44.285,46.936c0.729,2.002-3.433,3.516-4.275,1.199C41.296,49.818,44.269,48.738,44.285,46.936z"/>
<path fill="#BF8C6B" d="M37.071,44.223c1.313-0.117,2.916-1.232,2.916-1.232c-0.916-0.416-1.725-1.096-3.525-0.439
	c-2.063,0.75-2.059,1.854-2.418,2.604C34.044,45.154,35.991,44.977,37.071,44.223z"/>
<path fill="#FFFFFF" d="M39.562,43.119c-1.703-0.721-4.277,0.209-5.123,1.865C35.772,44.426,38.172,43.551,39.562,43.119z"/>
<path fill="#BF8D69" d="M34.112,52.707c1.469,0.063,3.254-0.471,4.024-1.148c0.162-0.143-0.009-0.596-0.159-0.488
	c-1.159,0.818-2.631,1.385-4.004,1.404C33.789,52.479,33.892,52.699,34.112,52.707z"/>
<path fill="#BF8D69" d="M44.792,48.82c-1.086,0.992-2.795,1.73-3.822,1.707c-0.215-0.006-0.375-0.461-0.19-0.477
	c1.414-0.119,2.905-0.631,3.97-1.498C44.892,48.436,44.956,48.672,44.792,48.82z"/>
<path fill="#C8A35D" d="M35.333,57.859c-4.138-2.781,9.033-6.457,11.899-6.875C47.232,50.984,45.262,57.748,35.333,57.859z"/>
<path fill="#A3864C" d="M47.232,50.984c-4.12,0.588-15.782,4.959-10.646,7.609C28.839,55.988,43.293,50.244,47.232,50.984z"/>
<path fill="#BF8D69" d="M36.259,46.611c-0.353-0.965,2.62-2.047,2.971-1.082C39.312,45.752,36.339,46.834,36.259,46.611z"/>
</svg>
