<?xml version="1.0" encoding="utf-8"?>
<!-- Generator: Adobe Illustrator 15.0.0, SVG Export Plug-In . SVG Version: 6.00 Build 0)  -->
<!DOCTYPE svg PUBLIC "-//W3C//DTD SVG 1.1//EN" "http://www.w3.org/Graphics/SVG/1.1/DTD/svg11.dtd">
<svg version="1.1" id="Layer_1" xmlns="http://www.w3.org/2000/svg" xmlns:xlink="http://www.w3.org/1999/xlink" x="0px" y="0px"
	 width="64px" height="64px" viewBox="0 0 64 64" enable-background="new 0 0 64 64" xml:space="preserve">
<polygon fill="#FCD5B2" points="26.609,62 7,62 8,53.182 27.61,53.182 "/>
<polygon fill="#FCD5B2" points="57,62 37.391,62 36.391,53.182 56,53.182 "/>
<path fill="#FCD5B2" d="M37.691,10.287v26.449h6.371V10.287C44.063,5.527,37.691,5.527,37.691,10.287z"/>
<path fill="#DBA97F" d="M40.082,6.82c0.598,0.155,1.063,0.381,1.488,0.889c-0.693,0.361-1.027,1.379-0.693,2.759
	c1.131,4.688,1.596,7.493,1.596,19.205c0,0.405,1.59,0,1.59,0V10.274C44.063,7.493,41.893,6.349,40.082,6.82z"/>
<path fill="#FCD5B2" d="M56.803,24l-25.48,9.204c0,0-0.402,11.081,0,13.243c1.687,9.043,4.736,11.479,14.156,11.479l0,0l0,0
	c11.424,0,12.783-8.213,15.918-16.711c2.012-5.447-1.74-9.712-0.695-15.506C61.074,23.636,58.955,22.523,56.803,24z"/>
<path fill="#FCD5B2" d="M41.889,9.566c1.178,6.506,2.174,7.588,2.174,27.17c0,1.621,6.369,0,6.369,0l-2.174-27.17
	C48.258,4.805,41.041,4.884,41.889,9.566z"/>
<path fill="#FCD5B2" d="M31.323,17.35v21.152h6.369V17.35C37.691,12.591,31.323,12.591,31.323,17.35z"/>
<path fill="#DBA97F" d="M44.063,6.097c2.148,0.095,2.99,2.338,2.945,5.118c-3.418,3.371,3.125,6.186,1.834,18.458
	c-0.043,0.402,1.736,0.69,1.775,0.236c0.682-7.938-1.6-15.313-2.176-20.412C48.09,6.394,45.777,5.715,44.063,6.097z"/>
<path fill="#DBA97F" d="M33.713,13.884c1.285,0.332,2.391,1.475,2.391,3.455v14.099h1.588V17.339
	C37.691,14.557,35.521,13.412,33.713,13.884z"/>
<path fill="#DBA97F" d="M38.887,31.438c0,0-1.592,0-4.379,1.767c0,0,2.389-2.209,2.389-5.299
	C37.295,31.438,38.887,31.438,38.887,31.438z"/>
<path fill="#DBA97F" d="M45.359,30.72c0,0-2.389-0.441-4.379,0.442c0,0,1.951-1.58,2.35-5.109
	C43.729,29.582,45.359,30.72,45.359,30.72z"/>
<path fill="#DBA97F" d="M52.025,31.438c0,0-1.594-1.325-4.379-0.442c0,0,1.99-1.322,1.99-4.854
	C49.637,29.673,52.025,31.438,52.025,31.438z"/>
<path fill="#FCD5B2" d="M47.402,14.374c2.23,5.348,3.211,8.994,3.211,15.396l5.645-0.98c0,0-1.289-11.236-3.875-16.58
	C50.432,8.177,45.578,9.995,47.402,14.374z"/>
<path fill="#DBA97F" d="M48.895,10.013c1.311-0.205,2.18,0.518,3.467,3.108c1.777,3.58,2.852,11.452,2.852,11.452
	s0.396,0.935,1.59-0.573c0,0-1.748-8.358-3.357-11.304C51.99,10.034,50.199,9.455,48.895,10.013z"/>
<path fill="#DBA97F" d="M55.213,24.573c-2.092,7.374,1.021,9.933-1.33,10.505c-2.984,0.73-9.82,4.307-9.82,11.084
	c1.627-6.059,6.387-8.258,11.363-9.805C58.191,35.5,52.557,27.905,56.803,24L55.213,24.573z"/>
<path fill="#DBA97F" d="M32,15.052l-0.678,18.152c0,0-1.613,12.958,1.535,18.704c2.476-7.361,0.855-11.949,0.855-20.819
	C33.713,17.89,33.377,15.894,32,15.052z"/>
<path fill="#FCD5B2" d="M26.309,10.286v26.45h-6.371v-26.45C19.938,5.526,26.309,5.526,26.309,10.286z"/>
<path fill="#DBA97F" d="M23.918,6.82c-0.599,0.154-1.063,0.381-1.489,0.888c0.694,0.361,1.027,1.38,0.694,2.76
	c-1.131,4.687-1.596,7.492-1.596,19.204c0,0.405-1.59,0-1.59,0V10.274C19.938,7.493,22.107,6.349,23.918,6.82z"/>
<path fill="#FCD5B2" d="M7.197,24l25.481,9.204c0,0,0.402,11.081,0,13.243c-1.688,9.043-4.736,11.479-14.157,11.479l0,0l0,0
	c-11.424,0-12.783-8.213-15.918-16.711c-2.012-5.447,1.74-9.712,0.695-15.506C2.926,23.635,5.045,22.523,7.197,24z"/>
<path fill="#FCD5B2" d="M22.111,9.565c-1.178,6.506-2.174,7.589-2.174,27.171c0,1.621-6.369,0-6.369,0l2.174-27.171
	C15.742,4.805,22.959,4.884,22.111,9.565z"/>
<path fill="#FCD5B2" d="M32.678,17.35v21.152h-6.37V17.35C26.309,12.59,32.678,12.59,32.678,17.35z"/>
<path fill="#DBA97F" d="M19.938,6.097c-2.148,0.094-2.991,2.337-2.945,5.118c3.417,3.37-3.125,6.186-1.834,18.457
	c0.042,0.402-1.736,0.691-1.775,0.237c-0.683-7.938,1.6-15.313,2.176-20.413C15.909,6.394,18.222,5.714,19.938,6.097z"/>
<path fill="#DBA97F" d="M30.288,13.884c-1.285,0.332-2.391,1.475-2.391,3.454v14.1h-1.588v-14.1
	C26.309,14.556,28.479,13.412,30.288,13.884z"/>
<path fill="#DBA97F" d="M25.113,31.438c0,0,1.592,0,4.379,1.767c0,0-2.389-2.209-2.389-5.299
	C26.705,31.438,25.113,31.438,25.113,31.438z"/>
<path fill="#DBA97F" d="M18.64,30.72c0,0,2.389-0.441,4.379,0.441c0,0-1.951-1.579-2.35-5.109
	C20.271,29.582,18.64,30.72,18.64,30.72z"/>
<path fill="#DBA97F" d="M11.975,31.438c0,0,1.594-1.325,4.379-0.442c0,0-1.99-1.323-1.99-4.854
	C14.363,29.672,11.975,31.438,11.975,31.438z"/>
<path fill="#FCD5B2" d="M16.597,14.373c-2.229,5.349-3.21,8.994-3.21,15.396l-5.645-0.979c0,0,1.289-11.237,3.875-16.581
	C13.568,8.176,18.422,9.995,16.597,14.373z"/>
<path fill="#DBA97F" d="M15.104,10.012c-1.31-0.205-2.18,0.518-3.467,3.109C9.86,16.7,8.787,24.572,8.787,24.572
	S8.391,25.508,7.197,24c0,0,1.747-8.359,3.356-11.304C12.009,10.034,13.8,9.455,15.104,10.012z"/>
<path fill="#DBA97F" d="M8.787,24.572c2.092,7.374-1.021,9.934,1.33,10.506c2.984,0.73,9.82,4.307,9.82,11.084
	c-1.627-6.059-6.387-8.258-11.363-9.805C5.809,35.5,11.443,27.905,7.197,24L8.787,24.572z"/>
</svg>
