<?xml version="1.0" encoding="utf-8"?>
<!-- Generator: Adobe Illustrator 15.0.0, SVG Export Plug-In . SVG Version: 6.00 Build 0)  -->
<!DOCTYPE svg PUBLIC "-//W3C//DTD SVG 1.1//EN" "http://www.w3.org/Graphics/SVG/1.1/DTD/svg11.dtd">
<svg version="1.1" id="Layer_1" xmlns="http://www.w3.org/2000/svg" xmlns:xlink="http://www.w3.org/1999/xlink" x="0px" y="0px"
	 width="64px" height="64px" viewBox="0 0 64 64" enable-background="new 0 0 64 64" xml:space="preserve">
<polygon fill="#FDCA47" points="26.609,60 7,60 8,51.181 27.609,51.181 "/>
<polygon fill="#FDCA47" points="57,60 37.391,60 36.391,51.181 56,51.181 "/>
<path fill="#FDCA47" d="M37.691,8.287v26.45h6.371V8.287C44.063,3.527,37.691,3.527,37.691,8.287z"/>
<path fill="#CC9200" d="M40.082,4.82c0.599,0.155,1.063,0.381,1.489,0.888c-0.694,0.361-1.027,1.379-0.694,2.759
	c1.131,4.687,1.596,7.493,1.596,19.205c0,0.405,1.59,0,1.59,0V8.274C44.063,5.493,41.893,4.349,40.082,4.82z"/>
<path fill="#FDCA47" d="M56.803,22l-25.48,9.205c0,0-0.402,11.081,0,13.243c1.688,9.042,4.736,11.478,14.156,11.478l0,0l0,0
	c11.424,0,12.783-8.212,15.918-16.71c2.012-5.447-1.74-9.712-0.695-15.506C61.074,21.635,58.955,20.523,56.803,22z"/>
<path fill="#FDCA47" d="M41.889,7.566c1.178,6.506,2.174,7.588,2.174,27.17c0,1.621,6.369,0,6.369,0l-2.174-27.17
	C48.258,2.805,41.041,2.884,41.889,7.566z"/>
<path fill="#FDCA47" d="M31.322,15.35v21.151h6.369V15.35C37.691,10.59,31.322,10.59,31.322,15.35z"/>
<path fill="#CC9200" d="M44.063,4.097c2.148,0.094,2.991,2.337,2.945,5.118c-3.417,3.371,3.125,6.186,1.834,18.458
	c-0.042,0.402,1.736,0.691,1.775,0.237c0.683-7.938-1.6-15.313-2.176-20.413C48.091,4.394,45.778,3.714,44.063,4.097z"/>
<path fill="#CC9200" d="M33.713,11.884c1.285,0.332,2.391,1.475,2.391,3.455v14.099h1.588V15.338
	C37.691,12.556,35.521,11.412,33.713,11.884z"/>
<path fill="#CC9200" d="M38.887,29.438c0,0-1.592,0-4.379,1.767c0,0,2.389-2.209,2.389-5.299
	C37.295,29.438,38.887,29.438,38.887,29.438z"/>
<path fill="#CC9200" d="M45.36,28.72c0,0-2.389-0.441-4.379,0.442c0,0,1.951-1.58,2.35-5.11C43.729,27.582,45.36,28.72,45.36,28.72z
	"/>
<path fill="#CC9200" d="M52.025,29.438c0,0-1.594-1.325-4.379-0.442c0,0,1.99-1.323,1.99-4.854
	C49.637,27.672,52.025,29.438,52.025,29.438z"/>
<path fill="#FDCA47" d="M47.403,12.374c2.229,5.348,3.21,8.995,3.21,15.396l5.645-0.98c0,0-1.289-11.237-3.875-16.58
	C50.432,6.176,45.578,7.995,47.403,12.374z"/>
<path fill="#CC9200" d="M48.896,8.012c1.31-0.205,2.18,0.518,3.467,3.109c1.777,3.58,2.851,11.452,2.851,11.452
	s0.396,0.935,1.59-0.573c0,0-1.747-8.358-3.356-11.303C51.991,8.034,50.2,7.455,48.896,8.012z"/>
<path fill="#CC9200" d="M55.213,22.573c-2.092,7.374,1.021,9.933-1.33,10.505c-2.984,0.73-9.82,4.307-9.82,11.083
	c1.627-6.059,6.387-8.257,11.363-9.804C58.191,33.5,52.557,25.905,56.803,22L55.213,22.573z"/>
<path fill="#CC9200" d="M32,13.052l-0.678,18.152c0,0-1.613,12.957,1.535,18.704c2.477-7.362,0.855-11.949,0.855-20.819
	C33.713,15.889,33.377,13.894,32,13.052z"/>
<path fill="#FDCA47" d="M26.309,8.286v26.45h-6.371V8.286C19.938,3.526,26.309,3.526,26.309,8.286z"/>
<path fill="#CC9200" d="M23.918,4.82c-0.599,0.155-1.063,0.381-1.489,0.888c0.694,0.361,1.027,1.379,0.694,2.759
	c-1.131,4.687-1.596,7.493-1.596,19.205c0,0.405-1.59,0-1.59,0V8.274C19.938,5.493,22.107,4.348,23.918,4.82z"/>
<path fill="#FDCA47" d="M7.197,22l25.48,9.205c0,0,0.402,11.081,0,13.243c-1.688,9.042-4.736,11.478-14.156,11.478l0,0l0,0
	c-11.424,0-12.783-8.212-15.918-16.71c-2.012-5.447,1.74-9.712,0.695-15.506C2.926,21.635,5.045,20.523,7.197,22z"/>
<path fill="#FDCA47" d="M22.111,7.565c-1.178,6.506-2.174,7.588-2.174,27.171c0,1.621-6.369,0-6.369,0l2.174-27.171
	C15.742,2.804,22.959,2.883,22.111,7.565z"/>
<path fill="#FDCA47" d="M32.678,15.349v21.152h-6.369V15.349C26.309,10.59,32.678,10.59,32.678,15.349z"/>
<path fill="#CC9200" d="M19.938,4.097c-2.148,0.094-2.991,2.337-2.945,5.118c3.417,3.371-3.125,6.186-1.834,18.458
	c0.042,0.402-1.736,0.691-1.775,0.237c-0.683-7.938,1.6-15.313,2.176-20.413C15.909,4.393,18.222,3.714,19.938,4.097z"/>
<path fill="#CC9200" d="M30.287,11.883c-1.285,0.332-2.391,1.475-2.391,3.455v14.099h-1.588V15.338
	C26.309,12.556,28.479,11.412,30.287,11.883z"/>
<path fill="#CC9200" d="M25.113,29.437c0,0,1.592,0,4.379,1.767c0,0-2.389-2.209-2.389-5.299
	C26.705,29.437,25.113,29.437,25.113,29.437z"/>
<path fill="#CC9200" d="M18.64,28.719c0,0,2.389-0.441,4.379,0.442c0,0-1.951-1.58-2.35-5.109
	C20.271,27.582,18.64,28.719,18.64,28.719z"/>
<path fill="#CC9200" d="M11.975,29.437c0,0,1.594-1.325,4.379-0.442c0,0-1.99-1.323-1.99-4.855
	C14.363,27.672,11.975,29.437,11.975,29.437z"/>
<path fill="#FDCA47" d="M16.597,12.373c-2.229,5.348-3.21,8.994-3.21,15.396l-5.645-0.98c0,0,1.289-11.237,3.875-16.581
	C13.568,6.176,18.422,7.995,16.597,12.373z"/>
<path fill="#CC9200" d="M15.104,8.012c-1.31-0.205-2.18,0.518-3.467,3.109C9.86,14.7,8.787,22.572,8.787,22.572
	S8.391,23.507,7.197,22c0,0,1.747-8.359,3.356-11.304C12.009,8.034,13.8,7.455,15.104,8.012z"/>
<path fill="#CC9200" d="M8.787,22.572c2.092,7.374-1.021,9.934,1.33,10.506c2.984,0.73,9.82,4.307,9.82,11.083
	c-1.627-6.059-6.387-8.257-11.363-9.804C5.809,33.5,11.443,25.905,7.197,22L8.787,22.572z"/>
</svg>
