<?xml version="1.0" encoding="utf-8"?>
<!-- Generator: Adobe Illustrator 15.0.0, SVG Export Plug-In . SVG Version: 6.00 Build 0)  -->
<!DOCTYPE svg PUBLIC "-//W3C//DTD SVG 1.1//EN" "http://www.w3.org/Graphics/SVG/1.1/DTD/svg11.dtd">
<svg version="1.1" id="Layer_1" xmlns="http://www.w3.org/2000/svg" xmlns:xlink="http://www.w3.org/1999/xlink" x="0px" y="0px"
	 width="64px" height="64px" viewBox="0 0 64 64" enable-background="new 0 0 64 64" xml:space="preserve">
<path fill="#614036" d="M32,6C8.377,6,8.377,20,8.377,37.5h47.246C55.623,20,55.623,6,32,6z"/>
<path fill="#75543D" d="M13.038,44.009c2.563-2.387,0.237-11.746-3.068-12.31C2.909,30.496,7.508,49.155,13.038,44.009z"/>
<path fill="#75543D" d="M50.963,44.009c-2.563-2.387-0.237-11.746,3.068-12.31C61.091,30.496,56.493,49.153,50.963,44.009z"/>
<path fill="#916B50" d="M53.354,32.559c0-19.618-8.385-13.214-21.353-13.214c-12.965,0-21.353-6.404-21.353,13.214
	c0,0,0.047,5.547,1.429,12.832C13.906,55.03,24.17,62,32,62c7.832,0,18.098-6.97,19.925-16.609
	C53.307,38.103,53.354,32.559,53.354,32.559z"/>
<path fill="#734A2E" d="M32,49.037c-3.823-1.016-9.49,0.479-9.49,0.479c2.159,2.115,3.741,4.86,9.49,4.86
	c6.59,0,7.707-3.117,9.49-4.86C41.49,49.517,35.818,48.02,32,49.037z"/>
<path fill="#FFFFFF" d="M23.846,49.593c4.061,3.775,12.273,3.8,16.36,0C35.872,49.799,28.208,49.8,23.846,49.593z"/>
<path fill="#F5F5F5" d="M49.557,34.024c-2.285,5.953-11.582,5.079-13.286,0.916C37.564,28.25,48.3,27.676,49.557,34.024z"/>
<path fill="#45332C" d="M38.643,33.39c0,5.251,7.593,5.251,7.593,0C46.235,28.516,38.643,28.516,38.643,33.39z"/>
<path fill="#45332C" d="M49.557,33.981c0-6.392-13.286-6.392-13.286,1.011C38.168,28.92,47.659,28.92,49.557,33.981z"/>
<path fill="#F5F5F5" d="M14.443,34.024c2.286,5.953,11.583,5.079,13.286,0.916C26.436,28.25,15.702,27.676,14.443,34.024z"/>
<path fill="#45332C" d="M25.357,33.39c0,5.251-7.592,5.251-7.592,0C17.765,28.518,25.357,28.518,25.357,33.39z"/>
<path fill="#45332C" d="M14.443,33.981c0-6.391,13.286-6.391,13.286,1.009C25.833,28.92,16.341,28.92,14.443,33.981z"/>
<path fill="#F5F5F5" d="M39.109,32.113c0,1.313,1.898,1.313,1.898,0C41.008,30.896,39.109,30.896,39.109,32.113z"/>
<path fill="#F5F5F5" d="M20.367,31.848c0,1.313-1.898,1.313-1.898,0C18.469,30.629,20.367,30.629,20.367,31.848z"/>
<path fill="#664935" d="M49.051,28.146c-4.078-1.681-9.66-2.009-12.525-0.889c-0.605,0.236-0.588,1.686-0.052,1.539
	c4.108-1.118,8.839-1.205,12.73,0.148C49.727,29.129,49.663,28.398,49.051,28.146z"/>
<path fill="#664935" d="M14.95,28.146c4.078-1.681,9.659-2.009,12.525-0.889c0.605,0.236,0.587,1.686,0.052,1.539
	c-4.109-1.118-8.84-1.206-12.73,0.148C14.273,29.129,14.337,28.398,14.95,28.146z"/>
<path fill="#664935" d="M36.745,43.132c0,3.088-9.49,3.088-9.49,0C27.255,42.423,36.745,42.423,36.745,43.132z"/>
<polygon fill="#F59E01" points="22,8 18,4 14,8 16,8 16,12 22,12 "/>
<polygon fill="#F59E01" points="50.039,8 46,4 42,8 42,12 48,12 48,8 "/>
<path fill="#B30BAD" d="M54.004,16h-44C10.004,2.668,54.004,2.668,54.004,16z"/>
<path fill="#7D0C7A" d="M48,16H12C12,5.334,48,5.334,48,16z"/>
<rect x="8" y="20" fill="#F59E01" width="48" height="6"/>
<polygon fill="#F9C802" points="50,10 52,12 52,14 36,14 36,12 38,10 32.004,2 26,10 28,12 28,14 12,14 12,12 14,10 6,3.904 8,24 
	56,24 58,3.904 "/>
<polygon fill="#75D6FF" points="32.027,22 32.027,18.938 34,18.938 "/>
<polygon fill="#018BC9" points="32.027,22 30,18.938 32.027,18.938 "/>
<polygon fill="#018BC9" points="34,18.938 32.027,18.938 32.027,16 "/>
<polygon fill="#75D6FF" points="32.027,16 32.027,18.938 30,18.938 "/>
<polygon fill="#75D6FF" points="14.777,22 14.777,18.938 16.746,18.938 "/>
<polygon fill="#018BC9" points="14.777,22 12.746,18.938 14.777,18.938 "/>
<polygon fill="#018BC9" points="16.746,18.938 14.777,18.938 14.777,16 "/>
<polygon fill="#75D6FF" points="14.777,16 14.777,18.938 12.746,18.938 "/>
<polygon fill="#75D6FF" points="23.419,22 23.419,18.938 25.383,18.938 "/>
<polygon fill="#018BC9" points="23.419,22 21.383,18.938 23.419,18.938 "/>
<polygon fill="#018BC9" points="25.383,18.938 23.419,18.938 23.419,16 "/>
<polygon fill="#75D6FF" points="23.419,16 23.419,18.938 21.383,18.938 "/>
<polygon fill="#75D6FF" points="40.691,22 40.691,18.938 42.656,18.938 "/>
<polygon fill="#018BC9" points="40.691,22 38.656,18.938 40.691,18.938 "/>
<polygon fill="#018BC9" points="42.656,18.938 40.691,18.938 40.691,16 "/>
<polygon fill="#75D6FF" points="40.691,16 40.691,18.938 38.656,18.938 "/>
<polygon fill="#75D6FF" points="49.324,22 49.324,18.938 51.297,18.938 "/>
<polygon fill="#018BC9" points="49.324,22 47.297,18.938 49.324,18.938 "/>
<polygon fill="#018BC9" points="51.297,18.938 49.324,18.938 49.324,16 "/>
<polygon fill="#75D6FF" points="49.324,16 49.324,18.938 47.297,18.938 "/>
<polygon fill="#018BC9" points="8,22 6,18.938 8,18.938 "/>
<polygon fill="#75D6FF" points="8,16 8,18.938 6,18.938 "/>
<polygon fill="#75D6FF" points="56,22 56,18.938 58,18.938 "/>
<polygon fill="#018BC9" points="58,18.938 56,18.938 56,16 "/>
</svg>
