<?xml version="1.0" encoding="utf-8"?>
<!-- Generator: Adobe Illustrator 15.0.0, SVG Export Plug-In . SVG Version: 6.00 Build 0)  -->
<!DOCTYPE svg PUBLIC "-//W3C//DTD SVG 1.1//EN" "http://www.w3.org/Graphics/SVG/1.1/DTD/svg11.dtd">
<svg version="1.1" id="Layer_1" xmlns="http://www.w3.org/2000/svg" xmlns:xlink="http://www.w3.org/1999/xlink" x="0px" y="0px"
	 width="64px" height="64px" viewBox="0 0 64 64" enable-background="new 0 0 64 64" xml:space="preserve">
<path fill="#FDCA47" d="M19.448,25.388c0.521,3.51,0.814,5.146-2.338,7.32c-2.471,1.705,11.64,15.154,25.002,13.74
	c14.175-9.491-5.264-15.645-6.461-16.215c-1.982-0.945-5.277,0.148-8.548,0.348c-1.368,0.084-1.299-3.386-0.869-4.242L19.448,25.388
	z"/>
<path fill="#E6A400" d="M28.472,37.313c8.205,4.789,4.923,8.411,1.869,9.285c1.904,1.725,15.486-0.78,12.408-10.076
	c-3.488,0.51-4.465,3.712-4.279,4.669C34.741,43.108,33.806,38.844,28.472,37.313z"/>
<path fill="#8E3ED6" d="M16.896,32.302c-2.521,1.633-5.297,4.461-5.859,6.83c-0.803,3.383,13.558,20.313,16.369,19.219
	c10.472-4.079,18.587-8.584,19.337-13.169c1.139-6.963-10.08-14.81-11.277-15.38c-0.572-0.272-4.832-0.071-4.312,0.27
	c3.039,1.978,3.382,3.098,3.382,3.098c13.682,2.925,8.441,6.333,2.17,11.882C26.312,44.614,18.502,31.261,16.896,32.302z"/>
<path fill="#E635DE" d="M51.465,40.503c-2.185-8.795-13.399-4.277-11.302,2.254C46.286,49.521,51.465,40.503,51.465,40.503z"/>
<path fill="#7D0C7A" d="M49.646,37.086c-0.805,2.256-2.492,4.104-2.492,4.104s-1.557-0.586-2.605-0.341
	c-0.197-2.08-2.197-1.99-1.752,0.527C47.499,49.009,52.307,38.251,49.646,37.086z"/>
<path fill="#0FB4D4" d="M49.13,44.498c-2.184-8.797-23.665,2.308-23.249,10.977C32.001,62.236,49.13,44.498,49.13,44.498z"/>
<path fill="#018BC9" d="M49.13,44.498c-0.742-2.992-2.746-3.855-6.334-3.121c1.586,5.677-0.068,3.829-16.915,14.098
	C30.183,69.136,53.254,54.96,49.13,44.498z"/>
<path fill="#FDCA47" d="M52.574,40.684c0.262-0.573-0.438-2.063-1.23-2.034c-0.221-1.245-1.651-2.728-1.698-1.563
	c-0.094,2.467-2.797,6.21-4.018,5.679c-1.418-0.613-1.232-3.947-2.129-2.726c-0.889,1.21,1.451,6.022,0.623,6.545
	c-6.92,4.351-9.852,4.569-16.384,8.718C17.353,37.638,13.082,36.669,12.191,37.675C6.403,44.2,23.456,61.273,26.046,61.905
	c3.355,0.82,12.884-3.707,21.861-12.915C49.774,47.075,54.422,44.765,52.574,40.684z"/>
<path fill="#E6A400" d="M31.154,30.071c-0.826,6.8-9.229-3.582-7.626,3.546c-10.314-6.555-8.07-16.12-5.769-16.826
	C23.43,20.333,31.154,30.071,31.154,30.071z"/>
<path fill="#FDCA47" d="M29.556,5.143c10.197,3.712,9.401,9.894,6.974,13.655c-1.289,1.997-0.893,3.994,0.155,6.066
	c0.646,1.277-0.57,2.103-2.465,1.412c-0.496,0.797-0.101,1.245-0.101,1.245s-1.761,0.474-1.585,0.916
	c0.438,0.158,0.734,1.36-0.469,1.425c-1.047,0.056,0.113,2.99-3.549,2.021c-2.787-0.735-5.528-2.822-7.283-6.073
	c-1.062-1.965-1.037-5.22-1.037-5.22C15.143,17.733,11.26,7.613,29.556,5.143z"/>
<path fill="#E6A400" d="M22.583,17.089c0.601-1.457-0.078-3.212-1.278-3.705c0,0,1.35,2.574-0.144,4.703
	C21.162,18.087,22.165,18.105,22.583,17.089z"/>
<path fill-rule="evenodd" clip-rule="evenodd" fill="#E6A400" d="M35.782,18.441c1.478-2.903-2.811-2.482-4.212-2.695
	C32.576,16.434,35.559,16.432,35.782,18.441z"/>
<path fill="#F5BC2C" d="M29.886,25.981c0.438,2.131,1.35,3.337,1.986,3.934c1.351,0.072,1.241-1.381,0.676-1.586
	C32.113,28.17,31.478,27.432,29.886,25.981z"/>
<path fill="#E6A400" d="M29.886,25.981c0.635,1.437,2.648,2.456,2.648,2.456c0.347,0.014,1.246,0.019,1.585-0.916
	C33.343,27.775,31.208,27.165,29.886,25.981z"/>
<path fill="#FFFFFF" d="M31.449,18.043c-0.719,2.886,1.109,3.284,1.525,3.437C33.616,21.347,36.907,17.332,31.449,18.043z"/>
<path fill="#45332C" d="M34.31,20.136c-1.125,2.021-2.277,2.042-1.254-0.778C33.806,17.288,35.218,18.512,34.31,20.136z"/>
<path fill-rule="evenodd" clip-rule="evenodd" fill="#45332C" d="M34.733,19.275c0.445-2.166-2.281-1.557-3.485-1.269
	C32.832,18.317,34.108,18.033,34.733,19.275z"/>
<path fill="#EA8800" d="M38.45,12.946c-0.768,2.064-12.486,2.433-15.48-0.71c-5.393,3.744-3.451,18.613,0.558,21.381
	C5.064,27.028,10.865,7.121,19.369,2.847C26.837-0.906,39.993,8.788,38.45,12.946z"/>
<path fill="#D67C00" d="M38.45,12.946c-0.768,2.064-12.38,2.833-15.375-0.31c-5.393,3.744-3.557,18.213,0.452,20.98
	c-10.171-5.668-5.421-22.918-0.721-23.543C27.64,14.191,35.794,13.98,38.45,12.946z"/>
</svg>
