<?xml version="1.0" encoding="utf-8"?>
<!-- Generator: Adobe Illustrator 15.0.0, SVG Export Plug-In . SVG Version: 6.00 Build 0)  -->
<!DOCTYPE svg PUBLIC "-//W3C//DTD SVG 1.1//EN" "http://www.w3.org/Graphics/SVG/1.1/DTD/svg11.dtd">
<svg version="1.1" id="Layer_1" xmlns="http://www.w3.org/2000/svg" xmlns:xlink="http://www.w3.org/1999/xlink" x="0px" y="0px"
	 width="64px" height="64px" viewBox="0 0 64 64" enable-background="new 0 0 64 64" xml:space="preserve">
<path fill="#6E8189" d="M56.347,20.668H7.653c-2.717,5.914-2.324,16.142,2.972,22.369h42.749
	C58.671,36.811,59.063,26.583,56.347,20.668z"/>
<path fill="#F5BC2C" d="M10.583,31.95c-6.865-1.176-2.393,17.08,2.982,12.042C16.057,41.66,13.796,32.502,10.583,31.95z"/>
<path fill="#F5BC2C" d="M53.418,31.95c-3.213,0.553-5.474,9.71-2.982,12.042C55.812,49.029,60.282,30.774,53.418,31.95z"/>
<path fill="#FDCA47" d="M32,22.122c-5.317,3.98-12.826,1.426-21.416,9.828c0,0,0.425,8.291,1.787,15.498
	C14.126,56.74,26.854,62,32,62c5.147,0,17.875-5.26,19.63-14.553c1.362-7.207,1.786-15.498,1.786-15.498
	C44.825,23.547,37.317,26.102,32,22.122z"/>
<path fill="#F5F5F5" d="M49.18,37.762c-1.388,3.615-12.181,2.182-13,0.18C37.445,31.397,47.95,31.551,49.18,37.762z"/>
<path fill="#45332C" d="M38.966,36.291c0,4.494,6.5,4.494,6.5,0C45.466,32.12,38.966,32.12,38.966,36.291z"/>
<path fill="#45332C" d="M49.18,37.719c0-6.253-13-6.968-13,0.273C38.036,32.051,47.323,32.766,49.18,37.719z"/>
<path fill="#F5F5F5" d="M14.821,37.762c1.389,3.615,12.182,2.182,13,0.18C26.557,31.397,16.053,31.551,14.821,37.762z"/>
<path fill="#45332C" d="M25.035,36.291c0,4.494-6.5,4.494-6.5,0C18.535,32.12,25.035,32.12,25.035,36.291z"/>
<path fill="#45332C" d="M14.821,37.719c0-6.251,13-6.968,13,0.271C25.966,32.051,16.678,32.766,14.821,37.719z"/>
<path fill="#F5F5F5" d="M39.366,35.313c0,1.125,1.625,1.125,1.625,0C40.991,34.27,39.366,34.27,39.366,35.313z"/>
<path fill="#F5F5F5" d="M20.763,34.971c0,1.123-1.625,1.123-1.625,0C19.138,33.928,20.763,33.928,20.763,34.971z"/>
<path fill="#D99025" d="M32.001,50.273c-3.738-0.99-9.285,0.471-9.285,0.471c2.113,2.07,3.661,4.754,9.285,4.754
	c6.449,0,7.543-3.047,9.287-4.754C41.288,50.744,35.739,49.277,32.001,50.273z"/>
<path fill="#FFFFFF" d="M24.023,50.818c3.974,3.695,12.009,3.721,16.009,0C35.792,51.021,28.292,51.023,24.023,50.818z"/>
<path fill="#E6A400" d="M37.752,44.18c1.219,3.896,5.058,7.416,9.388,8.533C45.12,51.492,39.097,46.014,37.752,44.18z"/>
<path fill="#E6A400" d="M16.863,52.713c4.285-1.105,8.155-4.598,9.385-8.533C24.904,46.014,18.879,51.492,16.863,52.713z"/>
<path fill="#E6A400" d="M36.18,40.252c3.072,3.697,10.161,3.73,13.274,0C47.362,42.141,38.271,42.141,36.18,40.252z"/>
<path fill="#E6A400" d="M14.547,40.252c3.072,3.697,10.162,3.73,13.274,0C25.729,42.141,16.638,42.141,14.547,40.252z"/>
<path fill="#99A8AE" d="M48.685,31.985c-3.99-1.645-9.451-1.967-12.256-0.869c-0.592,0.23-0.573,1.648-0.05,1.504
	c4.021-1.094,8.647-1.178,12.456,0.146C49.347,32.946,49.284,32.229,48.685,31.985z"/>
<path fill="#99A8AE" d="M15.318,31.985c3.99-1.645,9.451-1.967,12.255-0.869c0.593,0.23,0.574,1.648,0.051,1.504
	c-4.021-1.094-8.649-1.18-12.455,0.146C14.657,32.946,14.719,32.229,15.318,31.985z"/>
<path fill="#E6A400" d="M36.388,45.854c0,2.855-8.775,2.855-8.775,0C27.612,45.199,36.388,45.199,36.388,45.854z"/>
<path opacity="0.5" fill="#FFFFFF" d="M27.584,42.836c0,6.445-14.471,6.445-14.471,0C13.113,35.428,27.584,35.428,27.584,42.836z"/>
<path opacity="0.5" fill="#FFFFFF" d="M50.886,42.836c0,6.445-14.469,6.445-14.469,0C36.417,35.428,50.886,35.428,50.886,42.836z"/>
<path fill="#302C3B" d="M12.758,41.988c0,0-3.729-2.746-2.578-10.904l1.049,0.15c-1.072,7.593,2.243,9.964,2.243,9.964
	L12.758,41.988z"/>
<path fill="#302C3B" d="M51.242,41.988l-0.714-0.789c0,0,3.321-2.352,2.242-9.964l1.049-0.15
	C54.972,39.248,51.242,41.988,51.242,41.988z"/>
<path fill="#E81C27" d="M59.057,29.19c0,0-13.148-8.004-27.057-8.004c-13.91,0-27.059,8.004-27.059,8.004
	C4.941-7.064,59.057-7.064,59.057,29.19z"/>
<path fill="#E6EBEF" d="M55.441,24.999c-0.869-1.863,1.418-6.805,0.115-8.342c-1.689-1.996-7.746,0.438-9.975-0.787
	c-1.754-0.965-3.145-6.158-5.086-6.504c-2.447-0.434-6.211,5.543-8.496,5.543s-6.049-5.977-8.496-5.543
	c-1.942,0.346-3.332,5.539-5.087,6.504c-2.229,1.225-8.285-1.209-9.975,0.787c-1.302,1.537,0.984,6.479,0.116,8.342
	c-0.908,1.945-6.455,2.902-6.557,5.08c-0.099,2.123,3.32,8.15,5.144,7.353c0,0,5.817-14.572,24.854-14.572
	s24.911,14.419,24.911,14.419c1.824,0.795,5.185-5.078,5.087-7.201C61.896,27.901,56.35,26.944,55.441,24.999z"/>
<path opacity="0.5" fill="#FFFFFF" d="M20.136,37.287l-6.811,6.811c0.309,0.904,0.949,1.637,1.796,2.197l8.48-8.48
	C22.524,37.436,21.327,37.264,20.136,37.287z"/>
<path opacity="0.5" fill="#FFFFFF" d="M26.06,39.273l-8.142,8.141c1.135,0.244,2.356,0.311,3.541,0.201l5.981-5.982
	C27.216,40.693,26.726,39.908,26.06,39.273z"/>
<path opacity="0.5" fill="#FFFFFF" d="M42.396,37.357l-5.945,5.947c0.124,1.076,0.674,1.953,1.49,2.631l8.32-8.318
	C45.031,37.287,43.687,37.201,42.396,37.357z"/>
<path opacity="0.5" fill="#FFFFFF" d="M49.392,39.301l-8.122,8.123c0.917,0.193,1.89,0.271,2.853,0.232l6.482-6.48
	C50.351,40.449,49.933,39.824,49.392,39.301z"/>
<path fill="#302C3B" d="M20.348,47.281c-3.315,0-6.885-1.504-6.885-4.807s3.57-4.807,6.885-4.807c3.316,0,6.885,1.504,6.885,4.807
	S23.665,47.281,20.348,47.281 M20.348,36.6c-3.826,0-7.944,1.838-7.944,5.875s4.118,5.875,7.944,5.875
	c3.827,0,7.944-1.838,7.944-5.875S24.175,36.6,20.348,36.6"/>
<path fill="#302C3B" d="M43.651,47.281c-3.316,0-6.885-1.504-6.885-4.807s3.568-4.807,6.885-4.807s6.885,1.504,6.885,4.807
	S46.968,47.281,43.651,47.281 M43.651,36.6c-3.825,0-7.943,1.838-7.943,5.875s4.118,5.875,7.943,5.875
	c3.828,0,7.945-1.838,7.945-5.875S47.479,36.6,43.651,36.6"/>
<path fill="#302C3B" d="M36.804,42.148h-1.059c0-1.652-1.941-2.406-3.745-2.406s-3.745,0.754-3.745,2.406h-1.059
	c0-2.387,2.49-3.473,4.804-3.473S36.804,39.762,36.804,42.148z"/>
</svg>
