<?xml version="1.0" encoding="utf-8"?>
<!-- Generator: Adobe Illustrator 15.0.0, SVG Export Plug-In . SVG Version: 6.00 Build 0)  -->
<!DOCTYPE svg PUBLIC "-//W3C//DTD SVG 1.1//EN" "http://www.w3.org/Graphics/SVG/1.1/DTD/svg11.dtd">
<svg version="1.1" id="Layer_1" xmlns="http://www.w3.org/2000/svg" xmlns:xlink="http://www.w3.org/1999/xlink" x="0px" y="0px"
	 width="64px" height="64px" viewBox="0 0 64 64" enable-background="new 0 0 64 64" xml:space="preserve">
<path fill="#302C3B" d="M11.435,50.924c2.499-1.635,14.014-5.949,14.014-5.949h13.186c0,0,11.505,4.307,13.993,5.947
	C56.24,53.297,57,62,57,62H7C7,62,7.807,53.289,11.435,50.924"/>
<rect x="24.473" y="43.707" fill="#DBA97F" width="15" height="7.885"/>
<path fill="#1A1626" d="M52.061,54.633c-0.68,1.838-1.318,5.174-0.775,7.367C52.454,60.793,52.691,52.924,52.061,54.633"/>
<path fill="#1A1626" d="M12.715,62c0.545-2.193-0.096-5.529-0.775-7.367C11.309,52.924,11.546,60.793,12.715,62"/>
<path fill="#E6EBEF" d="M38.081,62c1.821-4.404,1.863-17.746,1.863-17.746c-2.669,4.842-7.681,7.051-7.973,7.176
	C31.68,51.305,26.67,49.096,24,44.254c0,0,0.041,13.342,1.863,17.746H38.081z"/>
<path fill="#FFFFFF" d="M31.972,51.43C31.68,51.305,26.67,49.096,24,44.254c0,0,0.016,4.123,0.339,8.539
	c0.99,1.645,2.637,4.205,3.277,4.205c0.942,0,4.355-5.063,4.355-5.063s3.387,5.063,4.412,5.063c0.737,0,2.287-2.467,3.218-4.143
	c0.328-4.441,0.343-8.602,0.343-8.602C37.275,49.096,32.264,51.305,31.972,51.43"/>
<path fill="#302C3B" d="M38.869,54.766c0.492,1.227-5.146-1.154-5.146-1.154V50.91c0,0,5.48-3.186,5.119-1.914
	C38.398,50.564,38.463,53.754,38.869,54.766z"/>
<polygon fill="#4E5E67" points="36.518,52.041 34.193,51.85 35.738,50.486 33.723,51.586 33.723,52.959 35.996,53.656 34.252,52.59 
	"/>
<path fill="#302C3B" d="M25.131,54.766c-0.492,1.227,5.146-1.154,5.146-1.154V50.91c0,0-5.481-3.186-5.119-1.914
	C25.603,50.564,25.538,53.754,25.131,54.766z"/>
<polygon fill="#4E5E67" points="27.482,52.041 29.807,51.85 28.26,50.486 30.276,51.586 30.276,52.959 28.005,53.656 29.746,52.59 
	"/>
<path fill="#302C3B" d="M33.675,53.984c-0.593,0.609-2.759,0.609-3.353,0c-0.593-0.607-0.593-2.828,0-3.436
	c0.594-0.607,2.76-0.607,3.353,0S34.268,53.377,33.675,53.984z"/>
<path fill="#302C3B" d="M33.108,56.771c0,1.479-2.217,1.479-2.217,0C30.892,55.295,33.108,55.295,33.108,56.771z"/>
<path fill="#302C3B" d="M33.108,60.209c0,1.479-2.217,1.479-2.217,0C30.892,58.732,33.108,58.732,33.108,60.209z"/>
<path fill="#4E5E67" d="M22.413,61.975c0,0-2.058-2.547-3.939-7.479l4.757-1.645l-5.329-4.357c0,0,3.328-3.268,6.602-4.248v8.605
	c0,0,0.518,3.842,3.111,9.123H22.413z"/>
<path fill="#4E5E67" d="M41.587,61.975c0,0,2.056-2.547,3.938-7.479l-4.757-1.645l5.33-4.357c0,0-3.329-3.268-6.602-4.248v8.605
	c0,0-0.519,3.842-3.111,9.123H41.587z"/>
<path fill="#594640" d="M32,2C13.271,2,13.268,13.268,13.268,27.359h37.465C50.732,13.268,50.729,2,32,2z"/>
<path fill="#F2C198" d="M16.986,32.836c2.029-1.889,0.188-9.299-2.429-9.744C8.967,22.137,12.609,36.912,16.986,32.836z"/>
<path fill="#F2C198" d="M47.014,32.836c-2.029-1.889-0.188-9.299,2.43-9.744C55.033,22.137,51.393,36.91,47.014,32.836z"/>
<path fill="#FCD5B2" d="M32,9.514c-19.565,0-11.682,2.266-16.906,13.76c0,0,0.039,5.27,1.132,10.924
	c1.41,7.289,9.613,12.885,15.774,12.885c6.163,0,14.365-5.596,15.775-12.885c1.094-5.654,1.131-10.924,1.131-10.924
	C43.684,11.779,51.566,9.514,32,9.514z"/>
<path fill="#F5F5F5" d="M45.9,24.932c-1.81,4.715-9.171,4.023-10.52,0.725C36.405,20.361,44.905,19.906,45.9,24.932z"/>
<path fill="#45332C" d="M37.26,24.43c0,4.158,6.011,4.158,6.011,0C43.271,20.57,37.26,20.57,37.26,24.43z"/>
<path fill="#45332C" d="M45.9,24.898c0-5.061-10.52-5.061-10.52,0.799C36.885,20.891,44.398,20.891,45.9,24.898z"/>
<path fill="#F5F5F5" d="M18.1,24.932c1.811,4.715,9.172,4.023,10.52,0.725C27.595,20.361,19.096,19.906,18.1,24.932z"/>
<path fill="#45332C" d="M26.74,24.43c0,4.158-6.011,4.158-6.011,0C20.729,20.57,26.74,20.57,26.74,24.43z"/>
<path fill="#45332C" d="M18.1,24.898c0-5.059,10.52-5.059,10.52,0.799C27.117,20.891,19.602,20.891,18.1,24.898z"/>
<path fill="#F5F5F5" d="M37.63,23.42c0,1.039,1.503,1.039,1.503,0C39.133,22.455,37.63,22.455,37.63,23.42z"/>
<path fill="#F5F5F5" d="M22.79,23.209c0,1.039-1.503,1.039-1.503,0C21.287,22.244,22.79,22.244,22.79,23.209z"/>
<path fill="#CC9D76" d="M32,36.818c-3.027-0.805-7.514,0.379-7.514,0.379c1.709,1.676,2.961,3.848,7.514,3.848
	c5.217,0,6.103-2.467,7.514-3.848C39.514,37.197,35.023,36.014,32,36.818z"/>
<path fill="#FFFFFF" d="M25.544,37.258c3.216,2.988,9.718,3.008,12.953,0C35.065,37.42,28.998,37.422,25.544,37.258z"/>
<path fill="#DBA97F" d="M45.5,20.279c-3.229-1.332-7.648-1.592-9.918-0.705c-0.479,0.188-0.463,1.334-0.04,1.219
	c3.253-0.887,6.998-0.953,10.079,0.117C46.035,21.055,45.984,20.477,45.5,20.279z"/>
<path fill="#DBA97F" d="M18.5,20.279c3.229-1.332,7.647-1.592,9.918-0.705c0.479,0.188,0.463,1.334,0.04,1.219
	c-3.254-0.887-6.999-0.953-10.079,0.117C17.965,21.055,18.016,20.477,18.5,20.279z"/>
<path fill="#594640" d="M46.961,7.787c6.978,9.57-25.413,7.074-32.15,5.676C14.811,13.463,24.705-0.031,46.961,7.787z"/>
<path fill="#422F2A" d="M14.811,13.463c9.676,2.037,39.26,1.756,29.949-8.336C59.94,17.238,23.004,18.316,14.811,13.463z"/>
<path fill="#DBA97F" d="M35.757,32.143c0,2.443-7.515,2.443-7.515,0C28.242,31.582,35.757,31.582,35.757,32.143z"/>
</svg>
