<?xml version="1.0" encoding="utf-8"?>
<!-- Generator: Adobe Illustrator 15.0.0, SVG Export Plug-In . SVG Version: 6.00 Build 0)  -->
<!DOCTYPE svg PUBLIC "-//W3C//DTD SVG 1.1//EN" "http://www.w3.org/Graphics/SVG/1.1/DTD/svg11.dtd">
<svg version="1.1" id="Layer_1" xmlns="http://www.w3.org/2000/svg" xmlns:xlink="http://www.w3.org/1999/xlink" x="0px" y="0px"
	 width="64px" height="64px" viewBox="0 0 64 64" enable-background="new 0 0 64 64" xml:space="preserve">
<path fill="#C8A35D" d="M36.133,9.495c-4.884-4.46-24.229,1.083-21.545,16.305c1.523,8.164,6.118,26.505,20.553,23.96
	c14.434-2.545,12.492-21.274,11.203-29.56C45.449,15.13,41.506,9.645,36.133,9.495z"/>
<path fill="#A3864C" d="M15.698,30.755c2.301,8.897,7.503,21.11,19.457,19.002c11.992-2.114,12.68-15.395,11.83-24.58
	c-1.127-4.1-4.5-9.057-10.877-14.476C22.727,19.066,14.75,20.649,15.698,30.755z"/>
<rect x="9.138" y="29.458" fill="#EBBEA0" width="4.584" height="2.125"/>
<path fill="#EBBEA0" d="M57.066,24.377c0.879-1.529-0.441-2.502-2.525,0.174c-1.609,2.066-7.045,5.777-3.119,6.712
	c2.797,0.666,9.611-4.373,10.465-9.442C62.66,17.214,59.281,23.384,57.066,24.377z"/>
<path fill="#EBBEA0" d="M6.934,24.377c-0.88-1.529,0.44-2.502,2.524,0.174c1.609,2.066,7.046,5.777,3.12,6.712
	C9.781,31.929,2.965,26.89,2.113,21.82C1.339,17.214,4.719,23.384,6.934,24.377z"/>
<rect x="50.637" y="29.458" fill="#EBBEA0" width="4.584" height="2.125"/>
<path fill="#8E3ED6" d="M55.764,31.173h-5.709l0.205,13.102c0,0-1.922-3.742-5.027-6.279c-3.305-2.697-13.049-1.33-13.053-1.329
	c-0.006,0-9.749-1.368-13.053,1.329c-3.106,2.537-5.028,6.279-5.028,6.279l0.206-13.102H8.596c0,0-0.736,15.721-0.458,20.952
	c0.258,4.833,3.917,6.667,11.458-3.375C20.43,55.792,20.013,62,20.013,62H32.18l0,0h12.166c0,0-0.416-6.208,0.418-13.25
	c7.541,10.042,11.199,8.208,11.457,3.375C56.5,46.894,55.764,31.173,55.764,31.173z"/>
<polygon fill="#5D1E96" points="15.906,41.447 14.11,43.515 14.008,48.26 "/>
<polygon fill="#5D1E96" points="48.453,41.447 50.248,43.515 50.352,48.26 "/>
<path fill="#BF8D69" d="M27.629,38.37c0,4.455,9.101,4.455,9.099,0c0-2.717,0.002-7.209,0.002-7.209h-9.101
	C27.629,31.161,27.629,34.862,27.629,38.37z"/>
<path fill="#EBBEA0" d="M41.086,19.951c-2.262-3.358-5.926-6.788-5.926-6.788C22.079,20.785,15.671,19.8,20.302,31.157
	c2.197,5.389,10.22,8.448,13.081,7.944c2.855-0.503,9.537-6.122,9.57-11.938C42.971,23.794,42.139,21.515,41.086,19.951z"/>
<path fill="#F5F5F5" d="M40.674,22.419c-0.697,3.595-6.043,4.026-7.42,1.843C33.318,20.35,39.332,18.954,40.674,22.419z"/>
<path fill="#45332C" d="M34.439,23.148c0.523,2.969,4.818,2.212,4.295-0.758C38.248,19.635,33.955,20.392,34.439,23.148z"/>
<path fill="#45332C" d="M40.67,22.395c-0.637-3.614-8.148-2.29-7.412,1.896C33.727,20.668,39.092,19.722,40.67,22.395z"/>
<path fill="#F5F5F5" d="M20.82,25.92c1.886,3.139,7.056,1.717,7.604-0.807C27.026,21.459,20.898,22.205,20.82,25.92z"/>
<path fill="#45332C" d="M26.929,24.473c0.523,2.969-3.771,3.727-4.293,0.757C22.148,22.475,26.442,21.718,26.929,24.473z"/>
<path fill="#45332C" d="M20.815,25.896c-0.637-3.613,6.876-4.938,7.615-0.754C26.752,21.897,21.385,22.844,20.815,25.896z"/>
<path fill="#F5F5F5" d="M34.578,22.38c0.131,0.742,1.203,0.554,1.072-0.189C35.529,21.502,34.455,21.691,34.578,22.38z"/>
<path fill="#F5F5F5" d="M23.952,24.099c0.131,0.742-0.941,0.931-1.072,0.188C22.758,23.599,23.831,23.409,23.952,24.099z"/>
<path fill="#BF8D69" d="M39.404,17.875c-2.441-0.536-5.588-0.17-7.076,0.736c-0.314,0.191-0.162,0.998,0.123,0.864
	c2.182-1.028,4.813-1.542,7.117-1.17C39.877,18.356,39.77,17.956,39.404,17.875z"/>
<path fill="#BF8D69" d="M20.404,21.38c2.111-1.339,5.192-2.07,6.901-1.728c0.361,0.072,0.493,0.882,0.18,0.854
	c-2.402-0.22-5.05,0.197-7.086,1.335C20.124,21.995,20.088,21.581,20.404,21.38z"/>
<path fill="#BF8D69" d="M34.379,29.079c0.305,1.724-4.99,2.657-5.294,0.935C29.016,29.618,34.309,28.685,34.379,29.079z"/>
<path fill="#6B4435" d="M35.336,33.077c-1.594,0.38-3.675,0.673-5.546,0.663c-0.71-0.004-1.021,1.011-0.277,1.049
	c2.092,0.108,4.46-0.287,6.083-1.182C35.986,33.392,35.721,32.984,35.336,33.077z"/>
</svg>
