<?xml version="1.0" encoding="utf-8"?>
<!-- Generator: Adobe Illustrator 15.0.0, SVG Export Plug-In . SVG Version: 6.00 Build 0)  -->
<!DOCTYPE svg PUBLIC "-//W3C//DTD SVG 1.1//EN" "http://www.w3.org/Graphics/SVG/1.1/DTD/svg11.dtd">
<svg version="1.1" id="Layer_1" xmlns="http://www.w3.org/2000/svg" xmlns:xlink="http://www.w3.org/1999/xlink" x="0px" y="0px"
	 width="64px" height="64px" viewBox="0 0 64 64" enable-background="new 0 0 64 64" xml:space="preserve">
<path fill="#FDCA47" d="M52.455,12.613c0,0-1.143,3.214,0.232,6.437C45.372,24.224,46.152,12.805,52.455,12.613z"/>
<path fill="#E6A400" d="M38.336,26.958c3.676,0.816,9.256,4.01,10.736,3.531l-0.996-4.27c-3.553-1.078-7.391-0.439-8.531-3.066
	c-0.996-2.283-2.582-2.314-1.99-0.732c0,0-2.301-1.977-3.686-0.127C32.451,24.19,35.174,26.25,38.336,26.958z"/>
<path fill="#E6A400" d="M43.725,41.817c0.338-2.379,4.449,0.18,4.449,0.18c-0.789,0.957-0.209,2.541,0.877,4.971l-4.496,0.197
	C44.555,47.165,43.389,44.187,43.725,41.817z"/>
<path fill="#E6EBEF" d="M50.9,52.694h-4.35c-0.416-2.088-1.996-5.529-1.996-5.529l5.365-0.449
	C50.594,48.228,51.131,50.159,50.9,52.694z"/>
<path fill="#302C3B" d="M51.168,49.716c0,0-1.771,0.611-5.566,0.469l0.301,1.988c-3.598,3.072-4.719,1.615-5.949,2.84
	c-0.178,0.178,0,1.002,0,1.002h11.625C51.578,56.015,52.6,54.024,51.168,49.716z"/>
<path fill="#C21413" d="M51.203,33.644c0,0-6.785,3.262-7.539,8.34c0,0,2.338,1.607,5.117,1.893c1.264-2.311,3.816-1.33,7.789-5.387
	L51.203,33.644z"/>
<path fill="#FDCA47" d="M47.146,46.739c0.398-2.369,6.641,1.242,6.641,1.242c-0.787,0.957,0.662,2.291,1.748,4.721l-5.189,0.783
	C48.717,50.31,46.848,48.519,47.146,46.739z"/>
<path fill="#FDCA47" d="M52.35,18.194c-1.143,10.033-4.648,13.66-5.58,3.104C47.922,20.803,49.008,18.159,52.35,18.194z"/>
<path fill="#E81C27" d="M61.76,32.586c-1.059-5.461-3.557-11.117-6.199-13.783c-1.602-1.617-3.691-0.654-4.391,0.414
	c-1.375,2.109-1.746,6.947-1.746,6.947c-0.234,0.107-2.523-0.871-2.215-5.15c0.033-0.438-0.68,0.344-0.68,0.344
	c-0.254,9.309,4.641,9.361,4.799,14.954c-0.947,1.859-3.58,6.119-4.182,10.428c0,0,0.102-0.695,6.641,1.242
	C57.547,40.251,63.242,40.241,61.76,32.586z"/>
<path fill="#E6A400" d="M57.77,22.422c4.816,9.969,0.057,12.27-4.758,2.301C49.777,18.024,54.535,15.725,57.77,22.422z"/>
<path fill="#FDCA47" d="M42.494,34.46c3.547-1.188,10.021-1.33,11-2.499c1.736-2.068,1.533-7.324,2.449-9.9
	c1.398-3.949-4.123-4.996-4.586-1.666c-0.414,2.959-0.9,6.865-1.082,8.453c-3.59,0.9-6.463,3.408-8.887,1.764
	c-2.111-1.43-3.463-0.643-2.084,0.396c0,0-3.039-0.5-3.17,1.779C35.998,35.124,39.439,35.481,42.494,34.46z"/>
<path fill="#E6EBEF" d="M56.516,58.681h-4.35c-0.416-2.09-1.271-4.115-1.996-5.531l5.365-0.447
	C56.209,54.212,56.746,56.146,56.516,58.681z"/>
<path fill="#302C3B" d="M56.783,55.702c0,0-1.771,0.611-5.566,0.469l0.301,1.988c-3.598,3.072-4.719,1.613-5.949,2.84
	c-0.178,0.176,0,1.002,0,1.002h11.625C57.193,62.001,58.215,60.011,56.783,55.702z"/>
<path fill="#E6A400" d="M44.589,20.166c4.459-2.69,3.306,9.669,5.192-5.696L44.589,20.166z"/>
<path fill="#FDCA47" d="M46.307,2.72c-7.078,1.327-8,5.615-6.785,8.325c0.607,1.358,0.133,2.676-0.73,3.896
	c-0.82,1.159,0.57,1.541,1.346,1.396c0.288,0.484,0.018,0.68,0.018,0.68s1.104,0.501,0.939,0.771
	c-0.303,0.057-0.461,0.664,0.146,0.834c0.67,0.186-0.372,2.648,2.059,2.006c1.969-0.52,4.965-2.448,5.387-2.982
	c0.482-0.61,1.336-3.659,1.336-3.659C53.641,12.664,58.02,6.318,46.307,2.72z"/>
<path fill="#E6A400" d="M48.838,11.438c-0.235-1.021,0.398-2.097,1.238-2.29c0,0-1.163,1.54-0.416,3.095
	C49.66,12.243,49.002,12.148,48.838,11.438z"/>
<path fill="#EA8800" d="M39.115,8.288c8.16-5.287,6.231,1.148,8.974,3.155c0.185-2.857,2.108-3.778,3.071-2.277
	c1.102,1.712,0.478,4.364-1.137,4.452c0.289,0.575,1.979,2.127,1.979,2.127c3.646-1.191,4.658-15.641-6.576-13.536
	C41.264,2.988,37.785,5.413,39.115,8.288z"/>
<path fill="#F5BC2C" d="M43.135,16.433c-0.518,1.349-1.219,2.073-1.699,2.396c-0.893-0.1-0.69-1.073-0.299-1.146
	C41.438,17.626,41.936,17.212,43.135,16.433z"/>
<path fill="#E6A400" d="M43.135,16.433c-0.572,0.873-2,1.322-2,1.322c-0.229-0.029-0.858-0.088-0.98-0.737
	C40.635,17.27,42.141,17.066,43.135,16.433z"/>
<path fill-rule="evenodd" clip-rule="evenodd" fill="#E6A400" d="M40.09,11.177c0.221-0.624,1.084-0.547,3.313-0.979
	C41.74,9.63,39.59,9.639,40.09,11.177z"/>
<path fill="#FFFFFF" d="M42.97,11.385c0.159,1.968-1.082,2.031-1.37,2.084C41.193,13.314,39.472,10.33,42.97,11.385z"/>
<path fill="#45332C" d="M40.787,12.249c0.518,1.444,1.27,1.584,0.905-0.372C41.426,10.437,40.368,11.087,40.787,12.249z"/>
<path fill-rule="evenodd" clip-rule="evenodd" fill="#45332C" d="M40.686,11.835c-0.057-1.466,1.662-0.771,2.42-0.452
	C42.033,11.416,41.229,11.09,40.686,11.835z"/>
<path fill="#FDCA47" d="M11.545,12.613c0,0,1.142,3.214-0.233,6.437C18.628,24.224,17.848,12.805,11.545,12.613z"/>
<path fill="#E6A400" d="M25.665,26.958c-3.677,0.816-9.257,4.01-10.737,3.531l0.997-4.27c3.553-1.078,7.39-0.439,8.531-3.066
	c0.995-2.283,2.582-2.314,1.989-0.732c0,0,2.301-1.977,3.686-0.127C31.549,24.19,28.826,26.25,25.665,26.958z"/>
<path fill="#E6A400" d="M20.275,41.817c-0.337-2.379-4.448,0.18-4.448,0.18c0.788,0.957,0.209,2.541-0.877,4.971l4.496,0.197
	C19.446,47.165,20.611,44.187,20.275,41.817z"/>
<path fill="#E6EBEF" d="M13.099,52.694h4.351c0.416-2.088,1.996-5.529,1.996-5.529l-5.365-0.449
	C13.406,48.228,12.87,50.159,13.099,52.694z"/>
<path fill="#302C3B" d="M12.832,49.716c0,0,1.771,0.611,5.566,0.469l-0.301,1.988c3.598,3.072,4.72,1.615,5.95,2.84
	c0.177,0.178,0,1.002,0,1.002H12.421C12.421,56.015,11.401,54.024,12.832,49.716z"/>
<path fill="#014D87" d="M12.796,33.644c0,0,6.786,3.262,7.539,8.34c0,0-2.338,1.607-5.116,1.893
	c-1.264-2.311-3.816-1.33-7.789-5.387L12.796,33.644z"/>
<path fill="#FDCA47" d="M16.854,46.739c-0.398-2.369-6.642,1.242-6.642,1.242c0.787,0.957-0.661,2.291-1.747,4.721l5.189,0.783
	C15.283,50.31,17.152,48.519,16.854,46.739z"/>
<path fill="#FDCA47" d="M11.65,18.194c1.143,10.033,4.649,13.66,5.58,3.104C16.079,20.803,14.993,18.159,11.65,18.194z"/>
<path fill="#006DAE" d="M2.241,32.586c1.058-5.461,3.557-11.117,6.198-13.783c1.603-1.617,3.692-0.654,4.392,0.414
	c1.375,2.109,1.746,6.947,1.746,6.947c0.234,0.107,2.523-0.871,2.214-5.15c-0.032-0.438,0.681,0.344,0.681,0.344
	c0.253,9.309-4.642,9.361-4.8,14.954c0.947,1.859,3.581,6.119,4.183,10.428c0,0-0.102-0.695-6.642,1.242
	C6.454,40.251,0.758,40.241,2.241,32.586z"/>
<path fill="#E6A400" d="M6.23,22.422c-4.815,9.969-0.056,12.27,4.758,2.301C14.223,18.024,9.465,15.725,6.23,22.422z"/>
<path fill="#FDCA47" d="M21.506,34.46c-3.548-1.188-10.022-1.33-11.001-2.499c-1.736-2.068-1.533-7.324-2.448-9.9
	c-1.398-3.949,4.123-4.996,4.586-1.666c0.413,2.959,0.9,6.865,1.082,8.453c3.59,0.9,6.462,3.408,8.887,1.764
	c2.111-1.43,3.463-0.643,2.083,0.396c0,0,3.04-0.5,3.17,1.779C28.002,35.124,24.56,35.481,21.506,34.46z"/>
<path fill="#E6EBEF" d="M7.484,58.681h4.351c0.416-2.09,1.271-4.115,1.996-5.531l-5.365-0.447
	C7.791,54.212,7.254,56.146,7.484,58.681z"/>
<path fill="#302C3B" d="M7.216,55.702c0,0,1.772,0.611,5.566,0.469l-0.301,1.988c3.598,3.072,4.72,1.613,5.95,2.84
	c0.177,0.176,0,1.002,0,1.002H6.806C6.806,62.001,5.786,60.011,7.216,55.702z"/>
<path fill="#E6A400" d="M19.411,20.166c-4.459-2.69-3.306,9.669-5.192-5.696L19.411,20.166z"/>
<path fill="#FDCA47" d="M17.693,2.72c7.079,1.327,8,5.615,6.786,8.325c-0.607,1.358-0.134,2.676,0.729,3.896
	c0.821,1.159-0.57,1.541-1.346,1.396c-0.288,0.484-0.018,0.68-0.018,0.68s-1.103,0.501-0.939,0.771
	c0.303,0.057,0.461,0.664-0.146,0.834c-0.669,0.186,0.372,2.648-2.059,2.006c-1.968-0.52-4.964-2.448-5.387-2.982
	c-0.481-0.61-1.335-3.659-1.335-3.659C10.359,12.664,5.98,6.318,17.693,2.72z"/>
<path fill="#E6A400" d="M15.162,11.438c0.236-1.021-0.398-2.097-1.238-2.29c0,0,1.163,1.54,0.416,3.095
	C14.34,12.243,14.999,12.148,15.162,11.438z"/>
<path fill="#EA8800" d="M24.884,8.288C16.725,3,18.653,9.436,15.911,11.443c-0.185-2.857-2.108-3.778-3.072-2.277
	c-1.102,1.712-0.477,4.364,1.137,4.452c-0.289,0.575-1.979,2.127-1.979,2.127C8.352,14.553,7.339,0.104,18.575,2.208
	C22.736,2.988,26.215,5.413,24.884,8.288z"/>
<path fill="#F5BC2C" d="M20.866,16.433c0.517,1.349,1.218,2.073,1.698,2.396c0.893-0.1,0.691-1.073,0.299-1.146
	C22.562,17.626,22.065,17.212,20.866,16.433z"/>
<path fill="#E6A400" d="M20.866,16.433c0.571,0.873,2,1.322,2,1.322c0.228-0.029,0.858-0.088,0.979-0.737
	C23.365,17.27,21.86,17.066,20.866,16.433z"/>
<path fill-rule="evenodd" clip-rule="evenodd" fill="#E6A400" d="M23.911,11.177c-0.221-0.624-1.084-0.547-3.313-0.979
	C22.26,9.63,24.41,9.639,23.911,11.177z"/>
<path fill="#FFFFFF" d="M21.03,11.385c-0.159,1.968,1.082,2.031,1.37,2.084C22.807,13.314,24.528,10.33,21.03,11.385z"/>
<path fill="#45332C" d="M23.213,12.249c-0.518,1.444-1.27,1.584-0.906-0.372C22.574,10.437,23.632,11.087,23.213,12.249z"/>
<path fill-rule="evenodd" clip-rule="evenodd" fill="#45332C" d="M23.314,11.835c0.058-1.466-1.662-0.771-2.419-0.452
	C21.967,11.416,22.771,11.09,23.314,11.835z"/>
</svg>
