<?xml version="1.0" encoding="utf-8"?>
<!-- Generator: Adobe Illustrator 15.0.0, SVG Export Plug-In . SVG Version: 6.00 Build 0)  -->
<!DOCTYPE svg PUBLIC "-//W3C//DTD SVG 1.1//EN" "http://www.w3.org/Graphics/SVG/1.1/DTD/svg11.dtd">
<svg version="1.1" id="Layer_1" xmlns="http://www.w3.org/2000/svg" xmlns:xlink="http://www.w3.org/1999/xlink" x="0px" y="0px"
	 width="64px" height="64px" viewBox="0 0 64 64" enable-background="new 0 0 64 64" xml:space="preserve">
<path fill="#302C3B" d="M11.435,50.924c2.499-1.634,14.014-5.949,14.014-5.949h13.186c0,0,11.505,4.307,13.993,5.947
	C56.24,53.297,57,62,57,62H7C7,62,7.807,53.289,11.435,50.924"/>
<rect x="24.473" y="43.708" fill="#3B2B1C" width="15" height="7.884"/>
<path fill="#1A1626" d="M52.061,54.634c-0.68,1.837-1.318,5.173-0.775,7.366C52.454,60.793,52.691,52.924,52.061,54.634"/>
<path fill="#1A1626" d="M12.715,62c0.545-2.193-0.096-5.529-0.775-7.366C11.309,52.924,11.546,60.793,12.715,62"/>
<path fill="#E6EBEF" d="M38.081,62c1.821-4.404,1.863-17.746,1.863-17.746c-2.669,4.842-7.681,7.051-7.973,7.176
	C31.68,51.305,26.67,49.096,24,44.254c0,0,0.041,13.342,1.863,17.746H38.081z"/>
<path fill="#FFFFFF" d="M31.972,51.43C31.68,51.305,26.67,49.096,24,44.254c0,0,0.016,4.123,0.339,8.54
	c0.99,1.645,2.637,4.204,3.277,4.204c0.942,0,4.355-5.063,4.355-5.063s3.387,5.063,4.412,5.063c0.737,0,2.287-2.467,3.218-4.142
	c0.328-4.441,0.343-8.603,0.343-8.603C37.275,49.096,32.264,51.305,31.972,51.43"/>
<path fill="#302C3B" d="M38.869,54.767c0.492,1.227-5.146-1.154-5.146-1.154V50.91c0,0,5.48-3.186,5.119-1.913
	C38.398,50.564,38.463,53.754,38.869,54.767z"/>
<polygon fill="#4E5E67" points="36.518,52.041 34.193,51.85 35.738,50.486 33.723,51.586 33.723,52.96 35.996,53.656 34.252,52.59 
	"/>
<path fill="#302C3B" d="M25.131,54.767c-0.492,1.227,5.146-1.154,5.146-1.154V50.91c0,0-5.481-3.186-5.119-1.913
	C25.603,50.564,25.538,53.754,25.131,54.767z"/>
<polygon fill="#4E5E67" points="27.482,52.041 29.807,51.85 28.26,50.486 30.276,51.586 30.276,52.96 28.005,53.656 29.746,52.59 
	"/>
<path fill="#302C3B" d="M33.675,53.985c-0.593,0.608-2.759,0.608-3.353,0c-0.593-0.608-0.593-2.828,0-3.437
	c0.594-0.607,2.76-0.607,3.353,0C34.268,51.157,34.268,53.377,33.675,53.985z"/>
<path fill="#302C3B" d="M33.108,56.772c0,1.478-2.217,1.478-2.217,0S33.108,55.295,33.108,56.772z"/>
<path fill="#302C3B" d="M33.108,60.21c0,1.478-2.217,1.478-2.217,0S33.108,58.732,33.108,60.21z"/>
<path fill="#4E5E67" d="M22.413,61.975c0,0-2.058-2.547-3.939-7.479l4.757-1.645l-5.329-4.356c0,0,3.328-3.269,6.602-4.249v8.605
	c0,0,0.518,3.842,3.111,9.123H22.413z"/>
<path fill="#4E5E67" d="M41.587,61.975c0,0,2.056-2.547,3.938-7.479l-4.757-1.645l5.33-4.356c0,0-3.329-3.269-6.602-4.249v8.605
	c0,0-0.519,3.842-3.111,9.123H41.587z"/>
<path fill="#38332D" d="M32,2C13.271,2,13.268,13.269,13.268,27.359h37.465C50.732,13.269,50.729,2,32,2z"/>
<path fill="#523924" d="M16.986,32.836c2.029-1.888,0.188-9.299-2.429-9.743C8.967,22.138,12.609,36.913,16.986,32.836z"/>
<path fill="#523924" d="M47.014,32.836c-2.029-1.888-0.188-9.299,2.43-9.743C55.033,22.138,51.393,36.911,47.014,32.836z"/>
<path fill="#614A36" d="M32,9.514c-19.565,0-11.682,2.266-16.906,13.76c0,0,0.039,5.271,1.132,10.924
	c1.41,7.289,9.613,12.886,15.774,12.886c6.163,0,14.365-5.597,15.775-12.886c1.094-5.653,1.131-10.924,1.131-10.924
	C43.684,11.779,51.566,9.514,32,9.514z"/>
<path fill="#F5F5F5" d="M45.9,24.932c-1.81,4.715-9.171,4.023-10.52,0.726C36.405,20.361,44.905,19.907,45.9,24.932z"/>
<path fill="#45332C" d="M37.26,24.431c0,4.157,6.011,4.157,6.011,0C43.271,20.571,37.26,20.571,37.26,24.431z"/>
<path fill="#45332C" d="M45.9,24.899c0-5.062-10.52-5.062-10.52,0.799C36.885,20.891,44.398,20.891,45.9,24.899z"/>
<path fill="#F5F5F5" d="M18.1,24.932c1.811,4.715,9.172,4.023,10.52,0.726C27.595,20.361,19.096,19.907,18.1,24.932z"/>
<path fill="#45332C" d="M26.74,24.431c0,4.157-6.011,4.157-6.011,0C20.729,20.571,26.74,20.571,26.74,24.431z"/>
<path fill="#45332C" d="M18.1,24.899c0-5.06,10.52-5.06,10.52,0.798C27.117,20.891,19.602,20.891,18.1,24.899z"/>
<path fill="#F5F5F5" d="M37.63,23.42c0,1.04,1.503,1.04,1.503,0C39.133,22.455,37.63,22.455,37.63,23.42z"/>
<path fill="#F5F5F5" d="M22.79,23.209c0,1.039-1.503,1.039-1.503,0C21.287,22.244,22.79,22.244,22.79,23.209z"/>
<path fill="#3B2C20" d="M32,36.819c-3.027-0.806-7.514,0.379-7.514,0.379c1.709,1.675,2.961,3.848,7.514,3.848
	c5.217,0,6.103-2.468,7.514-3.848C39.514,37.198,35.023,36.014,32,36.819z"/>
<path fill="#FFFFFF" d="M25.544,37.258c3.216,2.989,9.718,3.008,12.953,0C35.065,37.42,28.998,37.422,25.544,37.258z"/>
<path fill="#3B2B1C" d="M45.5,20.279c-3.229-1.331-7.648-1.592-9.918-0.704c-0.479,0.187-0.463,1.333-0.04,1.219
	c3.253-0.887,6.998-0.954,10.079,0.116C46.035,21.056,45.984,20.478,45.5,20.279z"/>
<path fill="#3B2B1C" d="M18.5,20.279c3.229-1.331,7.647-1.592,9.918-0.704c0.479,0.187,0.463,1.333,0.04,1.219
	c-3.254-0.887-6.999-0.954-10.079,0.116C17.965,21.056,18.016,20.478,18.5,20.279z"/>
<path fill="#38332D" d="M46.961,7.787c6.978,9.57-25.413,7.074-32.15,5.677C14.811,13.464,24.705-0.031,46.961,7.787z"/>
<path fill="#26221E" d="M14.811,13.464c9.676,2.037,39.26,1.755,29.949-8.336C59.94,17.239,23.004,18.316,14.811,13.464z"/>
<path fill="#3B2B1C" d="M35.757,32.143c0,2.443-7.515,2.443-7.515,0C28.242,31.582,35.757,31.582,35.757,32.143z"/>
</svg>
