<?xml version="1.0" encoding="utf-8"?>
<!-- Generator: Adobe Illustrator 15.0.0, SVG Export Plug-In . SVG Version: 6.00 Build 0)  -->
<!DOCTYPE svg PUBLIC "-//W3C//DTD SVG 1.1//EN" "http://www.w3.org/Graphics/SVG/1.1/DTD/svg11.dtd">
<svg version="1.1" id="Layer_1" xmlns="http://www.w3.org/2000/svg" xmlns:xlink="http://www.w3.org/1999/xlink" x="0px" y="0px"
	 width="64px" height="64px" viewBox="0 0 64 64" enable-background="new 0 0 64 64" xml:space="preserve">
<polygon fill="#E81C27" points="60.125,50.91 32,58.078 3.875,50.91 3.875,30.868 60.125,30.868 "/>
<path fill="#99A8AE" d="M32,34.807c0,0-23.438-0.706-30-11.636v6.347c0,0,3.221,9.519,30,9.519c26.777,0,30-9.519,30-9.519v-6.347
	C55.438,34.101,32,34.807,32,34.807z"/>
<path fill="#E6EBEF" d="M32,11.533c-16.57,0-30,5.209-30,11.638c0,6.426,13.43,11.636,30,11.636c16.568,0,30-5.21,30-11.636
	C62,16.743,48.568,11.533,32,11.533z"/>
<path fill="#99A8AE" d="M32,55.963c0,0-23.438-0.706-30-11.636v6.347c0,0,3.221,9.521,30,9.521c26.777,0,30-9.521,30-9.521v-6.347
	C55.438,55.257,32,55.963,32,55.963z"/>
<path fill="#E6EBEF" d="M60.125,40.33c0,0,0,0,0,3.997c0,0.018,0,0,0,0c0,5.841-12.592,10.578-28.125,10.578
	S3.875,50.168,3.875,44.327v-4.054C2.664,41.535,2,42.9,2,44.327c0,6.426,13.43,11.636,30,11.636c16.568,0,30-5.21,30-11.636
	C62,42.922,61.301,41.574,60.125,40.33z"/>
<path opacity="0.5" fill="#3E4347" d="M25.248,35.708c-0.025,0.024-0.051,0.05-0.082,0.074
	C25.197,35.758,25.223,35.732,25.248,35.708z"/>
<path fill="#99A8AE" d="M32,16.821c13.688,0,25.086,3.68,27.604,8.551c0.379-0.686,0.58-1.4,0.58-2.136
	c0-5.773-12.133-10.644-28.184-10.644S3.875,17.463,3.875,23.236c0,0.719,0.188,1.415,0.547,2.083
	C6.992,20.476,18.361,16.821,32,16.821z"/>
<path fill="#FFFFFF" d="M32,33.359c14,0,25.016-3.311,27.604-7.987C57.086,20.501,45.688,16.821,32,16.821
	c-13.639,0-25.008,3.654-27.578,8.499C6.946,30.025,17.949,33.359,32,33.359z"/>
<path fill="#99A8AE" d="M3.875,52.26v4.23c0,1.702,5.625,1.702,5.625,0v-4.23H3.875z"/>
<ellipse fill="#E6EBEF" cx="6.688" cy="52.261" rx="2.813" ry="1.058"/>
<path fill="#6E8189" d="M5.75,35.863v16.379c0,0.305,0.42,0.547,0.938,0.547s0.938-0.242,0.938-0.547V35.863H5.75z"/>
<path fill="#99A8AE" d="M3.875,31.104v4.23c0,1.7,5.625,1.7,5.625,0v-4.23H3.875z"/>
<ellipse fill="#E6EBEF" cx="6.688" cy="31.103" rx="2.813" ry="1.058"/>
<path fill="#99A8AE" d="M54.5,52.26v4.23c0,1.702,5.625,1.702,5.625,0v-4.23H54.5z"/>
<ellipse fill="#E6EBEF" cx="57.313" cy="52.261" rx="2.813" ry="1.058"/>
<path fill="#6E8189" d="M56.375,35.863v16.379c0,0.305,0.42,0.547,0.938,0.547s0.938-0.242,0.938-0.547V35.863H56.375z"/>
<path fill="#99A8AE" d="M54.5,31.104v4.23c0,1.7,5.625,1.7,5.625,0v-4.23H54.5z"/>
<ellipse fill="#E6EBEF" cx="57.313" cy="31.103" rx="2.813" ry="1.058"/>
<path fill="#99A8AE" d="M38.563,56.493v4.23c0,1.702,5.625,1.702,5.625,0v-4.23H38.563z"/>
<ellipse fill="#E6EBEF" cx="41.375" cy="56.494" rx="2.813" ry="1.059"/>
<path fill="#6E8189" d="M40.438,40.096v16.38c0,0.304,0.42,0.546,0.938,0.546s0.938-0.242,0.938-0.546v-16.38H40.438z"/>
<path fill="#99A8AE" d="M38.563,35.337v4.23c0,1.7,5.625,1.7,5.625,0v-4.23H38.563z"/>
<ellipse fill="#E6EBEF" cx="41.375" cy="35.337" rx="2.813" ry="1.058"/>
<path fill="#99A8AE" d="M19.813,56.493v4.23c0,1.702,5.625,1.702,5.625,0v-4.23H19.813z"/>
<ellipse fill="#E6EBEF" cx="22.625" cy="56.494" rx="2.813" ry="1.059"/>
<path fill="#6E8189" d="M21.688,40.096v16.38c0,0.304,0.42,0.546,0.938,0.546s0.938-0.242,0.938-0.546v-16.38H21.688z"/>
<path fill="#99A8AE" d="M19.813,35.337v4.23c0,1.7,5.625,1.7,5.625,0v-4.23H19.813z"/>
<ellipse fill="#E6EBEF" cx="22.625" cy="35.337" rx="2.813" ry="1.058"/>
<path fill="#B47D56" d="M46.504,26.009c-0.576-0.365-1.18-0.53-1.684-0.506L8.557,2.021C8.115,1.737,6.709,4.407,7.154,4.682
	l36.697,22.661c0.232,0.491,0.664,0.98,1.24,1.346C48.592,30.903,50.004,28.219,46.504,26.009z"/>
<polygon fill="#785647" points="33.701,21.076 35.891,19.723 34.23,18.646 32,20.025 "/>
<path fill="#B47D56" d="M55.441,2.021L19.178,25.503c-0.504-0.024-1.105,0.141-1.684,0.506c-3.498,2.21-2.086,4.894,1.414,2.68
	c0.576-0.366,1.008-0.855,1.24-1.346L56.846,4.682C57.291,4.407,55.883,1.737,55.441,2.021z"/>
</svg>
