<?xml version="1.0" encoding="utf-8"?>
<!-- Generator: Adobe Illustrator 15.0.0, SVG Export Plug-In . SVG Version: 6.00 Build 0)  -->
<!DOCTYPE svg PUBLIC "-//W3C//DTD SVG 1.1//EN" "http://www.w3.org/Graphics/SVG/1.1/DTD/svg11.dtd">
<svg version="1.1" id="Layer_1" xmlns="http://www.w3.org/2000/svg" xmlns:xlink="http://www.w3.org/1999/xlink" x="0px" y="0px"
	 width="64px" height="64px" viewBox="0 0 64 64" enable-background="new 0 0 64 64" xml:space="preserve">
<path fill="#B00505" d="M39.25,48.276c0,0,18.211-7.152,11.03-24.944C43.918,7.576,35.044,21.124,39.25,48.276z"/>
<path fill="#E81C27" d="M52.53,21.654c-12.304,20.201-7.983,24.35-16.905,26.092l0.007,0.051c0,0-17.468,7.953-18.574,0.811
	c-0.837-5.419-6.468-13.061-7.578-20.226C7.516,15.709,11.385,4.58,24.766,2.492C38.137,0.401,62.893,4.645,52.53,21.654z"/>
<path fill="#C21413" d="M16.888,47.741l24.344-0.43C39.861,40.446,19.873,43.801,16.888,47.741z"/>
<path fill="#8A0404" d="M50.735,24.548c0,0-8.17,4.293-8.573,21.537c0,0,3.277-11.761,9.432-18.411
	C51.594,27.674,51.327,25.956,50.735,24.548z"/>
<path fill="#C21413" d="M54.977,13.991c0.058,2.202-0.031,5.227-2.152,7.941C41.692,36.211,44.896,44.79,40.478,48.276
	c0,0-0.67-2.987-4.034-3.576C40.627,24.333,53.264,24.027,54.977,13.991z"/>
<path fill-rule="evenodd" clip-rule="evenodd" fill="#F46C60" d="M12.609,16.38c0.614,4.094,8.693-3.921,16.877-10.808
	C34.767,1.141,10.761,4.06,12.609,16.38z"/>
<path fill="#E81C27" d="M42.707,59.979c0,2.695-27.654,2.695-27.654,0V48.688c0-4.842,27.654-4.842,27.654,0V59.979z"/>
<path fill="#C21413" d="M42.707,59.979c0,2.695-27.654,2.695-27.654,0c3.063,2.151,25.375,2.351,25.375-1.202
	c0-11.25-0.041-11.896-1.025-12.546c2.357,0.597,3.305,1.511,3.305,2.457V59.979z"/>
<path fill="#FFFFFF" d="M37.129,58.496c0,0.98-20.879,0.98-20.879,0v-8.741c0-2.214,20.879-2.214,20.879,0V58.496z"/>
</svg>
