<?xml version="1.0" encoding="utf-8"?>
<!-- Generator: Adobe Illustrator 15.0.0, SVG Export Plug-In . SVG Version: 6.00 Build 0)  -->
<!DOCTYPE svg PUBLIC "-//W3C//DTD SVG 1.1//EN" "http://www.w3.org/Graphics/SVG/1.1/DTD/svg11.dtd">
<svg version="1.1" id="Layer_1" xmlns="http://www.w3.org/2000/svg" xmlns:xlink="http://www.w3.org/1999/xlink" x="0px" y="0px"
	 width="64px" height="64px" viewBox="0 0 64 64" enable-background="new 0 0 64 64" xml:space="preserve">
<g>
	<g>
		<path fill="#7B853D" d="M38.663,15.888c-0.15-3.451-1.318-6.953-3.857-9.499c-1.257-1.258-2.859-2.24-4.622-2.687
			c-1.759-0.461-3.639-0.325-5.246,0.33c-1.617,0.651-2.96,1.773-3.986,3.092c-1.038,1.319-1.778,2.833-2.326,4.4
			c-1.141,3.144-1.358,6.422-0.739,9.666c0.597,3.25,1.865,6.465,3.184,9.717c1.33,3.251,2.718,6.558,3.885,9.958
			c2.378,6.789,3.757,13.958,3.952,21.134h-6.096c0.23-6.721-0.625-13.435-2.491-20.032c-0.914-3.307-2.063-6.588-3.205-9.937
			c-1.122-3.348-2.268-6.792-2.712-10.444c-0.465-3.636,0-7.47,1.536-10.881c0.769-1.703,1.76-3.363,3.115-4.824
			c1.341-1.457,3.089-2.72,5.169-3.384c2.066-0.676,4.414-0.659,6.417,0.026c2.017,0.67,3.68,1.904,4.904,3.345
			C38.011,8.794,38.819,12.44,38.663,15.888z"/>
		<path fill="#9CA84D" d="M3.924,23.455c4.881-7.081,11.758-5.266,11.758-5.266s4.16,3.938-2.31,9.971
			c-4.455,4.156-6.4,12.333-6.4,12.333S-1.765,31.708,3.924,23.455z"/>
		<path fill="#9CA84D" d="M38.408,52.424c-6.894-3.626-5.127-8.735-5.127-8.735s3.834-3.092,9.707,1.715
			c4.046,3.311,12.011,4.756,12.011,4.756S46.444,56.654,38.408,52.424z"/>
		<g>
			<path fill="#803C3C" d="M47.951,16.964c-6.962-5.664-10.308-8.709-14.315-6.632c-4.01,2.078-2.004,17.19,6.459,18.028
				c8.293,0.822,11.718,6.224,11.718,6.224S59.259,26.167,47.951,16.964z"/>
			<path fill="#663030" d="M34.839,21.8C33.35,13.693,31.032,9.721,35.04,7.644c4.009-2.078,22.005,9.785,17.12,15.548
				c-6.049,7.131-5.785,11.619-5.785,11.619S37.065,33.903,34.839,21.8z"/>
			<path fill="#994848" d="M38.309,27.937c1.889,2.82,14.068-0.314,18.862,3.104c0,0,2.229-6.9-2.698-10.228
				C51.735,18.965,31.946,18.439,38.309,27.937z"/>
			<path fill="#B35454" d="M42.316,22.533C29.543,16.551,29.2,9.16,34.472,6.428c5.271-2.731,15.042,0.179,18.22,7.833
				C55.888,21.957,62,26.716,62,26.716S52.079,27.103,42.316,22.533z"/>
			<path fill="#CC6060" d="M48.703,20.186C50.23,7.833,39.363,3.893,34.092,6.625c-5.271,2.731-5.658,10.667-0.867,17.725
				c4.793,7.058,6.097,12.228,6.097,12.228S47.614,28.988,48.703,20.186z"/>
			<path fill="#7B853D" d="M35.955,9.689c-8.063,4.348-7.001-1.193-1.73-3.925c12.967-6.719,21.308,6.704,21.308,6.704
				S43.11,5.828,35.955,9.689z"/>
			<path fill="#9CA84D" d="M35.955,9.689c1.486-2.171,6.188-6.584,0.23-5.103c-11.771,2.93-5.753,20.267-5.753,20.267
				S31.54,16.13,35.955,9.689z"/>
		</g>
	</g>
	<polygon fill="#594640" points="16.33,46.632 23.316,43.516 23.935,47.494 	"/>
	<polygon fill="#594640" points="23.935,25.385 19.31,28.757 18.234,25.943 	"/>
</g>
</svg>
