<?xml version="1.0" encoding="utf-8"?>
<!-- Generator: Adobe Illustrator 15.0.0, SVG Export Plug-In . SVG Version: 6.00 Build 0)  -->
<!DOCTYPE svg PUBLIC "-//W3C//DTD SVG 1.1//EN" "http://www.w3.org/Graphics/SVG/1.1/DTD/svg11.dtd">
<svg version="1.1" id="Layer_1" xmlns="http://www.w3.org/2000/svg" xmlns:xlink="http://www.w3.org/1999/xlink" x="0px" y="0px"
	 width="64px" height="64px" viewBox="0 0 64 64" enable-background="new 0 0 64 64" xml:space="preserve">
<path fill="#0FB4D4" d="M27.893,2.081c-4.098,1.097,2.219,9.57,2.542,9.481C30.76,11.476,31.997,0.981,27.893,2.081z"/>
<path fill="#0FB4D4" d="M44.911,6.64c2.997,2.999-6.707,7.178-6.944,6.941C37.729,13.344,41.907,3.636,44.911,6.64z"/>
<path fill="#0FB4D4" d="M37.009,2.09c-4.102-1.097-2.864,9.396-2.541,9.485C34.792,11.659,41.11,3.189,37.009,2.09z"/>
<path fill="#BEC3CF" d="M16.449,54.521c-0.696-1.471-0.777-2.575,0.397-6.961c1.43-5.335,2.354-6.827,4.438-7.217l-6.264-1.675
	c1.612,1.374,1.662,3.13,0.233,8.467c-1.175,4.383-1.792,5.299-3.136,6.221c-2.613-0.447-4.924-0.426-5.104,0.255
	c-0.237,0.885,2.644,2.421,6.438,3.438c3.793,1.021,7.061,1.125,7.295,0.24C20.929,56.607,18.94,55.434,16.449,54.521z"/>
<path fill="#FFFFFF" d="M13.308,56.439c-4.682-1.253,6.682,1.184,4.431-0.658c-1.838-1.504,2.319,0.685,2.187,1.178
	C19.777,57.505,17.172,57.475,13.308,56.439z"/>
<path fill="#99A8AE" d="M13.244,53.762c-1.771,1.61-3.081,0.735-2.867,0.835C12.771,55.696,14.014,53.061,13.244,53.762z"/>
<path fill="#BEC3CF" d="M32.587,13.951c-1.24-1.982-12.092-4.893-14.16-3.795c-0.813,0.428-12.332,24.336-0.675,30.842
	C31.101,41.19,33.075,14.728,32.587,13.951z"/>
<path fill="#E6EBEF" d="M31.89,14.043c-0.885-1.448-4.682-2.763-6.07-3.147c-1.389-0.357-5.343-1.122-6.842-0.303
	c-0.248,0.154-1.777,3.511-3.195,7.505l15.932-0.744C31.884,15.585,32.03,14.309,31.89,14.043z"/>
<path fill="#FFD280" d="M31.714,17.309c0,0-3.563,0.706-15.91,0.707c-2.879,8.837-3.268,18.288,2.777,19.909
	C25.679,39.822,30.493,27.942,31.714,17.309z"/>
<path fill="#99A8AE" d="M21.694,39.279c0.072-0.272-1.598,0.233-3.811-0.2c-1.483-0.288-2.029-0.987-2.127-0.616
	c-0.043,0.157,1.351,1.475,2.184,1.695C18.816,40.394,21.578,39.71,21.694,39.279z"/>
<path fill="#FFE8BB" d="M31.44,19.335c-7.297-1.075-10.646,4.09-16.273,0.794c0.47-1.59,1.049-3.225,1.049-3.225
	c4.753,2.039,7.764-1.479,15.676-1.425C31.892,15.479,31.831,16.966,31.44,19.335z"/>
<path fill="#FBB855" d="M22.274,36.426c-0.503,1.881-6.642,0.235-6.137-1.642C16.321,34.094,22.459,35.739,22.274,36.426z"/>
<path opacity="0.8" fill="#FFFFFF" d="M31.446,15.281c0,0-0.703,0.103-1.805-0.008c0,0-0.299,10.897-7.198,20.495
	c0,0,1.147,0.13,1.909,0.126C24.353,35.895,30.444,29.834,31.446,15.281z"/>
<path fill="#BEC3CF" d="M32.618,14.188c-0.264,0.989-3.687,0.935-7.648-0.127c-3.957-1.061-6.952-2.724-6.687-3.714
	c0.188-0.704,3.717-0.928,7.649,0.126C29.919,11.546,32.808,13.484,32.618,14.188z"/>
<path fill="#F5F5F5" d="M31.897,14.014c-0.146,0.549-3.201,0.4-6.764-0.556c-3.564-0.954-6.286-2.352-6.139-2.903
	c0.135-0.508,3.26-0.516,6.801,0.432C29.382,11.946,32.032,13.503,31.897,14.014z"/>
<path fill="#FFE8BB" d="M20.056,31.996c-0.449,1.672-2.953,1-2.506-0.672C17.997,29.659,20.501,30.331,20.056,31.996z"/>
<path fill="#FFE8BB" d="M19.229,27.561c-0.269,1.007-1.771,0.606-1.501-0.4C17.995,26.161,19.497,26.566,19.229,27.561z"/>
<path fill="#FFE8BB" d="M21.886,26.666c-0.357,1.334-2.361,0.799-2.001-0.538C20.241,24.799,22.243,25.33,21.886,26.666z"/>
<path fill="#FFE8BB" d="M20.136,23.175c-0.178,0.668-1.182,0.401-1.001-0.267C19.313,22.239,20.315,22.51,20.136,23.175z"/>
<path fill="#BEC3CF" d="M47.552,58.631c0.695-1.47,0.777-2.575-0.398-6.96c-1.43-5.337-2.353-6.827-4.438-7.217l6.264-1.677
	c-1.612,1.376-1.662,3.132-0.233,8.467c1.176,4.384,1.793,5.3,3.136,6.223c2.614-0.447,4.926-0.426,5.104,0.255
	c0.237,0.885-2.644,2.421-6.438,3.438c-3.793,1.021-7.06,1.125-7.295,0.239C43.071,60.718,45.06,59.544,47.552,58.631z"/>
<path fill="#FFFFFF" d="M50.692,60.55c4.682-1.253-6.682,1.184-4.43-0.659c1.838-1.502-2.319,0.686-2.188,1.18
	C44.223,61.615,46.828,61.586,50.692,60.55z"/>
<path fill="#99A8AE" d="M50.756,57.872c1.771,1.61,3.081,0.736,2.867,0.835C51.229,59.808,49.987,57.172,50.756,57.872z"/>
<path fill="#BEC3CF" d="M31.413,18.063c1.24-1.982,12.092-4.894,14.16-3.797c0.813,0.43,12.332,24.336,0.675,30.844
	C32.899,45.301,30.925,18.839,31.413,18.063z"/>
<path fill="#E6EBEF" d="M32.111,18.153c0.884-1.448,4.682-2.762,6.07-3.146c1.388-0.358,5.343-1.122,6.841-0.304
	c0.248,0.155,1.777,3.511,3.195,7.506l-15.931-0.745C32.116,19.695,31.971,18.42,32.111,18.153z"/>
<path fill="#FFD280" d="M32.286,21.42c0,0,3.563,0.705,15.91,0.706c2.879,8.837,3.268,18.289-2.777,19.91
	C38.321,43.933,33.508,32.053,32.286,21.42z"/>
<path fill="#99A8AE" d="M42.306,43.39c-0.072-0.272,1.598,0.234,3.811-0.201c1.483-0.286,2.029-0.985,2.128-0.614
	c0.042,0.156-1.352,1.474-2.184,1.695C45.184,44.504,42.423,43.82,42.306,43.39z"/>
<path fill="#FFE8BB" d="M32.56,23.446c7.297-1.075,10.646,4.089,16.273,0.793c-0.47-1.589-1.049-3.224-1.049-3.224
	c-4.752,2.037-7.764-1.48-15.675-1.425C32.109,19.591,32.169,21.076,32.56,23.446z"/>
<path fill="#FBB855" d="M41.726,40.537c0.504,1.881,6.642,0.234,6.137-1.644C47.679,38.204,41.541,39.85,41.726,40.537z"/>
<path opacity="0.8" fill="#FFFFFF" d="M45.25,15.989c0,0-0.558,0.44-1.566,0.896c0,0,5.19,9.588,4.015,21.35
	c0,0,1.057-0.462,1.715-0.846C49.413,37.389,51.659,29.095,45.25,15.989z"/>
<path fill="#BEC3CF" d="M31.382,18.299c0.265,0.988,3.688,0.934,7.648-0.128c3.958-1.061,6.953-2.723,6.688-3.714
	c-0.188-0.703-3.718-0.928-7.65,0.127C34.082,15.655,31.192,17.595,31.382,18.299z"/>
<path fill="#F5F5F5" d="M32.103,18.124c0.147,0.549,3.201,0.401,6.764-0.555c3.564-0.955,6.286-2.353,6.139-2.904
	c-0.134-0.507-3.26-0.516-6.801,0.43C34.618,16.058,31.968,17.614,32.103,18.124z"/>
<path fill="#FFE8BB" d="M41.286,36.523c0.448,1.674,2.951,1,2.504-0.67C43.345,34.187,40.84,34.86,41.286,36.523z"/>
<path fill="#FFE8BB" d="M42.112,32.089c0.27,1.008,1.771,0.606,1.501-0.401C43.345,30.688,41.844,31.095,42.112,32.089z"/>
<path fill="#FFE8BB" d="M39.454,31.194c0.357,1.333,2.362,0.799,2.002-0.538C41.099,29.327,39.098,29.857,39.454,31.194z"/>
<path fill="#FFE8BB" d="M41.205,27.703c0.178,0.667,1.181,0.4,1.001-0.267C42.027,26.767,41.026,27.038,41.205,27.703z"/>
</svg>
