<?xml version="1.0" encoding="utf-8"?>
<!-- Generator: Adobe Illustrator 16.2.0, SVG Export Plug-In . SVG Version: 6.00 Build 0)  -->
<!DOCTYPE svg PUBLIC "-//W3C//DTD SVG 1.1//EN" "http://www.w3.org/Graphics/SVG/1.1/DTD/svg11.dtd">
<svg version="1.1" id="Layer_1" xmlns="http://www.w3.org/2000/svg" xmlns:xlink="http://www.w3.org/1999/xlink" x="0px" y="0px"
	 width="64px" height="64px" viewBox="0 0 64 64" enable-background="new 0 0 64 64" xml:space="preserve">
<path fill="#CFD8DD" d="M60.447,52.953c-2.342-2.342-8.56-4.813-11.638-7.893c-4.459-4.459-11.433-11.432-15.468-15.467
	c-3.26-3.26,2.981-10.134-7.558-20.674C19.574,2.71,8.893-0.422,4.236,4.235C-0.422,8.893,2.71,19.574,8.92,25.784
	c10.54,10.54,17.366,4.25,20.675,7.558c4.035,4.035,11.008,11.009,15.466,15.468c3.079,3.078,5.472,9.218,7.893,11.638
	c2.068,2.07,5.426,2.07,7.494,0C62.518,58.379,62.518,55.021,60.447,52.953z"/>
<path fill="#FFFFFF" d="M49,51c0,0,3.512,10,7.885,10C58.121,61,49,51,49,51z"/>
<path fill="#99A8AE" d="M14,5c0,0,7.191,7.631,7.191,17.28c0,10.011,6.372,8.841,8.055,4.579C32.988,17.165,22,5,14,5z"/>
</svg>
