<?xml version="1.0" encoding="utf-8"?>
<!-- Generator: Adobe Illustrator 15.0.0, SVG Export Plug-In . SVG Version: 6.00 Build 0)  -->
<!DOCTYPE svg PUBLIC "-//W3C//DTD SVG 1.1//EN" "http://www.w3.org/Graphics/SVG/1.1/DTD/svg11.dtd">
<svg version="1.1" id="Layer_1" xmlns="http://www.w3.org/2000/svg" xmlns:xlink="http://www.w3.org/1999/xlink" x="0px" y="0px"
	 width="64px" height="64px" viewBox="0 0 64 64" enable-background="new 0 0 64 64" xml:space="preserve">
<polygon fill="#E81C27" points="36,2 22,30 28,30 42,2 "/>
<polygon fill="#006DAE" points="48,2 34,30 40,30 54,2 "/>
<polygon fill="#E8E8E8" points="42,2 28,30 34,30 48,2 "/>
<path fill="#EA8800" d="M43,28H21c0,0-1,0-1,1v7h2v-6h19c0,0,1,0,1,1v5h2v-7C44,28,43,28,43,28z"/>
<polygon opacity="0.5" fill="#302C3B" points="32.77,8.462 23.076,27.846 24,30 40,30 41.076,27.846 "/>
<polygon fill="#006DAE" points="28,2 22,2 34,30 40,30 "/>
<polygon fill="#E81C27" points="16,2 10,2 22,30 28,30 "/>
<polygon fill="#E8E8E8" points="28,30 34,30 22,2 16,2 "/>
<circle fill="#EA8800" cx="31.999" cy="46" r="16.001"/>
<path fill="#AB5C10" d="M32.221,31.453c-8.156,0-14.768,6.621-14.768,14.797c0,2.438,0.6,4.727,1.641,6.754
	c-0.525-1.609-0.82-3.324-0.82-5.109c0-8.664,6.695-15.748,15.18-16.378C33.045,31.483,32.639,31.453,32.221,31.453"/>
<path fill="#F9B700" d="M43.346,36.844c4.166,7.277,1.988,16.691-5.197,21.52c-1.484,0.996-3.068,1.711-4.695,2.184
	c2.258-0.281,4.49-1.07,6.514-2.426c6.779-4.555,8.617-13.648,4.107-20.313C43.844,37.473,43.598,37.156,43.346,36.844"/>
<path fill="#AB5C10" d="M31.656,47.066h-0.35v1h1.35c0.306,0,0.62,0.092,0.913,0.242C33.213,47.562,32.4,47.066,31.656,47.066z"/>
<path fill="#AB5C10" d="M31.512,39.66c-1.205,0-2.027,1.135-2.027,2.244h-2.278c-0.061,0.324-0.101,0.657-0.101,1h3.379
	c0-1.109,0.822-2.244,2.027-2.244c0.375,0,0.715,0.086,1.017,0.228C33.177,40.143,32.44,39.66,31.512,39.66z"/>
<path fill="#AB5C10" d="M30.501,51.077c-0.159-0.301-0.257-0.628-0.257-0.958h-0.72C29.745,50.518,30.084,50.857,30.501,51.077z"/>
<path fill="#AB5C10" d="M37.895,42.904c0-1.757-0.845-3.297-2.133-4.283c0.7,0.911,1.133,2.04,1.133,3.283
	c0,1.375-0.506,2.654-1.375,3.619c0.869,0.918,1.375,2.197,1.375,3.596c0,2.969-2.412,5.381-5.383,5.381
	c-1.244,0-2.374-0.434-3.286-1.134c0.986,1.288,2.528,2.134,4.286,2.134c2.971,0,5.383-2.412,5.383-5.381
	c0-1.398-0.506-2.678-1.375-3.596C37.389,45.559,37.895,44.279,37.895,42.904z"/>
<path fill="#F9B700" d="M32.512,37.5c1.227,0,2.345,0.428,3.25,1.121c-0.984-1.283-2.514-2.121-4.25-2.121
	c-2.992,0-5.406,2.412-5.406,5.404h1.101C27.674,39.394,29.862,37.5,32.512,37.5z"/>
<path fill="#F9B700" d="M32.656,44.934c1.016-0.023,2.1-0.871,2.1-2.029c0-0.928-0.482-1.665-1.228-2.017
	c0.142,0.302,0.228,0.642,0.228,1.017c0,1.158-1.084,2.006-2.1,2.029h-1.35v3.133h1v-2.133H32.656z"/>
<path fill="#F9B700" d="M32.512,52.34c1.33,0,2.244-0.941,2.244-2.221c0-0.814-0.533-1.475-1.187-1.811
	c0.118,0.246,0.187,0.519,0.187,0.811c0,1.279-0.914,2.221-2.244,2.221c-0.365,0-0.705-0.102-1.011-0.263
	C30.876,51.788,31.629,52.34,32.512,52.34z"/>
<path fill="#F9B700" d="M29.524,50.119c-0.173-0.313-0.28-0.654-0.28-1h-3.139c0,1.734,0.838,3.263,2.12,4.247
	c-0.693-0.905-1.12-2.022-1.12-3.247H29.524z"/>
<path opacity="0.3" fill="#302C3B" d="M36.895,49.119c0-1.398-0.506-2.678-1.375-3.596c0.869-0.965,1.375-2.244,1.375-3.619
	c0-1.243-0.433-2.372-1.133-3.283c-0.905-0.693-2.023-1.121-3.25-1.121c-2.649,0-4.838,1.894-5.306,4.404h2.278
	c0-1.109,0.822-2.244,2.027-2.244c0.929,0,1.665,0.482,2.017,1.228c0.745,0.352,1.228,1.089,1.228,2.017
	c0,1.158-1.084,2.006-2.1,2.029h-1.35v2.133h0.35c0.744,0,1.557,0.495,1.913,1.242c0.653,0.336,1.187,0.996,1.187,1.811
	c0,1.279-0.914,2.221-2.244,2.221c-0.883,0-1.636-0.552-2.011-1.263c-0.417-0.22-0.756-0.56-0.977-0.958h-2.419
	c0,1.225,0.427,2.342,1.12,3.247c0.912,0.7,2.042,1.134,3.286,1.134C34.482,54.5,36.895,52.088,36.895,49.119z"/>
</svg>
