<?xml version="1.0" encoding="utf-8"?>
<!-- Generator: Adobe Illustrator 15.0.0, SVG Export Plug-In . SVG Version: 6.00 Build 0)  -->
<!DOCTYPE svg PUBLIC "-//W3C//DTD SVG 1.1//EN" "http://www.w3.org/Graphics/SVG/1.1/DTD/svg11.dtd">
<svg version="1.1" id="Layer_1" xmlns="http://www.w3.org/2000/svg" xmlns:xlink="http://www.w3.org/1999/xlink" x="0px" y="0px"
	 width="64px" height="64px" viewBox="0 0 64 64" enable-background="new 0 0 64 64" xml:space="preserve">
<path fill="#FFFFFF" d="M60.717,52.74c0-34.411-7.86-43.116-7.86-43.116C40.663,3.503,38.171,3.235,32.802,3.095
	c-0.4-0.01-1.203-0.01-1.604,0c-5.369,0.141-7.861,0.408-20.055,6.529c0,0-7.86,8.705-7.86,43.116c0,0,3.949-1.197,11.55,0
	c0,0-0.801,2.992-2.887,7.072c0,0,8.174,2.676,19.297-1.467c12.309,4.715,20.811,1.467,20.811,1.467
	c-2.086-4.08-2.887-7.072-2.887-7.072C56.768,51.543,60.717,52.74,60.717,52.74z"/>
<path fill="#BEC3CF" d="M42.077,53.423c-4.795-9.414-8.242-12.924-8.242-12.924l-5.723,1.703c0,0-3.447,3.51-8.242,12.925
	c0,0,2.266,0.711,4.406,1.344c0,0,0.951-5.354,4.625-10.12c0,0,1.033,0.453,1.625,0.453c0.74,0,2.445-2.099,2.445-2.099
	c3.326,4.642,4.699,10.062,4.699,10.062C39.812,54.134,42.077,53.423,42.077,53.423z"/>
<path fill="#302C3B" d="M47.146,34.001c0,0,5.016-1.088,8.532,0.74c0,0-5.335-1.063-8.757,1.91L47.146,34.001z"/>
<path fill="#302C3B" d="M61.645,43.839c0,0-3.842-1.373-9.388,0c0,0,6.183-0.066,9.577,2.811L61.645,43.839z"/>
<path fill="#302C3B" d="M48.659,47.844c0,0,3.068-1.644,7.239-1.194c0,0-3.964-1.49-7.704-0.883L48.659,47.844z"/>
<path fill="#302C3B" d="M49.399,20.653l-2.09,2.602c0,0-0.215-1.24-1.336-3.021c0,0,1.143,4.863,0,11.273
	c-1.227,6.891-0.336,20.757,4.441,28.737l1.711-2.17c0,0-6.09-16.853-4.215-26.019C49.374,24.905,47.313,25.306,49.399,20.653z"/>
<path fill="#302C3B" d="M18.696,5.952c0,0,2.076,6.104,7.646,14.359c0,0-4.359-10.881-5.059-15.707L18.696,5.952z"/>
<path fill="#302C3B" d="M17.972,34.001c0,0-5.016-1.088-8.532,0.74c0,0,5.335-1.063,8.759,1.91L17.972,34.001z"/>
<path fill="#302C3B" d="M3.473,43.839c0,0,3.844-1.373,9.388,0c0,0-6.183-0.066-9.577,2.811L3.473,43.839z"/>
<path fill="#302C3B" d="M16.46,47.844c0,0-3.07-1.644-7.239-1.194c0,0,3.962-1.49,7.702-0.883L16.46,47.844z"/>
<path fill="#302C3B" d="M14.833,20.653l2.09,2.602c0,0,0.215-1.24,1.336-3.021c0,0-1.141,4.863,0,11.273
	c1.227,6.891,0.338,20.757-4.439,28.737l-1.713-2.17c0,0,6.092-16.853,4.215-26.019C14.858,24.905,16.919,25.306,14.833,20.653z"/>
<path fill="#302C3B" d="M17.239,39.89v2.77c16.365,1.996,29.203,0,29.203,0v-2.77C28.69,37.663,17.239,39.89,17.239,39.89z"/>
<path fill="#4E5E67" d="M20.187,41.224l24.188-0.021C26.622,38.976,20.187,41.224,20.187,41.224z"/>
<path fill="#302C3B" d="M45.595,5.952c0,0-2.076,6.104-7.646,14.359c0,0,4.359-10.881,5.059-15.707L45.595,5.952z"/>
<path fill="#BEC3CF" d="M25.198,3.726c0,0,2.684,11.225,7.416,19.684c0,0,5.824-13.643,6.188-19.684
	C38.802,3.726,31.122,2.149,25.198,3.726z"/>
<path fill="#6E8189" d="M26.343,4.597c0,0,2.707,5.232,6.299,7.861c0,0,3.379-2.33,5.307-7.74l-5.199,19.535l-5.768-13.76
	L26.343,4.597z"/>
<path fill="#302C3B" d="M32.253,25.036c-5.883-8.082-8.482-20.061-8.59-20.566l2.523-0.387c0.025,0.119,2.627,12.084,8.25,19.809
	L32.253,25.036z"/>
<path fill="#302C3B" d="M28.497,40.298l-2.375-0.818C32.208,26.784,38.067,4.269,38.126,4.042l2.508,0.467
	C40.575,4.737,34.669,27.435,28.497,40.298z"/>
<path fill="#302C3B" d="M44.407,62c-3.518,0-8.012-0.564-13.172-2.467c-11.207,4-19.402,1.408-19.752,1.295l-1.246-0.41l0.531-1.039
	c1.268-2.479,2.053-4.561,2.463-5.764c-6.208-0.785-9.487,0.141-9.521,0.15l-1.703,0.498L2,52.74C2,18.354,9.793,9.329,10.124,8.962
	l0.152-0.166l0.213-0.107c12.41-6.23,15.146-6.537,20.668-6.68c0.422-0.012,1.264-0.012,1.686,0
	c5.521,0.143,8.256,0.449,20.668,6.68l0.213,0.107l0.152,0.166C54.208,9.329,62,18.354,62,52.74v1.545l-1.717-0.521
	c-0.027-0.008-3.307-0.934-9.515-0.148c0.41,1.203,1.195,3.285,2.463,5.764l0.504,0.984l-1.154,0.441
	C52.368,60.885,49.353,62,44.407,62z M32.312,57.557c8.736,3.205,15.418,2.223,18.025,1.602c-1.711-3.559-2.391-6.063-2.422-6.178
	l-0.297-1.104l1.314-0.207c5.037-0.793,8.567-0.572,10.497-0.297c-0.189-29.964-6.513-39.64-7.476-40.938
	C39.835,4.366,37.606,4.308,32.761,4.183c-0.379-0.01-1.143-0.01-1.523,0c-4.844,0.125-7.07,0.184-19.191,6.254
	C11.099,11.71,4.76,21.372,4.572,51.373c1.93-0.275,5.458-0.496,10.495,0.297l1.313,0.207l-0.295,1.104
	c-0.031,0.113-0.705,2.594-2.395,6.121c2.514,0.49,8.506,1.158,16.006-1.385c-0.889-2.689-3.313-10.43-3.313-14.771h2.568
	C28.952,47.22,31.618,55.48,32.312,57.557z"/>
<path fill="#302C3B" d="M33.835,40.112c0,0,5.059,2.104,9.854,11.519c0,0-2.266,0.711-4.406,1.344c0,0-3.83-7.366-9.473-12.149
	L33.835,40.112z"/>
<path fill="#302C3B" d="M28.112,41.202c0,0-5.059,2.102-9.854,11.517c0,0,2.266,0.711,4.406,1.344c0,0,3.83-7.366,9.473-12.149
	L28.112,41.202z"/>
<path fill="#4E5E67" d="M33.124,40.239c0,0,4.354,3.898,5.584,7.394c0,0-1.4-2.128-7.043-6.911L33.124,40.239z"/>
<path fill="#4E5E67" d="M29.985,39.567c-2.903,2.508-5.585,7.412-5.585,7.412s2.095-2.127,7.737-6.91
	C32.138,40.069,30.403,39.206,29.985,39.567z"/>
<path fill="#302C3B" d="M30.663,37.503c0,0-5.678,3.691-5.014,4.256c0.666,0.563,4.32,4.441,5.004,3.863
	c0.682-0.58,5.693-4.225,4.984-4.828C34.927,40.192,31.581,36.937,30.663,37.503z"/>
<path fill="#4E5E67" d="M30.042,38.685c0,0-3.071,2.156-3.564,2.875c-0.541,0.789,1.652-0.572,4.174-1.594
	c1.744-0.707,3.521,0.109,1.629-1.263C31.526,38.156,30.96,38.118,30.042,38.685z"/>
</svg>
