<?xml version="1.0" encoding="utf-8"?>
<!-- Generator: Adobe Illustrator 19.0.0, SVG Export Plug-In . SVG Version: 6.00 Build 0)  -->
<svg version="1.1" id="Layer_1" xmlns="http://www.w3.org/2000/svg" xmlns:xlink="http://www.w3.org/1999/xlink" x="0px" y="0px"
	 width="64px" height="64px" viewBox="0 0 64 64" style="enable-background:new 0 0 64 64;" xml:space="preserve">
<style type="text/css">
	.st0{fill:#4E5E67;}
	.st1{opacity:0.5;fill:#99A8AE;enable-background:new    ;}
	.st2{fill:#C21413;}
	.st3{fill:#E03636;}
	.st4{fill:#B00505;}
</style>
<g>
	<g>
		<path class="st0" d="M2,38.4C2,53.7,15.4,62,32,62c16.6,0,30-8.3,30-23.6c0-17-13.4-21.7-30-21.7C15.4,16.7,2,21.4,2,38.4z"/>
		<g>
			<path class="st1" d="M32,56.6c-17.4,0-27.3-5.8-29.9-15.8C2,40,2,39.2,2,38.4c0-1.2,0.1-2.3,0.2-3.3c1.2,5.7,8.4,14.6,29.8,14.6
				c12,0,26.9-3.2,29.8-14.9c0.1,1.1,0.2,2.3,0.2,3.6c0,1.8-0.2,3.6-0.6,5.2C57.1,53.3,43.7,56.6,32,56.6z"/>
		</g>
	</g>
	<g>
		<g>
			<ellipse class="st2" cx="32.1" cy="26.6" rx="23.1" ry="11.7"/>
			<ellipse class="st3" cx="32.1" cy="25" rx="22.4" ry="11"/>
		</g>
		<path class="st4" d="M42.4,12.6c-4.3,2.2-12.5,3.3-16.2,6.2c-1.5,1.2,0.1,5.8,0.1,7.9c0,1.9-7.5,1.9-7.5,0c0-2.5,0.8-8.5,2.2-11
			c2.8-4.7,13.8-8.3,19.3-9.6C44.2,5.2,46.2,10.6,42.4,12.6z"/>
	</g>
</g>
</svg>
