<?xml version="1.0" encoding="utf-8"?>
<!-- Generator: Adobe Illustrator 16.2.0, SVG Export Plug-In . SVG Version: 6.00 Build 0)  -->
<!DOCTYPE svg PUBLIC "-//W3C//DTD SVG 1.1//EN" "http://www.w3.org/Graphics/SVG/1.1/DTD/svg11.dtd">
<svg version="1.1" id="Layer_1" xmlns="http://www.w3.org/2000/svg" xmlns:xlink="http://www.w3.org/1999/xlink" x="0px" y="0px"
	 width="64px" height="64px" viewBox="0 0 64 64" enable-background="new 0 0 64 64" xml:space="preserve">
<path fill="#CFD8DD" d="M53,52c-0.574,5.479-9.425,10-21,10c-11.575,0-20.425-4.521-21-10c-0.526-5.265,9.425-10,21-10
	C43.575,42,53.506,46.939,53,52z"/>
<polygon fill="#CFD8DD" points="7,12 11,52 18.75,51 53,52 57,12 "/>
<path fill="#E6EBEF" d="M17.486,47.584c0.81,1.995,0.09,6.955-0.884,11.058c2.002,1.085,4.45,1.966,7.243,2.55
	c1.401-4.745,1.344-11.118,1.344-11.118L17.486,47.584z"/>
<polygon fill="#99A8AE" points="9,12 11,33 53,33 55,12 "/>
<polygon fill="#BEC3CF" points="9,12 14,33 50,33 55,12 "/>
<path fill="#AB5C10" d="M12,43c0.696,4.951,8.977,9,20,9s19.304-4.049,20-9l1-10c0-5-9.426-8-21-8c-11.574,0-21,3-21,8L12,43z"/>
<path fill="#F59E01" d="M52,34c0,5-1.26,16-20,16c-18.739,0-20-11-20-16s8.977-9,20-9C43.023,25,52,29,52,34z"/>
<path fill="#F9C802" d="M17,36.399c0,2.687,0.146,6.456,1.047,10.277c1.711,1.135,3.906,2.062,6.712,2.646
	C24.115,45.978,24,42.768,24,40.399L17,36.399z"/>
<path fill="#F59E01" d="M51,33c-0.381,3.89-7.182,7-16,7c-8.817,0-15.62-3.11-16-7c0-3.889,7.183-7,16-7C43.818,26,51,29.111,51,33z
	"/>
<path fill="#AB5C10" d="M32,24c-11.574,0-21,4-21,9c0.5,5,9.426,9,21,9c11.574,0,20.5-4,21-9C53,28,43.574,24,32,24z M35,40
	c-8.817,0-15.62-3.11-16-7c0-3.889,7.183-7,16-7c8.818,0,16,3.111,16,7C50.619,36.89,43.818,40,35,40z"/>
<path fill="#CFD8DD" d="M32,2C18.193,2,7,6,7,12c0.656,6.56,11.193,10,25,10s24-4,25-10C57,6.75,45.807,2,32,2z"/>
<path fill="#FFFFFF" d="M24.387,21.613L33,13l-15.02,7.51C19.926,20.996,22.076,21.364,24.387,21.613z"/>
<path fill="#BEC3CF" d="M32,3C16.454,3,9,7.583,9,12s10.298,8,23,8c12.701,0,23-3.583,23-8S47.546,3,32,3z"/>
<path fill="#E6EBEF" d="M32,3C16.454,3,9,7.583,9,12s10.298,8,23,8c12.701,0,23-3.583,23-8S47.546,3,32,3z"/>
<path fill="#FFFFFF" d="M49.962,9.659c-0.305-1.043-2.322-2.183-4.512-2.546c-2.188-0.364-3.715,0.187-3.412,1.229
	c0.305,1.043,2.323,2.183,4.512,2.546C48.737,11.252,50.265,10.701,49.962,9.659z"/>
<path fill="#D47706" d="M42.722,26.054C41.649,24.956,33.502,24,32,24c-1.755,0-6.7,6.97-6.7,8.501c0,1.279,2.779,9.26,3.9,10.4
	c1.074,1.093,9.852,1.724,11.351,1.724c1.568,0,6.85-6.695,6.85-8.224c0-0.489,0.961-1.36,0.442-2.398
	C46.395,31.104,43.541,26.898,42.722,26.054z"/>
<path fill="#F9C802" d="M31.421,25.079c0.704,0,2.989,6.954,4.274,12.157c0.288,1.165-4.91,5.122-5.845,5.122
	c-0.406,0-3.575-8.38-3.575-9.446C26.275,32.042,30.5,25.079,31.421,25.079z"/>
<path fill="#F9C802" d="M42.092,26.976c-0.606-0.607-7.753-1.897-8.484-1.897c-0.979,0,3.511,11.418,5.018,11.972
	c1.762,0.647,8.572,0.292,8.572-0.365C47.197,35.426,42.662,27.546,42.092,26.976z"/>
<path fill="#AB5C10" d="M47.839,34.003c-3.201,4.348-18.597,4.77-22.498-1.091c0.223,1.56,2.905,10.319,3.859,11.289
	c1.074,1.093,9.852,1.724,11.351,1.724c1.568,0,8.149-7.995,8.149-9.523C48.7,35.913,48.357,35.04,47.839,34.003z"/>
<path fill="#D47706" d="M39.256,37.204c2.36,0.422,7.941,0.076,7.941-0.519c0-0.271-0.218-0.858-0.553-1.603
	C44.955,36.249,42.24,36.982,39.256,37.204z"/>
<path fill="#F59E01" d="M44,41.007c0-0.144-6,1.926-6,3.016C38,45.001,39.711,45,40.521,45C41.156,45,44,41.919,44,41.007z"/>
<path fill="#D47706" d="M29.85,42.358c0.935,0,6.133-3.957,5.845-5.122c-0.002-0.004-0.002-0.008-0.003-0.01
	c-3.542-0.222-6.973-1.172-9.099-2.973C27.406,36.927,29.522,42.358,29.85,42.358z"/>
<path fill="#FEEC9A" d="M31.421,25.079c-0.547,0-2.263,2.463-3.564,4.644l0,0c0,0,3.415-3.009,6.659,3.189l0,0
	C33.313,28.849,31.939,25.079,31.421,25.079z"/>
<path fill="#FEEC9A" d="M39.255,26.092c-2.294-0.521-5.195-1.013-5.647-1.013c-0.582,0,0.769,4.027,2.275,7.414
	C35.864,32.407,34.393,25.323,39.255,26.092z"/>
</svg>
