<?xml version="1.0" encoding="utf-8"?>
<!-- Generator: Adobe Illustrator 15.0.0, SVG Export Plug-In . SVG Version: 6.00 Build 0)  -->
<!DOCTYPE svg PUBLIC "-//W3C//DTD SVG 1.1//EN" "http://www.w3.org/Graphics/SVG/1.1/DTD/svg11.dtd">
<svg version="1.1" id="Layer_1" xmlns="http://www.w3.org/2000/svg" xmlns:xlink="http://www.w3.org/1999/xlink" x="0px" y="0px"
	 width="64px" height="64px" viewBox="0 0 64 64" enable-background="new 0 0 64 64" xml:space="preserve">
<path fill="#E6EBEF" d="M59,21H5v38h54V21z M56,43.354l-2.732-3.293L56,36.77V43.354z M15.566,45.547l-2.899,3.289l-2.899-3.289
	l2.899-3.291L15.566,45.547z M9.768,34.576l2.899-3.293l2.899,3.293l-2.899,3.29L9.768,34.576z M14.601,40.061L17.5,36.77
	l2.899,3.291L17.5,43.354L14.601,40.061z M19.434,34.576l2.9-3.293l2.899,3.293l-2.899,3.29L19.434,34.576z M22.334,42.256
	l2.899,3.291l-2.899,3.289l-2.9-3.289L22.334,42.256z M24.268,40.061l2.899-3.291l2.899,3.291l-2.899,3.293L24.268,40.061z
	 M29.101,34.576L32,31.283l2.899,3.293L32,37.866L29.101,34.576z M32,42.256l2.899,3.291L32,48.836l-2.899-3.289L32,42.256z
	 M33.935,40.061l2.899-3.291l2.899,3.291l-2.899,3.293L33.935,40.061z M38.768,34.576l2.9-3.293l2.899,3.293l-2.899,3.29
	L38.768,34.576z M41.668,42.256l2.899,3.291l-2.899,3.289l-2.9-3.289L41.668,42.256z M43.602,40.061l2.899-3.291l2.899,3.291
	l-2.899,3.293L43.602,40.061z M48.435,34.576l2.899-3.293l2.901,3.293l-2.901,3.29L48.435,34.576z M51.334,42.256l2.901,3.291
	l-2.901,3.289l-2.899-3.289L51.334,42.256z M56,25.797v6.582l-2.732-3.291L56,25.797z M56,23l-4,4l-4-4H56z M46.501,25.797
	l2.899,3.291l-2.899,3.291l-2.899-3.291L46.501,25.797z M45,23l-3.332,3.894L38,23H45z M36.834,25.797l2.899,3.291l-2.899,3.291
	l-2.899-3.291L36.834,25.797z M35,23l-3,3.894L29,23H35z M27.167,25.797l2.899,3.291l-2.899,3.291l-2.899-3.291L27.167,25.797z
	 M26,23l-3.666,3.894L19,23H26z M17.5,25.797l2.899,3.291L17.5,32.379l-2.899-3.291L17.5,25.797z M16,23l-4,4l-3-4H16z M8,25.797
	l2.733,3.291L8,32.379V25.797z M8,36.77l2.733,3.291L8,43.354V36.77z M8,48l2.733,4L8,56V48z M14.601,51.031L17.5,47.74l2.899,3.291
	L17.5,54.322L14.601,51.031z M19.434,56.514l2.9-3.289l2.899,3.289H19.434z M24.268,51.031l2.899-3.291l2.899,3.291l-2.899,3.291
	L24.268,51.031z M29.101,56.514L32,53.225l2.899,3.289H29.101z M33.935,51.031l2.899-3.291l2.899,3.291l-2.899,3.291L33.935,51.031z
	 M38.768,56.514l2.9-3.289l2.899,3.289H38.768z M43.602,51.031l2.899-3.291l2.899,3.291l-2.899,3.291L43.602,51.031z M53.268,52
	L56,48v8L53.268,52z"/>
<path fill="#CFD8DD" d="M53,32c0-2.305,6-9,6-9l-1-4c0,0-8,8.798-8,12c0,5.65,0,19.764,0,25H14c0-5.236,0-19.351,0-25
	c0-3.202-8-12-8-12l-1,4c0,0,6,6.695,6,9c0,6,0,24,0,24l-6,3l1,3l6-3h40l6,3l1-3l-6-3C53,56,53,37.999,53,32z"/>
<path fill="#BEC3CF" d="M62,62h-4V24c0-1.126-1.075-2-2-2H8c-0.925,0-2,0.874-2,2v38H2V24c0-3.252,2.748-6,6-6h48
	c3.252,0,6,2.748,6,6V62z"/>
</svg>
