<?xml version="1.0" encoding="utf-8"?>
<!-- Generator: Adobe Illustrator 15.0.0, SVG Export Plug-In . SVG Version: 6.00 Build 0)  -->
<!DOCTYPE svg PUBLIC "-//W3C//DTD SVG 1.1//EN" "http://www.w3.org/Graphics/SVG/1.1/DTD/svg11.dtd">
<svg version="1.1" id="Layer_1" xmlns="http://www.w3.org/2000/svg" xmlns:xlink="http://www.w3.org/1999/xlink" x="0px" y="0px"
	 width="64px" height="64px" viewBox="0 0 64 64" enable-background="new 0 0 64 64" xml:space="preserve">
<polygon fill="#E81C27" points="36,2 22,30 28,30 42,2 "/>
<polygon fill="#006DAE" points="48,2 34,30 40,30 54,2 "/>
<polygon fill="#E8E8E8" points="42,2 28,30 34,30 48,2 "/>
<path fill="#BEC3CF" d="M43,28H21c0,0-1,0-1,1v7h2v-6h19c0,0,1,0,1,1v5h2v-7C44,28,43,28,43,28z"/>
<polygon opacity="0.5" fill="#302C3B" points="32.77,8.462 23.076,27.846 24,30 40,30 41.076,27.846 "/>
<polygon fill="#006DAE" points="28,2 22,2 34,30 40,30 "/>
<polygon fill="#E81C27" points="16,2 10,2 22,30 28,30 "/>
<polygon fill="#E8E8E8" points="28,30 34,30 22,2 16,2 "/>
<circle fill="#BEC3CF" cx="31.999" cy="46" r="16.001"/>
<path fill="#99A8AE" d="M32.221,31.453c-8.156,0-14.768,6.621-14.768,14.797c0,2.438,0.6,4.727,1.641,6.754
	c-0.525-1.609-0.82-3.324-0.82-5.109c0-8.664,6.695-15.748,15.18-16.378C33.045,31.483,32.639,31.453,32.221,31.453"/>
<path fill="#E6EBEF" d="M43.346,36.844c4.166,7.277,1.988,16.691-5.197,21.52c-1.484,0.996-3.068,1.711-4.695,2.184
	c2.258-0.281,4.49-1.07,6.514-2.426c6.779-4.555,8.617-13.648,4.107-20.313C43.844,37.473,43.598,37.156,43.346,36.844"/>
<path fill="#99A8AE" d="M32.427,47.576c-0.868,0.459-2.893,1.857-2.893,3.764h1.206c0.522-1.387,1.979-2.39,2.687-2.764
	c1.378-0.748,4.465-1.715,4.465-5.672c0-1.757-0.846-3.298-2.133-4.283c0.699,0.911,1.133,2.04,1.133,3.283
	C36.892,45.861,33.805,46.828,32.427,47.576z"/>
<path fill="#99A8AE" d="M31.511,39.66c-1.204,0-2.266,1.039-2.266,2.244h-2.036c-0.061,0.324-0.101,0.657-0.101,1h3.137
	c0-1.205,1.062-2.244,2.266-2.244c0.35,0,0.685,0.1,0.988,0.258C33.117,40.186,32.349,39.66,31.511,39.66z"/>
<polygon fill="#99A8AE" points="36.892,54.5 27.108,54.5 27.108,55.5 37.892,55.5 37.892,52.34 36.892,52.34 "/>
<path fill="#E6EBEF" d="M36.892,52.34v-1H30.74c-0.119,0.316-0.206,0.646-0.206,1H36.892z"/>
<path fill="#E6EBEF" d="M32.511,37.5c1.226,0,2.343,0.428,3.248,1.121c-0.984-1.283-2.514-2.121-4.248-2.121
	c-2.993,0-5.402,2.412-5.402,5.404h1.101C27.676,39.394,29.86,37.5,32.511,37.5z"/>
<path fill="#E6EBEF" d="M32.511,45.824c0.866-0.41,2.244-1.279,2.244-2.92c0-0.849-0.531-1.606-1.256-1.986
	c0.157,0.302,0.256,0.635,0.256,0.986c0,1.641-1.378,2.51-2.244,2.92c-3.787,1.762-5.402,4.416-5.402,7.189V54.5h1v-1.486
	C27.108,50.24,28.724,47.586,32.511,45.824z"/>
<path opacity="0.3" fill="#302C3B" d="M36.892,52.34h-6.357c0-0.354,0.087-0.684,0.206-1h-1.206c0-1.906,2.024-3.305,2.893-3.764
	c1.378-0.748,4.465-1.715,4.465-5.672c0-1.243-0.434-2.372-1.133-3.283c-0.905-0.693-2.022-1.121-3.248-1.121
	c-2.65,0-4.835,1.894-5.302,4.404h2.036c0-1.205,1.062-2.244,2.266-2.244c0.838,0,1.606,0.525,1.988,1.258
	c0.725,0.38,1.256,1.138,1.256,1.986c0,1.641-1.378,2.51-2.244,2.92c-3.787,1.762-5.402,4.416-5.402,7.189V54.5h9.783V52.34z"/>
</svg>
