<?xml version="1.0" encoding="utf-8"?>
<!-- Generator: Adobe Illustrator 15.0.0, SVG Export Plug-In . SVG Version: 6.00 Build 0)  -->
<!DOCTYPE svg PUBLIC "-//W3C//DTD SVG 1.1//EN" "http://www.w3.org/Graphics/SVG/1.1/DTD/svg11.dtd">
<svg version="1.1" id="Layer_1" xmlns="http://www.w3.org/2000/svg" xmlns:xlink="http://www.w3.org/1999/xlink" x="0px" y="0px"
	 width="64px" height="64px" viewBox="0 0 64 64" enable-background="new 0 0 64 64" xml:space="preserve">
<path fill="#FBB855" d="M56.278,13.717C25.807-14.085-16.264,27.556,17.384,57.311c8.479,7.969,11.655,3.894,7.346-4.37
	c-11.981-22.971,5.941-38.595,27.572-29.696C60.961,26.808,65.539,22.165,56.278,13.717z"/>
<path fill="#D99025" d="M52.542,19.799c-1.928-0.961-4.956,1.765-2.266,2.904c10.936,4.629,14.862,1.059,9.033-5.766
	C61.989,20.697,59.967,23.505,52.542,19.799z"/>
<path fill="#C27910" d="M54.98,12.581c-0.969-1.922-8.142,8.692-5.453,9.829c0,0,1.225,0.627,2.379,0.942
	C54.199,19.938,56.092,14.786,54.98,12.581z"/>
<path fill="#FBB855" d="M54.328,10.453C27.34-14.167-16.993,27.375,13.116,53.999c1.889,1.775,11.647-4.382,10.474-6.629
	c-8.75-16.78,7.699-31.564,24.607-24.07C51.207,24.634,56.913,12.813,54.328,10.453z"/>
<path fill="#D99025" d="M48.041,21.77c-1.745-1.047-5.596-1.112-8.918-0.469c3.668,0.546,6.452,0.786,9.342,2.521
	c2.164,1.296,7.662-7.969,6.373-12.497C54.838,11.331,50.84,23.451,48.041,21.77z"/>
<path fill="#C27910" d="M37.851,3.032c-3.553-0.876-1.624,14.327-1.874,18.86c1.798-0.422,1.809-0.517,4.161-0.444
	C43.346,11.979,37.851,3.032,37.851,3.032z"/>
<path fill="#FBB855" d="M38.614,2.277C16.808-0.709-2.429,20.958,2.896,41.532c0.588,2.273,21.496,2.777,21.263,0.502
	c-1.073-10.459,7.529-18.103,16.666-17.755C43.788,24.393,41.77,2.71,38.614,2.277z"/>
<path fill="#D99025" d="M38.809,22.96c-2.199-0.031-5.354,1.4-7.951,3.781c3.629-1.444,6.487-2.146,10.137-2.057
	c2.73,0.068,1.808-19.186-2.087-22.372C42.313,10.339,41.92,23.005,38.809,22.96z"/>
<path fill="#D99025" d="M22.045,52.142c-0.963-1.924,0.734-3.781,2.065-1.184c5.453,10.642,2.052,14.227-4.908,7.947
	C22.968,61.579,25.757,59.556,22.045,52.142z"/>
<path fill="#C27910" d="M14.292,54.323c2.607-1.402,6.214-2.121,8.755-5.662c0,0,0.541,1.104,1.063,2.297
	C20.691,53.246,17.498,54.34,14.292,54.323z"/>
<path fill="#D99025" d="M13.84,54.3c4.359,0.436,11.271-5.08,9.972-7.24c-1.738-2.885-2.127-5.023-2.127-5.023
	s-0.207,3.188,0.842,4.932C24.209,49.763,13.846,54.3,13.84,54.3z"/>
<path fill="#C27910" d="M23.041,45.664c-0.733-1.392-1.093-3.201-1.093-3.201c-2.942,2.206-6.942,1.777-17.162,0.187
	C4.787,42.649,13.558,48.868,23.041,45.664z"/>
<path fill="#D99025" d="M3.402,42.038c5.101,2.848,21.355,2.723,21.288-0.004c-0.089-3.645,0.737-7.163,2.183-10.786
	c-2.383,2.592-3.939,6.407-3.91,8.605C23.008,42.96,12.125,43.874,3.402,42.038z"/>
<path fill="#C27910" d="M25.857,34.122c0.963-2.311,1.566-3.811,2.434-5.733c-3.095,2.267-12.409-5.506-24.982-2.582
	C16.783,26.615,21.444,33.458,25.857,34.122z"/>
<path fill="#FBB855" d="M23.49,2.768C8.57,5.494,0.336,26.351,3.309,25.807c13.278-2.428,23.175,5.928,26.751,5.273
	C33.643,30.425,36.828,0.331,23.49,2.768z"/>
<path fill="#D99025" d="M28.92,30.022c-2.201-0.03-7.144-2.49-11.435-3.202c5.021,1.815,9.04,4.663,12.688,4.729
	c2.977,0.055,5.766-14.845,1.182-24.119C33.527,17.294,32.029,30.067,28.92,30.022z"/>
<path opacity="0.3" fill-rule="evenodd" clip-rule="evenodd" fill="#FFE8BB" d="M59.362,20.125c1.353-3.05-3.226-5.154-2.339-3.884
	C58.899,18.922,58.758,21.486,59.362,20.125z"/>
<path opacity="0.3" fill-rule="evenodd" clip-rule="evenodd" fill="#FFE8BB" d="M4.677,28.022
	c-3.694,5.66,1.666,14.924,1.124,11.159C4.649,31.225,6.324,25.495,4.677,28.022z"/>
<path opacity="0.3" fill-rule="evenodd" clip-rule="evenodd" fill="#FFE8BB" d="M8.129,45.644c0.541,5.576,8.26,8.633,6.103,6.521
	C9.67,47.7,7.885,43.153,8.129,45.644z"/>
<path opacity="0.3" fill-rule="evenodd" clip-rule="evenodd" fill="#FFE8BB" d="M17.498,55.833c1.154,3.527,6.688,2.965,4.961,2.285
	C18.811,56.684,16.982,54.257,17.498,55.833z"/>
<path opacity="0.3" fill-rule="evenodd" clip-rule="evenodd" fill="#FFE8BB" d="M50.064,18.095c-0.09,1.414,3.35-6.422,2.316-7.769
	c-2.07-2.697-8.951-5.823-7.769-4.563C49.238,10.695,50.541,10.555,50.064,18.095z"/>
<path opacity="0.3" fill-rule="evenodd" clip-rule="evenodd" fill="#FFE8BB" d="M29.607,16.983
	c0.425,1.501,0.362-9.478-1.084-11.464c-3.463-4.763-15.318,2.703-13.461,2.597C21.731,7.737,26.104,4.635,29.607,16.983z"/>
<path opacity="0.3" fill-rule="evenodd" clip-rule="evenodd" fill="#FFE8BB" d="M39.605,11.113c0.63,1.165-0.616-6.569-2.069-7.197
	c-2.909-1.255-9.694-0.769-8.171-0.276C35.326,5.571,36.248,4.896,39.605,11.113z"/>
</svg>
