<?xml version="1.0" encoding="utf-8"?>
<!-- Generator: Adobe Illustrator 16.2.0, SVG Export Plug-In . SVG Version: 6.00 Build 0)  -->
<!DOCTYPE svg PUBLIC "-//W3C//DTD SVG 1.1//EN" "http://www.w3.org/Graphics/SVG/1.1/DTD/svg11.dtd">
<svg version="1.1" id="Layer_1" xmlns="http://www.w3.org/2000/svg" xmlns:xlink="http://www.w3.org/1999/xlink" x="0px" y="0px"
	 width="64px" height="64px" viewBox="0 0 64 64" enable-background="new 0 0 64 64" xml:space="preserve">
<path fill="#302C3B" d="M32,2C-8.675,2-7.32,62,32,62C72.676,62,71.318,2,32,2z"/>
<path fill="#F59E01" d="M32,7C-1.896,7-0.767,57,32,57C65.896,57,64.766,7,32,7z"/>
<path fill="#F9C802" d="M32,9C0.816,9,1.855,55,32,55C63.185,55,62.145,9,32,9z"/>
<path fill="#FFE12C" d="M19.396,24.188c-2.967,2.968-1.554,4.382,1.414,1.415C23.779,22.634,21.791,21.794,19.396,24.188z"/>
<path fill="#FFE12C" d="M51.396,27.188c-2.967,2.968-1.555,4.382,1.414,1.415C55.779,25.634,53.791,24.794,51.396,27.188z"/>
<path fill="#FFE12C" d="M35.396,51.188c-2.967,2.971-1.555,4.383,1.414,1.416C39.779,49.635,37.791,48.794,35.396,51.188z"/>
<path fill="#FFE12C" d="M17.507,16.091c-2.773-1.942-4.585-0.769-1.147,1.639C19.798,20.137,20.945,18.499,17.507,16.091z"/>
<path fill="#FFE12C" d="M25.507,43.091c-2.773-1.942-4.585-0.769-1.147,1.64C27.799,47.137,28.946,45.499,25.507,43.091z"/>
<path fill="#FFE12C" d="M45.176,46.921c-2.771-1.942-4.585-0.769-1.146,1.64C47.468,50.967,48.613,49.329,45.176,46.921z"/>
<path fill="#FFE12C" d="M44.507,13.091c-2.772-1.942-4.585-0.769-1.147,1.64C46.799,17.137,47.945,15.499,44.507,13.091z"/>
<path fill="#FFE12C" d="M16.507,31.091c-2.773-1.942-4.585-0.769-1.147,1.64C18.798,35.139,19.945,33.499,16.507,31.091z"/>
<path fill="#FFE12C" d="M35.508,13.091c-2.773-1.942-4.585-0.769-1.146,1.639C37.799,17.137,38.945,15.499,35.508,13.091z"/>
<path fill="#FFE12C" d="M41.507,31.091c-2.772-1.942-4.585-0.769-1.146,1.64C43.799,35.137,44.945,33.499,41.507,31.091z"/>
<path fill="#FFE12C" d="M45.507,24.091c-2.772-1.942-4.585-0.769-1.146,1.639C47.799,28.137,48.945,26.499,45.507,24.091z"/>
<path fill="#FFE12C" d="M24.397,50.188c-2.968,2.971-1.554,4.383,1.414,1.416C28.779,48.635,26.791,47.794,24.397,50.188z"/>
<path fill="#FFE12C" d="M32.397,31.188c-2.968,2.97-1.554,4.382,1.414,1.416C36.779,29.635,34.791,28.794,32.397,31.188z"/>
<path fill="#529320" d="M11,27c-1.21,0-1.451,2,0,2S12.21,27,11,27z"/>
<path fill="#529320" d="M28,32c-1.21,0-1.451,2,0,2S29.21,32,28,32z"/>
<path fill="#529320" d="M18,36c-1.21,0-1.451,2,0,2S19.21,36,18,36z"/>
<path fill="#529320" d="M20,46c-1.21,0-1.451,2,0,2S21.21,46,20,46z"/>
<path fill="#529320" d="M29,16c-1.21,0-1.451,2,0,2S30.21,16,29,16z"/>
<path fill="#529320" d="M41,15c-1.21,0-1.451,2,0,2S42.21,15,41,15z"/>
<path fill="#529320" d="M47,36c-1.21,0-1.451,2,0,2S48.21,36,47,36z"/>
<path fill="#529320" d="M31,52c1.21,0,1.451,2,0,2S29.79,52,31,52z"/>
<path fill="#E03636" d="M45.773,17.395c-0.002,0-1.088,5.304,4.744,5.264l0.565-1.586C46.166,20.021,47,16.625,45.773,17.395z"/>
<path fill="#E03636" d="M17.666,20.406l-1.66-0.282c-0.182,5.025-3.671,4.793-2.7,5.868C13.305,25.994,18.718,26.143,17.666,20.406z
	"/>
<path fill="#E03636" d="M38.605,45.632l-1.187,1.193c4,3.047,1.799,5.764,3.236,5.591C40.657,52.416,43.899,48.08,38.605,45.632z"/>
<path fill="#FFE8BB" d="M45.342,30.688c0,0,0.339-3.358-2.521,0.424C40.328,34.408,48.569,33.029,45.342,30.688z"/>
<path fill="#D99025" d="M39.874,32.675c-1.563,0.823-3.009,1.315-6.819,1.481c-7.316,0.32-9.851,10.984-3.205,13.422
	c7.259,2.656,7.79-7.536,11.401-11.01C46,32,44.699,29.362,39.874,32.675z"/>
<path fill="#FFE8BB" d="M19.593,29.982c0,0-1.467,3.04,2.514,0.464C25.576,28.2,17.36,26.677,19.593,29.982z"/>
<path fill="#D99025" d="M39.927,19.408c-6.171-4.292-9.897,4.417-14.479,6.446c-6.025,2.669-5.705,5.592-0.038,4.13
	c1.751-0.239,3.277-0.207,6.915,0.94C39.31,33.126,45.738,23.451,39.927,19.408z"/>
<path fill="#529320" d="M50,24c-1.21,0-1.451,2,0,2S51.21,24,50,24z"/>
<path fill="#F46C60" d="M24.192,37.823c0.171-0.396,1.039-1.599,1.148-2.015c0,0-0.746,0.51-1.592,1.178
	c0.34-0.573,0.682-1.219,0.863-1.769c0,0-3.253,1.329-4.374,4.179c-0.588,1.498-7.814,2.838-4.2-5.308
	c1.903-4.293-5.283-6.886-5.283,0.976c-1.36,1.359-0.688,4.601,0.504,4.601c-0.424,1.679,0.767,3.212,3.334,3.212
	c2.955,2.566,6.448,0.229,7.472-1.973c0,0,2.452-0.541,3.936-4.194C26,36.71,24.824,37.564,24.192,37.823z"/>
<path fill="#F46C60" d="M28.832,10.056c-1.179-1.521-4.478-1.262-4.628-0.079c-1.612-0.633-3.283,0.356-3.606,2.903
	c-2.918,2.608-1.038,6.368,1.017,7.661c0,0,0.229,2.5,3.666,4.433c0,0-0.701-1.274-0.876-1.934c0.372,0.22,1.455,1.232,1.853,1.393
	c0,0-0.411-0.804-0.968-1.728c0.527,0.409,1.123,0.83,1.646,1.079c0,0-0.909-3.396-3.595-4.866
	c-1.412-0.772-1.831-8.108,5.794-3.498C33.152,17.848,36.63,11.045,28.832,10.056z"/>
<path fill="#F46C60" d="M51.838,33.266c0,0-0.32-2.489-3.824-4.295c0,0,0.745,1.249,0.945,1.901
	c-0.379-0.206-1.499-1.177-1.902-1.323c0,0,0.44,0.788,1.03,1.69c-0.542-0.39-1.151-0.788-1.685-1.018c0,0,1.033,3.359,3.771,4.73
	c1.439,0.72,2.128,8.036-5.66,3.709c-4.106-2.278-7.33,4.647,0.498,5.349c1.233,1.477,4.521,1.096,4.627-0.091
	c1.635,0.572,3.268-0.478,3.498-3.034C55.956,38.171,53.938,34.482,51.838,33.266z"/>
<path fill="#302C3B" d="M5.606,5.606C0.853,10.361,0.503,12.167,6.336,18l1.458-1.458c-1.557-1.556-4.466-4.283,0-8.749
	c4.465-4.465,7.192-1.556,8.748,0L18,6.335C12.168,0.503,10.361,0.852,5.606,5.606z"/>
<path fill="#302C3B" d="M58.394,58.394c-4.755,4.754-6.562,5.104-12.394-0.729l1.458-1.458c1.556,1.557,4.283,4.466,8.749,0
	c4.465-4.465,1.556-7.192,0-8.748L57.664,46C63.496,51.832,63.148,53.639,58.394,58.394z"/>
</svg>
