<?xml version="1.0" encoding="utf-8"?>
<!-- Generator: Adobe Illustrator 16.2.0, SVG Export Plug-In . SVG Version: 6.00 Build 0)  -->
<!DOCTYPE svg PUBLIC "-//W3C//DTD SVG 1.1//EN" "http://www.w3.org/Graphics/SVG/1.1/DTD/svg11.dtd">
<svg version="1.1" id="Layer_1" xmlns="http://www.w3.org/2000/svg" xmlns:xlink="http://www.w3.org/1999/xlink" x="0px" y="0px"
	 width="64px" height="64px" viewBox="0 0 64 64" enable-background="new 0 0 64 64" xml:space="preserve">
<path fill="#BEC3CF" d="M45,55c0,4.161-6.442,7-13.401,7C24.64,62,19,59.161,19,55c0-4.842,5.64-6.321,12.599-6.321
	C38.558,48.679,45,50.241,45,55z"/>
<path fill="#CFD8DD" d="M32,10H12c0,0,0,24.5,7,43c1.026,2.877,3.408,7,13,7c9.596,0,11.976-4.124,13-7c7-18.5,7-43,7-43H32z"/>
<ellipse fill="#CFD8DD" cx="32" cy="10" rx="20" ry="8"/>
<path fill="#BEC3CF" d="M32,60c0,0,2.167-1.085,0-3c0,0,1.688-6.134,5.634-7.839c4.2,0,7.366,2.527,7.366,5.839
	C45,56.417,41,60,32,60z"/>
<path fill="#E6EBEF" d="M46.799,8c-0.595-1.105-2.33-2-3.876-2s-2.317,0.895-1.722,2c0.595,1.105,2.329,2,3.876,2
	C46.622,10,47.395,9.105,46.799,8z"/>
<path fill="#E6EBEF" d="M23.064,54.784c-0.503,0.518-1.024,1.207-1.417,2.283c0.809,0.706,1.849,1.347,3.195,1.848
	c0.145-1.051,0.384-2.105,0.758-3.001C24.629,55.576,23.774,55.188,23.064,54.784z"/>
<path fill="#FFFFFF" d="M32,18H14c0,12,4.5,29.569,7,35c0.704,1.53,5.477,4,11,4c5.523,0,10.165-2.537,11-4c2.963-5.192,7-23,7-35
	H32z"/>
<ellipse fill="#E6EBEF" cx="32" cy="18" rx="18" ry="6"/>
<path opacity="0.35" fill="#6E8189" d="M32,2c-11.046,0-20,3.582-20,8s8.954,8,20,8s20-3.582,20-8S43.046,2,32,2z M32,16
	c-9.204,0-18-2.687-18-6s6.035-7,18-7s18,3.687,18,7S41.203,16,32,16z"/>
<path fill="#CFD8DD" d="M42.96,55.225c-0.438-0.719-0.783,0.424-3.979,1.515c-2.2,0.749-3.98,0.953-3.98,1.514
	c0,1.051,2.375,0.94,4.776,0C42.188,57.335,43.223,55.657,42.96,55.225z"/>
</svg>
