<?xml version="1.0" encoding="utf-8"?>
<!-- Generator: Adobe Illustrator 15.0.0, SVG Export Plug-In . SVG Version: 6.00 Build 0)  -->
<!DOCTYPE svg PUBLIC "-//W3C//DTD SVG 1.1//EN" "http://www.w3.org/Graphics/SVG/1.1/DTD/svg11.dtd">
<svg version="1.1" id="Layer_1" xmlns="http://www.w3.org/2000/svg" xmlns:xlink="http://www.w3.org/1999/xlink" x="0px" y="0px"
	 width="64px" height="64px" viewBox="0 0 64 64" enable-background="new 0 0 64 64" xml:space="preserve">
<path opacity="0.6" fill="#A6AEB0" d="M33.243,10.127C29.817,6.819,32.098,2,32.098,2s-7.198,6.369-2.654,10.761
	C34.705,17.841,32.098,21,32.098,21S38.617,15.316,33.243,10.127z"/>
<path opacity="0.6" fill="#A6AEB0" d="M22.98,13.092c-2.572-2.405-0.862-5.909-0.862-5.909s-5.399,4.632-1.989,7.824
	C24.075,18.704,22.118,21,22.118,21S27.008,16.866,22.98,13.092z"/>
<path opacity="0.6" fill="#A6AEB0" d="M43.408,13.092c-2.571-2.407-0.861-5.909-0.861-5.909s-5.398,4.632-1.989,7.824
	C44.503,18.702,42.547,21,42.547,21S47.437,16.863,43.408,13.092z"/>
<path fill="#F5CFA0" d="M58.118,50.335c-1.649-2.204,1.151-6.655-1.076-11.682c-2.095-4.718-5.794-1.766-9.802-7.116
	c-3.521-4.704-9.237-2.01-15.242-9.537c-6.006,7.527-11.72,4.833-15.24,9.537c-4.008,5.351-7.708,2.398-9.8,7.116
	c-2.229,5.026,0.573,9.478-1.076,11.682c-3.82,5.104,5.782,5.842,9.496,9.218c4.799,4.358,11.629,1.567,16.62,1.567
	c4.993,0,11.823,2.791,16.622-1.567C52.336,56.177,61.938,55.438,58.118,50.335z"/>
<path fill="#EBBB96" d="M58.118,50.335c-1.649-2.204,1.151-6.655-1.076-11.682c-2.095-4.718-5.794-1.766-9.802-7.116
	c-3.521-4.704-9.237-2.01-15.242-9.537c1.377,7.646,5.986,11.44,11.298,14.19c12.396,6.413,1.666,23.452-6.104,17.828
	c-5.637-4.076-6.268,10.677-21.813,5.534c4.799,4.358,11.629,1.567,16.62,1.567c4.993,0,11.823,2.791,16.622-1.567
	C52.336,56.177,61.938,55.438,58.118,50.335z"/>
<path fill="#D6A57C" d="M19.64,33.863c7.96-2.467,10.116-7.814,10.116-7.814c-6.008,7.527-9.279,4.742-12.54,7.549
	c-3.88,3.338-7.45,2.933-9.168,9.954C6.745,48.869,9.54,36.989,19.64,33.863z"/>
<path fill="#C4926E" d="M20.704,39.764c0,2.528,9.56-3.723,10.22-12.898C27.439,37.837,20.704,37.411,20.704,39.764z"/>
<path fill="#D6A57C" d="M44.162,34.474c-7.962-2.465-9.918-8.425-9.918-8.425c6.008,7.527,9.279,4.742,12.538,7.549
	c3.881,3.338,7.452,2.933,9.17,9.954C57.255,48.869,54.262,37.604,44.162,34.474z"/>
<path fill="#C4926E" d="M43.296,39.764c0,2.528-9.596-0.294-10.225-12.898C36.813,38.048,43.296,37.411,43.296,39.764z"/>
<path fill="#EBBB96" d="M30.314,54.646c0,2.494-12.188,9.98-12.898-2.452C21.651,63.224,30.314,52.329,30.314,54.646z"/>
<path fill="#EBBB96" d="M16.056,52.062c-1.06,1.632-12.222,2.913-7.402-5.437C6.738,55.104,17.043,50.54,16.056,52.062z"/>
<path fill="#D6A57C" d="M33.684,54.646c0,2.494,12.188,9.98,12.898-2.452C42.345,63.224,33.684,52.329,33.684,54.646z"/>
<path fill="#D6A57C" d="M47.94,52.062c1.061,1.632,12.222,2.913,7.406-5.437C57.26,55.104,46.955,50.54,47.94,52.062z"/>
<path opacity="0.5" fill="#FFFFFF" d="M17.973,39.267c-2.2,0.019-0.373,9.185,5.608,2.416C17.625,44.212,20.019,39.25,17.973,39.267
	z"/>
<path opacity="0.5" fill="#FFFFFF" d="M16.68,49.236c0.536,2.153-10.336,3.847-5.888-3.652C10.063,52.02,16.182,47.233,16.68,49.236
	z"/>
<path opacity="0.5" fill="#FFFFFF" d="M26.729,54.169c0.538,2.155-10.336,3.848-5.885-3.65
	C20.114,56.953,26.23,52.167,26.729,54.169z"/>
<path opacity="0.5" fill="#FFFFFF" d="M36.246,41.312c0,2.493,17.231,7.4,8.083-3.079C47.704,46.346,36.246,38.994,36.246,41.312z"
	/>
<path opacity="0.5" fill="#FFFFFF" d="M33.004,40.096c0.692,2.593-4.775,5.012-5.463,2.418
	C26.972,40.381,32.438,37.961,33.004,40.096z"/>
<path opacity="0.5" fill="#FFFFFF" d="M32.595,35.563c1.302,1.152-0.666,3.982-1.968,2.83
	C29.553,37.445,31.523,34.612,32.595,35.563z"/>
<path opacity="0.5" fill="#FFFFFF" d="M19.194,36.951c-1.072-0.689-2.107,0.769-1.036,1.46C19.46,39.253,20.5,37.795,19.194,36.951z
	"/>
</svg>
