<?xml version="1.0" encoding="utf-8"?>
<!-- Generator: Adobe Illustrator 15.0.0, SVG Export Plug-In . SVG Version: 6.00 Build 0)  -->
<!DOCTYPE svg PUBLIC "-//W3C//DTD SVG 1.1//EN" "http://www.w3.org/Graphics/SVG/1.1/DTD/svg11.dtd">
<svg version="1.1" id="Layer_1" xmlns="http://www.w3.org/2000/svg" xmlns:xlink="http://www.w3.org/1999/xlink" x="0px" y="0px"
	 width="64px" height="64px" viewBox="0 0 64 64" enable-background="new 0 0 64 64" xml:space="preserve">
<path fill="#99A8AE" d="M4,46.841C4,55.685,16.537,62,32,62s28-6.315,28-15.159H4z"/>
<path fill="#CFD8DD" d="M32,30.6c-14.912,0-30,7.384-30,15.158c0,8.843,13.432,15.16,30,15.16s30-6.317,30-15.16
	C62,37.983,46.911,30.6,32,30.6z"/>
<ellipse fill="#E6EBEF" cx="32" cy="44.675" rx="29" ry="14.076"/>
<ellipse fill="#BEC3CF" cx="32" cy="44.199" rx="25" ry="11.322"/>
<path fill="#FFE8BB" d="M57,40.469c0,7.176-11.193,12.993-25,12.993c-13.809,0-25-5.232-25-12.993C7,24.63,57,24.63,57,40.469z"/>
<path fill="#D99025" d="M56.5,39.001c0,6.852-10.972,12.408-24.5,12.408c-13.53,0-24.5-5.557-24.5-12.408
	c0-5.639,10.97-11.278,24.5-11.278C45.528,27.723,56.5,33.362,56.5,39.001z"/>
<path fill="#FFE8BB" d="M57,32.807c0,7.176-11.193,12.994-25,12.994c-13.809,0-25-5.233-25-12.994C7,16.969,57,16.969,57,32.807z"/>
<path fill="#D99025" d="M56.5,31.339c0,6.852-10.972,12.408-24.5,12.408c-13.53,0-24.5-5.557-24.5-12.408
	c0-5.638,10.97-11.278,24.5-11.278C45.528,20.061,56.5,25.701,56.5,31.339z"/>
<path fill="#FFE8BB" d="M57,25.145c0,7.176-11.193,12.994-25,12.994c-13.809,0-25-5.233-25-12.994C7,9.307,57,9.307,57,25.145z"/>
<path fill="#D99025" d="M56.5,23.677c0,6.852-10.972,12.407-24.5,12.407c-13.53,0-24.5-5.556-24.5-12.407
	c0-5.638,10.97-11.278,24.5-11.278C45.528,12.398,56.5,18.039,56.5,23.677z"/>
<path fill="#AB5C10" d="M33.295,12C21.728,12,8.8,16.975,8.8,20.376c0,2.313,9.318,2.526,11.361,4.736
	c2.392,2.593-6.741,11.317-3.626,12.016c5.242,1.175,12.402-9.771,20.627-9.771c4.672,0,10.652,1.924,14.861,1.924
	c4.211,0,7.504-3.237,0-7.144C44.514,18.233,44.828,12,33.295,12z"/>
<path opacity="0.5" fill="#EA8800" enable-background="new    " d="M33.158,12.091c-9.113,0-19.298,3.918-19.298,6.6
	c0,1.821,7.341,1.99,8.951,3.73c1.884,2.042-5.312,8.917-2.857,9.467c4.13,0.925,9.771-7.698,16.251-7.698
	c3.681,0,8.393,1.516,11.708,1.516c3.317,0,5.912-2.552,0-5.629C41.996,17.001,42.244,12.091,33.158,12.091z"/>
<path fill="#AB5C10" d="M16.325,52.429c-3.589-1.335-2.37-9.47-0.605-12.601c2.488-4.418,1.197,0.873,1.305,4.09
	C17.117,46.696,19.518,53.615,16.325,52.429z"/>
<path fill="#FFE8BB" d="M14.927,43.893c-0.562,1.66-0.839,5.252,0.669,7.037C16.248,51.7,15.439,42.378,14.927,43.893z"/>
<path fill="#FFE8BB" d="M11.378,18.98c1.791-0.616,10.475,1.581,9.025,2.509S9.016,19.795,11.378,18.98z"/>
<path fill="#FFE8BB" d="M21.691,32.224c-2.685,0-4.641,2.812-2.362,2.812C21.605,35.035,25.453,32.224,21.691,32.224z"/>
<path fill="#FFE8BB" d="M48.371,26.888c-5.163,0-11.031-4.006-18.617,0.633c-6.206,3.795-1.515-3.796,8.273-3.796
	C49.072,23.725,50.919,26.888,48.371,26.888z"/>
<path fill="#FEEC9A" d="M31.836,12.356c-0.591,0-6.943,1.356-9.126,2.21c-0.527,0.209-0.546,3.344,0,3.5
	c2.257,0.652,8.537,3.317,9.126,3.317c0.591,0,7.141-2.12,9.146-3.314c0.486-0.291,0.53-3.294,0-3.501
	C38.8,13.713,32.427,12.356,31.836,12.356z"/>
<path fill="#FFFFFF" d="M24.96,16.264c-1.826-0.401,6.201,2.541,7.105,2.541c1.061,0,7.851-2.766,6.807-2.541
	C31.833,17.777,31.833,17.777,24.96,16.264z"/>
</svg>
