<?xml version="1.0" encoding="utf-8"?>
<!-- Generator: Adobe Illustrator 16.2.0, SVG Export Plug-In . SVG Version: 6.00 Build 0)  -->
<!DOCTYPE svg PUBLIC "-//W3C//DTD SVG 1.1//EN" "http://www.w3.org/Graphics/SVG/1.1/DTD/svg11.dtd">
<svg version="1.1" id="Layer_1" xmlns="http://www.w3.org/2000/svg" xmlns:xlink="http://www.w3.org/1999/xlink" x="0px" y="0px"
	 width="64px" height="64px" viewBox="0 0 64 64" enable-background="new 0 0 64 64" xml:space="preserve">
<path fill="#EBBB96" d="M53.559,29.805C51.109,11.766,39.666,1.998,31.999,1.998s-19.11,9.768-21.559,27.807
	C7.987,47.84,15.852,61.998,31.999,61.998C48.146,61.998,56.012,47.84,53.559,29.805z"/>
<path fill="#FED0AC" d="M26.493,8c-2.294,0-6.801,4.918-8.783,9.597c-3.25,7.677,5.476,9.356,9.438,0
	C29.204,12.742,30.242,8,26.493,8z"/>
<path fill="#D6A57C" d="M49.35,16.009C49.387,16.38,57,60.234,23,60.234l0,0c2.629,1.14,5.631,1.764,9,1.764
	c16.146,0,24.014-14.158,21.561-32.193C52.834,24.467,51.316,19.859,49.35,16.009z"/>
</svg>
