<?xml version="1.0" encoding="utf-8"?>
<!-- Generator: Adobe Illustrator 16.2.0, SVG Export Plug-In . SVG Version: 6.00 Build 0)  -->
<!DOCTYPE svg PUBLIC "-//W3C//DTD SVG 1.1//EN" "http://www.w3.org/Graphics/SVG/1.1/DTD/svg11.dtd">
<svg version="1.1" id="Layer_1" xmlns="http://www.w3.org/2000/svg" xmlns:xlink="http://www.w3.org/1999/xlink" x="0px" y="0px"
	 width="64px" height="64px" viewBox="0 0 64 64" enable-background="new 0 0 64 64" xml:space="preserve">
<path fill="#8A6859" d="M52.193,7.865l2.459,2.585l5.362-3.451c2.168-0.271,3.24-4.999-2.775-3.458
	C55.646,3.948,53.418,5.015,52.193,7.865z"/>
<path fill="#594640" d="M61.055,7.02c1.756-0.688,0.526-2.764,0.526-2.764s0.436,1.536-2.434,1.922
	c-4.075,0.549-5.196,3.532-5.196,3.532l0.701,0.739C54.652,10.45,57.067,8.583,61.055,7.02z"/>
<path fill="#529320" d="M54.033,6.015c8.925,9.293,1.225,23.294-7.69,39.506c-0.747,1.355-1.492,2.713-2.228,4.069
	c-6.267,11.532-15.493,12.692-20.436,12.363C18.142,61.578,12.573,59,8.789,55.061C5.003,51.12,2,45,2,38
	c0-5.381,0.495-13.686,11.22-20.573c1.254-0.804,2.514-1.623,3.771-2.438C32.074,5.186,45.101-3.281,54.033,6.015z"/>
<g>
	<path fill="#92C932" d="M14.124,19.999C28.755,10.621,44.095-0.245,51.855,7.818c7.761,8.063-7.512,18.489-16.054,34.196
		C27.253,57.719,16.764,60.39,9.874,53.234C2.988,46.076-0.513,29.38,14.124,19.999z"/>
</g>
<path fill="#D9E617" d="M6.93,38.477C6.93,47.788,13.192,53,16.942,53c12.216,0,15.502-13.083,21.026-20.777
	c5.524-7.694,13.017-14.836,13.017-20.733c0-7.73-13.593-5.148-27.034,5.213C15.254,23.407,6.93,24.993,6.93,38.477z"/>
<path fill="#9E6C49" d="M17.136,27.022c6.023-6.591,14.851-5.989,16.62-2.021c1.815,3.997-0.792,9.958-4.813,14.442
	c-4.094,4.41-9.592,7.328-13.35,5.459C11.861,43.08,11.121,33.615,17.136,27.022z"/>
<path fill="#D6A57C" d="M16.488,33.641c2.597-3.845,5.335-4.809,4.848-3.881c-0.354,0.922-1.829,3.111-2.644,5.079
	c-0.9,1.955-1.417,3.652-2.419,4.291C15.249,39.924,13.938,37.662,16.488,33.641z"/>
<path fill="#594640" d="M26.316,36.682c-3.481,3.746-7.758,6.635-11.695,7.482c0.295,0.303,0.616,0.564,0.971,0.738
	c3.758,1.869,9.257-1.049,13.35-5.459c4.022-4.484,6.628-10.445,4.813-14.442c-0.164-0.377-0.419-0.715-0.706-1.029
	C32.339,28.216,29.734,32.869,26.316,36.682z"/>
</svg>
