<?xml version="1.0" encoding="utf-8"?>
<!-- Generator: Adobe Illustrator 15.0.0, SVG Export Plug-In . SVG Version: 6.00 Build 0)  -->
<!DOCTYPE svg PUBLIC "-//W3C//DTD SVG 1.1//EN" "http://www.w3.org/Graphics/SVG/1.1/DTD/svg11.dtd">
<svg version="1.1" id="Layer_1" xmlns="http://www.w3.org/2000/svg" xmlns:xlink="http://www.w3.org/1999/xlink" x="0px" y="0px"
	 width="64px" height="64px" viewBox="0 0 64 64" enable-background="new 0 0 64 64" xml:space="preserve">
<path fill="#E6EBEF" d="M2,31.019c0,24.303,60,24.303,60,0C62,11.389,2,11.389,2,31.019"/>
<path fill="#99A8AE" d="M3.875,30.545c0-17.634,56.249-17.634,56.249,0C60.125,48.705,3.875,48.705,3.875,30.545"/>
<path fill="#E03636" d="M28.964,10L9.876,16.171C14.212,29.279,33.302,23.107,28.964,10"/>
<path fill="#B00505" d="M27.322,11.221l-15.394,4.978C15.109,25.811,30.505,20.833,27.322,11.221"/>
<path fill="#92C932" d="M56.997,19.843c-1.521-0.644-3.648,2.456-6.093,0.209c-1.678-1.543-3.181-0.916-3.385-2.236
	c-0.171-1.111,2.139-2.559,0.886-2.921c-3.05-0.88-5.723,4.08-8.181,2.101c-1.887-1.519-1.921-0.649-3.359-1.065
	c-1.99-0.575,0.577-4.871-1.649-3.618c-1.927,1.083-2.846,3.079-7.152,1.26c-2.637-1.115-3.272,9.848,8.015,14.559
	C46.528,32.493,62.696,22.249,56.997,19.843"/>
<path fill="#7AB51D" d="M50.904,20.052c-1.678-1.543-3.181-0.916-3.385-2.236c-0.171-1.111,2.139-2.559,0.886-2.921
	c-3.05-0.88-5.724,4.08-8.181,2.102c-1.887-1.52-2.782-5.937-5.01-4.684c-1.769,0.994-2.663,2.636-6.167,1.624
	c11.497,2.641,6.841,16.578,27.949,5.906C55.476,19.199,53.349,22.299,50.904,20.052"/>
<path fill="#B30BAD" d="M53.235,22.655l1.962-0.079c-0.618-16.592-23.86-15.66-23.242,0.932l1.961-0.078
	C33.62,10.084,52.541,9.322,53.235,22.655"/>
<path fill="#F6BEC1" d="M52.018,22.702l1.715-0.068C53.196,8.247,32.885,9.061,33.42,23.449l1.714-0.066
	C34.878,11.804,51.413,11.142,52.018,22.702"/>
<path fill="#B30BAD" d="M23.919,20.715l1.801-0.812C19.351,4.677-1.981,14.306,4.39,29.533l1.798-0.813
	C1.251,16.395,18.614,8.557,23.919,20.715"/>
<path fill="#F6BEC1" d="M22.801,21.22l1.572-0.709C18.853,7.307,0.209,15.719,5.732,28.927l1.573-0.711
	C3.026,17.526,18.2,10.676,22.801,21.22"/>
<path fill="#7AB51D" d="M23.149,17.968c-2.891-3.084-5.375,4.446-11.359,3.733c-6.245-0.745-6.567,1.771-7.938,3.035
	c-2.558,5.744,7.13,38.778,36.508-0.098C40.36,24.638,29.753,25.015,23.149,17.968z"/>
<path fill="#A6E639" d="M36.89,24.285c-3.504,0-2.069-6.507-6.544-6.507c-4.211,0-5.464,6.014-9.044,6.014
	c-3.312,0-4.295-4.123-7.221-4.47c-3.443-0.411-4.267,6.123-10.229,5.414c0,0,24.804,27.006,40.535-4.409
	C41.162,19.942,40.387,24.285,36.89,24.285z"/>
<path fill="#7AB51D" d="M35.699,24.58c-2.729-1.366-4.439,0.005-5.185-1.624c-0.626-1.37,1.828-4.101,0.08-4.101
	c-4.259,0-5.901,7.4-9.795,5.763c-2.989-1.257-2.716-0.121-4.726-0.121c-2.779,0-1.028-6.504-3.448-4.055
	c-1.921,1.943-2.478,4.396-7.37,4.396c7.048,0,5.071,10.217,19.396,10.217c15.097,0,16.923-14.729,19.735-14.729
	C42.19,20.064,39.674,26.568,35.699,24.58z"/>
<path fill="#E03636" d="M57.977,19.229c3.687,15.076-18.087,20.817-21.772,5.741L57.977,19.229z"/>
<path fill="#302C3B" d="M20.244,31.08c-2.669,3.118-9.603-2.962-6.932-6.082C15.984,21.881,22.916,27.962,20.244,31.08"/>
<path fill="#B00505" d="M56.047,20.501c2.703,11.06-14.857,15.688-17.56,4.63L56.047,20.501z"/>
<path fill="#B30BAD" d="M42.084,37.154h2.304c0-19.49-27.304-19.49-27.304,0h2.304C19.622,21.482,41.849,21.482,42.084,37.154"/>
<path fill="#F6BEC1" d="M40.652,37.154h2.013c0-16.904-23.859-16.904-23.859,0h2.014C21.024,23.563,40.448,23.563,40.652,37.154"/>
<path fill="#E03636" d="M30.084,39.365c-7.927,13.926-28.041,1.58-20.115-12.348L30.084,39.365z"/>
<path fill="#B00505" d="M27.757,38.833c-5.81,10.216-22.032,0.259-16.219-9.958L27.757,38.833z"/>
<path fill="#302C3B" d="M59.04,26.475c2.961,2.84-3.353,9.576-6.312,6.739C49.77,30.373,56.082,23.637,59.04,26.475"/>
<path fill="#7AB51D" d="M57.548,32.143c-2.851-0.339-4.489,1.547-6.771,1.275c-6.983-0.831-9.664-4.878-13.567-5.342
	c-4.197-0.5-5.375,4.445-11.359,3.733c-6.246-0.745-6.087,3.255-7.938,3.035C17.913,34.844,34.691,58.211,57.548,32.143"/>
<path fill="#A6E639" d="M57.548,32.143c-3.225-0.384-3.101,2.249-6.599,2.249c-3.503,0-2.068-6.507-6.543-6.507
	c-4.212,0-5.465,6.015-9.044,6.015c-3.312,0-4.295-4.123-7.221-4.47c-3.443-0.411-4.267,6.124-10.229,5.415
	C17.913,34.844,50.672,60.453,57.548,32.143"/>
<path fill="#92C932" d="M57.548,32.143c-2.196-0.262-3.813,4.533-7.788,2.544c-2.729-1.366-4.439,0.005-5.185-1.624
	c-0.626-1.37,1.828-4.101,0.08-4.101c-4.259,0-5.901,7.401-9.795,5.763c-2.99-1.257-2.717-0.121-4.726-0.121
	c-2.779,0-1.028-6.504-3.448-4.054c-2.092,2.116-2.555,5.035-8.773,4.294c-3.811-0.455-2.538,13.637,15.651,15.803
	C48.637,52.441,65.784,33.123,57.548,32.143"/>
<path fill="#7AB51D" d="M57.548,32.143c-2.196-0.263-3.813,4.533-7.788,2.544c-2.729-1.366-4.439,0.005-5.185-1.624
	c-0.626-1.37,1.828-4.101,0.08-4.101c-4.259,0-5.901,7.401-9.795,5.763c-2.99-1.257-2.716-0.121-4.726-0.121
	c-2.779,0-1.028-6.504-3.448-4.053c-1.921,1.941-2.478,4.395-7.37,4.395c7.048,0,5.071,10.219,19.396,10.219
	C53.81,45.164,54.736,32.143,57.548,32.143"/>
<path fill="#302C3B" d="M40.931,43.316c-2.33,4.881-13.182-0.424-10.853-5.305C32.409,33.131,43.262,38.436,40.931,43.316"/>
<path fill="#E6EBEF" d="M59.979,32.084c-2.995,16.105-52.964,16.105-55.958,0h-1.98c1.703,22.881,58.215,22.881,59.918,0H59.979z"/>
<path fill="#BEC3CF" d="M2,31.019c0,41.307,60,41.307,60,0C62,51.598,2,51.598,2,31.019"/>
<path fill="#99A8AE" d="M37.272,46.242c-2.579,6.84-7.281,11.787-12.936,14.84C41.396,65.246,62,55.234,62,31.026
	C62,40.104,50.323,45.174,37.272,46.242"/>
<path fill="#7AB51D" d="M40.498,44.752C40.02,44.803,40.978,44.715,40.498,44.752"/>
<path fill="#7AB51D" d="M18.62,34.906c0,0.001-0.001,0.007-0.001,0.007c0.06,0,0.117,0.008,0.177,0.008
	C18.74,34.918,18.677,34.91,18.62,34.906"/>
</svg>
