<?xml version="1.0" encoding="utf-8"?>
<!-- Generator: Adobe Illustrator 16.2.0, SVG Export Plug-In . SVG Version: 6.00 Build 0)  -->
<!DOCTYPE svg PUBLIC "-//W3C//DTD SVG 1.1//EN" "http://www.w3.org/Graphics/SVG/1.1/DTD/svg11.dtd">
<svg version="1.1" id="Layer_1" xmlns="http://www.w3.org/2000/svg" xmlns:xlink="http://www.w3.org/1999/xlink" x="0px" y="0px"
	 width="64px" height="64px" viewBox="0 0 64 64" enable-background="new 0 0 64 64" xml:space="preserve">
<path fill="#FBB855" d="M54,2c4.137,0,8,4.25,8,7c0,4.5-46.319,53-53,53c-2.896,0-7-3.063-7-8C2,49.5,48.439,2,54,2z"/>
<path fill="#D99025" d="M6,50.527c6.321,7.142,18-3.462,18-3.462C15.753,40.891,6,50.527,6,50.527z"/>
<path fill="#FFE1BD" d="M6,50.527c0,0,7.335,3.735,18-3.462C24,47.065,16.315,44.875,6,50.527z"/>
<path fill="#EBBB96" d="M6,50.527c8.521-2.414,18-3.462,18-3.462C14.271,44.453,6,50.527,6,50.527z"/>
<path fill="#D99025" d="M17,38.527c6.321,7.142,18-3.462,18-3.462C26.753,28.891,17,38.527,17,38.527z"/>
<path fill="#FFE1BD" d="M17,38.527c0,0,7.335,3.735,18-3.462C35,35.065,27.315,32.875,17,38.527z"/>
<path fill="#EBBB96" d="M17,38.527c8.521-2.414,18-3.462,18-3.462C25.271,32.453,17,38.527,17,38.527z"/>
<path fill="#D99025" d="M29,26.527c6.32,7.142,18-3.462,18-3.462C38.754,16.891,29,26.527,29,26.527z"/>
<path fill="#FFE1BD" d="M29,26.527c0,0,7.336,3.735,18-3.462C47,23.065,39.314,20.875,29,26.527z"/>
<path fill="#EBBB96" d="M29,26.527c8.521-2.414,18-3.462,18-3.462C37.271,20.453,29,26.527,29,26.527z"/>
<path fill="#D99025" d="M41,14.527c6.32,7.142,18-3.462,18-3.462C50.754,4.891,41,14.527,41,14.527z"/>
<path fill="#FFE1BD" d="M41,14.527c0,0,7.336,3.735,18-3.462C59,11.065,51.314,8.875,41,14.527z"/>
<path fill="#EBBB96" d="M41,14.527c8.521-2.414,18-3.462,18-3.462C49.271,8.453,41,14.527,41,14.527z"/>
<path opacity="0.5" fill="#D99025" d="M9,62c6.681,0,53-48.5,53-53C49,25.56,15,60,9,60c-5.5,0-7-6-7-6C2,58.938,6.104,62,9,62z"/>
</svg>
