<?xml version="1.0" encoding="utf-8"?>
<!-- Generator: Adobe Illustrator 16.2.0, SVG Export Plug-In . SVG Version: 6.00 Build 0)  -->
<!DOCTYPE svg PUBLIC "-//W3C//DTD SVG 1.1//EN" "http://www.w3.org/Graphics/SVG/1.1/DTD/svg11.dtd">
<svg version="1.1" id="Layer_1" xmlns="http://www.w3.org/2000/svg" xmlns:xlink="http://www.w3.org/1999/xlink" x="0px" y="0px"
	 width="64px" height="64px" viewBox="0 0 64 64" enable-background="new 0 0 64 64" xml:space="preserve">
<path fill="#C4926E" d="M38.749,2C26.391,2,24.114,12.913,14.746,19.048C3.108,26.668,0.003,35.49,3.158,45.116
	C7.234,57.552,18.692,66.15,31.95,59.314C45.207,52.485,50.244,40.2,57.07,33.802C65.445,25.958,64.448,2,38.749,2z"/>
<path fill="#B47D56" d="M16.688,51.205c-7.286,0-14.606-5.438-14.682-12.986c-0.008,2.248,0.382,4.548,1.152,6.897
	C7.234,57.552,18.692,66.15,31.95,59.314C45.207,52.485,50.244,40.2,57.07,33.802c4.776-4.473,6.494-14.183,2.331-21.706
	c-0.065,0.328,2.416,7.737-12.348,14.803C31.881,34.16,31.424,51.205,16.688,51.205z"/>
<path fill="#785647" d="M59.404,12.081c0.691,4.041,0.808,11.654-1.756,15.461C56.536,29.195,53.458,32.82,52,35c3-6,3-11,3-11
	c-3.069,14.296-11,10-18,26c0,0,4-6,8.715-7.181c0,0-4.673,11.476-15.89,12.92c-10.424,1.342-11.029,4.631-13.866,4.615
	c4.255,2.782,10.548,1.767,15.992-1.04C45.208,52.485,50.245,40.2,57.072,33.802C62.907,28.337,63.396,18.103,59.404,12.081z"/>
<path fill="#B47D56" d="M9.365,42.741c0,0,2.218,8.427,8.427,8.427s3.459,7.659-1.833,4.492S9.365,49.656,9.365,42.741z"/>
<path fill="#B47D56" d="M21.56,38.183c-1.193-0.468-5.532-0.191-4.361,2.636C18.51,43.987,26.12,39.975,21.56,38.183z"/>
<path fill="#B47D56" d="M47.184,11.44c-0.468,1.192-0.193,5.532,2.635,4.361C52.988,14.49,48.976,6.88,47.184,11.44z"/>
<path fill="#B47D56" d="M22.337,27.999c0.57,1.452,4.2,5.006,5.503,1.51C29.303,25.591,20.16,22.445,22.337,27.999z"/>
<path fill="#B47D56" d="M37.56,6.184c-1.192-0.468-5.532-0.194-4.361,2.634C34.51,11.988,42.12,7.976,37.56,6.184z"/>
<path fill="#B47D56" d="M8.996,36.939c0,0,1.935-7.833,9.234-14C18.23,22.94,4.954,24.413,8.996,36.939z"/>
<path fill="#B47D56" d="M22,19.474c0,0,7.785-0.74,16,3.526C38,23,31.869,12.303,22,19.474z"/>
<path fill="#B47D56" d="M48.794,20c0,0,3.654,18-19.794,18C29,38,44.14,33.001,48.794,20z"/>
</svg>
