<?xml version="1.0" encoding="utf-8"?>
<!-- Generator: Adobe Illustrator 16.2.0, SVG Export Plug-In . SVG Version: 6.00 Build 0)  -->
<!DOCTYPE svg PUBLIC "-//W3C//DTD SVG 1.1//EN" "http://www.w3.org/Graphics/SVG/1.1/DTD/svg11.dtd">
<svg version="1.1" id="Layer_1" xmlns="http://www.w3.org/2000/svg" xmlns:xlink="http://www.w3.org/1999/xlink" x="0px" y="0px"
	 width="64px" height="64px" viewBox="0 0 64 64" enable-background="new 0 0 64 64" xml:space="preserve">
<path fill="#9E6C49" d="M4.253,25.994c18.31-18.657,38.65-4.077,50.005,24.767C40.064,59.854,9.457,47.784,4.253,25.994z"/>
<path fill="#FFE1BD" d="M53.89,50.973C39.548,59.639,9.414,47.604,4.253,25.994c0,0-0.618-1.024-1.466,0
	C7.991,47.784,41.958,61.891,56.15,52.8C56.051,51.204,53.597,50.082,53.89,50.973z"/>
<path fill="#92C932" d="M51.829,45.523C45.602,29.996,19.534,14.498,6.43,24.419c-6.332,3.769-5.739,9.017,0.898,9.017
	c4.938,0-4.252,9.457,9.149,8.401c7.237-0.567-1.654,13.843,9.404,10.617c10.251-2.987,9.89,7.001,14.895,0.812
	C45.386,47.563,56.32,56.725,51.829,45.523z"/>
<path fill="#529320" d="M51.829,45.523c1.517,3.072,1.305,4.718,0.59,5.421c-2.061-6.147-5.33-2.325-7.025-1.696
	c-18.184,6.753-18.245-8.102-18.245-8.102c-3.126,1.075-5.767,1.636-8.009,1.841c-0.451-0.793-1.245-1.262-2.663-1.15
	c-8.936,0.704-7.859-3.294-7.593-6.019C8.884,35.818,41.657,24.922,51.829,45.523z"/>
<path fill="#C21413" d="M32.138,32.276c-12.484,8.024-0.278,28.018,24.189,9.034L32.138,32.276z"/>
<path fill="#E81C27" d="M32.042,31.281c-12.484,8.023,0.625,26.689,23.196,9.129L32.042,31.281z"/>
<path fill="#C21413" d="M9.651,23.782c-9.202,6.826-0.102,25.807,23.654,12.403L9.651,23.782z"/>
<path fill="#E81C27" d="M8.92,22.406c-9.071,6.469-1.041,25.784,22.223,13.298L8.92,22.406z"/>
<path fill="#FFE12C" d="M8.787,21.675c6.221-7.751,26.208-6.475,47.175,21.779c-8.258-1.281-6.339,10.94-10.172,12.54
	c-0.928,0.387-4.244-16.893-17.043-18.816c-10.997-1.65-13.645,6.926-14.843,6.594C12.461,43.369,6.336,24.727,8.787,21.675z"/>
<path fill="#F9B700" d="M8.215,27c0,0,0.37,6.05,9.356,3.4c0,0,1.442,8.098,13.264,3.974c0,0-0.906,6.772,11.309,5.443
	c0,0,3.09,9.819,9.498,4.808C51.642,44.625,23.069,12.123,8.215,27z"/>
<path fill="#785647" d="M6.54,23.936c16.911-14.061,43.958-6.902,45.213,19.518c-3.987,4.456-9.247-2.874-8.709-5.306
	c-7.699,2.5-13.333-0.996-13.458-5.408c-6.007,4.605-14.186,0.234-13.187-4.725C11.116,32.2,3.532,26.169,6.54,23.936z"/>
<path fill="#594640" d="M5.883,24.847c0,0,8.986-6.123,16.064,2.173c5.546,6.5,8.1,0.772,15.293,4.721
	c10.949,6.009,13.618,12.502,13.618,12.502S38.285,17.66,17.223,17.66C6.921,17.66,5.883,24.847,5.883,24.847z"/>
<path fill="#92C932" d="M13.03,21.521c11.481-0.784,5.499,10.728,16.557,7.502c10.251-2.987,15.566,12.905,20.571,6.715
	C54.769,30.035,23.7,12.141,13.03,21.521z"/>
<path fill="#529320" d="M50.158,35.738c4.61-5.703-26.458-23.597-37.128-14.217c3.014-0.206,4.819,0.439,6.05,1.439
	c4.532,0.736,10.611,2.428,16.244,6.267C42.009,31.647,46.183,40.654,50.158,35.738z"/>
<path fill="#F5CFA0" d="M2.787,25.994C30.868-12.1,78.667,16.744,56.15,52.8C39.536,11,10.86,19.769,2.787,25.994z"/>
<path fill="#EBBB96" d="M56.15,52.8c7.718-12.359,7.173-23.87,1.993-32.129c0.068,0.18,5.854,13.83-2.836,27.354L56.15,52.8z"/>
<path fill="#EBBB96" d="M56.583,35.46c-1.522-1.546-1.87,6.453,0,5.627C59.263,39.9,58.081,36.979,56.583,35.46z"/>
<path fill="#EBBB96" d="M55.237,29.337c-1.44,0.408,2.373,4.204,2.793,2.495C58.629,29.39,56.653,28.94,55.237,29.337z"/>
<path fill="#EBBB96" d="M54.009,33.391c0.778-1.514-4.149-0.957-3.441,0.606C51.581,36.232,53.243,34.872,54.009,33.391z"/>
<path fill="#EBBB96" d="M22.515,12.311c-1.525-1.545-1.874,6.451,0,5.624C25.193,16.752,24.011,13.827,22.515,12.311z"/>
<path fill="#EBBB96" d="M26.685,11.268c-1.442,0.407,2.372,4.201,2.791,2.493C30.075,11.319,28.099,10.871,26.685,11.268z"/>
<path fill="#EBBB96" d="M28.663,16.924c0.782-1.513-4.149-0.955-3.441,0.607C26.237,19.767,27.896,18.407,28.663,16.924z"/>
<path fill="#EBBB96" d="M46.223,19.898c-0.988-1.005-1.215,4.184,0,3.646C47.96,22.777,47.191,20.881,46.223,19.898z"/>
<path fill="#EBBB96" d="M45.349,15.927c-0.937,0.265,1.539,2.724,1.812,1.617C47.549,15.961,46.268,15.669,45.349,15.927z"/>
<path fill="#EBBB96" d="M44.554,18.554c0.505-0.983-2.693-0.621-2.233,0.393C42.978,20.397,44.056,19.516,44.554,18.554z"/>
<path fill="#FFE1BD" d="M4.253,25.994c18.673-14.559,43.814,7.299,49.637,24.979c-0.196,0.118,1.749,2.155,2.261,1.827
	C54.826,31.457,18.883,6.541,2.787,25.994C2.866,26.326,4.284,26.125,4.253,25.994z"/>
</svg>
