<?xml version="1.0" encoding="utf-8"?>
<!-- Generator: Adobe Illustrator 15.0.0, SVG Export Plug-In . SVG Version: 6.00 Build 0)  -->
<!DOCTYPE svg PUBLIC "-//W3C//DTD SVG 1.1//EN" "http://www.w3.org/Graphics/SVG/1.1/DTD/svg11.dtd">
<svg version="1.1" id="Layer_1" xmlns="http://www.w3.org/2000/svg" xmlns:xlink="http://www.w3.org/1999/xlink" x="0px" y="0px"
	 width="64px" height="64px" viewBox="0 0 64 64" enable-background="new 0 0 64 64" xml:space="preserve">
<path fill="#C4926E" d="M24.875,33.079c7.977,14.624-5.111,19.785-6.904,19.422C0.208,48.906,6.184,36.561,5.442,31.407
	C-1.511,15.015,6.155,10.445,17.099,4.963C35.635,14.828,22.785,29.243,24.875,33.079z"/>
<path fill="#F5BE7D" d="M5.346,43.777c7.043,5.813,14.836,5.166,22.041-0.881c0.504-0.426,0.232-2.046-0.27-1.623
	c-6.553,5.501-14.859,6.613-21.779,0.826C4.809,41.657,4.692,43.238,5.346,43.777z"/>
<path fill="#F5BE7D" d="M5.567,36.683c4.661,5.33,16.771,4.385,20.164-0.589c0.231-0.343-0.521-1.688-0.754-1.348
	c-3.162,4.636-14.479,5.949-19.457,0.255C5.041,34.45,5.01,36.044,5.567,36.683z"/>
<path fill="#F5BE7D" d="M3.833,27.639c5.593,6.325,13.271,7.037,21.436,2.315c0.763-0.44,0.523-1.925,0.179-1.703
	c-7.316,4.654-16.975,3.296-21.906-2.61C3.352,25.413,3.132,26.845,3.833,27.639z"/>
<path fill="#F5BE7D" d="M2.853,23.252c6.855,0.182,15.527,5.786,24.257-0.813c0.717-0.542,0.424-1.983,0.104-1.728
	c-7.925,6.332-17.392,1.111-24.566,0.841C2.155,21.533,2.438,23.242,2.853,23.252z"/>
<path fill="#F5BE7D" d="M2.868,17.022c-0.801,0.418-0.434,2.061-0.094,1.829c6.448-4.396,15.817,2.145,24.541-1.265
	c0.383-0.15,0.094-1.763-0.291-1.614C19.263,18.968,10.762,12.892,2.868,17.022z"/>
<path fill="#F5BE7D" d="M6.09,11.617c-1.204,0.446-1.737,2.073-1.354,1.891c9.057-4.337,13.395-0.259,21.333-0.06
	c0.413,0.012-0.192-1.445-0.681-1.435C18.199,12.224,17.177,7.503,6.09,11.617z"/>
<path fill="#F5BE7D" d="M12.554,7.371C3.382,18.101,7.678,24.603,7.034,31.27c-1.059,10.937,1.309,17.738,9.501,20.951
	c0.375,0.146,2.253,0.549,1.35,0.059c-9.315-5.063-10.022-10.418-9.44-20.701c0.4-7.089-2.947-16.363,5.813-24.868
	C14.866,6.12,13.165,6.657,12.554,7.371z"/>
<path fill="#F5BE7D" d="M16.076,5.671c-6.628,12.242-3.473,22.801-4.181,25.496c-2.363,9.028,2.55,16.589,6.176,21.347
	c0.252,0.33,1.445-0.228,1.192-0.558c-3.434-4.505-8.105-11.992-5.907-20.388c0.758-2.89-2.057-13.933,4.172-26.309
	C17.713,4.894,16.743,4.439,16.076,5.671z"/>
<path fill="#F5BE7D" d="M17.579,5.244c4.628,11.458-1.479,23.458-0.133,27.552c2.091,6.363,3.189,15.439,1.338,19.86
	c-0.158,0.386,1.407,0.202,1.568-0.18c2.529-6.047-0.423-16.909-1.48-20.124c-1.219-3.716,5.57-14.239-0.174-26.684
	C18.547,5.343,17.42,4.852,17.579,5.244z"/>
<path fill="#F5BE7D" d="M17.348,4.417c18.792,9.999,6.188,24.997,8.022,28.361c8.258,15.14-5.38,20.726-7.546,20.287
	C-1.498,49.164,5.936,33.75,4.987,31.689c-9.762-21.194,7.143-22.78,11.662-27.177C16.827,4.341,17.191,4.335,17.348,4.417z
	 M24.318,33.342c-2.39-4.381,10.502-17.984-7.159-27.673C12.34,9.698-2.878,11.948,6.104,31.264
	c1.051,2.259-5.891,17.479,11.951,20.632C19.397,52.1,32.028,47.479,24.318,33.342z"/>
<path opacity="0.6" fill="#45332C" d="M16.524,52.776c3.291-0.332,16.564-5.851,8.847-19.998
	c-1.604-2.944,7.842-14.792-2.355-24.408C24.083,27.149,1.77,36.276,16.524,52.776z"/>
<path fill="#C4926E" d="M45.438,42.037c-1.385,23.147-20.292,19.661-22.105,17.919C5.371,42.688,21.26,32.457,24.145,25.817
	C28,1.328,40.199,1.538,56.857,3.069C71.16,28.325,45.803,35.965,45.438,42.037z"/>
<path fill="#F5BE7D" d="M17.051,37.118c3.936,12.038,13.432,16.982,26.169,15.107c0.891-0.134,1.756-2.25,0.865-2.117
	c-11.584,1.705-22.013-3.063-25.824-14.982C17.971,34.216,16.686,36,17.051,37.118z"/>
<path fill="#F5BE7D" d="M15.293,45.896c2.539,6.893,13.156,13.463,24.73,11.272c1.1-0.207,2.348-1.936,1.248-1.721
	c-11.497,2.169-22.947-4.86-26.063-12.355C14.537,41.477,14.725,44.351,15.293,45.896z"/>
<path fill="#F5BE7D" d="M21.499,30.829c1.525,9.721,16.238,17.476,23.781,14.077c0.518-0.234,0.624-2.379,0.107-2.146
	c-7.031,3.169-21.092-3.569-22.72-13.956C22.51,27.802,21.318,29.665,21.499,30.829z"/>
<path fill="#F5BE7D" d="M25.02,20.179c1.883,11.582,10.257,18.05,23.144,18.447c1.204,0.037,2.006-1.895,1.444-1.884
	c-11.854,0.145-22.055-8.539-23.475-19.141C26.079,17.193,24.785,18.726,25.02,20.179z"/>
<path fill="#F5BE7D" d="M27.071,14.27c7.808,5.239,13.78,18.226,28.686,16.813c1.223-0.116,1.931-2.035,1.375-1.968
	c-13.779,1.686-20.95-11.429-29.063-17.007C27.511,11.726,26.598,13.953,27.071,14.27z"/>
<path fill="#F5BE7D" d="M31.614,6.91c-1.231-0.091-1.998,2.12-1.438,2.095C40.839,8.528,46.938,23.133,59.52,25.492
	c0.551,0.104,1.389-2.017,0.836-2.123C49.189,21.226,43.758,7.81,31.614,6.91z"/>
<path fill="#F5BE7D" d="M39.272,2.876c-1.719-0.354-3.519,1.182-2.94,1.245c13.641,1.504,15.701,9.51,24.75,15.563
	c0.471,0.313,0.83-1.854,0.254-2.195C52.855,12.466,55.102,6.134,39.272,2.876z"/>
<path fill="#F5BE7D" d="M49.843,2.591c-18.416,5.971-18.166,16.814-23.754,24.23c-9.171,12.164-11.371,21.945-4.215,31.748
	c0.328,0.448,2.209,2.303,1.52,1.059c-7.111-12.816-4.041-19.669,4.104-31.41c5.613-8.093,8.475-21.521,24.798-25.162
	C53.43,2.803,51.07,2.192,49.843,2.591z"/>
<path fill="#F5BE7D" d="M55.158,3.158C38.59,12.785,34.57,27.591,31.793,30.264c-9.297,8.948-9.098,21.494-8.355,29.78
	c0.053,0.575,1.84,0.791,1.789,0.212c-0.707-7.843-0.678-20.127,7.966-28.45c2.977-2.865,7.74-17.992,23.945-28.07
	C57.619,3.437,56.826,2.187,55.158,3.158z"/>
<path fill="#F5BE7D" d="M56.531,2.96c-2.963,16.948-18.753,26.674-20.17,32.504c-2.2,9.061-7.521,20.604-12.877,24.479
	c-0.464,0.338,1.483,1.271,1.946,0.935c7.324-5.3,11.794-20.315,12.906-24.894c1.288-5.292,16.796-12.768,19.184-31.699
	C57.582,3.788,56.633,2.381,56.531,2.96z"/>
<path fill="#F5BE7D" d="M57.797,6.105c1.964,16.407-6.793,23.021-14.217,30.859c-2.548,2.69-3.112,18.617-16.974,23.821
	c-0.525,0.197,1.169,0.448,1.717,0.313c13.737-3.425,14.624-20.075,16.699-22.638c7.296-9.017,16.205-14.227,14.158-29.372
	C58.995,7.719,57.729,5.535,57.797,6.105z"/>
<path fill="#F5BE7D" d="M57.543,2.607c14.5,25.602-10.992,34.11-11.313,39.435c-1.434,23.963-21.287,20.581-23.479,18.476
	c-19.544-18.776,0.264-31.566,0.661-34.7C27.504-6.412,48.234,4.099,56.663,2.209C56.994,2.135,57.42,2.394,57.543,2.607z
	 M44.602,41.938c0.416-6.937,25.23-13.584,11.812-37.99c-8.507,1.237-27.768-7.251-31.397,22.185
	c-0.424,3.443-19.521,16.363-1.146,33.168C25.276,60.525,43.262,64.314,44.602,41.938z"/>
<path opacity="0.3" fill="#45332C" d="M57.543,2.607c-0.123-0.214-0.549-0.473-0.88-0.398c-1.868,0.419-4.915,0.26-7.019,0.034
	c18.311,16.815-16.468,41.266-24.977,16.76c-0.554,2.263-1.058,4.945-1.243,6.731c-0.097,0.926-1.607,2.346-2.908,4.04
	c17.848-1.277,20.191,31.002,2.883,31.167c4.054,2.021,21.492,3.496,22.832-18.899C46.551,36.718,72.043,28.209,57.543,2.607z"/>
</svg>
