<?xml version="1.0" encoding="utf-8"?>
<!-- Generator: Adobe Illustrator 16.2.0, SVG Export Plug-In . SVG Version: 6.00 Build 0)  -->
<!DOCTYPE svg PUBLIC "-//W3C//DTD SVG 1.1//EN" "http://www.w3.org/Graphics/SVG/1.1/DTD/svg11.dtd">
<svg version="1.1" id="Layer_1" xmlns="http://www.w3.org/2000/svg" xmlns:xlink="http://www.w3.org/1999/xlink" x="0px" y="0px"
	 width="64px" height="64px" viewBox="0 0 64 64" enable-background="new 0 0 64 64" xml:space="preserve">
<path fill="#8A6859" d="M26.345,2c47.54,0,47.54,60,0,60V2z"/>
<path fill="#785647" d="M62,32c0,0-6.167,15.257-36,15.257V62C50,62,62,47.141,62,32z"/>
<g>
	<ellipse fill="#594640" cx="26.344" cy="32" rx="24.344" ry="30"/>
	<g>
		<ellipse fill="#92C932" cx="26.344" cy="32" rx="22.93" ry="28.257"/>
		<ellipse fill="#A6E639" cx="26.344" cy="32" rx="20.047" ry="24.703"/>
		<path fill="#92C932" d="M15.907,32.043c-0.006-1.457-5.643-3.807-5.348-5.184c0.301-1.396,6.149-0.002,6.728-1.25
			c0.58-1.245-3.354-6.756-2.53-7.782c0.814-1.01,5.313,3.79,6.335,3.058c0.988-0.708-0.184-7.91,0.972-8.298
			c1.158-0.386,3.101,6.555,4.246,6.551c1.183-0.007,3.088-6.954,4.207-6.59c1.133,0.37,0.002,7.577,1.015,8.292
			c1.01,0.712,5.481-4.139,6.314-3.121c0.822,1.003-3.075,6.544-2.479,7.805c0.574,1.218,6.417-0.228,6.73,1.197
			c0.316,1.424-5.318,3.824-5.313,5.233c0.006,1.458,5.642,3.808,5.345,5.185c-0.301,1.398-6.15,0.004-6.729,1.25
			c-0.579,1.247,3.356,6.756,2.531,7.782c-0.813,1.013-5.312-3.79-6.333-3.056c-0.991,0.708,0.185,7.908-0.973,8.296
			c-1.155,0.388-3.103-6.556-4.245-6.55c-1.184,0.008-3.091,6.955-4.209,6.589c-1.132-0.37-0.001-7.579-1.013-8.292
			c-1.011-0.715-5.481,4.137-6.313,3.121c-0.822-1.006,3.074-6.547,2.479-7.807c-0.574-1.22-6.418,0.228-6.731-1.197
			C10.276,35.852,15.911,33.453,15.907,32.043z"/>
		<polygon fill="#E5EFCD" points="21.09,30.261 14.812,23.793 22.497,27.262 19.683,17.79 24.933,25.525 26.343,15.59 
			27.753,25.525 33.003,17.79 30.19,27.262 37.874,23.791 31.6,30.261 39.659,32 31.6,33.739 37.875,40.207 30.188,36.738 
			33.005,46.207 27.753,38.475 26.343,48.407 24.933,38.475 19.681,46.207 22.498,36.738 14.813,40.209 21.09,33.739 13.028,32 		
			"/>
		<g>
			<g>
				<g>
					<polygon fill="#302C3B" points="27.794,19.271 28.239,21.688 29.541,19.8 29.097,17.381 					"/>
					<polygon fill="#302C3B" points="30.336,15.896 30.782,18.313 32.084,16.424 31.641,14.005 					"/>
				</g>
				<polygon fill="#302C3B" points="22.771,19.33 24.47,20.651 24.308,18.18 22.604,16.857 				"/>
			</g>
			<g>
				<g>
					<polygon fill="#302C3B" points="24.894,44.727 24.449,42.311 23.146,44.198 23.592,46.617 					"/>
					<polygon fill="#302C3B" points="22.353,48.104 21.906,45.686 20.603,47.576 21.049,49.992 					"/>
				</g>
				<polygon fill="#302C3B" points="29.918,44.67 28.218,43.35 28.38,45.82 30.082,47.141 				"/>
			</g>
		</g>
		<g>
			<g>
				<g>
					<polygon fill="#302C3B" points="16.017,30.211 17.978,29.663 16.444,28.059 14.481,28.606 					"/>
					<polygon fill="#302C3B" points="13.274,27.08 15.237,26.53 13.704,24.926 11.742,25.474 					"/>
				</g>
				<polygon fill="#302C3B" points="16.062,36.404 17.134,34.309 15.129,34.508 14.058,36.605 				"/>
			</g>
			<g>
				<g>
					<polygon fill="#302C3B" points="36.672,33.786 34.711,34.334 36.243,35.939 38.206,35.391 					"/>
					<polygon fill="#302C3B" points="39.411,36.918 37.45,37.468 38.98,39.072 40.944,38.523 					"/>
				</g>
				<polygon fill="#302C3B" points="36.625,27.594 35.552,29.689 37.558,29.49 38.632,27.392 				"/>
			</g>
		</g>
		<g>
			<g>
				<g>
					<polygon fill="#302C3B" points="17.656,24.889 19.618,25.438 18.799,23.176 16.836,22.624 					"/>
					<polygon fill="#302C3B" points="16.283,20.604 18.247,21.153 17.424,18.891 15.465,18.338 					"/>
				</g>
			</g>
			<g>
				<g>
					<polygon fill="#302C3B" points="36.402,43.395 34.442,42.846 35.263,45.107 37.224,45.659 					"/>
				</g>
			</g>
		</g>
		<g>
			<g>
				<g>
					<polygon fill="#302C3B" points="32.114,21.294 31.668,23.711 33.505,22.701 33.951,20.283 					"/>
					<polygon fill="#302C3B" points="35.591,19.601 35.145,22.02 36.98,21.008 37.43,18.592 					"/>
				</g>
			</g>
			<g>
				<g>
					<polygon fill="#302C3B" points="17.099,44.396 17.543,41.979 15.707,42.989 15.261,45.406 					"/>
				</g>
			</g>
		</g>
	</g>
</g>
</svg>
