<?xml version="1.0" encoding="utf-8"?>
<!-- Generator: Adobe Illustrator 16.2.0, SVG Export Plug-In . SVG Version: 6.00 Build 0)  -->
<!DOCTYPE svg PUBLIC "-//W3C//DTD SVG 1.1//EN" "http://www.w3.org/Graphics/SVG/1.1/DTD/svg11.dtd">
<svg version="1.1" id="Layer_1" xmlns="http://www.w3.org/2000/svg" xmlns:xlink="http://www.w3.org/1999/xlink" x="0px" y="0px"
	 width="64px" height="64px" viewBox="0 0 64 64" enable-background="new 0 0 64 64" xml:space="preserve">
<path fill="#529320" d="M44,18.511c0,0-3.875,6.664-8.625,7.702l2.313,3.913c0,0,3.623-6.75,7.843-9.125L44,18.511z"/>
<path fill="#529320" d="M40.665,32.072c2.851-2.226,3.223-6.18,0.83-8.832c-2.392-2.653-6.645-3-9.495-0.773L40.665,32.072z"/>
<path fill="#EA8800" d="M32.975,20c-5.904,0-15.787,18.791-20.94,24.473C7.022,49.999,2,59.699,2,61.843
	c0,0.902,8.308-2.202,12.484-6.431C18.662,51.186,44,37.254,44,30.264C44,26.09,37.653,20,32.975,20z"/>
<path fill="#D47706" d="M14.484,55.412C18.662,51.186,44,37.254,44,30.264c0-1.102-0.449-2.334-1.186-3.556
	c-1.153,6.6-2.043,0.849-5.831,0.849c0,0,5.874,4.993,0.813,9.049c-2.262,1.815-1.369-3.86-7.608-3.86c0,0,7.574,4.922,1.781,8.253
	c-2.426,1.396-2.004-4.079-7.127-4.079c0,0,3.23,1.804,3.23,5.411c0,2.814-5.337,6.168-6.015,4.736
	c-1.337-2.824-4.456-2.818-4.456-2.818c5.117,5.175,0.167,5.466-3.675,9.358S2,60.438,2,61.843
	C2,62.745,10.308,59.641,14.484,55.412z"/>
<path fill="#F9B700" d="M24.843,28.023c0,0,6.101,1.409,10.692,5.286C35.535,33.309,33.406,26.921,24.843,28.023z"/>
<path fill="#F9B700" d="M16.128,41.867c0,0,3.798,0.499,6.526,3.825C22.654,45.692,21.602,39.333,16.128,41.867z"/>
<path fill="#F9B700" d="M12.128,45.703c0,0,2.974,0.39,5.109,2.989C17.237,48.692,16.414,43.722,12.128,45.703z"/>
<path fill="#F9B700" d="M27.128,25.867c0,0,5.02,0.318,8.526,3.825C35.654,29.692,33.417,23.167,27.128,25.867z"/>
<path fill="#F9B700" d="M21.32,33.3c0,0,3.83-0.01,6.962,2.931C28.282,36.23,26.42,30.063,21.32,33.3z"/>
<path fill="#529320" d="M61.882,8.26c0.703-0.657-1.897-0.648-3.397-0.648C57.185,7.611,60,4,59,4c-1.115,0-3.83,3.976-4.193,3.767
	C54.438,7.558,55.656,2,54.74,2c-0.825,0-3.152,6.42-3.646,7.268c-0.495,0.846-1.121-6.002-1.755-5.419
	c-0.777,0.717-0.652,6.998-1.358,6.349c-0.453-0.417-1.76-4.155-2.64-4.155c-0.474,0,0.456,8.575-0.621,7.072
	c-1.073-1.505-1.572-4.435-2.346-4.435C41.678,8.68,41.98,22,43.055,22c2.509,0,12.736-0.836,13.088-1.44
	c0.35-0.605-4.121-0.592-4.974-1.08c-0.854-0.49,8.272-1.182,8.029-2.089c-0.247-0.907-6.096-1.804-4.941-2.109
	C55.422,14.967,61,12.689,61,12c0-0.794-5.929-0.267-4.817-0.92S60.872,9.206,61.882,8.26z"/>
<path fill="#7AB51D" d="M55.208,17.015l-6.859,0.832C48.349,17.847,49.161,15.896,55.208,17.015z"/>
<path fill="#297124" d="M44.127,21L56.342,8.611C49.258,12.348,44.127,21,44.127,21z"/>
<path fill="#7AB51D" d="M43.072,14.806l1.706,3.633C44.778,18.438,46.419,17.611,43.072,14.806z"/>
<path fill="#7AB51D" d="M46.545,18.826c0,0-0.474,1.684,4.008,1.317L46.545,18.826z"/>
<path fill="#7AB51D" d="M46.963,10.022l0.363,5.415C47.326,15.438,49.216,14.647,46.963,10.022z"/>
<path fill="#7AB51D" d="M49.105,8.287l0.362,4.151C49.468,12.438,51.358,11.832,49.105,8.287z"/>
<path fill="#7AB51D" d="M51.436,14.738l5.575-1.539C51.584,12.809,51.436,14.738,51.436,14.738z"/>
</svg>
