<?xml version="1.0" encoding="utf-8"?>
<!-- Generator: Adobe Illustrator 16.2.0, SVG Export Plug-In . SVG Version: 6.00 Build 0)  -->
<!DOCTYPE svg PUBLIC "-//W3C//DTD SVG 1.1//EN" "http://www.w3.org/Graphics/SVG/1.1/DTD/svg11.dtd">
<svg version="1.1" id="Layer_1" xmlns="http://www.w3.org/2000/svg" xmlns:xlink="http://www.w3.org/1999/xlink" x="0px" y="0px"
	 width="64px" height="64px" viewBox="0 0 64 64" enable-background="new 0 0 64 64" xml:space="preserve">
<path fill="#529320" d="M58.322,3.104c-4.534-2.563-10.305-0.5-16.563,4.464c-1.551-0.784-2.905-0.047-3.549,3.064
	c-4.719,5.104-9.147,9.83-11.173,12.399c-1.542-0.484-2.798,1.473-2.036,2.625c-2.131,2.787-4.33,5.338-6.477,7.688
	c-1.799-0.385-2.249,1.214-2.026,2.185c-1.539,1.634-6.368,6.679-7.234,7.631c-1.41-0.684-2.903,1.268-2.642,3.074
	C4.12,49.376,2.876,52.144,2.993,55c-1.149,1.671-1.333,3.038,1.005,4c1.585,2.537,4.826,3.241,9.151,2.256
	c0.765,0.723,2.229,1.586,3.309-0.976c0-0.005,0-0.005,0.001-0.006c2.473-0.883,10.412-5.091,11.585-5.814
	c1.395,1.718,2.935-0.644,2.741-1.753c1.851-1.222,3.746-2.546,5.67-3.976c0.813,0.23,1.878,0.181,2.021-1.526
	c1.565-1.204,8.566-7.15,10.245-8.901c1.063,0.061,2.931-0.207,2.603-2.869c2.288-2.696,4.212-5.436,5.774-8.132
	c0.775-0.113,2.273-0.562,1.271-2.321C59.006,23.731,66.24,7.578,58.322,3.104z"/>
<path fill="#297124" d="M3.998,59c1.585,2.537,4.596,3.241,8.922,2.256C13.685,61.979,15,62.842,16,60.28c0-0.005,0-0.005,0-0.006
	c3-0.883,10.642-5.091,11.814-5.814c1.395,1.718,3.05-0.644,2.854-1.753c1.852-1.222,3.806-2.546,5.729-3.976
	c0.812,0.23,1.904,0.181,2.049-1.526c1.564-1.204,8.578-7.15,10.261-8.901c1.062,0.061,2.937-0.207,2.608-2.869
	c2.288-2.696,4.215-5.436,5.777-8.132c0.775-0.113,2.275-0.562,1.273-2.321c0.637-1.25,7.872-17.404-0.046-21.877
	c0,0,2.085,8.152-3.201,15.607c-5.288,7.455-9.954,9.117-16.605,17.01C31.863,43.615,20.666,53.944,15.5,55.554
	c-5.167,1.612-10.08,6.46-12.791-0.465C1.56,56.76,1.685,58.125,3.998,59z"/>
<path fill="#7AB51D" d="M49.233,15.479c-3.874-1.225-4.706,8.118-1.506,3.025C49.26,16.073,52.727,16.585,49.233,15.479z"/>
<path fill="#7AB51D" d="M39.435,17.437c-3.908-1.112-4.463,8.25-1.412,3.065C39.478,18.029,42.958,18.439,39.435,17.437z"/>
<path fill="#529320" d="M46.061,34.315c4.786,0.385,3.252-10.593,0.924-3.879C45.871,33.641,41.743,33.971,46.061,34.315z"/>
<path fill="#529320" d="M34.183,45.808c3.468,0.278,2.354-7.673,0.67-2.812C34.046,45.317,31.056,45.556,34.183,45.808z"/>
<path fill="#529320" d="M19.14,56.621c3.242,1.26,4.466-6.672,1.45-2.499C19.15,56.114,16.217,55.484,19.14,56.621z"/>
<path fill="#529320" d="M54.396,23.846c3.464,0.311,2.411-7.652,0.692-2.804C54.266,23.355,51.274,23.566,54.396,23.846z"/>
<path fill="#7AB51D" d="M14.98,42.965c-2.728-0.218-1.852,6.029-0.526,2.208C15.087,43.351,17.437,43.163,14.98,42.965z"/>
<path fill="#7AB51D" d="M36.411,28.295c-2.729-0.218-1.854,6.03-0.527,2.208C36.518,28.682,38.867,28.494,36.411,28.295z"/>
<path fill="#7AB51D" d="M10.659,52.106c-2.727-0.218-1.853,6.028-0.526,2.206C10.765,52.492,13.115,52.306,10.659,52.106z"/>
<path fill="#7AB51D" d="M51.608,6.692c-2.54-1.013-3.555,5.215-1.155,1.954C51.597,7.09,53.898,7.604,51.608,6.692z"/>
<path fill="#7AB51D" d="M27.738,30.596c-4.054-0.325-2.753,8.964-0.782,3.282C27.896,31.167,31.39,30.889,27.738,30.596z"/>
<path fill="#7AB51D" d="M23.975,40.332c-3.939-1.001-4.221,8.374-1.322,3.105C24.036,40.922,27.527,41.234,23.975,40.332z"/>
<path fill="#297124" d="M43.126,24.854c0,0-18.37,21.964-29.001,27.395C14.125,52.249,31.5,45.709,43.126,24.854z"/>
<path fill="#297124" d="M56.625,5.5c0,0-0.344,8.993-8.962,16.579C47.663,22.079,59.002,17.125,56.625,5.5z"/>
<path fill="#7AB51D" d="M20.333,33.723c0,0,14.07-18.219,22.629-25.348C42.962,8.375,28.668,27.483,20.333,33.723z"/>
</svg>
