<?xml version="1.0" encoding="utf-8"?>
<!-- Generator: Adobe Illustrator 16.2.0, SVG Export Plug-In . SVG Version: 6.00 Build 0)  -->
<!DOCTYPE svg PUBLIC "-//W3C//DTD SVG 1.1//EN" "http://www.w3.org/Graphics/SVG/1.1/DTD/svg11.dtd">
<svg version="1.1" id="Layer_1" xmlns="http://www.w3.org/2000/svg" xmlns:xlink="http://www.w3.org/1999/xlink" x="0px" y="0px"
	 width="64px" height="64px" viewBox="0 0 64 64" enable-background="new 0 0 64 64" xml:space="preserve">
<path fill="#E03636" d="M16.814,7.496c1.768-1.446,2.907-4.44,3.928-5.276c0.994-0.813,9.251,0.412,13.52,7.459
	c1.736,2.868,3.171,6.585,11.621,8.714c8.453,2.128,5.359,5.557,15.812,14.119c1.367,1.122-2.051,3.739-6.425,6.121
	c-3.848,2.095-3.524,6.286-4.867,5.187c-6.894-5.646-7.368-14.042-15.821-16.169c-8.45-2.129-9.833-5.888-11.568-8.756
	c-4.268-7.047-12.324-4.311-14.845-6.375C6.722,11.333,15.05,8.941,16.814,7.496z"/>
<path fill="#F89987" d="M15.67,8.18c3.191,0.44,7.028,2.297,10.805,7.384c6.366,8.575,9.792,4.66,17.308,13.805
	c4.67,5.681,7.99,8.665,10.13,10.227c-0.98,0.882-1.557,1.892-1.964,2.725c-7.912-7.191-9.468-13.582-15.601-15.822
	c-6.58-2.404-7.921-3.828-11.755-9.395c-3.614-5.25-9.027-6.829-12.688-7.266C13.245,9.267,14.648,8.695,15.67,8.18z"/>
<path fill="#F46C60" d="M19.441,3.997c5.111,1.844,10.824,5.148,15,10.066c6.473,7.618,11.902,3.136,15.924,8.376
	c4.426,5.767,8.744,9.611,11.248,11.613c-0.195,0.271-0.462,0.563-0.788,0.868c-5.483-4.08-9.093-10.485-7.484-6.298
	c1.06,2.759,3.135,5.617,5.224,8.036c-0.613,0.411-1.284,0.826-1.995,1.243c-3.329-4.703-4.953-11.622-13.385-15.883
	c-6.43-3.25-9.05-3.029-14.66-10.375c-2.464-3.227-6.136-5.338-9.658-6.711C19.065,4.613,19.258,4.298,19.441,3.997z"/>
<path fill="#FDE0DA" d="M31.66,16.803c5.067,4.152,10.414,5.939,14.602,9.369c2.869,2.351,6.487,8.312,7.341,11.387
	c0,0-4.504-8.606-15.248-14.567c-5.316-2.951-7.87-4.311-10.753-8.353c-4.397-6.165-8.234-7.511-8.234-7.511
	C27.052,9.129,27.901,13.726,31.66,16.803z"/>
<path fill="#F89987" d="M32.514,10.617C27.2,5.143,21.365,3.999,21.365,3.999C28.946,3.016,32.514,10.617,32.514,10.617z"/>
<path fill="#E03636" d="M10.813,25.496c1.768-1.446,2.907-4.44,3.929-5.276c0.991-0.813,9.25,0.413,13.519,7.46
	c1.737,2.868,3.172,6.585,11.623,8.713s5.358,5.557,15.812,14.12c1.367,1.121-2.052,3.738-6.427,6.12
	c-3.847,2.096-3.523,6.286-4.865,5.187c-6.893-5.646-7.367-14.042-15.822-16.169c-8.451-2.129-9.833-5.887-11.571-8.756
	c-4.266-7.048-12.32-4.311-14.842-6.376C0.721,29.334,9.051,26.941,10.813,25.496z"/>
<path fill="#F89987" d="M9.669,26.181c3.192,0.44,7.027,2.297,10.806,7.384c6.365,8.576,9.792,4.661,17.309,13.806
	c4.671,5.682,7.989,8.664,10.128,10.227c-0.979,0.883-1.555,1.892-1.963,2.725C38.037,53.13,36.482,46.74,30.348,44.5
	c-6.582-2.404-7.921-3.828-11.756-9.396c-3.614-5.25-9.026-6.829-12.687-7.265C7.245,27.267,8.648,26.695,9.669,26.181z"/>
<path fill="#F46C60" d="M13.441,21.997c5.11,1.844,10.822,5.148,15,10.065c6.473,7.619,11.903,3.137,15.923,8.377
	c4.427,5.768,8.746,9.611,11.249,11.612c-0.193,0.271-0.461,0.563-0.788,0.868c-5.482-4.08-9.092-10.484-7.484-6.297
	c1.061,2.759,3.135,5.616,5.225,8.036c-0.613,0.41-1.286,0.825-1.996,1.242c-3.328-4.702-4.952-11.622-13.385-15.883
	c-6.43-3.251-9.05-3.027-14.66-10.375c-2.465-3.227-6.136-5.337-9.658-6.711C13.065,22.613,13.26,22.299,13.441,21.997z"/>
<path fill="#FDE0DA" d="M25.66,34.803c5.066,4.153,10.416,5.939,14.602,9.37c2.87,2.351,6.487,8.312,7.341,11.387
	c0,0-4.504-8.605-15.247-14.565c-5.32-2.952-7.873-4.313-10.753-8.354c-4.398-6.165-8.235-7.512-8.235-7.512
	C21.053,27.13,21.9,31.726,25.66,34.803z"/>
<path fill="#F89987" d="M26.513,28.617c-5.313-5.473-11.148-6.618-11.148-6.618C22.948,21.016,26.513,28.617,26.513,28.617z"/>
</svg>
