<?xml version="1.0" encoding="utf-8"?>
<!-- Generator: Adobe Illustrator 15.0.0, SVG Export Plug-In . SVG Version: 6.00 Build 0)  -->
<!DOCTYPE svg PUBLIC "-//W3C//DTD SVG 1.1//EN" "http://www.w3.org/Graphics/SVG/1.1/DTD/svg11.dtd">
<svg version="1.1" id="Layer_1" xmlns="http://www.w3.org/2000/svg" xmlns:xlink="http://www.w3.org/1999/xlink" x="0px" y="0px"
	 width="64px" height="64px" viewBox="0 0 64 64" enable-background="new 0 0 64 64" xml:space="preserve">
<path fill="#AB5C10" d="M2,45.363v5.338c0,1.674,1.399,3.246,5.998,2.303c4.598-0.943,16.194,10.154,21.692,8.896
	c5.498-1.359,9.496-3.664,28.888-5.965c2.6-0.316,3.398-1.152,3.398-1.988c0-0.734,0-5.234,0-5.234L2,45.363z"/>
<path fill="#D99025" d="M2,45.363c0,1.674,1.399,3.244,5.998,2.303c4.598-0.941,16.194,10.152,21.692,8.896
	c5.498-1.359,9.496-3.664,28.888-5.967c6.799-0.836,2.301-4.918-3.398-5.965C51.381,44.004,2,34.773,2,45.363z"/>
<path fill="#92C932" d="M8.298,36.781c0,0-7.797-0.21-5.498,2.616c0,0-2.499,2.197,1.699,4.29c4.199,2.096,6.298-3.557,6.298-3.557
	L8.298,36.781z"/>
<path fill="#92C932" d="M11.796,45.363c0,0-0.3,4.396,1.101,5.65c1.398,1.256,5.697-1.986,6.098,0.84
	c0.399,2.824,2.499,4.291,4.798,1.674c2.399-2.617,2.799-0.42,3.299,1.359c0.399,1.781,2.9,4.082,6.897,0
	c3.998-4.08,3.598,2.303,6.697-0.314c3.098-2.613,2.299,3.143,4.598-0.625c2-3.352,3.398,0,3.799-2.408c0.6-3.143,1.699-2.408,4.1,0
	c2.299,2.408,3.398,0.209,2.098-1.152c-1.299-1.359-0.199-4.186,2.799,0c3,4.186,3.4-1.57,0-3.768L11.796,45.363z"/>
<path fill="#F9B700" d="M3,47.457l0.699,0.838l0,0c3.199-1.047,17.694-4.922,30.689,9.316c0,0,11.594-12.039,26.59-10.469v-1.047
	C60.979,46.096,29.946,31.065,3,47.457z"/>
<path fill="#FFE12C" d="M3,47.457c0,0,16.693-7.013,31.389,9.105c0,0,11.594-12.037,26.59-10.467
	C55.529,32.36,6.598,24.632,3,47.457z"/>
<path fill="#E03636" d="M57.979,40.131c0-1.258,0.6-2.827-7.996-2.93c-8.598-0.107-16.395,5.232-16.395,5.232l12.195,2.301
	C53.781,45.783,57.979,42.434,57.979,40.131z"/>
<path fill="#E03636" d="M42.984,44.42c0-1.256,0.6-2.825-7.996-2.928c-8.597-0.105-28.391-4.5-28.391-4.5s0,14.336,21.293,12.453
	C38.486,48.504,42.984,47.248,42.984,44.42z"/>
<path fill="#F46C60" d="M22.292,50.281c-1.898,0-3.798-0.313-5.797-1.045C8.098,46.096,6.398,39.503,5.999,36.781l0.999-0.21
	c0.4,3.14,2.299,8.792,9.796,11.616c6.998,2.723,13.896-0.73,18.993-3.139c2.498-1.256,4.498-2.197,5.998-2.197
	c1.6,0,2.199,0.836,2.199,1.568c0,1.363-1.9,2.723-5.098,3.875c-2.699,0.941-7.697,1.986-16.194,1.986
	C22.592,50.281,22.393,50.281,22.292,50.281z M41.785,44.004c-1.299,0-3.299,0.939-5.598,2.092c-1.9,0.941-4.099,1.988-6.498,2.826
	c4.199-0.418,7.097-1.047,8.896-1.674c3.6-1.152,4.398-2.408,4.398-2.828C42.984,44.211,42.584,44.004,41.785,44.004z"/>
<ellipse fill="#F46C60" cx="23.792" cy="37.408" rx="20.192" ry="7.117"/>
<ellipse fill="#E03636" cx="23.792" cy="36.363" rx="20.192" ry="7.117"/>
<path fill="#F46C60" d="M48.082,45.887c-1.799,0-3.498-0.314-5.297-0.943l0,0l0,0l0.299-1.045v0.209l0.102-0.209l-0.301,0.836
	l0.301-0.836c0.1,0,1.598,0.627,3.396,0.627c1.701,0,3-0.521,3.9-1.465c2.098-2.197,5.098-4.605,6.697-4.605
	c0.799,0,1.299,0.523,1.299,1.465C58.479,42.326,53.98,45.887,48.082,45.887z M57.18,39.607c-1.1,0-3.799,1.987-5.998,4.291
	c-0.299,0.313-0.6,0.627-1,0.836c4.299-0.627,7.297-3.242,7.297-4.709C57.479,39.607,57.379,39.607,57.18,39.607z"/>
<path opacity="0.3" fill="#1A1626" d="M3.654,35.837c0,0-0.183,2.514,4.416,1.571c4.598-0.942,17.893,12.705,22.542,9.475
	c7.572-5.26,19.5-5.51,27.507-8.057C32.989,26.989,3.654,35.837,3.654,35.837z"/>
<path fill="#AB5C10" d="M2,28.198v5.339c0,1.674,1.399,3.244,5.998,2.301c4.598-0.941,16.194,10.152,21.692,8.896
	c5.498-1.361,9.496-3.662,28.888-5.965c2.5-0.314,3.398-1.047,3.398-1.885v-5.337L2,28.198z"/>
<path fill="#FFE8BB" d="M2,28.094c0,1.674,1.399,3.244,5.998,2.301c4.598-0.942,16.194,10.152,21.692,8.899
	c5.498-1.363,9.496-3.664,28.888-5.968c6.799-0.837,2.301-4.919-3.398-5.966c-3.799-0.627-13.494-2.722-14.494-5.131
	c-1-2.406-14.395-3.034-22.991-1.046C8.997,23.175,2,25.372,2,28.094z"/>
<path fill="#F5CFA0" d="M8.373,25.723c1,0,1,1.52,0,1.52S7.373,25.723,8.373,25.723z"/>
<path fill="#F5CFA0" d="M16.061,26.736c1.333,0,1.333,2.026,0,2.026C14.727,28.762,14.727,26.736,16.061,26.736z"/>
<path fill="#F5CFA0" d="M21.498,22.852c1,0,1,1.52,0,1.52S20.498,22.852,21.498,22.852z"/>
<path fill="#F5CFA0" d="M27.289,25.975c1,0,1,1.521,0,1.521S26.289,25.975,27.289,25.975z"/>
<path fill="#F5CFA0" d="M37.434,27.439c1,0,1,1.52,0,1.52S36.434,27.439,37.434,27.439z"/>
<path fill="#F5CFA0" d="M34.738,22.852c1,0,1,1.52,0,1.52S33.738,22.852,34.738,22.852z"/>
<path fill="#F5CFA0" d="M56.914,28.997c1,0,1,1.52,0,1.52S55.914,28.997,56.914,28.997z"/>
<path fill="#F5CFA0" d="M52.039,31.065c1,0,1,1.521,0,1.521S51.039,31.065,52.039,31.065z"/>
<path fill="#F5CFA0" d="M46.543,28.003c1,0,1,1.519,0,1.519S45.543,28.003,46.543,28.003z"/>
<path fill="#F5CFA0" d="M32.989,32.36c1.333,0,1.333,2.025,0,2.025C31.655,34.385,31.655,32.36,32.989,32.36z"/>
<path fill="#F5CFA0" d="M43.984,31.346c1.332,0,1.332,2.027,0,2.027C42.65,33.373,42.65,31.346,43.984,31.346z"/>
<path fill="#F5CFA0" d="M23.248,31.346c1.333,0,1.333,2.027,0,2.027C21.914,33.373,21.914,31.346,23.248,31.346z"/>
</svg>
