<?xml version="1.0" encoding="utf-8"?>
<!-- Generator: Adobe Illustrator 15.0.0, SVG Export Plug-In . SVG Version: 6.00 Build 0)  -->
<!DOCTYPE svg PUBLIC "-//W3C//DTD SVG 1.1//EN" "http://www.w3.org/Graphics/SVG/1.1/DTD/svg11.dtd">
<svg version="1.1" id="Layer_1" xmlns="http://www.w3.org/2000/svg" xmlns:xlink="http://www.w3.org/1999/xlink" x="0px" y="0px"
	 width="64px" height="64px" viewBox="0 0 64 64" enable-background="new 0 0 64 64" xml:space="preserve">
<path fill="#F5CFA0" d="M3.187,47.234c-2.154,2.051-1.143,13.397,1.166,13.907c16.787,3.711,18.746-5.835,30.192-5.474
	c9.102,0.287,17.092,5.483,24.928-3.168c1.41-1.559,4.994-14.39-0.172-20.072C53.271,25.798,6.13,44.432,3.187,47.234z"/>
<path fill="#FDE0DA" d="M53.635,27.787c-3.418-1.578-3.342-5.242-10.371-7.009c-4.229-1.06-10.602-6.379-16.055,1.313
	c-2.939,4.146-8.951,7.987-12.1,12.8c-4.416,6.75-9.125,8.186-12.252,12.813c-3.15,4.662,12.789,5.385,22.123-0.045
	c9.334-5.432,22.629-0.168,29.383-2.625C68.807,39.784,57.846,29.728,53.635,27.787z"/>
<path fill="#C21413" d="M52.904,28.022c-3.303-1.525-3.229-5.065-10.021-6.772c-4.086-1.023-10.244-6.163-15.512,1.269
	c-2.841,4.007-8.648,7.716-11.69,12.367c-4.267,6.521-8.816,7.908-11.837,12.379c-3.044,4.504,11.645,4.488,20.664-0.758
	c9.019-5.246,23.16-0.139,29.685-2.514C68.147,38.923,56.973,29.897,52.904,28.022z"/>
<path fill="#FDE0DA" d="M52.204,28.929c-3.215-1.482-2.998-4.001-9.608-5.662c-3.978-0.997,2.204,3.066,4.01,3.958
	c4.047,2-6.357,0.042-15.967,5.236c-4.842,2.616-8.668,4.297-14.232,4.851c-4.739,0.471,0,5.828,17.448-3.659
	c4.052-2.205,10.046-0.782,13.113-1.955c4.444-1.7,6.933,0.73,9.683,3.502C59.939,38.515,56.166,30.754,52.204,28.929z"/>
<path fill="#FDE0DA" d="M20.707,31.357c0.729-1.344-7.76,5.333,1.729,2.302C29.812,31.301,19.13,34.254,20.707,31.357z"/>
<path fill="#FDE0DA" d="M49.029,39.433c-0.375,3.876,6.25,3.501,5.406,5.497C61.813,42.572,50.112,42.725,49.029,39.433z"/>
<path fill="#FDE0DA" d="M32.769,18.871c-0.375,3.875,5.929,3.917-0.016,7.104C40.131,23.618,33.853,22.163,32.769,18.871z"/>
<path fill="#FDE0DA" d="M22.321,42.682c5.905,0.281,5.992-3.837,10.827,0.074C29.583,37.916,27.341,42.006,22.321,42.682z"/>
<path fill="#FDE0DA" d="M34.47,39.026c5.599,1.261,4.29,4.661,11.079,5.843C40.847,47.053,39.411,40.99,34.47,39.026z"/>
<path fill="#FDE0DA" d="M14.986,45.102c-4.703,3.291-2.833,4.582-6.332,6.361C14.236,51.102,11.158,48.791,14.986,45.102z"/>
<path fill="#FDE0DA" d="M27.471,27.326c-3.314,1.017-3.551-0.226-5.617,0.745C23.67,25.721,24.168,27.827,27.471,27.326z"/>
</svg>
