<?xml version="1.0" encoding="utf-8"?>
<!-- Generator: Adobe Illustrator 15.0.0, SVG Export Plug-In . SVG Version: 6.00 Build 0)  -->
<!DOCTYPE svg PUBLIC "-//W3C//DTD SVG 1.1//EN" "http://www.w3.org/Graphics/SVG/1.1/DTD/svg11.dtd">
<svg version="1.1" id="Layer_1" xmlns="http://www.w3.org/2000/svg" xmlns:xlink="http://www.w3.org/1999/xlink" x="0px" y="0px"
	 width="64px" height="64px" viewBox="0 0 64 64" enable-background="new 0 0 64 64" xml:space="preserve">
<path fill="#FED0AC" d="M29.902,7.641c-6.181-2.12-14.931,1.862-10.83,7.564C25.437,19.774,32.759,15.265,29.902,7.641z"/>
<path fill="#D6A57C" d="M18.362,13.956c1.891,5.734,10.286,4.005,8.894-5.783C23.128,9.69,20.773,17.228,18.362,13.956z"/>
<path fill="#FED0AC" d="M37.893,8.63c-3.77-2.421-15.665-3.656-12.483,7.563C30.865,22.334,38.778,17.286,37.893,8.63z"/>
<path fill="#D6A57C" d="M24.874,13.705c-4.017,8.34,11.319,6.318,11.319-4.63C30.795,10.732,26.045,17.878,24.874,13.705z"/>
<path fill="#FED0AC" d="M46.547,10.358c-2.623-2.068-13.591-5.635-14.107,5.896C35.729,23.434,44.641,18.888,46.547,10.358z"/>
<path fill="#D6A57C" d="M32.786,13.637c-5.437,7.369,10.06,8.143,12.698-2.812C39.064,13.029,31.846,16.379,32.786,13.637z"/>
<path fill="#FED0AC" d="M55.867,12.908c-1.988-2.417-12.557-6.588-15.631,4.646C41.867,25.138,52.098,20.97,55.867,12.908z"/>
<path fill="#D6A57C" d="M41.109,15.147c-7.163,7.701,10.393,8.538,12.895-2.343C48.382,14.133,39.846,17.936,41.109,15.147z"/>
<path fill="#FED0AC" d="M61.861,18.01c1.213-6.292-10.583-9.659-13.431,1.551C49.941,27.126,58.367,26.056,61.861,18.01z"/>
<path fill="#AB5C10" d="M2,38.437c0,0,53.462-17.449,53.984-15.425c0.523,2.026-4.184,20.721-5.171,22.287
	c-0.989,1.569-44.92,9.674-44.92,9.674L2,38.437z"/>
<path opacity="0.2" fill="#1A1626" d="M55.984,23.012c0.523,2.026-4.184,20.721-5.171,22.287c-0.989,1.569-44.92,9.674-44.92,9.674
	C36.318,38.912,46.576,46.388,55.984,23.012z"/>
<path fill="#D6A57C" d="M53.021,46.607C52.847,48.225,6.3,57,6.3,57l-0.406-2.027c28.343-5.376,41.069-8.365,44.251-9.738
	c1.807-0.779,1.627-12.47,5.723-21.948c0,0-14.323-1.006-6.775-5.723c-1.631,3.134,13.182,3.361,12.662-1.736
	C63.504,20.628,55.416,24.391,53.021,46.607z"/>
<path fill="#EA8800" d="M2,38.437l16.807-23.462c1.226,1.13,5.142-1.87,5.617,0.521c0.362,1.823,8.096-1.816,7.301-0.35
	c-1.1,2.031,9.567-0.834,7.934,0.968c-1.531,1.688,9.111,1.188,8.317,2.222c-1.271,1.653,7.339,2.361,7.892,4.95
	C36.561,33.304,2,38.437,2,38.437z"/>
<path fill="#F59E01" d="M2,38.437c0,0,27.486-6.896,53.867-15.15C35.937,34.154,2,38.437,2,38.437z"/>
<path opacity="0.2" fill="#1A1626" d="M34.628,41.106c0,2.452-2.124,2.452-2.124,0C32.504,38.827,34.628,38.827,34.628,41.106z"/>
<path opacity="0.2" fill="#1A1626" d="M18.816,40.7c0,2.453-2.123,2.453-2.123,0C16.693,38.423,18.816,38.423,18.816,40.7z"/>
<path opacity="0.2" fill="#1A1626" d="M11.376,47.713c0,1.777-1.538,1.777-1.538,0C9.838,46.064,11.376,46.064,11.376,47.713z"/>
<path opacity="0.2" fill="#1A1626" d="M25.844,41.49c0,1.729-1.497,1.729-1.497,0C24.347,39.885,25.844,39.885,25.844,41.49z"/>
<path opacity="0.2" fill="#1A1626" d="M44.811,33.039c0,2.452-2.123,2.452-2.123,0C42.688,30.762,44.811,30.762,44.811,33.039z"/>
<path opacity="0.2" fill="#1A1626" d="M41.738,38.04c0,1.665-1.445,1.665-1.445,0C40.293,36.489,41.738,36.489,41.738,38.04z"/>
<path opacity="0.2" fill="#1A1626" d="M49.676,31.743c0,1.747-1.514,1.747-1.514,0C48.162,30.121,49.676,30.121,49.676,31.743z"/>
</svg>
