<?xml version="1.0" encoding="utf-8"?>
<!-- Generator: Adobe Illustrator 15.0.0, SVG Export Plug-In . SVG Version: 6.00 Build 0)  -->
<!DOCTYPE svg PUBLIC "-//W3C//DTD SVG 1.1//EN" "http://www.w3.org/Graphics/SVG/1.1/DTD/svg11.dtd">
<svg version="1.1" id="Layer_1" xmlns="http://www.w3.org/2000/svg" xmlns:xlink="http://www.w3.org/1999/xlink" x="0px" y="0px"
	 width="64px" height="64px" viewBox="0 0 64 64" enable-background="new 0 0 64 64" xml:space="preserve">
<path fill="#E6EBEF" d="M62,12.889L42.992,36.464L32.786,25.075c0,0,10.706-11.287,19.409-23.075L62,12.889z"/>
<path fill="#CFD8DD" d="M49.338,28.594l-6.346,7.87L32.786,25.075l6.304-6.977C39.09,18.099,44.998,21.618,49.338,28.594z"/>
<path fill="#FBB855" d="M28.085,40.661c0,0,12.704,10.787,20.81,12.785c8.104,1.998,3.301-16.883-1-24.574
	c-2.604-4.595-11.707-17.481-28.114-17.481c-16.405,0-26.91,25.173-6.603,44.255c10.405,9.788,13.207,5.892,14.506,3.795
	C28.985,57.343,31.186,50.449,28.085,40.661z"/>
<path fill="#FFC36B" d="M28.085,40.661l-4.284-21.429c14.068-1.134,11.113,24.407,20.715,32.563
	c1.535,0.735,3.021,1.316,4.379,1.651c8.104,1.998,3.301-16.883-1-24.574c-2.604-4.595-10.775-15.37-25.447-15.37
	c-9.172,0-6.541,12.059,0.332,21.894c6.483,9.277,3.605,26.142,4.904,24.045C28.985,57.343,31.186,50.449,28.085,40.661z"/>
<path fill="#D47706" d="M2.455,27.542C0.52,47.195,21.982,60.938,24.183,60.64C30.01,58.205,2,47.195,2.455,27.542z"/>
<path fill="#AB5C10" d="M24.98,59.729C25,57.348,15.305,51.989,8.627,43.64C15.954,53.304,24.979,60.108,24.98,59.729z"/>
<path fill="#D99025" d="M29.35,26.306c3.105-7.225-6.068-8.616-6.068-6.824c0,8.591,4.804,21.18,4.804,21.18
	s4.327,3.813,8.653,6.534C36.738,47.195,24.034,38.668,29.35,26.306z"/>
</svg>
