<?xml version="1.0" encoding="utf-8"?>
<!-- Generator: Adobe Illustrator 15.0.0, SVG Export Plug-In . SVG Version: 6.00 Build 0)  -->
<!DOCTYPE svg PUBLIC "-//W3C//DTD SVG 1.1//EN" "http://www.w3.org/Graphics/SVG/1.1/DTD/svg11.dtd">
<svg version="1.1" id="Layer_1" xmlns="http://www.w3.org/2000/svg" xmlns:xlink="http://www.w3.org/1999/xlink" x="0px" y="0px"
	 width="64px" height="64px" viewBox="0 0 64 64" enable-background="new 0 0 64 64" xml:space="preserve">
<path fill="#D47706" d="M46.839,60c-0.084,0-0.166,0-0.25-0.004c-2.397-0.126-4.23-2.074-4.096-4.342
	c0.081-1.346-0.258-2.673-0.892-3.996c-6.316,2.402-13.193,2.494-19.648,0.023c-2.974-1.139-5.631-2.749-7.912-4.741
	c-1.474,1.342-2.796,2.898-3.894,4.767c-1.167,1.985-3.814,2.7-5.913,1.596c-2.098-1.104-2.853-3.613-1.686-5.6
	c1.733-2.95,3.838-5.317,6.121-7.278c-2.61-4.488-3.937-9.822-3.668-15.506c0.622-13.17,7.152-17.953,10.99-19.634
	c5.199-2.276,11.424-1.491,16.247,2.056c0.869,0.634,1.667,1.339,2.392,2.096c6.896-4.618,15.301-4.28,21.361,1.174
	c7.625,6.862,9.219,20.375-2.488,32.924c-1.375,1.475-2.84,2.794-4.376,3.95c1.401,2.613,2.237,5.465,2.048,8.633
	C51.044,58.31,49.127,60,46.839,60z M21.444,42.076c1.147,0.787,2.407,1.452,3.768,1.969c3.554,1.364,7.335,1.536,10.979,0.622
	c-0.576-0.603-1.168-1.204-1.765-1.814c-1.529-1.561-3.077-3.139-4.486-4.787c-1.317,0.668-2.683,1.291-4.039,1.907
	C24.414,40.65,22.914,41.336,21.444,42.076z M36.879,33.082c1.11,1.279,2.431,2.65,3.919,4.167c1.099,1.119,2.229,2.275,3.319,3.471
	c1.001-0.783,1.96-1.662,2.87-2.636c8.062-8.641,7.618-17.358,3.014-21.504c-2.539-2.286-6.717-3.351-11.107,0.127
	c1.074,3.405,1.269,7.245,0.49,11.237C38.988,29.983,38.1,31.656,36.879,33.082z M22.233,12.223c-0.895,0-1.772,0.176-2.593,0.533
	c-3.479,1.523-5.648,6.092-5.952,12.53c-0.18,3.818,0.569,7.344,2.103,10.341c2.173-1.174,4.332-2.158,6.34-3.073
	c1.216-0.555,2.322-1.062,3.306-1.546c-0.169-0.431-0.321-0.868-0.452-1.313c-1.454-4.896-0.315-9.648,3.479-14.417
	c-0.462-0.532-0.982-1.014-1.557-1.437C25.451,12.773,23.816,12.223,22.233,12.223z"/>
<path fill="#AB5C10" d="M14.485,36.355c0.486-0.236,1.306-0.729,1.306-0.729c-5.388-15.85,2.312-24.813,8.368-23.134
	C17.642,8.687,7.283,19.304,14.485,36.355z"/>
<path fill="#AB5C10" d="M55.991,10.61c-1.694-1.522-3.572-2.646-5.547-3.376c17.958,9.145,7.639,31.152-2.9,38.5
	c0.336,0.738,0.6,1.503,0.865,2.269c1.797-1.278,3.508-2.766,5.094-4.469C65.21,30.985,63.616,17.473,55.991,10.61z"/>
<path fill="#AB5C10" d="M40.628,49.957c-3.688,1.665-7.375,2.427-11.313,2.427c-3.278,0-6.571-0.593-9.762-1.815
	c-0.184-0.073-0.363-0.149-0.544-0.223c0.943,0.501,1.925,0.944,2.945,1.336c3.19,1.22,6.483,1.814,9.761,1.814
	c3.441,0,6.62-0.557,9.887-1.838C41.199,50.729,40.628,49.957,40.628,49.957z"/>
<path fill="#AB5C10" d="M29.838,6.225c0.867,0.639,1.666,1.343,2.392,2.102c0.228-0.153,0.456-0.301,0.687-0.441
	c-0.225-0.184-0.442-0.372-0.678-0.544c-1.307-0.962-2.719-1.713-4.183-2.26C28.667,5.424,29.263,5.803,29.838,6.225z"/>
<path fill="#AB5C10" d="M46.667,43.644c-1.43-1.859-4.937-5.607-5.836-6.522c-4.504-4.594-9.92-10.271-9.702-14.897
	c-1.667,4.445,1.574,8.105,7.269,13.913c5.083,5.185,10.843,11.063,10.377,18.868c-0.131,2.191-2.048,3.883-4.337,3.883
	c-0.083,0-0.166,0-0.25-0.007c-0.125-0.004-0.249-0.019-0.371-0.035c0.723,0.662,1.688,1.094,2.771,1.15
	C46.673,60,46.756,60,46.839,60c2.288,0,4.205-1.69,4.336-3.883C51.462,51.324,49.462,47.282,46.667,43.644z"/>
<path fill="#AB5C10" d="M38.495,17.039c2.94-2.508,5.805-2.949,8.169-2.304c-2.352-1.595-5.676-2.122-9.209,0.175
	C37.885,15.577,38.255,16.292,38.495,17.039z"/>
<path fill="#AB5C10" d="M28.592,36.403c-1.68,0.915-3.313,1.647-5.091,2.457c-5.948,2.713-12.099,5.513-15.753,11.733
	c-0.795,1.353-2.277,2.118-3.803,2.118c-0.204,0-0.408-0.019-0.612-0.046c0.266,0.244,0.564,0.458,0.902,0.637
	c0.669,0.354,1.395,0.521,2.11,0.521c1.527,0,3.008-0.766,3.803-2.117c3.654-6.219,9.805-9.021,15.753-11.734
	c1.481-0.675,2.611-1.167,4.039-1.907C29.469,37.486,28.592,36.403,28.592,36.403z"/>
<path fill="#AB5C10" d="M32.239,7.341c-1.307-0.962-2.718-1.709-4.182-2.26c0.611,0.343,1.207,0.722,1.782,1.144
	c6.112,4.493,8.783,12.196,7.146,20.608c-0.354,1.823-1.103,3.354-2.13,4.678c0.591,0.634,1.071,1.353,1.624,2.016
	c1.425-1.52,2.468-3.328,2.905-5.582C41.021,19.533,38.35,11.828,32.239,7.341z"/>
<path fill="#F59E01" d="M19.38,5.081C7.882,9.258,4.927,18.636,6.765,30.901C6.803,20.598,8.736,10.499,19.38,5.081z"/>
<path fill="#F59E01" d="M48.919,14.234c10.695,5.806,8.113,17.586-1.676,25.235C54.651,31.051,58.386,21.309,48.919,14.234z"/>
<path fill="#F59E01" d="M25.042,32.247C13.886,35.663-0.067,46.386,3.333,51.728C2.213,46.331,14.153,37.344,25.042,32.247z"/>
<path fill="#F59E01" d="M28.406,16.117c-5.748,9.677-3.063,16.801,7.955,27.166C28.056,32.918,24.126,26.286,28.406,16.117z"/>
<path fill="#FFFFFF" d="M55.579,13.362c0,1.082-1.596,1.082-1.596,0S55.579,12.28,55.579,13.362z"/>
<path fill="#FFFFFF" d="M57.175,30.062c0,1.082-1.596,1.082-1.596,0S57.175,28.979,57.175,30.062z"/>
<path fill="#FFFFFF" d="M32.184,36.667c0,1.082-1.596,1.082-1.596,0S32.184,35.585,32.184,36.667z"/>
<path fill="#FFFFFF" d="M33.911,11.485c0,1.082-1.596,1.082-1.596,0C32.315,10.401,33.911,10.401,33.911,11.485z"/>
<path fill="#FFFFFF" d="M10.4,14.174c0,1.082-1.596,1.082-1.596,0S10.4,13.092,10.4,14.174z"/>
<path fill="#FFFFFF" d="M33.282,51.239c0,1.082-1.596,1.082-1.596,0S33.282,50.157,33.282,51.239z"/>
<path fill="#FFFFFF" d="M10.044,34.837c0,1.082-1.596,1.082-1.596,0S10.044,33.755,10.044,34.837z"/>
<path fill="#FFFFFF" d="M8.805,44.231c0,1.082-1.596,1.082-1.596,0S8.805,43.149,8.805,44.231z"/>
<path fill="#FFFFFF" d="M28.056,20.582c0,1.082-1.596,1.082-1.596,0C26.46,19.498,28.056,19.498,28.056,20.582z"/>
<path fill="#FFFFFF" d="M43.197,8.189c0,1.082-1.596,1.082-1.596,0S43.197,7.107,43.197,8.189z"/>
<path fill="#FFFFFF" d="M49.14,54.571c0,1.082-1.596,1.082-1.596,0S49.14,53.489,49.14,54.571z"/>
<path fill="#FFFFFF" d="M40.874,39.97c0,1.082-1.596,1.082-1.596,0S40.874,38.888,40.874,39.97z"/>
<path fill="#FFFFFF" d="M56.907,21.934c0,1.803-2.658,1.803-2.658,0S56.907,20.131,56.907,21.934z"/>
<path fill="#FFFFFF" d="M54.78,35.649c0,1.803-2.658,1.803-2.658,0C52.122,33.845,54.78,33.845,54.78,35.649z"/>
<path fill="#FFFFFF" d="M44.769,45.679c0,1.805-2.658,1.805-2.658,0C42.11,43.876,44.769,43.876,44.769,45.679z"/>
<path fill="#FFFFFF" d="M28.587,32.265c0,1.805-2.658,1.805-2.658,0C25.929,30.462,28.587,30.462,28.587,32.265z"/>
<path fill="#FFFFFF" d="M37.286,18.325c1.152,1.369-0.867,3.131-2.02,1.76C34.112,18.716,36.132,16.956,37.286,18.325z"/>
<path fill="#FFFFFF" d="M17.753,6.354c1.154,1.371-0.865,3.131-2.02,1.76C14.582,6.744,16.601,4.984,17.753,6.354z"/>
<path fill="#FFFFFF" d="M11.609,26.064c1.154,1.371-0.865,3.131-2.02,1.762C8.438,26.455,10.457,24.695,11.609,26.064z"/>
<path fill="#FFFFFF" d="M18.664,40.466c1.154,1.369-0.865,3.129-2.02,1.76C15.492,40.854,17.511,39.095,18.664,40.466z"/>
<path fill="#FFFFFF" d="M26.592,47.165c1.152,1.369-0.867,3.129-2.02,1.76C23.418,47.556,25.438,45.794,26.592,47.165z"/>
</svg>
