<?xml version="1.0" encoding="utf-8"?>
<!-- Generator: Adobe Illustrator 15.0.0, SVG Export Plug-In . SVG Version: 6.00 Build 0)  -->
<!DOCTYPE svg PUBLIC "-//W3C//DTD SVG 1.1//EN" "http://www.w3.org/Graphics/SVG/1.1/DTD/svg11.dtd">
<svg version="1.1" id="Layer_1" xmlns="http://www.w3.org/2000/svg" xmlns:xlink="http://www.w3.org/1999/xlink" x="0px" y="0px"
	 width="64px" height="64px" viewBox="0 0 64 64" enable-background="new 0 0 64 64" xml:space="preserve">
<path fill="#6E8189" d="M12.68,19.576l14.48,20.223l29.301-17.111L59,14.285l-5.334-2.332l-8.605,4.256l-7.992-8.523h-9.484
	L12.68,19.576z M29.604,9.771h5.75v1.166h-5.75V9.771z"/>
<polygon fill="#E81C27" points="32.846,19.965 24.281,5.885 22.08,7.285 31.611,21.441 "/>
<path fill="#302C3B" d="M24.725,6.615c-0.443-0.73-0.586-0.73-2.307-4.074c-0.703-1.367-3.717,0.141-2.795,1.4
	c2.457,3.344,2.457,3.344,2.904,4.021C22.867,8.482,25.045,7.145,24.725,6.615z"/>
<polygon fill="#E81C27" points="27.463,23.051 14.955,11.732 13.268,13.643 26.729,24.785 "/>
<path fill="#302C3B" d="M15.602,12.318C14.955,11.732,14.818,11.77,12.146,9c-1.09-1.131-3.523,1.09-2.256,2.063
	c3.377,2.58,3.377,2.58,4.014,3.115C14.389,14.588,16.072,12.744,15.602,12.318z"/>
<polygon fill="#CFD8DD" points="55.359,27.406 58.221,21.807 56.262,18.488 52.649,18.488 49.602,15.998 49.602,13.404 
	47.455,11.953 45.084,11.953 40.568,14.961 43.617,16.828 42.826,18.592 32.846,18.902 26.002,22.117 23.293,29.377 23.293,34.873 
	"/>
<polygon fill="#99A8AE" points="23.293,29.377 16.631,19.109 11.324,15.998 5,14.131 5.904,16.828 13.582,25.021 23.293,34.873 "/>
<polygon fill="#E6EBEF" points="55.359,27.406 50.842,59.973 26.566,62 23.293,29.377 "/>
<polygon fill="#BEC3CF" points="16.969,54.164 26.566,62 23.293,29.377 13.582,25.021 "/>
<polygon fill="#E81C27" points="51.149,57.751 50.842,59.973 26.566,62 26.333,59.674 "/>
<polygon fill="#B00505" points="16.969,54.164 26.566,62 26.333,59.674 16.715,51.984 "/>
<path fill="#E81C27" d="M33.677,46.811c0.141,0.354,0.283,0.701,0.582,1.137l-1.463,1.309l-0.918-0.744l-2.459,2.469l4.559,3.867
	l2.256-2.621l-0.889-0.721l1.295-1.373c0.445,0.23,0.9,0.33,1.354,0.426l-0.072,1.449l-1.227,0.184l0.129,3.658l5.828-0.641
	l0.063-3.408l-1.193,0.18l0.07-1.17c0.607-0.219,1.221-0.568,1.836-0.918l0.695,0.637l-0.938,0.848l2.48,2.225l3.9-4.162
	l-2.43-2.279L46.2,48.006l-0.83-0.727c0.328-0.502,0.664-1.139,0.855-1.717l1.324-0.084l-0.088,1.18l3.35-0.309l0.334-5.883
	l-3.396,0.262l-0.088,1.211l-1.49,0.127c-0.125-0.355-0.25-0.703-0.52-1.141l1.434-1.291l0.836,0.768l2.395-2.406l-4.18-4.25
	l-2.453,2.465l0.869,0.799l-1.309,1.393c-0.445-0.258-0.896-0.377-1.352-0.494l0.088-1.539l1.096-0.229l0.07-3.758l-6.172,0.32
	l-0.018,3.814l1.275-0.145l-0.07,1.414c-0.641,0.213-1.289,0.566-1.936,0.924l-0.764-0.715l0.992-0.891L33.509,34.4l-4.234,4.523
	l3.006,2.639l0.994-0.893l0.777,0.57c-0.344,0.67-0.529,1.277-0.711,1.891l-1.604,0.135l0.043-1.256l-3.744,0.289l0.008,6.201
	l3.686-0.342l0.043-1.227L33.677,46.811z M35.481,48.441l-0.291-0.424c-0.289-0.566-0.578-1.131-0.709-1.756L34.356,45.5
	l-3.664,0.314l-0.037,1.236l-1.289,0.174l-0.059-3.686l1.301-0.164l-0.037,1.252l3.836-0.363l0.01-0.273
	c0.189-0.746,0.531-1.408,1.037-2.127l0.178-0.473l-2.938-2.475l-0.842,0.979l-0.627-0.633l3.027-3.113l0.619,0.643l-0.844,0.98
	l2.76,2.404l0.328-0.246c0.652-0.494,1.449-0.764,2.242-1.031l0.16-0.055l0.197-3.797l-1.268,0.137l0.055-1.139l3.783-0.266
	l-0.066,1.133l-1.252,0.137l-0.051,3.734l0.762,0.148c0.758,0.15,1.357,0.35,1.947,0.689l0.291,0.164l2.283-2.523l-0.852-0.791
	l1.141-1.197l2.373,2.422l-1.127,1.188l-0.84-0.779l-2.41,2.293l0.271,0.439c0.273,0.438,0.676,1.09,0.785,1.711l0.1,0.754
	l3.258-0.236l0.092-1.197l1.182-0.15l-0.262,3.309l-1.172,0.158l0.09-1.186l-3.406,0.289l-0.018,0.268
	c-0.205,0.854-0.695,1.543-1.035,2.178l-0.32,0.373l2.641,2.248l0.791-0.92l0.377,0.744l-2.814,2.91l-0.549-0.555l0.793-0.92
	l-2.498-2.412l-0.313,0.24c-0.627,0.48-1.391,0.754-2.156,1.029l-0.156,0.055l-0.049,3.602l1.199-0.184l-0.059,1.029l-3.609,0.436
	l0.051-1.041l1.217-0.182l0.033-3.482l-0.754-0.123c-0.609-0.045-1.213-0.223-1.813-0.535l-0.451-0.232l-2.277,2.518l0.898,0.721
	l-1.127,1.189l-2.428-2.021l1.143-1.201l0.912,0.734L35.481,48.441z"/>
<path fill="#E81C27" d="M41.798,42.123c-1.064-0.037-2,0.15-3.086,0.258c-0.617-0.063-1.186-1.225-0.563-1.166
	c1.088,0.039,2.025-0.148,3.105-0.25C41.87,40.889,42.411,42.041,41.798,42.123z"/>
<path fill="#E81C27" d="M36.491,46.627c2.021-0.307,4.162-0.4,6.141-0.703c0.605-0.084,1.129,1.027,0.531,1.111
	c-1.969,0.307-4.098,0.406-6.105,0.721C36.437,47.842,35.87,46.713,36.491,46.627z"/>
<path fill="#E81C27" d="M42.411,44.557c-1.52,0.137-3.055,0.275-4.602,0.414c-0.625,0.08-1.193-1.063-0.566-1.145
	c1.557-0.137,3.1-0.27,4.633-0.4C42.485,43.344,43.019,44.477,42.411,44.557z"/>
</svg>
