<?xml version="1.0" encoding="utf-8"?>
<!-- Generator: Adobe Illustrator 15.0.0, SVG Export Plug-In . SVG Version: 6.00 Build 0)  -->
<!DOCTYPE svg PUBLIC "-//W3C//DTD SVG 1.1//EN" "http://www.w3.org/Graphics/SVG/1.1/DTD/svg11.dtd">
<svg version="1.1" id="Layer_1" xmlns="http://www.w3.org/2000/svg" xmlns:xlink="http://www.w3.org/1999/xlink" x="0px" y="0px"
	 width="64px" height="64px" viewBox="0 0 64 64" enable-background="new 0 0 64 64" xml:space="preserve">
<path fill="#B00505" d="M45.297,54.91H14.771c0,0,0.398,2.793,4.477,5.057C20.754,60.801,24.34,62,30.035,62
	s9.283-1.199,10.789-2.033C44.898,57.703,45.297,54.91,45.297,54.91z"/>
<path fill="#E81C27" d="M58.07,33.977H2c0,0,0.73,7.662,8.217,17.229c2.77,3.539,9.359,8.617,19.818,8.617
	c10.467,0,17.055-5.078,19.818-8.617C57.342,41.639,58.07,33.977,58.07,33.977z"/>
<ellipse fill="#E81C27" cx="30.035" cy="34.031" rx="28.033" ry="5.308"/>
<path fill="#B00505" d="M52.586,36.418c1.568-0.619,2.447-1.313,2.447-2.045c0-2.613-11.193-4.733-25-4.733s-25,2.12-25,4.733
	c0,0.732,0.879,1.426,2.447,2.045C11.511,34.828,48.556,34.828,52.586,36.418z"/>
<path fill="#FFE8BB" d="M52.586,36.418c-4.03-1.59-12.613-2.689-22.553-2.689s-18.522,1.1-22.553,2.689
	c4.03,1.59,12.613,2.689,22.553,2.689S48.556,38.008,52.586,36.418z"/>
<path opacity="0.7" fill="#FFFFFF" d="M49.033,36.422c-6.049-2.383-32.082-2.33-38,0C17.309,38.895,42.669,38.93,49.033,36.422z"/>
<path fill="#CFD8DD" d="M61.59,8.381c2.98,5.135-13.725,20.938-22.469,28.251h-4.666C43.365,27.9,57.654,4.968,61.59,8.381z"/>
<path fill="#BEC3CF" d="M61.59,8.381c3.115,4.216-12.203,21.048-22.424,28.251H38.6C45.693,30.534,64.504,13.835,61.59,8.381z"/>
<path fill="#E6EBEF" d="M34.455,36.633C38.961,31.417,57.686,4.5,61.59,8.381C58.385,5.228,39.762,32.506,34.455,36.633z"/>
<path fill="#FFE8BB" d="M27.184,35.566c3.77,2.16,15.895,1.84,17.803,0C42.203,36.441,31.811,36.717,27.184,35.566z"/>
</svg>
