<?xml version="1.0" encoding="utf-8"?>
<!-- Generator: Adobe Illustrator 15.0.0, SVG Export Plug-In . SVG Version: 6.00 Build 0)  -->
<!DOCTYPE svg PUBLIC "-//W3C//DTD SVG 1.1//EN" "http://www.w3.org/Graphics/SVG/1.1/DTD/svg11.dtd">
<svg version="1.1" id="Layer_1" xmlns="http://www.w3.org/2000/svg" xmlns:xlink="http://www.w3.org/1999/xlink" x="0px" y="0px"
	 width="64px" height="64px" viewBox="0 0 64 64" enable-background="new 0 0 64 64" xml:space="preserve">
<path fill="#785647" d="M56.493,15.853c0,0-49.485,22.124-54.254,17.218C5.943,57.75,29.414,59.789,29.414,59.789
	C68.669,56.658,56.493,15.853,56.493,15.853z"/>
<path fill="#594640" d="M59.521,15.977c-0.471-1.452-2.053-5.082-4.091-6.62c0,2.595,0.778,8.907-1.609,11.793
	c3.79,14.714-2.943,30.292-16.412,36.352c-2.665,1.152-5.19,1.854-7.995,2.287c5.048,0.577,10.099,0.022,14.869-2.287
	C59.294,50.724,66.031,36.104,59.521,15.977z"/>
<path fill="#45332C" d="M57.049,11.918C53.93,3.667,39.322,1.144,23.656,7.818C9.437,13.875-0.312,24.096,2.477,34.133
	c2.105,7.934,19.195,11.091,34.918,3.585C52.651,30.433,59.775,19.318,57.049,11.918z"/>
<path fill="#594640" d="M50.886,29.601c0,0,3.086,6.059-2.385,13.992C48.501,43.593,49.905,37.535,50.886,29.601z"/>
<path fill="#594640" d="M42.88,35.719c0,0,2.807,3.607,0.141,9.376C43.021,45.095,43.16,41.056,42.88,35.719z"/>
<path fill="#594640" d="M45.726,38.17c0,0,2.104,4.04-1.541,9.231C44.042,47.545,45.025,43.509,45.726,38.17z"/>
<path fill="#594640" d="M51.774,40.406c0,0,0.561,4.475-4.488,8.224C47.286,48.63,49.39,45.313,51.774,40.406z"/>
<path fill="#594640" d="M18.81,53.762c0,0-4.348-0.722-6.312-6.781C12.498,46.836,15.025,50.01,18.81,53.762z"/>
<path fill="#594640" d="M20.891,49.86c0,0-4.348-0.721-6.314-6.779C14.577,43.081,17.103,46.109,20.891,49.86z"/>
<path fill="#594640" d="M39.792,43.46c0,0,2.104,4.04-1.543,9.233C38.249,52.693,39.231,48.796,39.792,43.46z"/>
<path fill="#594640" d="M35.861,39.479c0,0,2.104,4.041-1.543,9.234C34.178,48.855,35.161,44.817,35.861,39.479z"/>
<path fill="#594640" d="M31.796,47.403c0,0,2.105,4.039-1.543,9.234C30.253,56.638,31.237,52.742,31.796,47.403z"/>
<path fill="#FFFFFF" d="M4.441,31.827c2.667,7.068,16.555,10.673,30.724,3.604C48.491,28.94,56.77,18.7,54.103,11.628
	c-2.666-7.068-15.994-8.221-29.74-2.74C10.615,14.371,1.777,24.757,4.441,31.827z"/>
<path fill="#E6EBEF" d="M28.213,13.987l-0.927-6.169c-3.054,0.873-5.967,2.4-5.967,2.4l2.975,5.635
	C25.137,15.276,27.792,14.275,28.213,13.987z"/>
<path fill="#E6EBEF" d="M12.973,23.942l-7.972,0.776c-1.234,2.444-1.732,6.173,0.344,8.811l6.944-3.718
	C12.008,29.379,11.852,25.383,12.973,23.942z"/>
<path fill="#E6EBEF" d="M14.758,31.613l-4.976,5.548c2.259,1.251,6.183,2.245,9.971,2.101l0.962-6.76
	C18.191,32.646,16.439,32.333,14.758,31.613z"/>
<path fill="#E6EBEF" d="M46.872,19.048l5.186,2.734c4.008-5.499,3.212-11.037-0.654-13.607l-5.857,4.604
	C45.97,13.214,47.855,17.175,46.872,19.048z"/>
<path fill="#CFD8DD" d="M11.035,28.508c1.826,4.905,9.54,6.345,21.465,1.442c9.96-4.041,18.097-11.687,14.589-16.159
	c-3.227-3.893-10.521-6.489-20.34,0C17.768,19.708,9.21,23.747,11.035,28.508z"/>
<path fill="#BEC3CF" d="M26.749,22.017c-5.474,3.605-10.822,6.487-13.627,9.225c3.367,2.599,10.434,2.723,19.693-1.028
	c5.752-2.308,10.464-5.981,13.129-9.443C42.296,17.453,35.585,16.101,26.749,22.017z"/>
</svg>
