<?xml version="1.0" encoding="utf-8"?>
<!-- Generator: Adobe Illustrator 15.0.0, SVG Export Plug-In . SVG Version: 6.00 Build 0)  -->
<!DOCTYPE svg PUBLIC "-//W3C//DTD SVG 1.1//EN" "http://www.w3.org/Graphics/SVG/1.1/DTD/svg11.dtd">
<svg version="1.1" id="Layer_1" xmlns="http://www.w3.org/2000/svg" xmlns:xlink="http://www.w3.org/1999/xlink" x="0px" y="0px"
	 width="64px" height="64px" viewBox="0 0 64 64" enable-background="new 0 0 64 64" xml:space="preserve">
<path fill="#99A8AE" d="M52,55.588C52,59.131,45.074,62,32.004,62c-13.069,0-19.996-2.869-19.996-6.412
	C12.008,52.05,52,52.05,52,55.588z"/>
<path fill="#E6EBEF" d="M32.004,49.63C43.047,49.63,52,52.287,52,55.563c0,3.281-8.953,5.938-19.996,5.938
	c-11.042,0-19.996-2.657-19.996-5.938C12.008,52.287,20.962,49.63,32.004,49.63z"/>
<path fill="#529320" d="M12.389,7.763v46.602c0,3.562,6.793,6.447,19.615,6.447s19.616-2.886,19.616-6.447V7.763H12.389z"/>
<path fill="#7AB51D" d="M32.004,24.798c-12.822,0-19.615-2.886-19.615-6.447v22.708c0,3.562,6.793,6.446,19.615,6.446
	S51.62,44.62,51.62,41.059V18.351C51.62,21.912,44.826,24.798,32.004,24.798z"/>
<ellipse fill="#92C932" cx="32.004" cy="36.308" rx="14.813" ry="13.237"/>
<ellipse fill="#7AB51D" cx="32.005" cy="36.308" rx="13.269" ry="11.857"/>
<path opacity="0.5" fill="#297124" d="M12.389,7.763v3.8c1.188-2.159,4.926,1.748,19.053,1.748c15.809,0,16.342-3.199,16.342,1.642
	v43.514c2.537-1.115,3.837-2.543,3.837-4.102V7.763H12.389z"/>
<path opacity="0.3" fill="#E5EFCD" d="M14.669,57.632c1.837,1.175,4.765,2.113,8.757,2.656V7.763h-8.757V57.632z"/>
<path fill="#99A8AE" d="M51.992,7.335c0,3.172-6.926,5.741-19.995,5.741C18.927,13.076,12,10.507,12,7.335
	C12,4.167,51.992,4.167,51.992,7.335z"/>
<path fill="#E6EBEF" d="M31.997,2c11.042,0,19.995,2.379,19.995,5.313c0,2.938-8.953,5.317-19.995,5.317
	C20.954,12.631,12,10.252,12,7.313C12,4.379,20.954,2,31.997,2z"/>
<ellipse fill="#99A8AE" cx="31.997" cy="7.167" rx="18.958" ry="4.841"/>
<path fill="#CFD8DD" d="M15.607,9.6c-0.055-0.148,32.833-0.148,32.777,0c0.794-0.348,1.422-0.724,1.858-1.119
	c-0.844-2.466-8.69-4.398-18.246-4.398c-9.558,0-17.403,1.933-18.247,4.398C14.188,8.876,14.814,9.252,15.607,9.6z"/>
<path fill="#99A8AE" d="M31.997,4.704c-9.097,0-16.473,1.99-16.473,4.443c0,0.152,0.028,0.304,0.083,0.452
	c0.182,0.079,0.369,0.157,0.566,0.233c-0.076-0.17,31.722-0.17,31.646,0c0.196-0.076,0.385-0.154,0.564-0.233
	c0.056-0.148,0.084-0.3,0.084-0.452C48.469,6.694,41.094,4.704,31.997,4.704z"/>
<path fill="#CFD8DD" d="M47.82,9.833c0.075-0.17,0.126-0.341,0.126-0.516c0-2.36-7.143-4.273-15.949-4.273
	c-8.808,0-15.95,1.913-15.95,4.273c0,0.175,0.051,0.346,0.127,0.516c3.394,1.311,9.211,2.175,15.823,2.175
	C38.608,12.008,44.427,11.144,47.82,9.833z"/>
</svg>
