<?xml version="1.0" encoding="utf-8"?>
<!-- Generator: Adobe Illustrator 15.0.0, SVG Export Plug-In . SVG Version: 6.00 Build 0)  -->
<!DOCTYPE svg PUBLIC "-//W3C//DTD SVG 1.1//EN" "http://www.w3.org/Graphics/SVG/1.1/DTD/svg11.dtd">
<svg version="1.1" id="Layer_1" xmlns="http://www.w3.org/2000/svg" xmlns:xlink="http://www.w3.org/1999/xlink" x="0px" y="0px"
	 width="64px" height="64px" viewBox="0 0 64 64" enable-background="new 0 0 64 64" xml:space="preserve">
<path fill="#E81C27" d="M40.615,59.035c-0.334,3.953-21.865,3.953-22.197,0c-2.959-35.199-2.959-35.199-2.959-35.199h28.115
	C43.574,23.836,43.574,23.836,40.615,59.035z"/>
<path fill="#B00505" d="M40.615,59.035c-0.102,1.209-2.184,2.047-5.035,2.518l1.83-33.266c0,0-16.834,1.174-21.721-1.691
	l-0.131-1.371l22.098-1.389h5.918C43.574,23.836,43.574,23.836,40.615,59.035z"/>
<path fill="#99A8AE" d="M45,25.372c0,1.402-6.938,2.539-15.5,2.539c-8.557,0-15.5-1.137-15.5-2.539c0-1.4,6.943-2.535,15.5-2.535
	C38.062,22.837,45,23.972,45,25.372z"/>
<path fill="#BEC3CF" d="M44.699,24.811c0,1.402-6.797,2.539-15.184,2.539c-8.384,0-15.181-1.137-15.181-2.539l0.275-2.412h29.781
	L44.699,24.811z"/>
<path fill="#E6EBEF" d="M44.391,22.398c0,1.402-6.666,2.539-14.891,2.539c-8.22,0-14.89-1.137-14.89-2.539
	c0-1.4,6.67-2.535,14.89-2.535C37.725,19.863,44.391,20.998,44.391,22.398z"/>
<path fill="#BEC3CF" d="M36.58,21.91c0,0.727-3.137,1.316-7,1.316c-3.867,0-7-0.59-7-1.316l0.129-1.732h13.729L36.58,21.91z"/>
<ellipse fill="#E6EBEF" cx="29.573" cy="20.178" rx="6.865" ry="1.316"/>
<path fill="#E6EBEF" d="M49.709,4.061c0,0-10.441-1.388-15.1-2.054c-0.312-0.045-0.796,0.126-0.994,0.904l-5.081,17.082h2.18
	l4.778-16.117l13.883,2.098C49.939,6.077,50.273,4.158,49.709,4.061z"/>
<polygon fill="#E81C27" points="31.779,9.091 33.585,10.296 34.395,7.569 32.588,6.364 "/>
<polygon fill="#E81C27" points="39.884,2.739 40.607,4.637 43.766,5.107 42.924,3.151 "/>
<polygon fill="#E81C27" points="28.535,19.993 30.714,19.993 31.152,18.476 29.346,17.269 "/>
<path opacity="0.3" fill="#302C3B" enable-background="new    " d="M49.375,5.974c0,0-0.391-0.096-0.357-0.724L35.27,3.263
	c-0.293,0.115-0.511,0.347-0.596,0.631l-4.672,16.1h0.713l4.781-16.117L49.375,5.974z"/>
<path fill="#E6EBEF" d="M35.904,4.075c0.047-0.229-0.06-0.389-0.319-0.479l-1.754-0.604c-0.504-0.05-0.687,0.099-0.542,0.439
	c-0.229,0.093-0.292,0.243-0.182,0.452c-0.233,0.096-0.292,0.246-0.18,0.458c-0.197,0.061-0.304,0.261-0.176,0.452
	c-0.406,0.12-0.229,0.543,0.095,0.656l1.751,0.604l0,0c0.313,0.108,0.756-0.117,0.533-0.443c0.229-0.065,0.31-0.266,0.182-0.453
	c0.227-0.067,0.308-0.264,0.18-0.453c0.23-0.063,0.313-0.264,0.182-0.45C35.779,4.243,35.854,4.185,35.904,4.075
	C35.933,4.004,35.875,4.147,35.904,4.075z"/>
<path opacity="0.3" fill="#302C3B" enable-background="new    " d="M35.585,3.597l-0.853-0.293c-0.012,0.002,0.047,0.644-0.326,0.75
	c0.208,0.311,0.08,0.631-0.293,0.736c0.21,0.309-0.206,0.939-0.209,1.027l0.693,0.238h0.003c0.31,0.108,0.755-0.117,0.53-0.441
	c0.229-0.064,0.31-0.268,0.182-0.455c0.232-0.067,0.308-0.264,0.18-0.453c0.23-0.064,0.313-0.266,0.182-0.452
	c0.105-0.011,0.181-0.069,0.23-0.179C35.951,3.847,35.845,3.687,35.585,3.597z"/>
<path fill="#302C3B" d="M35.904,4.075C35.875,4.147,35.933,4.004,35.904,4.075L35.904,4.075z"/>
<path fill="#302C3B" d="M49.406,5.841c-0.432-0.079-0.109-1.703,0.322-1.623C50.156,4.298,49.836,5.921,49.406,5.841z"/>
<path fill="#BEC3CF" d="M29.41,20.563c0.334,0.636,0.436-0.701,3.094-0.992C30.98,19.587,28.96,19.714,29.41,20.563z"/>
<path fill="#BEC3CF" d="M29.744,20.563c-0.334,0.633-0.432-0.701-3.089-0.992C28.175,19.587,30.197,19.714,29.744,20.563z"/>
</svg>
