<?xml version="1.0" encoding="utf-8"?>
<!-- Generator: Adobe Illustrator 15.0.0, SVG Export Plug-In . SVG Version: 6.00 Build 0)  -->
<!DOCTYPE svg PUBLIC "-//W3C//DTD SVG 1.1//EN" "http://www.w3.org/Graphics/SVG/1.1/DTD/svg11.dtd">
<svg version="1.1" id="Layer_1" xmlns="http://www.w3.org/2000/svg" xmlns:xlink="http://www.w3.org/1999/xlink" x="0px" y="0px"
	 width="64px" height="64px" viewBox="0 0 64 64" enable-background="new 0 0 64 64" xml:space="preserve">
<path fill="#D6A57C" d="M54.242,23.595c-2.87,0.778-10.779,2.311-16.786,6.298c-0.645,0.429,2.184,6.891,3.955,6.682
	C55.571,34.914,56.077,23.094,54.242,23.595z"/>
<path fill="#B47D56" d="M43.673,34.855c9.689-1.283,10.797-10.341,9.155-9.872C41.753,28.157,41.907,35.088,43.673,34.855z"/>
<path fill="#9E6C49" d="M43.67,34.856c0.345-0.046,0.657-0.124,0.986-0.188c0.939-2.846,3.124-6.206,7.296-9.398
	C41.789,28.552,41.956,35.082,43.67,34.856z"/>
<path fill="#D6A57C" d="M26.549,29.893c-6.005-3.987-13.916-5.52-16.786-6.298C7.93,23.094,8.435,34.914,22.595,36.574
	C24.366,36.783,27.194,30.322,26.549,29.893z"/>
<path fill="#B47D56" d="M20.333,34.855c-9.689-1.283-10.796-10.341-9.156-9.872C22.252,28.156,22.098,35.088,20.333,34.855z"/>
<path fill="#9E6C49" d="M20.336,34.856c-0.345-0.046-0.658-0.124-0.987-0.188c-0.939-2.845-3.125-6.206-7.295-9.398
	C22.216,28.552,22.049,35.083,20.336,34.856z"/>
<path fill="#785647" d="M61.298,3.43c-1.629-0.246-0.639,6.814-8.357,10.734c2.444-4.988,1.264-11.322-0.326-12.049
	c-0.371-0.17-1.738-0.264-1.043,1.443c2.271,5.584-0.173,9.99-1.757,12.053c-1.944,0.91-3.777,1.834-5.468,2.799
	c1.107-2.043,2.51-5.447,2.582-9.729c0.094-5.473,3.033-3.625,2.688-6.031c-0.23-1.561-4.16-0.238-4.396,3.676
	c-0.15,2.484,0.104,4.674-0.973,7.879c-0.907-0.576-2.948-2.115-4.018-4.91c-1.508-3.938-5.653,0.451,3.071,7.227
	c-0.552,1.174-1.28,2.479-2.232,3.957c0,0-4.082,2.635-6.851,7.852l2.959,0.125c6.79-10.232,13.537-8.324,19.84-13.986
	C60.733,11.131,63.307,3.734,61.298,3.43z"/>
<path fill="#785647" d="M2.702,3.42c1.629-0.246,0.639,6.814,8.357,10.734C8.615,9.166,9.796,2.832,11.386,2.104
	c0.371-0.168,1.738-0.262,1.043,1.443c-2.271,5.586,0.173,9.992,1.757,12.055c1.944,0.908,3.778,1.832,5.468,2.799
	c-1.107-2.043-2.51-5.447-2.582-9.729c-0.094-5.473-3.033-3.625-2.688-6.031c0.23-1.563,4.16-0.238,4.396,3.676
	c0.15,2.484-0.104,4.674,0.973,7.879c0.907-0.576,2.948-2.117,4.018-4.91c1.508-3.938,5.653,0.451-3.071,7.225
	c0.552,1.176,1.28,2.48,2.232,3.957c0,0,4.082,2.637,6.851,7.854l-2.959,0.125c-6.79-10.232-13.537-8.324-19.84-13.986
	C3.267,11.119,0.693,3.725,2.702,3.42z"/>
<path fill="#D6A57C" d="M44.723,37.592c-2.994-4.84,0.536-7.898-1.673-9.242c-3.83-2.328-7.59-2.475-11.047-2.475
	c-3.456,0-7.219,0.146-11.046,2.475c-2.207,1.344,1.319,4.402-1.675,9.242c-2.998,4.842-0.257,9.076,3.331,11.932
	c3.59,2.859,0.278,9.072,5.248,11.428C29.004,61.488,30.423,62,32.003,62s3-0.512,4.142-1.049c4.972-2.355,1.657-8.568,5.247-11.428
	C44.982,46.668,47.721,42.434,44.723,37.592z"/>
<path fill="#B47D56" d="M43.472,33.799c0.064,1.115,0.377,2.375,1.251,3.793c2.998,4.842,0.26,9.076-3.331,11.932
	c-1.49,1.188-1.787,2.951-1.987,4.777v0.002c0-2.559,0.206-7.27,2.225-11.977C43.399,38.199,43.479,36.141,43.472,33.799z"/>
<path fill="#B47D56" d="M20.535,33.799c-0.063,1.115-0.376,2.375-1.253,3.793c-2.998,4.842-0.257,9.076,3.331,11.932
	c1.491,1.188,1.79,2.951,1.986,4.777l0.003,0.002c0-2.559-0.206-7.27-2.225-11.977C20.607,38.199,20.529,36.141,20.535,33.799z"/>
<path fill="#785647" d="M36.437,59.031c0.169,0.275-1.725,1.973-4.434,1.957c-2.71,0.016-4.602-1.682-4.432-1.957
	c0.141-0.328,2.045,0.693,4.432,0.666C34.388,59.725,36.296,58.707,36.437,59.031z"/>
<rect x="31.448" y="57.953" fill="#785647" width="1.11" height="2.023"/>
<path fill="#302C3B" d="M23.993,40.432c0.278,1.428-0.389,2.727-1.485,2.902c-1.1,0.176-2.212-0.838-2.487-2.264
	c-0.278-1.43,0.389-2.729,1.486-2.904C22.605,37.988,23.718,39.002,23.993,40.432z"/>
<path fill="#302C3B" d="M40.012,40.432c-0.278,1.428,0.388,2.727,1.488,2.902c1.097,0.176,2.21-0.838,2.488-2.264
	c0.277-1.43-0.39-2.729-1.489-2.904C41.403,37.988,40.287,39.002,40.012,40.432z"/>
<path fill="#B47D56" d="M22.103,35.068c-0.153,0.189,2.172,1.615,3.016,4.277c0.933,2.637-0.118,5.002,0.125,5.084
	c0.201,0.174,1.809-2.316,0.774-5.336C25.023,36.063,22.162,34.82,22.103,35.068z"/>
<path fill="#B47D56" d="M41.904,35.068c0.15,0.189-2.171,1.615-3.015,4.277c-0.934,2.637,0.115,5.002-0.128,5.084
	c-0.198,0.174-1.81-2.316-0.774-5.336C38.984,36.063,41.845,34.82,41.904,35.068z"/>
<path fill="#B47D56" d="M27.603,26.1c-2.137,1.938-3.447,3.941-0.732,8.936c3.061,5.629,1.976,15.834,5.133,15.834
	c3.158,0,2.073-10.205,5.132-15.834c2.715-4.994,1.407-6.998-0.73-8.936c-1.507-0.189-2.981-0.225-4.401-0.225
	C30.584,25.875,29.11,25.91,27.603,26.1z"/>
<path fill="#FFFFFF" d="M21.398,39.238c0,0.666-1,0.666-1,0C20.398,38.571,21.398,38.571,21.398,39.238z"/>
<path fill="#FFFFFF" d="M41.665,39.438c0,0.666-1,0.666-1,0S41.665,38.771,41.665,39.438z"/>
<path id="Shape_2_" fill="#302C3B" d="M26.558,55.543c0-2.03,2.438-2.422,5.445-2.422c3.006,0,5.443,0.392,5.443,2.422
	c0,1.615-4.334,3.047-5.443,3.047C30.892,58.59,26.558,57.158,26.558,55.543L26.558,55.543z"/>
<path id="Shape_1_" fill="#4E5E67" d="M27.276,55.601c0-1.654,2.051-1.973,4.581-1.973C35.229,53.628,27.276,58.053,27.276,55.601
	L27.276,55.601z"/>
</svg>
