<?xml version="1.0" encoding="utf-8"?>
<!-- Generator: Adobe Illustrator 15.0.0, SVG Export Plug-In . SVG Version: 6.00 Build 0)  -->
<!DOCTYPE svg PUBLIC "-//W3C//DTD SVG 1.1//EN" "http://www.w3.org/Graphics/SVG/1.1/DTD/svg11.dtd">
<svg version="1.1" id="Layer_1" xmlns="http://www.w3.org/2000/svg" xmlns:xlink="http://www.w3.org/1999/xlink" x="0px" y="0px"
	 width="64px" height="64px" viewBox="0 0 64 64" enable-background="new 0 0 64 64" xml:space="preserve">
<path fill="#7AB51D" d="M3.203,23.701c0.519,0.139,1.412,0.131,2.196,0.135c-1.935-1.467-4.482-6.605-1.941-3.159
	c0.527,0.713,1.771,1.752,2.58,2.528c-0.082-0.976-0.118-2.284-0.316-3.048c-0.937-3.608,0.943,0.667,1.132,2.919
	c0.208-0.621,0.442-1.303,0.495-1.759c0.351-2.892,0.567,0.932-0.048,2.504c1.378,0.361,3.25,1.932,5.563,2.299
	c0.803-0.59,3.13-5.664,4.35-4.655c2.859,2.37-1.815,7.547-4.697,7.243c-0.641-0.068-4.341-2.273-5.783-3.721
	c-0.996,0.865-5.239,0.313-2.495,0.117c0.344-0.025,0.856-0.18,1.352-0.334C3.602,24.769,0.166,22.885,3.203,23.701z"/>
<path fill="#7AB51D" d="M27.653,4.191c-0.048,0.556-0.356,1.43-0.613,2.199C26.359,4,22.564-0.221,24.831,3.427
	c0.467,0.758,0.993,2.323,1.426,3.377c-0.857-0.406-2.03-0.88-2.654-1.329c-2.951-2.129,0.288,1.147,2.264,2.085
	c-0.632-0.002-1.328-0.001-1.758-0.102c-2.733-0.625,0.652,0.869,2.281,0.792c-0.135,1.472,0.66,3.836,0.217,6.227
	c-0.803,0.591-6.173,1.175-5.667,2.71c1.187,3.599,7.437,0.747,8.126-2.184c0.151-0.652-0.604-5.02-1.431-6.921
	c1.116-0.687,2.038-5.037,0.942-2.408c-0.139,0.329-0.45,0.779-0.757,1.212C28.485,4.94,27.931,0.937,27.653,4.191z"/>
<path fill="#689C19" d="M23.31,17.959c0,0,3.555-0.197,5.7-2.758c-0.513,2.485-4.888,4.117-4.888,4.117L23.31,17.959z"/>
<path fill="#7AB51D" d="M27.231,55.563c-0.913-0.221-1.918-0.473-2.579-0.506c-4.189-0.215,1.282-0.84,3.604-0.158
	c0.376-1.867,0.635-2.617,0.925-5.734c-0.734-0.811-5.421-2.803-6.93-4.225c-3.586-3.381,2.55-9.621,6.805-9.404
	c0.962,0.049,0.902,2.309,0.379,2.771c-1.087,0.957-2.234,2.715-3.344,4.225c3.312,0.717,6.941,4.232,6.845,6.865
	c-0.034,0.863-1.016,4.105-2.948,6.16c1.346,1.254,0.986,6.971,0.425,3.318c-0.073-0.457-0.346-1.127-0.62-1.771
	c0.203,2.652-2.152,7.404-1.291,3.277c0.15-0.705,0.043-1.898-0.028-2.943c-1.91,2.713-9.03,6.566-4.341,2.869
	c0.97-0.768,2.333-2.516,3.367-3.666c-1.394,0.193-3.268,0.357-4.344,0.688C18.066,58.898,24.019,56.014,27.231,55.563z"/>
<path fill="#7AB51D" d="M38.696,22.101c1.471,1.264,2.337,6.325,3.044,7.19c3.293,0.469,4.126,0.418,6.146,0.521
	c-0.198-2.17,1.651-6.779,0.953-3.092c-0.112,0.584-0.07,1.516-0.042,2.357c1.171-2.688,5.47-7.187,2.724-3.133
	c-0.579,0.859-1.159,2.449-1.668,3.615c1.418-0.633,3.528-1.412,4.538-2.078c4.858-3.215-0.698,2.076-3.926,3.105
	c1.068,0.307,2.279,0.674,3.044,0.707c4.461,0.207-0.979,1.15-3.681,0.365c0.609,0.385,1.244,0.777,1.7,0.945
	c3.658,1.333-2.342,0.322-3.344-1.137c-2.552,1.203-6.125,1.307-7.027,1.137c-1.861-0.357-3.272-3.08-4.313-5.236
	c-0.811,1.285-1.993,3.043-1.993,3.043s-3.85-0.951-3.376-1.691C32.839,26.591,35.248,19.135,38.696,22.101z"/>
<path fill="#689C19" d="M38.095,25.455c0,0-2.973,3.703-4.731,4.109c-0.468,0.107,0.869,1.473,1.338,1.375
	C36.276,30.615,38.095,25.455,38.095,25.455z"/>
<path fill="#7AB51D" d="M10.694,3.958c5.869,2.187,4.699,6.315,6.293,9.091c1.147,1.998,8.094,4.437,13.108,10.152
	c12.052,13.736,10.396,23.947,17.859,25.838c5.567,1.41,15.2-8.725,9.449-22.217C49.816,9.019,30.79,2.002,32.344,2.002
	c2.036,0,19.567,7.458,27.57,25.774c5.652,12.94-0.825,26.377-11.702,26.372c-12.041-0.008-15.163-13.086-23.611-19.338
	c-9.456-6.999-10.073-15.943-12.028-17.16c-2.67-1.659-6.635-0.439-8.735-6.553C0.331,0.891,1.445,0.508,10.694,3.958z"/>
<path fill="#689C19" d="M59.179,35.748c0.059-2.803-0.45-5.821-1.774-8.926C49.816,9.019,30.79,2.002,32.344,2.002
	C34.38,2.002,60.582,15.855,59.179,35.748z"/>
<path fill="#689C19" d="M4.272,2.026C2.995,2.224,2.52,2.496,2.71,3.673c1.421,0.991-0.12,2.219,1.592,4.784
	c6.803,2.019,4.365,6.589,8.463,8.024c3.539,1.239,4.429,9.213,11.709,14.815c14.399,11.081,12.096,19.268,23.489,20.352
	c4.034,0.385,12.079-1.084,13.999-12.863c-0.506,8.576-6.017,15.367-13.75,15.363c-12.041-0.008-15.163-13.086-23.611-19.338
	c-9.456-6.999-10.073-15.943-12.028-17.16c-2.67-1.659-6.635-0.439-8.735-6.553C1.435,4.101,1.202,1.72,4.272,2.026z"/>
<path fill="#302C3B" d="M13.16,8.885c2.332-2.43-1.582-6.505-3.916-4.075C8.382,5.707,12.297,9.782,13.16,8.885z"/>
<path fill="#302C3B" d="M4.655,9.589c-2.332,2.428,1.582,6.504,3.914,4.075C9.433,12.765,5.519,8.688,4.655,9.589z"/>
<path fill="#FFFFFF" d="M11.568,5.109c0.429-0.444-0.427-1.335-0.854-0.889C10.286,4.665,11.142,5.554,11.568,5.109z"/>
<path fill="#FFFFFF" d="M5.987,10.921c0.428-0.446-0.427-1.335-0.854-0.891C4.705,10.476,5.561,11.366,5.987,10.921z"/>
<path fill="#41751A" d="M4.804,2.637c0.592-0.599,1.19,0.881-0.249,0.468C3.168,2.708,4.654,2.786,4.804,2.637z"/>
<path fill="#41751A" d="M2.57,4.963C2.714,4.808,2.64,3.261,3.02,4.704C3.415,6.202,1.997,5.582,2.57,4.963z"/>
<path fill="#689C19" d="M25.02,43.783c0,0,2.615-3.602,3.176-7.203c0.092-0.584,1.513,1.387,1.339,1.953
	C28.709,41.221,25.02,43.783,25.02,43.783z"/>
<path fill="#689C19" d="M16.708,23.939c0,0-1.006,3.787-4.192,4.77c2.48,0.496,5.589-2.926,5.589-2.926L16.708,23.939z"/>
<path fill="#92C932" d="M28.248,31.771c2.637,0.324-0.901-7.537-3.039-4.869C22.989,29.669,26.576,31.566,28.248,31.771z"/>
<path fill="#92C932" d="M33.151,31.931c1.688,0.207-0.576-4.824-1.945-3.117C29.786,30.585,32.082,31.8,33.151,31.931z"/>
<path fill="#92C932" d="M30.402,27.316c0.991,0.121-0.338-2.832-1.142-1.83C28.426,26.527,29.774,27.24,30.402,27.316z"/>
<path fill="#92C932" d="M20.601,19.778c1.688,0.207-0.576-4.823-1.945-3.117C17.235,18.434,19.531,19.647,20.601,19.778z"/>
<path fill="#92C932" d="M23.462,20.336c0.992,0.121-0.338-2.833-1.142-1.831C21.485,19.546,22.834,20.259,23.462,20.336z"/>
</svg>
