<?xml version="1.0" encoding="utf-8"?>
<!-- Generator: Adobe Illustrator 15.0.0, SVG Export Plug-In . SVG Version: 6.00 Build 0)  -->
<!DOCTYPE svg PUBLIC "-//W3C//DTD SVG 1.1//EN" "http://www.w3.org/Graphics/SVG/1.1/DTD/svg11.dtd">
<svg version="1.1" id="Layer_1" xmlns="http://www.w3.org/2000/svg" xmlns:xlink="http://www.w3.org/1999/xlink" x="0px" y="0px"
	 width="64px" height="64px" viewBox="0 0 64 64" enable-background="new 0 0 64 64" xml:space="preserve">
<path fill-rule="evenodd" clip-rule="evenodd" fill="#302C3B" d="M32,25.5C16.598,4.595-3.875,0.867,3.583,12.549
	c8.244,12.913-2.18,18.422,6.967,19.996C0.549,44.298,16.167,65.639,25.06,55.214c4.776-5.598,3.432-12.4,6.94-16.456
	c3.508,4.056,2.163,10.858,6.939,16.456c8.893,10.425,24.512-10.916,14.511-22.669c9.146-1.573-1.277-7.083,6.967-19.996
	C67.875,0.867,47.402,4.595,32,25.5z"/>
<path fill="#FFE8BB" d="M53.481,12.893c-1.887,2.411-4.487,1.784-4.865,0C48.021,10.083,54.928,11.042,53.481,12.893z"/>
<path fill="#FFE8BB" d="M55.39,10.247c0.344-1.996,2.055-2.446,2.833-1.525C59.448,10.17,55.124,11.779,55.39,10.247z"/>
<path fill="#FFE8BB" d="M54.301,13.281c1.743-1.026,3.192-0.009,2.993,1.181C56.982,16.334,52.963,14.07,54.301,13.281z"/>
<path fill="#C21413" d="M54.778,18.683c0.608-0.477,0.724-1.396,0.69-2.042c-0.062-1.191-4.531-1.289-4.531-1.289
	s-1.094,1.536-2.312,3.016C51.575,18.918,53.995,19.3,54.778,18.683z"/>
<path fill="#D47706" d="M54.871,20.304c-2.789-0.243-7.081-0.721-7.081-0.721c-1.104,1.052-3.372,2.967-3.372,2.967
	c3.326,1.192,6.991,2.292,9.917,2.49C55.315,25.106,56.146,20.413,54.871,20.304z"/>
<path fill="#C21413" d="M48.963,15.367c0,0-3.151-0.498-4.585,0.386c-0.773,0.477-8.229,7.55-10.564,9.874v1.968
	C38.683,24.594,44.916,21.107,48.963,15.367z"/>
<path fill="#F59E01" d="M54.459,27.199c-2.514-1.066-11.103-3.895-11.727-3.617c-1.354,0.604-8.919,4.721-8.919,4.721v1.248
	c14.152-1.271,19.563,1.605,20.06,0.971C54.329,29.939,55.363,27.582,54.459,27.199z"/>
<path fill="#C21413" d="M9.221,18.683c-0.608-0.477-0.724-1.396-0.69-2.042c0.062-1.191,4.531-1.289,4.531-1.289
	s1.094,1.536,2.312,3.016C12.424,18.918,10.005,19.3,9.221,18.683z"/>
<path fill="#D47706" d="M9.128,20.304c2.789-0.243,7.082-0.721,7.082-0.721c1.103,1.052,3.372,2.967,3.372,2.967
	c-3.326,1.192-6.991,2.292-9.917,2.49C8.684,25.106,7.854,20.413,9.128,20.304z"/>
<path fill="#C21413" d="M15.037,15.367c0,0,3.151-0.498,4.584,0.386c0.774,0.477,8.229,7.55,10.564,9.874v1.968
	C25.317,24.594,19.083,21.107,15.037,15.367z"/>
<path fill="#F59E01" d="M9.541,27.199c2.513-1.066,11.102-3.895,11.727-3.617c1.354,0.604,8.918,4.721,8.918,4.721v1.248
	c-14.152-1.271-19.562,1.605-20.059,0.971C9.671,29.939,8.637,27.582,9.541,27.199z"/>
<path fill="#FFE8BB" d="M10.519,12.893c1.887,2.411,4.487,1.784,4.865,0C15.979,10.083,9.072,11.042,10.519,12.893z"/>
<path fill="#FFE8BB" d="M8.61,10.247C8.267,8.251,6.555,7.801,5.777,8.722C4.552,10.17,8.875,11.779,8.61,10.247z"/>
<path fill="#FFE8BB" d="M9.699,13.281c-1.743-1.026-3.192-0.009-2.993,1.181C7.018,16.334,11.037,14.07,9.699,13.281z"/>
<path fill="#F9B700" d="M28.259,42.853c-0.529,0.749-1.386-2.826-3.178-3.728c-0.773-0.391-0.938-1.067,7.441-7.101v1
	C29.685,34.937,29.475,41.126,28.259,42.853z"/>
<path fill="#F9B700" d="M13.649,32.391c0.915-0.36,9.66-0.62,9.66-0.62c-2.683,5.312-9.969,4.185-13.295,6.368
	C9.693,36.451,12.541,32.828,13.649,32.391z"/>
<path fill="#F9B700" d="M31.227,31.866c-11.058,7.184-10.223,10.298-13.17,8.312c-0.442-0.298,3.169-4.092,6.771-7.925
	C25.95,31.06,31.227,31.866,31.227,31.866z"/>
<path fill="#FFE12C" d="M19.399,42.175c0.243,1.004-5.37,4.707-6.257,9.003C5.762,43.724,18.82,39.787,19.399,42.175z"/>
<path fill="#FFE12C" d="M18.82,37.083c0,0-1.848,2.975-2.901,3.292c-4.053,1.215-5.722,4.329-5.722,4.329
	C7.059,38.904,15.065,37.547,18.82,37.083z"/>
<path fill="#FFE12C" d="M23.596,39.371c7.152,5.904,1.93,11.575-0.874,14.199C9.612,50.164,18.136,47.569,23.596,39.371z"/>
<path fill="#FFE8BB" d="M17.01,53.307c-0.336-1.95-2.006-2.389-2.766-1.489C13.048,53.231,17.269,54.802,17.01,53.307z"/>
<path fill="#FFE8BB" d="M21.075,54.042c-1.701-1-3.116-0.009-2.922,1.153C18.458,57.023,22.382,54.813,21.075,54.042z"/>
<path fill="#F9B700" d="M35.741,42.853c0.529,0.749,1.386-2.826,3.178-3.728c0.773-0.391,0.938-1.067-7.441-7.101v1
	C34.315,34.937,34.525,41.126,35.741,42.853z"/>
<path fill="#F9B700" d="M50.351,32.391c-0.915-0.36-9.66-0.62-9.66-0.62c2.684,5.312,9.969,4.185,13.296,6.368
	C54.307,36.451,51.459,32.828,50.351,32.391z"/>
<path fill="#F9B700" d="M32.773,31.866c11.057,7.184,10.222,10.298,13.169,8.312c0.443-0.298-3.168-4.092-6.771-7.925
	C38.05,31.06,32.773,31.866,32.773,31.866z"/>
<path fill="#FFE12C" d="M44.601,42.175c-0.243,1.004,5.37,4.707,6.258,9.003C58.238,43.724,45.18,39.787,44.601,42.175z"/>
<path fill="#FFE12C" d="M45.18,37.083c0,0,1.849,2.975,2.901,3.292c4.054,1.215,5.722,4.329,5.722,4.329
	C56.941,38.904,48.935,37.547,45.18,37.083z"/>
<path fill="#FFE12C" d="M40.404,39.371c-7.152,5.904-1.93,11.575,0.874,14.199C54.388,50.164,45.864,47.569,40.404,39.371z"/>
<path fill="#FFE8BB" d="M46.99,53.307c0.336-1.95,2.006-2.389,2.766-1.489C50.952,53.231,46.73,54.802,46.99,53.307z"/>
<path fill="#FFE8BB" d="M42.925,54.042c1.701-1,3.115-0.009,2.922,1.153C45.542,57.023,41.618,54.813,42.925,54.042z"/>
<path fill-rule="evenodd" clip-rule="evenodd" fill="#302C3B" d="M38.723,10.757C33.313,9.653,35.055,22.121,32,22.121
	c-3.055,0-1.314-12.468-6.723-11.364c-1.104,0.225-1.02,1.581,1.971,1.181c1.147-0.153,3.482,10.433,2.663,12.171
	c-1.874,3.978-3.021,10.81,0.573,19.173C31.78,46.299,28.638,53.576,32,53.576c3.361,0,0.22-7.277,1.515-10.294
	c3.595-8.363,2.447-15.195,0.573-19.173c-0.819-1.738,1.517-12.325,2.663-12.171C39.742,12.337,39.826,10.982,38.723,10.757z"/>
</svg>
