<?xml version="1.0" encoding="utf-8"?>
<!-- Generator: Adobe Illustrator 15.0.0, SVG Export Plug-In . SVG Version: 6.00 Build 0)  -->
<!DOCTYPE svg PUBLIC "-//W3C//DTD SVG 1.1//EN" "http://www.w3.org/Graphics/SVG/1.1/DTD/svg11.dtd">
<svg version="1.1" id="Layer_1" xmlns="http://www.w3.org/2000/svg" xmlns:xlink="http://www.w3.org/1999/xlink" x="0px" y="0px"
	 width="64px" height="64px" viewBox="0 0 64 64" enable-background="new 0 0 64 64" xml:space="preserve">
<path fill="#6E8189" d="M19.748,6.837l10.041,15.336l9.371-7.748C30.831,5.762,26.706,10.393,19.748,6.837z"/>
<path fill="#4E5E67" d="M19.748,6.837c0,0,1.791,10.521,10.041,15.336l0.751-0.661C28.769,11.26,25.373,13.41,19.748,6.837z"/>
<path fill="#99A8AE" d="M51.439,4.953c-8.992,2.353-18.125-0.928-19.721,5.43c-1.828,7.293-4.137,9.561-5.518,12.63
	c-3.172,7.042-10.247,9.431-14.128,13.587c-2.284,8.57-5.003,6.453-3.44,10.395c1.165,2.938-0.21,7.646,7.214,8.68
	c7.624,1.061,11.076,3.008,15.626,0.18c5.714-3.553,18.635-3.338,18.635-3.338L50.604,62H62V9.546L60.657,2l-5.342,4.46
	C55.315,6.46,54.276,4.211,51.439,4.953z"/>
<path fill="#6E8189" d="M58.229,39.639c-7.752,15.109-16.394,10.82-25.052,15.344c0,0,13.588-3.746,13.588,7.018h5.16
	C51.926,51.129,58.229,39.639,58.229,39.639z"/>
<path fill="#302C3B" d="M30.996,52.584c-3.688-3.416-9.323,1.223-7.818,1.766c1.05,0.377,3.059,0.133,4.453,0.416
	C29.168,55.08,32.302,53.793,30.996,52.584z"/>
<path fill="#CFD8DD" d="M17.807,21.801c-0.832,1.334,1.416,8.769,3.455,9.759c2.133,1.032,7.877-3.018,7.441-5.694
	C28.256,23.111,18.566,20.579,17.807,21.801z"/>
<path fill="#CFD8DD" d="M3.394,18.051c-3.724,2.228,0.452,20.492,7.323,25.643c1.792,1.344,7.113-0.436,8.623-2.074
	c1.627-1.756,3.028-6,0.437-9.367c-2.409-3.126-5.96-1.919-7.276-2.987C7.851,25.484,4.235,17.545,3.394,18.051z"/>
<path fill="#6E8189" d="M30.393,25.575c0,0,1.012,6.937-7.848,7.484c0,0,2.065,6.315-2.275,9.531c0,0,6.535-2.892,5.044-8.09
	C25.313,34.501,34.254,33.425,30.393,25.575z"/>
<path fill="#4E5E67" d="M60.657,2c-0.001-0.001,5.061,14.098-4.479,16.027c-5.834,1.18-7.342,4.893-7.342,4.893
	s-2.807-7.99,2.946-10.771C58.57,8.868,60.657,2,60.657,2z"/>
<path fill="#6E8189" d="M60.657,2C52.04,8.885,44.372,6.154,42.885,15.768c0,0,1.828-5.082,7.683-6.844
	C56.425,7.164,58.248,4.15,60.657,2z"/>
<path fill="#6E8189" d="M24.172,50.82c0,0,3.227-1.055,4.75-1.055c1.834,0,4.256,1.363,4.256,1.363s-1.817-2.852-4.007-2.852
	C26.922,48.277,24.172,50.82,24.172,50.82z"/>
<ellipse fill="#302C3B" cx="46.558" cy="33.567" rx="3.138" ry="2.964"/>
<path id="Shape_85_" fill="#FFFFFF" d="M45.703,33.069c0,1.179-1.412,1.179-1.412,0C44.291,31.891,45.703,31.891,45.703,33.069
	L45.703,33.069z"/>
<path fill="#302C3B" d="M41.151,34.816c0,0,4.452-4.278,10.09-2.465C48.745,27.141,41.151,29.483,41.151,34.816z"/>
</svg>
