<?xml version="1.0" encoding="utf-8"?>
<!-- Generator: Adobe Illustrator 15.0.0, SVG Export Plug-In . SVG Version: 6.00 Build 0)  -->
<!DOCTYPE svg PUBLIC "-//W3C//DTD SVG 1.1//EN" "http://www.w3.org/Graphics/SVG/1.1/DTD/svg11.dtd">
<svg version="1.1" id="Layer_1" xmlns="http://www.w3.org/2000/svg" xmlns:xlink="http://www.w3.org/1999/xlink" x="0px" y="0px"
	 width="64px" height="64px" viewBox="0 0 64 64" enable-background="new 0 0 64 64" xml:space="preserve">
<path fill="#AB5C10" d="M56,22.346c0,0,2.441,0,4.732,1.477c0,0,0.301-8.719-9.494-12.88c0,0,2.396-0.997,5.25-0.69
	c0,0-5.445-6.151-14.947-4.604c0,0,1.201-1.582,3.867-2.391C35.832-0.223,32,4.628,32,4.628s-3.831-4.852-13.408-1.371
	c2.667,0.809,3.868,2.391,3.868,2.391c-9.502-1.547-14.948,4.604-14.948,4.604c2.854-0.307,5.25,0.69,5.25,0.69
	c-9.794,4.161-9.494,12.88-9.494,12.88C5.56,22.346,8,22.346,8,22.346c-9.878,10.722-4.582,19.615-4.582,19.615
	c1.728-3.41,3.906-4.219,3.906-4.219c-1.502,14.098,7.323,18.164,7.323,18.164C15.399,53.527,17,51.91,17,51.91
	c1.968,5.344,6.737,7.383,6.737,7.383c-0.149-2.848,1.503-4.289,1.503-4.289C27.144,61.262,36.508,62,36.508,62
	s-2.941-4.148,2.252-6.996c0,0,1.652,0.598,1.504,3.445c0,0,4.77-1.195,6.736-6.539c0,0,2.502,0.773,3.254,3.152
	c0,0,7.924-3.223,6.424-17.32c0,0,2.178,0.809,3.904,4.219C60.582,41.961,65.879,33.068,56,22.346z"/>
<path fill="#F9B700" d="M52.117,21.791c4.363-3.868,3.094-12.111,0.627-14.113c-2.543-2.064-10.371,0.652-12.406,4.782
	C45.98,14.66,50.025,19.06,52.117,21.791z"/>
<path fill="#785647" d="M51.059,20.478c3.064-2.474,2.244-8.059,0.592-9.398c-1.635-1.328-6.59,0.36-8.047,2.979
	C46.818,15.96,49.336,18.447,51.059,20.478z"/>
<path fill="#594640" d="M46.482,16.038c1.262-1.881,2.947-3.951,5.168-4.958c-1.664-1.353-6.781-0.059-8.131,2.931
	C44.584,14.634,45.574,15.321,46.482,16.038z"/>
<path fill="#F9B700" d="M11.881,21.791C7.518,17.922,8.788,9.679,11.254,7.677c2.543-2.064,10.372,0.652,12.407,4.782
	C18.018,14.66,13.973,19.06,11.881,21.791z"/>
<path fill="#785647" d="M12.939,20.478c-3.064-2.474-2.243-8.059-0.592-9.398c1.635-1.328,6.591,0.36,8.048,2.979
	C17.181,15.96,14.662,18.447,12.939,20.478z"/>
<path fill="#594640" d="M17.516,16.038c-1.262-1.881-2.947-3.951-5.168-4.958c1.665-1.353,6.781-0.059,8.132,2.931
	C19.414,14.634,18.425,15.321,17.516,16.038z"/>
<path fill="#F9B700" d="M32.002,11.228c-11.4,10.363-20.118,4.095-20.118,30.545h40.233C52.117,15.323,41.328,21.591,32.002,11.228z
	"/>
<path fill="#FFE8BB" d="M51.742,34.182c0,0-2.371,3.631-12.334,6.529c-2.693-4.316-12.122-4.316-14.819,0
	c-9.961-2.898-12.397-6.529-12.397-6.529s-1.322,6.633-0.391,8.914c1.3,3.188,7.932,5.32,11.687,6.293
	c2.153,2.594,4.708,4.229,4.708,4.229c-0.079-1.053,0.147-1.938,0.229-2.215c0.016,0.006,0.034,0.008,0.053,0.014
	c0.328,1.828,1.142,3.127,1.142,3.127c-0.036-1.619,0.793-2.313,0.793-2.313C31.188,54.426,32,55.277,32,55.277
	s0.812-0.852,1.59-3.047c0,0,0.828,0.693,0.793,2.313c0,0,0.813-1.295,1.143-3.119c0.016-0.004,0.035-0.012,0.055-0.014
	c0.082,0.283,0.305,1.162,0.227,2.207c0,0,2.557-1.635,4.709-4.229c3.754-0.973,10.383-3.105,11.686-6.293
	C53.129,40.816,51.742,34.182,51.742,34.182z"/>
<polygon fill="#FFFFFF" points="32.016,16.799 30.264,21 32.016,34.104 33.736,21 "/>
<path fill="#302C3B" d="M44.445,29.935c0,5.487-6.225,5.487-6.225,0C38.221,24.449,44.445,24.449,44.445,29.935z"/>
<path fill="#FFFFFF" d="M41.254,28.537c0,1.37-1.914,1.37-1.914,0C39.34,27.165,41.254,27.165,41.254,28.537z"/>
<path fill="#302C3B" d="M25.78,29.935c0,5.487-6.227,5.487-6.227,0C19.554,24.449,25.78,24.449,25.78,29.935z"/>
<path fill="#FFFFFF" d="M22.586,28.537c0,1.37-1.914,1.37-1.914,0C20.672,27.165,22.586,27.165,22.586,28.537z"/>
<path fill="#302C3B" d="M38.597,45.395c-0.486-1.015-2.749,0.533-6.045,0.697v-5.875H31.45v5.873
	c-3.079-0.175-5.561-1.705-6.047-0.7c-0.545,1.14,2.926,2.669,6.597,2.669C35.668,48.059,39.147,46.534,38.597,45.395z"/>
<path fill="#302C3B" d="M38.409,37.76c-2.53-1.135-10.43-1.072-12.815,0c-0.917,0.409,1.691,3.037,6.405,3.037
	C36.721,40.797,39.324,38.17,38.409,37.76z"/>
</svg>
