<?xml version="1.0" encoding="utf-8"?>
<!-- Generator: Adobe Illustrator 15.0.0, SVG Export Plug-In . SVG Version: 6.00 Build 0)  -->
<!DOCTYPE svg PUBLIC "-//W3C//DTD SVG 1.1//EN" "http://www.w3.org/Graphics/SVG/1.1/DTD/svg11.dtd">
<svg version="1.1" id="Layer_1" xmlns="http://www.w3.org/2000/svg" xmlns:xlink="http://www.w3.org/1999/xlink" x="0px" y="0px"
	 width="64px" height="64px" viewBox="0 0 64 64" enable-background="new 0 0 64 64" xml:space="preserve">
<path fill="#6E8189" d="M61.068,11.894c-7.738-1.47-14.496-0.062-19.213,6.779c-0.318,5.271-0.131,10.543-0.131,10.543
	S36.287,32.42,32,38.22c-4.287-5.799-9.725-9.004-9.725-9.004s0.187-5.272-0.133-10.543c-4.716-6.84-11.474-8.249-19.212-6.779
	c2.32,2.956,3.021,11.394,1.02,15.831c3.506,1.718,7.651,7.241,8.248,11.53C20.016,41,27.063,44.631,32,53
	c4.936-8.369,11.984-12,19.801-13.745c0.598-4.289,4.742-9.812,8.248-11.53C58.047,23.288,58.748,14.85,61.068,11.894z"/>
<path fill="#302C3B" d="M60.049,27.725c-0.227-0.504-16.648-9.213-16.361-9.593c3.715-4.958,9.93-6.764,18.313-5.986
	c-6.176-2.635-16.277-0.601-20.031,4.861c-2.412-1.75-3.932,0.106-3.693,0.042c1.795-0.481,2.734,1.025,2.617,2.805
	c-0.344,5.27-0.014,8.363-0.014,8.363S36.287,30.372,32,36.171c-4.287-5.799-8.879-7.954-8.879-7.954s0.329-3.094-0.016-8.363
	c-0.115-1.78,0.822-3.287,2.617-2.805c0.24,0.064-1.281-1.792-3.692-0.042C18.275,11.544,8.176,9.51,2,12.145
	c8.383-0.777,14.597,1.028,18.313,5.986c0.285,0.38-16.135,9.089-16.362,9.593c0.396,0.195,18.067-8.47,17.268-7.51
	c-7.639,9.165-9.06,18.653-9.02,19.041c0.038,0.365,3.768-9.381,9.257-16.797c0.369-0.5,0.145,4.957,0.051,7.412
	C28.09,33.542,32,39.556,32,39.556s3.91-6.014,10.494-9.686c-0.094-2.456-0.318-7.912,0.051-7.412
	c5.488,7.416,9.217,17.163,9.256,16.797c0.039-0.388-1.381-9.875-9.02-19.041C41.98,19.254,59.652,27.919,60.049,27.725z"/>
<path fill="#302C3B" d="M26.119,31.355C22.252,26.637,24.99,24.153,24.334,21c2.684,0.049,3.284,3.823,6.973,4.449
	C30.803,25.835,26.521,30.793,26.119,31.355z"/>
<path fill="#4E5E67" d="M26.917,31.355c-3.551-3.874-1.681-6.581-1.962-8.443c2.018,0.746,1.185,4.043,4.873,4.668
	C29.325,27.966,27.32,30.793,26.917,31.355z"/>
<path fill="#302C3B" d="M37.879,31.355c3.867-4.718,1.129-7.202,1.787-10.354c-2.684,0.049-3.285,3.823-6.973,4.449
	C33.195,25.835,37.477,30.793,37.879,31.355z"/>
<path fill="#4E5E67" d="M37.082,31.355c3.551-3.874,1.682-6.581,1.961-8.443c-2.016,0.746-1.184,4.043-4.871,4.668
	C34.674,27.966,36.68,30.793,37.082,31.355z"/>
<path fill="#302C3B" d="M27.113,33.546c-7.4-11.268,17.174-11.257,9.773,0c2.32,3.125,2.537,5.902,2.537,5.902
	s-0.209-0.349-0.709-0.688c0.141,0.615,0.299,1.697,0.174,3.184c0,0-0.203-0.307-0.545-0.693c0.049,0.613,0.049,1.456-0.109,2.555
	l-0.559-0.951c-0.365,1.219-0.793,2.4-1.219,3.405V43.8c0,0-1.91,10.082-2.193,6.075c-1.9,4.166-2.627,4.166-4.525,0
	c-0.284,4.007-2.193-6.075-2.193-6.075v2.46c-0.427-1.005-0.855-2.187-1.221-3.405l-0.56,0.951
	c-0.155-1.099-0.155-1.941-0.112-2.555c-0.34,0.387-0.539,0.693-0.539,0.693c-0.129-1.486,0.031-2.568,0.17-3.184
	c-0.497,0.339-0.709,0.688-0.709,0.688S24.793,36.671,27.113,33.546z"/>
<path fill="#6E8189" d="M28.688,38.587c0-0.577,0.293-0.803,0.293-0.803c0.299,0.954,1.443,1.673,1.443,1.673
	c-0.259-0.513,0-1.026,0-1.026c0.461,0.62,1.578,1.352,1.578,1.352s1.117-0.731,1.576-1.352c0,0,0.26,0.514,0,1.026
	c0,0,1.146-0.719,1.439-1.673c0,0,0.295,0.226,0.295,0.803l1.145-1.33c-0.357,1.481-1.145,2.378-1.996,2.777
	c0,0,0.268-0.646,0.33-1.016c0,0-1.006,1.082-2.139,1.512c0,0,0.295-0.537,0.383-1.073l-1.033,1.073l-1.035-1.073
	c0.088,0.536,0.382,1.073,0.382,1.073c-1.131-0.43-2.14-1.512-2.14-1.512c0.068,0.37,0.33,1.016,0.33,1.016
	c-0.852-0.399-1.635-1.296-1.997-2.777L28.688,38.587z"/>
<path fill="#1A1626" d="M28.28,29.663c-1.409,0-1.409-2.451,0-2.451C29.688,27.212,29.688,29.663,28.28,29.663z"/>
<path id="Shape_4_" fill="#FFFFFF" d="M28.091,28.008c0,0.429-0.591,0.429-0.591,0C27.5,27.581,28.091,27.581,28.091,28.008
	L28.091,28.008z"/>
<path fill="#1A1626" d="M35.721,29.663c-1.41,0-1.41-2.451,0-2.451C37.127,27.212,37.127,29.663,35.721,29.663z"/>
<path id="Shape_11_" fill="#FFFFFF" d="M35.531,28.008c0,0.429-0.592,0.429-0.592,0C34.939,27.581,35.531,27.581,35.531,28.008
	L35.531,28.008z"/>
<path fill="#4E5E67" d="M30,30.186c0-0.98,0.895-1.17,2-1.17s2,0.189,2,1.17c0,0.779-1.592,1.473-2,1.473S30,30.965,30,30.186z"/>
<path fill="#6E8189" d="M30.264,30.213c0-0.799,0.754-0.953,1.684-0.953C33.186,29.26,30.264,31.399,30.264,30.213z"/>
</svg>
