<?xml version="1.0" encoding="utf-8"?>
<!-- Generator: Adobe Illustrator 15.0.0, SVG Export Plug-In . SVG Version: 6.00 Build 0)  -->
<!DOCTYPE svg PUBLIC "-//W3C//DTD SVG 1.1//EN" "http://www.w3.org/Graphics/SVG/1.1/DTD/svg11.dtd">
<svg version="1.1" id="Layer_1" xmlns="http://www.w3.org/2000/svg" xmlns:xlink="http://www.w3.org/1999/xlink" x="0px" y="0px"
	 width="64px" height="64px" viewBox="0 0 64 64" enable-background="new 0 0 64 64" xml:space="preserve">
<path fill="#99A8AE" d="M31.854,8.69l12.213,11.644C46.42,14,59.115,3.778,59.115,3.778C43-1.151,31.854,8.69,31.854,8.69z"/>
<path fill="#6E8189" d="M38.422,4.799l12.506,6.41l1.668-1.646C46.002,5.618,38.422,4.799,38.422,4.799z"/>
<path fill="#99A8AE" d="M28.008,18.276c0,0-0.593,8.606-8.051,14.273c0,0,16.083-1.447,22.539-7.202L28.008,18.276z"/>
<path fill="#99A8AE" d="M2.275,7.055c-1.262,0.912,5.313,8.651,11.469,10.98c0.598,3.729,10.052,3.928,19.049,9.147
	c9.104,5.279,18.205,15.705,7.18,23.957C25.729,45.8,15.87,50.864,19.207,51.612c25.881,5.801,0.932,9.469,1.537,9.609
	c10.995,2.561,17.32-1.828,18.385-4.012c25.596-0.67,28.568-29.258,14.578-43.538C42.229,1.957,15.052-2.182,2.275,7.055z"/>
<path fill="#CFD8DD" d="M2.275,7.055c-1.496,0.442,3.205,8.51,11.469,10.98c0.598,3.729,10.32,4.453,19.318,9.672
	c9.104,5.28,26.854,22.501,6.066,29.503c22.559,1.023,23.52-25.009,9.529-39.289C37.182,6.206,19.234,2.04,2.275,7.055z"/>
<path fill="#6E8189" d="M46.297,14.687C44.978,20.016,55.208,26.591,62,27.966C59.27,18.276,46.297,14.687,46.297,14.687z"/>
<path fill="#99A8AE" d="M46.297,14.687C44.291,17.758,49.301,23.643,62,27.966C51.051,12.013,46.297,14.687,46.297,14.687z"/>
<path fill="#6E8189" d="M33.063,13.684c0,0,1.449-1.858,1.492-3.376c0.049-1.542,0.581-4.805-1.358-5.786
	c0,0,2.482,0.397,2.365,4.129C35.45,12.39,34.335,12.857,33.063,13.684z"/>
<path fill="#6E8189" d="M36.32,14.687c0,0,1.449-1.857,1.492-3.376c0.049-1.542,0.58-4.805-1.359-5.786c0,0,2.483,0.397,2.366,4.129
	C38.707,13.393,37.592,13.86,36.32,14.687z"/>
<path fill="#6E8189" d="M39.545,15.565c0,0,1.45-1.858,1.493-3.376c0.05-1.542,0.581-4.805-1.358-5.786c0,0,2.482,0.396,2.365,4.129
	C41.934,14.271,40.818,14.738,39.545,15.565z"/>
<ellipse fill="#302C3B" cx="21.588" cy="5.525" rx="2.023" ry="2.005"/>
<path id="Shape_57_" fill="#FFFFFF" d="M20.801,5.29c0,0.697-0.844,0.697-0.844,0C19.957,4.591,20.801,4.591,20.801,5.29
	L20.801,5.29z"/>
<path fill="#E6EBEF" d="M13.744,18.035c-2.055-6.67,9.678-0.302,18.109-6.67C25.214,13.867,3.118,8.433,13.744,18.035z"/>
<path fill="#4E5E67" d="M28.277,12.013c0,0-1.184,0.334-1.623,1.626c-0.291-0.148-0.926-1.531-0.926-1.531s-1.43,0.231-1.947,2.052
	c-0.347-0.213-1.119-2.072-1.119-2.072s-1.477,0.574-1.736,2.247c-0.346-0.34-1.029-2.301-1.029-2.301s-1.469,0.877-1.357,2.313
	c-0.375-0.269-1.568-2.325-1.568-2.325s-0.93,0.872-0.666,2.459c-0.425-0.158-2.191-2.291-2.191-2.291s-0.471,1.339-0.164,2.906
	c-1.429-0.692-2.396-2.163-2.396-2.163s0.195,1.572,0.934,2.847c0,0-0.355,0.144-1.023-0.24c0.542,0.995,1.602,2.014,2.281,2.494
	c-1.686-5.667,8.392-0.924,16.58-5.668C30.332,12.363,29.178,12.666,28.277,12.013z"/>
</svg>
