<?xml version="1.0" encoding="utf-8"?>
<!-- Generator: Adobe Illustrator 15.0.0, SVG Export Plug-In . SVG Version: 6.00 Build 0)  -->
<!DOCTYPE svg PUBLIC "-//W3C//DTD SVG 1.1//EN" "http://www.w3.org/Graphics/SVG/1.1/DTD/svg11.dtd">
<svg version="1.1" id="Layer_1" xmlns="http://www.w3.org/2000/svg" xmlns:xlink="http://www.w3.org/1999/xlink" x="0px" y="0px"
	 width="64px" height="64px" viewBox="0 0 64 64" enable-background="new 0 0 64 64" xml:space="preserve">
<path fill="#45332C" d="M7.266,3.223c-7.867-1.464,0.262,9.693-3.387,16.212c-4.81,8.592,9.871-8.426,24.723,7.368
	C28.602,26.804,23.451,6.235,7.266,3.223z"/>
<path fill="#785647" d="M62,7.22c0,0-42.338-10.436-40.221-1.797c4.308,17.576-5.955,15.56-5.955,15.56l15.34,13.925
	c2.586-0.921,0.113-3.137,3.672-1.608c1.615,0.693-2.959-6.566,0.463-5.716c1.748,0.434-3.282-6.447,0.157-5.55
	c2.915,0.76,0.741-3.19,1.065-5.073c0.727,0.35,7.626,1.621,2.801-1.377c11.324,1.566,10.354-0.921,5-3.029
	c2.141,0.711,5.707,1.681,7.778,1.004c2.907-0.952,0.527-1.78-6.745-3.459C48.754,10.793,59.471,12.021,62,7.22z"/>
<path fill="#45332C" d="M62,7.22c-4.607,3.113-28.166,0.334-28.166,0.334C60.396,15.519,62,7.22,62,7.22z"/>
<path fill="#45332C" d="M31.709,10.376c16.208,6.522,20.932,2.979,20.932,2.979C50.467,13.888,31.709,10.376,31.709,10.376z"/>
<path fill="#45332C" d="M31.043,12.843c13.041,5.602,16.965,2.681,16.965,2.681C45.836,16.056,31.043,12.843,31.043,12.843z"/>
<path fill="#45332C" d="M29.793,14.962c8.208,4.277,10.97,2.46,10.97,2.46C37.318,17.243,29.793,14.962,29.793,14.962z"/>
<path fill="#E6EBEF" d="M37.938,52.427c6.042,5.336,8.542,2.387,5.25-1.512c4.083,2.404,8.416,1.994,10.79-1.994
	c0,0-15.406-4.907-19.302-9.626C33.938,63.111,38.192,53.183,37.938,52.427z"/>
<path fill="#F59E01" d="M19.914,52.135c-1.117,1.673-3.709,2.762-3.709,2.762l0.162,2.423c3.828-1.075,5.971-3.316,5.971-3.316
	C22.616,51.191,19.914,52.135,19.914,52.135z"/>
<path fill="#F59E01" d="M25.438,54.788c-1.082,1.999-3.915,3.471-3.915,3.471l0.463,2.748c4.232-1.572,6.422-4.311,6.422-4.311
	C28.408,53.467,25.439,54.788,25.438,54.788z"/>
<path fill="#45332C" d="M23.517,45.983h4.122c0,0,0,6.2-3.282,7.707c-3.286,1.51-7.546-0.436-4.323-2.697
	c3.224-2.262,3.483-5.008,3.483-5.008V45.983z"/>
<path fill="#785647" d="M27.5,46.861c-1.24,4.237-3.797,6.95-3.797,6.95c2.553,3.887,3.893,1.412,3.893,1.412
	c0,1.666,1.109,2.851,1.109,2.851c1.682-1.505,1.805-3.177,1.744-3.985c0.322,1.199,1.688,2.201,1.688,2.201
	c1.611-2.934,0.518-5.521,0.298-5.979c0.995,2.168,2.681,2.253,2.681,2.253c5.647-20.313-15.477-29.219-15.477-29.219L8.52,35.045
	C4.498,45.846,21.423,49.251,27.5,46.861z"/>
<path fill="#F9C802" d="M12.03,52.714c3.783,4.436,0.161,8.813,2.117,7.894c2.145-1.007,2.919-5.046,2.203-7.136
	C15.185,50.067,9.048,49.218,12.03,52.714z"/>
<path fill="#E6EBEF" d="M12.897,60.663c0.691-0.467,0.685-2.132,1.731-0.795C15.306,60.731,12.04,61.243,12.897,60.663z"/>
<path fill="#E6EBEF" d="M12.051,51.037c1.459,1.896-0.805,1.312-1.678,2.098C9.288,54.109,11.109,49.813,12.051,51.037z"/>
<path fill="#E6EBEF" d="M5.172,27.605c-2.808-4.637,3.652-11.663,10.234-10.933c-1.65,0.433-1.832,1.32-1.832,1.32
	s3.451-1.428,6.408,0.775c-1.854,0.391-2.668,1.439-2.668,1.439s4.313-0.606,5.688,3.991c-1.552-0.874-3.199-0.822-3.199-0.822
	s4.058,2.543,2.998,7.174c-1.369-0.981-3.015-1.696-3.015-1.696s1.956,2.616,0.519,5.855c-1.971,0.595-3.541-1.9-3.541-1.9
	s0.396,3.594-0.872,5.422c-2.472-0.63-3.485-2.715-3.485-2.715s-0.139,2.313-1.877,3.777C9.505,37.89,9.702,35.14,9.702,35.14
	s-1.067,1.449-1.458,3.127c-2.663-2.475,0.489-6.717-1.297-9.536C6.947,28.731,5.447,28.059,5.172,27.605z"/>
<path fill="#302C3B" d="M12.195,22.962c0.129,1.493-2.289,2.535-2.417,1.043S12.066,21.471,12.195,22.962z"/>
<path fill="#F9C802" d="M5.873,32.903c0,0,0.6-2.748,1.487-3.528c2.728-2.395,3.831-1.732,4.165-3.092
	C8.035,26.124,3.771,29.468,5.873,32.903z"/>
<path fill="#F59E01" d="M5.873,32.903c0,0-0.143-2.415,1.069-3.937c1.097-1.377,2.851-1.377,4.583-2.683
	C7.154,26.603,2.842,28.17,5.873,32.903z"/>
<path fill="#F9C802" d="M5.637,24.57c-1.451-0.061-3.427,2.613-3.622,4.702c-0.205,2.187,1.83,3.64,1.83,3.64
	s-2.821-4.547,7.681-6.629C8.35,26.251,6.46,27.074,6.46,27.074S6.279,24.597,5.637,24.57z"/>
<path fill="#F9C802" d="M19.281,53.804c3.783,4.435,0.161,8.812,2.117,7.893c2.145-1.007,2.919-5.047,2.203-7.136
	C22.436,51.157,16.299,50.308,19.281,53.804z"/>
<path fill="#E6EBEF" d="M20.148,61.753c0.691-0.468,0.685-2.133,1.731-0.797C22.557,61.82,19.291,62.332,20.148,61.753z"/>
<path fill="#E6EBEF" d="M19.302,52.126c1.459,1.896-0.805,1.312-1.678,2.098C16.539,55.198,18.36,50.901,19.302,52.126z"/>
</svg>
