<?xml version="1.0" encoding="utf-8"?>
<!-- Generator: Adobe Illustrator 15.0.0, SVG Export Plug-In . SVG Version: 6.00 Build 0)  -->
<!DOCTYPE svg PUBLIC "-//W3C//DTD SVG 1.1//EN" "http://www.w3.org/Graphics/SVG/1.1/DTD/svg11.dtd">
<svg version="1.1" id="Layer_1" xmlns="http://www.w3.org/2000/svg" xmlns:xlink="http://www.w3.org/1999/xlink" x="0px" y="0px"
	 width="64px" height="64px" viewBox="0 0 64 64" enable-background="new 0 0 64 64" xml:space="preserve">
<path fill="#302C3B" d="M62,35c0.086-6.412-8.402-11.02-10.213-18.881C49.506,6.205,39.611,2,32,2S14.496,6.205,12.213,16.119
	C10.402,23.98,1.914,28.588,2,35c-0.004,0-0.012,6.236,4.242,11.729l0.875-1.965c0,0,0.125,3.033,2.691,6.477l0.813-3.033
	c0,0,0.123,4.592,4.123,8.939c0,0,0.342-3.018,0.752-4.102c0,0,2.252,4.756,7.502,7.955c0,0-0.689-1.279-0.012-2.738
	C26.395,60.512,29.596,62,32,62s5.605-1.488,9.014-3.738C41.691,59.721,41.002,61,41.002,61c5.25-3.199,7.5-7.955,7.5-7.955
	c0.41,1.084,0.756,4.102,0.756,4.102c3.998-4.348,4.123-8.939,4.123-8.939l0.813,3.033c2.564-3.443,2.688-6.477,2.688-6.477
	l0.877,1.965C62.01,41.236,62.002,35,62,35z"/>
<path fill="#99A8AE" d="M51.506,25.002c-7.031-4.688-14.629,1-19.506,1s-12.473-5.688-19.506-1
	C5.459,29.689,13.563,39.838,21.496,37c2.531-0.904,3.963-1.117,4.67-0.883c-0.648,0.826-1.605,1.719-3.326,2.32
	c-4.389,1.535-3.094,5.068-0.15,5.518c-0.1,0.191-0.189,0.377-0.254,0.545c-1.24,3.197-2.439,12.502,9.564,12.502
	s10.803-9.305,9.564-12.502c-0.066-0.17-0.154-0.354-0.258-0.545c2.949-0.445,4.244-3.98-0.145-5.518
	c-1.551-0.543-2.477-1.32-3.119-2.072c0.762-0.186,2.154-0.025,4.459,0.635C50.775,39.373,58.539,29.689,51.506,25.002z"/>
<path fill="#302C3B" d="M28.506,37.451c0.121,1.561,0.686,4.982-2.607,5.096c-2.9,0.105-3.697-2.873-0.232-2.994
	C27.977,39.475,28.506,37.451,28.506,37.451z"/>
<path fill="#302C3B" d="M35.494,37.451c-0.121,1.561-0.686,4.982,2.607,5.096c2.9,0.105,3.699-2.873,0.234-2.994
	C36.023,39.475,35.494,37.451,35.494,37.451z"/>
<path fill="#302C3B" d="M40.848,48.945c0.178,0.197-3.607,3.143-8.848,3.111c-5.238,0.031-9.025-2.914-8.848-3.111
	c0.119-0.27,3.916,1.344,8.848,1.301C36.934,50.289,40.729,48.674,40.848,48.945z"/>
<path fill="#A6E639" d="M22.998,34.219c3.314,0,6.004-2.6,6.004-5.801H16.998C16.998,31.619,19.684,34.219,22.998,34.219z"/>
<path fill="#302C3B" d="M22.998,31.68c1.656,0,3-1.297,3-2.9h-6.002C19.996,30.383,21.342,31.68,22.998,31.68z"/>
<path fill="#A6E639" d="M47.004,28.418c0,3.201-2.686,5.801-6.002,5.801c-3.313,0-6.002-2.6-6.002-5.801H47.004z"/>
<path fill="#302C3B" d="M44.002,28.779c0,1.604-1.344,2.9-3,2.9s-3-1.297-3-2.9H44.002z"/>
<path fill="#302C3B" d="M51.506,28.623c0,0.414-8.736,0.752-19.506,0.752c-10.771,0-19.506-0.338-19.506-0.752
	c0-0.41,8.734-0.746,19.506-0.746C42.77,27.877,51.506,28.213,51.506,28.623z"/>
</svg>
