<?xml version="1.0" encoding="utf-8"?>
<!-- Generator: Adobe Illustrator 15.0.0, SVG Export Plug-In . SVG Version: 6.00 Build 0)  -->
<!DOCTYPE svg PUBLIC "-//W3C//DTD SVG 1.1//EN" "http://www.w3.org/Graphics/SVG/1.1/DTD/svg11.dtd">
<svg version="1.1" id="Layer_1" xmlns="http://www.w3.org/2000/svg" xmlns:xlink="http://www.w3.org/1999/xlink" x="0px" y="0px"
	 width="64px" height="64px" viewBox="0 0 64 64" enable-background="new 0 0 64 64" xml:space="preserve">
<path fill="#D47706" d="M29.265,34.768c-1.602-5.83,1.381-11.941-2.465-9.48c-6.494,4.154-8.021,4.245-7.95,5.192
	c-1.51,2.811-5.081,4.615-4.934,5.373c-2.554,2.398-3.374,8.116-2.682,6.432c1.558-3.783,4.313-5.287,3.715-6.07
	c0.904-1.978,4.688-3.149,4.541-4.102c0.863-1.236,4.981-1.82,6.569-3.396c-0.877,1.015,1.281,2.91,0.8,8.394
	C26.782,37.98,29.495,35.604,29.265,34.768z"/>
<path fill="#F9B700" d="M27.327,25.844c-2.218,1.3-6.149,3.098,0.408-0.687c0.965-0.557,0.788,0.818,0.811,2.675
	c0.01,0.831-0.197,0.616-0.246,0.087C28.155,26.387,28.194,25.336,27.327,25.844z"/>
<path fill="#EA8800" d="M19.201,38.966c-0.996-3.776,0.705-7.69-1.535-6.142c-3.781,2.611-4.681,2.654-4.627,3.266
	c-0.866,1.797-2.948,2.924-2.854,3.416c-1.481,1.519-1.911,5.199-1.521,4.119c0.88-2.422,2.487-3.366,2.13-3.876
	c0.515-1.267,2.728-1.983,2.63-2.599c0.5-0.789,2.915-1.122,3.838-2.121c-0.51,0.644,0.777,1.89,0.543,5.421
	C17.771,41.012,19.346,39.508,19.201,38.966z"/>
<path fill="#F9C802" d="M17.762,33.415c-1.533,0.977-4.266,2.349,0.27-0.497c0.667-0.418,0.58,0.559,0.647,1.873
	c0.03,0.588-0.122,0.441-0.172,0.067C18.364,33.777,18.362,33.033,17.762,33.415z"/>
<path fill="#EA8800" d="M23.166,36.294c-1.604-5.829,1.382-11.94-2.467-9.481c-6.491,4.154-8.021,4.245-7.95,5.193
	c-1.51,2.811-5.078,4.614-4.931,5.372c-2.554,2.399-3.376,8.117-2.682,6.434c1.555-3.785,4.309-5.289,3.714-6.071
	c0.905-1.978,4.688-3.15,4.539-4.102c0.864-1.236,4.983-1.821,6.57-3.396c-0.878,1.014,1.283,2.91,0.802,8.394
	C20.682,39.506,23.395,37.129,23.166,36.294z"/>
<path fill="#F9C802" d="M20.635,27.927c-3.327,1.95-9.224,4.646,0.611-1.03c1.448-0.836,1.182,1.226,1.216,4.011
	c0.016,1.248-0.294,0.925-0.368,0.131C21.878,28.742,21.936,27.165,20.635,27.927z"/>
<path fill="#AB5C10" d="M34.799,11.856l-6.661-0.252c-1.148,4.251,6.234,3.491,6.234,5.281c0,0.649-1.057,1.277-0.147,1.003
	C37.663,16.853,37.021,12.483,34.799,11.856z"/>
<path fill="#733E0B" d="M34.696,11.953l-1.322,0.825c2.577,1.238,2.347,3.11,2.016,3.951C35.15,17.336,38.003,14.55,34.696,11.953z"
	/>
<path fill="#F59E01" d="M48.501,14.979c1.617-2.021,1.863-5.571-0.153-7.056c0,0-0.429-5.046-4.255-5.128
	c-5.703-2.709-8.92,2.386-8.92,2.386c-4.016,0.558-11.121,8.741-4.643,8.106c2.928-0.287,5.752-1.682,7.363-5.393
	c0.978,0,2.229-0.172,3.729-0.73c0.224,1.372,0.915,2.286,1.731,3.126c-1.585,2.997-0.042,4.901-0.042,4.901
	c-5.995,3.131-6.656,8.129-6.656,8.129l10.415,3.526C50.638,22.626,50.414,17.438,48.501,14.979z"/>
<path fill="#D47706" d="M37.538,7.256c-1.173,4.363-8.875,7.743-9.621,4.697c-0.643,3.363,7.68,2.658,10.035-3.872
	c0,0,3.271,0.238,4.148-1.38C40.051,7.938,37.538,7.256,37.538,7.256z"/>
<path fill="#F9C802" d="M36.249,6.146c-5.295,1.144-7.943,5.638-7.943,5.638s1.762-4.845,7.315-6.329
	c0.331-0.96,3.554-4.324,7.977-2.472C38.349,2,36.249,6.146,36.249,6.146z"/>
<path fill="#D47706" d="M48.942,15.063c1.618-2.021,1.588-5.703-0.43-7.188c0,0-0.594-4.999-4.42-5.081
	c2.084,0.442,3.848,3.807,2.966,5.636c1.808,1.407,1.411,5.406,0.199,6.612c1.667,5.542-3.229,5.257-4.188,8.517l3.956,3.626
	C50.592,22.967,50.856,17.522,48.942,15.063z"/>
<path fill="#733E0B" d="M46.859,29.225c1.313-3.213-1.288-4.737-1.288-4.737c-3.306,0-30.18,14.518-30.18,14.518
	c-0.959,2.383,0.43,4.48,3.292,4.205C23.179,48.797,42.101,41.148,46.859,29.225z"/>
<path fill="#AB5C10" d="M32.869,25.194c-1.538,0.127-4.962,2.77-5.095,3.925c-2.404,0.338-5.749,3.271-5.879,4.362
	c-2.844,0.177-7.886,4.859-6.504,5.524c2.026-0.526,2.438,0.976,5.09,0.286c-0.343,2.261,8.797,3.384,11.654-2.519
	c1.652,0.086,5.795-3.135,5.96-4.908c1.373-0.016,4.765-2.066,4.974-3.823C51.075,22.578,38.391,17.26,32.869,25.194z"/>
<path fill="#D47706" d="M59.083,38.646c0.146-0.758-3.422-2.562-4.932-5.372c0.07-0.948-2.1-1.222-7.95-5.193
	c-2.694-1.827-2.119,5.939-7.343,7.24c-0.871,0.217-0.417,3.519,0.471,3.332c6.339-1.338,5.953-8.287,7.611-7.143
	c1.588,1.575,5.707,2.16,6.57,3.396c-0.148,0.952,3.634,2.125,4.539,4.103c-0.595,0.781,2.159,2.286,3.715,6.07
	C62.458,46.762,61.637,41.045,59.083,38.646z"/>
<path fill="#F9B700" d="M46.629,29.47c3.661,2.116,11.867,6.368-0.298-0.809c-1.376-0.812-1.63,0.408-2.543,2.358
	c-0.4,0.858-0.107,0.651,0.313,0.174C45.313,29.812,45.3,28.702,46.629,29.47z"/>
<path fill="#EA8800" d="M47.517,44.353c0.555-0.559-1.016-2.941-0.688-6.089c0.598-0.758-0.84-1.54-6.693-5.51
	c-2.692-1.827-2.12,5.938-7.343,7.238c-0.87,0.217-0.417,3.52,0.471,3.332c6.339-1.338,5.954-8.285,7.612-7.141
	c1.588,1.574,4.469,1.626,4.49,3.113c-0.664,0.721,1.444,2.688,1.081,4.82c-0.944,0.342,0.511,3.046-0.333,7.033
	C45.741,52.924,48.298,47.699,47.517,44.353z"/>
<path fill="#F9C802" d="M40.876,34.504c3.736,2.079,5.389,2.858-0.465-1.111c-1.319-0.895-1.865,0.508-2.672,2.334
	c-0.383,0.867-0.02,0.713,0.312,0.174C39.108,34.188,39.534,33.758,40.876,34.504z"/>
<path fill="#EA8800" d="M42.507,47.232c0.579-0.437-1.057-2.305-0.715-4.771c0.622-0.593-0.875-1.207-6.969-4.316
	c-2.803-1.432-2.206,4.652-7.644,5.672c-0.905,0.17-0.435,2.758,0.491,2.61c6.6-1.048,6.196-6.492,7.924-5.596
	c1.652,1.234,4.65,1.274,4.674,2.44c-0.69,0.565,1.506,2.105,1.125,3.777c-0.983,0.268,0.531,2.387-0.346,5.51
	C40.658,53.949,43.321,49.855,42.507,47.232z"/>
<path fill="#F9C802" d="M35.048,39.43c3.262,0.941,6.101,2.002-0.16-0.799c-1.465-0.654-1.713,0.471-2.957,2.2
	c-0.557,0.774-0.107,0.651,0.313,0.175C33.456,39.625,33.563,39,35.048,39.43z"/>
<path fill="#F9C802" d="M38.222,20.944c0,0,1.168-3.618,5.482-5.532c1.189,0.397,3.305-0.183,3.305-0.183
	C45.092,18.411,41.638,15.697,38.222,20.944z"/>
<path fill="#F9C802" d="M43.786,10.239c-1.24,1.793-0.496,4.073-0.496,4.073c0.116-3.549,2.844-3.406,3.389-5.564
	C46.679,8.748,44.778,10.287,43.786,10.239z"/>
<path fill="#F9C802" d="M42.101,7.11c0,0.781,0.777,1.923,0.777,1.923c-0.447-1.923,2.098-3.412,1.189-5.95
	C44.067,3.083,43.786,5.763,42.101,7.11z"/>
<path fill="#F59E01" d="M16.135,39.67c-5.309,1.689-9.008-1.02-9.496,2.092c-1.306,0.047-2.966,2.059-2.487,3.385
	c-4.63,4.019-0.925,13.219,3.017,15.49c0,0-4.557-8.205-1.163-13.16c2.317,2.139,3.088,7.691,1.731,12.418
	c3.262-4.758,2.845-12.407-0.268-14c0.979-0.271,2.12-1.777,2.054-2.69c1.868-1.136,3.95,1.022,7.473-1.4
	C17.825,41.234,16.662,39.502,16.135,39.67z"/>
<path fill="#EA8800" d="M7.737,59.895c3.837-4.685,2.613-12.93-0.268-14C10.268,49.607,9.54,57.028,7.737,59.895z"/>
<path fill="#F9C802" d="M4.281,45.384C0.602,49.018,2.72,56.107,6.028,59.336c-2.407-3.48-4.786-11.627,0.809-13.379
	C5.289,45.988,4.281,45.384,4.281,45.384z"/>
<path fill="#F9C802" d="M6.696,42.049c-2.412,0.813-2.247,2.876-2.247,2.876c1.024-2.538,3.008-1.031,4.776-1.777
	C9.226,43.147,7.039,42.847,6.696,42.049z"/>
<path fill="#F9C802" d="M16.201,39.981c-5.551,1.767-8.132-0.96-9.262,1.753c1.973-1.753,2.882,0.604,9.791-1.157
	C16.73,40.577,16.614,40.291,16.201,39.981z"/>
<path fill="#F59E01" d="M25.784,43.041c1.826,5.043,7.131,6.454,4.23,8.517c0.832,1.04-0.137,3.421-1.836,3.765
	c-1.048,5.775-13.09,7.867-18.104,6.03c0,0,11.584-0.893,14.437-6.212c-3.78-0.646-10.061,1.757-14.05,5.368
	c2.738-5.11,10.956-8.922,14.705-7.362c-0.377-0.909,0.417-2.611,1.409-3.053c-0.081-2.066-3.724-2.52-3.584-6.57
	C23.024,42.571,25.604,42.54,25.784,43.041z"/>
<path fill="#EA8800" d="M10.462,60.509c2.274-5.518,11.653-9.024,14.705-7.362C19.429,52.979,12.221,57.557,10.462,60.509z"/>
<path fill="#F9C802" d="M27.847,55.351c-1.291,4.825-10.074,7.013-15.653,6.187c5.233-0.01,15.288-2.566,13.336-7.865
	C26.54,54.894,27.847,55.351,27.847,55.351z"/>
<path fill="#F9C802" d="M29.679,51.668c0.781,2.316-1.47,3.303-1.47,3.303c1.943-2.17-0.958-2.896-1.376-4.676
	C26.833,50.295,28.62,51.833,29.679,51.668z"/>
<path fill="#F9C802" d="M25.417,43.158c1.91,5.272,6.477,5.805,4.424,8.15c0.489-2.482-2.569-1.914-5.397-8.24
	C24.443,43.068,24.817,43.004,25.417,43.158z"/>
<path fill="#302C3B" d="M20.47,38.656c-2.96,0.283-2.434-1.385-1.7-1.947C19.525,36.133,19.702,37.873,20.47,38.656z"/>
<path fill="#6E8189" d="M19.214,36.795c0.225,0.072-0.717,0.414-0.846,1.223C18.198,37.531,18.678,36.621,19.214,36.795z"/>
<path fill="#302C3B" d="M25.513,39.002c0,0-1.521,1.947-4.081-0.135C21.432,38.867,24.417,35.392,25.513,39.002z"/>
<path fill="#6E8189" d="M24.143,37.693c0.225,0.088-1.356,0.525-2.248,1.201C22.485,37.923,23.607,37.482,24.143,37.693z"/>
<path fill="#733E0B" d="M42.722,27.684c-2.807-2.423-7.332-3.246-9.517-2.451C37.218,22.503,41.887,25.64,42.722,27.684z"/>
<path fill="#733E0B" d="M37.878,31.56c-2.807-2.423-7.509-3.247-9.693-2.451C32.197,26.379,37.042,29.516,37.878,31.56z"/>
<path fill="#733E0B" d="M31.938,36.341c-2.807-2.423-7.708-3.669-9.893-2.873C26.059,30.738,31.103,34.297,31.938,36.341z"/>
<path fill="#D47706" d="M22.194,33.767c-2.297,0.333-4.157,2.03-5.803,3.47c6.071-3.889,6.415-1.144,12.354-2.455
	C28.745,34.781,25.157,33.337,22.194,33.767z"/>
<path fill="#D47706" d="M28.185,29.462c-2.297,0.333-3.923,1.87-4.601,2.722c3.954-2.82,5.888-0.237,10.156-2.041
	C33.739,30.143,31.147,29.032,28.185,29.462z"/>
<path fill="#D47706" d="M33.511,25.534c-2.297,0.333-3.923,1.87-4.602,2.722c3.954-2.821,5.889-0.237,10.157-2.042
	C39.066,26.214,36.474,25.104,33.511,25.534z"/>
<path fill="#D47706" d="M42.787,22.008c-2.599-1.076-6.913,0.079-8.319,2.089C37.743,21.897,44.684,22.793,42.787,22.008z"/>
</svg>
