<?xml version="1.0" encoding="utf-8"?>
<!-- Generator: Adobe Illustrator 15.0.0, SVG Export Plug-In . SVG Version: 6.00 Build 0)  -->
<!DOCTYPE svg PUBLIC "-//W3C//DTD SVG 1.1//EN" "http://www.w3.org/Graphics/SVG/1.1/DTD/svg11.dtd">
<svg version="1.1" id="Layer_1" xmlns="http://www.w3.org/2000/svg" xmlns:xlink="http://www.w3.org/1999/xlink" x="0px" y="0px"
	 width="64px" height="64px" viewBox="0 0 64 64" enable-background="new 0 0 64 64" xml:space="preserve">
<polygon fill="#F46C60" points="2,2 6.433,7.938 7.865,6.379 "/>
<polygon fill="#FFE12C" points="9.086,11.492 11.429,9.039 7.475,6.086 6.433,7.938 "/>
<polygon fill="#D3FF75" points="11.633,14.904 15.147,11.814 11.116,8.805 9.086,11.492 "/>
<polygon fill="#59FFBA" points="14.078,18.182 19.12,14.779 14.905,11.633 11.633,14.904 "/>
<path fill="#75D6FF" d="M16.429,21.332c2.178-1.229,6.534-3.686,6.534-3.686l-4.113-3.07l-4.771,3.605L16.429,21.332z"/>
<polygon fill="#C28FEF" points="22.963,17.646 16.265,21.111 20.324,26.553 25.181,21.697 26.552,20.324 "/>
<path fill="#E84D88" d="M32.339,17.773c0,0,4.222-7.141,22.184-8.824c-18.286-1.924-23.563,4.66-23.563,4.66
	S31.67,16.328,32.339,17.773z"/>
<path fill="#E84D88" d="M31.142,18.771c0,0,9.039-6.307,25.127-5.188l-14.678,7.148c0,0,8.442,1.178,19.828,1.871l-11.884,3.939
	c0,0,4.245,2.635,11.753,5.115l-8.013,1.221c0,0,6.33,0.377,8.725,6.16l-5.524-0.375c0,0,2.455,5.887,5.524,9.309l-5.208-2.949
	c0,0,2.979,5.061,5.208,10.113l-5.427-1.561C59.105,59.436,61.374,62,61.374,62C47.793,57.811,31.142,18.771,31.142,18.771z"/>
<path fill="#FF8FA8" d="M29.376,20.369c0,0,11.938-5.418,28.682-1.598L39.825,22.33c0,0,12.196,0.617,19.629,5.793l-11.686,0.02
	c0,0,7.326,1.684,10.63,7.064l-6.889-0.73c0,0,7.508,3.213,10.49,9.576l-7.29-3.789c0,0,5.793,3.072,5.007,13.396l-4.234-8.637
	c0,0,1.571,10.66,4.751,13.189l-4.391-0.148c1.996,2.213,3,5.936,3,5.936h-2.574L29.376,20.369z"/>
<path fill="#99A8AE" d="M28.18,18.992c0,0-0.646-4.396,2.599-10.861c0,0,4.117,5.098,5.103,14.188L28.18,18.992z"/>
<path fill="#E6EBEF" d="M10.407,53.887c1.466,1.043,5.023-2.992,9.015-3.738c15.011-2.82,12.235-8.572,12.235-8.572
	c4.068,5.148-2.176,19.111-5.767,22.424h30.378C56.05,24.049,31.142,18.771,31.142,18.771C30.299,11.539,24.123,8,24.123,8
	c-1.851,4.486-1.003,12.451-1.003,12.451C20.011,25.922,4.209,40.777,2.372,43.004c-1.842,2.225,3.75,8.816,3.75,8.816
	C7.677,52.004,9.615,53.324,10.407,53.887z"/>
<path fill="#99A8AE" d="M15.13,51.977c0.803-0.619,2.713-1.771,5.619-2.436c1.959-0.447,3.903-0.988,5.691-1.803
	c1.777-0.805,3.446-1.928,4.376-3.555c0.925-1.617,0.938-3.693,0.181-5.525c1.117,1.645,1.475,3.93,0.542,5.871
	c-0.913,1.951-2.776,3.25-4.651,4.117c-1.91,0.869-3.938,1.375-5.978,1.699C18.433,50.74,16.063,51.563,15.13,51.977z"/>
<path fill="#99A8AE" d="M6.223,45.826c-0.518,0.367-1.782,0.641-2.164,0.145c-0.384-0.496,0.263-1.578,0.778-1.943
	c0.514-0.363,1.244-0.258,1.626,0.238C6.847,44.762,6.737,45.463,6.223,45.826z"/>
<path fill="#99A8AE" d="M15.915,43.109c-0.117,2.305-1.275,4.566-3.057,6.209c-0.904,0.814-1.964,1.469-3.109,1.891
	c-1.143,0.428-2.359,0.623-3.557,0.605c2.281-0.693,4.355-1.664,5.988-3.18c0.822-0.742,1.535-1.6,2.155-2.525
	C14.941,45.172,15.491,44.184,15.915,43.109z"/>
<path fill="#302C3B" d="M16.39,35.15c0,0,0.912-0.672,1.736-0.508c0,0-1.129,1.119-0.281,2.857c0,0,0.916-2.105,2.492-2.234
	c0,0-1.077,1.531,0.3,2.928c0,0,0.288-2.131,2.331-2.77c0,0-0.286,1.117,0.711,2.451c0,0-0.309-1.926,1.089-2.861
	c1.399-0.938,2.954-1.451,3.747-3.848c0,0-3.401,3.484-8.095,2.521C19.202,33.438,17.372,33.107,16.39,35.15z"/>
<path fill="#99A8AE" d="M25.446,21.641c-1.659-2.174-0.592-8.402-0.389-9.281c0.236-1.025,5.779,2.828,4.257,9.525
	c-0.134,0.605-0.424,1.17-1.003,1.162c-0.586-0.018-0.592-1.697-0.301-2.783c0.289-1.094-0.4-0.027-0.65,0.723
	c-0.252,0.762-0.451,0.162-0.401-0.637c0.052-0.797-0.584,0.799-0.431,1.662C26.68,22.867,26.566,23.109,25.446,21.641z"/>
<path fill="#99A8AE" d="M5.002,42.088c-0.526,0.322-0.433,0.521,0.029,0.35s2.716-0.744,2.905,1.639c0,0,0.127,1.066,0.412,0.008
	C8.632,43.02,7.956,40.275,5.002,42.088z"/>
<path fill="#E84D88" d="M22.962,18.031c0,0,2.719,11.049,13.52,16.592C36.481,34.623,9.856,28.752,22.962,18.031z"/>
<path fill="#E84D88" d="M31.142,18.771c0,0,6.789,17.969,20.78,23.045C38.103,28.641,41.524,21.191,30.523,16.006
	C30.523,16.006,30.472,17.324,31.142,18.771z"/>
<path fill="#99A8AE" d="M31.657,41.576c0,0,6.323,6.078,1.74,22.424h-7.507C25.891,64,35.249,50.789,31.657,41.576z"/>
</svg>
