<?xml version="1.0" encoding="utf-8"?>
<!-- Generator: Adobe Illustrator 15.0.0, SVG Export Plug-In . SVG Version: 6.00 Build 0)  -->
<!DOCTYPE svg PUBLIC "-//W3C//DTD SVG 1.1//EN" "http://www.w3.org/Graphics/SVG/1.1/DTD/svg11.dtd">
<svg version="1.1" id="Layer_1" xmlns="http://www.w3.org/2000/svg" xmlns:xlink="http://www.w3.org/1999/xlink" x="0px" y="0px"
	 width="64px" height="64px" viewBox="0 0 64 64" enable-background="new 0 0 64 64" xml:space="preserve">
<path fill="#EA8800" d="M57.891,30.273L38.412,12.465c0,0,14.387-12.836,20.254-10.077C61.523,3.731,60.48,26.64,57.891,30.273z"/>
<path fill="#FFFFFF" d="M56.395,29.033l-16.959-8.589c0,0,4.437-11.122,17.68-15.976C59.102,6.377,58.891,26.63,56.395,29.033z"/>
<path fill="#CFD8DD" d="M54.05,30.024l-14.289-7.236c0,0,3.738-9.375,14.896-13.461C56.331,10.933,56.153,27.998,54.05,30.024z"/>
<path fill="#EA8800" d="M6.109,30.273l19.479-17.808c0,0-14.387-12.836-20.254-10.077C2.477,3.731,3.52,26.64,6.109,30.273z"/>
<path fill="#FFFFFF" d="M7.605,29.033l16.959-8.589c0,0-4.437-11.122-17.68-15.976C4.898,6.377,5.109,26.63,7.605,29.033z"/>
<path fill="#CFD8DD" d="M9.95,30.024l14.289-7.236c0,0-3.738-9.375-14.896-13.461C7.669,10.933,7.847,27.998,9.95,30.024z"/>
<polygon fill="#EA8800" points="32,10.616 32,10.616 32,10.616 "/>
<path fill="#EA8800" d="M52.573,46.395C57.187,45.906,62,47.723,62,47.723s-0.473-15.819-7.05-25.34
	c-0.613-3.866,0.066-6.938,0.066-6.938c-1.205,0.205-2.131,0.826-2.844,1.592c-0.097-3.525,0.431-6.42,0.431-6.42
	c-2.241,1.904-3.552,4.037-4.302,5.693C43.52,12.95,37.125,10.616,32,10.616s-11.52,2.334-16.302,5.693
	c-0.75-1.656-2.061-3.789-4.302-5.693c0,0,0.527,2.895,0.431,6.42c-0.713-0.766-1.639-1.387-2.844-1.592c0,0,0.68,3.072,0.066,6.938
	C2.473,31.904,2,47.723,2,47.723s4.813-1.816,9.427-1.328c-2.832,1.699-4.732,7.861-4.732,7.861s8.433-5.586,11.77-2.49
	C21.577,54.646,19.286,61.99,32,62c12.714-0.01,10.423-7.354,13.536-10.234c3.337-3.096,11.77,2.49,11.77,2.49
	S55.405,48.094,52.573,46.395z"/>
<path fill="#FFFFFF" d="M60.405,45.994C51.312,36.684,39.067,46.873,32,46.521c-7.067,0.352-19.312-9.838-28.405-0.527
	c3.531-1.406,7.406-1.533,10.238-0.029c-3.094,1.719-4.676,5.654-4.676,5.654s6.095-4.219,9.97-1.152
	c4.352,3.438,0.658,9.951,12.873,9.951s8.521-6.514,12.873-9.951c3.875-3.066,9.97,1.152,9.97,1.152s-1.582-3.936-4.676-5.654
	C52.999,44.461,56.874,44.588,60.405,45.994z"/>
<path fill="#EA8800" d="M25.684,52.527c2.918,2.207,9.792,2.152,12.629,0c0.913-0.688,2.651-15.443-6.312-15.443
	C23.034,37.084,24.77,51.84,25.684,52.527z"/>
<path fill="#302C3B" d="M37.965,57.436c-0.677,0.439-1.459,0.623-2.215,0.586c-0.765-0.064-1.488-0.322-2.068-0.824
	c-0.579-0.477-1.007-1.162-1.131-1.914h-1.102c-0.125,0.752-0.552,1.438-1.133,1.914c-0.566,0.502-1.328,0.76-2.048,0.824
	c-0.796,0.037-1.544-0.146-2.232-0.586c-0.682-0.439-1.247-1.135-1.536-2.033c0.039,0.961,0.525,1.887,1.218,2.527
	c0.688,0.648,1.629,1.025,2.517,1.061c0.961,0.064,1.892-0.229,2.698-0.822c0.417-0.313,0.78-0.732,1.068-1.209
	c0.286,0.477,0.649,0.896,1.066,1.209c0.796,0.586,1.762,0.887,2.683,0.822c0.927-0.045,1.834-0.42,2.532-1.061
	c0.693-0.641,1.177-1.576,1.218-2.527C39.212,56.301,38.646,57.004,37.965,57.436z"/>
<path fill="#302C3B" d="M25.268,51.311c0-3.104,3.018-3.697,6.733-3.697c3.719,0,6.729,0.594,6.729,3.697
	c0,2.471-5.354,4.66-6.729,4.66C30.629,55.971,25.268,53.781,25.268,51.311z"/>
<path fill="#4E5E67" d="M26.158,51.4c0-2.535,2.536-3.02,5.665-3.02C35.993,48.381,26.158,55.146,26.158,51.4z"/>
<path fill="#302C3B" d="M24.823,34.145c0,3.203-2.018,5.795-4.512,5.795c-2.49,0-4.508-2.592-4.508-5.795
	c0-3.203,2.018-5.8,4.508-5.8C22.806,28.344,24.823,30.942,24.823,34.145z"/>
<path id="Shape_32_" fill="#FFFFFF" d="M19.989,31.611c0,1.997-2.252,1.997-2.252,0C17.737,29.604,19.989,29.604,19.989,31.611
	L19.989,31.611z"/>
<ellipse fill="#302C3B" cx="43.687" cy="34.145" rx="4.51" ry="5.795"/>
<path id="Shape_31_" fill="#FFFFFF" d="M43.362,31.611c0,1.997-2.252,1.997-2.252,0C41.11,29.604,43.362,29.604,43.362,31.611
	L43.362,31.611z"/>
</svg>
