<?xml version="1.0" encoding="utf-8"?>
<!-- Generator: Adobe Illustrator 15.0.0, SVG Export Plug-In . SVG Version: 6.00 Build 0)  -->
<!DOCTYPE svg PUBLIC "-//W3C//DTD SVG 1.1//EN" "http://www.w3.org/Graphics/SVG/1.1/DTD/svg11.dtd">
<svg version="1.1" id="Layer_1" xmlns="http://www.w3.org/2000/svg" xmlns:xlink="http://www.w3.org/1999/xlink" x="0px" y="0px"
	 width="64px" height="64px" viewBox="0 0 64 64" enable-background="new 0 0 64 64" xml:space="preserve">
<path fill="#F59E01" d="M27.452,44.76c0,0,2.262,2.125,2.671,4.346c0.241,1.313-0.067,3.844-0.831,5.497
	c2.937,3.161-0.588,1.047-0.96,1.321c-3.991,2.938-11.793,2.5-11.793,2.5s2.539-0.988,2.388-1.712
	c-0.166-0.801-3.173-0.666-3.173-0.666s2.861-0.229,2.985-1.015c0.072-0.459-1.414-0.666-1.414-0.666s4.252-0.852,9.28-0.281
	c1.324,0.15,1.98-4.038,1.508-5.296c-0.446-1.187-3.362-3.394-3.362-3.394L27.452,44.76z"/>
<path fill="#EBBB96" d="M34.091,45.677c0,4.603-9.922,4.603-9.922,0C24.169,43.234,34.091,43.234,34.091,45.677z"/>
<path fill="#785647" d="M59.854,31.764c0,0-4.797,1.318-12.922-0.807C48.369,42.895,59.854,31.764,59.854,31.764z"/>
<path fill="#B47D56" d="M20.557,24.977c0.673,1.119,2.009,1.277,2.009,1.277c-2.294,0.848-17.162,8.758-3.777,19.732
	c-8.86-2.221-13.992-12.738-7.708-21.946C12.394,22.117,19.356,22.981,20.557,24.977z"/>
<path fill="#F59E01" d="M36.689,48.313c0,0,2.262,2.125,2.67,4.345c0.242,1.312-0.066,3.844-0.83,5.497
	c2.936,3.161-0.588,1.047-0.961,1.322c-3.99,2.938-11.792,2.5-11.792,2.5s2.539-0.989,2.388-1.713
	c-0.166-0.801-3.174-0.666-3.174-0.666s2.861-0.229,2.984-1.015c0.072-0.459-1.414-0.666-1.414-0.666s4.253-0.852,9.28-0.28
	c1.325,0.15,1.981-4.039,1.509-5.297c-0.447-1.187-3.363-3.394-3.363-3.394L36.689,48.313z"/>
<path fill="#E6EBEF" d="M12.872,20.847c-1.11,2.738-2.245,3.402-2.011,3.869c1.403,2.797,6.347,3.183,9.594,0.814
	c0.566-0.413-0.314-0.677-0.482-2.178C19.774,21.57,13.545,19.187,12.872,20.847z"/>
<path fill="#92C932" d="M12.872,20.847c3.991-7.323-3.619-4.547-3.328-12.496c0.343-9.385,13.572-7.897,13.572,1.364
	c0,6.096-3.254,8.873-3.142,13.638C20.036,26.017,10.145,25.852,12.872,20.847z"/>
<path fill="#F59E01" d="M2.406,12.146c1.128,2.313,7.199,2.517,9.87,1.121c1.449-0.757,0.974-1.808,0.974-1.808
	S0.555,8.351,2.406,12.146z"/>
<path fill="#FFE12C" d="M10.01,5.856c-4.05,4.334-7.695,3.161-7.978,4.334c-0.19,0.791,0.472,2.062,1.948,2.379
	c2.267,0.487,6.648,0.698,9.319-0.698c1.449-0.757-3.763-1.839-2.029-4.916C11.27,6.956,10.264,6.892,10.01,5.856z"/>
<path fill="#302C3B" d="M15.065,9.409c-2.012,0-2.012-3.553,0-3.553C17.075,5.856,17.075,9.409,15.065,9.409z"/>
<path fill="#302C3B" d="M8.872,8.94C8.475,8.54,9.432,7.574,9.828,7.975C10.225,8.375,9.268,9.34,8.872,8.94z"/>
<path id="Shape_3_" fill="#FFFFFF" d="M14.794,7.011c0,0.62-0.843,0.62-0.843,0S14.794,6.392,14.794,7.011L14.794,7.011z"/>
<path fill="#FED0AC" d="M29.872,47.336c5.488,5.498,9.939-0.959,9.939-0.959c11.27-1.226,18.057-6.427,18.057-6.427
	c-5.195,1.015-7.877,0.127-7.877,0.127c5.404-0.507-9.258-18.733-25.387-15.942C8.623,26.9,6.085,49.264,29.872,47.336z"/>
<path fill="#D6A57C" d="M22.686,40.763c13.929,5.695,25.429,2.503,25.429,2.503c-10.061-1.714-13.717-10.297-25.526-11.55
	C15.619,30.977,7.465,34.541,22.686,40.763z"/>
<path fill="#B47D56" d="M27.327,40.755C47.619,45.561,62,34.674,62,34.674c-13.937,1.045-21.395-13.556-37.523-10.902
	C14.958,25.337,5.153,35.504,27.327,40.755z"/>
<path fill="#785647" d="M30.202,39.846c-2.891-0.698-4.242-1.871-4.242-1.871c13.228,2.029,22.126-4.85,22.126-4.85
	c-3.086,0.25-5.787-1.049-5.787-1.049c1.508-0.698,4.021-0.364,4.021-0.364s-7.499-9.559-20.329-8.58
	C13.806,24.062,2.017,41.367,30.202,39.846z"/>
<path fill="#594640" d="M46.32,31.711c0,0-8.357-4.487-18.544-3.504c-2.266,0.219,8.218,0.542,14.523,3.868
	C44.072,31.5,46.32,31.711,46.32,31.711z"/>
<path fill="#594640" d="M39.354,37.175c0,0-6.953,1.157-14.109-0.671c-2.205-0.563-0.537,0.578,0.715,1.471
	C33.078,39.332,39.354,37.175,39.354,37.175z"/>
</svg>
