<?xml version="1.0" encoding="utf-8"?>
<!-- Generator: Adobe Illustrator 15.0.0, SVG Export Plug-In . SVG Version: 6.00 Build 0)  -->
<!DOCTYPE svg PUBLIC "-//W3C//DTD SVG 1.1//EN" "http://www.w3.org/Graphics/SVG/1.1/DTD/svg11.dtd">
<svg version="1.1" id="Layer_1" xmlns="http://www.w3.org/2000/svg" xmlns:xlink="http://www.w3.org/1999/xlink" x="0px" y="0px"
	 width="64px" height="64px" viewBox="0 0 64 64" enable-background="new 0 0 64 64" xml:space="preserve">
<path fill="#C21413" d="M27.457,5.412c-0.641,0.303-3.119,3.409-4.648,3.409c-1.531,0,0.369-2.705,2.408-4.763
	C27.258,2,28.018,1.152,23.893,3.088c-2.342,1.102-3.787,2.209-4.711,3.296c-2.74,5.035-4.146,10.418-3.951,10.784
	c-0.541,3.077,0.691,7.217,5.619,11.287h1.754c0,0-10.975-10.587,1.059-17.415C27.621,7.815,27.98,5.164,27.457,5.412z"/>
<path fill="#E81C27" d="M14.738,15.847c-0.92-3.799,1.268-7.279,3.125-9.386c1.857-2.104,0.734,1.088,2.691,2.188
	c1.959,1.101,4.984,2.367,2.246,5.858s-2.182,4.019-4.334,4.374C17.465,19.051,15.453,18.791,14.738,15.847z"/>
<path fill="#F89987" d="M19.025,8.472c-0.285-0.421-0.459-0.867-0.578-1.25c-1.465,1.694-3.637,4.92-2.801,8.395
	C16.15,12.794,17.639,10.287,19.025,8.472z"/>
<path fill="#C21413" d="M40.34,11.04c12.033,6.827,1.059,17.415,1.059,17.415h1.754c4.928-4.07,6.158-8.209,5.619-11.287
	c0.195-0.366-1.211-5.749-3.951-10.784c-0.926-1.087-2.369-2.194-4.711-3.296C35.984,1.152,36.744,2,38.785,4.059
	c2.039,2.058,3.938,4.763,2.408,4.763s-4.008-3.106-4.65-3.409C36.021,5.164,36.379,7.815,40.34,11.04z"/>
<path fill="#E81C27" d="M45.535,18.882c-2.152-0.355-1.598-0.883-4.334-4.374c-2.738-3.491,0.287-4.758,2.246-5.858
	c1.957-1.101,0.834-4.292,2.689-2.188c1.859,2.106,4.047,5.587,3.127,9.386C48.549,18.791,46.537,19.051,45.535,18.882z"/>
<path fill="#F89987" d="M48.354,15.616c0.838-3.475-1.336-6.7-2.799-8.395c-0.121,0.383-0.293,0.829-0.578,1.25
	C46.363,10.287,47.85,12.794,48.354,15.616z"/>
<path fill="#C21413" d="M4.834,35.433c0.141,0.084,0.291,0.135,0.436,0.143c0.469,0.02,1.822-1.332,3.49-2.428
	c0.506,0.154,1.951-0.15,3.658-0.333c1.023,0.757,4.896,1.785,7.465,3.865c0,0,1.398-0.332,0.725-2.328c0,0-5.184-4.917-6.785-4.445
	c-0.316,0.094-0.574,0.23-0.803,0.387c-1.711-0.264-3.738-0.43-4.281,0.143c-0.258,0.271-0.426,0.561-0.525,0.84
	c-1.475,0.529-3.805,1.486-4,2.292c-0.074,0.309-0.08,0.588-0.039,0.836C3.426,35.298,2.393,37.028,2,40.05
	C2,40.05,2.588,37.737,4.834,35.433z"/>
<path fill="#C21413" d="M16.609,52.337c0.436-0.305,1.104-1.641,2.031-3.105c1.227-0.336,4.438-2.758,7.643-3.488
	c0,0,0.617-1.313-1.34-2.029c0,0-7.025,1.027-7.668,2.588c-0.125,0.311-0.182,0.602-0.205,0.877
	c-1.271,1.189-2.668,2.689-2.564,3.477c0.049,0.375,0.164,0.688,0.318,0.941c-0.514,1.498-1.234,3.939-0.736,4.6
	c0.189,0.252,0.402,0.43,0.619,0.553c0.223,1.152,0.912,3.051,2.992,5.25c0,0-1.414-1.912-1.785-5.127
	c0.152-0.061,0.285-0.146,0.381-0.258C16.604,56.255,16.41,54.341,16.609,52.337z"/>
<path fill="#C21413" d="M9.434,54.054c0.152-0.059,0.287-0.145,0.381-0.256c0.311-0.357,0.115-2.273,0.316-4.277
	c0.436-0.305,1.102-1.639,2.031-3.104c1.225-0.336,4.436-2.756,7.643-3.486c0,0,0.617-1.314-1.34-2.031c0,0-7.027,1.027-7.666,2.59
	c-0.127,0.309-0.182,0.598-0.205,0.875c-1.273,1.189-2.668,2.689-2.566,3.477c0.049,0.375,0.164,0.688,0.318,0.943
	c-0.514,1.496-1.234,3.938-0.736,4.598c0.189,0.252,0.402,0.43,0.619,0.553c0.223,1.152,0.91,3.051,2.99,5.25
	C11.217,59.183,9.805,57.271,9.434,54.054z"/>
<path fill="#C21413" d="M11.646,39.159c1.217,0.363,5.205,0.014,8.311,1.098c0,0,1.209-0.789-0.086-2.439
	c0,0-6.514-2.867-7.865-1.879c-0.268,0.195-0.465,0.414-0.629,0.637c-1.699,0.336-3.664,0.867-3.984,1.592
	c-0.152,0.346-0.215,0.674-0.217,0.973c-1.211,1-3.092,2.695-3.008,3.521c0.031,0.314,0.119,0.58,0.24,0.801
	C4,44.56,3.602,46.542,4.232,49.519c0,0-0.213-2.377,1.139-5.313c0.16,0.031,0.318,0.027,0.457-0.018
	c0.447-0.139,1.275-1.873,2.484-3.471C8.84,40.69,10.098,39.911,11.646,39.159z"/>
<path fill="#C21413" d="M44.117,36.679c2.566-2.08,6.441-3.107,7.467-3.865c1.707,0.184,3.148,0.488,3.656,0.332
	c1.668,1.096,3.021,2.447,3.49,2.428c0.146-0.008,0.295-0.059,0.438-0.143C61.412,37.737,62,40.048,62,40.048
	c-0.395-3.02-1.424-4.752-2.174-5.648c0.041-0.246,0.035-0.525-0.037-0.834c-0.195-0.806-2.527-1.763-4-2.292
	c-0.104-0.279-0.27-0.566-0.527-0.84c-0.541-0.57-2.568-0.406-4.281-0.143c-0.227-0.156-0.484-0.293-0.801-0.387
	c-1.604-0.473-6.787,4.445-6.787,4.445C42.721,36.347,44.117,36.679,44.117,36.679z"/>
<path fill="#C21413" d="M49.494,50.653c0.104-0.785-1.293-2.285-2.564-3.477c-0.023-0.277-0.08-0.568-0.205-0.877
	c-0.643-1.561-7.668-2.588-7.668-2.588c-1.957,0.717-1.338,2.029-1.338,2.029c3.203,0.73,6.416,3.152,7.641,3.488
	c0.93,1.467,1.598,2.801,2.031,3.105c0.201,2.004,0.006,3.918,0.314,4.273c0.096,0.113,0.229,0.199,0.383,0.26
	c-0.373,3.217-1.785,5.129-1.785,5.129c2.08-2.199,2.768-4.098,2.99-5.25c0.217-0.123,0.428-0.301,0.619-0.553
	c0.498-0.658-0.225-3.102-0.736-4.6C49.33,51.341,49.445,51.028,49.494,50.653z"/>
<path fill="#C21413" d="M55.975,47.839c0.102-0.787-1.293-2.287-2.566-3.477c-0.023-0.277-0.078-0.566-0.205-0.875
	c-0.641-1.563-7.666-2.59-7.666-2.59c-1.957,0.717-1.34,2.031-1.34,2.031c3.205,0.73,6.418,3.15,7.643,3.486
	c0.928,1.465,1.596,2.799,2.031,3.104c0.199,2.004,0.006,3.92,0.314,4.277c0.096,0.111,0.229,0.197,0.381,0.256
	c-0.371,3.219-1.783,5.129-1.783,5.129c2.078-2.199,2.768-4.098,2.99-5.25c0.217-0.123,0.428-0.301,0.619-0.553
	c0.498-0.66-0.225-3.104-0.736-4.598C55.809,48.524,55.926,48.214,55.975,47.839z"/>
<path fill="#C21413" d="M59.834,42.661c0.082-0.826-1.797-2.521-3.008-3.521c-0.002-0.301-0.064-0.627-0.221-0.973
	c-0.318-0.725-2.283-1.258-3.982-1.592c-0.164-0.225-0.361-0.441-0.627-0.637c-1.355-0.988-7.865,1.877-7.865,1.877
	c-1.297,1.652-0.088,2.439-0.088,2.439c3.104-1.084,7.094-0.732,8.311-1.098c1.549,0.754,2.809,1.533,3.336,1.561
	c1.209,1.598,2.035,3.332,2.482,3.471c0.141,0.045,0.299,0.049,0.459,0.018c1.35,2.936,1.137,5.313,1.137,5.313
	c0.631-2.979,0.232-4.961-0.174-6.059C59.715,43.241,59.803,42.976,59.834,42.661z"/>
<path fill="#E81C27" d="M37.941,26.568c-0.818,0-1.131-1.459-1.441-1.459c-0.273,0-0.088,0.764-0.643,1.156
	c-0.246,0.178-0.674,0.076-0.883-0.154c-0.676-0.744-0.375-1.789-0.725-1.789c-0.334,0-0.018,1.021-0.711,1.634
	c-0.211,0.184-0.627,0.17-0.832-0.031c-0.656-0.635-0.379-1.603-0.707-1.603s-0.051,0.97-0.707,1.603
	c-0.205,0.201-0.623,0.215-0.832,0.031c-0.695-0.611-0.377-1.634-0.711-1.634c-0.352,0-0.049,1.044-0.727,1.789
	c-0.207,0.23-0.637,0.332-0.883,0.154c-0.553-0.393-0.369-1.156-0.643-1.156c-0.311,0-0.621,1.459-1.441,1.459
	C20,26.568,17,31.941,17,36.507c0,5.859,6.715,17.813,15,17.813s15-11.953,15-17.813C47,31.941,44,26.568,37.941,26.568z"/>
<path fill="#E81C27" d="M24.49,23.082c-0.582-1.942-1.57-1.041-1.271-0.153c0.303,0.884,1.887,4.477,0.541,7.467l0.568,0.422
	C24.328,30.818,25.91,27.818,24.49,23.082z"/>
<path fill="#E81C27" d="M39.51,23.082c0.582-1.942,1.57-1.041,1.271-0.153c-0.301,0.884-1.887,4.477-0.539,7.467l-0.568,0.422
	C39.672,30.818,38.092,27.818,39.51,23.082z"/>
<path opacity="0.5" fill="#F89987" enable-background="new    " d="M25.686,30.074c0.871,0,1.203-1.186,1.533-1.186
	c0.289,0,0.094,0.621,0.684,0.943c0.26,0.143,0.717,0.059,0.938-0.129c0.717-0.607,0.396-1.455,0.77-1.455
	c0.355,0,0.018,0.832,0.756,1.328c0.223,0.15,0.668,0.137,0.887-0.025c0.697-0.514,0.4-1.303,0.75-1.303s0.053,0.789,0.75,1.303
	c0.219,0.162,0.662,0.176,0.887,0.025c0.734-0.496,0.398-1.328,0.754-1.328c0.371,0,0.053,0.848,0.771,1.455
	c0.223,0.188,0.676,0.271,0.938,0.129c0.588-0.322,0.391-0.943,0.684-0.943c0.328,0,0.658,1.186,1.529,1.186
	c2.271,0,4.131,0.551,5.598,1.418c-1.414-1.771-3.523-3.012-6.34-3.012c-0.77,0-1.061-1.367-1.354-1.367
	c-0.256,0-0.082,0.717-0.602,1.086c-0.23,0.166-0.633,0.068-0.828-0.146c-0.633-0.699-0.352-1.678-0.68-1.678
	c-0.311,0-0.014,0.959-0.666,1.533c-0.195,0.172-0.588,0.156-0.779-0.029c-0.615-0.596-0.355-1.504-0.664-1.504
	s-0.047,0.908-0.662,1.504c-0.191,0.186-0.584,0.201-0.781,0.029c-0.648-0.574-0.354-1.533-0.666-1.533
	c-0.328,0-0.047,0.979-0.678,1.678c-0.197,0.217-0.6,0.313-0.83,0.146c-0.52-0.369-0.344-1.086-0.602-1.086
	c-0.291,0-0.582,1.367-1.352,1.367c-2.816,0-4.926,1.24-6.338,3.012C21.557,30.625,23.414,30.074,25.686,30.074z"/>
<path fill="#302C3B" d="M42.748,22.258c0,1.304-1.043,2.361-2.332,2.361c-1.287,0-2.332-1.058-2.332-2.361
	c0-1.302,1.045-2.358,2.332-2.358C41.705,19.899,42.748,20.957,42.748,22.258z"/>
<path fill="#302C3B" d="M25.916,22.258c0,1.304-1.045,2.361-2.334,2.361c-1.285,0-2.332-1.058-2.332-2.361
	c0-1.302,1.047-2.358,2.332-2.358C24.871,19.899,25.916,20.957,25.916,22.258z"/>
<path id="Shape_83_" fill="#FFFFFF" d="M23.141,21.374c0,0.97-1.162,0.97-1.162,0S23.141,20.404,23.141,21.374L23.141,21.374z"/>
<path id="Shape_84_" fill="#FFFFFF" d="M39.972,21.376c0,0.97-1.162,0.97-1.162,0S39.972,20.406,39.972,21.376L39.972,21.376z"/>
</svg>
