<?xml version="1.0" encoding="utf-8"?>
<!-- Generator: Adobe Illustrator 15.0.0, SVG Export Plug-In . SVG Version: 6.00 Build 0)  -->
<!DOCTYPE svg PUBLIC "-//W3C//DTD SVG 1.1//EN" "http://www.w3.org/Graphics/SVG/1.1/DTD/svg11.dtd">
<svg version="1.1" id="Layer_1" xmlns="http://www.w3.org/2000/svg" xmlns:xlink="http://www.w3.org/1999/xlink" x="0px" y="0px"
	 width="64px" height="64px" viewBox="0 0 64 64" enable-background="new 0 0 64 64" xml:space="preserve">
<path fill="#45332C" d="M32.002,57.573c-28.265,0-28.265-50,0-50C60.262,7.573,60.262,57.573,32.002,57.573z"/>
<path fill="#45332C" d="M12.396,21.09c0,0-7.837,4.234-4.62,17.594c0,0,0.225-1.286,1.083-2.101c0,0-0.909,5.547,3.461,11.849
	c0,0,0.175-1.346,0.455-2.691c0.667,6.243,7.202,7.681,7.202,7.681L12.396,21.09z"/>
<path fill="#45332C" d="M51.604,21.09c0,0,7.837,4.234,4.62,17.594c0,0-0.225-1.286-1.083-2.101c0,0,0.909,5.547-3.461,11.849
	c0,0-0.175-1.346-0.455-2.691c-0.667,6.243-7.202,7.681-7.202,7.681L51.604,21.09z"/>
<path fill="#785647" d="M32.001,54.573c-22.611,0-22.611-40,0-40C54.609,14.573,54.609,54.573,32.001,54.573z"/>
<path fill="#785647" d="M16.316,25.387c0,0-6.27,3.388-3.696,14.074c0,0,0.18-1.028,0.867-1.681c0,0-0.728,4.438,2.769,9.48
	c0,0,0.14-1.077,0.364-2.153c0.533,4.993,5.761,6.144,5.761,6.144L16.316,25.387z"/>
<path fill="#785647" d="M47.684,25.387c0,0,6.27,3.388,3.696,14.074c0,0-0.18-1.028-0.867-1.681c0,0,0.728,4.438-2.769,9.48
	c0,0-0.14-1.077-0.364-2.153c-0.533,4.993-5.761,6.144-5.761,6.144L47.684,25.387z"/>
<path fill="#FFE8BB" d="M23.987,35.279c-1.25,3.359-3.098,4.234-3.098,4.234C28.256,41.412,32,31.484,32,31.484
	s3.744,9.928,11.112,8.029c0,0-1.849-0.875-3.101-4.234c3.264,2.125,6.028,0.324,6.028,0.324l-10.659-15.67h-6.762L17.96,35.604
	C17.96,35.604,20.723,37.404,23.987,35.279z"/>
<path fill="#FFE8BB" d="M32,44.723c0,0,4.545-15.572,0-15.572C27.46,29.15,32,44.723,32,44.723z"/>
<path fill="#FFE8BB" d="M37.437,41.605c0,0-2.209-12.748-5.324-10.668C29.002,33.016,37.437,41.605,37.437,41.605z"/>
<path fill="#FFE8BB" d="M31.889,30.938c-3.114-2.08-5.323,10.668-5.323,10.668S35,33.016,31.889,30.938z"/>
<path fill="#F59E01" d="M25.237,54.822c-0.467-1.732-2.742-1.732-3.209,0c-0.926-0.865-2.925-0.498-2.925,1.113
	c0,2.096,1.695,5.217,1.695,5.217s0.939-1.73,1.42-3.48C22.7,59.85,23.633,62,23.633,62s0.935-2.15,1.416-4.328
	c0.479,1.75,1.418,3.48,1.418,3.48s1.696-3.121,1.696-5.217C28.163,54.324,26.165,53.957,25.237,54.822z"/>
<path fill="#785647" d="M20.052,55.045c-0.559,0.93-1.385,1.174-1.385,1.174c3.293,0.525,4.966-2.225,4.966-2.225
	s1.673,2.75,4.965,2.225c0,0-0.826-0.244-1.385-1.174c1.458,0.588,2.693,0.09,2.693,0.09s-3.562-2.809-3.562-4.34
	c0-1.113-5.425-0.961-5.425,0c0,1.531-3.561,4.34-3.561,4.34S18.594,55.633,20.052,55.045z"/>
<path fill="#F59E01" d="M44.897,55.936c0-1.611-1.999-1.979-2.926-1.113c-0.467-1.732-2.742-1.732-3.209,0
	c-0.925-0.865-2.926-0.498-2.926,1.113c0,2.096,1.696,5.217,1.696,5.217s0.94-1.73,1.421-3.48C39.436,59.85,40.368,62,40.368,62
	s0.934-2.15,1.415-4.328c0.48,1.75,1.419,3.48,1.419,3.48S44.897,58.031,44.897,55.936z"/>
<path fill="#785647" d="M36.786,55.045c-0.558,0.93-1.384,1.174-1.384,1.174c3.291,0.525,4.966-2.225,4.966-2.225
	s1.672,2.75,4.964,2.225c0,0-0.825-0.244-1.385-1.174c1.459,0.588,2.693,0.09,2.693,0.09s-3.563-2.809-3.563-4.34
	c0-1.113-5.423-0.961-5.423,0c0,1.531-3.562,4.34-3.562,4.34S35.328,55.633,36.786,55.045z"/>
<path fill="#45332C" d="M61.215,29.949c0,0-0.598-4.519-3.102-7.279C57.537,22.031,62,23.393,62,23.393S58.326,2,31.999,2l0,0
	C5.676,2,2,23.393,2,23.393s4.463-1.359,3.887-0.722c-2.503,2.761-3.1,7.278-3.1,7.278s3.996,0.133,6.488,0.906
	C22.257,34.884,32.001,29.7,32.001,29.7s9.733,5.182,22.722,1.153C57.216,30.08,61.215,29.949,61.215,29.949z"/>
<path fill="#785647" d="M31.875,17.775c0,6.627-5.376,12.001-12.001,12.001c-6.626,0-11.999-5.374-11.999-12.001
	c0-6.624,5.373-11.999,11.999-11.999C26.499,5.776,31.875,11.151,31.875,17.775z"/>
<path fill="#785647" d="M56.126,17.775c0,6.627-5.376,12.002-11.999,12.002c-6.625,0-12.001-5.375-12.001-12.002
	c0-6.626,5.376-12,12.001-12C50.75,5.775,56.126,11.149,56.126,17.775z"/>
<circle fill="#F9C802" cx="19.875" cy="16.792" r="8.5"/>
<circle fill="#302C3B" cx="19.875" cy="16.791" r="4.521"/>
<path id="Shape_45_" fill="#FFFFFF" d="M18.13,13.913c0,2.829-3.392,2.829-3.392,0S18.13,11.084,18.13,13.913L18.13,13.913z"/>
<circle fill="#F9C802" cx="44.127" cy="16.792" r="8.5"/>
<circle fill="#302C3B" cx="44.127" cy="16.791" r="4.521"/>
<path id="Shape_44_" fill="#FFFFFF" d="M42.382,13.913c0,2.829-3.392,2.829-3.392,0S42.382,11.084,42.382,13.913L42.382,13.913z"/>
<path fill="#785647" d="M54.969,2c-7.354,4.432-21.084,0.996-22.967,12.799C40.571,7.775,53.812,14.476,54.969,2z"/>
<path fill="#785647" d="M9.034,2c7.354,4.432,21.084,0.996,22.968,12.799C23.432,7.775,10.19,14.476,9.034,2z"/>
<path fill="#785647" d="M32.002,3c0,0-6.002,10.429,0,18C38.004,13.428,32.002,3,32.002,3z"/>
<path fill="#785647" d="M26.454,5.09c0,0,2.254,8.873,5.434,7.424C35.063,11.07,26.454,5.09,26.454,5.09z"/>
<path fill="#785647" d="M32.116,12.514c3.179,1.449,5.433-7.424,5.433-7.424S28.94,11.07,32.116,12.514z"/>
<path fill="#F59E01" d="M28.519,21.866C28.826,24.396,30.868,35,32,35c1.136,0,3.175-10.604,3.48-13.134
	C35.943,18.045,28.058,18.045,28.519,21.866z"/>
</svg>
