<?xml version="1.0" encoding="utf-8"?>
<!-- Generator: Adobe Illustrator 15.0.0, SVG Export Plug-In . SVG Version: 6.00 Build 0)  -->
<!DOCTYPE svg PUBLIC "-//W3C//DTD SVG 1.1//EN" "http://www.w3.org/Graphics/SVG/1.1/DTD/svg11.dtd">
<svg version="1.1" id="Layer_1" xmlns="http://www.w3.org/2000/svg" xmlns:xlink="http://www.w3.org/1999/xlink" x="0px" y="0px"
	 width="64px" height="64px" viewBox="0 0 64 64" enable-background="new 0 0 64 64" xml:space="preserve">
<path fill="#302C3B" d="M62,33.859v-7.393c0.002-1.307-1.059-2.365-2.365-2.363h-3.178l2.754-1.59c1.129-0.654,1.52-2.1,0.865-3.229
	l-3.697-6.402c-0.652-1.133-2.1-1.521-3.229-0.865l-2.752,1.588l1.588-2.752c0.652-1.131,0.266-2.578-0.865-3.23l-6.403-3.695
	c-1.131-0.654-2.578-0.266-3.229,0.865l-1.59,2.752V4.367C39.897,3.059,38.839,2,37.532,2h-7.391c-1.307,0-2.365,1.059-2.365,2.365
	v3.178l-1.59-2.752c-0.65-1.131-2.098-1.52-3.229-0.865l-6.403,3.695c-1.131,0.652-1.518,2.1-0.865,3.23L8.773,23.119L29.399,34.6
	l12.088,20.938c0.652,1.131,2.1,1.52,3.229,0.863l6.403-3.693c1.131-0.654,1.52-2.102,0.865-3.23l-1.59-2.754l2.754,1.59
	c1.131,0.652,2.578,0.268,3.229-0.865l3.697-6.402c0.652-1.131,0.266-2.578-0.867-3.23l-2.748-1.588h3.176
	C60.941,36.225,62.002,35.166,62,33.859z"/>
<path fill="#F59E01" d="M16.404,57.992c-4.398-1.945-0.486-5.516-4.506-5.748c-4.014-0.234-6.662-2.836-6.662-2.836
	c4.553-2.1,8.305,3.475,12.704-1.205C14.08,54.648,18.095,58.738,16.404,57.992z"/>
<path fill="#F59E01" d="M29.546,61.719c-4.531,0-5.48-1.324-7.6-0.689c-4.495,1.346-6.515,0.9-6.515,0.9
	c4.522-3.357,8.679-2.391,9.255-8.789C25.024,58.84,31.392,61.719,29.546,61.719z"/>
<path fill="#302C3B" d="M40.122,31.551c0,11.133-7.652,20.156-17.088,20.156c-9.44,0-30.99-14.963-15.722-31.084
	c5.105-5.391,2.881,5.199,17.493,5.199C34.243,25.822,40.122,20.42,40.122,31.551z"/>
<path fill="#302C3B" d="M30.819,49.498c0,2.32-3.164,7.268-5.992,7.268s-6.033-3.363-6.033-5.684
	C18.794,48.76,30.819,48.359,30.819,49.498z"/>
<path fill="#4E5E67" d="M15.609,33.902c-1.988,12.344,13.388,20.557,19.786,20.557c6.402,0-0.35-7.148,8.818-14.701
	c8.327-6.861-11.752-5.766-18.154-5.766C19.659,33.992,16.58,27.885,15.609,33.902z"/>
<path fill="#4E5E67" d="M17.557,20.168c0.438,3.115,2.147,5.916,4.616,7.373c2.479,1.469,5.547,1.414,8.355,0.543
	c2.85-0.832,5.537-2.354,8.119-4.025c2.578-1.695,5.045-3.613,7.56-5.533c-1.929,2.512-4.147,4.799-6.644,6.795
	c-2.49,1.994-5.291,3.711-8.469,4.684c-1.592,0.447-3.281,0.715-4.988,0.57c-1.695-0.156-3.41-0.705-4.791-1.736
	C18.513,26.814,17.152,23.305,17.557,20.168z"/>
<path fill="#F59E01" d="M6.162,16.037c3.217,0.895,3.662,3.258,5.043,1.6c2.152-2.588-0.24-5.861-2.691-6.801
	c-4.205-1.613-6.492,6.721-6.492,6.721S4.109,15.463,6.162,16.037z"/>
<path fill="#E03636" d="M5.041,21.969c-0.744,1-2.893,3.641-2.037,4.545c0.703,0.744,3.82-1.459,3.82-1.459
	s-0.291,3.902,0.732,4.107c2.029,0.406,2.615-6.076,4.486-6.963c1.504-0.715,6.177,0.701,6.241-2.332
	c0.064-3.035,0.07-10.809-2.468-12.869c-2.508-2.041-6-2.084-9.654,3.541C3.873,14.061,9.879,15.459,5.041,21.969z"/>
<path fill="#302C3B" d="M7.182,12.5c0,0-0.363-2.424,2.574-2.85C9.756,9.65,10.656,13.803,7.182,12.5z"/>
</svg>
