<?xml version="1.0" encoding="utf-8"?>
<!-- Generator: Adobe Illustrator 15.0.0, SVG Export Plug-In . SVG Version: 6.00 Build 0)  -->
<!DOCTYPE svg PUBLIC "-//W3C//DTD SVG 1.1//EN" "http://www.w3.org/Graphics/SVG/1.1/DTD/svg11.dtd">
<svg version="1.1" id="Layer_1" xmlns="http://www.w3.org/2000/svg" xmlns:xlink="http://www.w3.org/1999/xlink" x="0px" y="0px"
	 width="64px" height="64px" viewBox="0 0 64 64" enable-background="new 0 0 64 64" xml:space="preserve">
<path fill="#E81C27" d="M41.396,42.701c-1.253,1.885,5.517,2.299,2.034,5.805C33.505,58.5,24.938,39.963,37.789,37.6
	c1.8-5.207,6.127-5.974,6.127-5.974c1.295-3.369,5.629-6.371,5.629-6.371L38.903,14.542c0,0-2.982,4.361-6.33,5.666
	c0,5.51-5.951,6.234-5.951,6.234C24.22,39.277,5.898,30.67,15.805,20.696c3.481-3.506,3.895,3.308,5.766,2.046
	c0.86-0.58,2.476-3.764-0.128-6.385c-3.286-3.309-15.745,2.83-13.135,14.486c0.696,3.101,2.283,5.063,4.305,6.209
	C5.677,39.106-1.948,45.77,4.339,52.098c1.448,1.457,4.757,4.787,12.224,0.281c7.383-4.455,1.698-9.137-1.524-8.324
	c-3.224,0.813,5.522,4.656-3.798,6.119c-4.649,0.729-5.993-6.637,3.695-9.012c3.722-0.912,6.364-0.842,8.741-1.013
	c-0.771,2.104-1.348,4.416-1.596,6.917C21.138,56.514,10.14,59.965,6.57,60.996c-3.569,1.029,8.56,3.232,15.839-5.814
	c1.772-2.205,2.896-4.212,3.761-6.128c0.738,3.267,2.85,6.016,7.182,6.999c11.579,2.631,17.676-9.912,14.388-13.223
	C45.138,40.209,41.974,41.836,41.396,42.701z"/>
<path fill="#F5F5F5" d="M32.574,20.208c-0.355,0.138-0.715,0.254-1.076,0.314c-3.754,0.629-4.254,2.512-4.858,5.854
	c-0.005,0.023-0.013,0.043-0.017,0.066c1.438,0.522,3.307,0.047,4.689-1.345C32.75,23.649,33.197,21.675,32.574,20.208z"/>
<path fill="#302C3B" d="M30.336,24.115c-1.41,1.41-3.534-0.71-2.116-2.126C29.631,20.575,31.753,22.698,30.336,24.115z"/>
<path fill="#F5F5F5" d="M37.723,37.615c0.023-0.004,0.043-0.012,0.066-0.016c3.32-0.609,5.189-1.113,5.815-4.893
	c0.058-0.363,0.173-0.724,0.312-1.082c-1.457-0.627-3.419-0.178-4.857,1.271C37.676,34.287,37.205,36.17,37.723,37.615z"/>
<path fill="#302C3B" d="M40.033,33.881c-1.416,1.416,0.705,3.537,2.119,2.123S41.445,32.468,40.033,33.881z"/>
<path fill="#FFFFFF" d="M29.564,22.505c-0.471,0.47-1.179-0.237-0.706-0.708C29.329,21.325,30.036,22.033,29.564,22.505z"/>
<path fill="#FFFFFF" d="M40.672,33.688c-0.473,0.473,0.234,1.18,0.705,0.708C41.85,33.924,41.143,33.217,40.672,33.688z"/>
<path fill="#B00505" d="M55.765,2.92c0,0-5.488,0.33-10.317-0.847c-4.959-1.212-5.551,13.043-8.734,18.065
	C36.713,20.138,50.666,8.9,55.765,2.92z"/>
<path fill="#B00505" d="M33.164,54.266c-6.946-4.221-4.903-10.514-4.903-10.514c-0.001,0.002-0.001,0.004-0.004,0.005
	c-0.678,1.742-1.266,3.476-2.084,5.29c0.738,3.267,2.844,6.021,7.178,7.006c3.059,0.697,5.733,0.324,7.955-0.65
	C39.447,55.982,35.861,55.904,33.164,54.266z"/>
<path fill="#B00505" d="M23.691,40.15c-0.776,2.104-1.359,4.41-1.609,6.916C21.138,56.514,10.14,59.965,6.57,60.996
	c-0.353,0.102-0.546,0.215-0.613,0.328c13.886-1.652,17.05-9.686,18.447-15.398c0.715-2.911,1.755-4.985,2.607-6.326
	C25.906,39.928,24.829,40.067,23.691,40.15z"/>
<path fill="#B00505" d="M12.632,37.049c0.631-0.187,1.257-0.338,1.866-0.443c0.585-0.102,1.144-0.207,1.69-0.313
	c-2.641-0.001-5.533-0.93-7.531-4.213C9.465,34.48,10.889,36.063,12.632,37.049z"/>
<path fill="#B00505" d="M44.463,30.504c0.311-0.533,0.679-1.047,1.073-1.531c-0.521-0.477-1.332-0.762-2.737-0.594
	c-2.477,0.301-4.488-0.137-5.677-1.332c-1.188-1.197-1.622-3.223-1.325-5.715c0.171-1.414-0.114-2.232-0.588-2.756
	c-0.48,0.398-0.992,0.768-1.521,1.08c0.605,0.506,1.012,1.346,0.818,2.975c-0.296,2.492,0.138,4.519,1.324,5.714
	c1.19,1.197,3.201,1.633,5.677,1.334C43.127,29.485,43.961,29.895,44.463,30.504z"/>
<path fill="#B00505" d="M61.088,8.279c0,0-0.327,5.527,0.84,10.387c1.206,4.99-12.953,5.586-17.94,8.793
	C43.987,27.459,55.146,13.41,61.088,8.279z"/>
<path fill="#E81C27" d="M56.726,17.792c5.43-6.678,5.823-11.94,3.637-14.141c-2.188-2.203-7.412-1.805-14.048,3.662
	c-7.353,6.061-13.376,5.16-14.106,8.274c-0.728,3.115,4.176,0.813,3.588,5.746c-0.297,2.492,0.138,4.518,1.325,5.715
	c1.188,1.195,3.2,1.633,5.677,1.332c4.899-0.59,2.613,4.348,5.708,3.613C51.598,31.26,50.705,25.196,56.726,17.792z"/>
<path fill="#B00505" d="M30.554,30.827c-1.52,1.529-2.867,2.647-3.013,2.499c-0.146-0.148,0.964-1.503,2.481-3.033
	c1.52-1.529,2.867-2.648,3.014-2.5C33.185,27.94,32.073,29.297,30.554,30.827z"/>
<ellipse transform="matrix(0.7036 0.7106 -0.7106 0.7036 32.4329 -13.1715)" fill="#B00505" cx="32.006" cy="32.294" rx="0.282" ry="4.581"/>
<path fill="#B00505" d="M33.923,34.166c-1.482,1.492-2.798,2.586-2.939,2.443c-0.14-0.141,0.946-1.467,2.429-2.957
	c1.481-1.492,2.799-2.587,2.938-2.445C36.492,31.35,35.405,32.674,33.923,34.166z"/>
<path fill="#F6BEC1" d="M35.362,14.309c-1.396,0.758-0.815,1.479,0.501,0.941C37.832,14.444,36.68,13.593,35.362,14.309z"/>
<path fill="#F6BEC1" d="M59.601,4.363c-1.903-1.917-6.609-1.411-12.728,3.69c-3.079,2.568-6.141,3.89-8.064,4.72
	c-1.148,0.497-0.541,1.222,0.408,0.768c2.404-1.144,5.001-2.412,7.855-4.792c6.117-5.102,10.616-5.709,12.521-3.792
	C60.122,5.492,60.41,5.178,59.601,4.363z"/>
<path fill="#F6BEC1" d="M16.035,16.912c1.391-0.495,4.266-1.109,5.422,1.266c0.358,0.736,0.843,0.652,0.578-0.281
	c-0.68-2.397-4.234-2.25-6.297-1.281C14.625,17.138,15.135,17.232,16.035,16.912z"/>
<path fill="#F6BEC1" d="M47.635,45.271c0.158,0.664,0.557,0.528,0.479-0.25c-0.174-1.752-1.771-3-3.896-3.084
	c-1.3-0.051-1.996,0.607-0.832,0.834C44.251,42.939,47.125,43.136,47.635,45.271z"/>
<path fill="#F6BEC1" d="M19.3,47.146c0.379,0.719,0.537,0.504,0.391-0.078c-0.287-1.143-1.953-2.776-4.141-2.776
	c-1.117,0-0.609,0.715-0.041,0.688C17.238,44.896,18.519,45.662,19.3,47.146z"/>
<path fill="#F6BEC1" d="M21.384,36.896c1.094-0.055,2.311-1.066,0.506-0.979c-3.872,0.189-9.795,1.298-11.629,2.381
	c-0.711,0.42,0.017,0.43,0.268,0.326C14.134,37.146,18.051,37.059,21.384,36.896z"/>
</svg>
