<?xml version="1.0" encoding="utf-8"?>
<!-- Generator: Adobe Illustrator 15.0.0, SVG Export Plug-In . SVG Version: 6.00 Build 0)  -->
<!DOCTYPE svg PUBLIC "-//W3C//DTD SVG 1.1//EN" "http://www.w3.org/Graphics/SVG/1.1/DTD/svg11.dtd">
<svg version="1.1" id="Layer_1" xmlns="http://www.w3.org/2000/svg" xmlns:xlink="http://www.w3.org/1999/xlink" x="0px" y="0px"
	 width="64px" height="64px" viewBox="0 0 64 64" enable-background="new 0 0 64 64" xml:space="preserve">
<path fill="#8A6859" d="M40.336,33.814C33.67,40.352,40.394,62,40.394,62h2.243c0,0,0.537-0.695-0.564-5.518
	c1.593,4.9,3.146,1.311,0.299-7.092c2.394,2.225,3.556,0.124,0-7.354C44.6,44.685,44.87,38.304,40.336,33.814z"/>
<path fill="#F59E01" d="M40.394,62c0,0,5.813-27.592-6.425-44.999h-7.037c0,0,3.67,31.647-3.061,44.999H40.394z"/>
<path fill="#D47706" d="M41.664,51.026c0,0,0.443-5.698-0.188-11.136c-10.461,4.576-4.071,5.172-4.696,9.563
	C36.47,51.63,41.503,51.294,41.664,51.026z"/>
<path fill="#D47706" d="M40.506,61.419c0,0,0.848-4.073,1.064-8.819c-7.451-0.953-7.197,4.531-6.555,8.268
	C35.199,61.933,40.212,61.539,40.506,61.419z"/>
<path fill="#D47706" d="M23.871,62c0,0,1.152-2.73,2.292-6.713c3.196,5.773,8.428,1.326,5.552,6.713H23.871z"/>
<path fill="#D47706" d="M27.633,52.49c-0.307-3.964-0.003-8.195,5.385-7.764c6.852,12.696-0.957,4.943,0.611,11.862
	C33.867,57.643,28.012,57.401,27.633,52.49z"/>
<path fill="#F9B700" d="M39.113,20.281c6.063-3.309,7.854-13.58,20.887-9.683C54.609,14.115,54.049,26.41,39.113,20.281z"/>
<path fill="#EA8800" d="M41.43,20.878c6.944,2.05,2.533-11.614,16.652-8.502C54.677,18.044,51.342,25.328,41.43,20.878z"/>
<path fill="#F9B700" d="M29.65,19.562c-5.25-2.865-6.801-11.76-18.084-8.383C16.232,14.222,16.719,24.868,29.65,19.562z"/>
<path fill="#EA8800" d="M27.645,20.08c-6.014,1.774-2.194-10.057-14.419-7.362C16.174,17.626,19.063,23.93,27.645,20.08z"/>
<path fill="#F9B700" d="M26.424,15.281c1.428,5.044-8.06,5.775-5.408,9.829c4.08,6.429,3.57,12.562,3.57,12.562
	c-3.241,1.829-1.59,2.878-1.836,4.451c-3.06,5.734,4.078,9.69,6.323,6.525c2.243-3.264,3.06-0.297,4.794-4.943
	c1.732-4.65,6.322-3.363,9.179-5.935c3.978-3.66-4.079-4.55,1.63-11.769c2.551-3.266-4.793-7.121-3.467-9.988
	C41.209,16.013,25.709,12.809,26.424,15.281z"/>
<path fill="#F9C802" d="M26.424,15.281c0.636,2.247-0.895,3.639-2.553,4.848c-2.064,1.507,8.246,4.891,0.992,17.364
	c-0.479,0.821,1.621-0.278,3.15-0.094c1.574,0.191,4.339,2.27,4.1,1.144c-3.365-15.847,12.604-15.95,11.605-17.272
	c-1.416-1.874-3.225-3.71-2.51-5.257c0,0,2.011-1.193-0.102-5.342c-1.101-2.162,0.115-5.379,0.469-6.531
	c0.612-1.99-4.507-0.535-4.507-0.535c2.896,13.188-10.056,12.299-6.913,0.417c0,0-4.243-1.735-3.754-0.006
	c0.742,2.62,1.021,5.292,0.306,7.271C25.791,13.166,25.709,12.809,26.424,15.281z"/>
<path fill="#8A6859" d="M26.998,6.823c0.083,0.628,2.641,0.457,2.709-0.316c0.068-0.766,0.215-1.595,0.449-2.484
	c0.672-2.538-4.243-1.735-3.754-0.006C26.668,4.957,26.875,5.904,26.998,6.823z"/>
<path fill="#8A6859" d="M37.473,6.444c0.055,0.968,3.238,0.95,3.412,0.131c0.218-1.032,0.537-1.931,0.691-2.435
	c0.612-1.99-5.127-3.359-4.507-0.535C37.296,4.636,37.426,5.583,37.473,6.444z"/>
<path fill="#594640" d="M23.336,40.992c0.252,0.359,0.911,0.066,1.676,1.523C25.042,40.519,22.283,39.485,23.336,40.992z"/>
<path fill="#594640" d="M32.126,41.161c-0.431,0.442-1.56,0.081-2.869,1.88C29.205,40.576,33.933,39.301,32.126,41.161z"/>
<path fill="#594640" d="M29.479,47.273c-0.923,1.068-4.681,3.006-6.628-0.691C24.573,48.579,27.862,48.113,29.479,47.273z"/>
<path fill="#7AB51D" d="M11.021,37.869c0,0.593,5.404,10.779,12.85,10.779c7.343,0,9.996,2.076,11.729,3.659l0.612-0.89
	c0,0-5.201-3.462-12.239-3.462C16.426,47.857,11.021,36.979,11.021,37.869z"/>
<path fill="#7AB51D" d="M13.994,42.172C9.02,38.236,7.323,42.07,4,38.711C5.105,42.465,9.274,44.507,13.994,42.172z"/>
<path fill="#7AB51D" d="M17.398,45.459c-6.521-2.99-7.383,1.697-11.932-1.106C7.675,48.191,12.809,49.313,17.398,45.459z"/>
<path fill="#7AB51D" d="M14.979,43.458c-1.557-6.202,2.586-6.239,0.885-10.676C18.81,35.316,18.98,40.01,14.979,43.458z"/>
<path fill="#7AB51D" d="M18.314,46.443c-1.445-7.111,3.251-6.936,1.553-12.053C23.074,37.418,23.027,42.746,18.314,46.443z"/>
<path fill="#F9B700" d="M28.059,19.357c-1.836,1.721,1.867,3.997,1.346,10.959c-0.301,4.006,1.875-5.77,7.626-9.643
	C39.32,19.132,33.703,14.062,28.059,19.357z"/>
<path fill="#EA8800" d="M37.073,33.438c3.933-0.242,1.409,7.101-0.065,5.133c-1.313-1.75-4.34,2.734-3-0.229
	C34.824,36.536,34.428,33.6,37.073,33.438z"/>
<path fill="#EA8800" d="M43.365,37.455c-0.988,1.426-4.109,2.245-6.078,2.78c4.096-2.728,2.133-5.86,3.49-6.75
	C41.806,32.812,43.973,36.578,43.365,37.455z"/>
<path fill="#EA8800" d="M36.523,40.593c-1.109,0.802-1.787,1.065-2.738,3.327c-1.248-1.625,0.33-3.623,1.688-4.513
	C36.501,38.734,37.389,39.968,36.523,40.593z"/>
<path fill="#302C3B" d="M44.928,29.957c0,1.682-1.225,3.066-2.754,3.066c-1.531,0-2.754-1.384-2.754-3.066
	c0-1.68,1.223-3.065,2.754-3.065C43.703,26.891,44.928,28.277,44.928,29.957z"/>
<path fill="#594640" d="M47.273,25.795c-1.748,3.144-6.59-0.087-8.016,4.161C39.662,24.388,44.756,27.889,47.273,25.795z"/>
<path fill="#FFFFFF" d="M41.301,28.969c0,0.79-1.225,0.79-1.225,0C40.076,28.177,41.301,28.177,41.301,28.969z"/>
<path fill="#302C3B" d="M25.742,29.031c0,1.504-1.097,2.744-2.468,2.744c-1.37,0-2.466-1.24-2.466-2.744
	c0-1.506,1.096-2.747,2.466-2.747C24.646,26.284,25.742,27.525,25.742,29.031z"/>
<path fill="#594640" d="M19.609,25.248c1.205,2.832,5.397,0.092,6.262,3.897C25.934,24.194,21.52,27.167,19.609,25.248z"/>
<path fill="#FFFFFF" d="M22.492,28.145c0,0.708-1.096,0.708-1.096,0C21.396,27.435,22.492,27.435,22.492,28.145z"/>
</svg>
