<?xml version="1.0" encoding="utf-8"?>
<!-- Generator: Adobe Illustrator 15.0.0, SVG Export Plug-In . SVG Version: 6.00 Build 0)  -->
<!DOCTYPE svg PUBLIC "-//W3C//DTD SVG 1.1//EN" "http://www.w3.org/Graphics/SVG/1.1/DTD/svg11.dtd">
<svg version="1.1" id="Layer_1" xmlns="http://www.w3.org/2000/svg" xmlns:xlink="http://www.w3.org/1999/xlink" x="0px" y="0px"
	 width="64px" height="64px" viewBox="0 0 64 64" enable-background="new 0 0 64 64" xml:space="preserve">
<path fill="#014F27" d="M6.666,6.595c0,0-4.311-1.773-4.658,0C1.773,7.259,6.666,7.593,6.666,6.595z"/>
<path fill="#297124" d="M41.381,55.813c-1.047-1.885-1.98-6.762-2.096-6.873l-2.33,6.541c0.348,0.555,2.096,2.771,1.746,3.547
	c-0.234,0.443-1.514,0.332-1.398,1.109c0,0.664,2.914,0.221,3.264,0.221c1.396-0.111,2.098,0.334,2.098-1.109
	C42.664,58.474,41.848,56.7,41.381,55.813z"/>
<path fill="#297124" d="M12.959,40.958c-0.234,3.549-1.051,13.746-2.682,16.518c-0.697,1.221-0.932,1.332-1.863,1.996
	c-0.465,0.332-0.465,0.443,0.232,0.998c0.467,0.332,3.846,0,4.428,0c1.281,0,0.93-0.332,1.164-1.996
	c0.467-2.549,2.33-6.43,3.262-8.758c0.35-0.887,1.164-3.324,1.164-3.324L12.959,40.958z"/>
<path fill="#014F27" d="M15.693,45.2c0.479,5.354-2.316,11.963-3.787,15.336c2.938,0.252,2.18-0.764,2.609-2.389
	c1.256-4.756,3.031-6.781,4.148-11.756C18.84,45.61,16.396,44.815,15.693,45.2z"/>
<path fill="#529320" d="M39.285,49.827l-2.564,6.762c-0.23,1.109,0.117,4.104-0.932,4.768c-0.582,0.443-5.592,0.555-5.707-0.111
	c-0.117-0.664,1.516-1.107,1.979-1.551c0.816-0.998,0.496-9.533,0.73-10.754c0,0-1.584,0.85-7.176,0.074
	c0,0-1.709,10.014-2.057,11.232c-0.35,1.553-0.115,1.219-1.748,1.553c-0.816,0.111-3.494,0.443-4.076-0.111
	c-1.166-0.887,0.814-1.107,1.279-1.773c1.283-1.553,2.797-11.971-0.35-13.08c0,0-6.406-1.662-8.969-12.193
	c-0.934-2.771-4.193-0.777,0.699-18.291c0.35-2.33,1.982-7.982-1.166-8.537c0,0-5.242,2.883-6.055,0.998
	C2.939,8.368,6.316,6.927,6.666,6.595c-3.609-0.443-4.658,0-4.658,0C2.123,5.929,2.123,5.042,4.57,4.487
	c0.816-0.221,0.35-1.773,1.281-2.217s2.098-0.443,3.494,0.777c12.232,4.176,3.223,18.986,6.641,25.828
	c0.309,0.471,4.941-1.234,12.562,2.615c5.68,2.869,10.737,2.857,16.131,8.649c5.732,6.156,16.624,7.913,17.321,9.243
	C60.141,50.616,45.234,46.21,39.285,49.827z"/>
<path fill="#014F27" d="M39.768,50.851c-0.232-0.998-0.25-1.355-0.482-1.023l-2.211,5.832c0,0,0.262,0.377,0.492,0.709
	C37.566,56.368,38.625,53.616,39.768,50.851z"/>
<path fill="#92C932" d="M18.316,44.284c-2.564-1.551-5.01-5.209-6.174-9.311c-0.469-1.441-6.057-3.104-0.469-19.4
	c1.285-3.658,0.352-7.537-1.627-8.646C9.695,6.815,9.346,6.815,9.113,7.038C7.832,7.925,4.102,9.478,3.174,8.812
	c0.928,1.996,6.139-0.869,6.139-0.758c1.982,1.551,1.664,4.305,1.316,6.633c-0.119,0.998-0.467,2.105-0.816,3.104
	c-5.127,14.633,0,17.072,0.115,18.18c1.514,9.424,9.844,11.918,9.844,11.918C18.469,45.429,18.316,44.284,18.316,44.284z"/>
<path fill="#92C932" d="M25.959,46.878c0,0.775-0.344,2.137-0.344,2.137c1.854,0.668,6.26,0.668,7.176-0.074c0-0.221,0,0.223,0,0
	l-0.148-1.441C32.643,47.61,27.578,47.741,25.959,46.878z"/>
<path fill="#92C932" d="M39.285,49.827c1.377-1.16,1.166-2.105,1.396-2.105c8.271-0.998,16.426,1.553,21.318,1.662
	c0,0-0.234,0.777-0.697,0.777c-6.291-0.334-5.943-0.889-10.484-1.221C43.363,48.386,42.197,49.716,39.285,49.827z"/>
<path fill="#297124" d="M26.121,46.944c-0.117,0.666-0.271,1.516-0.506,2.07c0.115-0.664,0.039-1.404,0.156-2.18
	c0.232-2.551,0.232-5.432-0.699-7.539c-0.584-1.109-2.563-1.441-3.959-1.109c-2.797,0.445-3.801,4.01-1.342,9.701
	c-2.445-3.547-5.648-11.584,1.574-12.473C27.17,34.751,27.17,42.622,26.121,46.944z"/>
<path fill="#297124" d="M39.285,49.827c2.371-2.992,2.445-7.426-1.4-8.758c-5.123-1.662-5.443,4.324-5.094,7.871
	c-1.516-4.322-0.264-11.307,5.676-8.979C42.43,41.403,43.945,46.724,39.285,49.827z"/>
<path fill="#E6EBEF" d="M6.666,3.157c-0.58,0.111-0.932,0.555-0.932,1.109c0.355,0.449,2.031,0.662,2.33-0.664
	C7.832,3.269,7.25,3.048,6.666,3.157z"/>
<ellipse fill="#302C3B" cx="6.898" cy="3.822" rx="0.584" ry="0.554"/>
<ellipse fill="#E6EBEF" cx="6.666" cy="3.684" rx="0.15" ry="0.144"/>
<path fill="#92C932" d="M8.064,3.603C7.25,3.157,6.199,3.38,5.734,4.267C5.502,2.825,7.482,2.382,8.064,3.603z"/>
<path fill="#297124" d="M16.918,42.913c0,0-3.959-6.32-0.699-8.98c3.262-2.66,6.99,0,6.99,0S13.074,32.491,16.918,42.913z"/>
<path fill="#297124" d="M32.527,39.851c0,0-2.33,2.217,0,6.65C32.527,46.501,28.684,42.733,32.527,39.851z"/>
<path fill="#297124" d="M15.986,28.876c-1.982,0.887-3.262,3.215-3.262,3.215C12.84,28.544,15.055,28.876,15.986,28.876
	L15.986,28.876C15.871,28.876,15.986,28.876,15.986,28.876z"/>
</svg>
