<?xml version="1.0" encoding="utf-8"?>
<!-- Generator: Adobe Illustrator 15.0.0, SVG Export Plug-In . SVG Version: 6.00 Build 0)  -->
<!DOCTYPE svg PUBLIC "-//W3C//DTD SVG 1.1//EN" "http://www.w3.org/Graphics/SVG/1.1/DTD/svg11.dtd">
<svg version="1.1" id="Layer_1" xmlns="http://www.w3.org/2000/svg" xmlns:xlink="http://www.w3.org/1999/xlink" x="0px" y="0px"
	 width="64px" height="64px" viewBox="0 0 64 64" enable-background="new 0 0 64 64" xml:space="preserve">
<path fill="#E03636" d="M37.666,12.979C30.322,5.889,20.639,14.443,7.748,2c7.973,12.889,22.434,6.461,28.467,12.285L37.666,12.979z
	"/>
<path fill="#FF717F" d="M54.604,17.869c0.018-0.008,0.025-0.014,0.025-0.014C54.621,17.859,54.613,17.863,54.604,17.869z"/>
<path fill="#F46C60" d="M48.607,16.539L59,11.055c-15.885,3.662-22.676-0.516-25.625,4.365c-7.391-1.135-9.754,3.531-9.754,3.531
	s-7.609,0.75-8.016,6.514c-2.799,0.268-6.262,2.893-4.908,5.68c-3.393,1.994-5.887,4.65-3.281,7.324
	c-3.705,4.252-2.287,6.201-1.35,6.592c-0.938,6.578,1.518,7.234,2.279,7.361c0.076,2.586,0.889,6.109,3.98,9.578
	c0,0,2.408-2.252,0.781-5.311c0,0,1.721,2.145,4.24,1.838c0,0,0.172-2.291-1.299-5.061c0,0,1.863,1.707,4.184,0.363
	c0,0-2.412-3.732-6.625-5.063c0.098-1.113-0.186-2.504-1.043-4.203c0.795-1.055,1.338-2.689,1.385-5.107
	c1.291-0.898,2.482-2.611,3.311-5.49c1.146-0.512,2.359-1.502,3.564-3.168c2.217,0.346,5.082-0.486,8.51-3.475
	c2.23,0.018,5.025-1.127,8.299-4.199c3.518,0.434,9.002-0.77,16.971-5.256C54.459,17.936,53.516,18.16,48.607,16.539z"/>
<path fill="#FFFFFF" d="M43.912,15.719c-0.764,2.205-3.18,3.373-5.393,2.611c-2.217-0.756-3.396-3.154-2.633-5.357
	c0.764-2.199,3.178-3.369,5.395-2.615C43.496,11.117,44.676,13.518,43.912,15.719z"/>
<path fill="#302C3B" d="M41.824,15.006c-0.365,1.057-1.525,1.615-2.586,1.254c-1.064-0.365-1.629-1.518-1.264-2.572
	c0.367-1.055,1.525-1.615,2.588-1.254C41.623,12.799,42.188,13.949,41.824,15.006z"/>
<path fill="#E03636" d="M12.252,54.719C12.721,57.303,12.326,62,12.326,62c1.852-1.291,1.582-4.225,1.582-4.225
	c1.449,0.885,3.439,0.752,3.439,0.752C13.58,57.117,12.252,54.719,12.252,54.719z"/>
<path fill="#E03636" d="M37.146,30.02c0.244-0.379,0.59-0.424,0.115-0.869c-1.004-0.947-4.809,0.643-8.43-1.352
	c0.168-0.141,0.332-0.279,0.479-0.408c2.143,0.121,4.916-0.877,8.348-4.262c3.52,0.424,8.994-0.781,16.943-5.258
	c-0.008,0.002-0.02,0.006-0.035,0.01c-1.111,0.477-17.586,7.361-21.857-1.041c-0.629,1.752-0.16,3.918,1.805,5.219
	c-6.35,0-17.336-10.658-29.385-5.527c12.545-2.609,19.301,5.535,27.018,7.416c-2.277,1.127-5.477,1.846-8.475-0.518
	c0,0,1.113,2.287,3.422,3.391c-5.211,3.656-11.486-1.357-11.486-1.357c0.961,2.514,2.176,3.998,3.494,4.789
	c-3.732,4.344-8.402,0.896-8.402,0.896c1.688,2.049,3.229,2.953,4.592,3.158c-0.846,2.24-3.086,6.236-7.875,4.16
	c0,0,2.316,1.648,4.777,1.457c-0.061,1.572-0.752,5.473-6.158,5.109c0,0,2.762,1.461,5.068,0.805c0.65,1.576,1.34,4.799-2.84,6.572
	c0,0,5.088,0.342,5.572-3.168c1.814,1.188,2.867,2.703,2.867,2.703c-1.014,0.209-3.352-0.225-3.352-0.225
	c2.75,2.639,3.996,6.807,3.996,6.807c0.162-2.684-1.299-5.061-1.299-5.061c2.146,1.766,4.184,0.363,4.184,0.363
	c-2.225-3.164-4.803-4.469-6.365-5c0.033-1.01-0.287-2.309-1.139-3.965c0.918-0.971,1.521-2.686,1.434-5.559
	c1.072-0.645,2.053-1.865,2.75-3.957c0.926,1.701,2.816,4.34,6.146,5.709c0.275,0.111,0.635,0.266,0.965-0.168
	c3.17,2.904,2.439,6.018,3.131,6.043c0.365,0.406,0.957,1.324,1.123,3.172c0,0,1.17-2.02,0.98-4.182c1-0.049-1.25-4.357-4.352-6.598
	c0.377-0.26,0.715-0.178,0.453-0.766c-0.576-1.281-5.004-1.148-7.529-4.676c1.271-0.631,2.275-1.791,2.979-2.824
	c0.83,1.189,3.504,4.51,7.99,5.393c0.293,0.055,0.678,0.135,0.91-0.354c3.354,2.092,3.654,5.426,4.346,5.314
	c0.447,0.338,1.213,1.133,1.758,2.893c0,0,0.641-2.068,0.107-4.299c0.879-0.309-2.203-4.033-5.678-5.609
	c0.314-0.33,0.666-0.313,0.285-0.836c-0.783-1.076-4.646-0.273-7.779-2.643c1.758-0.26,3.467-1.195,4.838-2.164
	c1.318,1.189,4.389,3.48,8.539,3.537c0.297,0.004,0.691,0.016,0.826-0.506c4.098,1.676,4.637,4.66,5.271,4.453
	c0.492,0.229,1.416,0.844,2.316,2.52c0,0,0.275-2.471-0.713-4.25C44.564,34.02,40.842,30.943,37.146,30.02z"/>
</svg>
