<?xml version="1.0" encoding="utf-8"?>
<!-- Generator: Adobe Illustrator 15.0.0, SVG Export Plug-In . SVG Version: 6.00 Build 0)  -->
<!DOCTYPE svg PUBLIC "-//W3C//DTD SVG 1.1//EN" "http://www.w3.org/Graphics/SVG/1.1/DTD/svg11.dtd">
<svg version="1.1" id="Layer_1" xmlns="http://www.w3.org/2000/svg" xmlns:xlink="http://www.w3.org/1999/xlink" x="0px" y="0px"
	 width="64px" height="64px" viewBox="0 0 64 64" enable-background="new 0 0 64 64" xml:space="preserve">
<path fill="#8A6859" d="M36.069,49.309c2.755,9.864-4.966,8.229-3.237,10.888h7.326c2.098-3.597,0.279-11.866,0.279-11.866
	S35.662,47.851,36.069,49.309z"/>
<path fill="#8A6859" d="M16.826,49.309c2.755,9.864-4.967,8.229-3.238,10.888h7.326c2.099-3.597,0.281-11.866,0.281-11.866
	S16.419,47.851,16.826,49.309z"/>
<path fill="#AB8A7B" d="M22.12,51.112c2.755,9.865-4.967,8.229-3.238,10.888h7.326c2.099-3.597,0.281-11.865,0.281-11.865
	S21.713,49.655,22.12,51.112z"/>
<path fill="#AB8A7B" d="M42.361,51.112c2.755,9.865-3.97,8.229-2.24,10.888h7.326c2.098-3.597,0.28-11.865,0.28-11.865
	S41.954,49.655,42.361,51.112z"/>
<path fill="#FDE0DA" d="M57.934,46.274c-3.37,7.071-12.38,6.787-7.828,8.464c-2.775,2.469-13.798-0.189-10.711,2.152
	c-2.862,0.2-13.748-2.152-9.757,0.127c-6.372,0.205-10.924-2.227-14.204-2.289C6.13,54.553,2.649,51.579,3.015,47.205
	c0.208-2.504,6.838-2.488,7.874-5.143c0,0,1.278-3.185,3.639-3.272C18.528,37.966,44.162,31.317,57.934,46.274z"/>
<path fill="#AB8A7B" d="M9.575,47.853c1.313-9,9.715-4.372,7.387,0.112C15.544,50.696,13.703,51.355,9.575,47.853z"/>
<path fill="#AB8A7B" d="M8.863,43.827c-0.88,2.992,4.938,4.429,6.892,9.182c0,0-3.283,1.218-7.191,0.84
	c-1.036-0.252-3.342-0.527-3.637-1.597c-0.935-0.076-1.635-1.691-2.006-3.137C2.266,47.582,1.238,46.098,8.863,43.827z"/>
<path fill="#FDE0DA" d="M57.037,46.08c0,0,0.465,2.484,4.963,2.544c0,0-1.992,3.772-9.914,1.754L57.037,46.08z"/>
<path fill="#594640" d="M58.717,43.022c2.947-0.877,3.262-3.695,3.262-3.695c-2.662-0.052-4.289-1.484-4.289-1.484
	c3.104-1.013,3.32-3.541,3.32-3.541c-3.996-0.731-6.833-2.156-6.833-2.156c1.99-1.104,3.796-3.335,3.796-3.335
	c-6.18-3.377-10.957-2.162-10.957-2.162c1.867-1.485,2.988-4.324,2.988-4.324c-7.969-2.096-12.949,1.08-12.949,1.08
	c1.286-1.712,0.996-4.324,0.996-4.324c-5.91,0.392-9.96,3.244-9.96,3.244C28.68,21.088,30.083,18,30.083,18
	C17.046,18.098,14.48,28.739,14.48,28.739c-0.216-1.688-1.027-3.035-1.027-3.035s-4.445,7.834-3.333,12.285
	c-0.531-0.532-1.202-1.428-1.311-2.66c0,0-1.297,5.107,2.08,6.731l0,0c0,0,6.474,0.021,7.996-2.881c0,0-0.63,2.471,0.533,4.799
	c0,0,2.923-2.545,4.683-4.49c0,0,3.305,4.188,2.994,7.701l4.98-2.162c0,0,3.028,3.74,5.976,4.324c0,0,0.934-4.324,3.984-4.324
	c0,0,0.622,2.908,3.984,4.324c0,0,1.742-3.715,3.957-4.199c0,0,0.565,3.302,3.016,4.199c0,0,1.949-3.038,2.988-3.242
	c2.844,1.498,5.018,1.043,5.018,1.043C59.022,45.939,58.717,43.022,58.717,43.022z"/>
<path fill="#FDE0DA" d="M21.019,44.508c0,0-0.603-4.03,1.496-6.232c2.097-2.201,4.908-2.379,5.633,0.479
	C29.316,43.372,23.8,46.331,21.019,44.508z"/>
<path fill="#8A6859" d="M22.17,43.085c0,0-0.375-2.494,0.923-3.855c1.298-1.363,3.038-1.472,3.486,0.297
	C27.304,42.381,23.892,44.213,22.17,43.085z"/>
<path fill="#AB8A7B" d="M20.079,34.052c-1.469-0.165-3.612-3.206-1.365-6.771C18.758,30.891,22.416,34.312,20.079,34.052z"/>
<path fill="#AB8A7B" d="M16.722,37.115c-1.375,0.552-4.667-1.124-4.318-5.341C14.101,34.946,18.908,36.239,16.722,37.115z"/>
<path fill="#AB8A7B" d="M24.128,29.466c-1.317-0.682-2.258-4.297,1.088-6.821C23.996,26.035,26.222,30.551,24.128,29.466z"/>
<path fill="#AB8A7B" d="M28.569,35.639c-0.807-1.259,0.148-4.869,4.287-5.368C30.137,32.596,29.854,37.637,28.569,35.639z"/>
<path fill="#AB8A7B" d="M39.157,35.283c-0.808-1.258,0.147-4.868,4.286-5.368C40.725,32.239,40.441,37.281,39.157,35.283z"/>
<path fill="#AB8A7B" d="M30.565,27.495c-0.808-1.259,0.148-4.868,4.287-5.368C32.132,24.452,31.85,29.493,30.565,27.495z"/>
<path fill="#AB8A7B" d="M30.485,41.768c-0.277-1.475,1.957-4.446,5.972-3.313C33.072,39.557,30.925,44.111,30.485,41.768z"/>
<path fill="#AB8A7B" d="M36.857,28.604c-0.277-1.475,1.957-4.447,5.973-3.312C39.445,26.395,37.299,30.949,36.857,28.604z"/>
<path fill="#AB8A7B" d="M48.729,37.877c0.259-1.478,3.392-3.444,6.744-0.93C51.924,36.75,48.318,40.229,48.729,37.877z"/>
<path fill="#AB8A7B" d="M48.178,42.979c0.672-1.338,4.232-2.294,6.719,1.104C51.558,42.844,47.111,45.104,48.178,42.979z"/>
<path fill="#AB8A7B" d="M38.194,43.482c-0.276-1.475,1.957-4.447,5.974-3.312C40.783,41.272,38.636,45.826,38.194,43.482z"/>
<path fill="#AB8A7B" d="M45.483,33.835c-0.276-1.475,1.957-4.447,5.974-3.312C48.072,31.625,45.925,36.179,45.483,33.835z"/>
<path fill="#302C3B" d="M3.248,49.335c-1.262-0.018-2.191-3.528,0.422-4.051C7.616,44.494,4.418,49.352,3.248,49.335z"/>
<path fill="#302C3B" d="M15.287,46.167c0,2.705-3.99,2.705-3.99,0C11.296,43.471,15.287,43.471,15.287,46.167z"/>
<path fill="#FFFFFF" d="M12.834,45.347c0,0.677-0.997,0.677-0.997,0C11.837,44.672,12.834,44.672,12.834,45.347z"/>
<path fill="#8A6859" d="M4.927,52.252c2.492-0.571,4.367,0.757,6.273-0.899C9.7,53.493,7.512,51.866,4.927,52.252z"/>
</svg>
