<?xml version="1.0" encoding="utf-8"?>
<!-- Generator: Adobe Illustrator 15.0.0, SVG Export Plug-In . SVG Version: 6.00 Build 0)  -->
<!DOCTYPE svg PUBLIC "-//W3C//DTD SVG 1.1//EN" "http://www.w3.org/Graphics/SVG/1.1/DTD/svg11.dtd">
<svg version="1.1" id="Layer_1" xmlns="http://www.w3.org/2000/svg" xmlns:xlink="http://www.w3.org/1999/xlink" x="0px" y="0px"
	 width="64px" height="64px" viewBox="0 0 64 64" enable-background="new 0 0 64 64" xml:space="preserve">
<path fill="#594640" d="M27.117,52.164c-2.075-3.295,0.176-5.025-0.968-5.917c-3.907-3.053,2.87-8.002-7.078-13.784
	c-2.009,1.353-2.573,8.493-0.897,9.959c2.015,1.757,6.916,5.279,4.746,9.477c-0.713,1.38-3.345,1.226-4.393,3.731
	c1.352-0.847,2.131,0.058,3.596-1.125c-0.391,0.451-0.612,1.062-0.754,1.4c2.745-0.557,1.948-1.251,3.776-2.076
	c-0.983,0.924-0.68,1.646-0.68,1.646C26.279,53.849,28.907,55.011,27.117,52.164z"/>
<path fill="#594640" d="M19.076,25.015c-1.395,0.063-7.423,2.793-7.768,2.392c-0.402-0.466-1.521-0.897-2.456-1.743
	c-0.996-0.903-1.459-1.973-2.421-2.016c-0.529-0.023,0.247,0.227,0.878,0.952c0.353,0.404-1.413-0.751-1.844,0.77
	c-0.053,0.19,0.49-0.466,1.326,0.05c0.341,0.211-0.909,0.189-0.804,1.238c0.032,0.322,0.451-0.507,0.964-0.39
	c0.474,0.107,0.811,0.399,1.482,0.178c0.487-0.16,2.695,3.582,3.334,3.135C14.253,27.835,21.712,30.056,19.076,25.015z"/>
<path fill="#8A6859" d="M30.532,41.991c5.345,6.156,25.65,12.767,26.058-1.411c0.34-11.786-11.635-15.965,5.356-25.914
	c1.175-0.689-17.257,3.193-12.235,19.893c2.803,9.319-7.332,5.344-11.461-3.973c-4.5-10.154-15.092-10.213-14.62-16.334
	c0.485-6.279-0.745-14.458-8.252-11.454C17.982,18.664,9.424,32.592,30.532,41.991z"/>
<path fill="#967668" d="M15.378,2.798c-1.506-1.472-4.225-0.83-4.856,1.282C4.057,6.151,2.362,6.151,2,11.965
	c2.621,2.208,14.351,1.131,15.978-2.729c-0.23-1.961-1.719-2.064-0.339-4.076C18.642,3.698,16.667,2.688,15.378,2.798z"/>
<path fill="#967668" d="M22.886,38.422c0,0,0.705-2.892,2.463-5.623c-2.464-1.086-5.357-3.59-6.986-7.138
	c-3.06-6.66,1.733-7.927-0.315-16.021c0,0-0.36,4.157-6.567,5.258C16.876,20.863,8.949,25.995,22.886,38.422z"/>
<path fill="#967668" d="M31.281,41.084c4.049,7.099,20.958,13.149,25.393,2.58c4.33-10.32-12.484-19.223,5.272-28.998
	c-20.941,10.035-0.93,20.448-7.991,28.781c-6.922,8.17-19.035-3.707-19.914-7.094C32.443,38.417,31.281,41.084,31.281,41.084z"/>
<path fill="#8A6859" d="M21.319,27.209c0.857-0.482-2.296-4.898-3.267-3.837c-0.967,1.06-3.546,7.425-4.058,7.387
	c-0.595-0.047-1.688,0.456-2.918,0.524c-1.311,0.07-2.346-0.367-3.07,0.302c-0.399,0.368,0.326-0.015,1.259,0.05
	c0.521,0.037-1.516,0.486-0.833,1.901c0.086,0.175,0.05-0.695,0.993-0.932c0.386-0.095-0.532,0.801,0.229,1.483
	c0.232,0.208-0.004-0.697,0.441-0.983c0.414-0.268,0.848-0.301,1.189-0.95c0.248-0.472,2.476,0.444,4.085,0.522
	C16.054,32.711,15.644,30.393,21.319,27.209z"/>
<path fill="#594640" d="M11.052,5.927c0.613,1.383,3.811,2.462,4.327-1.612C14.492,3.256,12.063,2.188,11.052,5.927z"/>
<path fill="#FDCA47" d="M12.063,5.835c0.4,0.599,2.281,0.883,2.617-0.883C14.101,4.492,12.455,4.095,12.063,5.835z"/>
<path fill="#302C3B" d="M13.587,5.427c0,0.667-0.841,0.667-0.841,0C12.746,4.759,13.587,4.759,13.587,5.427z"/>
<path fill="#FFFFFF" d="M12.782,5.052c0.317,0,0.317,0.482,0,0.482C12.469,5.534,12.469,5.052,12.782,5.052z"/>
<path fill="#8A6859" d="M24.96,31.31c-2.697,1.813-2.683,10.526-0.435,12.491c2.701,2.355,11.15,7.109,8.242,12.738
	c-1.033,2-2.447,0.178-4.419,3.041c-1.55,2.248,1.707,1.402,3.721,0.251c-0.307,2.885,3.407,1.362,3.68-0.702
	c0.553,2.511,4.972,1.837,2.644-2.233c-2.593-4.533,0.324-6.861-1.296-7.934c-2.24-1.484-0.176-3.372-2.947-5.075
	C31.238,42.095,42.035,30.726,24.96,31.31z"/>
<path fill="#302C3B" d="M29.337,59.001c-1.545,0.03-2.203,1.314-2.477,2.628C28.765,60.315,31.14,61.445,29.337,59.001z"/>
<path fill="#302C3B" d="M33.147,59.369c-1.544,0.029-2.203,1.316-2.477,2.631C32.576,60.686,34.951,61.814,33.147,59.369z"/>
<path fill="#302C3B" d="M37.297,58.903c-1.545,0.028-2.203,1.314-2.479,2.63C36.725,60.218,39.1,61.348,37.297,58.903z"/>
<path fill="#594640" d="M4.415,7.781C3.721,7.71,3.641,8.313,3.602,9.094C2.991,8.13,3.637,7.082,4.415,7.781z"/>
<path fill="#AB8A7B" d="M17.978,9.236c-2.189,1.728-4.394-0.573-6.064,1.02c-1.925,1.833-4.021,3.035-9.266,2.09
	c1.122,4.691,5.01,3.35,9.414,2.793C17.357,14.47,18.716,11.883,17.978,9.236z"/>
<path fill="#CFD8DD" d="M3.012,12.461c0.239,0.797,0.826,1.324,1.518,1.473C3.664,12.194,5.102,12.971,3.012,12.461z"/>
<path fill="#CFD8DD" d="M4.529,12.753c0.238,0.797,0.825,1.324,1.518,1.473C5.182,12.486,6.725,12.753,4.529,12.753z"/>
<path fill="#CFD8DD" d="M5.932,12.635c0.227,0.751,0.78,1.248,1.434,1.391C6.548,12.384,8.006,12.635,5.932,12.635z"/>
<path fill="#CFD8DD" d="M7.24,12.643c0.333,0.608,0.906,0.941,1.498,0.942C7.729,12.308,9.041,12.264,7.24,12.643z"/>
<path fill="#CFD8DD" d="M8.479,12.219c0.273,0.479,0.732,0.735,1.202,0.728C8.861,11.946,9.902,11.894,8.479,12.219z"/>
<path fill="#8A6859" d="M2,11.965c2.174,1.679,8.406,1.517,10.063-1.84C9.31,12.914,3.875,12.8,2,11.965z"/>
</svg>
