<?xml version="1.0" encoding="utf-8"?>
<!-- Generator: Adobe Illustrator 15.0.0, SVG Export Plug-In . SVG Version: 6.00 Build 0)  -->
<!DOCTYPE svg PUBLIC "-//W3C//DTD SVG 1.1//EN" "http://www.w3.org/Graphics/SVG/1.1/DTD/svg11.dtd">
<svg version="1.1" id="Layer_1" xmlns="http://www.w3.org/2000/svg" xmlns:xlink="http://www.w3.org/1999/xlink" x="0px" y="0px"
	 width="64px" height="64px" viewBox="0 0 64 64" enable-background="new 0 0 64 64" xml:space="preserve">
<path fill="#8A6859" d="M5.464,58.637l0.194,0.545l3.406-0.83l2.069-5.535c0,0,0.386,0.396,0.351,0.639
	c-0.441,2.959-1.35,4.65-1.763,5.131l0.519,0.982l-1.089-0.541L4.36,59.568C4.617,59.145,4.981,58.703,5.464,58.637z"/>
<path fill="#785647" d="M51.825,52.695l-0.479,1.002l-3.877-1.002l-4.187-16.392l-0.97,1.004c0.09,6.641,3.097,14.61,3.854,15.702
	l-0.639,1.645l1.649-0.682l6.584,0.729C53.347,53.836,52.731,52.92,51.825,52.695z"/>
<ellipse transform="matrix(-0.2275 -0.9738 0.9738 -0.2275 16.7683 86.3796)" fill="#8A6859" cx="42.647" cy="36.539" rx="1.002" ry="0.969"/>
<path fill="#8A6859" d="M31.972,50.397c2.229-0.865,6.145-3.542,10.328-11.726c0.457-0.891,0.212-2.058-0.648-2.565
	c-0.333-0.196-0.712-0.277-1.12-0.102c-1.156,0.501-11.693,6.756-11.207,12.638C29.432,49.985,30.754,50.871,31.972,50.397z"/>
<path fill="#594640" d="M18.474,55.916c0,0,5.491,2.119,10.588,2.436c17.253,1.063,22.349-7.301,22.349-7.301
	s-16.665-8.516-32.937-2.434V55.916z"/>
<path fill="#C4926E" d="M20.826,49.834c0,0,7.938-1.055,12.939,0c18.235,3.854,28.234,0,28.234,0s-24.9-10.949-41.171-4.865v4.865
	H20.826z"/>
<path fill="#594640" d="M11.808,48.164C6.709,44.539,3.105,39,2,32.83c2.134,5.453,5.694,10.895,9.889,15.246L11.808,48.164z"/>
<path fill="#785647" d="M56.696,58.352l-0.58,1.215l-4.706-1.215l-4.014-19.477L46.22,40.09c0.11,8.061,2.691,17.32,3.611,18.643
	l-0.772,1.994l1.998-0.828l7.992,0.885C58.541,59.736,57.798,58.623,56.696,58.352z"/>
<ellipse transform="matrix(-0.2278 -0.9737 0.9737 -0.2278 18.9878 93.1487)" fill="#8A6859" cx="46.431" cy="39.045" rx="1.216" ry="1.176"/>
<path fill="#8A6859" d="M33.475,55.863c2.709-1.057,7.456-4.299,12.534-14.229c0.556-1.085,0.257-2.498-0.786-3.116
	c-0.404-0.235-0.866-0.334-1.36-0.12c-1.402,0.604-14.189,8.196-13.602,15.333C30.396,55.362,32.002,56.437,33.475,55.863z"/>
<path fill="#B47D56" d="M13.059,44.834c2.515-1.143,5.758-2.047,13.312-1.723c0.344,0.016,0.7,0.059,0.746,0.377
	c0.164,1.166,0.237,4.332-3.59,5.191c-0.553,0.125-1.681,0.006-1.812,1.406c-0.134,1.398,0.677,3.805-0.889,5.828
	c-1.373,1.777-4.707,0-4.707,0S16.635,50.898,13.059,44.834z"/>
<path fill="#594640" d="M17.377,47.07c-0.291-1.156-1.25-2.121-2.479-2.457c-1.83-0.496-4.443-0.447-5.656,3.209
	c-1.961,5.93,3.604,9.936,4.879,10.266c1.273,0.33,3.527-2.324,3.527-2.324S18.723,52.414,17.377,47.07z"/>
<path fill="#302C3B" d="M13.828,47.441c0.959-0.227,1.956,0.584,2.226,1.809c0.268,1.225-0.292,2.4-1.253,2.625
	c-0.959,0.227-1.956-0.584-2.226-1.807C12.305,48.842,12.866,47.666,13.828,47.441z"/>
<path fill="#FFFFFF" d="M13.229,48.197c0.218-0.074,0.444,0.191,0.506,0.594c0.061,0.402-0.066,0.789-0.285,0.863
	c-0.218,0.074-0.444-0.191-0.506-0.594S13.011,48.271,13.229,48.197z"/>
<path fill="#785647" d="M36.722,60.193l-0.431,0.902l-3.498-0.902l-2.623-9.947c0,0-0.737,0.615-0.715,1.041
	c0.253,5.189,1.532,8.281,2.163,9.189l-0.573,1.482l1.486-0.613L38.47,62C38.095,61.223,37.542,60.395,36.722,60.193z"/>
<ellipse fill="#967668" cx="29.648" cy="50.442" rx="0.588" ry="0.608"/>
<path fill="#967668" d="M28.904,50.516c-0.558,0.77-4.38,6.01-3.121,7.619c0.376,0.477,1.115,0.049,1.36-0.197
	C29.142,55.895,30.527,48.289,28.904,50.516z"/>
<path fill="#8A6859" d="M17.186,58.6l-4.204-2.781c0,0-1.184-0.023-0.244,0.818c3.134,2.816,4.604,2.266,4.604,2.266L17.186,58.6z"
	/>
<path fill="#8A6859" d="M17.452,58.787c0.56-0.77,4.38-6.012,3.121-7.619c-0.373-0.477-1.115-0.051-1.359,0.199
	C17.215,53.408,15.829,61.012,17.452,58.787z"/>
<path fill="#8A6859" d="M6.683,61.07l0.195,0.545l3.354-0.832l2.405-5.572c0,0,0.052,0.434,0.017,0.676
	c-0.442,2.957-1.352,4.648-1.765,5.131L11.46,62l-1.142-0.541L5.579,62C5.842,61.578,6.202,61.137,6.683,61.07z"/>
<ellipse fill="#8A6859" cx="12.637" cy="55.819" rx="0.59" ry="0.608"/>
<path fill="#785647" d="M12.483,47.393C8.272,42.588,5.489,36.387,4.686,30c1.925,5.816,4.709,11.904,7.896,17.328L12.483,47.393z"
	/>
</svg>
