<?xml version="1.0" encoding="utf-8"?>
<!-- Generator: Adobe Illustrator 15.0.0, SVG Export Plug-In . SVG Version: 6.00 Build 0)  -->
<!DOCTYPE svg PUBLIC "-//W3C//DTD SVG 1.1//EN" "http://www.w3.org/Graphics/SVG/1.1/DTD/svg11.dtd">
<svg version="1.1" id="Layer_1" xmlns="http://www.w3.org/2000/svg" xmlns:xlink="http://www.w3.org/1999/xlink" x="0px" y="0px"
	 width="64px" height="64px" viewBox="0 0 64 64" enable-background="new 0 0 64 64" xml:space="preserve">
<path fill="#F9B700" d="M22.071,19.035c7.572-0.271,6.705-9.203,0-9.755V19.035z"/>
<path fill="#F9B700" d="M2,26.81l59.642-11.392v33.405L2,59.001v-9.688c6.209,0,6.708-12.371,0-12.371V26.81z"/>
<path fill="#FFE12C" d="M2,26.81c0-0.948,14.269-12.172,14.269-12.172c5.387,3.052,10.879-1.485,5.803-5.357l5.127-4.079
	c2.091,0,19.072-2.519,33.802,10.27C61,15.471,2,27.687,2,26.81z"/>
<path fill="#F59E01" d="M61.642,14.973c-0.508-0.472-9.529-7.901-22.858-9.517c9.27,2.511,21.157,7.135,19.611,9.643
	c-0.401,0.652-16.206,3.803-16.169,4.213c0.038,0.41,17.459-2.556,17.916-1.876c0.23,0.348,1.5,18.534,1.5,18.534
	C62.089,29.873,62.149,15.448,61.642,14.973z"/>
<path fill="#F9B700" d="M42.235,10.295c-3.517-5.376-12.549-2.523-11.742,2.368L42.235,10.295z"/>
<path fill="#D99025" d="M42.235,10.295C39.348,8.28,32.54,8.16,30.493,12.663C31.776,18.321,43.729,15.416,42.235,10.295z"/>
<path fill="#FFE12C" d="M19.019,38.6c4.306,8.103,13.279,2.718,11.833-4.892L19.019,38.6z"/>
<path fill="#D47706" d="M19.019,38.6c3.235,2.878,10.283,2.392,11.833-4.892C28.819,24.939,16.835,30.694,19.019,38.6z"/>
<path fill="#FFE12C" d="M45.593,33.263c5.242,7.929,14.079,2.063,11.859-5.516L45.593,33.263z"/>
<path fill="#D47706" d="M45.593,33.263c3.637,2.73,10.93,1.886,11.859-5.516C54.516,19.036,42.578,25.423,45.593,33.263z"/>
<path fill="#FFE12C" d="M46.816,43.388c0.788,7.941-7.761,9.32-10.259,3.324L46.816,43.388z"/>
<path fill="#D47706" d="M46.816,43.388c-0.877,3.78-5.879,7.411-10.259,3.324C33.923,39.592,44.683,36.771,46.816,43.388z"/>
<path fill="#FFE12C" d="M19.274,47.707c1.719,5.073-3.688,7.546-6.236,4.064L19.274,47.707z"/>
<path fill="#D47706" d="M19.274,47.707c-0.004,2.645-2.741,5.946-6.236,4.064C10.23,47.575,16.872,43.751,19.274,47.707z"/>
<path fill="#F9B700" d="M21.105,19.425c-2.265-3.116-7.862-1.448-7.296,1.392L21.105,19.425z"/>
<path fill="#D99025" d="M21.105,19.425c-1.827-1.164-6.077-1.226-7.296,1.392C14.683,24.099,22.103,22.397,21.105,19.425z"/>
</svg>
