<?xml version="1.0" encoding="utf-8"?>
<!-- Generator: Adobe Illustrator 15.0.0, SVG Export Plug-In . SVG Version: 6.00 Build 0)  -->
<!DOCTYPE svg PUBLIC "-//W3C//DTD SVG 1.1//EN" "http://www.w3.org/Graphics/SVG/1.1/DTD/svg11.dtd">
<svg version="1.1" id="Layer_1" xmlns="http://www.w3.org/2000/svg" xmlns:xlink="http://www.w3.org/1999/xlink" x="0px" y="0px"
	 width="64px" height="64px" viewBox="0 0 64 64" enable-background="new 0 0 64 64" xml:space="preserve">
<rect x="15.331" y="31.799" fill="#A3864C" width="33.338" height="22.831"/>
<polygon fill="#BF8D69" points="23.894,51.911 32,57.991 40.109,51.911 40.109,45.432 23.894,45.432 "/>
<path fill="#529320" d="M53.451,54.367c-0.082-0.034-0.099-0.282,0-0.356c-3.381-1.087-6.748-1.849-9.789-2.399
	c-0.907-3.498,0.935-5.072,0.935-5.072C34.714,46.539,32,57.991,32,57.991s-2.714-11.452-12.598-11.452c0,0,1.842,1.574,0.935,5.072
	c-3.042,0.551-6.407,1.313-9.788,2.399c0.098,0.074,0.082,0.322,0,0.356C6.791,56.005,6,62,6,62h52
	C58,62,57.209,56.005,53.451,54.367z"/>
<path fill="#297124" d="M53.451,54.011C49.053,58.117,50.712,62,50.712,62s-0.305-4.432,2.908-7.554
	C53.725,54.213,53.613,54.021,53.451,54.011z"/>
<path fill="#297124" d="M34.748,59.842c0,0,6.353-4.343,8.905-8.238C41.618,56.319,34.748,59.842,34.748,59.842z"/>
<path fill="#297124" d="M10.549,54.011C14.947,58.117,13.288,62,13.288,62s0.304-4.432-2.909-7.554
	C10.275,54.213,10.386,54.021,10.549,54.011z"/>
<path fill="#297124" d="M29.251,59.842c0,0-6.353-4.343-8.904-8.238C22.381,56.319,29.251,59.842,29.251,59.842z"/>
<path fill="#C49A45" d="M33.625,59.132c0,2.768-3.25,2.768-3.25,0C30.375,56.566,33.625,56.566,33.625,59.132z"/>
<path fill="#E5BC5E" d="M33.089,59.151c0,2.076-2.167,2.076-2.167,0C30.922,57.228,33.089,57.228,33.089,59.151z"/>
<path fill="#C8A35D" d="M32.018,2c-20,0-20,12.358-20,26.844h40C52.018,14.358,52.018,2,32.018,2z"/>
<polygon fill="#C8A35D" points="48.785,28.844 48.785,34.619 49.287,32.492 50.092,23.781 "/>
<polygon fill="#C8A35D" points="15.248,28.844 15.248,34.619 14.744,32.492 13.943,23.781 "/>
<path fill="#A3864C" d="M48.682,19.707c0,0-0.594,16.587-2,21.832c-2.31,8.621,0.736,12.702,1.006,20.42
	c2.309-5.971,4.309-13.092,2.969-23.994c-0.865-7.031,1.568-9.651,0.648-18.258C51.23,19.006,48.682,19.707,48.682,19.707z"/>
<path fill="#A3864C" d="M15.318,19.707c0,0,0.594,16.587,2,21.832c2.31,8.621-0.736,12.702-1.006,20.42
	c-2.309-5.971-4.309-13.092-2.968-23.994c0.864-7.031-1.568-9.651-0.649-18.258C12.77,19.006,15.318,19.707,15.318,19.707z"/>
<path fill="#A3864C" d="M51.616,22.777c0-20.881-16.974-10.474-19.615-10.474c-2.638,0-19.616-10.407-19.616,10.474H51.616z"/>
<path fill="#DEA885" d="M10.284,17.988c-1.945-0.33,3.035,20.932,6.921,17.314C19.339,33.314,13.037,18.459,10.284,17.988z"/>
<path fill="#DEA885" d="M53.715,17.988c-2.752,0.471-9.055,15.326-6.92,17.314C50.681,38.918,55.66,17.658,53.715,17.988z"/>
<path fill="#EBBEA0" d="M48.924,25.777c0-20.882-14.645-10.474-16.923-10.474c-2.275,0-16.924-10.408-16.924,10.474
	c0,0,0.037,4.396,1.133,10.171c1.45,7.64,9.584,13.163,15.79,13.163c6.207,0,14.342-5.523,15.791-13.163
	C48.887,30.172,48.924,25.777,48.924,25.777z"/>
<path fill="#BF8C6B" d="M32,39.121c-3.152-0.836-7.826,0.396-7.826,0.396c1.78,1.744,3.085,4.008,7.826,4.008
	c5.434,0,6.355-2.57,7.826-4.008C39.826,39.518,35.148,38.282,32,39.121z"/>
<path fill="#FFFFFF" d="M25.275,39.58c3.349,3.113,10.121,3.135,13.491,0C35.192,39.75,28.873,39.752,25.275,39.58z"/>
<path fill="#F5F5F5" d="M46.477,26.742c-1.883,4.909-9.551,4.188-10.955,0.756C36.589,21.98,45.441,21.508,46.477,26.742z"/>
<path fill="#45332C" d="M37.478,26.219c0,4.33,6.262,4.33,6.262,0C43.739,22.199,37.478,22.199,37.478,26.219z"/>
<path fill="#45332C" d="M46.477,26.707c0-5.271-10.955-5.271-10.955,0.833C37.087,22.532,44.913,22.532,46.477,26.707z"/>
<path fill="#F5F5F5" d="M17.522,26.742c1.885,4.909,9.552,4.188,10.957,0.756C27.411,21.98,18.56,21.508,17.522,26.742z"/>
<path fill="#45332C" d="M26.521,26.219c0,4.33-6.261,4.33-6.261,0C20.261,22.2,26.521,22.2,26.521,26.219z"/>
<path fill="#45332C" d="M17.522,26.707c0-5.27,10.957-5.27,10.957,0.832C26.914,22.532,19.087,22.532,17.522,26.707z"/>
<path fill="#F5F5F5" d="M37.863,25.166c0,1.084,1.565,1.084,1.565,0C39.429,24.162,37.863,24.162,37.863,25.166z"/>
<path fill="#F5F5F5" d="M22.406,24.947c0,1.082-1.564,1.082-1.564,0C20.842,23.941,22.406,23.941,22.406,24.947z"/>
<path fill="#BF8D69" d="M46.061,21.895c-3.363-1.385-7.966-1.656-10.329-0.732c-0.499,0.195-0.484,1.39-0.043,1.27
	c3.389-0.923,7.289-0.994,10.497,0.123C46.617,22.705,46.564,22.103,46.061,21.895z"/>
<path fill="#BF8D69" d="M17.94,21.895c3.362-1.385,7.964-1.656,10.329-0.732c0.499,0.195,0.483,1.39,0.042,1.27
	c-3.389-0.923-7.289-0.994-10.497,0.123C17.382,22.705,17.434,22.103,17.94,21.895z"/>
<path fill="#BF8D69" d="M35.913,34.252c0,2.547-7.826,2.547-7.826,0C28.087,33.668,35.913,33.668,35.913,34.252z"/>
</svg>
