<?xml version="1.0" encoding="utf-8"?>
<!-- Generator: Adobe Illustrator 15.0.0, SVG Export Plug-In . SVG Version: 6.00 Build 0)  -->
<!DOCTYPE svg PUBLIC "-//W3C//DTD SVG 1.1//EN" "http://www.w3.org/Graphics/SVG/1.1/DTD/svg11.dtd">
<svg version="1.1" id="Layer_1" xmlns="http://www.w3.org/2000/svg" xmlns:xlink="http://www.w3.org/1999/xlink" x="0px" y="0px"
	 width="64px" height="64px" viewBox="0 0 64 64" enable-background="new 0 0 64 64" xml:space="preserve">
<path fill="#302C3B" d="M28.926,5.744L25.03,6.736c-0.744-2,0.834-3.83,3.207-4.482C27.45,3.43,27.766,4.494,28.926,5.744z"/>
<path fill="#4E5E67" d="M38.371,20.805C44.885,1.072,27.573-2.289,26.338,6.863c0,0-1.768,27.779,13.812,25.082
	C38.027,30.963,35.938,28.178,38.371,20.805z"/>
<path fill="#302C3B" d="M33.379,5.301c-3.783-2.359-2.507-3.184,0.139-3.043c-3.257-0.898-6.558,0.557-7.16,4.309
	c-2.186,13.641,1.113,30.777,14.796,27.244C27.68,31.279,45.494,12.848,33.379,5.301z"/>
<path fill="#FF8FA8" d="M26.442,5.574c-3.08,3.188,8.021,11.615,8.046,4.299C34.502,5.762,28.395,3.547,26.442,5.574z"/>
<path fill="#F59E01" d="M47.686,60.766c0,1.646,6.23,1.646,6.229,0C53.912,58.389,47.689,58.389,47.686,60.766z"/>
<path fill="#F9B700" d="M39.566,53.801c0.709,0.328,4.193,0.186,6.33,3.529c2.637,4.129,8.51,3.273,9.311,0.162
	c5.826,2.098,1.102-10.037-1.283-2.678c-1.555-1.533-5.063-1.395-6.748-0.617c-1.594,0.736-5.057-0.916-6.096-1.875
	C40.734,52.004,39.223,53.223,39.566,53.801z M55.316,55.555c0.236-2.188,1.309-1.082,1.475-0.387
	C57.271,57.191,55.184,56.803,55.316,55.555z"/>
<path fill="#AB5C10" d="M39.754,53.652c0.26,0.26,1.402-0.889,1.143-1.15C40.637,52.242,39.494,53.391,39.754,53.652z"/>
<path fill="#F59E01" d="M47.014,53.916c0.002,1.645,6.232,1.645,6.23,0C53.242,51.537,47.018,51.537,47.014,53.916z"/>
<path fill="#F9B700" d="M49.043,52.012c0,0.922,2.172,0.922,2.17,0C51.213,50.68,49.045,50.68,49.043,52.012z"/>
<path fill="#0FB4D4" d="M21.094,27.275c-1.551,0.293-3.088,0.816-3.73,3.148c-0.545,1.973-2.584,4.168-2.807,5.385
	c-2.09,1.498-3.391,4.512-5.082,5.475c-2.707,1.537-3.621,3.555-3.221,5.094c0,0-0.531,1.002-0.059,1.436
	C6.948,48.5,8.62,46.682,8.62,46.682c0.313,0.945,1.203-0.008,2.453-3.162c1.143-1.443,5.074-4.664,5.791-6.145
	C18.467,34.061,22.209,30.537,21.094,27.275z"/>
<path fill="#0FB4D4" d="M43.701,20.244c-1.664-0.047-2.977-0.189-2.902,1.377c0.104,2.201-1.277,4.885-1.572,6.615
	c-1.443-0.318-3.406-0.389-4.572-0.439c-7.933-2.479-4.869,3.391-1.475,3.438c6.938,0.094,7.744,0.418,8.182-0.416
	c1.043-1.982,0.875-5.582,1.18-8.459c1.316-0.592,2.58,0.006,4.236-1.383C48.273,19.723,45.412,20.293,43.701,20.244z"/>
<path fill="#0FB4D4" d="M30.532,27.385c-0.68-0.246-1.111-0.287-2.34-0.715c-0.652-0.891-0.15-4.953-0.15-4.953h-4.789
	c0,0,0.502,4.063-0.15,4.953c-1.227,0.428-1.658,0.469-2.338,0.715c-4.756,1.717,1.68,8.352-0.051,14.652h9.977
	C28.85,35.736,35.289,29.102,30.532,27.385z"/>
<path fill="#FF8FA8" d="M20.981,40.055c3.027,1.92,6.924,1.889,9.406,0c1.518,2.17,2.137,6.463,1.43,8.855
	c-0.891,3.023,4.783-1.248,8.292,3.496c-5.305-3.473-6.463,4.307-13.828,3.156C17.53,54.197,18.221,42.902,20.981,40.055z"/>
<path fill="#006DAE" d="M26.313,30.561c-0.412,0.441-0.734,1.445-0.734,1.445s-0.32-1.004-0.734-1.445
	c0.734,2.258,0.557,3.273,0.557,3.273h0.355C25.756,33.834,25.579,32.678,26.313,30.561z"/>
<path fill="#FF8FA8" d="M30.415,27.434c1.615,5.164-3.373,2.447-4.59,6.127h-0.49c-1.217-3.68-6.205-0.963-4.59-6.127
	c-4.531,5.135-0.875,10.02,4.432,7.127h0.807C31.29,37.453,34.945,32.568,30.415,27.434z"/>
<path fill="#006DAE" d="M25.657,39.555c-0.111,0.621,0.363,0.785,0.063,0.949C25.52,40.748,25.004,40.057,25.657,39.555z"/>
<path fill="#4E5E67" d="M25.579,5.787c-5.941,0-8.646,3.836-9.186,8.99c-0.286,2.732,0.348,4.699,2.624,6.328
	c2.683,1.916,10.44,1.916,13.122,0c2.277-1.629,2.91-3.596,2.625-6.328c-0.822-7.871-4.92-7.326-4.92-7.326
	S29.491,5.787,25.579,5.787z"/>
<path fill="#0099B5" d="M18.883,19.045c0.904-0.844,0.084-4.148-1.084-4.346C15.307,14.273,16.931,20.861,18.883,19.045z"/>
<path fill="#0099B5" d="M32.274,19.045c-0.904-0.844-0.084-4.148,1.083-4.346C35.85,14.273,34.227,20.861,32.274,19.045z"/>
<path fill="#0FB4D4" d="M33.117,14.785c-4.898-2.816-4.023-6.193-4.023-6.193c-5.346,4.086-11.035,6.203-11.035,6.203
	s-0.003,2.535,0.484,5.107c0.477,2.512,4.44,5.865,7.035,5.865c2.596,0,6.56-3.354,7.035-5.865
	C33.102,17.33,33.117,14.785,33.117,14.785z"/>
<path fill="#302C3B" d="M18.059,14.795c0,0,9.211-2.178,11.784-7.344C24.581,11.814,18.059,14.795,18.059,14.795z"/>
<path fill="#302C3B" d="M33.117,14.785c0,0-7.133-2.646-3.274-7.334C27.834,11.568,33.117,14.785,33.117,14.785z"/>
<path fill="#F5F5F5" d="M31.711,16.611c-0.792,2.063-4.016,1.76-4.606,0.316C27.553,14.607,31.276,14.408,31.711,16.611z"/>
<path fill="#45332C" d="M27.927,16.391c0,1.82,2.633,1.82,2.633,0C30.56,14.699,27.927,14.699,27.927,16.391z"/>
<path fill="#45332C" d="M31.711,16.596c0-2.217-4.606-2.217-4.606,0.35C27.762,14.84,31.053,14.84,31.711,16.596z"/>
<path fill="#F5F5F5" d="M19.537,16.611c0.792,2.063,4.017,1.76,4.606,0.316C23.695,14.607,19.973,14.408,19.537,16.611z"/>
<path fill="#45332C" d="M23.321,16.391c0,1.82-2.633,1.82-2.633,0C20.688,14.701,23.321,14.701,23.321,16.391z"/>
<path fill="#45332C" d="M19.537,16.596c0-2.217,4.606-2.217,4.606,0.35C23.486,14.84,20.194,14.84,19.537,16.596z"/>
<path fill="#006DAE" d="M28.915,21.902c-0.619,0.701-1.006,1.941-3.291,1.941c-1.992,0-2.542-1.092-3.29-1.941H28.915z"/>
<path fill="#FFFFFF" d="M28.503,21.924c-1.354,1.389-4.387,1.408-5.759,0H28.503z"/>
<path fill="#006DAE" d="M25.624,21.793c-1.289-0.566-1.299-0.023-3.29,0.109c2.515,0.283,4.066,0.283,6.581,0
	C26.923,21.77,26.913,21.227,25.624,21.793z"/>
<path fill="#006DAE" d="M31.432,14.621c-1.396-0.574-3.305-0.688-4.285-0.303c-0.207,0.08-0.201,0.576-0.018,0.525
	c1.405-0.383,3.023-0.412,4.355,0.051C31.664,14.957,31.641,14.707,31.432,14.621z"/>
<path fill="#006DAE" d="M19.766,14.621c1.395-0.574,3.304-0.686,4.285-0.303c0.206,0.08,0.199,0.576,0.018,0.525
	c-1.406-0.383-3.025-0.412-4.355,0.053C19.534,14.957,19.555,14.707,19.766,14.621z"/>
<path fill="#006DAE" d="M27.27,19.912c0,1.055-3.248,1.055-3.248,0C24.022,19.668,27.27,19.668,27.27,19.912z"/>
</svg>
