<?xml version="1.0" encoding="utf-8"?>
<!-- Generator: Adobe Illustrator 15.0.0, SVG Export Plug-In . SVG Version: 6.00 Build 0)  -->
<!DOCTYPE svg PUBLIC "-//W3C//DTD SVG 1.1//EN" "http://www.w3.org/Graphics/SVG/1.1/DTD/svg11.dtd">
<svg version="1.1" id="Layer_1" xmlns="http://www.w3.org/2000/svg" xmlns:xlink="http://www.w3.org/1999/xlink" x="0px" y="0px"
	 width="64px" height="64px" viewBox="0 0 64 64" enable-background="new 0 0 64 64" xml:space="preserve">
<path fill="#014D87" d="M56,27.281C56,30.533,50.576,30,29,30C7.424,30,2,30.533,2,27.281C2,24.025,56,24.025,56,27.281z"/>
<path fill="#006DAE" d="M5,62h48C53,38.328,5,38.328,5,62z"/>
<path fill="#014D87" d="M8.593,42.082C9.646,54.503,27.406,53.763,27.385,62h3.23c-0.021-8.237,17.738-7.497,18.791-19.918
	C38.527,36.471,19.174,36.625,8.593,42.082z"/>
<path fill="#3B2B1C" d="M26.048,35.998c0.966,2.35,4.935,2.371,5.901,0H26.048z"/>
<path fill="#F59E01" d="M23.406,59.637c0,1.334-2,1.334-2,0C21.406,58.304,23.406,58.304,23.406,59.637z"/>
<path fill="#F59E01" d="M36.594,59.637c0,1.334-2,1.334-2,0C34.594,58.304,36.594,58.304,36.594,59.637z"/>
<path fill="#F9B700" d="M35.877,60.135c-4.512,1.158-9.242,1.158-13.754,0c0.098-0.379,0.195-0.76,0.293-1.14
	c4.32,1.108,8.848,1.108,13.168,0C35.682,59.375,35.779,59.756,35.877,60.135z"/>
<circle fill="#7AB51D" cx="55" cy="39" r="7"/>
<circle fill="#92C932" cx="55" cy="38.999" r="6.198"/>
<path fill="#A6E639" d="M48.803,38.211c0-3.078,2.777-5.576,6.197-5.576c3.424,0,6.198,2.498,6.198,5.576
	C61.198,41.293,48.803,41.293,48.803,38.211z"/>
<path fill="#E0FFAB" d="M50.055,37.133c0.166,1.164,2.348-1.115,4.555-3.074C56.035,32.799,49.557,33.627,50.055,37.133z"/>
<path fill="#A6E639" d="M51.092,41.605c0-0.818,1.75-0.133,3.908-0.133c2.16,0,3.91-0.688,3.91,0.133
	c0,1.277-1.955,2.158-3.91,2.158C53.047,43.764,51.092,42.885,51.092,41.605z"/>
<path fill="#785647" d="M48.973,39.523c0,0-3.209,4.295-1.455,6.377C49.93,48.759,46.91,62,46.91,62h3.262
	c0,0,1.059-10.173,7.271-16.297C59.311,43.863,48.855,45.275,48.973,39.523z"/>
<path fill="#9E6C49" d="M49.736,40.818c0,0-3.049,3.041-1.293,5.123C50.855,48.802,47.275,62,47.275,62h1.855
	c0,0-0.887-10.702,5.326-16.826C56.324,43.334,49.621,46.568,49.736,40.818z"/>
<path fill="#7AB51D" d="M59.49,33.803c2.875,3.875,1.021,7.605-0.268,8.42c-2.365-0.223-3.459,0.914-5.471,0.914
	c-1.605,0-2.723-6.191-4.48-6.434c0.303,6.252,3.805,8.854,5.949,8.854c3.744,0,6.778-3.033,6.778-6.777
	C62,36.639,61.041,35.049,59.49,33.803z"/>
<path fill="#785647" d="M48.82,36.545c-1.395,0.152-1.789,8.211,3.143,10.688c2.084,1.049,8.922-1.704,8.33-3.962
	c-0.477-1.803-5.814,1.23-7.451,0.334C51.063,42.627,50.842,36.326,48.82,36.545z"/>
<path fill="#9E6C49" d="M48.971,36.945c-1.404,0.004-2.225,7.971,2.992,9.771c2.152,0.745,4.602-0.695,0.152-2.148
	C50.188,43.939,50.072,36.939,48.971,36.945z"/>
<path fill="#99A8AE" d="M28.999,12.449c-14.769,0-14.773,8.89-14.773,20h29.547C43.773,21.339,43.769,12.449,28.999,12.449z"/>
<path fill="#523924" d="M17.159,36.771c1.601-1.49,0.147-7.335-1.917-7.688C10.833,28.334,13.706,39.984,17.159,36.771z"/>
<path fill="#523924" d="M40.841,36.771c-1.601-1.49-0.148-7.335,1.915-7.688C47.166,28.334,44.293,39.983,40.841,36.771z"/>
<path fill="#614A36" d="M29,18.376c-15.432,0-9.214,1.788-13.333,10.852c0,0,0.029,4.157,0.893,8.616
	C17.672,43.592,24.141,48.007,29,48.007c4.86,0,11.329-4.415,12.441-10.163c0.862-4.459,0.893-8.616,0.893-8.616
	C38.213,20.164,44.431,18.376,29,18.376z"/>
<path fill="#F5F5F5" d="M39.962,30.537c-1.427,3.717-7.232,3.171-8.296,0.571C32.474,26.931,39.178,26.572,39.962,30.537z"/>
<path fill="#45332C" d="M33.147,30.141c0,3.277,4.74,3.277,4.74,0C37.888,27.097,33.147,27.097,33.147,30.141z"/>
<path fill="#45332C" d="M39.962,30.51c0-3.991-8.296-3.991-8.296,0.631C32.852,27.349,38.777,27.349,39.962,30.51z"/>
<path fill="#F5F5F5" d="M18.036,30.537c1.429,3.717,7.234,3.171,8.297,0.571C25.525,26.931,18.822,26.572,18.036,30.537z"/>
<path fill="#45332C" d="M24.852,30.141c0,3.277-4.741,3.277-4.741,0C20.11,27.098,24.852,27.098,24.852,30.141z"/>
<path fill="#45332C" d="M18.036,30.51c0-3.99,8.297-3.99,8.297,0.63C25.148,27.349,19.222,27.349,18.036,30.51z"/>
<path fill="#F5F5F5" d="M33.439,29.344c0,0.819,1.185,0.819,1.185,0C34.624,28.583,33.439,28.583,33.439,29.344z"/>
<path fill="#F5F5F5" d="M21.735,29.178c0,0.818-1.186,0.818-1.186,0C20.55,28.416,21.735,28.416,21.735,29.178z"/>
<path fill="#3B2B1C" d="M39.646,26.866c-2.547-1.05-6.031-1.254-7.821-0.555c-0.378,0.147-0.366,1.052-0.032,0.961
	c2.565-0.698,5.52-0.753,7.949,0.093C40.068,27.479,40.029,27.023,39.646,26.866z"/>
<path fill="#3B2B1C" d="M18.353,26.866c2.547-1.05,6.031-1.254,7.821-0.555c0.378,0.147,0.366,1.052,0.032,0.961
	c-2.565-0.698-5.52-0.753-7.948,0.093C17.931,27.479,17.971,27.023,18.353,26.866z"/>
<path fill="#3B2B1C" d="M31.962,35.808c0,1.929-5.926,1.929-5.926,0C26.036,35.365,31.962,35.365,31.962,35.808z"/>
<path fill="#CFD8DD" d="M43.2,37.074l-1.214-4.732c0,0-0.885,8.91-12.991,5.945V38.27c-12.107,2.965-12.982-5.945-12.982-5.945
	l-1.214,4.732c-3.637,14.716,13.5,17.142,14.196,22.926V60C29.691,54.216,46.837,51.79,43.2,37.074z"/>
<path fill="#E6EBEF" d="M43.632,39.533c0.703,12.483-13.123,12.144-14.637,16.706v-0.02c-1.517-4.563-15.331-4.223-14.627-16.704
	c-2.12,14.38,13.314,14.905,14.627,20.467V60C30.311,54.44,45.752,53.913,43.632,39.533z"/>
<path fill="#E6EBEF" d="M25.975,41.926l1.819,1.213c0,0.607,1.201,2.426,1.201,2.426s1.226-1.697,1.226-2.426l1.818-1.213
	C30.1,42.773,27.915,42.773,25.975,41.926z"/>
<path fill="#302C3B" d="M23.188,38.408c1.939,4.852,9.703,4.852,11.644,0H23.188z"/>
<path fill="#E6EBEF" d="M28.995,37.628V37.61c-13.623-2.245-5.705,8.827-10.679,9.164c6.391,2.123,2.477-6.589,8.25-5.799
	c1.525,0.209,2.429-0.929,2.429-2.32v0.017c0,1.393,0.912,2.529,2.438,2.32c5.772-0.788,1.858,7.923,8.248,5.8
	C34.709,46.456,42.615,35.383,28.995,37.628z"/>
<path opacity="0.3" fill="#1A1626" enable-background="new    " d="M43.648,25.999l0.088,2.089c0,0-8.521-1.088-14.736-1.088
	c-6.243,0-14.738,1.088-14.738,1.088l0.089-2.086C19.141,20.344,38.273,20.894,43.648,25.999z"/>
<path fill="#006DAE" d="M56.008,27.281c0,3.252-5.424-2.281-27-2.281c-21.575,0-27,5.533-27,2.281
	C2.008,16.025,56.008,16.025,56.008,27.281z"/>
<path fill="#006DAE" d="M40.635,15.488c0.165-3.02-5.205-5.309-4.373-8.465C36.665,5.496,39.133,4.47,38.003,2
	c-1.869,3.304-11.161,0-15.802,5.828c-3.713,2.186-11.516,11.823-8.155,15.182c7.067-1.203,21.149-1.686,29.934,0
	C47.271,19.719,41.82,16.011,40.635,15.488z"/>
<path fill="#FFFFFF" d="M21.934,21.098c7.19-3.648,1.449-12.368-4.229-7.686C21.883,12.269,25.357,17.965,21.934,21.098z"/>
<polygon fill="#FFFFFF" points="31.628,5.658 31.432,8.763 34.284,9.931 31.208,10.605 31.035,13.611 29.382,11.033 26.284,11.806 
	28.357,9.439 26.701,6.861 29.656,8.05 "/>
<polygon fill="#FFFFFF" points="34.443,14.988 35.891,16.822 38.066,16.044 36.688,17.963 38.096,19.729 35.881,19.115 
	34.538,21.098 34.512,18.736 32.295,18.127 34.542,17.313 "/>
<path opacity="0.2" fill="#013366" enable-background="new    " d="M38.003,2c1.333,3.121-4.214,3.96-4.517,7.921
	c1.396-2.223,2.99-0.629,2.746-1.678C35.633,5.574,39.352,4.996,38.003,2z"/>
<path opacity="0.2" fill="#013366" enable-background="new    " d="M39.063,12.269c0,0-9.701,0-19.742,5.95
	c6.965-2.145,16.574-3.946,21.314-2.729C40.914,14.121,39.063,12.269,39.063,12.269z"/>
<path opacity="0.2" fill="#013366" enable-background="new    " d="M41.695,18.219c0,0-3.441,0.762-13,2.855
	C36.477,16.98,41.695,18.219,41.695,18.219z"/>
</svg>
