<?xml version="1.0" encoding="utf-8"?>
<!-- Generator: Adobe Illustrator 15.0.0, SVG Export Plug-In . SVG Version: 6.00 Build 0)  -->
<!DOCTYPE svg PUBLIC "-//W3C//DTD SVG 1.1//EN" "http://www.w3.org/Graphics/SVG/1.1/DTD/svg11.dtd">
<svg version="1.1" id="Layer_1" xmlns="http://www.w3.org/2000/svg" xmlns:xlink="http://www.w3.org/1999/xlink" x="0px" y="0px"
	 width="64px" height="64px" viewBox="0 0 64 64" enable-background="new 0 0 64 64" xml:space="preserve">
<path fill="#014D87" d="M56,27.282C56,30.534,50.575,30,29,30S2,30.534,2,27.282C2,24.025,56,24.025,56,27.282z"/>
<path fill="#006DAE" d="M5,62h48C53,38.328,5,38.328,5,62z"/>
<path fill="#014D87" d="M8.594,42.082C9.646,54.502,27.406,53.762,27.385,62h3.23c-0.021-8.238,17.738-7.498,18.791-19.918
	C38.527,36.471,19.174,36.625,8.594,42.082z"/>
<path fill="#E6A400" d="M26.048,35.998c0.966,2.35,4.935,2.371,5.901,0H26.048z"/>
<path fill="#F59E01" d="M23.406,59.637c0,1.334-2,1.334-2,0S23.406,58.303,23.406,59.637z"/>
<path fill="#F59E01" d="M36.594,59.637c0,1.334-2,1.334-2,0S36.594,58.303,36.594,59.637z"/>
<path fill="#F9B700" d="M35.877,60.135c-4.512,1.158-9.242,1.158-13.754,0c0.098-0.379,0.195-0.76,0.293-1.141
	c4.32,1.109,8.848,1.109,13.168,0C35.682,59.375,35.779,59.756,35.877,60.135z"/>
<circle fill="#7AB51D" cx="55" cy="39" r="7"/>
<circle fill="#92C932" cx="55" cy="39" r="6.198"/>
<path fill="#A6E639" d="M48.802,38.211c0-3.078,2.777-5.576,6.198-5.576c3.424,0,6.198,2.498,6.198,5.576
	C61.198,41.293,48.802,41.293,48.802,38.211z"/>
<path fill="#E0FFAB" d="M50.055,37.133c0.166,1.164,2.348-1.115,4.555-3.074C56.034,32.799,49.557,33.627,50.055,37.133z"/>
<path fill="#A6E639" d="M51.092,41.605c0-0.818,1.75-0.133,3.907-0.133c2.16,0,3.91-0.687,3.91,0.133
	c0,1.278-1.955,2.158-3.909,2.158S51.092,42.885,51.092,41.605z"/>
<path fill="#785647" d="M48.973,39.523c0,0-3.209,4.295-1.455,6.377C49.93,48.758,46.91,62,46.91,62h3.261
	c0,0,1.06-10.174,7.272-16.297C59.311,43.863,48.855,45.275,48.973,39.523z"/>
<path fill="#9E6C49" d="M49.736,40.818c0,0-3.049,3.041-1.293,5.123C50.855,48.801,47.275,62,47.275,62h1.855
	c0,0-0.888-10.703,5.325-16.826C56.323,43.334,49.621,46.568,49.736,40.818z"/>
<path fill="#7AB51D" d="M59.49,33.803c2.875,3.875,1.021,7.605-0.268,8.42c-2.365-0.223-3.459,0.914-5.472,0.914
	c-1.604,0-2.722-6.191-4.479-6.434c0.303,6.252,3.805,8.854,5.949,8.854c3.743,0,6.778-3.033,6.778-6.776
	C62,36.639,61.041,35.049,59.49,33.803z"/>
<path fill="#785647" d="M48.82,36.545c-1.396,0.152-1.789,8.211,3.142,10.688c2.085,1.05,8.923-1.702,8.33-3.961
	c-0.476-1.803-5.813,1.23-7.45,0.334C51.063,42.627,50.842,36.326,48.82,36.545z"/>
<path fill="#9E6C49" d="M48.971,36.945c-1.404,0.004-2.225,7.971,2.991,9.772c2.153,0.744,4.603-0.696,0.153-2.149
	C50.188,43.939,50.072,36.939,48.971,36.945z"/>
<path fill="#99A8AE" d="M28.999,12.45c-14.769,0-14.772,8.889-14.772,20h29.547C43.773,21.339,43.769,12.45,28.999,12.45z"/>
<path fill="#F5BC2C" d="M17.159,36.771c1.601-1.49,0.147-7.334-1.916-7.687C10.834,28.334,13.706,39.984,17.159,36.771z"/>
<path fill="#F5BC2C" d="M40.841,36.771c-1.601-1.49-0.148-7.334,1.915-7.687C47.165,28.334,44.293,39.984,40.841,36.771z"/>
<path fill="#FDCA47" d="M29,18.376c-15.432,0-9.214,1.788-13.333,10.852c0,0,0.029,4.157,0.893,8.616
	c1.112,5.749,7.581,10.162,12.44,10.162c4.86,0,11.329-4.413,12.441-10.162c0.862-4.459,0.893-8.616,0.893-8.616
	C38.213,20.165,44.431,18.376,29,18.376z"/>
<path fill="#F5F5F5" d="M39.962,30.537c-1.427,3.717-7.232,3.172-8.296,0.572C32.474,26.931,39.178,26.573,39.962,30.537z"/>
<path fill="#45332C" d="M33.147,30.141c0,3.278,4.74,3.278,4.74,0C37.888,27.097,33.147,27.097,33.147,30.141z"/>
<path fill="#45332C" d="M39.962,30.51c0-3.991-8.296-3.991-8.296,0.631C32.852,27.349,38.777,27.349,39.962,30.51z"/>
<path fill="#F5F5F5" d="M18.036,30.537c1.429,3.717,7.234,3.172,8.297,0.572C25.525,26.931,18.822,26.573,18.036,30.537z"/>
<path fill="#45332C" d="M24.852,30.141c0,3.278-4.741,3.278-4.741,0C20.11,27.098,24.852,27.098,24.852,30.141z"/>
<path fill="#45332C" d="M18.036,30.51c0-3.99,8.297-3.99,8.297,0.63C25.148,27.349,19.222,27.349,18.036,30.51z"/>
<path fill="#F5F5F5" d="M33.439,29.344c0,0.82,1.185,0.82,1.185,0C34.624,28.583,33.439,28.583,33.439,29.344z"/>
<path fill="#F5F5F5" d="M21.735,29.178c0,0.819-1.186,0.819-1.186,0C20.55,28.417,21.735,28.417,21.735,29.178z"/>
<path fill="#E6A400" d="M39.646,26.867c-2.547-1.049-6.031-1.254-7.821-0.555c-0.378,0.147-0.366,1.052-0.032,0.961
	c2.565-0.699,5.52-0.752,7.949,0.093C40.068,27.48,40.029,27.024,39.646,26.867z"/>
<path fill="#E6A400" d="M18.353,26.867c2.547-1.049,6.031-1.254,7.821-0.555c0.378,0.147,0.366,1.052,0.032,0.961
	c-2.565-0.699-5.52-0.753-7.948,0.093C17.931,27.48,17.971,27.024,18.353,26.867z"/>
<path fill="#E6A400" d="M31.962,35.809c0,1.928-5.926,1.928-5.926,0C26.036,35.366,31.962,35.366,31.962,35.809z"/>
<path fill="#CFD8DD" d="M43.2,37.074l-1.214-4.731c0,0-0.885,8.909-12.991,5.944V38.27c-12.106,2.965-12.981-5.944-12.981-5.944
	L14.8,37.057c-3.637,14.715,13.499,17.142,14.195,22.926V60C29.691,54.215,46.837,51.789,43.2,37.074z"/>
<path fill="#E6EBEF" d="M43.632,39.533c0.703,12.482-13.123,12.143-14.637,16.705V56.22c-1.517-4.563-15.33-4.223-14.627-16.704
	c-2.12,14.379,13.313,14.905,14.627,20.467V60C30.311,54.439,45.752,53.912,43.632,39.533z"/>
<path fill="#E6EBEF" d="M25.975,41.926l1.819,1.213c0,0.607,1.201,2.426,1.201,2.426s1.226-1.696,1.226-2.426l1.818-1.213
	C30.1,42.773,27.915,42.773,25.975,41.926z"/>
<path fill="#302C3B" d="M23.188,38.408c1.939,4.852,9.703,4.852,11.644,0H23.188z"/>
<path fill="#E6EBEF" d="M28.995,37.629v-0.018c-13.622-2.246-5.705,8.826-10.679,9.164c6.391,2.123,2.477-6.589,8.25-5.799
	c1.525,0.209,2.429-0.93,2.429-2.32v0.017c0,1.392,0.912,2.528,2.438,2.319c5.772-0.787,1.858,7.922,8.248,5.801
	C34.709,46.457,42.615,35.383,28.995,37.629z"/>
<path opacity="0.3" fill="#1A1626" enable-background="new    " d="M43.648,26l0.088,2.088c0,0-8.521-1.088-14.736-1.088
	c-6.243,0-14.737,1.088-14.737,1.088l0.089-2.086C19.141,20.344,38.273,20.894,43.648,26z"/>
<path fill="#006DAE" d="M56.008,27.282c0,3.252-5.425-2.282-27-2.282c-21.574,0-27,5.534-27,2.282
	C2.008,16.025,56.008,16.025,56.008,27.282z"/>
<path fill="#006DAE" d="M40.635,15.489c0.165-3.02-5.205-5.31-4.373-8.466C36.665,5.497,39.133,4.471,38.003,2
	c-1.869,3.305-11.161,0-15.802,5.828c-3.713,2.186-11.516,11.822-8.154,15.182c7.066-1.203,21.148-1.686,29.934,0
	C47.271,19.719,41.82,16.012,40.635,15.489z"/>
<path fill="#FFFFFF" d="M21.934,21.098c7.19-3.647,1.449-12.367-4.229-7.686C21.883,12.27,25.357,17.966,21.934,21.098z"/>
<polygon fill="#FFFFFF" points="31.628,5.658 31.432,8.764 34.284,9.932 31.208,10.605 31.035,13.611 29.382,11.034 26.284,11.807 
	28.357,9.439 26.701,6.861 29.656,8.052 "/>
<polygon fill="#FFFFFF" points="34.443,14.989 35.891,16.822 38.066,16.045 36.688,17.963 38.096,19.729 35.881,19.116 
	34.538,21.098 34.512,18.736 32.295,18.128 34.542,17.313 "/>
<path opacity="0.2" fill="#013366" enable-background="new    " d="M38.003,2c1.333,3.122-4.214,3.961-4.517,7.922
	c1.396-2.222,2.99-0.628,2.746-1.677C35.633,5.575,39.352,4.997,38.003,2z"/>
<path opacity="0.2" fill="#013366" enable-background="new    " d="M39.063,12.27c0,0-9.701,0-19.742,5.95
	c6.965-2.145,16.574-3.946,21.314-2.729C40.914,14.122,39.063,12.27,39.063,12.27z"/>
<path opacity="0.2" fill="#013366" enable-background="new    " d="M41.695,18.22c0,0-3.441,0.761-13,2.855
	C36.477,16.98,41.695,18.22,41.695,18.22z"/>
</svg>
