<?xml version="1.0" encoding="utf-8"?>
<!-- Generator: Adobe Illustrator 15.0.0, SVG Export Plug-In . SVG Version: 6.00 Build 0)  -->
<!DOCTYPE svg PUBLIC "-//W3C//DTD SVG 1.1//EN" "http://www.w3.org/Graphics/SVG/1.1/DTD/svg11.dtd">
<svg version="1.1" id="Layer_1" xmlns="http://www.w3.org/2000/svg" xmlns:xlink="http://www.w3.org/1999/xlink" x="0px" y="0px"
	 width="64px" height="64px" viewBox="0 0 64 64" enable-background="new 0 0 64 64" xml:space="preserve">
<path fill="#FCD5B2" d="M54.732,24.658c0,0-3.728,1.747-5.405,4.105C42.077,26.124,51.548,20.275,54.732,24.658z"/>
<path fill="#DBA97F" d="M45.363,22.596c4.087,1.84-5.022,7.549,6.919,1.298L45.363,22.596z"/>
<path fill="#FCD5B2" d="M58.4,15.207c-4.353-4.353-7.34-2.461-8.692-0.312c-0.717,1.142-1.838,1.416-3.155,1.374
	c-0.812-0.025-0.944,0.798-0.136,1.605c-0.291,0.446-0.615,0.352-0.615,0.352s0.18,1.019-0.091,1.033
	c-0.187-0.186-0.874-0.052-0.62,0.584c0.223,0.551-1.564,0.657-0.189,2.309c1.047,1.256,2.776,2.165,4.867,2.288
	c1.267,0.075,2.934-0.719,2.934-0.719C55.382,25.635,61.517,25.205,58.4,15.207z"/>
<path fill="#DBA97F" d="M53.931,21.656c0.605-0.659,1.67-0.73,2.211-0.231c0,0-1.646-0.077-2.384,1.2
	C53.758,22.625,53.508,22.113,53.931,21.656z"/>
<path fill="#594640" d="M52.122,12.804c-0.686,3.397,2.688,4.95,1.853,7.956c1.432-0.644,3.251,0.08,2.679,1.437
	c-0.677,1.604-2.85,2.444-3.689,1.348c-0.267,0.481-0.545,2.422-0.545,2.422c2.58,1.985,9.168-1.489,8.693-6.648
	C60.612,13.886,52.611,10.364,52.122,12.804z"/>
<path fill-rule="evenodd" clip-rule="evenodd" fill="#DBA97F" d="M50.071,15.195c1.139-1.457,1.951,0.849,2.396,1.519
	C51.872,16.362,51.157,14.828,50.071,15.195z"/>
<path fill="#F2C198" d="M47.609,20.032c-1.202,0.287-2.041,0.107-2.5-0.076c-0.36-0.678,0.413-0.969,0.653-0.729
	C45.948,19.413,46.479,19.562,47.609,20.032z"/>
<path fill="#DBA97F" d="M47.609,20.032c-0.892,0.02-1.898-0.772-1.898-0.772c-0.091-0.174-0.31-0.635,0.091-1.033
	C45.856,18.686,46.683,19.636,47.609,20.032z"/>
<path fill="#FFFFFF" d="M51.314,17.327c-1.312,1.062-1.954,0.217-2.132,0.039C49.097,17.004,50.37,14.349,51.314,17.327z"/>
<path fill="#45332C" d="M49.651,16.204c-0.768,1.063-0.504,1.66,0.701,0.458C51.237,15.78,50.269,15.348,49.651,16.204z"/>
<path fill-rule="evenodd" clip-rule="evenodd" fill="#45332C" d="M49.895,15.933c1.007-0.748,1.347,0.8,1.487,1.488
	C50.841,16.681,50.682,15.957,49.895,15.933z"/>
<polygon fill="#D6A57C" points="32.248,2 25.169,37.273 24.202,62 2,62 2,2 "/>
<polygon fill="#9E6C49" points="34.31,2 32.572,12.508 35.271,12.508 25.739,38.451 24.202,62 21.835,46.082 29.81,2 "/>
<polygon fill="#B47D56" points="20.706,2 17.573,18.767 23.413,19.457 24.349,29.639 12.315,56.59 18.534,58.123 16.761,62 2,62 
	2,2 "/>
<path fill="#DBA97F" d="M34.499,29.101c-1.252-0.689-5.465,3.813-9.74,6.772c-0.26,0.178,0.729,2.279,0.998,2.121
	C29.202,36,31.394,36,33.247,33.947c0.283,0.594,1.037,1.26,1.416,2.133c0.262,0.602,4.4-2.469,3.887-2.967
	C35.819,30.455,35.599,29.707,34.499,29.101z"/>
<path fill="#DBA97F" d="M44.382,28.227c-2.273-1.34-2.237-2.993-4.354-6.188c-1.359-2.05-1.197-3.815-2.651-6.896
	c-0.106-0.225,1.423-1.754,1.548-1.537c1.742,3.028,3.295,4.799,4.135,6.769c0.783,1.835,3.643,4.37,4.18,6.52
	C47.362,27.38,44.862,28.509,44.382,28.227z"/>
<path fill="#302C3B" d="M31.341,13.553c-0.426-0.645,2.658-2.196,3.336-2.228c0.844-0.038,3.637,0.727,4.557,2.793
	c0.109,0.244-1.192,1.138-1.594,1.236c-0.658-0.21-0.816-1.133-1.613-1.021c-1.035,0.146-0.971,0.468-2.43,0.703
	c-0.914,0.146-0.819-0.374-0.414-0.461c2.342-0.497,1.707-1.328,0.852-1.655C33.7,12.793,33.378,12.573,31.341,13.553z"/>
<path fill="#302C3B" d="M25.097,35.637c-0.816-0.656-1.797-4.109-2.736-3.772c-1.262,3.311,0,3.35,1.164,6.895
	c0.172,0.525,2.021,0.504,2.232-0.766L25.097,35.637z"/>
<path fill="#5D1E96" d="M39.972,34.156c-0.227-0.77-1.77-1.891-1.77-1.891s-2.236,1.993-3.893,3.477c0,0,0.539,2.057,0.557,3.336
	C34.894,41.258,40.603,36.293,39.972,34.156z"/>
<path fill="#594640" d="M48.967,38.316c-0.359-1.229,3.207-4.691,5.295-5.242c5.037-1.332,4.543-7.176,1.008-8.562l-1.195,2.56
	C57.611,28.088,45.09,33.082,48.967,38.316z"/>
<path fill="#594640" d="M50.922,37.529c-0.686-3.477,4.932-3.6,6.471-7.023C53.639,30.065,48.113,34.264,50.922,37.529z"/>
<path fill="#594640" d="M49.057,33.01c0.469-1.73,7.24-1.969,5.805-5.286C53.672,29.956,48.975,30.162,49.057,33.01z"/>
<path fill="#8E3ED6" d="M57.314,25.797c-0.54-1.061-3.457-0.922-3.633,1.021C53.533,28.416,58.035,27.206,57.314,25.797z"/>
<path fill="#594640" d="M39.212,37.283L25.872,2h1.537L40.83,37.535C40.787,37.66,38.596,39.201,39.212,37.283z"/>
<path fill="#302C3B" d="M20.708,18.895c0.053-0.477,1.979-0.721,2.592-0.64c0.273,0.035,2.842,0.335,3.611,2.419
	c0.139,0.378-1.598,1.667-1.893,1.333c-0.656-0.747-1.145-1.579-1.682-2.027C22.792,19.525,20.638,19.512,20.708,18.895z"/>
<path fill="#FCD5B2" d="M24.87,21.833c1.35,2.006,6.655,5.527,7.378,5.909c0.8,0.424,2.436,0.421,6.105,0.961
	c0.711,0.105,2.044-3.75,1.339-3.879c-3.873-0.707-5.036-0.473-6.628-0.686c-1.088-1.212-5.028-2.321-6.153-3.465
	C26.595,20.352,24.63,21.477,24.87,21.833z"/>
<path fill="#FCD5B2" d="M17.722,55.27c2.432-4.41,3.27-7.17,5.043-8.91c1.271-1.248,4.025-2.992,5.857-4.449
	c0.596-0.475,4.164,3.174,3.557,3.641c-1.381,1.068-4.672,2.111-6.307,2.898c-1.156,3-3.715,3.338-5.301,5.93
	C20.396,54.666,17.552,55.578,17.722,55.27z"/>
<path fill="#302C3B" d="M17.722,55.27c-0.982,0.848-4.555,2.23-4.092,3.164c3.588,0.908,3.42-0.596,7.277-1.855
	c0.549-0.18,0.492-1.178-0.336-2.199L17.722,55.27z"/>
<path fill="#8E3ED6" d="M39.397,24.6l-1.605,4.162c1.421,0.066,1.718,0.41,1.718,0.41s-0.915,1.356,0.386,2.263
	c-0.508,1.42-0.844,2.918-1.592,3.94c-1.627,2.219-6.943,3.799-10.037,6.488c-0.109,0.943,3.414,4.219,3.414,4.219
	c1.963-1.061,5.754-1.225,8.213-1.393c6.383-0.438,3.996-6.83,10.332-16.423c0.666-1.007-3.794-3-4.957-3.09
	C43.59,25.046,39.397,24.6,39.397,24.6z"/>
<path fill="#302C3B" d="M39.028,33.988c0,0,3.369,5.072,5.857,6.457c-0.037,1.064-0.645,1.494-0.645,1.494l-1.332-0.84l-3.086,2.691
	c0,0,0.328,0.43,0.896,0.809c-0.744,0.455-1.506,0.293-1.506,0.293s-3.568-2.24-4.715-6.801c0.551-0.75,1.438-0.805,1.438-0.805
	c0.732,3.059,2.725,5.43,2.725,5.43l2.971-2.844c0,0-2.189-2.488-3.262-4.658C38.62,34.326,39.028,33.988,39.028,33.988z"/>
<path fill="#302C3B" d="M57.146,24.057c0,0-0.136-1.074-0.365-0.959c-0.957,0.479-3.598,0.869-3.598,0.869s0.313-3.242,2.478-5.383
	c0.185-0.183-0.605-0.651-0.856-0.587c-1.52,0.39-2.84,5.923-2.84,5.923s-1.249,0.161-4.912-0.142c0,0,1.104,0.803,1.442,0.876
	C54.055,25.855,57.146,24.057,57.146,24.057z"/>
<path fill="#E81C27" d="M61.198,15.706c-1.858-3.763-6.345-5.342-10.021-3.527c-1.013,0.5,2.292,3.929,3.639,6.656
	c1.227,2.486,1.839,7.585,3.086,6.968C61.578,23.991,63.054,19.469,61.198,15.706z"/>
</svg>
