<?xml version="1.0" encoding="utf-8"?>
<!-- Generator: Adobe Illustrator 15.0.0, SVG Export Plug-In . SVG Version: 6.00 Build 0)  -->
<!DOCTYPE svg PUBLIC "-//W3C//DTD SVG 1.1//EN" "http://www.w3.org/Graphics/SVG/1.1/DTD/svg11.dtd">
<svg version="1.1" id="Layer_1" xmlns="http://www.w3.org/2000/svg" xmlns:xlink="http://www.w3.org/1999/xlink" x="0px" y="0px"
	 width="64px" height="64px" viewBox="0 0 64 64" enable-background="new 0 0 64 64" xml:space="preserve">
<path fill="#EA8800" d="M21.486,10.813C13.292,40.774,43.522,53.711,57,29.601c-8.692,0-10.393-4.423-10.393-4.423
	s3.977-1.624,4.697-5.601C39.169,21.11,44.063,4.44,35.494,3.28C30.82-0.072,23.511,3.409,21.486,10.813z"/>
<path fill="#FDCA47" d="M41.313,29.896c-0.5-0.787-0.9-1.572-1.201-2.359c0.201-0.982,0.184-4.418,0.184-5.105
	c0,0-1.08-0.594-2.48-0.889c-0.5-0.393-1.799-1.08-3.798-1.08c-1.199-0.787-0.399-3.047-0.399-3.047h-4.098
	c0,0,0.9,2.652-0.698,2.751c-3.498,0.196-3.699,3.046-3.699,3.046c-1.798,3.834-2.098,6.094-3.697,8.451
	c-2.098,0.688-2.998,4.029-8.494,7.272c-0.599,0.394-1.598,0.688-2.398,0.885c-0.299,0-0.699,0-0.9,0.099
	c-0.1,0-0.199,0.098-0.299,0.294c-0.201,0.099-0.3,0.099-0.4,0.196c-0.5,0.295-2.198,1.277-1.899,1.672
	c0.201,0.195,0.8-0.395,1.599-0.787c0,0.393-0.1,0.982-0.1,1.277c0,0.197,0.4,0.098,0.5-0.295c0.1-0.295,0.201-0.885,0.201-1.277
	h0.099c0,0.295,0,0.787,0,0.982c0,0.197,0.299,0,0.4-0.195c0.1-0.197,0.1-0.59,0.1-0.885c0.798-0.197,1.797-0.295,2.098,0
	c0.199,0.196,0.4,0.885,0.1,1.375c-0.5,0.59-0.1,0.885,0.099,0.688c0.602-0.393,1.101-0.883,1.3-1.08c0.3-0.492,0.3-1.18,0.5-1.867
	c0.1-0.59,8.193-4.127,9.593-6.781c1-1.965,2.499-5.011,4.498-7.271c3.397,3.439,2.898,5.896,2.898,5.896l-4.799,1.18l3.998,5.109
	l7.097-2.064c0,0-0.899-1.866-0.5-2.357c0.897-1.081,1.599-2.064,2.198-3.047c1.357,3.894,9.793,6.979,9.992,7.566
	C48.906,38.247,43.41,30.583,41.313,29.896z"/>
<path fill="#E6A400" d="M35.217,32.94c-0.602,0.787,0.055,0.83-0.201,1.082C34.763,34.272,33.817,33.628,35.217,32.94z"/>
<path fill="#E6A400" d="M35.916,22.328c0,0,3.098,1.474,2.098,3.636C36.915,28.225,38.914,24.687,35.916,22.328z"/>
<path fill="#E6A400" d="M38.84,30.802c0,0,0.271,0.471,0.572,0.864c0,0,0.801-1.771,0.699-4.13
	C40.111,27.536,39.739,29.13,38.84,30.802z"/>
<path fill="#F26887" d="M41.713,22.819c-0.4-0.393-0.9-0.295-0.9-0.295c-0.701-0.491-1.799,0.197-2.799,1.77
	c0,0-5.596-2.162-7.194,0.295c0,0-0.701-0.1-0.801,0.688c-0.1,0.786,0.4,1.081,0.4,1.081c0.999,2.358,7.295,2.261,7.795,0
	c1.998,0.393,4.196-0.982,3.697-2.358C42.012,23.9,42.212,23.409,41.713,22.819z"/>
<path fill="#A3C86B" d="M20.227,46.601c5.995-1.375,10.692,5.308,11.191,8.452c0.3,2.26-0.899,3.93-5.896,5.6
	c-10.791,3.637-2.697-0.982-2.697-3.34c0-0.393,0.4-0.785,0.9-1.18c-9.494,0.395-13.391-3.832-15.79-7.566
	C5.136,44.242,9.034,49.156,20.227,46.601z"/>
<path fill="#529320" d="M12.834,48.971c6.25,1.832,10.99-3.294,17.285,5.295c0.178,0.242-0.92,0.732-1.1,0.492
	C23.678,47.571,15.643,51.73,12.834,48.971z"/>
<path fill="#529320" d="M14.596,51.896c4.658,1.137,8.19-2.043,12.881,3.285c0.132,0.148-0.686,0.455-0.819,0.305
	C22.677,51.029,16.689,53.609,14.596,51.896z"/>
<path fill="#529320" d="M24.123,59.67c3.998-1.67,3.898-4.027,3.898-4.027l-1.1,0.098C26.921,58.197,21.425,60.752,24.123,59.67z"/>
<path fill="#529320" d="M26.921,59.082c3.598-1.672,3.398-4.029,3.398-4.029l-1.1,0.295C29.22,57.805,24.724,60.162,26.921,59.082z"
	/>
<path fill="#7AB51D" d="M38.414,45.421C15.83,51.908,14.43,36.282,26.121,33.04c0,0,3.799,1.277,4.1,3.145
	c0,0,20.985-4.422,22.985,0.098c3.396,7.861-13.692,20.933-28.481,19.655C24.724,55.938,37.514,52.006,38.414,45.421z"/>
<path fill="#529320" d="M24.724,55.938c18.86-5.508,11.11-10.892,19.087-16.313C34.268,44.342,43.168,48.566,24.724,55.938z"/>
<path fill="#529320" d="M43.522,34.334c-8.014-0.369-16.501,2.145-19.698,3.128C23.824,37.462,37.092,34.71,43.522,34.334z"/>
<path fill="#E6A400" d="M29.802,18.765c0,0-0.134,1.084-0.582,1.303c2.896,0.59,4.149-0.845,4.149-0.845L29.802,18.765z"/>
<path fill="#E84D88" d="M30.82,24.589c0,0,2.363,0.865,7.606,0.558C34.897,26.013,31.912,25.718,30.82,24.589z"/>
<path fill="#E84D88" d="M40.813,22.524c0,0-0.104,1.629-2.275,2.468C40.975,24.853,41.256,22.85,40.813,22.524z"/>
<path fill="#E84D88" d="M41.912,23.999c0,0-1.07,1.326-3.234,1.723C40.409,26.141,41.756,24.744,41.912,23.999z"/>
<path fill="#E84D88" d="M30.419,26.357c0,0,5.167,0.784,8.006-0.337C36.49,27.632,32.333,27.538,30.419,26.357z"/>
<path fill="#E84D88" d="M38.014,24.294c0.4,0.098,0.701,0.491,0.801,0.982c0.1,0.393-0.1,0.885-0.5,1.081c0-0.196,0-0.394,0-0.59
	s0-0.296,0-0.491C38.314,24.981,38.215,24.687,38.014,24.294z"/>
<path fill="#F5BC2C" d="M25.786,13.841c0.795-0.741,0.073-3.645-0.952-3.819C22.643,9.649,24.07,15.438,25.786,13.841z"/>
<path fill="#F5BC2C" d="M37.553,13.841c-0.795-0.741-0.072-3.645,0.952-3.819C40.695,9.649,39.269,15.438,37.553,13.841z"/>
<path fill="#FDCA47" d="M38.295,10.098c-3.26-2.197-3.693-4.53-3.693-4.53c-3.727,3.458-9.541,4.539-9.541,4.539
	s-0.001,2.227,0.427,4.488c0.419,2.207,3.902,5.154,6.182,5.154c2.281,0,5.764-2.947,6.182-5.154
	C38.28,12.334,38.295,10.098,38.295,10.098z"/>
<path fill="#F5F5F5" d="M37.059,11.702c-0.696,1.814-3.529,1.547-4.048,0.279C33.404,9.943,36.676,9.768,37.059,11.702z"/>
<path fill="#45332C" d="M33.732,11.508c0,1.601,2.314,1.601,2.314,0C36.047,10.023,33.732,10.023,33.732,11.508z"/>
<path fill="#45332C" d="M37.059,11.688c0-1.947-4.048-1.947-4.048,0.309C33.589,10.147,36.48,10.147,37.059,11.688z"/>
<path fill="#F5F5F5" d="M26.359,11.702c0.697,1.814,3.53,1.547,4.049,0.279C30.013,9.943,26.744,9.768,26.359,11.702z"/>
<path fill="#45332C" d="M29.685,11.508c0,1.601-2.313,1.601-2.313,0C27.372,10.024,29.685,10.024,29.685,11.508z"/>
<path fill="#45332C" d="M26.359,11.688c0-1.946,4.049-1.946,4.049,0.308C29.83,10.147,26.937,10.147,26.359,11.688z"/>
<path fill="#D99025" d="M34.602,16.354c-0.545,0.615-0.885,1.705-2.893,1.705c-1.751,0-2.233-0.959-2.891-1.705H34.602z"/>
<path fill="#FFFFFF" d="M34.239,16.373c-1.19,1.219-3.855,1.236-5.061,0H34.239z"/>
<path fill="#D99025" d="M31.708,16.256c-1.133-0.498-1.141-0.02-2.892,0.098c2.21,0.248,3.574,0.248,5.785,0
	C32.851,16.236,32.841,15.758,31.708,16.256z"/>
<path fill="#E6A400" d="M36.813,9.954c-1.227-0.505-2.904-0.604-3.766-0.267c-0.183,0.071-0.177,0.506-0.016,0.463
	c1.235-0.336,2.657-0.363,3.827,0.044C37.017,10.25,36.998,10.03,36.813,9.954z"/>
<path fill="#E6A400" d="M26.561,9.954c1.226-0.504,2.903-0.603,3.765-0.267c0.182,0.071,0.177,0.506,0.016,0.463
	c-1.234-0.337-2.657-0.363-3.826,0.044C26.357,10.25,26.376,10.03,26.561,9.954z"/>
<path fill="#E6A400" d="M33.155,14.603c0,0.929-2.854,0.929-2.854,0C30.301,14.39,33.155,14.39,33.155,14.603z"/>
</svg>
