<?xml version="1.0" encoding="utf-8"?>
<!-- Generator: Adobe Illustrator 15.0.0, SVG Export Plug-In . SVG Version: 6.00 Build 0)  -->
<!DOCTYPE svg PUBLIC "-//W3C//DTD SVG 1.1//EN" "http://www.w3.org/Graphics/SVG/1.1/DTD/svg11.dtd">
<svg version="1.1" id="Layer_1" xmlns="http://www.w3.org/2000/svg" xmlns:xlink="http://www.w3.org/1999/xlink" x="0px" y="0px"
	 width="64px" height="64px" viewBox="0 0 64 64" enable-background="new 0 0 64 64" xml:space="preserve">
<path fill="#38332D" d="M14.427,32.148C4.238,34.524,9.287,47.069,9.654,52.131C22.666,45.177,14.427,32.148,14.427,32.148z"/>
<path fill="#38332D" d="M49.569,32.131c0,0-8.236,13.029,4.779,19.983C54.712,47.054,59.761,34.508,49.569,32.131z"/>
<path fill="#523924" d="M8.634,32.556c-9.107-1.179-3.174,17.105,3.957,12.063C15.896,42.28,12.896,33.108,8.634,32.556z"/>
<path fill="#523924" d="M55.366,32.556c-4.264,0.552-7.264,9.724-3.959,12.063C58.54,49.66,64.472,31.377,55.366,32.556z"/>
<path fill="#614A36" d="M55.069,30.977c0-15.339-9.059-11.925-23.07-11.925c-14.007,0-23.068-3.414-23.068,11.925
	c0,0,0.049,5.844,1.543,13.521c2.445,12.568,12.598,17.501,21.525,17.501c8.928,0,19.084-4.933,21.525-17.501
	C55.019,36.817,55.069,30.977,55.069,30.977z"/>
<path fill="#F5F5F5" d="M50.499,36.763c-2.408,6.271-12.205,5.352-14,0.965C37.862,30.677,49.175,30.074,50.499,36.763z"/>
<path fill="#45332C" d="M38.999,36.093c0,5.533,8,5.533,8,0C46.999,30.958,38.999,30.958,38.999,36.093z"/>
<path fill="#45332C" d="M50.499,36.716c0-6.734-14-6.734-14,1.066C38.499,31.382,48.499,31.382,50.499,36.716z"/>
<path fill="#F5F5F5" d="M13.5,36.763c2.408,6.271,12.205,5.352,14,0.965C26.136,30.677,14.826,30.074,13.5,36.763z"/>
<path fill="#45332C" d="M25,36.093c0,5.533-8,5.533-8,0C17,30.958,25,30.958,25,36.093z"/>
<path fill="#45332C" d="M13.5,36.716c0-6.732,14-6.732,14,1.064C25.501,31.382,15.5,31.382,13.5,36.716z"/>
<path fill="#F5F5F5" d="M39.491,34.749c0,1.383,2,1.383,2,0C41.491,33.466,39.491,33.466,39.491,34.749z"/>
<path fill="#F5F5F5" d="M19.742,34.468c0,1.383-2,1.383-2,0C17.742,33.185,19.742,33.185,19.742,34.468z"/>
<path fill="#3B2C20" d="M31.999,50.58c-4.029-1.069-10,0.506-10,0.506c2.275,2.229,3.941,5.121,10,5.121
	c6.943,0,8.121-3.284,10-5.121C41.999,51.086,36.022,49.508,31.999,50.58z"/>
<path fill="#FFFFFF" d="M23.406,51.167c4.281,3.979,12.933,4.004,17.24,0C36.079,51.384,28.003,51.386,23.406,51.167z"/>
<path fill="#3B2B1C" d="M49.966,30.921c-4.297-1.771-10.18-2.115-13.199-0.936c-0.637,0.249-0.617,1.775-0.055,1.622
	c4.33-1.18,9.314-1.271,13.414,0.157C50.677,31.957,50.61,31.187,49.966,30.921z"/>
<path fill="#3B2B1C" d="M14.033,30.921c4.297-1.771,10.178-2.115,13.199-0.936c0.637,0.249,0.617,1.775,0.053,1.622
	c-4.33-1.18-9.314-1.271-13.414,0.157C13.32,31.957,13.386,31.187,14.033,30.921z"/>
<path fill="#3B2B1C" d="M36.999,45.802c0,3.254-10,3.254-10,0C26.999,45.056,36.999,45.056,36.999,45.802z"/>
<path fill="#38332D" d="M13.5,10.066c-9.799,6.295-8.527,17.293-6.838,26.907C13.73,21.189,13.679,17.5,13.5,10.066z"/>
<path fill="#26221E" d="M6.662,36.973c5.955-18.299,3.67-22.208,6.838-26.907C13.679,17.5,15.544,22.84,6.662,36.973z"/>
<path fill="#38332D" d="M13.5,10.066c26.677,15.575,36.589,8.211,43.205,26.371C63.909,4.253,27.499-7.309,13.5,10.066z"/>
<path fill="#26221E" d="M13.5,10.066c26.677,15.575,35.908,8.449,43.205,26.371C59.606,22.275,31.071,11.304,13.5,10.066z"/>
<path fill="#38332D" d="M13.5,10.066c5.201,10.781,27.169,16.986,35.132,17.293C42.099,19.853,40.956,5.253,13.5,10.066z"/>
<path fill="#26221E" d="M48.632,27.359C42.099,19.853,22.15,20.191,13.5,10.066C18.701,20.847,39.745,27.359,48.632,27.359z"/>
<path fill="#38332D" d="M13.5,10.066C5.341,21.932,22,26.046,29.351,26.339C23.345,20.699,20.781,10.464,13.5,10.066z"/>
<path fill="#26221E" d="M29.351,26.339C21.078,20.781,8.246,21.369,13.5,10.066C5.341,21.932,21.492,26.628,29.351,26.339z"/>
</svg>
