<?xml version="1.0" encoding="utf-8"?>
<!-- Generator: Adobe Illustrator 15.0.0, SVG Export Plug-In . SVG Version: 6.00 Build 0)  -->
<!DOCTYPE svg PUBLIC "-//W3C//DTD SVG 1.1//EN" "http://www.w3.org/Graphics/SVG/1.1/DTD/svg11.dtd">
<svg version="1.1" id="Layer_1" xmlns="http://www.w3.org/2000/svg" xmlns:xlink="http://www.w3.org/1999/xlink" x="0px" y="0px"
	 width="64px" height="64px" viewBox="0 0 64 64" enable-background="new 0 0 64 64" xml:space="preserve">
<path fill="#1A1626" d="M62,19.244c-8.076,10.42-20.783,10.482-30,10.475c-9.217,0.008-21.924-0.055-30-10.475
	C2,38.41,15.279,43.775,8.486,55.403c-2.146,3.676,49.174,3.676,47.028,0C48.723,43.775,62,38.41,62,19.244z"/>
<path fill="#E81C27" d="M32,29.719c-9.217,0.008-19.985-0.6-28-8.193c0,11.357,20.279,24.602,13.486,36.231
	c-2.147,3.675,31.174,3.675,29.027,0C39.721,46.127,60,32.883,60,21.525C51.984,29.119,41.217,29.727,32,29.719z"/>
<path fill="#302C3B" d="M45.146,54.349c-0.358-5.432,3.64-12.106,7.577-17.698c0.553-3.604,0.721-7.111,0.777-10.008v-3.055
	C54.217,11.603,45.688,2,31.943,2C18.072,2,9.785,11.603,10.5,23.588v3.055c0.029,2.854,0.173,6.322,0.7,9.898
	c3.98,5.652,8.048,12.392,7.646,17.88C21.937,57.214,42.043,57.183,45.146,54.349z"/>
<path fill="#1A1626" d="M9.789,50.849c7.057-4.3,37.442-4.335,44.489-0.004C58.18,53.237,59,62,59,62H5
	C5,62,5.872,53.229,9.789,50.849"/>
<path fill="#1A1626" d="M11.457,62c0.576-2.209-0.101-5.567-0.819-7.415C9.97,52.862,10.222,60.783,11.457,62"/>
<path fill="#1A1626" d="M53.363,54.585c-0.719,1.85-1.396,5.204-0.82,7.413C53.777,60.785,54.029,52.862,53.363,54.585"/>
<path fill="#916B50" d="M38.999,47.489v-9.71h-7H25v9.71l-8.439,1.564l2.218,6.436c0,0,3.109,4.958,13.219,6.507v0.002
	c0,0,0.001,0,0.002-0.002c0,0.002,0,0.002,0,0.002l0.001-0.002c10.11-1.549,13.219-6.507,13.219-6.507l2.218-6.436L38.999,47.489z"
	/>
<path fill="#916B50" d="M32.042,19.068c-10.528,0.008-16.5-0.451-16.5-0.453c-0.021,3.951,0.773,11.689,1.354,14.545
	c1.665,8.129,11.397,14.456,15.146,14.456s13.481-6.327,15.147-14.456c0.59-2.855,1.373-10.594,1.354-14.545
	C48.543,18.617,42.569,19.076,32.042,19.068z"/>
<path fill="#AB1C27" d="M32.001,38.152c-2.446-0.285-4.966-0.33-7.5-0.096c5.479,3.803,9.521,3.803,15,0
	C36.967,37.822,34.462,37.867,32.001,38.152z"/>
<polygon fill="#FFFFFF" points="25.93,38.072 26.869,41.387 27.869,38.156 "/>
<polygon fill="#FFFFFF" points="38.068,38.072 37.129,41.387 36.129,38.156 "/>
<path fill="#820505" d="M34.989,37.207c-2.212-0.791-3.003,0.264-2.988,0.25c0.015,0.014-0.776-1.041-2.988-0.25
	c-1.699,0.594-4.512,0.82-4.512,0.85c3.076-0.043,3.53,0.77,7.5,0.66c3.97,0.109,4.424-0.703,7.5-0.66
	C39.501,38.027,36.688,37.801,34.989,37.207z"/>
<path fill="#F5F5F5" d="M46.102,25.533c-1.836,4.783-9.303,4.082-10.67,0.738C36.467,20.896,45.092,20.436,46.102,25.533z"/>
<path fill="#B00505" d="M37.334,25.023c0,4.219,6.098,4.219,6.098,0C43.432,21.111,37.334,21.111,37.334,25.023z"/>
<path fill="#45332C" d="M37.912,24.625c0,3.645,5.27,3.645,5.27,0C43.182,21.244,37.912,21.244,37.912,24.625z"/>
<path fill="#F5F5F5" d="M37.699,23.996c0,1.059,1.529,1.059,1.529,0C39.229,23.012,37.699,23.012,37.699,23.996z"/>
<path fill="#45332C" d="M46.102,25.5c0-5.133-10.67-5.133-10.67,0.813C36.955,21.434,44.576,21.434,46.102,25.5z"/>
<path fill="#F5F5F5" d="M17.9,25.533c1.836,4.783,9.303,4.082,10.67,0.738C27.531,20.896,18.91,20.436,17.9,25.533z"/>
<path fill="#B00505" d="M20.568,25.023c0,4.219,6.098,4.219,6.098,0C26.666,21.111,20.568,21.111,20.568,25.023z"/>
<path fill="#45332C" d="M21.146,24.625c0,3.645,5.27,3.645,5.27,0C26.416,21.244,21.146,21.244,21.146,24.625z"/>
<path fill="#F5F5F5" d="M21.146,23.83c0,1.059,1.529,1.059,1.529,0C22.676,22.846,21.146,22.846,21.146,23.83z"/>
<path fill="#45332C" d="M17.9,25.5c0-5.133,10.67-5.133,10.67,0.811C27.047,21.434,19.424,21.434,17.9,25.5z"/>
<path fill="#734A2E" d="M34.269,54.431c-1.277,0.75-2.27,2.459-2.27,2.459s-0.992-1.709-2.268-2.459
	c2.266,3.84,1.719,5.567,1.719,5.567h1.098C32.548,59.998,31.997,58.032,34.269,54.431z"/>
<path fill="#E81C27" d="M32.001,61.996c4.057-0.621,6.987-1.793,9.041-2.97H32h-0.001h-9.042c2.055,1.177,4.984,2.349,9.041,2.97
	v0.002C31.998,61.998,31.999,61.998,32.001,61.996C32,61.998,32,61.998,32,61.998L32.001,61.996z"/>
<path fill="#302C3B" d="M42.991,62c0,0,5.636-7.817,7.966-16.525l-9.005,1.246c0,0,0.131,5.956-3.076,15.279H42.991z"/>
<path fill="#302C3B" d="M21.005,62c0,0-5.633-7.817-7.961-16.525l9,1.246c0,0-0.131,5.956,3.078,15.279H21.005z"/>
<path fill="#664935" d="M45.358,20.961c-3.209-1.322-7.6-1.58-9.855-0.699c-0.476,0.188-0.461,1.326-0.04,1.213
	c3.232-0.881,6.954-0.949,10.017,0.115C45.891,21.734,45.841,21.16,45.358,20.961z"/>
<path fill="#664935" d="M18.528,20.961c3.208-1.322,7.6-1.58,9.854-0.697c0.477,0.186,0.461,1.324,0.041,1.211
	c-3.233-0.881-6.955-0.949-10.016,0.117C17.997,21.734,18.046,21.16,18.528,20.961z"/>
<path fill="#664935" d="M35.785,33.127c0,2.43-7.466,2.43-7.466,0C28.319,32.57,35.785,32.57,35.785,33.127z"/>
</svg>
