<?xml version="1.0" encoding="utf-8"?>
<!-- Generator: Adobe Illustrator 15.0.0, SVG Export Plug-In . SVG Version: 6.00 Build 0)  -->
<!DOCTYPE svg PUBLIC "-//W3C//DTD SVG 1.1//EN" "http://www.w3.org/Graphics/SVG/1.1/DTD/svg11.dtd">
<svg version="1.1" id="Layer_1" xmlns="http://www.w3.org/2000/svg" xmlns:xlink="http://www.w3.org/1999/xlink" x="0px" y="0px"
	 width="64px" height="64px" viewBox="0 0 64 64" enable-background="new 0 0 64 64" xml:space="preserve">
<path fill="#99A8AE" d="M10.576,49.518c1.174-4.439,5.5-11.139,2.611-16.635C3.416,29.017,7.586,43.967,10.576,49.518z"/>
<path fill="#99A8AE" d="M50.813,32.882c-2.889,5.497,1.438,12.196,2.611,16.635C56.414,43.967,60.584,29.017,50.813,32.882z"/>
<path fill="#F5BC2C" d="M12.019,43.043c2.701-2.516,0.25-12.377-3.233-12.971C1.346,28.804,6.193,48.465,12.019,43.043z"/>
<path fill="#F5BC2C" d="M51.981,43.043c-2.7-2.516-0.249-12.377,3.233-12.971C62.653,28.804,57.809,48.463,51.981,43.043z"/>
<path fill="#FDCA47" d="M32.001,12c-26.04,0-15.548,3.017-22.5,18.312c0,0,0.05,7.016,1.506,14.541C12.883,54.554,23.8,62,32.001,62
	c8.2,0,19.118-7.446,20.994-17.147c1.456-7.524,1.506-14.541,1.506-14.541C54.916,16.29,58.041,12,32.001,12z"/>
<path fill="#99A8AE" d="M8.024,33.265c-2.681-6.835-2.056-18.831,6.43-24.243C14.852,15.772,10.47,25.958,8.024,33.265z"/>
<path fill="#6E8189" d="M8.024,33.265c-2.044-7.203,4.731-14.873,6.43-24.243C14.852,15.772,10.47,25.958,8.024,33.265z"/>
<path fill="#99A8AE" d="M7.879,35.213c3.048-10.281-1.41-20.404,6.575-26.191C14.922,15.634,19.735,21.412,7.879,35.213z"/>
<path fill="#6E8189" d="M7.879,35.213c9.882-16.074,1.622-19.904,6.575-26.191C14.922,15.634,19.735,21.412,7.879,35.213z"/>
<path fill="#99A8AE" d="M14.454,9.022C40.117,22.211,49.771,19.179,56.135,34.56C63.26,7.059,31.178-7.608,14.454,9.022z"/>
<path fill="#6E8189" d="M14.454,9.022C40.117,22.211,49.116,19.381,56.135,34.56C58.929,22.566,31.358,10.071,14.454,9.022z"/>
<path fill="#99A8AE" d="M14.69,9.022c-6.716,9.16,20.56,14.46,30.741,14.694C37,15.997,29.535,7.434,14.69,9.022z"/>
<path fill="#6E8189" d="M45.432,23.716C34.505,20.18,11.94,17.717,14.69,9.022C7.975,18.182,34.505,23.716,45.432,23.716z"/>
<path fill="#99A8AE" d="M28.494,23.716c-6.489-4.514-6.172-14.375-14.04-14.694C5.642,18.517,20.553,23.482,28.494,23.716z"/>
<path fill="#6E8189" d="M28.494,23.716c-8.938-4.447-19.716-5.649-14.04-14.694C5.642,18.517,20.002,23.949,28.494,23.716z"/>
<path fill="#99A8AE" d="M49.967,28.328c-4.297-1.771-10.179-2.116-13.199-0.936c-0.637,0.249-0.617,1.776-0.054,1.622
	c4.329-1.179,9.313-1.27,13.414,0.157C50.679,29.363,50.612,28.593,49.967,28.328z"/>
<path fill="#99A8AE" d="M14.034,28.328c4.297-1.771,10.178-2.116,13.199-0.936c0.637,0.249,0.617,1.776,0.054,1.622
	c-4.33-1.179-9.314-1.271-13.414,0.157C13.321,29.363,13.388,28.593,14.034,28.328z"/>
<path fill="#F5F5F5" d="M50.501,34.898c-1.494,3.893-13.117,2.348-14,0.193C37.864,28.044,49.177,28.21,50.501,34.898z"/>
<path fill="#45332C" d="M39.501,33.314c0,4.84,7,4.84,7,0C46.501,28.824,39.501,28.824,39.501,33.314z"/>
<path fill="#45332C" d="M50.501,34.852c0-6.733-14-7.503-14,0.295C38.501,28.75,48.501,29.519,50.501,34.852z"/>
<path fill="#F5F5F5" d="M13.5,34.898c1.496,3.893,13.119,2.348,14,0.193C26.138,28.044,14.826,28.21,13.5,34.898z"/>
<path fill="#45332C" d="M24.5,33.314c0,4.84-7,4.84-7,0C17.5,28.824,24.5,28.824,24.5,33.314z"/>
<path fill="#45332C" d="M13.5,34.852c0-6.731,14-7.503,14,0.293C25.501,28.75,15.5,29.519,13.5,34.852z"/>
<path fill="#F5F5F5" d="M39.933,32.259c0,1.211,1.75,1.211,1.75,0C41.683,31.138,39.933,31.138,39.933,32.259z"/>
<path fill="#F5F5F5" d="M19.899,31.892c0,1.209-1.75,1.209-1.75,0C18.149,30.769,19.899,30.769,19.899,31.892z"/>
<path fill="#D99025" d="M32.002,48.373c-4.027-1.068-10,0.506-10,0.506c2.275,2.229,3.942,5.121,10,5.121
	c6.944,0,8.122-3.283,10.001-5.121C42.003,48.879,36.026,47.301,32.002,48.373z"/>
<path fill="#FFFFFF" d="M23.41,48.959c4.28,3.979,12.933,4.006,17.24,0C36.083,49.178,28.006,49.18,23.41,48.959z"/>
<path fill="#E6A400" d="M38.194,41.809c1.313,4.197,5.447,7.986,10.109,9.191C46.13,49.686,39.642,43.785,38.194,41.809z"/>
<path fill="#E6A400" d="M15.699,51c4.615-1.191,8.782-4.953,10.107-9.191C24.359,43.785,17.87,49.686,15.699,51z"/>
<path fill="#E6A400" d="M36.501,37.58c3.309,3.98,10.943,4.018,14.295,0C48.544,39.613,38.753,39.613,36.501,37.58z"/>
<path fill="#E6A400" d="M13.205,37.58c3.309,3.98,10.943,4.018,14.295,0C25.247,39.613,15.457,39.613,13.205,37.58z"/>
<path fill="#E6A400" d="M37.001,43.561c0,3.254-10,3.254-10,0C27.001,42.814,37.001,42.814,37.001,43.561z"/>
</svg>
