<?xml version="1.0" encoding="utf-8"?>
<!-- Generator: Adobe Illustrator 15.0.0, SVG Export Plug-In . SVG Version: 6.00 Build 0)  -->
<!DOCTYPE svg PUBLIC "-//W3C//DTD SVG 1.1//EN" "http://www.w3.org/Graphics/SVG/1.1/DTD/svg11.dtd">
<svg version="1.1" id="Layer_1" xmlns="http://www.w3.org/2000/svg" xmlns:xlink="http://www.w3.org/1999/xlink" x="0px" y="0px"
	 width="64px" height="64px" viewBox="0 0 64 64" enable-background="new 0 0 64 64" xml:space="preserve">
<path fill="#CAE8F0" d="M2,3.58c14.297-0.164,21.662,5.799,25.281,10.639V33.35c-1.336,2.41-5.592,9.084-13.779,9.037
	c0,0,1.139-8.334,6.063-12.956C3.588,24.273,2,3.58,2,3.58z"/>
<path fill="#A0D8E9" d="M10.092,8.58c17.002,1.227,20.459,13.094,20.459,13.094s-2.863,15.762-13.559,17.631
	c0,0,1.092-5.938,4.859-10.174C10.984,22.705,10.092,8.58,10.092,8.58z"/>
<path fill="#CAE8F0" d="M62,2.003C44.004,1.822,34.732,8.474,30.176,13.875v21.35c1.682,2.689,7.039,10.137,17.346,10.084
	c0,0-1.434-9.299-7.631-14.456C60.002,25.097,62,2.003,62,2.003z"/>
<path fill="#A0D8E9" d="M51.816,7.583C30.412,8.953,26.061,22.195,26.061,22.195s3.605,17.588,17.068,19.674
	c0,0-1.375-6.625-6.117-11.352C50.691,23.345,51.816,7.583,51.816,7.583z"/>
<path fill="#916B50" d="M40.875,40.436c-0.791-1.877-0.813-5.266-2.814-6.797c-0.049-1.194-0.645-2.469-1.836-3.77
	c-0.348-1.988-1.689-3.504-3.699-3.318c-0.215-0.441-1.547-0.74-2.334-0.861c-0.449-0.58-0.141-2.584-0.141-2.584h-3.654
	c0,0,0.305,1.809-0.422,2.584c-0.596-0.119-2.156,0.215-2.545,0.484c-1.74-0.172-2.914,1.209-3.215,3.053
	c-1.033,1.207-1.549,2.39-1.592,3.497c-1.734,1.42-1.752,4.564-2.436,6.306c-0.514,1.302-0.592,2.617-0.529,2.867
	c0.371,1.527,2.277,2.584,1.646,1.514c-1.244-2.115-0.012-2.667,0.584-0.981c0.105,0.294,0.373,0.327,0.268-0.363
	c-0.191-1.255-0.75-1.834-0.736-2.188c0.057-1.528,2.063-2.574,2.498-4.877c1.383-0.275,2.129-1.749,2.752-2.671
	c0.561,3.522,0.178,6.184,0.178,6.184c3.787,4.891,8.986-0.016,8.986-0.016c-1.229-3.625,1.066-3.922,1.711-5.872
	c0,0,1.033,3.098,3.02,3.467c0.504,2.482,2.82,3.609,2.887,5.258c0.016,0.381-0.629,1.004-0.852,2.357
	c-0.121,0.744,0.188,0.709,0.309,0.393c0.688-1.818,2.111-1.223,0.676,1.057c-0.729,1.154,1.473,0.016,1.902-1.631
	C41.557,43.258,41.467,41.84,40.875,40.436z"/>
<path fill="#664935" d="M19.701,34.774c0.104-1.481,0.191-3.033,0.979-4.82C19.648,31.579,19.348,33.293,19.701,34.774z"/>
<path fill="#664935" d="M23.443,31.298c0,0.842,1.166,0.842,1.166,0C24.609,30.517,23.443,30.517,23.443,31.298z"/>
<path fill="#664935" d="M30.076,31.867c0,0.787,1.092,0.787,1.092,0C31.168,31.138,30.076,31.138,30.076,31.867z"/>
<path fill="#664935" d="M36.816,35.85c-0.119-1.598-0.221-3.27-1.131-5.196C36.877,32.404,37.225,34.252,36.816,35.85z"/>
<path fill="#664935" d="M24.322,33.527c-1.045-0.811-2.154-1.639-3-3.276C21.896,32.054,22.992,33.174,24.322,33.527z"/>
<path fill="#664935" d="M33.623,31.154c-0.879,0.998-1.771,2.067-3.676,2.608C32.082,33.584,33.33,32.609,33.623,31.154z"/>
<path fill="#664935" d="M24.025,26.363c0.775,0.25,2.805,1.613,3.799,1.547c0.994-0.068,3.051-1.189,4.32-0.832
	c-1.225-0.799-3.238,0.381-4.291,0.426C26.889,27.544,24.846,26.25,24.025,26.363z"/>
<path fill="#664935" d="M29.213,25.978c-0.213,1.006-0.707,1.305-1.168,1.607C28.74,27.728,29.18,27.199,29.213,25.978z"/>
<path fill="#664935" d="M26.684,25.832c0.059,1.029,0.502,1.402,0.91,1.775C26.885,27.634,26.531,27.044,26.684,25.832z"/>
<path fill="#916B50" d="M34.447,53.182c-0.127-0.631-1.246-0.709-2.51,0.25c-2.527-0.492,0.059,3.139,0.059,3.139
	c1.65,0.918,3.006,3.107,5.014,3.406C39.109,60.291,35.385,57.826,34.447,53.182z"/>
<path fill="#916B50" d="M42.473,55.453c-0.031-0.721-1.199-2.01-2.77-1.15c-2.723-0.951-0.539,3.1-0.539,3.1
	c1.129,0.686,2.5,3.82,4.094,4.412C45.484,62.639,42.707,60.762,42.473,55.453z"/>
<path fill="#7AB51D" d="M39.703,54.303c-2.723-0.951-2.289-2.434-4.588-4.299c-3.469-2.813-0.791-6-3.063-10.291
	c-5.527,1.172-9.547-0.236-9.547-0.236c-1.426,3.137-1.461,8.424,0.08,10.871c0.555,0.881,0.5,2.361,2.625,3.234
	c2.764,1.137,6.785,2.988,6.785,2.988c1.65,0.918,0.535-3.146-0.059-3.139c-2.527-0.492-2.139-1.883-4.635-2.76
	c-0.951-0.334,0.074-1.563-0.309-4.211c1.051,2.648,1.643,2.873,2.555,3.785c0.496,0.496,0.818,1.373,1.793,1.951
	c2.871,1.701,7.822,5.205,7.822,5.205C40.293,58.088,40.328,54.324,39.703,54.303z"/>
<path fill="#45332C" d="M31.617,37.746c-1.873,2.023-7.328,2.223-8.713,0.236c-0.197,0.09-0.549,1.25-0.398,1.494
	c0.729,1.17,4.91,2.926,9.547,0.236C32.275,39.508,31.732,37.746,31.617,37.746z"/>
<path fill="#614036" d="M28.037,9.111c-6.871,0-6.873,4.135-6.873,9.305h13.748C34.912,13.246,34.908,9.111,28.037,9.111z"/>
<path fill="#75543D" d="M18.992,14.194c-0.256,0.306,1.818,7.551,3.449,6.047C23.197,19.543,19.619,13.437,18.992,14.194z"/>
<path fill="#75543D" d="M37.086,14.194c-0.629-0.757-4.207,5.35-3.451,6.047C35.266,21.745,37.338,14.5,37.086,14.194z"/>
<path fill="#916B50" d="M34.24,17.099c0-5.698-2.436-3.839-6.201-3.839s-6.203-1.859-6.203,3.839c0,0,0.012,1.611,0.414,3.729
	c0.531,2.801,3.514,4.824,5.787,4.824c2.275,0,5.26-2.023,5.789-4.824C34.229,18.709,34.24,17.099,34.24,17.099z"/>
<path fill="#734A2E" d="M28.037,21.885c-1.109-0.294-2.756,0.14-2.756,0.14c0.627,0.614,1.086,1.412,2.756,1.412
	c1.916,0,2.24-0.905,2.756-1.412C30.793,22.025,29.146,21.59,28.037,21.885z"/>
<path fill="#FFFFFF" d="M25.668,22.048c1.18,1.096,3.566,1.104,4.754,0C29.164,22.108,26.938,22.108,25.668,22.048z"/>
<path fill="#F5F5F5" d="M33.139,17.525c-0.664,1.729-3.365,1.476-3.859,0.266C29.654,15.847,32.773,15.68,33.139,17.525z"/>
<path fill="#45332C" d="M29.967,17.34c0,1.525,2.207,1.525,2.207,0C32.174,15.924,29.967,15.924,29.967,17.34z"/>
<path fill="#45332C" d="M33.139,17.512c0-1.856-3.859-1.856-3.859,0.294C29.83,16.042,32.588,16.042,33.139,17.512z"/>
<path fill="#F5F5F5" d="M22.938,17.525c0.664,1.729,3.365,1.476,3.859,0.266C26.42,15.847,23.303,15.68,22.938,17.525z"/>
<path fill="#45332C" d="M26.107,17.34c0,1.525-2.207,1.525-2.207,0C23.9,15.924,26.107,15.924,26.107,17.34z"/>
<path fill="#45332C" d="M22.938,17.512c0-1.856,3.859-1.856,3.859,0.293C26.246,16.042,23.49,16.042,22.938,17.512z"/>
<path fill="#664935" d="M32.99,15.818c-1.184-0.489-2.805-0.584-3.639-0.259c-0.174,0.068-0.17,0.489-0.012,0.447
	c1.191-0.325,2.566-0.351,3.695,0.044C33.188,16.103,33.17,15.89,32.99,15.818z"/>
<path fill="#664935" d="M23.084,15.818c1.186-0.489,2.807-0.584,3.639-0.259c0.178,0.068,0.172,0.489,0.016,0.447
	c-1.193-0.325-2.568-0.351-3.697,0.044C22.887,16.103,22.906,15.89,23.084,15.818z"/>
<path fill="#664935" d="M29.416,20.171c0,0.896-2.756,0.896-2.756,0C26.66,19.965,29.416,19.965,29.416,20.171z"/>
</svg>
