<?xml version="1.0" encoding="utf-8"?>
<!-- Generator: Adobe Illustrator 15.0.0, SVG Export Plug-In . SVG Version: 6.00 Build 0)  -->
<!DOCTYPE svg PUBLIC "-//W3C//DTD SVG 1.1//EN" "http://www.w3.org/Graphics/SVG/1.1/DTD/svg11.dtd">
<svg version="1.1" id="Layer_1" xmlns="http://www.w3.org/2000/svg" xmlns:xlink="http://www.w3.org/1999/xlink" x="0px" y="0px"
	 width="64px" height="64px" viewBox="0 0 64 64" enable-background="new 0 0 64 64" xml:space="preserve">
<path fill="#1A1626" d="M62,22c-8.076,8.923-20.783,8.977-30,8.971C22.783,30.977,10.076,30.923,2,22
	c0,16.413,19.279,21.007,12.486,30.964c-2.146,3.147,37.174,3.147,35.027,0C42.723,43.007,62,38.413,62,22z"/>
<path fill="#E81C27" d="M32,30.971c-9.217,0.006-19.984-0.515-28-7.018c0,9.727,26.279,21.068,19.486,31.025
	c-2.146,3.147,19.174,3.147,17.027,0C33.721,45.021,60,33.68,60,23.953C51.984,30.456,41.217,30.977,32,30.971z"/>
<path fill="#E81C27" d="M31.896,16.537C32.004,16.537,32.004,16.537,31.896,16.537C32.004,16.537,32.004,16.537,31.896,16.537z"/>
<path fill="#1A1626" d="M52.561,52.6c-2.5-1.373-12.881-5.002-12.881-5.002l-15.459,0.02c0,0-10.363,3.647-12.852,5.032
	C7.76,54.659,7.01,62,7.01,62l50-0.064C57.01,61.936,56.191,54.591,52.561,52.6z"/>
<path fill="#E6A400" d="M40.506,48.78c0,4.096-17,4.096-17,0c0-2.633,0-9.078,0-9.078h17C40.506,39.702,40.506,47.21,40.506,48.78z"
	/>
<polygon fill="#E6EBEF" points="23.287,51.345 25.037,62 38.98,62 40.732,51.345 "/>
<path fill="#BEC3CF" d="M23.287,51.345c0,0,0.559,4.776,1.75,5.655c1.401,1.033,4.18-1.45,6.961-1.449
	c2.787,0.002,5.578,2.484,6.982,1.449c1.191-0.878,1.752-5.655,1.752-5.655H23.287z"/>
<path fill="#302C3B" d="M39.916,62c0,0,4.457-5.756,6.301-12.166l-7.123,0.917c0,0,0.104,4.385-2.434,11.249H39.916z"/>
<path fill="#302C3B" d="M24.104,62c0,0-4.457-5.756-6.299-12.166l7.121,0.917c0,0-0.104,4.385,2.436,11.249H24.104z"/>
<path fill="#E81C27" d="M31.359,51.329c-2.197-5.924-11.33-4.804-10.561-2.619c0.502,1.43,0.477,3.153-0.131,4.535
	C19.518,55.859,29.734,57.968,31.359,51.329z"/>
<path fill="#E81C27" d="M32.629,51.324c2.182-5.926,11.318-4.83,10.555-2.643c-0.498,1.429-0.469,3.152,0.143,4.532
	C44.48,55.826,34.27,57.964,32.629,51.324z"/>
<path fill="#B00505" d="M32.951,50.916c1.748,0.349,3.586-2.706,4.125-0.669C37.756,52.799,33.82,53.002,32.951,50.916z"/>
<path fill="#B00505" d="M30.76,52.76c-2.363,3.2-8.324,2.997-9.483,1.332C19.834,52.019,26.035,56.258,30.76,52.76z"/>
<path fill="#B00505" d="M33.234,52.76c2.363,3.2,8.324,2.997,9.483,1.332C44.16,52.019,37.959,56.258,33.234,52.76z"/>
<path fill="#B00505" d="M31.035,50.92c-1.748,0.354-3.594-2.696-4.127-0.659C26.234,52.814,30.17,53.009,31.035,50.92z"/>
<path fill="#E81C27" d="M32,54.013c-1.385,0.001-1.727,1.079-1.732-2.665c-0.004-3.746,0.34-2.667,1.727-2.67
	c1.385-0.001,1.727-1.082,1.732,2.665C33.73,55.086,33.387,54.011,32,54.013z"/>
<path fill="#302C3B" d="M32,2C13.1,2,13.1,12.5,13.1,26.875h37.795C50.895,12.5,50.895,2,32,2z"/>
<path fill="#F5BC2C" d="M17.196,32.957c2-1.863,0.185-9.168-2.395-9.608C9.29,22.41,12.881,36.974,17.196,32.957z"/>
<path fill="#F5BC2C" d="M46.799,32.957c-2.002-1.863-0.186-9.168,2.395-9.608C54.703,22.41,51.114,36.973,46.799,32.957z"/>
<path fill="#FDCA47" d="M48.664,24.02c0-24.5-16.666-10.314-16.666-10.314c0,0-16.667-14.184-16.667,10.314
	c0,0,0.037,4.329,1.115,10.015C17.874,41.561,25.886,47,31.997,47c6.112,0,14.126-5.439,15.552-12.965
	C48.628,28.347,48.664,24.02,48.664,24.02z"/>
<path fill="#E6A400" d="M45.306,20.576c-3.183-1.312-7.54-1.568-9.776-0.693c-0.473,0.184-0.458,1.315-0.041,1.201
	c3.207-0.874,6.9-0.941,9.938,0.116C45.833,21.342,45.783,20.772,45.306,20.576z"/>
<path fill="#E6A400" d="M18.689,20.576c3.183-1.312,7.539-1.568,9.776-0.693c0.473,0.184,0.458,1.315,0.041,1.201
	c-3.208-0.874-6.9-0.941-9.937,0.116C18.161,21.342,18.21,20.772,18.689,20.576z"/>
<path fill="#E6A400" d="M35.701,32.272c0,2.41-7.408,2.41-7.408,0C28.293,31.72,35.701,31.72,35.701,32.272z"/>
<path fill="#F5F5F5" d="M46.098,25.065c-1.836,4.783-9.303,4.082-10.67,0.738C36.463,20.429,45.088,19.968,46.098,25.065z"/>
<path fill="#B00505" d="M37.33,24.556c0,4.219,6.098,4.219,6.098,0C43.428,20.644,37.33,20.644,37.33,24.556z"/>
<path fill="#45332C" d="M37.908,24.157c0,3.645,5.27,3.645,5.27,0C43.178,20.776,37.908,20.776,37.908,24.157z"/>
<path fill="#F5F5F5" d="M37.695,23.528c0,1.059,1.529,1.059,1.529,0C39.225,22.544,37.695,22.544,37.695,23.528z"/>
<path fill="#45332C" d="M46.098,25.032c0-5.133-10.67-5.133-10.67,0.813C36.951,20.966,44.572,20.966,46.098,25.032z"/>
<path fill="#F5F5F5" d="M17.897,25.065c1.836,4.783,9.303,4.082,10.669,0.738C27.527,20.429,18.907,19.968,17.897,25.065z"/>
<path fill="#B00505" d="M20.565,24.556c0,4.219,6.098,4.219,6.098,0C26.663,20.644,20.565,20.644,20.565,24.556z"/>
<path fill="#45332C" d="M21.143,24.157c0,3.646,5.27,3.646,5.27,0C26.413,20.778,21.143,20.778,21.143,24.157z"/>
<path fill="#F5F5F5" d="M21.143,23.362c0,1.059,1.529,1.059,1.529,0C22.672,22.378,21.143,22.378,21.143,23.362z"/>
<path fill="#45332C" d="M17.897,25.032c0-5.133,10.669-5.133,10.669,0.811C27.043,20.966,19.42,20.966,17.897,25.032z"/>
<path fill="#302C3B" d="M31.998,36.834c-2.467-0.687-7.251,0.384-7.251,0.384c1.65,1.69,2.859,3.886,7.251,3.886
	c4.391,0,5.6-2.195,7.248-3.886C39.246,37.218,34.463,36.147,31.998,36.834z"/>
<path fill="#FFFFFF" d="M25.672,37.273c0.197,0.483,2.806,2.282,6.324,2.282c3.52,0,6.129-1.799,6.326-2.282
	C35.17,37.429,28.848,37.43,25.672,37.273z"/>
<polygon fill="#FFFFFF" points="25.928,37.371 26.868,42.104 27.867,37.492 "/>
<polygon fill="#FFFFFF" points="38.066,37.371 37.127,42.104 36.127,37.492 "/>
</svg>
