<?xml version="1.0" encoding="utf-8"?>
<!-- Generator: Adobe Illustrator 15.0.0, SVG Export Plug-In . SVG Version: 6.00 Build 0)  -->
<!DOCTYPE svg PUBLIC "-//W3C//DTD SVG 1.1//EN" "http://www.w3.org/Graphics/SVG/1.1/DTD/svg11.dtd">
<svg version="1.1" id="Layer_1" xmlns="http://www.w3.org/2000/svg" xmlns:xlink="http://www.w3.org/1999/xlink" x="0px" y="0px"
	 width="64px" height="64px" viewBox="0 0 64 64" enable-background="new 0 0 64 64" xml:space="preserve">
<path fill="#614036" d="M32,2C7.077,2,7.069,17,7.069,35.75h49.861C56.931,17,56.924,2,32,2z"/>
<path fill="#75543D" d="M12.019,43.042c2.701-2.515,0.25-12.377-3.233-12.971C1.346,28.804,6.193,48.465,12.019,43.042z"/>
<path fill="#75543D" d="M51.981,43.042c-2.7-2.515-0.249-12.377,3.233-12.971C62.653,28.804,57.809,48.463,51.981,43.042z"/>
<path fill="#916B50" d="M32.001,12c-26.04,0-15.548,3.018-22.5,18.313c0,0,0.05,7.015,1.506,14.539C12.884,54.553,23.8,62,32.001,62
	s19.117-7.447,20.994-17.148c1.456-7.524,1.506-14.539,1.506-14.539C47.549,15.018,58.041,12,32.001,12z"/>
<path fill="#F5F5F5" d="M50.5,32.521c-2.408,6.272-12.205,5.352-14,0.965C37.863,26.437,49.176,25.832,50.5,32.521z"/>
<path fill="#45332C" d="M39,31.853c0,5.532,8,5.532,8,0C47,26.717,39,26.717,39,31.853z"/>
<path fill="#45332C" d="M50.5,32.476c0-6.734-14-6.734-14,1.065C38.5,27.142,48.5,27.142,50.5,32.476z"/>
<path fill="#F5F5F5" d="M13.5,32.521c2.409,6.272,12.206,5.352,14,0.965C26.137,26.437,14.826,25.832,13.5,32.521z"/>
<path fill="#45332C" d="M25,31.853c0,5.532-8,5.532-8,0C17,26.718,25,26.718,25,31.853z"/>
<path fill="#45332C" d="M13.5,32.476c0-6.733,14-6.733,14,1.063C25.502,27.142,15.5,27.142,13.5,32.476z"/>
<path fill="#F5F5F5" d="M39.492,30.508c0,1.384,2,1.384,2,0C41.492,29.225,39.492,29.225,39.492,30.508z"/>
<path fill="#F5F5F5" d="M19.742,30.228c0,1.383-2,1.383-2,0C17.742,28.943,19.742,28.943,19.742,30.228z"/>
<path fill="#664935" d="M49.967,26.328c-4.297-1.771-10.179-2.117-13.199-0.937c-0.637,0.249-0.617,1.775-0.054,1.622
	c4.329-1.18,9.313-1.271,13.414,0.156C50.679,27.362,50.612,26.593,49.967,26.328z"/>
<path fill="#664935" d="M14.034,26.328c4.297-1.771,10.178-2.117,13.198-0.937c0.638,0.249,0.618,1.775,0.054,1.622
	c-4.33-1.18-9.314-1.271-13.414,0.156C13.321,27.362,13.388,26.593,14.034,26.328z"/>
<path fill="#614036" d="M51.91,9.705c9.287,12.736-33.821,9.412-42.787,7.554C9.123,17.259,22.292-0.701,51.91,9.705z"/>
<path fill="#4A2E24" d="M9.123,17.259C22,19.969,61.373,19.594,48.98,6.163C69.186,22.281,20.027,23.719,9.123,17.259z"/>
<path fill="#664935" d="M37,42.117c0,3.254-10,3.254-10,0C27,41.371,37,41.371,37,42.117z"/>
<path fill="#734A2E" d="M32,48.156c-3.355-0.967-9.861,0.541-9.861,0.541c2.243,2.381,3.888,5.473,9.861,5.473
	s7.617-3.092,9.86-5.473C41.86,48.697,35.354,47.189,32,48.156z"/>
<path fill="#614036" d="M56.089,28.396l-2.244-0.689c0.165,2.848,0.079,7.506-0.218,9.986C51.48,47.275,45.7,49.359,45.7,49.359
	s-0.824-2.043-3.012-3.123c-2.753-1.363-5.23-1.027-10.688-1.02c-5.459-0.008-7.937-0.344-10.689,1.02
	c-2.188,1.08-3.012,3.123-3.012,3.123s-5.775-2.082-7.925-11.656c-0.298-2.482-0.384-7.145-0.219-9.996l-2.244,0.689
	c0,0-0.507,8.582,1.405,15.313C13.442,58.225,22.624,62,32,62s18.558-3.775,22.684-18.291
	C56.596,36.979,56.089,28.396,56.089,28.396z M21.885,48.24c2.077-0.684,5.697-0.92,10.115-0.92c4.417,0,8.037,0.236,10.114,0.92
	c1.625,0.535-4.129,9.039-7.117,7.826c-1.299-0.535-1.723-1.607-1.723-1.607h-2.55c0,0-0.424,1.072-1.723,1.607
	C26.014,57.279,20.26,48.775,21.885,48.24z"/>
<path fill="#FFFFFF" d="M23.396,48.775c0.269,0.682,3.817,3.215,8.603,3.215c4.787,0,8.336-2.535,8.604-3.215
	C36.315,48.994,27.717,48.996,23.396,48.775z"/>
<path fill="#F5F5F5" d="M17.742,30.227"/>
</svg>
