<?xml version="1.0" encoding="utf-8"?>
<!-- Generator: Adobe Illustrator 15.0.0, SVG Export Plug-In . SVG Version: 6.00 Build 0)  -->
<!DOCTYPE svg PUBLIC "-//W3C//DTD SVG 1.1//EN" "http://www.w3.org/Graphics/SVG/1.1/DTD/svg11.dtd">
<svg version="1.1" id="Layer_1" xmlns="http://www.w3.org/2000/svg" xmlns:xlink="http://www.w3.org/1999/xlink" x="0px" y="0px"
	 width="64px" height="64px" viewBox="0 0 64 64" enable-background="new 0 0 64 64" xml:space="preserve">
<path fill="#EA8800" d="M13.55,30.093C1.76,32.66,5.553,46.203,5.977,51.666C21.03,44.159,13.55,30.093,13.55,30.093z"/>
<path fill="#EA8800" d="M50.108,30.076c0,0-7.479,14.066,7.578,21.573C58.108,46.186,61.899,32.642,50.108,30.076z"/>
<path fill="#EA8800" d="M15.769,22.082C3.979,24.647,1.622,38.19,2.045,43.654C17.1,36.146,15.769,22.082,15.769,22.082z"/>
<path fill="#EA8800" d="M48.228,22.064c0,0-1.33,14.065,13.728,21.572C62.377,38.174,60.018,24.629,48.228,22.064z"/>
<path fill="#EA8800" d="M14.283,58.064c2.038-5.553,10.573-13.93,5.558-20.803C2.879,32.428,9.092,51.122,14.283,58.064z"/>
<path fill="#EA8800" d="M43.82,37.262c-5.016,6.873,3.519,15.25,5.558,20.803C54.568,51.123,60.781,32.428,43.82,37.262z"/>
<path fill="#F5BC2C" d="M11.853,43.043c2.701-2.516,0.25-12.377-3.233-12.971C1.18,28.804,6.027,48.465,11.853,43.043z"/>
<path fill="#F5BC2C" d="M51.816,43.043c-2.701-2.516-0.25-12.377,3.232-12.971C62.488,28.804,57.643,48.463,51.816,43.043z"/>
<path fill="#FDCA47" d="M31.835,12c-26.041,0-15.548,3.017-22.5,18.312c0,0,0.05,7.016,1.506,14.541
	C12.202,51.887,24.15,62,31.835,62c7.685,0,19.633-10.113,20.995-17.147c1.455-7.524,1.506-14.541,1.506-14.541
	C54.75,16.29,57.875,12,31.835,12z"/>
<path fill="#F5F5F5" d="M50.334,32.521c-2.408,6.274-12.205,5.352-14,0.965C37.697,26.437,49.01,25.832,50.334,32.521z"/>
<path fill="#45332C" d="M38.834,31.853c0,5.532,8,5.532,8,0C46.834,26.717,38.834,26.717,38.834,31.853z"/>
<path fill="#45332C" d="M50.334,32.476c0-6.735-14-6.735-14,1.065C38.334,27.142,48.334,27.142,50.334,32.476z"/>
<path fill="#F5F5F5" d="M13.334,32.521c2.409,6.274,12.206,5.352,14,0.965C25.971,26.437,14.66,25.832,13.334,32.521z"/>
<path fill="#45332C" d="M24.834,31.853c0,5.532-8,5.532-8,0C16.834,26.718,24.834,26.718,24.834,31.853z"/>
<path fill="#45332C" d="M13.334,32.476c0-6.734,14-6.734,14,1.063C25.336,27.142,15.334,27.142,13.334,32.476z"/>
<path fill="#F5F5F5" d="M39.326,30.507c0,1.385,2,1.385,2,0C41.326,29.224,39.326,29.224,39.326,30.507z"/>
<path fill="#F5F5F5" d="M19.576,30.228c0,1.383-2,1.383-2,0C17.576,28.943,19.576,28.943,19.576,30.228z"/>
<path fill="#D99025" d="M31.833,48.34c-4.028-1.069-10,0.506-10,0.506c2.275,2.229,3.942,5.121,10,5.121
	c6.945,0,8.122-3.283,10-5.121C41.834,48.846,35.857,47.268,31.833,48.34z"/>
<path fill="#FFFFFF" d="M23.241,48.926c4.28,3.979,12.933,4.005,17.24,0C35.914,49.144,27.838,49.146,23.241,48.926z"/>
<path fill="#E6A400" d="M49.801,26.328c-4.297-1.771-10.178-2.116-13.198-0.936c-0.638,0.249-0.618,1.776-0.054,1.622
	c4.329-1.179,9.313-1.27,13.414,0.157C50.514,27.363,50.447,26.593,49.801,26.328z"/>
<path fill="#E6A400" d="M13.868,26.328c4.297-1.771,10.178-2.116,13.198-0.936c0.638,0.249,0.618,1.776,0.054,1.622
	c-4.33-1.179-9.314-1.271-13.414,0.157C13.155,27.363,13.222,26.593,13.868,26.328z"/>
<path fill="#E6A400" d="M36.834,42.118c0,3.254-10,3.254-10,0C26.834,41.372,36.834,41.372,36.834,42.118z"/>
<path fill="#EA8800" d="M5.206,34.616c-2.964-7.13-2.273-19.645,7.108-25.291C12.754,16.368,7.91,26.995,5.206,34.616z"/>
<path fill="#D67C00" d="M5.206,34.616c-2.261-7.513,5.231-15.515,7.108-25.291C12.754,16.368,7.91,26.995,5.206,34.616z"/>
<path fill="#EA8800" d="M5.044,36.648c3.37-10.725-1.559-21.286,7.27-27.323C12.832,16.224,18.153,22.251,5.044,36.648z"/>
<path fill="#D67C00" d="M5.044,36.648C15.97,19.88,6.838,15.885,12.314,9.326C12.832,16.224,18.153,22.251,5.044,36.648z"/>
<path fill="#EA8800" d="M12.314,9.326c28.375,13.76,39.049,10.597,46.084,26.641C66.275,7.278,30.803-8.023,12.314,9.326z"/>
<path fill="#D67C00" d="M12.314,9.326c28.375,13.76,36.999,11.066,46.084,26.641C59.143,21.658,31.004,10.419,12.314,9.326z"/>
<path fill="#EA8800" d="M12.575,9.326c-7.425,9.556,22.731,15.085,33.987,15.33C37.241,16.602,28.988,7.669,12.575,9.326z"/>
<path fill="#D67C00" d="M46.563,24.655c-12.08-3.689-37.028-6.258-33.987-15.33C5.15,18.882,34.482,24.655,46.563,24.655z"/>
<path fill="#EA8800" d="M27.837,24.655c-7.175-4.708-6.825-14.997-15.523-15.33C2.571,19.231,19.057,24.411,27.837,24.655z"/>
<path fill="#D67C00" d="M27.837,24.655c-9.882-4.64-21.799-5.894-15.523-15.33C2.571,19.231,18.449,24.897,27.837,24.655z"/>
</svg>
