<?xml version="1.0" encoding="utf-8"?>
<!-- Generator: Adobe Illustrator 15.0.0, SVG Export Plug-In . SVG Version: 6.00 Build 0)  -->
<!DOCTYPE svg PUBLIC "-//W3C//DTD SVG 1.1//EN" "http://www.w3.org/Graphics/SVG/1.1/DTD/svg11.dtd">
<svg version="1.1" id="Layer_1" xmlns="http://www.w3.org/2000/svg" xmlns:xlink="http://www.w3.org/1999/xlink" x="0px" y="0px"
	 width="64px" height="64px" viewBox="0 0 64 64" enable-background="new 0 0 64 64" xml:space="preserve">
<path fill="#FCD5B2" d="M55.622,24.569c0,0-3.883,1.497-5.541,3.839C42.823,25.719,52.411,20.171,55.622,24.569z"/>
<path fill="#DBA97F" d="M46.4,22.646c4.094,1.867-5.279,7.073,6.595,0.922L46.4,22.646z"/>
<path fill="#FCD5B2" d="M59.675,15.361c-4.399-4.399-7.904-2.965-9.245-0.775c-0.671,1.094-1.843,1.399-3.134,1.38
	c-1.226-0.021-0.82,1.158-0.338,1.64c-0.206,0.442-0.478,0.346-0.478,0.346s0.182,1.029-0.091,1.045
	c-0.188-0.188-0.699-0.004-0.523,0.512c0.193,0.567-2.069,1.026-0.426,2.445c1.332,1.149,4.168,2.345,4.754,2.386
	c0.67,0.046,3.261-0.834,3.261-0.834C56.165,25.439,62.824,25.466,59.675,15.361z"/>
<path fill="#DBA97F" d="M54.696,21.417c0.612-0.665,1.688-0.737,2.235-0.234c0,0-1.665-0.077-2.409,1.214
	C54.522,22.396,54.27,21.881,54.696,21.417z"/>
<path fill="#594640" d="M52.198,12.951c7.749,3.236,2.221,5.001,2.127,7.936c2.129-1.263,3.723-0.341,3.123,1.078
	c-0.684,1.621-2.878,2.47-3.729,1.362c-0.27,0.486-0.552,2.448-0.552,2.448c2.628,2.018,13.423-4.311,6.442-11.292
	C57.024,11.896,53.599,10.6,52.198,12.951z"/>
<path fill="#F2C198" d="M48.353,19.789c-1.215,0.289-2.072,0.144-2.537-0.042c-0.363-0.685,0.428-1.016,0.672-0.772
	C46.674,19.162,47.212,19.313,48.353,19.789z"/>
<path fill="#DBA97F" d="M48.353,19.789c-0.901,0.019-1.918-0.781-1.918-0.781c-0.092-0.177-0.355-0.654,0.046-1.057
	C46.536,18.416,47.415,19.389,48.353,19.789z"/>
<path fill-rule="evenodd" clip-rule="evenodd" fill="#DBA97F" d="M50.614,15.054c0.551-0.146,0.917,0.508,2.313,1.885
	C52.521,15.477,51.466,13.947,50.614,15.054z"/>
<path fill="#FFFFFF" d="M51.87,17.21c-1.326,1.072-1.975,0.219-2.154,0.039C49.628,16.884,50.917,14.199,51.87,17.21z"/>
<path fill="#45332C" d="M50.19,16.073c-0.777,1.075-0.511,1.679,0.707,0.464C51.792,15.646,50.813,15.209,50.19,16.073z"/>
<path fill-rule="evenodd" clip-rule="evenodd" fill="#45332C" d="M50.435,15.801c1.018-0.756,1.361,0.809,1.504,1.504
	C51.392,16.557,51.231,15.824,50.435,15.801z"/>
<polygon fill="#D6A57C" points="32.74,2 25.661,37.273 24.694,62 2,62 2,2 "/>
<polygon fill="#9E6C49" points="34.8,2 33.063,12.51 35.762,12.51 26.23,38.451 24.694,62 22.327,46.082 30.3,2 "/>
<polygon fill="#B47D56" points="21.197,2 18.065,18.768 23.904,19.457 24.841,29.64 12.807,56.59 19.026,58.123 17.252,62 2,62 2,2 
	"/>
<path fill="#DBA97F" d="M34.989,29.101c-1.252-0.689-5.464,3.815-9.739,6.772c-0.259,0.178,0.729,2.279,0.998,2.121
	C29.695,36,31.886,36,33.739,33.947c0.281,0.594,1.035,1.26,1.414,2.133c0.264,0.602,4.4-2.469,3.889-2.967
	C36.312,30.454,36.089,29.706,34.989,29.101z"/>
<path fill="#DBA97F" d="M44.873,28.228c-2.273-1.339-2.237-2.993-4.354-6.187c-1.36-2.051-1.197-3.816-2.651-6.896
	c-0.106-0.225,1.423-1.754,1.547-1.537c1.743,3.029,3.296,4.799,4.135,6.77c0.785,1.834,3.644,4.369,4.182,6.52
	C47.853,27.38,45.354,28.509,44.873,28.228z"/>
<path fill="#302C3B" d="M31.833,13.555c-0.426-0.645,2.657-2.197,3.333-2.229c0.845-0.037,3.637,0.727,4.558,2.793
	c0.109,0.244-1.192,1.139-1.595,1.236c-0.658-0.209-0.816-1.133-1.612-1.021c-1.035,0.146-0.971,0.469-2.431,0.703
	c-0.912,0.146-0.818-0.373-0.412-0.461c2.341-0.496,1.705-1.328,0.851-1.654C34.192,12.795,33.868,12.574,31.833,13.555z"/>
<path fill="#302C3B" d="M25.589,35.637c-0.817-0.656-1.797-4.108-2.737-3.772c-1.261,3.312,0,3.351,1.164,6.896
	c0.172,0.525,2.021,0.504,2.232-0.766L25.589,35.637z"/>
<path fill="#7AB51D" d="M40.464,34.156c-0.229-0.77-1.77-1.891-1.77-1.891s-2.238,1.992-3.895,3.477c0,0,0.541,2.057,0.557,3.336
	C35.384,41.258,41.095,36.293,40.464,34.156z"/>
<path fill="#594640" d="M39.703,37.283L26.364,2h1.537l13.42,35.535C41.278,37.66,39.087,39.201,39.703,37.283z"/>
<path fill="#302C3B" d="M21.199,18.896c0.053-0.477,1.979-0.721,2.592-0.641c0.273,0.035,2.842,0.336,3.611,2.42
	c0.139,0.377-1.598,1.666-1.892,1.332c-0.657-0.746-1.146-1.578-1.682-2.027C23.283,19.525,21.13,19.514,21.199,18.896z"/>
<path fill="#FCD5B2" d="M25.361,21.834c1.35,2.006,6.656,5.527,7.378,5.909c0.799,0.424,2.435,0.42,6.105,0.961
	c0.711,0.105,2.043-3.749,1.338-3.878c-3.871-0.707-5.035-0.473-6.627-0.686c-1.087-1.213-5.029-2.322-6.153-3.465
	C27.086,20.354,25.121,21.479,25.361,21.834z"/>
<path fill="#FCD5B2" d="M18.213,55.27c2.432-4.41,3.27-7.17,5.043-8.91c1.272-1.248,4.026-2.992,5.857-4.449
	c0.598-0.475,4.164,3.174,3.559,3.641c-1.383,1.068-4.672,2.111-6.307,2.898c-1.157,3-3.715,3.338-5.302,5.93
	C20.887,54.666,18.043,55.578,18.213,55.27z"/>
<path fill="#302C3B" d="M18.213,55.27c-0.981,0.848-4.555,2.23-4.092,3.164c3.588,0.908,3.42-0.596,7.277-1.855
	c0.549-0.18,0.492-1.178-0.336-2.199L18.213,55.27z"/>
<path fill="#92C932" d="M39.888,24.602l-1.605,4.161c1.422,0.066,2.896,0.969,2.896,0.969s-1.635,4.622-2.385,5.644
	c-1.625,2.219-6.943,3.799-10.035,6.488c-0.109,0.943,3.412,4.219,3.412,4.219c1.962-1.061,5.753-1.225,8.214-1.393
	c6.381-0.438,3.994-6.83,10.332-16.423c0.664-1.007-3.795-2.999-4.957-3.089C44.081,25.047,39.888,24.602,39.888,24.602z"/>
<path fill="#302C3B" d="M39.519,33.988c0,0,3.369,5.072,5.857,6.457c-0.037,1.064-0.645,1.494-0.645,1.494l-1.332-0.84l-3.084,2.691
	c0,0,0.326,0.43,0.895,0.809c-0.744,0.455-1.506,0.293-1.506,0.293s-3.568-2.24-4.715-6.801c0.551-0.75,1.438-0.805,1.438-0.805
	c0.734,3.059,2.725,5.43,2.725,5.43l2.971-2.844c0,0-2.189-2.488-3.262-4.658C39.11,34.326,39.519,33.988,39.519,33.988z"/>
<path fill="#302C3B" d="M57.146,23.95c0,0-0.136-1.074-0.366-0.959c-0.955,0.479-3.596,0.869-3.596,0.869s0.313-3.242,2.477-5.383
	c0.185-0.183-0.605-0.651-0.857-0.587c-1.52,0.39-2.838,5.923-2.838,5.923s-2.424-0.092-4.538-0.54c0,0,1.118,0.755,1.442,0.876
	C52.671,25.576,57.146,23.95,57.146,23.95z"/>
<path fill="#E81C27" d="M61.198,15.599c-1.857-3.763-6.344-5.342-10.021-3.527c-1.012,0.5,2.293,3.929,3.641,6.656
	c1.225,2.486,1.838,7.585,3.084,6.968C61.579,23.884,63.054,19.362,61.198,15.599z"/>
</svg>
