<?xml version="1.0" encoding="utf-8"?>
<!-- Generator: Adobe Illustrator 15.0.0, SVG Export Plug-In . SVG Version: 6.00 Build 0)  -->
<!DOCTYPE svg PUBLIC "-//W3C//DTD SVG 1.1//EN" "http://www.w3.org/Graphics/SVG/1.1/DTD/svg11.dtd">
<svg version="1.1" id="Layer_1" xmlns="http://www.w3.org/2000/svg" xmlns:xlink="http://www.w3.org/1999/xlink" x="0px" y="0px"
	 width="64px" height="64px" viewBox="0 0 64 64" enable-background="new 0 0 64 64" xml:space="preserve">
<path fill="#302C3B" d="M15.42,24.287c-5,2.434-8.58,10.165-7.027,17.179c0.793-6.45,7.027-7.779,7.027-7.779V24.287z"/>
<path fill="#302C3B" d="M31.944,2C18.094,2,10.5,12.426,10.5,23.588v3.055C10.612,37.701,12.397,58,31.944,58
	C51.488,58,53.275,37.805,53.5,26.643v-3.055c0-7.486-3.908-16.336-10.93-17.908C41.582,3.303,36.541,2,31.944,2z"/>
<path fill="#BEC3CF" d="M49.792,48.063c-5.199-4.938-30.386-4.938-35.584,0C13.729,52.219,16.232,59.594,16.232,62h31.536
	C47.768,59.594,50.271,52.219,49.792,48.063z"/>
<path fill="#BEC3CF" d="M19.787,52.574L4.522,47.678C8.027,35.871,32.637,44.959,19.787,52.574z"/>
<path fill="#4E5E67" d="M19.732,51.816L5.046,47.623C7.347,40.043,20.703,41.4,19.732,51.816z"/>
<path fill="#529320" d="M19.992,52.367C18.101,41.309,9.521,41.549,4.098,48.174c-0.305,0.371-2.204,4.48-2.094,5.313
	c0.548,4.123,0.133,6.008,2.186,5.461c0.307,2.23,1.884,1.434,2.344,1.529c-0.016,1.998,3.634,1.98,3.718-0.549
	c0.115,2.98,3.762,2.576,3.303-0.129c-0.896-5.283,0.363-8.686,2.322-7.174c1.826,1.408-0.432,5.049,1.938,6.854
	C19.315,60.623,20.132,53.182,19.992,52.367z"/>
<path fill="#297124" d="M8.829,61.811c0,0,1.306-0.191,1.427-1.799c-1.01-4.898-0.607-5.496,0.721-9.383
	C7.126,56.771,10.898,60.139,8.829,61.811z"/>
<path fill="#297124" d="M5.046,60.434c0,0,0.74,0.318,1.487,0.043C5.82,54.26,6.538,53.195,8.027,50.104
	C3.73,55.434,7.365,60.365,5.046,60.434z"/>
<path fill="#297124" d="M2.933,58.801c0,0,0.465,0.498,1.257,0.146c-1.14-5.975,0.585-6.32,1.247-8.988
	C1.706,55.207,4.828,59.066,2.933,58.801z"/>
<path fill="#BEC3CF" d="M44.212,52.574l15.266-4.896C55.972,35.871,31.362,44.959,44.212,52.574z"/>
<path fill="#4E5E67" d="M44.267,51.816l14.686-4.193C56.653,40.043,43.297,41.4,44.267,51.816z"/>
<path fill="#529320" d="M44.007,52.367c1.892-11.059,10.471-10.818,15.895-4.193c0.305,0.371,2.205,4.48,2.094,5.313
	c-0.547,4.123-0.133,6.008-2.186,5.461c-0.307,2.23-1.883,1.434-2.344,1.529c0.016,1.998-3.635,1.98-3.717-0.549
	c-0.117,2.98-3.763,2.576-3.304-0.129c0.896-5.283-0.363-8.686-2.323-7.174c-1.825,1.408,0.432,5.049-1.937,6.854
	C44.684,60.623,43.867,53.182,44.007,52.367z"/>
<path fill="#297124" d="M55.171,61.811c0,0-1.307-0.191-1.428-1.799c1.01-4.898,0.607-5.496-0.721-9.383
	C56.874,56.771,53.101,60.139,55.171,61.811z"/>
<path fill="#297124" d="M58.952,60.434c0,0-0.74,0.318-1.486,0.043c0.713-6.217-0.004-7.281-1.494-10.373
	C60.269,55.434,56.636,60.365,58.952,60.434z"/>
<path fill="#297124" d="M61.067,58.801c0,0-0.467,0.498-1.258,0.146c1.141-5.975-0.586-6.32-1.248-8.988
	C62.294,55.207,59.173,59.066,61.067,58.801z"/>
<path fill="#297124" d="M24,45.785c0,6.07,16,6.07,16,0c0-4.313,0-11.439,0-11.439H24C24,34.346,24,40.219,24,45.785z"/>
<path fill="#302C3B" d="M14.77,11.561c-4.58,2.631-8.943,9.166-6.707,17.983c1.125-8.108,6.707-8.991,6.707-8.991V11.561z"/>
<path fill="#302C3B" d="M46.271,13.582l0.991-4.468c4.563,1.703,10.087,7.32,10.808,16.509
	C54.772,17.804,46.271,13.582,46.271,13.582z"/>
<path fill="#302C3B" d="M51.006,15.269l-3.795,4.864c0,0,7.9,10.063,7.382,21.491C59.041,30.025,55.573,19.987,51.006,15.269z"/>
<path fill="#529320" d="M42.051,7.052c-20.949,10.889-30.324,8.745-26.193,25.554c2.479,10.087,11.457,13.857,16.141,13.857
	c4.673,0,13.91-3.712,16.131-13.857C51.584,16.834,45.707,19.26,42.051,7.052z"/>
<path fill="#297124" d="M21.859,30.833c-5.639-2.052-2.218-11.449,3.42-9.397C30.917,23.488,27.497,32.885,21.859,30.833z"/>
<path fill="#FFFFFF" d="M23.861,28.447c-5.104,0-5.104-7,0-7S28.965,28.447,23.861,28.447z"/>
<path fill="#297124" d="M42.14,30.833c5.639-2.052,2.218-11.449-3.42-9.397C33.081,23.488,36.502,32.885,42.14,30.833z"/>
<path fill="#FFFFFF" d="M40.138,28.447c5.104,0,5.104-7,0-7S35.033,28.447,40.138,28.447z"/>
<path fill="#302C3B" d="M37,40.753c0,1.77-2.239,2.418-5,2.418c-2.762,0-5-0.648-5-2.418C27,33.969,37,33.969,37,40.753z"/>
<path fill="#F46C60" d="M36.188,41.753c0,1.77-1.876,2.418-4.187,2.418c-2.313,0-4.188-0.648-4.188-2.418
	C27.813,38.969,36.188,38.969,36.188,41.753z"/>
<path fill="#E03636" d="M32,42.171l0.664-2.479c-0.439-0.031-0.889-0.031-1.328,0L32,42.171z"/>
<path fill="#302C3B" d="M46.139,19.62c-3.36-1.385-7.959-1.655-10.321-0.731c-0.498,0.194-0.482,1.388-0.042,1.269
	c3.386-0.923,7.283-0.994,10.489,0.122C46.696,20.429,46.645,19.827,46.139,19.62z"/>
<path fill="#302C3B" d="M18.041,19.62c3.359-1.384,7.96-1.655,10.321-0.731c0.498,0.194,0.482,1.389,0.043,1.268
	c-3.386-0.923-7.284-0.994-10.489,0.123C17.485,20.43,17.537,19.828,18.041,19.62z"/>
<path fill="#297124" d="M36.113,32.36c0,2.545-7.818,2.545-7.818,0C28.295,31.777,36.113,31.777,36.113,32.36z"/>
<path fill="#302C3B" d="M38.227,6.596c4.813-1.674,7.125,1.847,7.125,1.847c-2.292,3.832-11.59,8.331-19.996,7.456
	C32.955,14.222,33.852,9.443,38.227,6.596z"/>
</svg>
