<?xml version="1.0" encoding="utf-8"?>
<!-- Generator: Adobe Illustrator 15.0.0, SVG Export Plug-In . SVG Version: 6.00 Build 0)  -->
<!DOCTYPE svg PUBLIC "-//W3C//DTD SVG 1.1//EN" "http://www.w3.org/Graphics/SVG/1.1/DTD/svg11.dtd">
<svg version="1.1" id="Layer_1" xmlns="http://www.w3.org/2000/svg" xmlns:xlink="http://www.w3.org/1999/xlink" x="0px" y="0px"
	 width="64px" height="64px" viewBox="0 0 64 64" enable-background="new 0 0 64 64" xml:space="preserve">
<path fill="#4A148C" d="M26.976,2.516C11.204,2.516-1.011,12.411,6.574,62h20.432h20.432C55.021,12.411,42.747,2.516,26.976,2.516z"
	/>
<path fill="#CFD8DD" d="M26.976,9.022c-12.906,0-20.645,7.195-19.978,16.174v12.288c0.104,8.285,1.765,23.492,19.951,23.492
	c18.181,0,19.844-15.129,20.053-23.492V25.196C47.669,16.217,39.762,9.022,26.976,9.022z"/>
<path fill="#FDCA47" d="M7.32,53.84c2.393-1.205,13.32-4.383,13.32-4.383h12.792c0,0,10.919,3.172,13.3,4.379
	C50.191,55.588,50.921,62,50.921,62H3.079C3.079,62,3.85,55.582,7.32,53.84z"/>
<path fill="#FDCA47" d="M20,50.861c0,4.882,14,4.882,14,0c0-2.977,0-7.899,0-7.899H20C20,42.962,20,47.018,20,50.861z"/>
<path fill="#FDCA47" d="M44.68,23.273c-4.054-1.607-9.374-12.606-9.374-12.606C27.64,16.843,10.728,23.351,9.322,23.273
	c-4.422-2.2-1.474,13.933,1.47,10.904C12.582,42.517,22.909,49,27.002,49c4.087,0,14.413-6.483,16.203-14.822
	C46.152,37.206,49.101,21.073,44.68,23.273z"/>
<path fill="#8E3ED6" d="M11.201,52.379c1.183-0.932,2.256-0.744,2.256-0.744L14.201,62h-2.806L11.201,52.379z"/>
<path fill="#8E3ED6" d="M42.797,52.354c-1.181-0.932-2.254-0.743-2.254-0.743L39.797,62h2.805L42.797,52.354z"/>
<path fill="#D99025" d="M29.269,55.95c-1.277,0.751-2.27,2.459-2.27,2.459s-0.992-1.708-2.268-2.459
	c2.266,3.841,1.719,5.568,1.719,5.568h1.098C27.548,61.519,26.997,59.552,29.269,55.95z"/>
<path fill="#8E3ED6" d="M42.225,59.498c-0.771-0.357-8.1-4.973-15.225,1.459c-7.125-6.432-14.453-1.816-15.225-1.459
	C10.822,59.94,10.179,62,10.179,62H27l0,0h16.821C43.821,62,43.178,59.94,42.225,59.498z"/>
<path fill="#FFFFFF" d="M40.748,27.477c-1.789,4.662-9.07,3.976-10.404,0.717C31.356,22.954,39.765,22.504,40.748,27.477z"/>
<path fill="#45332C" d="M32.201,26.979c0,4.113,5.946,4.113,5.946,0C38.147,23.163,32.201,23.163,32.201,26.979z"/>
<path fill="#45332C" d="M40.748,27.443c0-5.006-10.404-5.006-10.404,0.792C31.829,23.478,39.262,23.478,40.748,27.443z"/>
<path fill="#FFFFFF" d="M13.248,27.477c1.791,4.662,9.072,3.976,10.405,0.717C22.641,22.954,14.234,22.504,13.248,27.477z"/>
<path fill="#45332C" d="M21.796,26.979c0,4.113-5.946,4.113-5.946,0C15.85,23.163,21.796,23.163,21.796,26.979z"/>
<path fill="#45332C" d="M13.248,27.443c0-5.005,10.405-5.005,10.405,0.79C22.169,23.478,14.734,23.478,13.248,27.443z"/>
<path fill="#FFFFFF" d="M32.567,25.98c0,1.028,1.486,1.028,1.486,0C34.054,25.026,32.567,25.026,32.567,25.98z"/>
<path fill="#FFFFFF" d="M17.888,25.771c0,1.028-1.486,1.028-1.486,0C16.401,24.817,17.888,24.817,17.888,25.771z"/>
<path fill="#D99025" d="M34.431,39.432c-1.398,1.582-2.271,4.381-7.433,4.381c-4.501,0-5.742-2.465-7.432-4.381H34.431z"/>
<path fill="#FFFFFF" d="M33.501,39.48c-3.058,3.133-9.907,3.176-13.007,0H33.501z"/>
<path fill="#D99025" d="M26.998,39.18c-2.911-1.277-2.935-0.051-7.433,0.252c5.68,0.637,9.186,0.637,14.865,0
	C29.933,39.129,29.91,37.902,26.998,39.18z"/>
<path fill="#E6A400" d="M40.116,22.984c-3.15-1.298-7.463-1.552-9.679-0.686c-0.468,0.183-0.453,1.302-0.04,1.189
	c3.176-0.865,6.831-0.932,9.838,0.114C40.64,23.743,40.591,23.179,40.116,22.984z"/>
<path fill="#E6A400" d="M13.766,22.984c3.151-1.298,7.464-1.552,9.679-0.686c0.468,0.183,0.453,1.302,0.04,1.189
	c-3.176-0.865-6.831-0.933-9.837,0.114C13.243,23.744,13.292,23.179,13.766,22.984z"/>
<path fill="#E6A400" d="M30.714,34.932c0,2.387-7.333,2.387-7.333,0C23.381,34.385,30.714,34.385,30.714,34.932z"/>
<path fill="#E81C27" d="M26.976,18.843C27.072,18.843,27.072,18.843,26.976,18.843C27.072,18.843,27.072,18.843,26.976,18.843z"/>
<path fill="#E6EBEF" d="M39.389,42.654c11.693-15.008-7.064-30.403-4.159-35.377C39.937-0.781,57.752,27.014,39.389,42.654z"/>
<path fill="#E6EBEF" d="M28.217,3.755C10.232,3.93-1.469,26.388,10.365,46.166c-0.094-2.93-3.688-21.566,18.23-29.33
	C40.046,12.779,40.903,3.631,28.217,3.755z"/>
<path fill="#99A8AE" d="M30.824,18.433c3.691-0.235,7.366-0.814,10.977-1.741c-0.211-0.818-0.421-1.636-0.631-2.455
	c-3.404,0.874-6.867,1.417-10.346,1.645V18.433z"/>
<path fill="#99A8AE" d="M23.199,15.893c-3.486-0.233-6.957-0.78-10.368-1.656c-0.209,0.818-0.419,1.637-0.631,2.455
	c3.618,0.928,7.3,1.51,10.999,1.747V15.893z"/>
<path fill="#99A8AE" d="M27.001,12.778c-2.553,0-4.62,2.068-4.62,4.62s2.067,4.621,4.62,4.621c2.552,0,4.62-2.069,4.62-4.621
	S29.553,12.778,27.001,12.778z M27.001,20.369c-1.64,0-2.97-1.33-2.97-2.971c0-1.64,1.33-2.97,2.97-2.97s2.97,1.33,2.97,2.97
	C29.971,19.039,28.641,20.369,27.001,20.369z"/>
<polygon fill="#99A8AE" points="28.611,20.687 27.001,15.982 25.391,20.687 "/>
<path opacity="0.3" fill="#1A1626" d="M26.976,4.252C9.083,4.252-3.253,16.124,6.208,62h2.749
	c-6.146-38.756,6.445-49.227,18.019-49.227c11.572,0,24.222,10.471,18.074,49.227h2.751C57.263,16.124,44.868,4.252,26.976,4.252z"
	/>
<path fill="#8E3ED6" d="M26.975,2C8.385,2-4.433,14.335,5.398,62h2.855C1.869,21.732,14.95,10.853,26.975,10.853
	c12.023,0,25.165,10.879,18.779,51.147h2.857C58.441,14.335,45.564,2,26.975,2z"/>
<circle fill="#7AB51D" cx="55" cy="39" r="7"/>
<circle fill="#92C932" cx="55" cy="39" r="6.198"/>
<path fill="#A6E639" d="M48.802,38.211c0-3.078,2.777-5.576,6.198-5.576c3.424,0,6.198,2.498,6.198,5.576
	C61.198,41.293,48.802,41.293,48.802,38.211z"/>
<path fill-rule="evenodd" clip-rule="evenodd" fill="#E0FFAB" d="M50.055,37.133c0.166,1.165,2.347-1.114,4.554-3.074
	C56.034,32.799,49.557,33.628,50.055,37.133z"/>
<path fill="#A6E639" d="M51.092,41.606c0-0.819,1.75-0.133,3.907-0.133c2.16,0,3.91-0.687,3.91,0.133
	c0,1.278-1.955,2.158-3.909,2.158S51.092,42.885,51.092,41.606z"/>
<path fill="#785647" d="M48.972,39.523c0,0-3.209,4.295-1.454,6.377C49.93,48.758,46.91,62,46.91,62h3.261
	c0,0,1.059-10.174,7.272-16.297C59.31,43.863,48.855,45.276,48.972,39.523z"/>
<path fill="#9E6C49" d="M49.736,40.818c0,0-3.049,3.042-1.292,5.124C50.855,48.801,47.275,62,47.275,62h1.856
	c0,0-0.888-10.703,5.325-16.826C56.323,43.334,49.621,46.568,49.736,40.818z"/>
<path fill="#7AB51D" d="M59.49,33.804c2.875,3.875,1.021,7.604-0.267,8.42c-2.366-0.224-3.459,0.913-5.472,0.913
	c-1.604,0-2.721-6.191-4.48-6.434c0.303,6.252,3.805,8.854,5.949,8.854c3.744,0,6.779-3.034,6.779-6.778
	C62,36.639,61.041,35.049,59.49,33.804z"/>
<path fill="#785647" d="M48.82,36.545c-1.395,0.152-1.789,8.211,3.142,10.688c2.085,1.049,8.923-1.703,8.33-3.961
	c-0.476-1.803-5.814,1.23-7.45,0.334C51.063,42.627,50.842,36.326,48.82,36.545z"/>
<path fill="#9E6C49" d="M48.97,36.945c-1.404,0.005-2.224,7.971,2.992,9.773c2.153,0.744,4.603-0.697,0.153-2.15
	C50.187,43.939,50.072,36.939,48.97,36.945z"/>
</svg>
