<?xml version="1.0" encoding="utf-8"?>
<!-- Generator: Adobe Illustrator 15.0.0, SVG Export Plug-In . SVG Version: 6.00 Build 0)  -->
<!DOCTYPE svg PUBLIC "-//W3C//DTD SVG 1.1//EN" "http://www.w3.org/Graphics/SVG/1.1/DTD/svg11.dtd">
<svg version="1.1" id="Layer_1" xmlns="http://www.w3.org/2000/svg" xmlns:xlink="http://www.w3.org/1999/xlink" x="0px" y="0px"
	 width="64px" height="64px" viewBox="0 0 64 64" enable-background="new 0 0 64 64" xml:space="preserve">
<circle fill="#FDCA47" cx="32" cy="32" r="30"/>
<path fill="#F9B700" d="M51.654,9.346C56.225,14.609,59,21.479,59,29.002C59,45.57,45.566,59,29,59
	c-7.521,0-14.389-2.775-19.654-7.344C14.845,57.988,22.951,62,32,62c16.569,0,30-13.43,30-29.999
	C62,22.951,57.988,14.846,51.654,9.346z"/>
<path fill-rule="evenodd" clip-rule="evenodd" fill="#FFE8BB" d="M6.417,20.5C5.3,24.24,13,11,25,6.082
	C30.833,3.693,11.167,4.582,6.417,20.5z"/>
<path fill="#302C3B" d="M40.211,46.904c-2.184-3.938-14.231-3.953-16.422,0c-0.479,0.869-0.329,1.605,0.207,1.807
	c1.789,0.682,3.562-0.338,8.004-0.338c4.434,0,6.213,1.02,8.004,0.338C40.541,48.51,40.691,47.773,40.211,46.904z"/>
<path fill="#917524" d="M11.385,17.704c7.518-3.538,13.434,2.343,16.143,0.504c0.682-0.464,1.475,1.093,0.818,1.593
	c-3.527,2.688-10.111-2.521-15.701,0.899C11.877,21.17,10.558,18.094,11.385,17.704z"/>
<path fill="#917524" d="M35.742,14.291c9.508-3.941,10.492-9.875,17.059-1.803c0.547,0.672-2.049,2.186-2.615,1.527
	c-4.773-5.547-4.596-0.59-13.719,1.889C35.551,16.153,35.154,14.535,35.742,14.291z"/>
<path fill="#CC9200" d="M56.141,23.459c-0.594,0-1.129,0.229-1.541,0.596c-0.842-5.612-5.666-9.918-11.512-9.918
	c-6.436,0-11.655,5.219-11.655,11.655c0,6.438,5.219,11.655,11.655,11.655c5.846,0,10.67-4.307,11.512-9.92
	c0.412,0.366,0.947,0.596,1.541,0.596c1.289,0,2.332-1.043,2.332-2.331C58.473,24.502,57.43,23.459,56.141,23.459z"/>
<circle fill="#302C3B" cx="42.934" cy="24.257" r="5.001"/>
<rect x="55.998" y="24.451" fill="#99A8AE" width="1.002" height="37.549"/>
<circle fill="#4E5E67" cx="56.498" cy="24.257" r="2.501"/>
<path fill="#4E5E67" d="M42.932,12.756c-6.35,0-11.499,5.15-11.499,11.502c0,6.351,5.149,11.5,11.499,11.5
	c6.354,0,11.502-5.149,11.502-11.5C54.434,17.906,49.285,12.756,42.932,12.756z M42.932,34.102c-5.436,0-9.842-4.408-9.844-9.846
	c0.002-5.438,4.408-9.845,9.844-9.845c5.438,0,9.846,4.407,9.846,9.845S48.369,34.102,42.932,34.102z"/>
<circle opacity="0.7" fill="#E6EBEF" cx="42.93" cy="24.256" r="9.845"/>
<path opacity="0.7" fill="#FFFFFF" d="M39.572,15.002c-2.729,0.994-4.885,3.154-5.879,5.881L39.572,15.002"/>
<path opacity="0.7" fill="#FFFFFF" d="M46.889,15.234L33.924,28.198c0.254,0.582,0.563,1.136,0.922,1.651l13.693-13.691
	C48.023,15.8,47.471,15.489,46.889,15.234"/>
<path opacity="0.7" fill="#FFFFFF" d="M50.148,17.561L36.25,31.458c0.42,0.391,0.873,0.746,1.357,1.057L51.205,18.92
	C50.893,18.436,50.539,17.983,50.148,17.561"/>
<path opacity="0.7" fill="#FFFFFF" d="M52.621,22.54L41.229,33.934c0.557,0.098,1.123,0.156,1.705,0.156c0.016,0,0.031,0,0.047,0
	c0.307,0,0.609-0.02,0.908-0.047l8.842-8.842c0.031-0.314,0.049-0.633,0.049-0.954C52.779,23.663,52.721,23.096,52.621,22.54"/>
<path fill="#302C3B" d="M26.564,23.697c0,5.838-11,5.838-11,0C15.564,21.535,26.564,21.535,26.564,23.697z"/>
</svg>
