<?xml version="1.0" encoding="utf-8"?>
<!-- Generator: Adobe Illustrator 15.0.0, SVG Export Plug-In . SVG Version: 6.00 Build 0)  -->
<!DOCTYPE svg PUBLIC "-//W3C//DTD SVG 1.1//EN" "http://www.w3.org/Graphics/SVG/1.1/DTD/svg11.dtd">
<svg version="1.1" id="Layer_1" xmlns="http://www.w3.org/2000/svg" xmlns:xlink="http://www.w3.org/1999/xlink" x="0px" y="0px"
	 width="64px" height="64px" viewBox="0 0 64 64" enable-background="new 0 0 64 64" xml:space="preserve">
<path fill="#45332C" d="M56,52.836c-4.469-4.018-14.268-5.914-24-5.914s-19.532,1.896-24,5.914C4.744,55.762,4,62,4,62h56
	C60,62,59.255,55.762,56,52.836z"/>
<path fill="#99596B" d="M50.861,46.314c2.844-2.354,4.302-9.424,4.302-21.727C55.163,9.529,43.581,2,32,2
	C20.418,2,8.837,9.529,8.837,24.588c0,12.303,1.457,19.373,4.301,21.727c-1.563,2.635-4.301,2.51-2.966,4.996
	C23.045,53.051,20.003,61,32,61s8.955-7.949,21.827-9.689C55.163,48.824,52.424,48.949,50.861,46.314z"/>
<path fill="#EBBEA0" d="M32,19.617c-14.372,0-16.581,8.686-17.26,17.688C16.46,45.596,25.212,53.42,32,53.42
	s15.539-7.824,17.26-16.115C48.58,28.303,46.371,19.617,32,19.617z"/>
<path fill="#45332C" d="M32,15.379c-7.996,0-17.26,4.002-17.26,21.926C15.961,24.463,24.17,19.617,32,19.617
	c7.829,0,16.039,4.846,17.26,17.688C49.26,19.381,39.996,15.379,32,15.379z"/>
<path fill="#844559" d="M30.948,3.672c28.333,7.916,25.917,48.584-2.354,55.334C58.451,56.441,64.615,8.922,30.948,3.672z"/>
<path fill="#844559" d="M24.462,13.426c10.927-2.738,27.761,0.893,26.685,20.668C55.994,12.662,37.304,7.072,24.462,13.426z"/>
<path fill="#AA657A" d="M14.399,41.719C10.758,28.627,13.98,8.082,36.289,8.443C11.924,3.598,6.592,26.482,14.399,41.719z"/>
<path fill="#AA657A" d="M20.312,50.609c4.904,9.059,13.794,4.443,13.794,4.443C27.059,55.928,20.312,50.609,20.312,50.609z"/>
<path fill="#FFFFFF" d="M46,31.912c-1.822,4.746-9.236,4.049-10.594,0.73C36.438,27.307,44.998,26.85,46,31.912z"/>
<path fill="#45332C" d="M37.297,31.404c0,4.188,6.055,4.188,6.055,0C43.352,27.52,37.297,27.52,37.297,31.404z"/>
<path fill="#45332C" d="M46,31.877c0-5.098-10.594-5.098-10.594,0.807C36.918,27.84,44.486,27.84,46,31.877z"/>
<path fill="#FFFFFF" d="M18,31.912c1.823,4.746,9.237,4.049,10.594,0.73C27.563,27.307,19.004,26.85,18,31.912z"/>
<path fill="#45332C" d="M26.703,31.404c0,4.188-6.055,4.188-6.055,0C20.648,27.52,26.703,27.52,26.703,31.404z"/>
<path fill="#45332C" d="M18,31.877c0-5.096,10.594-5.096,10.594,0.805C27.082,27.84,19.514,27.84,18,31.877z"/>
<path fill="#FFFFFF" d="M37.67,30.387c0,1.047,1.514,1.047,1.514,0C39.184,29.416,37.67,29.416,37.67,30.387z"/>
<path fill="#FFFFFF" d="M22.725,30.176c0,1.045-1.514,1.045-1.514,0C21.211,29.203,22.725,29.203,22.725,30.176z"/>
<path fill="#BF8C6B" d="M39.566,44.084c-1.423,1.609-2.312,4.461-7.567,4.461c-4.583,0-5.846-2.51-7.565-4.461H39.566z"/>
<path fill="#FFFFFF" d="M38.621,44.133c-3.113,3.189-10.088,3.234-13.243,0H38.621z"/>
<path fill="#BF8C6B" d="M32,43.828c-2.965-1.301-2.988-0.053-7.568,0.256c5.783,0.648,9.354,0.648,15.137,0
	C34.988,43.775,34.965,42.527,32,43.828z"/>
<path fill="#BF8D69" d="M45.357,27.338c-3.209-1.322-7.601-1.58-9.855-0.699c-0.477,0.186-0.462,1.326-0.041,1.211
	c3.233-0.881,6.955-0.949,10.016,0.117C45.889,28.109,45.839,27.535,45.357,27.338z"/>
<path fill="#BF8D69" d="M18.527,27.338c3.208-1.322,7.599-1.58,9.854-0.699c0.477,0.186,0.462,1.326,0.041,1.211
	c-3.232-0.881-6.955-0.949-10.016,0.117C17.995,28.111,18.045,27.535,18.527,27.338z"/>
<path fill="#BF8D69" d="M35.783,39.502c0,2.43-7.467,2.43-7.467,0C28.316,38.945,35.783,38.945,35.783,39.502z"/>
</svg>
