<?xml version="1.0" encoding="utf-8"?>
<!-- Generator: Adobe Illustrator 15.0.0, SVG Export Plug-In . SVG Version: 6.00 Build 0)  -->
<!DOCTYPE svg PUBLIC "-//W3C//DTD SVG 1.1//EN" "http://www.w3.org/Graphics/SVG/1.1/DTD/svg11.dtd">
<svg version="1.1" id="Layer_1" xmlns="http://www.w3.org/2000/svg" xmlns:xlink="http://www.w3.org/1999/xlink" x="0px" y="0px"
	 width="64px" height="64px" viewBox="0 0 64 64" enable-background="new 0 0 64 64" xml:space="preserve">
<path fill="#99A8AE" d="M10.576,49.518c1.174-4.439,5.5-11.139,2.611-16.635C3.416,29.018,7.586,43.967,10.576,49.518z"/>
<path fill="#99A8AE" d="M50.813,32.883c-2.889,5.496,1.438,12.195,2.611,16.635C56.414,43.967,60.584,29.018,50.813,32.883z"/>
<path fill="#B07E61" d="M12.02,43.043c2.7-2.516,0.249-12.377-3.233-12.971C1.346,28.805,6.193,48.465,12.02,43.043z"/>
<path fill="#B07E61" d="M51.981,43.043c-2.7-2.516-0.249-12.377,3.233-12.971C62.653,28.805,57.809,48.463,51.981,43.043z"/>
<path fill="#B88A6F" d="M32.001,12c-26.04,0-15.548,3.018-22.5,18.313c0,0,0.05,7.016,1.506,14.539
	C12.883,54.553,23.801,62,32.001,62s19.118-7.447,20.994-17.148c1.456-7.523,1.506-14.539,1.506-14.539
	C54.916,16.29,58.041,12,32.001,12z"/>
<path fill="#99A8AE" d="M8.024,33.264c-2.681-6.834-2.056-18.83,6.43-24.242C14.852,15.771,10.471,25.959,8.024,33.264z"/>
<path fill="#6E8189" d="M8.024,33.264c-2.044-7.201,4.731-14.871,6.43-24.242C14.852,15.771,10.471,25.959,8.024,33.264z"/>
<path fill="#99A8AE" d="M7.879,35.213c3.049-10.281-1.41-20.404,6.575-26.191C14.922,15.635,19.734,21.412,7.879,35.213z"/>
<path fill="#6E8189" d="M7.879,35.213c9.883-16.074,1.622-19.904,6.575-26.191C14.922,15.635,19.734,21.412,7.879,35.213z"/>
<path fill="#99A8AE" d="M14.454,9.021C40.117,22.211,49.771,19.18,56.135,34.559C63.26,7.059,31.178-7.607,14.454,9.021z"/>
<path fill="#6E8189" d="M14.454,9.021c25.663,13.189,34.662,10.359,41.681,25.537C58.929,22.566,31.358,10.07,14.454,9.021z"/>
<path fill="#99A8AE" d="M14.69,9.021c-6.716,9.16,20.56,14.461,30.741,14.695C37,15.996,29.535,7.434,14.69,9.021z"/>
<path fill="#6E8189" d="M45.432,23.717c-10.927-3.537-33.491-6-30.741-14.695C7.975,18.182,34.505,23.717,45.432,23.717z"/>
<path fill="#99A8AE" d="M28.494,23.717c-6.488-4.514-6.172-14.375-14.04-14.695C5.643,18.518,20.553,23.482,28.494,23.717z"/>
<path fill="#6E8189" d="M28.494,23.717c-8.938-4.447-19.717-5.65-14.04-14.695C5.643,18.518,20.002,23.949,28.494,23.717z"/>
<path fill="#99A8AE" d="M49.967,28.328c-4.297-1.771-10.179-2.117-13.199-0.936c-0.637,0.248-0.617,1.775-0.054,1.621
	c4.329-1.18,9.313-1.27,13.414,0.156C50.679,29.363,50.612,28.594,49.967,28.328z"/>
<path fill="#99A8AE" d="M14.033,28.328c4.297-1.771,10.178-2.117,13.199-0.936c0.637,0.248,0.617,1.775,0.054,1.621
	c-4.33-1.18-9.314-1.271-13.413,0.156C13.321,29.363,13.388,28.594,14.033,28.328z"/>
<path fill="#F5F5F5" d="M50.501,34.898c-1.494,3.893-13.117,2.348-14,0.193C37.864,28.045,49.177,28.211,50.501,34.898z"/>
<path fill="#45332C" d="M39.501,33.314c0,4.84,7,4.84,7,0C46.501,28.824,39.501,28.824,39.501,33.314z"/>
<path fill="#45332C" d="M50.501,34.852c0-6.732-14-7.502-14,0.295C38.501,28.75,48.501,29.52,50.501,34.852z"/>
<path fill="#F5F5F5" d="M13.5,34.898c1.496,3.893,13.119,2.348,14,0.193C26.139,28.045,14.826,28.211,13.5,34.898z"/>
<path fill="#45332C" d="M24.5,33.314c0,4.84-7,4.84-7,0C17.5,28.824,24.5,28.824,24.5,33.314z"/>
<path fill="#45332C" d="M13.5,34.852c0-6.73,14-7.502,14,0.293C25.502,28.75,15.5,29.52,13.5,34.852z"/>
<path fill="#F5F5F5" d="M39.933,32.26c0,1.211,1.75,1.211,1.75,0C41.683,31.139,39.933,31.139,39.933,32.26z"/>
<path fill="#F5F5F5" d="M19.898,31.893c0,1.209-1.75,1.209-1.75,0C18.148,30.77,19.898,30.77,19.898,31.893z"/>
<path fill="#80553C" d="M32.002,48.373c-4.027-1.068-10,0.506-10,0.506c2.275,2.229,3.941,5.121,10,5.121
	c6.944,0,8.122-3.283,10.001-5.121C42.003,48.879,36.026,47.301,32.002,48.373z"/>
<g>
	<path fill="#FFFFFF" d="M23.41,48.959c4.279,3.979,12.933,4.006,17.239,0C36.083,49.178,28.006,49.18,23.41,48.959z"/>
</g>
<g>
	<path fill="#946346" d="M38.194,41.809c1.313,4.197,5.447,7.986,10.109,9.191C46.13,49.686,39.642,43.785,38.194,41.809z"/>
	<path fill="#946346" d="M15.699,51c4.615-1.191,8.781-4.953,10.107-9.191C24.359,43.785,17.869,49.686,15.699,51z"/>
</g>
<g>
	<path fill="#946346" d="M36.501,37.58c3.309,3.98,10.943,4.018,14.295,0C48.544,39.613,38.753,39.613,36.501,37.58z"/>
	<path fill="#946346" d="M13.205,37.58c3.309,3.98,10.943,4.018,14.295,0C25.246,39.613,15.457,39.613,13.205,37.58z"/>
</g>
<path fill="#946346" d="M37.001,43.561c0,3.254-10,3.254-10,0C27.001,42.814,37.001,42.814,37.001,43.561z"/>
</svg>
