<?xml version="1.0" encoding="utf-8"?>
<!-- Generator: Adobe Illustrator 15.0.0, SVG Export Plug-In . SVG Version: 6.00 Build 0)  -->
<!DOCTYPE svg PUBLIC "-//W3C//DTD SVG 1.1//EN" "http://www.w3.org/Graphics/SVG/1.1/DTD/svg11.dtd">
<svg version="1.1" id="Layer_1" xmlns="http://www.w3.org/2000/svg" xmlns:xlink="http://www.w3.org/1999/xlink" x="0px" y="0px"
	 width="64px" height="64px" viewBox="0 0 64 64" enable-background="new 0 0 64 64" xml:space="preserve">
<path fill="#614036" d="M31.999,1.999c-9.553,0-9.557,5.75-9.557,12.938h19.115C41.557,7.749,41.553,1.999,31.999,1.999z"/>
<path fill="#75543D" d="M24.339,17.733c1.035-0.965,0.096-4.746-1.239-4.973C20.248,12.274,22.106,19.812,24.339,17.733z"/>
<path fill="#75543D" d="M39.658,17.733c-1.035-0.965-0.096-4.746,1.238-4.973C43.75,12.274,41.893,19.812,39.658,17.733z"/>
<path fill="#916B50" d="M32,5.833c-9.982,0-5.96,1.156-8.625,7.02c0,0,0.019,2.689,0.578,5.574c0.718,3.719,4.904,6.572,8.047,6.572
	c3.143,0,7.329-2.854,8.047-6.572c0.559-2.885,0.578-5.574,0.578-5.574C37.959,6.989,41.98,5.833,32,5.833z"/>
<path fill="#614036" d="M39.631,4.954c3.561,4.881-12.964,3.607-16.401,2.895C23.23,7.849,28.278,0.964,39.631,4.954z"/>
<path fill="#4A2E24" d="M23.23,7.849c4.936,1.039,20.028,0.895,15.278-4.254C46.254,9.774,27.409,10.325,23.23,7.849z"/>
<path fill="#916B50" d="M36.932,26.999c-2.311-0.77-1.512-5-1.512-5h-6.841c0,0,0.953,4.084-1.514,5c0,0,3.454,1,4.934,1
	C33.479,27.999,36.932,26.999,36.932,26.999z"/>
<path fill="#302C3B" d="M40.057,45.001c0,0-2.699,2-8.058,2c-5.426,0-8.057-2-8.057-2l-11.314-1.943c0,0,12.86,11.943,19.372,11.943
	s18.386-11.943,18.386-11.943L40.057,45.001z"/>
<path fill="#4E5E67" d="M16.165,43.827c7.035,2.631,5.763,7.084,13.266,7.283l-3.563,1.701l12.053,4.189
	c-12.659,2.072-26.938-1.004-29.436-6.67C6.914,46.769,7.595,40.624,16.165,43.827z"/>
<path fill="#916B50" d="M37.92,53.206c1.623,0,3.479-2.525,4.371-0.266c1.623,4.111,5.494,3.623,5.494,6.08
	c0,2.385-2.373,2.98-3.121,2.98c-1.277,0-3.248-4.262-6.744-4.262V53.206z"/>
<path fill="#916B50" d="M26.079,53.101c-1.624,0-2.995-2.285-4.372-0.268c-3.275,4.797-5.495,3.664-5.495,6.152
	c0,2.412,2.373,3.016,3.122,3.016c1.812,0,3.248-4.313,6.745-4.313V53.101z"/>
<path fill="#4E5E67" d="M47.865,43.456c-9.721,2.926-10.363,8.146-21.999,9.355l0.212,5.645c16.775-0.563,21.527-2.488,26.408-5.518
	C58.453,49.233,56.395,40.888,47.865,43.456z"/>
<path fill="#916B50" d="M60.217,40.907c0,0,0.08-0.893,0.201-1.203c0.139-0.359-0.855-1.27-0.912-1.682
	c-0.045-0.322-0.432-0.225-0.684,0.051c0.252-0.42,0.164-0.951-0.805-0.949c-1.17,0.002-1.752-0.457-2.338,0.021
	c-0.412,0.336-2.025,2.396-2.412,2.299c-1.871-0.477-3.555-1.887-4.361-2.809c-3.916-4.48-3.16-6.633-4.973-8.729
	c-2.455-2.84-8.119-1.826-11.933-1.826c-3.814,0-9.48-1.014-11.935,1.826c-1.813,2.096-1.057,4.248-4.973,8.729
	c-0.806,0.922-2.49,2.332-4.36,2.809c-0.388,0.098-2.001-1.963-2.413-2.299c-0.585-0.479-1.168-0.02-2.338-0.021
	c-0.969-0.002-1.056,0.529-0.803,0.949c-0.252-0.275-0.64-0.373-0.684-0.051c-0.056,0.412-1.051,1.322-0.912,1.682
	c0.12,0.311,0.2,1.203,0.2,1.203c-1.896-0.453-1.927,0.266-1.665,0.813c-0.905,1.813,6.398,4.125,8.988,1.758
	c1.287-1.176,4.342-1.818,6.014-2.932c1.217-0.813,4.028-2.857,4.836-6.145c0.228,0.621,1.986,10.6,1.986,10.6s2.959,3,8.059,3
	c5.099,0,8.058-3,8.058-3s1.758-9.979,1.986-10.6c0.807,3.287,3.619,5.332,4.836,6.145c1.672,1.113,4.727,1.756,6.014,2.932
	c2.59,2.367,9.893,0.055,8.988-1.758C62.145,41.173,62.113,40.454,60.217,40.907z M7.714,40.147
	c-0.563,0.572-0.729,0.848-2.467,0.135c-0.387-0.16,0.217-1.355,0.139-1.813c-0.015-0.088-0.051-0.168-0.095-0.242
	c0.033,0.035,0.063,0.074,0.101,0.107c0.904,0.791,2.125,0.725,2.125,0.725C7.745,39.466,7.714,40.147,7.714,40.147z M58.752,40.282
	c-1.736,0.713-1.904,0.438-2.467-0.135c0,0-0.029-0.682,0.199-1.088c0,0,1.221,0.066,2.125-0.725c0.037-0.033,0.066-0.072,0.1-0.107
	c-0.045,0.074-0.08,0.154-0.096,0.242C58.535,38.927,59.141,40.122,58.752,40.282z"/>
<path fill="#006DAE" d="M41.572,26.435c-1.109-0.361-2.389-0.494-3.703-0.521c0.002-0.002,1.063,5.168-5.869,5.168
	c-6.997,0-5.869-5.17-5.871-5.17c-1.318,0.023-2.595,0.154-3.703,0.514c-0.935,0.305-0.471,7.977-0.471,7.977
	c0.228,0.621,1.986,10.6,1.986,10.6s2.959,3,8.059,3c5.097,0,8.056-3,8.056-3s1.76-9.977,1.986-10.596
	C42.043,34.405,42.51,26.737,41.572,26.435z"/>
<path fill="#734A2E" d="M31.999,19.94c-1.491-0.396-3.703,0.188-3.703,0.188c0.843,0.824,1.46,1.896,3.703,1.896
	c2.572,0,3.007-1.217,3.705-1.896C35.703,20.128,33.488,19.544,31.999,19.94z"/>
<path fill="#FFFFFF" d="M28.817,20.157c1.585,1.473,4.789,1.482,6.384,0C33.51,20.237,30.52,20.239,28.817,20.157z"/>
<path fill="#664935" d="M38.652,11.788c-1.592-0.656-3.77-0.783-4.889-0.348c-0.234,0.094-0.229,0.658-0.02,0.602
	c1.604-0.438,3.449-0.471,4.969,0.059C38.916,12.171,38.893,11.886,38.652,11.788z"/>
<path fill="#664935" d="M25.345,11.788c1.591-0.656,3.77-0.783,4.888-0.348c0.236,0.094,0.229,0.658,0.021,0.602
	c-1.604-0.438-3.45-0.471-4.968,0.059C25.081,12.171,25.106,11.886,25.345,11.788z"/>
<path fill="#664935" d="M33.85,17.636c0,1.205-3.703,1.205-3.703,0C30.147,17.36,33.85,17.36,33.85,17.636z"/>
<path fill="#45332C" d="M30.075,13.767c0,1-0.887,1.701-1.973,1.701s-1.975-0.801-1.975-1.701c0.494,0.4,1.185,0.701,1.975,0.701
	C28.792,14.468,29.483,14.167,30.075,13.767"/>
<path fill="#45332C" d="M37.869,13.767c0,1-0.887,1.701-1.973,1.701s-1.973-0.801-1.973-1.701c0.492,0.4,1.184,0.701,1.973,0.701
	C36.588,14.468,37.277,14.167,37.869,13.767"/>
</svg>
