<?xml version="1.0" encoding="utf-8"?>
<!-- Generator: Adobe Illustrator 15.0.0, SVG Export Plug-In . SVG Version: 6.00 Build 0)  -->
<!DOCTYPE svg PUBLIC "-//W3C//DTD SVG 1.1//EN" "http://www.w3.org/Graphics/SVG/1.1/DTD/svg11.dtd">
<svg version="1.1" id="Layer_1" xmlns="http://www.w3.org/2000/svg" xmlns:xlink="http://www.w3.org/1999/xlink" x="0px" y="0px"
	 width="64px" height="64px" viewBox="0 0 64 64" enable-background="new 0 0 64 64" xml:space="preserve">
<path fill="#0FB4D4" d="M33.002,27.383c-0.643-0.494-3.402-1.285-4.799-1.713c-0.742-0.893-0.17-3.953-0.17-3.953h-9.451
	c0,0,0.57,3.061-0.172,3.953c-1.395,0.428-4.156,1.219-4.799,1.713c-7.236-0.301-6.662,8.322-2.842,8.791
	c1.064,2.984,6.893,3.563,4.861,9.113h15.352c-2.031-5.551,3.799-6.129,4.863-9.113C39.664,35.705,40.238,27.082,33.002,27.383z"/>
<path fill="#0FB4D4" d="M15.627,46.74l15.313-0.227c0,0,1.285,1.002,0.574,3.395c-0.896,3.025,2.813-2.246,6.344,2.498
	c-5.338-3.473-5.502,5.307-12.912,4.156C16.141,55.195,15.627,46.74,15.627,46.74z"/>
<path fill="#006DAE" d="M10.77,36.174c1.688,0.533,5.375,0.604,9.719,4.137c1.053,0.855,4.928-7.414,8.09-7.414
	c-4.313,2.32-6.5,9.016-7.834,8.395c-2.51-1.172-6.68-1.781-6.68-1.781C11.518,37.813,10.822,36.799,10.77,36.174z"/>
<path fill="#006DAE" d="M35.846,36.174c-4.34,5.033-9.814,2.18-14.125,4.057c3.9,0.82,10.348-0.291,10.348-0.291
	C34.617,38.242,35.793,36.799,35.846,36.174z"/>
<path fill="#006DAE" d="M32.293,30.039c-1.211,2.428-4.531,2.334-5.42,3.813c3.348-2.457,5.873-0.723,5.873-0.723
	C31.205,31.945,32.293,30.039,32.293,30.039z"/>
<path fill="#006DAE" d="M15.803,29.891c1.197-0.287,4.781-0.154,4.316,2.473c1.588-1.924,6.543-2.174,8.459-0.523
	c-5.107-2.156-9.025,1.488-9.025,1.488C20.211,30.756,18.668,30.047,15.803,29.891z"/>
<path fill="#B00505" d="M30.789,45.65c-2.348,2.762-12.305,2.51-14.945,0c-0.379-0.357,0-2.033,0-2.033
	c3.01,2.131,11.725,1.75,14.945,0C30.789,43.617,31.125,45.256,30.789,45.65z"/>
<path fill="#C21413" d="M30.986,46.74c-3.201,2.375-13.674-0.223-15.82-3.502c-0.307-0.469,0.529-2.15,0.529-2.15
	c2.631,2.961,11.957,4.6,15.818,3.502C31.514,44.59,31.445,46.402,30.986,46.74z"/>
<path fill="#C21413" d="M15.627,46.74c3.201,2.375,13.674-0.223,15.82-3.502c0.307-0.469-0.529-2.15-0.529-2.15
	c-2.631,2.961-11.957,4.6-15.818,3.502C15.1,44.59,15.168,46.402,15.627,46.74z"/>
<path fill="#F59E01" d="M45.623,60.766c0.002,1.646,6.27,1.646,6.268,0C51.889,58.389,45.627,58.389,45.623,60.766z"/>
<path fill="#F9B700" d="M37.455,53.799c0.715,0.33,4.221,0.188,6.369,3.531c2.652,4.129,8.561,3.273,9.367,0.162
	c5.859,2.098,1.107-10.039-1.291-2.678c-1.564-1.533-5.094-1.396-6.789-0.617c-1.604,0.736-5.088-0.916-6.133-1.875
	C38.633,52.004,37.109,53.223,37.455,53.799z M53.303,55.555c0.234-2.188,1.314-1.082,1.48-0.389
	C55.268,57.191,53.168,56.803,53.303,55.555z"/>
<path fill="#AB5C10" d="M37.645,53.652c0.262,0.26,1.41-0.889,1.148-1.15C38.533,52.242,37.383,53.391,37.645,53.652z"/>
<path fill="#F59E01" d="M44.949,53.914c0,1.646,6.27,1.646,6.266,0C51.213,51.537,44.953,51.537,44.949,53.914z"/>
<path fill="#F9B700" d="M46.99,52.01c0,0.922,2.186,0.922,2.184,0C49.172,50.678,46.992,50.678,46.99,52.01z"/>
<path fill="#0099B5" d="M16.783,19.644c0.875-0.815,0.081-4.012-1.047-4.204C13.324,15.029,14.896,21.4,16.783,19.644z"/>
<path fill="#0099B5" d="M29.734,19.644c-0.875-0.815-0.081-4.012,1.047-4.204C33.193,15.029,31.623,21.4,29.734,19.644z"/>
<path fill="#0FB4D4" d="M30.551,15.733c0-6.699-2.863-4.513-7.291-4.513s-7.293-2.187-7.293,4.513c0,0,0.017,1.894,0.488,4.382
	c0.625,3.292,4.13,5.672,6.804,5.672c2.675,0,6.181-2.38,6.804-5.672C30.535,17.626,30.551,15.733,30.551,15.733z"/>
<path fill="#006DAE" d="M23.259,21.359c-1.306-0.346-3.241,0.164-3.241,0.164c0.738,0.723,1.277,1.66,3.241,1.66
	c2.251,0,2.632-1.064,3.241-1.66C26.5,21.523,24.563,21.013,23.259,21.359z"/>
<path fill="#FFFFFF" d="M20.475,21.55c1.387,1.29,4.19,1.298,5.586,0C24.581,21.62,21.964,21.621,20.475,21.55z"/>
<path fill="#F5F5F5" d="M29.254,16.233c-0.78,2.033-3.955,1.734-4.537,0.313C25.159,14.262,28.825,14.065,29.254,16.233z"/>
<path fill="#45332C" d="M25.527,16.017c0,1.793,2.593,1.793,2.593,0C28.12,14.353,25.527,14.353,25.527,16.017z"/>
<path fill="#45332C" d="M29.254,16.219c0-2.183-4.537-2.183-4.537,0.346C25.365,14.49,28.605,14.49,29.254,16.219z"/>
<path fill="#F5F5F5" d="M17.264,16.233c0.781,2.033,3.955,1.734,4.537,0.313C21.359,14.262,17.693,14.065,17.264,16.233z"/>
<path fill="#45332C" d="M20.99,16.017c0,1.793-2.592,1.793-2.592,0C18.398,14.353,20.99,14.353,20.99,16.017z"/>
<path fill="#45332C" d="M17.264,16.219c0-2.182,4.537-2.182,4.537,0.345C21.152,14.49,17.912,14.49,17.264,16.219z"/>
<path fill="#006DAE" d="M29.082,14.227c-1.394-0.574-3.299-0.686-4.277-0.304c-0.207,0.081-0.201,0.575-0.018,0.526
	c1.402-0.383,3.018-0.412,4.347,0.051C29.313,14.562,29.291,14.313,29.082,14.227z"/>
<path fill="#006DAE" d="M17.437,14.227c1.393-0.574,3.298-0.686,4.276-0.304c0.207,0.081,0.201,0.575,0.018,0.526
	c-1.402-0.383-3.018-0.412-4.346,0.051C17.205,14.562,17.227,14.313,17.437,14.227z"/>
<path fill="#006DAE" d="M24.879,19.344c0,1.055-3.24,1.055-3.24,0C21.639,19.102,24.879,19.102,24.879,19.344z"/>
<path fill="#302C3B" d="M23.258,24.979c-0.459,0-1.018,0.688-1.615,0.467L23.258,27l1.617-1.557
	C24.275,25.666,23.717,24.979,23.258,24.979z"/>
<path fill="#B00505" d="M28.274,5.299c0-4.414-10.03-4.383-10.03,0H28.274z"/>
<path fill="#B00505" d="M18.606,13.037c0.976-0.875,2.692-1.04,4.652-1.04s3.677,0.165,4.652,1.04
	c0.538-0.481,0.854-2.111,0.854-2.725c0-1.723-11.013-1.723-11.013,0C17.753,10.926,18.068,12.556,18.606,13.037z"/>
<path fill="#C21413" d="M31.554,5.603c-2.97-3.223-8.297-1.611-8.295-1.611c0.003,0-5.325-1.611-8.294,1.611
	c-2.141,2.324-1.607,3.95-1.314,4.502c-0.166,0.613,0.129,1.325,0.607,1.69c-0.148,0.341-0.191,0.738-0.094,1.104
	c0.094,0.349,0.316,0.71,0.801,0.945c-0.193,1.618,0.988,1.827,0.988,1.827c3.487-2.617,6.225-4.356,7.306-6.149
	c1.081,1.793,3.818,3.532,7.306,6.149c0,0,1.182-0.209,0.989-1.827c0.483-0.235,0.706-0.597,0.8-0.945
	c0.1-0.366,0.055-0.764-0.094-1.104c0.479-0.367,0.773-1.077,0.607-1.69C33.161,9.553,33.693,7.927,31.554,5.603z"/>
</svg>
