<?xml version="1.0" encoding="utf-8"?>
<!-- Generator: Adobe Illustrator 15.0.0, SVG Export Plug-In . SVG Version: 6.00 Build 0)  -->
<!DOCTYPE svg PUBLIC "-//W3C//DTD SVG 1.1//EN" "http://www.w3.org/Graphics/SVG/1.1/DTD/svg11.dtd">
<svg version="1.1" id="Layer_1" xmlns="http://www.w3.org/2000/svg" xmlns:xlink="http://www.w3.org/1999/xlink" x="0px" y="0px"
	 width="64px" height="64px" viewBox="0 0 64 64" enable-background="new 0 0 64 64" xml:space="preserve">
<path opacity="0.2" fill="#A6AEB0" d="M62,62H2V30c24.666,12.616,39.115-11.355,60,0V62z"/>
<path fill="#FCD5B2" d="M52.624,52.553c-2.329-1.311-11.583-4.617-12.735-5.027v-5.123H24.113v5.152
	c-1.43,0.51-10.381,3.721-12.679,5C7.807,54.574,7,62,7,62h50C57,62,56.24,54.58,52.624,52.553z"/>
<path opacity="0.4" fill="#A6AEB0" d="M60.566,7.733C58.16,5.461,59.842,2,59.842,2s-4.93,4.537-1.803,7.645
	c3.609,3.583,1.803,5.735,1.803,5.735S64.172,11.438,60.566,7.733"/>
<path opacity="0.4" fill="#A6AEB0" d="M4.822,7.559C2.938,5.767,4.248,3,4.248,3S0.313,6.583,2.855,9.107
	c2.869,2.851,1.392,4.642,1.392,4.642S7.775,10.491,4.822,7.559"/>
<path opacity="0.2" fill="#A6AEB0" d="M6.322,20.605c-1.885-1.792-0.572-4.56-0.572-4.56s-3.935,3.584-1.393,6.107
	c2.869,2.851,1.393,4.642,1.393,4.642S9.275,23.537,6.322,20.605"/>
<path opacity="0.6" fill="#A6AEB0" d="M9.033,12.265c-1.414-1.345-0.43-3.42-0.43-3.42s-2.951,2.688-1.045,4.58
	c2.152,2.138,1.045,3.481,1.045,3.481S11.248,14.463,9.033,12.265"/>
<path opacity="0.2" fill="#A6AEB0" d="M12.616,7.181c-1.414-1.345-0.43-3.419-0.43-3.419s-2.951,2.687-1.045,4.58
	c2.152,2.138,1.045,3.481,1.045,3.481S14.831,9.379,12.616,7.181"/>
<path opacity="0.6" fill="#A6AEB0" d="M51.449,6.419C50.035,5.075,51.02,3,51.02,3s-2.951,2.687-1.045,4.58
	c2.152,2.138,1.045,3.481,1.045,3.481S53.664,8.618,51.449,6.419"/>
<path opacity="0.4" fill="#A6AEB0" d="M61.115,23.961c-1.414-1.345-0.43-3.42-0.43-3.42s-2.95,2.688-1.045,4.58
	c2.152,2.138,1.045,3.481,1.045,3.481S63.33,26.16,61.115,23.961"/>
<path opacity="0.2" fill="#A6AEB0" d="M57.465,15.348c-1.912-1.803-0.574-4.552-0.574-4.552s-3.916,3.603-1.432,6.071
	c2.863,2.845,1.432,4.553,1.432,4.553S60.328,18.291,57.465,15.348"/>
<path fill="#A0D8E9" d="M22.693,62H50c0,0-0.339-5.057-4.267-5C21.058,57.342,22.693,62,22.693,62z"/>
<path fill="#CAE8F0" d="M34.063,57.492C21.381,57.463,23.178,57.016,18.269,57C14.337,56.986,14,62,14,62h27.309
	C41.309,62,40.395,57.508,34.063,57.492z"/>
<path fill="#594640" d="M32,2C12.892,2,12.886,13.5,12.886,27.875h38.229C51.114,13.5,51.108,2,32,2z"/>
<path fill="#F2C198" d="M16.681,33.467c2.07-1.93,0.192-9.491-2.479-9.946C8.498,22.549,12.214,37.623,16.681,33.467z"/>
<path fill="#F2C198" d="M47.319,33.467c-2.071-1.93-0.192-9.491,2.479-9.946C55.502,22.549,51.787,37.623,47.319,33.467z"/>
<path fill="#FCD5B2" d="M32.001,9.667c-19.965,0-11.92,2.313-17.25,14.04c0,0,0.038,5.377,1.155,11.147
	C17.344,42.291,25.713,48,32.001,48s14.656-5.709,16.095-13.146c1.117-5.77,1.156-11.147,1.156-11.147
	C43.921,11.98,51.965,9.667,32.001,9.667z"/>
<path fill="#F5F5F5" d="M46.184,25.4c-1.846,4.809-9.357,4.104-10.733,0.74C36.496,20.734,45.168,20.271,46.184,25.4z"/>
<path fill="#45332C" d="M37.367,24.886c0,4.242,6.133,4.242,6.133,0C43.5,20.949,37.367,20.949,37.367,24.886z"/>
<path fill="#45332C" d="M46.184,25.365c0-5.164-10.733-5.164-10.733,0.816C36.983,21.275,44.65,21.275,46.184,25.365z"/>
<path fill="#F5F5F5" d="M17.816,25.4c1.847,4.809,9.358,4.104,10.733,0.74C27.505,20.734,18.833,20.271,17.816,25.4z"/>
<path fill="#45332C" d="M26.633,24.886c0,4.242-6.133,4.242-6.133,0C20.5,20.951,26.633,20.951,26.633,24.886z"/>
<path fill="#45332C" d="M17.816,25.365c0-5.162,10.733-5.162,10.733,0.815C27.018,21.275,19.35,21.275,17.816,25.365z"/>
<path fill="#F5F5F5" d="M37.744,23.856c0,1.062,1.533,1.062,1.533,0C39.277,22.873,37.744,22.873,37.744,23.856z"/>
<path fill="#F5F5F5" d="M22.603,23.641c0,1.06-1.534,1.06-1.534,0C21.068,22.657,22.603,22.657,22.603,23.641z"/>
<path fill="#CC9D76" d="M32,37.527c-3.088-0.82-7.667,0.389-7.667,0.389c1.745,1.709,3.022,3.926,7.667,3.926
	c5.324,0,6.226-2.518,7.666-3.926C39.666,37.916,35.084,36.705,32,37.527z"/>
<path fill="#FFFFFF" d="M25.412,37.977c3.281,3.051,9.916,3.07,13.218,0C35.129,38.143,28.938,38.145,25.412,37.977z"/>
<path fill="#DBA97F" d="M45.775,20.652c-3.295-1.359-7.805-1.623-10.12-0.719c-0.488,0.191-0.474,1.361-0.041,1.244
	c3.319-0.904,7.141-0.975,10.284,0.119C46.32,21.445,46.27,20.855,45.775,20.652z"/>
<path fill="#DBA97F" d="M18.226,20.652c3.294-1.359,7.804-1.623,10.119-0.719c0.489,0.191,0.474,1.361,0.042,1.244
	c-3.32-0.904-7.142-0.975-10.285,0.119C17.68,21.445,17.73,20.855,18.226,20.652z"/>
<path fill="#594640" d="M47.264,7.908c7.121,9.764-25.929,7.215-32.803,5.791C14.461,13.699,24.557-0.07,47.264,7.908z"/>
<path fill="#422F2A" d="M14.461,13.699c9.873,2.077,40.059,1.789,30.559-8.508C60.509,17.548,22.82,18.651,14.461,13.699z"/>
<path fill="#DBA97F" d="M35.834,32.758c0,2.494-7.668,2.494-7.668,0C28.166,32.186,35.834,32.186,35.834,32.758z"/>
<path opacity="0.2" fill="#A6AEB0" d="M62,62H2V44c24.031-10.623,37.939,11.594,60,0V62z"/>
</svg>
