<?xml version="1.0" encoding="utf-8"?>
<!-- Generator: Adobe Illustrator 15.0.0, SVG Export Plug-In . SVG Version: 6.00 Build 0)  -->
<!DOCTYPE svg PUBLIC "-//W3C//DTD SVG 1.1//EN" "http://www.w3.org/Graphics/SVG/1.1/DTD/svg11.dtd">
<svg version="1.1" id="Layer_1" xmlns="http://www.w3.org/2000/svg" xmlns:xlink="http://www.w3.org/1999/xlink" x="0px" y="0px"
	 width="64px" height="64px" viewBox="0 0 64 64" enable-background="new 0 0 64 64" xml:space="preserve">
<path fill="#CAE8F0" d="M2,3.58c14.296-0.164,21.662,5.799,25.28,10.639V33.35c-1.335,2.41-5.591,9.084-13.779,9.037
	c0,0,1.14-8.334,6.063-12.956C3.587,24.273,2,3.58,2,3.58z"/>
<path fill="#A0D8E9" d="M10.091,8.58C27.094,9.806,30.55,21.673,30.55,21.673s-2.863,15.762-13.558,17.631
	c0,0,1.092-5.938,4.858-10.174C10.984,22.705,10.091,8.58,10.091,8.58z"/>
<path fill="#CAE8F0" d="M62,2.003C44.003,1.822,34.731,8.474,30.176,13.875v21.35c1.681,2.689,7.038,10.137,17.346,10.084
	c0,0-1.434-9.299-7.632-14.456C60.002,25.097,62,2.003,62,2.003z"/>
<path fill="#A0D8E9" d="M51.815,7.583C30.411,8.953,26.061,22.195,26.061,22.195s3.604,17.588,17.067,19.674
	c0,0-1.375-6.625-6.117-11.352C50.69,23.345,51.815,7.583,51.815,7.583z"/>
<path fill="#FDCA47" d="M40.874,40.436c-0.79-1.877-0.812-5.266-2.813-6.797c-0.05-1.193-0.646-2.469-1.837-3.77
	c-0.348-1.988-1.688-3.504-3.698-3.318c-0.215-0.441-1.547-0.74-2.334-0.861c-0.449-0.58-0.142-2.584-0.142-2.584h-3.653
	c0,0,0.305,1.809-0.422,2.584c-0.596-0.119-2.156,0.215-2.545,0.484c-1.74-0.172-2.914,1.209-3.216,3.053
	c-1.032,1.207-1.548,2.39-1.591,3.497c-1.734,1.42-1.752,4.564-2.436,6.307c-0.514,1.301-0.592,2.617-0.53,2.867
	c0.372,1.527,2.278,2.584,1.647,1.514c-1.244-2.115-0.012-2.668,0.584-0.982c0.105,0.295,0.373,0.328,0.268-0.363
	c-0.192-1.254-0.75-1.834-0.736-2.188c0.057-1.527,2.063-2.574,2.498-4.877c1.383-0.275,2.128-1.748,2.752-2.67
	c0.56,3.521,0.178,6.184,0.178,6.184c3.786,4.891,8.985-0.016,8.985-0.016c-1.228-3.625,1.067-3.922,1.712-5.871
	c0,0,1.033,3.098,3.02,3.467c0.504,2.482,2.82,3.609,2.887,5.258c0.015,0.381-0.629,1.004-0.852,2.357
	c-0.122,0.744,0.188,0.709,0.309,0.393c0.688-1.818,2.111-1.223,0.676,1.057c-0.729,1.154,1.473,0.016,1.902-1.631
	C41.557,43.258,41.467,41.84,40.874,40.436z"/>
<path fill="#E6A400" d="M19.701,34.773c0.104-1.48,0.191-3.032,0.979-4.819C19.648,31.579,19.347,33.293,19.701,34.773z"/>
<path fill="#E6A400" d="M23.442,31.298c0,0.842,1.167,0.842,1.167,0C24.609,30.517,23.442,30.517,23.442,31.298z"/>
<path fill="#E6A400" d="M30.076,31.867c0,0.788,1.092,0.788,1.092,0C31.168,31.138,30.076,31.138,30.076,31.867z"/>
<path fill="#E6A400" d="M36.816,35.85c-0.12-1.598-0.221-3.27-1.131-5.196C36.877,32.404,37.225,34.252,36.816,35.85z"/>
<path fill="#E6A400" d="M24.321,33.527c-1.044-0.811-2.153-1.639-2.999-3.276C21.896,32.055,22.992,33.174,24.321,33.527z"/>
<path fill="#E6A400" d="M33.623,31.154c-0.879,0.999-1.771,2.067-3.677,2.608C32.082,33.584,33.33,32.609,33.623,31.154z"/>
<path fill="#E6A400" d="M24.025,26.363c0.775,0.25,2.805,1.613,3.798,1.547c0.995-0.068,3.052-1.189,4.321-0.832
	c-1.225-0.799-3.238,0.381-4.291,0.426C26.889,27.544,24.846,26.25,24.025,26.363z"/>
<path fill="#E6A400" d="M29.213,25.978c-0.214,1.006-0.708,1.305-1.168,1.607C28.74,27.728,29.18,27.199,29.213,25.978z"/>
<path fill="#E6A400" d="M26.684,25.832c0.059,1.029,0.501,1.402,0.91,1.775C26.885,27.634,26.53,27.044,26.684,25.832z"/>
<path fill="#FDCA47" d="M34.447,53.182c-0.127-0.631-1.246-0.709-2.51,0.25c-2.527-0.492,0.059,3.139,0.059,3.139
	c1.65,0.918,3.006,3.107,5.014,3.406C39.109,60.291,35.385,57.826,34.447,53.182z"/>
<path fill="#FDCA47" d="M42.473,55.453c-0.031-0.721-1.199-2.01-2.77-1.15c-2.723-0.951-0.539,3.1-0.539,3.1
	c1.129,0.686,2.5,3.82,4.094,4.412C45.484,62.639,42.707,60.762,42.473,55.453z"/>
<path fill="#7AB51D" d="M39.703,54.303c-2.723-0.951-2.289-2.434-4.588-4.299c-3.469-2.813-0.791-6-3.063-10.291
	c-5.528,1.172-9.547-0.236-9.547-0.236c-1.426,3.137-1.461,8.424,0.08,10.871c0.555,0.881,0.5,2.361,2.625,3.234
	c2.764,1.137,6.785,2.988,6.785,2.988c1.65,0.918,0.535-3.146-0.059-3.139c-2.527-0.492-2.139-1.883-4.635-2.76
	c-0.951-0.334,0.074-1.563-0.309-4.211c1.051,2.648,1.643,2.873,2.555,3.785c0.496,0.496,0.818,1.373,1.793,1.951
	c2.871,1.701,7.822,5.205,7.822,5.205C40.293,58.088,40.328,54.324,39.703,54.303z"/>
<path fill="#45332C" d="M31.617,37.746c-1.873,2.023-7.328,2.223-8.713,0.236c-0.197,0.09-0.55,1.25-0.398,1.494
	c0.728,1.17,4.91,2.926,9.547,0.236C32.274,39.508,31.731,37.746,31.617,37.746z"/>
<path fill="#EA8800" d="M28.037,9.11c-6.871,0-6.874,4.135-6.874,9.305h13.748C34.911,13.246,34.908,9.11,28.037,9.11z"/>
<path fill="#F5BC2C" d="M18.991,14.193c-0.255,0.306,1.818,7.551,3.449,6.047C23.196,19.543,19.619,13.437,18.991,14.193z"/>
<path fill="#F5BC2C" d="M37.085,14.193c-0.628-0.756-4.206,5.35-3.45,6.047C35.265,21.744,37.338,14.5,37.085,14.193z"/>
<path fill="#FDCA47" d="M34.24,17.099c0-5.699-2.436-3.839-6.202-3.839c-3.766,0-6.203-1.86-6.203,3.839
	c0,0,0.013,1.611,0.414,3.728c0.531,2.801,3.514,4.825,5.788,4.825c2.275,0,5.259-2.024,5.788-4.825
	C34.228,18.709,34.24,17.099,34.24,17.099z"/>
<path fill="#D99025" d="M28.037,21.885c-1.11-0.294-2.756,0.14-2.756,0.14c0.626,0.614,1.086,1.412,2.756,1.412
	c1.915,0,2.239-0.905,2.756-1.412C30.793,22.025,29.146,21.59,28.037,21.885z"/>
<path fill="#FFFFFF" d="M25.668,22.048c1.18,1.096,3.566,1.104,4.754,0C29.163,22.108,26.937,22.108,25.668,22.048z"/>
<path fill="#F5F5F5" d="M33.138,17.525c-0.664,1.729-3.365,1.476-3.859,0.266C29.654,15.847,32.772,15.68,33.138,17.525z"/>
<path fill="#45332C" d="M29.967,17.34c0,1.525,2.207,1.525,2.207,0C32.174,15.924,29.967,15.924,29.967,17.34z"/>
<path fill="#45332C" d="M33.138,17.512c0-1.856-3.859-1.856-3.859,0.294C29.829,16.042,32.587,16.042,33.138,17.512z"/>
<path fill="#F5F5F5" d="M22.937,17.525c0.664,1.729,3.365,1.476,3.86,0.266C26.42,15.847,23.303,15.68,22.937,17.525z"/>
<path fill="#45332C" d="M26.107,17.34c0,1.525-2.207,1.525-2.207,0C23.9,15.924,26.107,15.924,26.107,17.34z"/>
<path fill="#45332C" d="M22.937,17.512c0-1.856,3.86-1.856,3.86,0.293C26.246,16.042,23.489,16.042,22.937,17.512z"/>
<path fill="#E6A400" d="M32.99,15.817c-1.185-0.489-2.806-0.583-3.639-0.258c-0.175,0.068-0.171,0.489-0.013,0.447
	c1.191-0.326,2.566-0.351,3.696,0.043C33.188,16.103,33.169,15.89,32.99,15.817z"/>
<path fill="#E6A400" d="M23.084,15.817c1.186-0.489,2.806-0.583,3.639-0.258c0.177,0.068,0.171,0.489,0.016,0.447
	c-1.194-0.326-2.569-0.351-3.697,0.043C22.887,16.103,22.906,15.89,23.084,15.817z"/>
<path fill="#E6A400" d="M29.415,20.171c0,0.896-2.756,0.896-2.756,0C26.659,19.965,29.415,19.965,29.415,20.171z"/>
</svg>
