<?xml version="1.0" encoding="utf-8"?>
<!-- Generator: Adobe Illustrator 15.0.0, SVG Export Plug-In . SVG Version: 6.00 Build 0)  -->
<!DOCTYPE svg PUBLIC "-//W3C//DTD SVG 1.1//EN" "http://www.w3.org/Graphics/SVG/1.1/DTD/svg11.dtd">
<svg version="1.1" id="Layer_1" xmlns="http://www.w3.org/2000/svg" xmlns:xlink="http://www.w3.org/1999/xlink" x="0px" y="0px"
	 width="64px" height="64px" viewBox="0 0 64 64" enable-background="new 0 0 64 64" xml:space="preserve">
<path fill="#EA8800" d="M37.236,3.76c-2.754-3.577-16.409-2.144-16.409,8.403c0.057,5.665,0.971,15.222,10.971,15.222
	c9.999,0,10.914-9.503,11.029-15.222C42.828,8.651,40.828,4.498,37.236,3.76z"/>
<path fill="#D67C00" d="M20.999,15.623c0.492,6.252,2.529,11.763,10.81,11.763c8.307,0,10.311-5.53,10.826-11.804
	c-0.271-2.888-1.917-6.617-5.559-11.013C29.61,9.486,21.559,8.721,20.999,15.623z"/>
<path fill="#302C3B" d="M39.021,44.583H24.97c-1.812,2.702-9.941-1.087-14.789-0.096c0,0,17.491,10.764,22.071,10.789
	c4.58-0.025,21.558-10.789,21.558-10.789C48.962,43.496,40.833,47.285,39.021,44.583z"/>
<path fill="#FDCA47" d="M23,49.281c7.747,4.104,14.589,4.507,14.589,4.507c1.509,0,2.816-2.103,4.125-0.301
	c3.119,4.508,5.232,3.404,5.232,5.708c0,2.305-2.214,2.805-3.019,2.805c-1.71,0-3.12-4.005-6.44-4.005l-14.085-1.604
	C22.071,51.964,23,49.281,23,49.281z"/>
<path fill="#4E5E67" d="M10.181,44.497c3.223-0.96,7.129,1.571,12.819,4.784c0,3.91,1.175,7.198,1.175,7.198
	c-11.959-2.169-11.459-3.382-14.991-5.475C6.255,49.268,6.439,45.611,10.181,44.497z"/>
<path fill="#E6A400" d="M37.124,53.716c0,0-3.756-0.472-7.132-1.515c-2.314,0.5-4.138,0.613-4.138,0.613
	c-0.805,0-1.999-0.714-2.702-1.015c0,0,0.026,1.741,0.778,3.647C23.931,55.447,38.13,53.716,37.124,53.716z"/>
<path fill="#302C3B" d="M19.149,55.464c1.811,0.4,3.188,0.952,4.422-0.392L23.152,51.8C21.853,51.276,21.509,53.729,19.149,55.464z"
	/>
<path fill="#FDCA47" d="M40.999,49.209c-7.747,4.104-14.59,4.507-14.59,4.507c-1.508,0-2.816-2.103-4.125-0.301
	c-3.119,4.508-5.232,3.404-5.232,5.708c0,2.305,2.214,2.805,3.019,2.805c1.71,0,3.12-4.005,6.44-4.005l14.086-1.604
	C41.993,51.714,40.999,49.209,40.999,49.209z"/>
<path fill="#4E5E67" d="M53.818,44.425c-3.223-0.96-7.129,1.571-12.819,4.784c0,3.91-1.175,7.198-1.175,7.198
	c11.959-2.169,11.459-3.382,14.99-5.475C57.744,49.195,57.561,45.539,53.818,44.425z"/>
<path fill="#FDCA47" d="M60.227,41.356c0,0,0.08-0.892,0.199-1.202c0.138-0.359-0.853-1.27-0.908-1.681
	c-0.043-0.323-0.43-0.226-0.682,0.05c0.254-0.42,0.166-0.951-0.799-0.949c-1.164,0.002-1.744-0.456-2.326,0.021
	c-0.41,0.336-2.016,2.397-2.402,2.299c-1.86-0.477-5.35-3.523-5.708-4.02c-0.046-0.106-1.721-3.774-2.612-7.04
	c-0.603-2.373-2.546-4.037-5.162-3.941c0,0-2.413,0.189-3.219,0.189c-2.072,0-2.072-0.671-2.072-3.035c0-0.186-5.262-0.186-5.262,0
	c0,2.352,0.001,3.035-1.881,3.035c-0.806,0-3.218-0.189-3.218-0.189c-2.617-0.096-4.56,1.568-5.163,3.941
	c-0.892,3.266-2.566,6.933-2.612,7.04c-0.358,0.496-3.848,3.543-5.708,4.02c-0.387,0.099-1.992-1.963-2.402-2.299
	c-0.582-0.478-1.163-0.02-2.327-0.021c-0.964-0.002-1.052,0.529-0.799,0.949c-0.251-0.275-0.638-0.373-0.681-0.05
	c-0.056,0.411-1.046,1.321-0.908,1.681c0.119,0.311,0.199,1.202,0.199,1.202c-1.888-0.452-1.917,0.266-1.657,0.813
	c-0.901,1.813,6.368,4.125,8.945,1.758c1.28-1.176,5.815-2.532,7.957-4.798c0.702-0.742,3.015-3.743,3.663-5.898
	c0.906,1.232,2.298,11.353,2.298,11.353c2.619,2.349,11.671,2.602,14.042,0c0,0,1.392-10.12,2.297-11.353
	c0.648,2.155,2.961,5.156,3.663,5.898c2.142,2.266,6.677,3.622,7.957,4.798c2.577,2.367,9.846,0.055,8.944-1.758
	C62.144,41.622,62.113,40.904,60.227,41.356z M7.687,40.598c-0.56,0.571-0.726,0.847-2.455,0.135
	c-0.385-0.159,0.216-1.354,0.138-1.813c-0.015-0.088-0.051-0.168-0.095-0.242c0.033,0.036,0.064,0.074,0.101,0.107
	c0.9,0.791,2.115,0.725,2.115,0.725C7.718,39.916,7.687,40.598,7.687,40.598z M58.769,40.732c-1.729,0.712-1.896,0.437-2.455-0.135
	c0,0-0.031-0.682,0.196-1.088c0,0,1.215,0.066,2.115-0.725c0.037-0.033,0.068-0.071,0.101-0.107
	c-0.044,0.074-0.081,0.154-0.095,0.242C58.553,39.378,59.153,40.573,58.769,40.732z"/>
<path fill="#FFDD67" d="M23.182,35.35"/>
<path fill="#F26887" d="M41.961,32.423c-4.227-2.941-2.213-7.688-2.213-7.688c-1.912,0-3.221,0.189-3.221,0.189
	c0,6.834-2.012,7.023-4.527,7.023s-4.528-0.094-4.528-7.023c0,0-1.911-0.189-3.219-0.189c0,0,1.912,4.746-2.214,7.688
	c0,0-1.662,3.321,2.062,6.547c0,0,3.573-0.949,7.899-0.949c4.325,0,7.899,0.949,7.899,0.949
	C43.623,35.744,41.961,32.423,41.961,32.423z"/>
<path fill="#E6A400" d="M32.465,44.403c-0.18,1.009,0.53,1.187,0.102,1.542C32.172,46.272,31.407,45.219,32.465,44.403z"/>
<path fill="#FDCA47" d="M39.378,11.283c-1.13-2.543-3.199-5.301-3.199-5.301c-7.576,4.347-13.98,2.166-12.202,10.403
	c0.844,3.908,5.908,6.937,7.904,6.937c1.992,0,7.185-3.005,7.9-6.937C40.195,14.107,39.904,12.466,39.378,11.283z"/>
<path fill="#D99025" d="M35.623,18.925c-0.704,0.797-1.145,2.207-3.744,2.207c-2.268,0-2.893-1.241-3.743-2.207H35.623z"/>
<path fill="#FFFFFF" d="M35.154,18.95c-1.54,1.578-4.99,1.6-6.552,0H35.154z"/>
<path fill="#D99025" d="M31.879,18.799c-1.467-0.645-1.478-0.026-3.744,0.126c2.861,0.321,4.627,0.321,7.488,0
	C33.357,18.773,33.346,18.155,31.879,18.799z"/>
<path fill="#E6A400" d="M38.487,10.64c-1.587-0.654-3.76-0.781-4.876-0.346c-0.235,0.093-0.229,0.656-0.02,0.6
	c1.6-0.436,3.44-0.469,4.955,0.058C38.75,11.023,38.727,10.739,38.487,10.64z"/>
<path fill="#E6A400" d="M25.213,10.64c1.587-0.653,3.759-0.781,4.875-0.346c0.235,0.093,0.228,0.656,0.021,0.6
	c-1.6-0.436-3.441-0.47-4.956,0.058C24.951,11.023,24.975,10.739,25.213,10.64z"/>
<path fill="#E6A400" d="M33.752,16.659c0,1.202-3.695,1.202-3.695,0C30.057,16.383,33.752,16.383,33.752,16.659z"/>
<path fill="#45332C" d="M29.779,12.875c0,1.045-0.945,1.777-2.101,1.777c-1.156,0-2.1-0.838-2.1-1.777
	c0.524,0.416,1.26,0.732,2.1,0.732C28.414,13.607,29.148,13.291,29.779,12.875"/>
<path fill="#45332C" d="M38.076,12.875c0,1.045-0.944,1.777-2.101,1.777c-1.155,0-2.101-0.838-2.101-1.777
	c0.525,0.416,1.261,0.732,2.101,0.732C36.712,13.607,37.447,13.291,38.076,12.875"/>
</svg>
