<?xml version="1.0" encoding="utf-8"?>
<!-- Generator: Adobe Illustrator 15.0.0, SVG Export Plug-In . SVG Version: 6.00 Build 0)  -->
<!DOCTYPE svg PUBLIC "-//W3C//DTD SVG 1.1//EN" "http://www.w3.org/Graphics/SVG/1.1/DTD/svg11.dtd">
<svg version="1.1" id="Layer_1" xmlns="http://www.w3.org/2000/svg" xmlns:xlink="http://www.w3.org/1999/xlink" x="0px" y="0px"
	 width="64px" height="64px" viewBox="0 0 64 64" enable-background="new 0 0 64 64" xml:space="preserve">
<path fill="#875B49" d="M31.999,1.999c-9.554,0-9.557,5.75-9.557,12.938h19.114C41.556,7.749,41.554,1.999,31.999,1.999z"/>
<path fill="#B07E61" d="M24.339,17.733c1.035-0.965,0.096-4.746-1.239-4.973C20.248,12.274,22.106,19.812,24.339,17.733z"/>
<path fill="#B07E61" d="M39.659,17.733c-1.035-0.965-0.096-4.746,1.238-4.973C43.749,12.274,41.892,19.812,39.659,17.733z"/>
<path fill="#B88A6F" d="M31.999,5.833c-9.981,0-5.96,1.156-8.625,7.02c0,0,0.019,2.689,0.578,5.574
	c0.718,3.719,4.903,6.572,8.047,6.572c3.145,0,7.328-2.854,8.048-6.572c0.558-2.885,0.577-5.574,0.577-5.574
	C37.96,6.989,41.981,5.833,31.999,5.833z"/>
<path fill="#875B49" d="M39.632,4.954C43.19,9.835,26.667,8.562,23.23,7.849C23.23,7.849,28.277,0.964,39.632,4.954z"/>
<path fill="#6B4435" d="M23.23,7.849c4.935,1.039,20.029,0.895,15.279-4.254C46.253,9.774,27.409,10.325,23.23,7.849z"/>
<path fill="#B88A6F" d="M36.933,26.999c-2.312-0.77-1.513-5-1.513-5h-6.842c0,0,0.953,4.084-1.513,5c0,0,3.453,1,4.934,1
	S36.933,26.999,36.933,26.999z"/>
<path fill="#302C3B" d="M40.057,45.002c0,0-2.699,2-8.058,2c-5.427,0-8.058-2-8.058-2l-11.314-1.943c0,0,12.86,11.943,19.372,11.943
	s18.385-11.943,18.385-11.943L40.057,45.002z"/>
<path fill="#4E5E67" d="M16.165,43.828c7.035,2.631,5.763,7.084,13.266,7.283l-3.564,1.701l12.052,4.189
	c-12.658,2.072-26.937-1.004-29.435-6.67C6.914,46.77,7.595,40.625,16.165,43.828z"/>
<path fill="#B88A6F" d="M37.919,53.207c1.624,0,3.48-2.525,4.372-0.266c1.624,4.111,5.495,3.623,5.495,6.08
	c0,2.385-2.373,2.98-3.121,2.98c-1.277,0-3.249-4.262-6.746-4.262V53.207z"/>
<path fill="#B88A6F" d="M26.079,53.102c-1.624,0-2.995-2.285-4.372-0.268c-3.275,4.797-5.495,3.664-5.495,6.152
	c0,2.412,2.373,3.016,3.122,3.016c1.812,0,3.248-4.313,6.745-4.313V53.102z"/>
<path fill="#4E5E67" d="M47.865,43.457c-9.72,2.926-10.363,8.146-21.999,9.355l0.212,5.645c16.773-0.563,21.526-2.488,26.406-5.518
	C58.453,49.234,56.396,40.889,47.865,43.457z"/>
<path fill="#B88A6F" d="M60.218,40.908c0,0,0.08-0.893,0.2-1.203c0.139-0.359-0.856-1.27-0.912-1.682
	c-0.044-0.322-0.433-0.225-0.685,0.051c0.254-0.42,0.166-0.951-0.803-0.949c-1.17,0.002-1.753-0.457-2.338,0.021
	c-0.412,0.336-2.025,2.396-2.414,2.299c-1.869-0.477-3.553-1.887-4.359-2.809c-3.916-4.481-3.16-6.634-4.973-8.729
	c-2.455-2.84-8.121-1.826-11.935-1.826s-9.479-1.014-11.934,1.826c-1.813,2.096-1.057,4.249-4.973,8.729
	c-0.806,0.922-2.49,2.332-4.36,2.809c-0.388,0.098-2.001-1.963-2.413-2.299c-0.585-0.479-1.168-0.02-2.338-0.021
	c-0.969-0.002-1.056,0.529-0.803,0.949c-0.252-0.275-0.64-0.373-0.684-0.051c-0.056,0.412-1.051,1.322-0.912,1.682
	c0.12,0.311,0.2,1.203,0.2,1.203c-1.896-0.453-1.927,0.266-1.665,0.813c-0.905,1.813,6.398,4.125,8.988,1.758
	c1.287-1.176,4.342-1.818,6.014-2.932c1.217-0.813,4.028-2.857,4.836-6.145c0.228,0.621,1.986,10.6,1.986,10.6s2.96,3,8.059,3
	s8.059-3,8.059-3s1.759-9.979,1.985-10.6c0.809,3.287,3.619,5.332,4.837,6.145c1.671,1.113,4.728,1.756,6.014,2.932
	c2.59,2.367,9.894,0.055,8.988-1.758C62.145,41.174,62.114,40.455,60.218,40.908z M7.714,40.148
	c-0.563,0.572-0.729,0.848-2.467,0.135c-0.387-0.16,0.217-1.355,0.139-1.813c-0.015-0.088-0.051-0.168-0.095-0.242
	c0.033,0.035,0.063,0.074,0.101,0.107c0.904,0.791,2.125,0.725,2.125,0.725C7.745,39.467,7.714,40.148,7.714,40.148z M58.753,40.283
	c-1.737,0.713-1.904,0.438-2.467-0.135c0,0-0.031-0.682,0.197-1.088c0,0,1.221,0.066,2.125-0.725
	c0.037-0.033,0.068-0.072,0.102-0.107c-0.045,0.074-0.081,0.154-0.096,0.242C58.536,38.928,59.14,40.123,58.753,40.283z"/>
<path fill="#006DAE" d="M41.573,26.435c-1.109-0.361-2.39-0.494-3.703-0.521c0.002-0.002,1.061,5.168-5.87,5.168
	c-6.997,0-5.869-5.17-5.871-5.17c-1.317,0.023-2.595,0.154-3.702,0.514c-0.935,0.305-0.471,7.978-0.471,7.978
	c0.228,0.621,1.986,10.6,1.986,10.6s2.96,3,8.059,3c5.097,0,8.057-3,8.057-3s1.761-9.977,1.985-10.596
	C42.042,34.406,42.51,26.737,41.573,26.435z"/>
<path fill="#80553C" d="M31.999,19.94c-1.492-0.396-3.703,0.188-3.703,0.188c0.842,0.824,1.459,1.896,3.703,1.896
	c2.572,0,3.008-1.217,3.703-1.896C35.702,20.128,33.489,19.544,31.999,19.94z"/>
<path fill="#FFFFFF" d="M28.817,20.157c1.584,1.473,4.789,1.482,6.385,0C33.511,20.237,30.52,20.239,28.817,20.157z"/>
<path fill="#946346" d="M38.653,11.788c-1.592-0.656-3.77-0.783-4.889-0.348c-0.236,0.094-0.229,0.658-0.02,0.602
	c1.604-0.438,3.449-0.471,4.968,0.059C38.917,12.171,38.892,11.886,38.653,11.788z"/>
<path fill="#946346" d="M25.345,11.788c1.591-0.656,3.769-0.783,4.888-0.348c0.236,0.094,0.229,0.658,0.02,0.602
	c-1.604-0.438-3.449-0.471-4.968,0.059C25.081,12.171,25.106,11.886,25.345,11.788z"/>
<path fill="#946346" d="M33.851,17.636c0,1.205-3.703,1.205-3.703,0C30.147,17.36,33.851,17.36,33.851,17.636z"/>
<path fill="#45332C" d="M30.075,13.767c0,1-0.888,1.701-1.974,1.701c-1.085,0-1.974-0.801-1.974-1.701
	c0.493,0.4,1.184,0.701,1.974,0.701C28.792,14.468,29.483,14.167,30.075,13.767"/>
<path fill="#45332C" d="M37.87,13.767c0,1-0.887,1.701-1.974,1.701c-1.085,0-1.974-0.801-1.974-1.701
	c0.494,0.4,1.185,0.701,1.974,0.701C36.587,14.468,37.278,14.167,37.87,13.767"/>
</svg>
