<?xml version="1.0" encoding="utf-8"?>
<!-- Generator: Adobe Illustrator 15.0.0, SVG Export Plug-In . SVG Version: 6.00 Build 0)  -->
<!DOCTYPE svg PUBLIC "-//W3C//DTD SVG 1.1//EN" "http://www.w3.org/Graphics/SVG/1.1/DTD/svg11.dtd">
<svg version="1.1" id="Layer_1" xmlns="http://www.w3.org/2000/svg" xmlns:xlink="http://www.w3.org/1999/xlink" x="0px" y="0px"
	 width="64px" height="64px" viewBox="0 0 64 64" enable-background="new 0 0 64 64" xml:space="preserve">
<path fill="#A3864C" d="M11.061,21.257C9.483,22.877,6.027,61.23,31.978,61.23c25.952,0,22.493-38.354,20.915-39.974
	C45.84,14.017,18.114,14.017,11.061,21.257z"/>
<path fill="#C8A35D" d="M31.974,2c-12.756,0-20.742,9.3-20.742,19.257l0.966,6.162h39.603l0.966-6.162
	C52.767,11.914,44.471,2,31.974,2z"/>
<polygon fill="#BF8D69" points="24.518,51.911 32,57.991 39.486,51.911 39.486,45.433 24.518,45.433 "/>
<path fill="#529320" d="M51.801,54.367c-0.074-0.034-0.09-0.282,0-0.356c-3.119-1.087-6.226-1.849-9.035-2.399
	c-0.837-3.497,0.864-5.071,0.864-5.071C34.506,46.54,32,57.991,32,57.991S29.496,46.54,20.372,46.54c0,0,1.7,1.574,0.863,5.071
	c-2.81,0.551-5.915,1.313-9.036,2.399c0.091,0.074,0.076,0.322,0,0.356C8.73,56.005,8,62,8,62h48C56,62,55.27,56.005,51.801,54.367z
	"/>
<path fill="#297124" d="M51.801,54.011C47.742,58.117,49.273,62,49.273,62s-0.281-4.432,2.685-7.554
	C52.055,54.213,51.951,54.021,51.801,54.011z"/>
<path fill="#297124" d="M34.537,59.842c0,0,5.864-4.343,8.221-8.238C40.879,56.319,34.537,59.842,34.537,59.842z"/>
<path fill="#297124" d="M12.199,54.011C16.26,58.117,14.729,62,14.729,62s0.28-4.432-2.686-7.554
	C11.947,54.213,12.049,54.021,12.199,54.011z"/>
<path fill="#297124" d="M29.463,59.842c0,0-5.863-4.343-8.219-8.238C23.122,56.319,29.463,59.842,29.463,59.842z"/>
<path fill="#C49A45" d="M33.5,59.132c0,2.768-3,2.768-3,0C30.5,56.566,33.5,56.566,33.5,59.132z"/>
<path fill="#E5BC5E" d="M33.006,59.151c0,2.076-2,2.076-2,0C31.006,57.228,33.006,57.228,33.006,59.151z"/>
<path fill="#DEA885" d="M16.184,33.953c2.134-1.988-4.167-16.844-6.92-17.314C7.318,16.309,12.298,37.57,16.184,33.953z"/>
<path fill="#DEA885" d="M47.774,33.953c-2.135-1.988,4.168-16.844,6.92-17.314C56.639,16.309,51.66,37.568,47.774,33.953z"/>
<path fill="#EBBEA0" d="M49.767,23.904c0,0-12.645-10.724-17.788-10.739C26.773,13.15,14.237,23.93,14.237,23.93
	s-0.005,5.979,1.146,12.047c1.124,5.925,10.474,13.836,16.596,13.836c6.124,0,15.474-7.911,16.597-13.836
	C49.727,29.906,49.767,23.904,49.767,23.904z"/>
<path fill="#F5F5F5" d="M46.447,28.211c-1.868,4.869-9.475,4.154-10.867,0.749C36.639,23.486,45.42,23.017,46.447,28.211z"/>
<path fill="#45332C" d="M37.52,27.691c0,4.295,6.211,4.295,6.211,0C43.73,23.703,37.52,23.703,37.52,27.691z"/>
<path fill="#45332C" d="M46.447,28.174c0-5.228-10.867-5.228-10.867,0.828C37.131,24.033,44.896,24.033,46.447,28.174z"/>
<path fill="#F5F5F5" d="M17.724,28.211c1.871,4.869,9.476,4.154,10.869,0.749C27.535,23.486,18.754,23.017,17.724,28.211z"/>
<path fill="#45332C" d="M26.652,27.691c0,4.295-6.21,4.295-6.21,0C20.442,23.705,26.652,23.705,26.652,27.691z"/>
<path fill="#45332C" d="M17.724,28.174c0-5.227,10.869-5.227,10.869,0.826C27.041,24.033,19.277,24.033,17.724,28.174z"/>
<path fill="#F5F5F5" d="M37.902,26.646c0,1.075,1.553,1.075,1.553,0C39.455,25.65,37.902,25.65,37.902,26.646z"/>
<path fill="#F5F5F5" d="M22.57,26.428c0,1.075-1.553,1.075-1.553,0C21.018,25.434,22.57,25.434,22.57,26.428z"/>
<path fill="#BF8C6B" d="M39.85,40.697c-1.461,1.652-2.373,4.576-7.764,4.576c-4.701,0-5.998-2.574-7.762-4.576H39.85z"/>
<path fill="#FFFFFF" d="M38.879,40.747c-3.195,3.272-10.349,3.319-13.586,0H38.879z"/>
<path fill="#BF8C6B" d="M32.086,40.436c-3.041-1.336-3.064-0.054-7.763,0.262c5.933,0.666,9.593,0.666,15.527,0
	C35.151,40.382,35.128,39.1,32.086,40.436z"/>
<path fill="#BF8D69" d="M45.789,23.518c-3.292-1.355-7.797-1.62-10.11-0.716c-0.489,0.19-0.474,1.359-0.042,1.242
	c3.316-0.902,7.135-0.974,10.275,0.12C46.334,24.311,46.282,23.721,45.789,23.518z"/>
<path fill="#BF8D69" d="M18.265,23.518c3.292-1.355,7.796-1.619,10.11-0.716c0.487,0.19,0.473,1.359,0.041,1.243
	c-3.317-0.903-7.135-0.975-10.274,0.12C17.718,24.311,17.77,23.721,18.265,23.518z"/>
<path fill="#BF8D69" d="M35.968,35.998c0,2.492-7.659,2.492-7.659,0C28.309,35.426,35.968,35.426,35.968,35.998z"/>
<path fill="#A3864C" d="M14.495,29.258c0-10.145,17.456-15.513,17.456-15.513s17.539,5.005,17.539,15.416l0.277-5.257
	c-3.833-9.472-16.729-11.04-17.815-16.905c-1.083,5.84-13.815,7.564-17.714,16.931L14.495,29.258z"/>
<path fill="#529320" d="M31.714,22.409c-3.638-6.372-11.729-0.514-18.23-6.442c-0.13-0.119-0.316,1.007-0.248,1.071
	c6.087,5.799,13.801,1.539,18.479,8.136C32.031,25.623,32.154,23.182,31.714,22.409z"/>
<path fill="#529320" d="M32.286,25.174c4.678-6.597,12.373-2.337,18.461-8.136c0.068-0.064-0.129-1.19-0.259-1.071
	c-6.503,5.929-14.564,0.07-18.202,6.442C31.846,23.182,31.969,25.623,32.286,25.174z"/>
<path fill="#0FB4D4" d="M33.999,22.885c0,3.808-4,3.808-4,0C29.999,19.355,33.999,19.355,33.999,22.885z"/>
<path fill="#75D6FF" d="M33.341,22.915c0,2.853-2.665,2.853-2.665,0C30.676,20.266,33.341,20.266,33.341,22.915z"/>
</svg>
