<?xml version="1.0" encoding="utf-8"?>
<!-- Generator: Adobe Illustrator 15.0.0, SVG Export Plug-In . SVG Version: 6.00 Build 0)  -->
<!DOCTYPE svg PUBLIC "-//W3C//DTD SVG 1.1//EN" "http://www.w3.org/Graphics/SVG/1.1/DTD/svg11.dtd">
<svg version="1.1" id="Layer_1" xmlns="http://www.w3.org/2000/svg" xmlns:xlink="http://www.w3.org/1999/xlink" x="0px" y="0px"
	 width="64px" height="64px" viewBox="0 0 64 64" enable-background="new 0 0 64 64" xml:space="preserve">
<path fill="#1A1626" d="M62,19.244c-8.076,10.42-20.783,10.482-30,10.476c-9.217,0.007-21.924-0.056-30-10.476
	c0,19.167,13.279,24.531,6.486,36.159c-2.146,3.676,49.174,3.676,47.027,0C48.723,43.775,62,38.411,62,19.244z"/>
<path fill="#E81C27" d="M32,29.72c-9.217,0.007-19.984-0.601-28-8.194c0,11.358,20.279,24.603,13.486,36.23
	c-2.146,3.676,31.174,3.676,29.027,0C39.721,46.128,60,32.884,60,21.525C51.984,29.119,41.217,29.727,32,29.72z"/>
<path fill="#302C3B" d="M45.146,54.349c-0.358-5.432,3.639-12.106,7.577-17.697c0.552-3.604,0.72-7.111,0.777-10.009v-3.055
	C54.216,11.604,45.688,2,31.943,2C18.072,2,9.785,11.604,10.5,23.588v3.055c0.029,2.854,0.173,6.323,0.7,9.899
	c3.98,5.651,8.048,12.39,7.646,17.879C21.937,57.213,42.043,57.183,45.146,54.349z"/>
<path fill="#1A1626" d="M9.789,50.848c7.057-4.299,37.44-4.333,44.487-0.004C58.18,53.236,59,62,59,62H5
	C5,62,5.872,53.229,9.789,50.848"/>
<path fill="#1A1626" d="M11.457,62c0.576-2.209-0.101-5.568-0.819-7.416C9.971,52.861,10.223,60.783,11.457,62"/>
<path fill="#1A1626" d="M53.362,54.584c-0.719,1.85-1.396,5.205-0.82,7.414C53.777,60.785,54.029,52.861,53.362,54.584"/>
<path fill="#FDCA47" d="M38.999,47.489v-9.71h-7H25v9.71l-8.438,1.564l2.218,6.436c0,0,3.109,4.959,13.219,6.508v0.001
	c0,0,0.001,0,0.002-0.001c0,0.001,0,0.001,0,0.001l0.001-0.001c10.11-1.549,13.219-6.508,13.219-6.508l2.218-6.436L38.999,47.489z"
	/>
<path fill="#FDCA47" d="M32.042,19.069c-10.528,0.007-16.499-0.451-16.499-0.454c-0.021,3.951,0.773,11.69,1.354,14.546
	c1.664,8.128,11.396,14.454,15.146,14.454s13.481-6.326,15.146-14.454c0.591-2.855,1.374-10.595,1.354-14.546
	C48.542,18.618,42.569,19.076,32.042,19.069z"/>
<path fill="#E81C27" d="M32.001,38.153c-2.446-0.285-4.966-0.33-7.5-0.096c5.479,3.802,9.521,3.802,15,0
	C36.967,37.823,34.462,37.868,32.001,38.153z"/>
<polygon fill="#FFFFFF" points="25.93,38.072 26.869,41.388 27.869,38.157 "/>
<polygon fill="#FFFFFF" points="38.068,38.072 37.129,41.388 36.129,38.157 "/>
<path fill="#B00505" d="M34.989,37.208c-2.212-0.791-3.003,0.264-2.988,0.25c0.015,0.014-0.776-1.041-2.988-0.25
	c-1.699,0.594-4.512,0.82-4.512,0.85c3.076-0.043,3.53,0.77,7.5,0.66c3.97,0.109,4.424-0.703,7.5-0.66
	C39.501,38.028,36.688,37.802,34.989,37.208z"/>
<path fill="#F5F5F5" d="M46.102,25.533c-1.836,4.783-9.303,4.082-10.67,0.738C36.467,20.896,45.092,20.436,46.102,25.533z"/>
<path fill="#B00505" d="M37.334,25.023c0,4.219,6.098,4.219,6.098,0C43.432,21.111,37.334,21.111,37.334,25.023z"/>
<path fill="#45332C" d="M37.912,24.625c0,3.646,5.27,3.646,5.27,0C43.182,21.245,37.912,21.245,37.912,24.625z"/>
<path fill="#F5F5F5" d="M37.699,23.996c0,1.059,1.529,1.059,1.529,0C39.229,23.012,37.699,23.012,37.699,23.996z"/>
<path fill="#45332C" d="M46.102,25.5c0-5.133-10.67-5.133-10.67,0.813C36.955,21.434,44.576,21.434,46.102,25.5z"/>
<path fill="#F5F5F5" d="M17.9,25.533c1.836,4.783,9.303,4.082,10.67,0.738C27.531,20.896,18.91,20.436,17.9,25.533z"/>
<path fill="#B00505" d="M20.568,25.024c0,4.219,6.098,4.219,6.098,0C26.666,21.112,20.568,21.112,20.568,25.024z"/>
<path fill="#45332C" d="M21.146,24.626c0,3.645,5.27,3.645,5.27,0C26.416,21.245,21.146,21.245,21.146,24.626z"/>
<path fill="#F5F5F5" d="M21.146,23.83c0,1.059,1.529,1.059,1.529,0C22.676,22.846,21.146,22.846,21.146,23.83z"/>
<path fill="#45332C" d="M17.9,25.5c0-5.133,10.67-5.133,10.67,0.811C27.047,21.434,19.424,21.434,17.9,25.5z"/>
<path fill="#D99025" d="M34.269,54.43c-1.277,0.751-2.27,2.459-2.27,2.459s-0.992-1.708-2.268-2.459
	c2.266,3.841,1.719,5.568,1.719,5.568h1.098C32.548,59.998,31.997,58.031,34.269,54.43z"/>
<path fill="#E81C27" d="M32.001,61.997c4.057-0.621,6.987-1.793,9.041-2.971H32h-0.001h-9.042c2.055,1.178,4.984,2.35,9.041,2.971
	v0.001C31.998,61.998,31.999,61.998,32.001,61.997C32,61.998,32,61.998,32.001,61.997L32.001,61.997z"/>
<path fill="#302C3B" d="M42.991,62c0,0,5.635-7.817,7.965-16.524l-9.004,1.245c0,0,0.131,5.956-3.076,15.279H42.991z"/>
<path fill="#302C3B" d="M21.005,62c0,0-5.633-7.817-7.961-16.524l9,1.245c0,0-0.131,5.956,3.078,15.279H21.005z"/>
<path fill="#E6A400" d="M45.358,20.962c-3.209-1.322-7.6-1.58-9.855-0.699c-0.476,0.187-0.461,1.326-0.04,1.212
	c3.232-0.881,6.954-0.949,10.017,0.116C45.891,21.734,45.841,21.16,45.358,20.962z"/>
<path fill="#E6A400" d="M18.528,20.962c3.208-1.322,7.6-1.58,9.854-0.698c0.477,0.186,0.461,1.325,0.041,1.211
	c-3.233-0.881-6.955-0.949-10.016,0.117C17.997,21.735,18.046,21.16,18.528,20.962z"/>
<path fill="#E6A400" d="M35.785,33.127c0,2.43-7.466,2.43-7.466,0C28.319,32.57,35.785,32.57,35.785,33.127z"/>
</svg>
