<?xml version="1.0" encoding="utf-8"?>
<!-- Generator: Adobe Illustrator 15.0.0, SVG Export Plug-In . SVG Version: 6.00 Build 0)  -->
<!DOCTYPE svg PUBLIC "-//W3C//DTD SVG 1.1//EN" "http://www.w3.org/Graphics/SVG/1.1/DTD/svg11.dtd">
<svg version="1.1" id="Layer_1" xmlns="http://www.w3.org/2000/svg" xmlns:xlink="http://www.w3.org/1999/xlink" x="0px" y="0px"
	 width="64px" height="64px" viewBox="0 0 64 64" enable-background="new 0 0 64 64" xml:space="preserve">
<path fill="#BEC3CF" d="M49.792,48.063c-5.199-4.938-30.386-4.938-35.584,0C13.729,52.218,16.232,59.594,16.232,62h31.536
	C47.768,59.594,50.271,52.218,49.792,48.063z"/>
<path fill="#BEC3CF" d="M19.787,52.574L4.522,47.678C8.027,35.87,32.637,44.959,19.787,52.574z"/>
<path fill="#4E5E67" d="M19.732,51.816L5.046,47.622C7.347,40.042,20.703,41.399,19.732,51.816z"/>
<path fill="#529320" d="M19.992,52.366C18.101,41.309,9.521,41.549,4.098,48.174c-0.305,0.371-2.204,4.479-2.094,5.312
	c0.548,4.123,0.133,6.008,2.186,5.462c0.307,2.23,1.884,1.433,2.344,1.528c-0.016,1.998,3.634,1.981,3.718-0.548
	c0.115,2.98,3.762,2.575,3.303-0.129c-0.896-5.284,0.363-8.687,2.322-7.175c1.826,1.409-0.432,5.05,1.938,6.854
	C19.315,60.622,20.132,53.182,19.992,52.366z"/>
<path fill="#297124" d="M8.829,61.811c0,0,1.306-0.192,1.427-1.8c-1.01-4.898-0.607-5.496,0.721-9.383
	C7.126,56.771,10.898,60.138,8.829,61.811z"/>
<path fill="#297124" d="M5.046,60.434c0,0,0.74,0.317,1.487,0.042c-0.714-6.217,0.004-7.28,1.493-10.373
	C3.73,55.434,7.365,60.364,5.046,60.434z"/>
<path fill="#297124" d="M2.933,58.801c0,0,0.465,0.498,1.257,0.146c-1.14-5.976,0.585-6.321,1.247-8.988
	C1.706,55.207,4.828,59.066,2.933,58.801z"/>
<path fill="#BEC3CF" d="M44.212,52.574l15.266-4.896C55.972,35.87,31.362,44.959,44.212,52.574z"/>
<path fill="#4E5E67" d="M44.267,51.816l14.686-4.194C56.653,40.042,43.297,41.399,44.267,51.816z"/>
<path fill="#529320" d="M44.007,52.366c1.892-11.058,10.471-10.817,15.895-4.192c0.305,0.371,2.205,4.479,2.094,5.312
	c-0.547,4.123-0.133,6.008-2.186,5.462c-0.307,2.23-1.883,1.433-2.344,1.528c0.016,1.998-3.635,1.981-3.717-0.548
	c-0.117,2.98-3.763,2.575-3.304-0.129c0.896-5.284-0.363-8.687-2.323-7.175c-1.825,1.409,0.432,5.05-1.937,6.854
	C44.684,60.622,43.867,53.182,44.007,52.366z"/>
<path fill="#297124" d="M55.171,61.811c0,0-1.307-0.192-1.428-1.8c1.01-4.898,0.607-5.496-0.721-9.383
	C56.874,56.771,53.101,60.138,55.171,61.811z"/>
<path fill="#297124" d="M58.952,60.434c0,0-0.74,0.317-1.486,0.042c0.713-6.217-0.004-7.28-1.494-10.373
	C60.269,55.434,56.636,60.364,58.952,60.434z"/>
<path fill="#297124" d="M61.067,58.801c0,0-0.467,0.498-1.258,0.146c1.141-5.976-0.586-6.321-1.248-8.988
	C62.294,55.207,59.173,59.066,61.067,58.801z"/>
<path fill="#297124" d="M24,45.784c0,6.07,16,6.07,16,0c0-4.313,0-11.439,0-11.439H24C24,34.345,24,40.218,24,45.784z"/>
<path fill="#302C3B" d="M18.072,10.042c-3.872,2.293-7.345,9.403-7.051,15.783c1.322-5.9,5.952-7.203,5.952-7.203L18.072,10.042z"/>
<path fill="#302C3B" d="M22.859,7.823l-0.991-3.849c-4.672,1.438-10.344,6.239-11.124,14.138
	C14.15,11.405,22.859,7.823,22.859,7.823z"/>
<path fill="#302C3B" d="M43.17,4.235l-2.771,4.814c0,0,10.181,5.415,12.154,14.304C54.515,13.198,48.816,6.522,43.17,4.235z"/>
<path fill="#302C3B" d="M32,2C13.111,2,13.111,13.5,13.111,27.875h37.777C50.888,13.5,50.888,2,32,2z"/>
<path fill="#297124" d="M17.016,33.781c2.025-1.886,0.186-9.282-2.426-9.728C9.008,23.103,12.645,37.849,17.016,33.781z"/>
<path fill="#297124" d="M46.986,33.781c-2.025-1.886-0.188-9.282,2.424-9.728C54.99,23.103,51.355,37.847,46.986,33.781z"/>
<path fill="#529320" d="M48.875,24.733c0-15.504-6.625-10.444-16.873-10.444c-10.248,0-16.875-5.061-16.875,10.444
	c0,0,0.035,4.383,1.127,10.141C17.7,42.493,25.813,48,32,48c6.189,0,14.302-5.507,15.746-13.126
	C48.838,29.114,48.875,24.733,48.875,24.733z"/>
<path fill="#302C3B" d="M45.475,21.246c-3.223-1.328-7.633-1.587-9.898-0.702c-0.479,0.187-0.465,1.331-0.041,1.216
	c3.248-0.885,6.986-0.953,10.061,0.117C46.01,22.021,45.961,21.444,45.475,21.246z"/>
<path fill="#302C3B" d="M18.526,21.246c3.223-1.328,7.633-1.587,9.898-0.702c0.479,0.187,0.463,1.331,0.041,1.216
	c-3.248-0.885-6.986-0.954-10.061,0.117C17.993,22.021,18.042,21.444,18.526,21.246z"/>
<path fill="#297124" d="M35.75,33.089c0,2.439-7.5,2.439-7.5,0C28.25,32.529,35.75,32.529,35.75,33.089z"/>
<path fill="#297124" d="M21.861,32.37c-5.639-2.052-2.218-11.449,3.42-9.397C30.919,25.025,27.499,34.422,21.861,32.37z"/>
<path fill="#FFFFFF" d="M23.863,29.984c-5.104,0-5.104-7,0-7S28.967,29.984,23.863,29.984z"/>
<path fill="#297124" d="M42.142,32.37c5.639-2.052,2.218-11.449-3.42-9.397C33.083,25.025,36.504,34.422,42.142,32.37z"/>
<path fill="#FFFFFF" d="M40.14,29.984c5.104,0,5.104-7,0-7S35.035,29.984,40.14,29.984z"/>
<path fill="#302C3B" d="M37.002,42.29c0,1.77-2.239,2.418-5,2.418c-2.762,0-5-0.648-5-2.418
	C27.002,35.506,37.002,35.506,37.002,42.29z"/>
<path fill="#F46C60" d="M36.189,43.29c0,1.77-1.876,2.418-4.187,2.418c-2.313,0-4.188-0.648-4.188-2.418
	C27.815,40.506,36.189,40.506,36.189,43.29z"/>
<path fill="#E03636" d="M32.002,43.708l0.664-2.479c-0.439-0.031-0.889-0.031-1.328,0L32.002,43.708z"/>
</svg>
