<?xml version="1.0" encoding="utf-8"?>
<!-- Generator: Adobe Illustrator 15.0.0, SVG Export Plug-In . SVG Version: 6.00 Build 0)  -->
<!DOCTYPE svg PUBLIC "-//W3C//DTD SVG 1.1//EN" "http://www.w3.org/Graphics/SVG/1.1/DTD/svg11.dtd">
<svg version="1.1" id="Layer_1" xmlns="http://www.w3.org/2000/svg" xmlns:xlink="http://www.w3.org/1999/xlink" x="0px" y="0px"
	 width="64px" height="64px" viewBox="0 0 64 64" enable-background="new 0 0 64 64" xml:space="preserve">
<path fill="#594640" d="M13.549,30.092C1.759,32.66,5.552,46.203,5.976,51.666C21.029,44.158,13.549,30.092,13.549,30.092z"/>
<path fill="#594640" d="M50.106,30.076c0,0-7.479,14.066,7.578,21.572C58.106,46.186,61.897,32.643,50.106,30.076z"/>
<path fill="#594640" d="M15.769,22.082C3.978,24.646,1.622,38.189,2.044,43.654C17.099,36.146,15.769,22.082,15.769,22.082z"/>
<path fill="#594640" d="M48.228,22.063c0,0-1.33,14.065,13.729,21.571C62.376,38.174,60.017,24.629,48.228,22.063z"/>
<path fill="#594640" d="M14.283,58.064C16.32,52.51,24.855,44.133,19.84,37.26C2.878,32.428,9.091,51.121,14.283,58.064z"/>
<path fill="#594640" d="M43.819,37.262c-5.016,6.873,3.52,15.25,5.559,20.803C54.567,51.123,60.78,32.428,43.819,37.262z"/>
<path fill="#F2C198" d="M11.853,43.043c2.701-2.516,0.25-12.377-3.233-12.971C1.179,28.804,6.026,48.465,11.853,43.043z"/>
<path fill="#F2C198" d="M51.815,43.043c-2.701-2.516-0.25-12.377,3.232-12.971C62.487,28.804,57.642,48.463,51.815,43.043z"/>
<path fill="#FCD5B2" d="M31.835,12c-26.042,0-15.548,3.017-22.5,18.312c0,0,0.05,7.017,1.506,14.542
	C12.202,51.887,24.15,62,31.835,62c7.684,0,19.633-10.113,20.994-17.146c1.455-7.525,1.506-14.542,1.506-14.542
	C54.749,16.289,57.874,12,31.835,12z"/>
<path fill="#F5F5F5" d="M50.333,32.521c-2.408,6.273-12.205,5.352-14,0.965C37.696,26.437,49.009,25.832,50.333,32.521z"/>
<path fill="#45332C" d="M38.833,31.853c0,5.532,8,5.532,8,0C46.833,26.717,38.833,26.717,38.833,31.853z"/>
<path fill="#45332C" d="M50.333,32.476c0-6.735-14-6.735-14,1.065C38.333,27.142,48.333,27.142,50.333,32.476z"/>
<path fill="#F5F5F5" d="M13.333,32.521c2.409,6.273,12.206,5.352,14,0.965C25.97,26.437,14.66,25.832,13.333,32.521z"/>
<path fill="#45332C" d="M24.833,31.853c0,5.532-8,5.532-8,0C16.833,26.717,24.833,26.717,24.833,31.853z"/>
<path fill="#45332C" d="M13.333,32.476c0-6.733,14-6.733,14,1.063C25.335,27.142,15.333,27.142,13.333,32.476z"/>
<path fill="#F5F5F5" d="M39.325,30.506c0,1.386,2,1.386,2,0C41.325,29.224,39.325,29.224,39.325,30.506z"/>
<path fill="#F5F5F5" d="M19.576,30.228c0,1.383-2,1.383-2,0C17.576,28.942,19.576,28.942,19.576,30.228z"/>
<path fill="#CC9D76" d="M31.833,48.34c-4.029-1.068-10,0.506-10,0.506c2.274,2.229,3.942,5.121,10,5.121
	c6.943,0,8.121-3.283,10-5.121C41.833,48.846,35.856,47.268,31.833,48.34z"/>
<path fill="#FFFFFF" d="M23.241,48.926c4.28,3.979,12.932,4.006,17.239,0C35.913,49.145,27.837,49.146,23.241,48.926z"/>
<path fill="#DBA97F" d="M49.8,26.328c-4.297-1.771-10.178-2.117-13.197-0.937c-0.639,0.249-0.619,1.776-0.055,1.622
	c4.33-1.18,9.313-1.27,13.414,0.156C50.513,27.362,50.446,26.592,49.8,26.328z"/>
<path fill="#DBA97F" d="M13.868,26.328c4.297-1.771,10.178-2.117,13.198-0.937c0.639,0.249,0.617,1.776,0.055,1.622
	c-4.331-1.18-9.314-1.271-13.415,0.156C13.154,27.362,13.222,26.592,13.868,26.328z"/>
<path fill="#DBA97F" d="M36.833,42.117c0,3.254-10,3.254-10,0C26.833,41.371,36.833,41.371,36.833,42.117z"/>
<path fill="#594640" d="M5.206,34.615c-2.964-7.13-2.273-19.645,7.108-25.291C12.753,16.367,7.91,26.994,5.206,34.615z"/>
<path fill="#422F2A" d="M5.206,34.615c-2.262-7.513,5.231-15.515,7.108-25.291C12.753,16.367,7.91,26.994,5.206,34.615z"/>
<path fill="#594640" d="M5.043,36.648c3.37-10.727-1.56-21.287,7.271-27.324C12.832,16.224,18.152,22.25,5.043,36.648z"/>
<path fill="#422F2A" d="M5.043,36.648c10.927-16.77,1.794-20.764,7.271-27.322C12.832,16.224,18.152,22.25,5.043,36.648z"/>
<path fill="#594640" d="M12.314,9.326c28.375,13.76,39.048,10.596,46.083,26.641C66.274,7.277,30.802-8.023,12.314,9.326z"/>
<path fill="#422F2A" d="M12.314,9.326c28.375,13.76,36.998,11.065,46.083,26.641C59.142,21.658,31.003,10.418,12.314,9.326z"/>
<path fill="#594640" d="M12.575,9.326c-7.426,9.555,22.731,15.084,33.987,15.33C37.241,16.602,28.987,7.668,12.575,9.326z"/>
<path fill="#422F2A" d="M46.562,24.654c-12.08-3.689-37.027-6.258-33.986-15.33C5.149,18.881,34.481,24.654,46.562,24.654z"/>
<path fill="#594640" d="M27.837,24.654c-7.175-4.707-6.826-14.996-15.523-15.33C2.57,19.23,19.056,24.41,27.837,24.654z"/>
<path fill="#422F2A" d="M27.837,24.654c-9.882-4.64-21.799-5.895-15.523-15.33C2.57,19.23,18.449,24.896,27.837,24.654z"/>
</svg>
