<?xml version="1.0" encoding="utf-8"?>
<!-- Generator: Adobe Illustrator 15.0.0, SVG Export Plug-In . SVG Version: 6.00 Build 0)  -->
<!DOCTYPE svg PUBLIC "-//W3C//DTD SVG 1.1//EN" "http://www.w3.org/Graphics/SVG/1.1/DTD/svg11.dtd">
<svg version="1.1" id="Layer_1" xmlns="http://www.w3.org/2000/svg" xmlns:xlink="http://www.w3.org/1999/xlink" x="0px" y="0px"
	 width="64px" height="64px" viewBox="0 0 64 64" enable-background="new 0 0 64 64" xml:space="preserve">
<path fill="#CAE8F0" d="M62,4.688c-46.227,1.797-42.113,38.809-14.467,44c-6.553-4.891-1.512-9.074-5.648-12.408
	C59.023,26.688,44.463,17.088,62,4.688z"/>
<path fill="#A0D8E9" d="M49.646,12.164c-29.037,1.307-26.453,28.211-9.086,31.986c-4.117-3.555-0.951-6.596-3.549-9.02
	C47.777,28.156,38.631,21.178,49.646,12.164z"/>
<path fill="#CAE8F0" d="M2,6.367c32.889,1.605,29.963,34.658,10.291,39.295c4.664-4.365,1.076-8.104,4.02-11.08
	C4.117,26.016,14.477,17.441,2,6.367z"/>
<path fill="#A0D8E9" d="M10.789,13.045c20.658,1.166,18.82,25.195,6.463,28.566c2.932-3.176,0.678-5.891,2.525-8.055
	C12.119,27.328,18.627,21.096,10.789,13.045z"/>
<path fill="#614036" d="M24.389,7.117c0,3.242,6.049,3.244,6.049,0S24.391,3.871,24.389,7.117z"/>
<path fill="#8E3ED6" d="M29.848,8.313c-0.059-1.963-4.801-1.961-4.867,0C24.98,8.32,29.848,8.32,29.848,8.313z"/>
<path fill="#614036" d="M27.414,7.908c-9.6,0-9.086,10.396-9.086,10.396c0.027,4.998,4.102,8.76,9.086,8.76
	c4.986,0,9.057-3.762,9.086-8.76C36.5,18.305,37.014,7.908,27.414,7.908z"/>
<path fill="#916B50" d="M6.951,39.338c0.15-1.654,1.75-3.191,4.922-3.479c1.984-0.182,3.609-1.746,6.168-2.268
	c0.645-1.072,2.34-3.613,3.717-5.383c1.605-2.07,4.668-0.201,3.148,2.361c-0.994,1.668-3.033,4.799-4.885,5.744
	c-1.471,0.746-5.76,1.512-7.379,2.396l0,0c-2.322,2.482-3.525,3.006-3.496,1.959c0,0-2.266,1.014-2.754,0.023
	C6.084,40.068,6.951,39.338,6.951,39.338z"/>
<path fill="#916B50" d="M23.602,27.387c5.09,1.121,8.428-1.512,10.191,0.381c0.943,1.012-1.398,4.352-1.398,4.352l-10.051-1.377
	C22.344,30.742,22.73,27.195,23.602,27.387z"/>
<path fill="#664935" d="M32.305,50.518c-0.418-0.621-1.676-0.008-2.604,1.547c-1.393,0.381-2.619-0.242-3.883-0.045
	c-1.619,0.252-0.443-2.266-0.443-2.266l-6.021-0.801c0,0,0.434,10.264,5.564,8.234c3.143-1.244,6.113-2.475,6.113-2.475
	c2.113,0.336,4.336,3.529,6.074,2.977C38.674,57.191,35.178,54.775,32.305,50.518z"/>
<path fill="#916B50" d="M46.227,54.742c-0.277-0.697-1.527-0.553-2.717,0.809c-2.895-0.037-2.762-1.752-5.713-2.197
	c-0.938-0.141-2.066-4.869-2.066-4.869l-5.676,1.189c0,0,2.717,6.9,6.064,7.451c3.326,0.547,8.137,2.012,8.137,2.012
	c2.018,0.711,3.988,2.938,6.27,2.861C52.91,61.92,48.266,59.871,46.227,54.742z"/>
<path fill="#8E3ED6" d="M32.611,31.787c0.313-1.105-7.721-5.172-11.137-0.885c-1.289,1.617-0.943,3.781,0.592,4.051
	c2.09,5.521-3.871,9.582-3.783,16.555c0,0,3.277-1.189,4.984-1.117c1.283,0.057,4.367,2.715,6.787,0.502
	c2.404-2.199,7.688-1.004,7.688-1.004s-0.248-3.4-6.045-10.781C30.223,37.23,31.367,36.186,32.611,31.787z"/>
<path fill="#916B50" d="M30.576,27.295l2.002,3.279c0.721-0.379,2.652-0.936,5.434-2.758c2.09-1.371,5.199-5.592,6.205-6.289
	c3.729-2.578,4.902-4.586,3.352-6.33c0,0,0.057-0.77-0.57-1.135c-0.99-0.574-2.531,1.342-2.531,1.342
	c-0.529-0.908-1.746,0.299-2.535,3.494c-0.438,1.771-4.457,4.229-5.674,5.83C34.549,25.965,32.727,26.1,30.576,27.295z"/>
<path fill="#FFE12C" d="M48.027,24.277L41.467,6.439c-0.334,0.152-0.65,0.332-0.945,0.545l6.498,17.674
	c0.105,0.279,0.414,0.42,0.693,0.316C47.986,24.867,48.131,24.559,48.027,24.277z"/>
<polygon fill="#F9C802" points="39.578,8.898 39.17,6.525 36.996,5.516 39.113,4.395 39.395,2 41.111,3.68 43.461,3.211 
	42.404,5.371 43.574,7.473 41.203,7.129 "/>
<path fill="#916B50" d="M29.996,27.791c-1.209-0.4-0.791-2.596-0.791-2.596h-3.58c0,0,0.498,2.119-0.791,2.596H29.996z"/>
<path fill="#75543D" d="M18.055,13.691c-0.297,0.359,0.953,8.863,2.85,7.098C21.783,19.971,18.785,12.805,18.055,13.691z"/>
<path fill="#75543D" d="M36.775,13.691c-0.73-0.887-3.729,6.279-2.852,7.098C35.82,22.555,37.068,14.051,36.775,13.691z"/>
<path fill="#916B50" d="M34.729,16.652c-3.604-2.359-5.043-5.734-5.043-5.734c-3.676,4-9.586,5.744-9.586,5.744
	s-0.002,2.463,0.471,4.961c0.465,2.439,4.314,5.697,6.834,5.697c2.521,0,6.373-3.258,6.834-5.697
	C34.713,19.123,34.729,16.652,34.729,16.652z"/>
<path fill="#F5F5F5" d="M33.361,18.426c-0.768,2.004-3.9,1.711-4.473,0.309C29.322,16.48,32.939,16.287,33.361,18.426z"/>
<path fill="#45332C" d="M29.686,18.211c0,1.77,2.559,1.77,2.559,0C32.244,16.57,29.686,16.57,29.686,18.211z"/>
<path fill="#45332C" d="M33.361,18.41c0-2.152-4.473-2.152-4.473,0.342C29.527,16.705,32.723,16.705,33.361,18.41z"/>
<path fill="#F5F5F5" d="M21.535,18.426c0.771,2.004,3.902,1.711,4.475,0.309C25.574,16.48,21.959,16.287,21.535,18.426z"/>
<path fill="#45332C" d="M25.211,18.211c0,1.77-2.557,1.77-2.557,0C22.654,16.57,25.211,16.57,25.211,18.211z"/>
<path fill="#45332C" d="M21.535,18.41c0-2.152,4.475-2.152,4.475,0.34C25.371,16.705,22.176,16.705,21.535,18.41z"/>
<path fill="#734A2E" d="M30.646,23.566c-0.602,0.68-0.979,1.885-3.197,1.885c-1.936,0-2.471-1.061-3.197-1.885H30.646z"/>
<path fill="#FFFFFF" d="M30.244,23.588c-1.313,1.348-4.26,1.365-5.592,0H30.244z"/>
<path fill="#734A2E" d="M27.449,23.459c-1.252-0.551-1.262-0.021-3.197,0.107c2.443,0.273,3.951,0.273,6.395,0
	C28.711,23.438,28.701,22.908,27.449,23.459z"/>
<path fill="#664935" d="M33.092,16.492c-1.355-0.557-3.211-0.666-4.162-0.293c-0.203,0.078-0.195,0.559-0.018,0.51
	c1.365-0.371,2.938-0.4,4.23,0.051C33.314,16.82,33.293,16.576,33.092,16.492z"/>
<path fill="#664935" d="M21.758,16.492c1.355-0.557,3.211-0.666,4.162-0.293c0.201,0.078,0.195,0.559,0.018,0.512
	c-1.365-0.373-2.938-0.402-4.23,0.049C21.533,16.82,21.555,16.576,21.758,16.492z"/>
<path fill="#664935" d="M29.047,21.631c0,1.027-3.154,1.027-3.154,0C25.893,21.396,29.047,21.396,29.047,21.631z"/>
</svg>
