<?xml version="1.0" encoding="utf-8"?>
<!-- Generator: Adobe Illustrator 15.0.0, SVG Export Plug-In . SVG Version: 6.00 Build 0)  -->
<!DOCTYPE svg PUBLIC "-//W3C//DTD SVG 1.1//EN" "http://www.w3.org/Graphics/SVG/1.1/DTD/svg11.dtd">
<svg version="1.1" id="Layer_1" xmlns="http://www.w3.org/2000/svg" xmlns:xlink="http://www.w3.org/1999/xlink" x="0px" y="0px"
	 width="64px" height="64px" viewBox="0 0 64 64" enable-background="new 0 0 64 64" xml:space="preserve">
<path fill="#EA8800" d="M14.428,32.148c-10.19,2.376-5.141,14.921-4.774,19.983C22.666,45.177,14.428,32.148,14.428,32.148z"/>
<path fill="#EA8800" d="M49.571,32.131c0,0-8.236,13.029,4.778,19.983C54.714,47.054,59.763,34.508,49.571,32.131z"/>
<path fill="#F5BC2C" d="M8.634,32.556c-9.107-1.179-3.174,17.105,3.957,12.063C15.896,42.28,12.896,33.108,8.634,32.556z"/>
<path fill="#F5BC2C" d="M55.366,32.556c-4.262,0.552-7.263,9.724-3.957,12.063C58.542,49.66,64.472,31.377,55.366,32.556z"/>
<path fill="#FDCA47" d="M55.07,30.977c0-15.339-9.06-11.925-23.07-11.925c-14.008,0-23.069-3.414-23.069,11.925
	c0,0,0.05,5.844,1.543,13.521C12.919,57.066,23.072,62,32,62c8.929,0,19.083-4.934,21.527-17.502
	C55.02,36.817,55.07,30.977,55.07,30.977z"/>
<path fill="#F5F5F5" d="M50.5,36.763c-2.408,6.271-12.205,5.352-14,0.965C37.863,30.677,49.176,30.074,50.5,36.763z"/>
<path fill="#45332C" d="M39,36.093c0,5.533,8,5.533,8,0C47,30.958,39,30.958,39,36.093z"/>
<path fill="#45332C" d="M50.5,36.716c0-6.734-14-6.734-14,1.066C38.5,31.382,48.5,31.382,50.5,36.716z"/>
<path fill="#F5F5F5" d="M13.5,36.763c2.409,6.271,12.206,5.352,14,0.965C26.137,30.677,14.826,30.074,13.5,36.763z"/>
<path fill="#45332C" d="M25,36.093c0,5.533-8,5.533-8,0C17,30.958,25,30.958,25,36.093z"/>
<path fill="#45332C" d="M13.5,36.716c0-6.732,14-6.732,14,1.064C25.501,31.382,15.5,31.382,13.5,36.716z"/>
<path fill="#F5F5F5" d="M39.492,34.749c0,1.383,2,1.383,2,0C41.492,33.466,39.492,33.466,39.492,34.749z"/>
<path fill="#F5F5F5" d="M19.742,34.468c0,1.383-2,1.383-2,0C17.742,33.185,19.742,33.185,19.742,34.468z"/>
<path fill="#D99025" d="M32,50.58c-4.028-1.069-10,0.506-10,0.506c2.275,2.229,3.942,5.121,10,5.121c6.945,0,8.121-3.284,10-5.121
	C42,51.086,36.022,49.508,32,50.58z"/>
<path fill="#FFFFFF" d="M23.407,51.167c4.279,3.979,12.933,4.004,17.241,0C36.08,51.384,28.004,51.386,23.407,51.167z"/>
<path fill="#E6A400" d="M49.967,30.921c-4.298-1.771-10.179-2.115-13.198-0.936c-0.639,0.249-0.619,1.775-0.055,1.622
	c4.33-1.18,9.314-1.271,13.414,0.157C50.679,31.957,50.612,31.187,49.967,30.921z"/>
<path fill="#E6A400" d="M14.033,30.921c4.297-1.771,10.178-2.115,13.198-0.936c0.639,0.249,0.618,1.775,0.055,1.622
	c-4.33-1.18-9.314-1.271-13.414,0.157C13.321,31.957,13.387,31.187,14.033,30.921z"/>
<path fill="#E6A400" d="M37,45.802c0,3.254-10,3.254-10,0C27,45.056,37,45.056,37,45.802z"/>
<path fill="#EA8800" d="M13.5,10.065C3.701,16.36,4.973,27.359,6.662,36.973C13.731,21.189,13.679,17.5,13.5,10.065z"/>
<path fill="#D67C00" d="M6.662,36.973c5.955-18.3,3.671-22.208,6.838-26.908C13.679,17.5,15.544,22.84,6.662,36.973z"/>
<path fill="#EA8800" d="M13.5,10.065c26.677,15.576,36.591,8.211,43.205,26.372C63.911,4.252,27.5-7.31,13.5,10.065z"/>
<path fill="#D67C00" d="M13.5,10.065c26.677,15.576,35.909,8.45,43.205,26.372C59.608,22.275,31.072,11.303,13.5,10.065z"/>
<path fill="#EA8800" d="M13.5,10.065c5.202,10.782,27.17,16.987,35.134,17.294C42.099,19.854,40.958,5.252,13.5,10.065z"/>
<path fill="#D67C00" d="M48.634,27.359c-6.535-7.505-26.483-7.168-35.134-17.294C18.702,20.847,39.746,27.359,48.634,27.359z"/>
<path fill="#EA8800" d="M13.5,10.065C5.342,21.932,22,26.047,29.352,26.339C23.346,20.699,20.782,10.464,13.5,10.065z"/>
<path fill="#D67C00" d="M29.352,26.339C21.078,20.78,8.246,21.369,13.5,10.065C5.342,21.932,21.492,26.629,29.352,26.339z"/>
</svg>
