<?xml version="1.0" encoding="utf-8"?>
<!-- Generator: Adobe Illustrator 15.0.0, SVG Export Plug-In . SVG Version: 6.00 Build 0)  -->
<!DOCTYPE svg PUBLIC "-//W3C//DTD SVG 1.1//EN" "http://www.w3.org/Graphics/SVG/1.1/DTD/svg11.dtd">
<svg version="1.1" id="Layer_1" xmlns="http://www.w3.org/2000/svg" xmlns:xlink="http://www.w3.org/1999/xlink" x="0px" y="0px"
	 width="64px" height="64px" viewBox="0 0 64 64" enable-background="new 0 0 64 64" xml:space="preserve">
<path opacity="0.2" fill="#A6AEB0" d="M62,62H2.001V30C26.666,42.615,41.115,18.645,62,30V62z"/>
<path fill="#FDCA47" d="M52.623,52.552c-2.328-1.31-11.582-4.616-12.734-5.026v-5.124H24.113v5.153c-1.43,0.51-10.38,3.72-12.678,5
	C7.807,54.573,7,62,7,62h50C57,62,56.24,54.58,52.623,52.552z"/>
<path opacity="0.4" fill="#A6AEB0" d="M60.566,7.733C58.16,5.462,59.842,2,59.842,2s-4.93,4.537-1.803,7.646
	c3.609,3.583,1.803,5.735,1.803,5.735S64.172,11.438,60.566,7.733"/>
<path opacity="0.4" fill="#A6AEB0" d="M4.822,7.56C2.938,5.768,4.248,3,4.248,3S0.313,6.584,2.856,9.107
	c2.869,2.851,1.392,4.642,1.392,4.642S7.775,10.491,4.822,7.56"/>
<path opacity="0.2" fill="#A6AEB0" d="M6.322,20.605c-1.885-1.792-0.572-4.56-0.572-4.56s-3.935,3.584-1.393,6.107
	c2.869,2.851,1.393,4.642,1.393,4.642S9.275,23.537,6.322,20.605"/>
<path opacity="0.6" fill="#A6AEB0" d="M9.033,12.266c-1.414-1.345-0.43-3.42-0.43-3.42s-2.951,2.688-1.045,4.58
	c2.152,2.138,1.045,3.481,1.045,3.481S11.248,14.464,9.033,12.266"/>
<path opacity="0.2" fill="#A6AEB0" d="M12.617,7.182c-1.414-1.345-0.43-3.42-0.43-3.42s-2.951,2.688-1.045,4.58
	c2.152,2.138,1.045,3.481,1.045,3.481S14.832,9.38,12.617,7.182"/>
<path opacity="0.6" fill="#A6AEB0" d="M51.449,6.42C50.035,5.075,51.02,3,51.02,3s-2.951,2.688-1.045,4.58
	c2.152,2.138,1.045,3.481,1.045,3.481S53.664,8.618,51.449,6.42"/>
<path opacity="0.4" fill="#A6AEB0" d="M61.115,23.962c-1.414-1.345-0.43-3.42-0.43-3.42s-2.951,2.688-1.045,4.58
	c2.152,2.138,1.045,3.481,1.045,3.481S63.33,26.16,61.115,23.962"/>
<path opacity="0.2" fill="#A6AEB0" d="M57.465,15.349c-1.912-1.803-0.574-4.552-0.574-4.552s-3.916,3.603-1.432,6.071
	c2.863,2.845,1.432,4.553,1.432,4.553S60.328,18.291,57.465,15.349"/>
<path fill="#A0D8E9" d="M22.693,62H50c0,0-0.34-5.057-4.267-5C21.058,57.342,22.693,62,22.693,62z"/>
<path fill="#CAE8F0" d="M34.063,57.492C21.381,57.463,23.178,57.015,18.269,57C14.337,56.985,14,62,14,62h27.308
	C41.309,62,40.395,57.507,34.063,57.492z"/>
<path fill="#EA8800" d="M32,2C12.893,2,12.886,13.5,12.886,27.875h38.227C51.113,13.5,51.107,2,32,2z"/>
<path fill="#F5BC2C" d="M16.681,33.466c2.07-1.928,0.192-9.489-2.478-9.944C8.498,22.55,12.215,37.623,16.681,33.466z"/>
<path fill="#F5BC2C" d="M47.319,33.466c-2.071-1.928-0.192-9.489,2.478-9.944C55.501,22.55,51.786,37.622,47.319,33.466z"/>
<path fill="#FDCA47" d="M32.001,9.667c-19.964,0-11.92,2.313-17.25,14.039c0,0,0.038,5.378,1.155,11.146
	C17.344,42.291,25.713,48,32.001,48s14.656-5.709,16.095-13.147c1.117-5.769,1.155-11.146,1.155-11.146
	C43.921,11.98,51.965,9.667,32.001,9.667z"/>
<path fill="#F5F5F5" d="M46.184,25.4c-1.846,4.809-9.357,4.103-10.733,0.739C36.496,20.734,45.168,20.271,46.184,25.4z"/>
<path fill="#45332C" d="M37.367,24.887c0,4.242,6.133,4.242,6.133,0C43.5,20.949,37.367,20.949,37.367,24.887z"/>
<path fill="#45332C" d="M46.184,25.365c0-5.164-10.733-5.164-10.733,0.816C36.983,21.275,44.65,21.275,46.184,25.365z"/>
<path fill="#F5F5F5" d="M17.816,25.4c1.847,4.809,9.358,4.103,10.733,0.739C27.505,20.734,18.833,20.271,17.816,25.4z"/>
<path fill="#45332C" d="M26.633,24.887c0,4.242-6.133,4.242-6.133,0C20.5,20.95,26.633,20.95,26.633,24.887z"/>
<path fill="#45332C" d="M17.816,25.365c0-5.163,10.733-5.163,10.733,0.815C27.018,21.275,19.35,21.275,17.816,25.365z"/>
<path fill="#F5F5F5" d="M37.744,23.856c0,1.061,1.533,1.061,1.533,0C39.277,22.872,37.744,22.872,37.744,23.856z"/>
<path fill="#F5F5F5" d="M22.603,23.642c0,1.06-1.534,1.06-1.534,0C21.068,22.657,22.603,22.657,22.603,23.642z"/>
<path fill="#D99025" d="M32,37.527c-3.088-0.82-7.667,0.389-7.667,0.389c1.744,1.708,3.022,3.926,7.667,3.926
	c5.324,0,6.226-2.519,7.666-3.926C39.666,37.916,35.084,36.705,32,37.527z"/>
<path fill="#FFFFFF" d="M25.412,37.977c3.281,3.05,9.916,3.069,13.218,0C35.129,38.143,28.938,38.144,25.412,37.977z"/>
<path fill="#E6A400" d="M45.775,20.651c-3.295-1.358-7.805-1.623-10.12-0.718c-0.488,0.191-0.474,1.361-0.041,1.244
	c3.319-0.905,7.141-0.975,10.284,0.119C46.32,21.444,46.27,20.854,45.775,20.651z"/>
<path fill="#E6A400" d="M18.226,20.651c3.294-1.358,7.803-1.623,10.119-0.718c0.489,0.191,0.474,1.361,0.042,1.244
	c-3.32-0.905-7.142-0.976-10.285,0.119C17.68,21.444,17.73,20.854,18.226,20.651z"/>
<path fill="#EA8800" d="M47.264,7.907c7.12,9.765-25.929,7.216-32.802,5.791C14.461,13.698,24.557-0.071,47.264,7.907z"/>
<path fill="#D67C00" d="M14.461,13.698c9.872,2.078,40.058,1.79,30.558-8.507C60.509,17.549,22.82,18.651,14.461,13.698z"/>
<path fill="#E6A400" d="M35.834,32.757c0,2.494-7.668,2.494-7.668,0C28.166,32.185,35.834,32.185,35.834,32.757z"/>
<path opacity="0.2" fill="#A6AEB0" d="M62,62H2.001V44C26.031,33.377,39.939,55.593,62,44V62z"/>
</svg>
