<?xml version="1.0" encoding="utf-8"?>
<!-- Generator: Adobe Illustrator 15.0.0, SVG Export Plug-In . SVG Version: 6.00 Build 0)  -->
<!DOCTYPE svg PUBLIC "-//W3C//DTD SVG 1.1//EN" "http://www.w3.org/Graphics/SVG/1.1/DTD/svg11.dtd">
<svg version="1.1" id="Layer_1" xmlns="http://www.w3.org/2000/svg" xmlns:xlink="http://www.w3.org/1999/xlink" x="0px" y="0px"
	 width="64px" height="64px" viewBox="0 0 64 64" enable-background="new 0 0 64 64" xml:space="preserve">
<path fill="#4E5E67" d="M4.009,49.326c-5.045-3.268,3.568-7.278,11.34-4.685C9.304,44.089,6.983,51.253,4.009,49.326z"/>
<path fill="#302C3B" d="M46.215,12.081c-0.506,0.335-4.146-0.218-4.357-0.806C40.895,8.579,48.143,10.802,46.215,12.081z"/>
<path fill="#B00505" d="M15.1,37.507C9.281,42.022,1.691,44.924,2.25,46.892c0.728,2.563-1.696-2.883,10.001-2.429
	C22.675,44.867,42.1,65.854,55.827,43.32C43.463,28.523,19.963,27.37,15.1,37.507z"/>
<path fill="#E81C27" d="M15.1,37.507c16.955-7.253,32.363,5.813,45.91,7.015C70.131,1.955,13.221,0.097,15.1,37.507z"/>
<path fill="#C21413" d="M55.68,43.56c2.814-14.765-0.992-27.704-10.709-31.803C54.199,16.652,57.1,28.539,55.68,43.56z"/>
<path fill="#F46C60" d="M55.1,43.012c1.787-14.954-2.359-27.542-10.943-31.378C52.638,16.251,56.247,28.022,55.1,43.012z"/>
<path fill="#302C3B" d="M12.494,43.113c-6.153-0.779-14.333,3.074-8.484,6.213c-3.242-2.883,0.886-4.708,7.704-4.396
	c7.572,0.347,24.114,14.295,35.842,6.923C33.1,57.494,24.777,44.665,12.494,43.113z"/>
<path fill="#C21413" d="M8.955,41.828c15.998-2.016,30.176,21.879,45.664,1.412C38.721,62.987,25.153,39.061,8.955,41.828z"/>
<path fill="#C21413" d="M11.167,40.766c15.02-1.896,28.388,19.065,42.053,2.048C39.039,59.031,26.375,38.161,11.167,40.766z"/>
<path fill="#C21413" d="M14.02,39.825c13.634-1.756,25.081,15.618,37.662,2.482C38.402,54.804,27.823,37.413,14.02,39.825z"/>
<path fill="#F46C60" d="M15.1,36.576c17.094-7.077,32.363,6.039,45.91,7.24C45.131,41.063,32.434,29.276,15.1,36.576z"/>
<path fill="#FDCA47" d="M29.89,18.469c3.813-0.134,7.05,2.998,6.706,7.011c-0.344,4.014-4.066,6.55-7.801,5.77
	c-3.268-0.682-5.414-3.729-5.144-6.877C23.92,21.223,26.553,18.584,29.89,18.469z"/>
<path fill="#E81C27" d="M27.187,22.54c0.544,0.023,0.954,0.509,0.905,1.082c-0.049,0.574-0.537,1.001-1.08,0.955
	c-0.53-0.044-0.915-0.526-0.867-1.079C26.192,22.946,26.655,22.516,27.187,22.54z"/>
<path fill="#E81C27" d="M32.105,22.753c0.655,0.028,1.153,0.563,1.1,1.194c-0.054,0.63-0.638,1.094-1.291,1.041
	c-0.639-0.055-1.104-0.587-1.051-1.189C30.914,23.193,31.465,22.726,32.105,22.753z"/>
<path fill="#E81C27" d="M32.001,26.958c-1.948,1.007-3.851,0.728-5.349-0.638c-0.174-0.16-0.36,0.057-0.254,0.291
	c0.401,0.884,1.316,1.771,2.625,1.978c1.377,0.216,2.574-0.411,3.229-1.241C32.43,27.122,32.244,26.833,32.001,26.958z"/>
</svg>
