<?xml version="1.0" encoding="utf-8"?>
<!-- Generator: Adobe Illustrator 15.0.0, SVG Export Plug-In . SVG Version: 6.00 Build 0)  -->
<!DOCTYPE svg PUBLIC "-//W3C//DTD SVG 1.1//EN" "http://www.w3.org/Graphics/SVG/1.1/DTD/svg11.dtd">
<svg version="1.1" id="Layer_1" xmlns="http://www.w3.org/2000/svg" xmlns:xlink="http://www.w3.org/1999/xlink" x="0px" y="0px"
	 width="64px" height="64px" viewBox="0 0 64 64" enable-background="new 0 0 64 64" xml:space="preserve">
<path fill="#302C3B" d="M34.061,21.106c2.285,2.155,1.072,2.307,2.893,2.682L36.646,7.2c-0.063-3.397,4.869-3.487,4.932-0.048
	l0.244,13.217c0.119-0.011,0.238-0.021,0.363-0.029l2.49-14.158c0.605-3.455,5.748-2.546,5.141,0.909L47.43,20.663
	c0.213,0.039,0.438,0.09,0.656,0.135l3.416-12.198c0.93-3.309,5.818-1.937,4.893,1.373l-3.443,12.293
	c0.146,0.063,0.305,0.135,0.473,0.216l4.082-9.424c1.301-3.001,5.551-1.16,4.25,1.843c0,0-4.428,9.071-5.039,11.639
	c-0.26,1.085-0.529,7.131-2.904,10.687C49.9,43.079,35.25,42.214,32.625,30.61c-0.523-2.308-2.418-5.438-3.699-7.739
	C25.522,19.176,30.416,17.547,34.061,21.106z"/>
<path fill="#4E5E67" d="M35.16,44.512c1.238,1.775,13.586,3.928,15.32,2.71c1.754-1.232,2.092-5.646,2.111-8.648
	c0,0-10.203-2.868-16.811-1.908C34.881,39.418,34.068,42.951,35.16,44.512z"/>
<path opacity="0.5" fill="#1A1626" d="M50.203,46.844c0,0-7.934-3.252-14.541-2.292C38.629,46.272,48.746,47.688,50.203,46.844z"/>
<path opacity="0.3" fill="#1A1626" d="M37.77,7.202l-0.816,16.586L36.645,7.202c-0.035-1.974,1.611-2.823,3.012-2.521
	C38.629,4.908,37.744,5.75,37.77,7.202z"/>
<path opacity="0.3" fill="#1A1626" d="M45.799,6.183l-3.613,14.158l2.488-14.158c0.309-1.758,1.791-2.381,3.094-2.119
	C46.842,4.253,46.02,4.926,45.799,6.183z"/>
<path opacity="0.3" fill="#1A1626" d="M52.627,8.601l-4.543,12.198l3.418-12.198c0.441-1.572,1.775-2.078,2.955-1.83
	C53.652,6.95,52.93,7.523,52.627,8.601z"/>
<path opacity="0.3" fill="#1A1626" d="M58.629,13.059l-5.205,9.424l4.08-9.424c0.578-1.332,1.734-1.707,2.73-1.453
	C59.594,11.767,58.994,12.216,58.629,13.059z"/>
<path opacity="0.3" fill="#1A1626" d="M30.386,19.177c-1.564,0.26-2.211,1.661-0.338,3.695c1.281,2.301,3.176,5.432,3.7,7.739
	c0.568,2.506,3.071,5.935,3.071,5.935c-0.9,2.753-1.626,6.406-0.536,7.967c0.939,1.348,8.281,2.911,12.521,3.054
	c-3.9,0.16-12.615-1.576-13.646-3.054c-1.09-1.561-0.279-5.094,0.621-7.847h0.002c-1.461-1.545-2.59-3.549-3.159-6.055
	c-0.523-2.308-2.418-5.438-3.699-7.739C26.646,20.399,28.091,18.862,30.386,19.177z"/>
<path fill="#302C3B" d="M29.941,33.527c-2.287,2.155-1.072,2.307-2.893,2.682l0.307-16.587c0.061-3.397-4.87-3.487-4.932-0.048
	l-0.244,13.217c-0.12-0.011-0.239-0.021-0.364-0.029l-2.489-14.158c-0.606-3.455-5.748-2.546-5.142,0.909l2.387,13.572
	c-0.213,0.039-0.438,0.09-0.655,0.135l-3.417-12.198c-0.93-3.309-5.817-1.937-4.893,1.373l3.444,12.292
	c-0.147,0.063-0.306,0.135-0.474,0.216l-4.081-9.423c-1.302-3.001-5.55-1.16-4.25,1.843c0,0,4.427,9.071,5.04,11.638
	c0.26,1.085,0.528,7.132,2.904,10.688c3.911,5.854,18.561,4.988,21.188-6.616c0.523-2.308,2.417-5.438,3.7-7.739
	C38.479,31.598,33.586,29.969,29.941,33.527z"/>
<path fill="#4E5E67" d="M28.841,56.934c-1.238,1.775-13.586,3.928-15.321,2.71c-1.754-1.232-2.093-5.646-2.111-8.648
	c0,0,10.202-2.868,16.811-1.908C29.119,51.84,29.931,55.373,28.841,56.934z"/>
<path opacity="0.5" fill="#1A1626" d="M13.798,59.266c0,0,7.934-3.252,14.542-2.292C25.372,58.694,15.254,60.109,13.798,59.266z"/>
<path opacity="0.3" fill="#1A1626" d="M26.231,19.624l0.817,16.585l0.309-16.585c0.035-1.974-1.613-2.823-3.013-2.521
	C25.371,17.33,26.257,18.172,26.231,19.624z"/>
<path opacity="0.3" fill="#1A1626" d="M18.201,18.605l3.614,14.158l-2.489-14.158c-0.309-1.758-1.79-2.381-3.093-2.119
	C17.159,16.675,17.98,17.348,18.201,18.605z"/>
<path opacity="0.3" fill="#1A1626" d="M11.374,21.023l4.542,12.198l-3.417-12.198c-0.441-1.572-1.775-2.078-2.956-1.83
	C10.348,19.372,11.071,19.945,11.374,21.023z"/>
<path opacity="0.3" fill="#1A1626" d="M5.371,25.481l5.206,9.423l-4.081-9.423c-0.577-1.332-1.734-1.707-2.73-1.453
	C4.408,24.189,5.006,24.638,5.371,25.481z"/>
<path opacity="0.3" fill="#1A1626" d="M33.615,31.599c1.563,0.26,2.209,1.661,0.336,3.695c-1.282,2.301-3.174,5.432-3.7,7.739
	c-0.566,2.507-3.07,5.936-3.07,5.936c0.9,2.753,1.627,6.406,0.537,7.967c-0.941,1.348-8.282,2.911-12.522,3.054
	c3.899,0.16,12.616-1.576,13.647-3.054c1.09-1.561,0.277-5.094-0.623-7.847l0,0c1.459-1.545,2.59-3.549,3.156-6.056
	c0.525-2.308,2.418-5.438,3.7-7.739C37.355,32.821,35.91,31.284,33.615,31.599z"/>
</svg>
