<?xml version="1.0" encoding="utf-8"?>
<!-- Generator: Adobe Illustrator 15.0.0, SVG Export Plug-In . SVG Version: 6.00 Build 0)  -->
<!DOCTYPE svg PUBLIC "-//W3C//DTD SVG 1.1//EN" "http://www.w3.org/Graphics/SVG/1.1/DTD/svg11.dtd">
<svg version="1.1" id="Layer_1" xmlns="http://www.w3.org/2000/svg" xmlns:xlink="http://www.w3.org/1999/xlink" x="0px" y="0px"
	 width="64px" height="64px" viewBox="0 0 64 64" enable-background="new 0 0 64 64" xml:space="preserve">
<path fill="#995143" d="M29.469,49.113C30.89,55.391,43.593,56.115,44.891,62h5.572c-1.881-2.789-1.685-6.465-1.23-10.32
	C40.549,45.752,33.263,46.729,29.469,49.113z"/>
<path fill="#AD5B4C" d="M34.6,47.115c1.972,7.863,20.947,14.115,22.696-0.709C48.612,40.477,38.394,44.73,34.6,47.115z"/>
<path fill="#F89987" d="M15.079,40.627C-0.122,47.809-5.64,21.703,18.306,12.679c5.01-4.469,17.408-2.365,18.682-0.701
	c10.7-1.227,14.945,7.096,14.945,7.096c8.407,2.453,7.982,11.768,7.982,11.768c5.095,8.499,0.34,21.7-9.766,15.655
	c0,0-8.406-1.141-13.842,2.014C27.35,53.711,16.607,53.438,15.079,40.627z"/>
<path fill-rule="evenodd" clip-rule="evenodd" fill="#FFBEAD" d="M5.521,33.842c0.905,2.842-0.043-9.536,11.169-16.952
	C20.798,14.173,0.709,18.736,5.521,33.842z"/>
<path fill-rule="evenodd" clip-rule="evenodd" fill="#FFBEAD" d="M28.06,25.48c0.551,1.201-0.529-4.174,3.985-7.98
	C33.698,16.105,25.144,19.101,28.06,25.48z"/>
<path fill-rule="evenodd" clip-rule="evenodd" fill="#FFBEAD" d="M51.754,20.747c-1.634-0.087,4.652,2.001,5.15,10.02
	C57.086,33.705,60.439,21.193,51.754,20.747z"/>
<path fill-rule="evenodd" clip-rule="evenodd" fill="#FFBEAD" d="M58.729,33.992c-1.086-1.225,1.843,4.717-3.513,10.703
	C53.254,46.889,64.513,40.49,58.729,33.992z"/>
<path fill-rule="evenodd" clip-rule="evenodd" fill="#FFBEAD" d="M49.085,31.569c-0.07-1.654-1.375,5.144-8.505,7.613
	C37.967,40.088,49.462,40.363,49.085,31.569z"/>
<path fill-rule="evenodd" clip-rule="evenodd" fill="#FFBEAD" d="M18.202,43.813c0.433,2.943-1.18-4.33,11.922-7.77
	C34.927,34.783,16.896,34.955,18.202,43.813z"/>
<path fill="#C96F5E" d="M15.079,40.627C4.389,45.678-1.512,34.27,4.256,23.908c-6.114,18.639,9.286,21.278,17.882,9.36
	c1.564,1.668,12.712-3.431,12.294-5.536c1.012,3.107,5.533,0.866,7.344-2.049c0.487,6.262-16.802,6.473-25.087,14.399
	c0.712,14.998,15.569,10.979,18.161,6.879c9.512-3.354,13.28-1.525,15.612-2.963c2.421,5,14.548,2.688,9.452-13.157
	c5.095,8.499,0.46,21.971-9.646,15.926c0,0-8.519-1.111-13.954,2.043C27.357,54.012,16.607,53.438,15.079,40.627z"/>
<path fill="#C96F5E" d="M30.086,26.816c-0.1-7.113,7.031-9.588,6.901-14.838C35.632,17.798,27.139,19.806,30.086,26.816z"/>
<path fill="#C96F5E" d="M14.335,22.476l0.674-0.092c-2.422-4.797,3.086-4.658,3.297-9.705
	C16.671,17.138,11.649,17.587,14.335,22.476z"/>
<path fill="#C96F5E" d="M7.306,25.535c4.498-5.662,6.207-0.178,11.56-3.545C13.698,23.492,10.501,19,7.306,25.535z"/>
<path fill="#C96F5E" d="M35.573,22.684l0.988,0.284c3.98-6.992,7.022-0.74,13.212-4.572C43.427,20.211,39.501,14.78,35.573,22.684z"
	/>
<path fill="#C96F5E" d="M13.085,41.105l-0.046-0.836c-6.528-1.137-2.478-5.191-7.142-8.892C9.032,35.754,5.86,40.264,13.085,41.105z
	"/>
<path fill="#C96F5E" d="M25.751,34.014l-0.263-0.734c-5.478,1.654-3.362-3.656-8.058-5.075C21.095,30.857,19.8,36.217,25.751,34.014
	z"/>
<path fill="#C96F5E" d="M59.915,30.841c-4.955,4.292-8.289-1.652-13.117-0.945l-0.216,0.727
	C51.929,30.132,55.604,36.656,59.915,30.841z"/>
<path fill="#C96F5E" d="M47.061,26.281c-1.611,3.822,0.344,6.107-4.424,8.268c-6.179,2.803-15.398,2.113-20.498,7.332l0.509,0.666
	c5.602-4.752,15.048-4.51,20.822-7.33C48.421,32.8,46.586,29.91,47.061,26.281z"/>
<path fill="#C96F5E" d="M13.083,32.702c1.17-7.93,6.985-4.893,10.476-8.377l-0.162-0.998c-4.462,3.769-10.043,0.433-11.137,9.108
	L13.083,32.702z"/>
<path fill="#C96F5E" d="M29.852,13.398l-0.563-0.182c-0.225,5.895-4.198,3.764-6.442,7.094v0.982
	C25.962,17.613,29.974,19.587,29.852,13.398z"/>
<path fill="#C96F5E" d="M44.489,19.078l-0.142,0.684c6.563-0.318,4.649,4.574,8.594,6.895l1.091-0.1
	C49.601,23.248,51.339,18.327,44.489,19.078z"/>
<path fill="#C96F5E" d="M28.249,28.195c0,0-3.146-2.66-4.253,1.623C25.776,27.558,28.249,28.195,28.249,28.195z"/>
<path fill="#C96F5E" d="M38.224,25.66c0,0,0.078-5.078-4.762-2.934C36.931,22.764,38.224,25.66,38.224,25.66z"/>
<path fill="#C96F5E" d="M55.587,24.903c0,0-4.651,0.435-2.16,4.854C53.079,26.431,55.587,24.903,55.587,24.903z"/>
<path fill="#C96F5E" d="M28.308,11.619c0,0,0.359,3.732,3.682,1.746C29.479,13.634,28.308,11.619,28.308,11.619z"/>
<path fill="#C96F5E" d="M15.063,34.955c0,0-1.225-5.112-4.877-1.496C13.204,32.445,15.063,34.955,15.063,34.955z"/>
<path fill="#C96F5E" d="M22.438,44.617c0,0,2.15-3.564-2.109-4.141C22.731,42.004,22.438,44.617,22.438,44.617z"/>
<path fill="#C96F5E" d="M33.499,37.598c0.273-1.135,2.512-0.074,2.248,4.193C34.711,38.426,33.225,38.734,33.499,37.598z"/>
<path fill="#C96F5E" d="M35.556,47.621c-0.342,1.295-2.883,0.02-2.471-4.865C34.188,46.641,35.899,46.324,35.556,47.621z"/>
<path fill="#C96F5E" d="M49.865,45.43c-1.262-0.443,0.21-2.875,5.045-2.076C50.951,44.145,51.131,45.877,49.865,45.43z"/>
<path fill="#C96F5E" d="M33.419,30.011c0.514,1.16,2.701-0.441,1.59-4.948C34.554,28.875,32.904,28.854,33.419,30.011z"/>
<path fill="#C96F5E" d="M17.103,15.244l-0.413,0.969c7.232,1.154,5.241,8.072,8.187,12.238l0.77-0.492
	C22.423,22.744,24.87,16.755,17.103,15.244z"/>
<path fill="#C96F5E" d="M49.185,41.162c4.749-4.225,7.319,0.926,11.49,0.748l0.381-0.707c-4.993-0.193-7.251-5.396-12.314-0.67
	L49.185,41.162z"/>
<path fill="#C96F5E" d="M49.457,43.666c0,0,1.674-3.838-2.677-3.672C49.397,41.072,49.457,43.666,49.457,43.666z"/>
<path fill="#C96F5E" d="M26.329,43.824c4.501,3.002-1.899,4.486-2.031,7.123l1.025,0.383C25.751,49.008,32.001,46.041,26.329,43.824
	z"/>
<path fill="#C96F5E" d="M43.622,34.416l-0.586,0.473c3.53,3.943-2.174,4.051-1.783,8.418C42.385,39.357,47.837,38.559,43.622,34.416
	z"/>
<path fill="#C96F5E" d="M38.44,14.804c3.578-1.264,5.723,2.063,9.371,0.858C44.639,15.969,42.663,11.905,38.44,14.804z"/>
</svg>
