<?xml version="1.0" encoding="utf-8"?>
<!-- Generator: Adobe Illustrator 15.0.0, SVG Export Plug-In . SVG Version: 6.00 Build 0)  -->
<!DOCTYPE svg PUBLIC "-//W3C//DTD SVG 1.1//EN" "http://www.w3.org/Graphics/SVG/1.1/DTD/svg11.dtd">
<svg version="1.1" id="Layer_1" xmlns="http://www.w3.org/2000/svg" xmlns:xlink="http://www.w3.org/1999/xlink" x="0px" y="0px"
	 width="64px" height="64px" viewBox="0 0 64 64" enable-background="new 0 0 64 64" xml:space="preserve">
<path fill="#014D87" d="M34.553,16.859c0.897,6.125-0.021,12.146,0.762,17.768L29.77,47.958c-6.64,3.119-8.121,8.026-12.272,11.898
	c0,0-9.397-1.977-11.643-9.884c7.915-12.856,13.551-11.074,13.553-33.113C26.249,14.209,34.553,16.859,34.553,16.859z"/>
<path fill="#93E67F" d="M27.665,37.681c2.015-1.209,5.142-2.756,7.649-3.054c1.124,6.441,1.985,9.179-5.545,13.331
	C27.598,45.636,27.287,41.032,27.665,37.681z"/>
<path fill="#93E67F" d="M10.234,61.945c-6.915-0.633-7.604-6.665-4.38-11.973c4.307,1.851,9.487,6.653,11.643,9.884
	C15.698,61.322,13.441,62.238,10.234,61.945z"/>
<path fill="#93E67F" d="M19.165,11.555l15.388,0.004c0,0,0.326,2.647,0,5.301H19.407C18.88,14.782,19.165,11.555,19.165,11.555z"/>
<path opacity="0.3" fill="#1A1626" d="M7.271,60.318c3.21,0.296,5.464-0.62,7.266-2.086c4.15-3.869,5.631-8.779,12.272-11.898
	c7.528-4.152,6.008-6.809,5.544-13.331c-1.009-14.164,0.614-15.502-2.49-16.146c1.434-0.358,2.629,0.935,1.85-5.298h2.84
	c0,0,0.326,2.647,0,5.301c0.897,6.125-0.021,12.146,0.762,17.768c1.124,6.441,1.985,9.179-5.545,13.331
	c-6.64,3.119-8.121,8.026-12.272,11.898c-1.799,1.466-4.056,2.382-7.263,2.089c-2.12-0.196-3.587-0.934-4.604-1.964
	C6.147,60.116,6.656,60.265,7.271,60.318z"/>
<path fill="#014D87" d="M46.119,6.591c3.839,4.856,6.056,10.531,9.544,15.006l1.863,14.316c-4.189,6.026-3.018,11.015-4.679,16.441
	c0,0-9.127,2.988-15.022-2.734c0.426-15.092,6.197-16.366-4.823-35.456C37.604,8.447,46.119,6.591,46.119,6.591z"/>
<path fill="#93E67F" d="M50.567,28.068c1.14-2.054,3.076-4.955,5.096-6.472c4.193,5.018,6.31,6.958,1.863,14.316
	C54.486,34.99,51.913,31.158,50.567,28.068z"/>
<path fill="#93E67F" d="M47.602,57.797c-6.305,2.91-9.916-1.968-9.776-8.177c4.651-0.552,11.539,1.016,15.022,2.734
	C52.021,54.524,50.527,56.447,47.602,57.797z"/>
<path fill="#93E67F" d="M30.144,9.692L43.469,2c0,0,1.609,2.131,2.65,4.591l-13.117,7.573C31.508,12.63,30.144,9.692,30.144,9.692z"
	/>
<path opacity="0.3" fill="#1A1626" d="M44.226,57.871c2.925-1.353,4.419-3.271,5.246-5.441c1.661-5.427,0.489-10.418,4.679-16.442
	c4.446-7.357,1.799-8.898-1.865-14.315C44.333,9.913,45.07,7.943,42.06,8.935c1.062-1.024,2.74-0.505-1.051-5.514L43.469,2
	c0,0,1.609,2.131,2.65,4.591c3.839,4.856,6.056,10.531,9.544,15.006c4.193,5.018,6.31,6.958,1.863,14.316
	c-4.189,6.026-3.018,11.015-4.679,16.441c-0.827,2.17-2.32,4.093-5.246,5.442c-1.932,0.893-3.573,0.984-4.969,0.6
	C43.15,58.256,43.663,58.131,44.226,57.871z"/>
</svg>
