<?xml version="1.0" encoding="utf-8"?>
<!-- Generator: Adobe Illustrator 15.0.0, SVG Export Plug-In . SVG Version: 6.00 Build 0)  -->
<!DOCTYPE svg PUBLIC "-//W3C//DTD SVG 1.1//EN" "http://www.w3.org/Graphics/SVG/1.1/DTD/svg11.dtd">
<svg version="1.1" id="Layer_1" xmlns="http://www.w3.org/2000/svg" xmlns:xlink="http://www.w3.org/1999/xlink" x="0px" y="0px"
	 width="64px" height="64px" viewBox="0 0 64 64" enable-background="new 0 0 64 64" xml:space="preserve">
<path fill="#529320" d="M14.596,43.893c0,0,1.074-4.443,5.479-18.727c0,0-2.686-10.808-2.794-10.325
	c-1.396,3.474-6.66,16.309-10.313,28.181C6.967,43.021,9.015,45.627,14.596,43.893z"/>
<path fill="#A3C86B" d="M6.967,43.021C6.645,44.083,6.322,45.146,6,46.11c0,0,2.687,1.06,7.736,1.06c0,0,0.321-1.157,0.859-3.277
	C10.728,43.893,8.041,43.311,6.967,43.021z"/>
<path fill="#7AB51D" d="M17.174,16.866c-0.322-2.799,0.753-3.474,2.578-4.537c3.761-2.218,14.801,7.005,14.801,7.005L31.557,60.49
	c-12.505,0-20.723-4.149-19.97-5.597c2.579-4.635,8.917-14.671,7.413-29.728C19,25.166,17.603,21.016,17.174,16.866z"/>
<path fill="#A3C86B" d="M22.653,40.802l-4.727-1.447c-0.968,2.219-3.439,8.106-3.439,8.397c0.216,0.096,6.232,2.221,7.413-2.125
	L22.653,40.802z"/>
<path fill="#529320" d="M22.735,40.731l-5.22-1.641c-0.213,0.482-0.319,1.062-0.426,1.641c1.598,0.965,3.62,1.352,5.324,1.543
	L22.735,40.731z"/>
<path fill="#529320" d="M49.404,43.893c0,0-1.074-4.443-5.479-18.727c0,0-0.133-14.747,2.553-10.789
	c1.289,3.28,6.9,16.677,10.555,28.645C57.033,43.021,53.912,46.764,49.404,43.893z"/>
<path fill="#A3C86B" d="M57.033,43.021c0.322,1.062,0.645,2.124,0.967,3.089c0,0-2.688,1.06-7.736,1.06c0,0-0.322-1.157-0.859-3.277
	C53.271,43.893,55.959,43.311,57.033,43.021z"/>
<path fill="#529320" d="M28.349,23.57c0,2.219-0.542,33.376-1.793,36.692C46.91,63.275,33.849,19.331,28.349,23.57z"/>
<path fill="#7AB51D" d="M46.719,16.866c0.322-2.799-0.752-3.474-2.58-4.537c-3.76-2.218-15.216,1.085-15.216,11.029
	c0,2.219-0.561,30-0.668,36.563c0,0.867,0,1.641,0.969,1.833c12.677,1.641,23.833-5.413,22.974-6.86
	c-2.578-4.635-8.918-14.671-7.412-29.728C44.785,25.166,46.289,21.016,46.719,16.866z"/>
<path fill="#297124" d="M42.313,11.942c-2.818-5.047-15.068-7.528-20.131,1.04C22.073,13.081,34.2,19.046,34.2,19.046
	S39.369,15.103,42.313,11.942z"/>
<path fill="#92C932" d="M45.967,9.722C42.744,2.305,25.661-2.528,18.6,10.683c-0.967,0.576,3.838,2.515,4.054,2.42
	c8.966-7.006,14.174-3.673,18.692,0C41.563,13.197,46.934,10.302,45.967,9.722z"/>
<path fill="#529320" d="M41.289,13.339c0,0-0.266-6.898-9.183-6.898c-8.702,0-9.292,6.898-9.185,6.898
	C30.333,7.547,38.064,10.639,41.289,13.339z"/>
<path fill="#785647" d="M48.182,12.452C46.91,7.344,41.992,2,31.999,2C21.807,2,17.682,8.351,16.042,12.452
	c-0.528,1.32,6.925,0.905,6.869,1.25c-0.354,2.217-2.684,4.251-2.323,4.245c8.063-0.12,10.781,3.664,12.906,2.871
	c0,0,1.059-3.688-11.938-11.907c-0.463-0.294,2.493-5.848,10.442-5.848c8.81,0,11.925,5.073,10.869,5.848
	c-13.561,9.942-14.52,14.659-14.52,14.659c2.023-0.491,8.485-4.354,15.575-5.623c0.508-0.09-3.398-4.245-2.992-4.245
	C44.682,11.438,48.447,13.52,48.182,12.452z"/>
<path fill="#A3C86B" d="M41.346,40.802l4.727-1.447c0.969,2.219,3.439,8.106,3.439,8.397c-0.215,0.096-6.232,2.221-7.305-2.125
	L41.346,40.802z"/>
<path fill="#529320" d="M41.266,40.731l5.217-1.641c0.215,0.482,0.32,1.062,0.428,1.641c-1.598,0.965-3.621,1.352-5.324,1.543
	L41.266,40.731z"/>
<path fill="#785647" d="M31.365,28.388c0,2.766,4,2.766,4,0C35.365,25.82,31.365,25.82,31.365,28.388z"/>
<path fill="#594640" d="M32.115,28.415c0,1.729,2.5,1.729,2.5,0C34.615,26.811,32.115,26.811,32.115,28.415z"/>
<path fill="#785647" d="M31.365,36.721c0,2.766,4,2.766,4,0C35.365,34.153,31.365,34.153,31.365,36.721z"/>
<path fill="#594640" d="M32.115,36.748c0,1.729,2.5,1.729,2.5,0C34.615,35.144,32.115,35.144,32.115,36.748z"/>
<path fill="#785647" d="M31.365,45.055c0,2.766,4,2.766,4,0C35.365,42.487,31.365,42.487,31.365,45.055z"/>
<path fill="#594640" d="M32.115,45.082c0,1.729,2.5,1.729,2.5,0C34.615,43.478,32.115,43.478,32.115,45.082z"/>
<path fill="#785647" d="M31.365,53.388c0,2.766,4,2.766,4,0C35.365,50.82,31.365,50.82,31.365,53.388z"/>
<path fill="#594640" d="M32.115,53.415c0,1.729,2.5,1.729,2.5,0C34.615,51.811,32.115,51.811,32.115,53.415z"/>
</svg>
