<?xml version="1.0" encoding="utf-8"?>
<!-- Generator: Adobe Illustrator 15.0.0, SVG Export Plug-In . SVG Version: 6.00 Build 0)  -->
<!DOCTYPE svg PUBLIC "-//W3C//DTD SVG 1.1//EN" "http://www.w3.org/Graphics/SVG/1.1/DTD/svg11.dtd">
<svg version="1.1" id="Layer_1" xmlns="http://www.w3.org/2000/svg" xmlns:xlink="http://www.w3.org/1999/xlink" x="0px" y="0px"
	 width="64px" height="64px" viewBox="0 0 64 64" enable-background="new 0 0 64 64" xml:space="preserve">
<rect x="30" y="7" fill="#6E8189" width="4" height="6"/>
<path fill="#BEC3CF" d="M35,9h-6V6.172c0-1.563,6-1.563,6,0V9z"/>
<path fill="#99A8AE" d="M31,5.063c1.101,0.137,2,0.505,2,1.109V9h2V6.172C35,5.214,32.745,4.846,31,5.063z"/>
<path fill="#99A8AE" d="M56.6,4.633L39.99,21.254l2.77,2.77L59.369,7.402C61.213,5.555,58.447,2.785,56.6,4.633z"/>
<path fill="#6E8189" d="M58.498,4.117C58.678,4.719,58.598,5.402,58,6L41.393,22.621l1.383,1.385L59.385,7.387
	C60.635,6.137,59.76,4.494,58.498,4.117z"/>
<path fill="#99A8AE" d="M4.631,7.4L21.252,24.01l2.771-2.768L7.401,4.633C5.554,2.787,2.784,5.555,4.631,7.4z"/>
<path fill="#6E8189" d="M4.115,5.502C4.718,5.32,5.402,5.402,6,6l16.62,16.609l1.386-1.385L7.385,4.615
	C6.135,3.367,4.494,4.24,4.115,5.502z"/>
<path fill="#99A8AE" d="M9.804,58.166l7-12.123l5.196,3l-7,12.123C13.666,63.477,8.47,60.477,9.804,58.166z"/>
<path fill="#6E8189" d="M10.588,60.807c1.069,0.352,2.162,0.256,2.678-0.637l7-12.125l1.732,1l-7,12.125
	C14.18,62.588,11.915,62.002,10.588,60.807z"/>
<rect x="14.669" y="45.873" transform="matrix(0.8661 0.4999 -0.4999 0.8661 27.4641 -0.7702)" fill="#CFD8DD" width="1" height="10"/>
<path fill="#99A8AE" d="M49,61.168l-7-12.125l5.195-3l7,12.125C55.529,60.479,50.334,63.479,49,61.168z"/>
<path fill="#6E8189" d="M51.678,61.809c0.84-0.752,1.303-1.744,0.787-2.639l-7-12.123l1.732-1l7,12.123
	C55.016,59.588,53.377,61.256,51.678,61.809z"/>
<rect x="44.865" y="47.873" transform="matrix(0.8663 -0.4995 0.4995 0.8663 -20.3453 29.7281)" fill="#CFD8DD" width="1.001" height="10"/>
<circle fill="#E81C27" cx="32" cy="36" r="26"/>
<path fill="#F46C60" d="M33.445,11.73c1.883,0,3.717,0.203,5.488,0.588c-2.496-0.939-5.19-1.451-8-1.451
	c-11.814,0-21.581,9.043-23.199,20.801C10.984,20.148,21.261,11.73,33.445,11.73z"/>
<path fill="#B00505" d="M56.268,34.555c0-1.883-0.201-3.719-0.584-5.488c0.939,2.498,1.451,5.191,1.451,8
	c0,11.813-9.043,21.582-20.801,23.201C47.85,57.018,56.268,46.738,56.268,34.555z"/>
<circle fill="#302C3B" cx="32" cy="36" r="22"/>
<circle fill="#99A8AE" cx="32" cy="36" r="21"/>
<circle fill="#E6EBEF" cx="32" cy="36" r="20"/>
<ellipse transform="matrix(-0.8662 -0.4998 0.4998 -0.8662 18.2826 106.6268)" fill="#302C3B" cx="23.419" cy="50.865" rx="1.153" ry="1.17"/>
<ellipse transform="matrix(-0.8657 -0.5006 0.5006 -0.8657 65.1287 59.747)" fill="#302C3B" cx="40.58" cy="21.136" rx="1.153" ry="1.167"/>
<ellipse transform="matrix(-0.5003 -0.8659 0.8659 -0.5003 -12.8941 81.7225)" fill="#302C3B" cx="17.135" cy="44.582" rx="1.153" ry="1.172"/>
<path fill="#302C3B" d="M46.285,26.422c0.563-0.324,1.273-0.139,1.59,0.41c0.32,0.553,0.125,1.262-0.434,1.586
	c-0.563,0.324-1.271,0.137-1.592-0.414C45.531,27.453,45.727,26.744,46.285,26.422z"/>
<ellipse fill="#302C3B" cx="14.837" cy="36" rx="1.17" ry="1.152"/>
<ellipse fill="#302C3B" cx="49.164" cy="36" rx="1.17" ry="1.152"/>
<path fill="#302C3B" d="M17.712,26.422c0.561,0.322,0.756,1.031,0.438,1.582c-0.319,0.551-1.031,0.738-1.592,0.414
	c-0.558-0.324-0.754-1.033-0.436-1.584C16.44,26.283,17.153,26.096,17.712,26.422z"/>
<path fill="#302C3B" d="M47.441,43.584c0.559,0.322,0.752,1.033,0.434,1.582c-0.316,0.553-1.027,0.738-1.59,0.414
	c-0.559-0.324-0.754-1.031-0.436-1.584C46.166,43.445,46.879,43.26,47.441,43.584z"/>
<ellipse transform="matrix(0.8658 -0.5004 0.5004 0.8658 -7.4334 14.5563)" fill="#302C3B" cx="23.419" cy="21.136" rx="1.153" ry="1.171"/>
<path fill="#302C3B" d="M41.578,50.289c0.326,0.559,0.139,1.271-0.412,1.588c-0.551,0.318-1.26,0.123-1.584-0.436
	c-0.322-0.563-0.137-1.271,0.414-1.59C40.547,49.531,41.256,49.727,41.578,50.289z"/>
<ellipse fill="#302C3B" cx="32" cy="18.836" rx="1.153" ry="1.172"/>
<ellipse fill="#302C3B" cx="32" cy="53.164" rx="1.153" ry="1.17"/>
<polygon fill="#1A1626" points="47.473,28.799 45.973,26.199 31.999,34.27 21.492,28.201 19.992,30.797 29.001,35.998 35,36 "/>
<circle fill="#1A1626" cx="32" cy="36" r="4"/>
<circle fill="#6E8189" cx="32" cy="36" r="3"/>
<path opacity="0.7" fill-rule="evenodd" clip-rule="evenodd" fill="#FFFFFF" d="M50.221,38.691
	c-0.678,6.748-9.602-6.465-18.652-17.811C25.742,13.578,52.26,18.387,50.221,38.691z"/>
<path fill="#CFD8DD" d="M42.113,5.555C40.492,7.178,56.822,23.51,58.445,21.887C69.266,11.066,52.934-5.266,42.113,5.555z"/>
<path fill="#BEC3CF" d="M58.803,6.047c3.754,4.119,4.863,10.617-0.357,15.84C56.822,23.51,40.492,7.178,42.113,5.555
	c0.277-0.277,0.561-0.525,0.844-0.766C46.098,15.859,64.133,20.283,58.803,6.047z"/>
<path fill-rule="evenodd" clip-rule="evenodd" fill="#E6EBEF" d="M45.217,5.25c-1.395,1.719,3.82,0.834,8.635,0.408
	C56.951,5.383,49.412,0.066,45.217,5.25z"/>
<path fill="#CFD8DD" d="M21.887,5.555c-10.82-10.82-27.153,5.51-16.332,16.332C7.178,23.508,23.509,7.176,21.887,5.555z"/>
<path fill="#BEC3CF" d="M15.219,2.088c2.271,0.295,4.571,1.371,6.668,3.467C23.509,7.176,7.178,23.508,5.555,21.887
	c-0.278-0.281-0.524-0.563-0.767-0.844C15.859,17.9,18.521,5.32,15.219,2.088z"/>
<path fill-rule="evenodd" clip-rule="evenodd" fill="#E6EBEF" d="M5.249,18.781c1.721,1.395,0.834-3.824,0.409-8.633
	C5.384,7.047,0.066,14.59,5.249,18.781z"/>
</svg>
