<?xml version="1.0" encoding="utf-8"?>
<!-- Generator: Adobe Illustrator 15.0.0, SVG Export Plug-In . SVG Version: 6.00 Build 0)  -->
<!DOCTYPE svg PUBLIC "-//W3C//DTD SVG 1.1//EN" "http://www.w3.org/Graphics/SVG/1.1/DTD/svg11.dtd">
<svg version="1.1" id="Layer_1" xmlns="http://www.w3.org/2000/svg" xmlns:xlink="http://www.w3.org/1999/xlink" x="0px" y="0px"
	 width="64px" height="64px" viewBox="0 0 64 64" enable-background="new 0 0 64 64" xml:space="preserve">
<path fill="#BEC3CF" d="M62,60c0,1.1-0.9,2-2,2H4c-1.1,0-2-0.9-2-2V32h60V60z"/>
<circle fill="#BEC3CF" cx="32" cy="32" r="30"/>
<path fill="#E6EBEF" d="M33.667,3.999c2.172,0,4.289,0.234,6.333,0.674C37.119,3.591,34.012,3,30.77,3C17.138,3,5.868,13.433,4,27
	C7.75,13.711,19.61,3.999,33.667,3.999z"/>
<path fill="#99A8AE" d="M60.001,30.333c0-2.172-0.233-4.289-0.675-6.333C60.409,26.881,61,29.988,61,33.23
	C61,46.861,50.566,58.133,37,60C50.289,56.25,60.001,44.391,60.001,30.333z"/>
<circle fill="#302C3B" cx="32" cy="32" r="27"/>
<circle fill="#99A8AE" cx="32" cy="32" r="26"/>
<circle fill="#E6EBEF" cx="32" cy="32" r="24"/>
<circle fill="#99A8AE" cx="32" cy="32" r="6"/>
<path fill="#B00505" d="M35.172,29.495c1.268,2.193,0.74,4.864-1.172,5.97c-1.912,1.104-4.489,0.223-5.756-1.97
	C26.978,31.302,21.088,17.516,23,16.412C24.913,15.308,33.906,27.302,35.172,29.495z"/>
<path fill="#E81C27" d="M33.515,28.625c1.151,1.992,0.919,4.279-0.515,5.107s-3.531-0.115-4.682-2.107
	C27.167,29.63,21.566,17.239,23,16.412C24.435,15.584,32.363,26.63,33.515,28.625z"/>
<path opacity="0.5" fill="#F46C60" d="M31.065,26.382c0.921,1.594,0.891,3.334-0.065,3.887c-0.956,0.552-2.479-0.293-3.398-1.887
	c-0.921-1.595-5.558-11.418-4.602-11.97C23.956,15.859,30.145,24.787,31.065,26.382z"/>
<ellipse transform="matrix(-0.8662 -0.4998 0.4998 -0.8662 15.5931 103.8519)" fill="#302C3B" cx="21.703" cy="49.838" rx="1.383" ry="1.404"/>
<ellipse transform="matrix(-0.8657 -0.5006 0.5006 -0.8657 71.8216 47.5982)" fill="#302C3B" cx="42.297" cy="14.163" rx="1.383" ry="1.402"/>
<ellipse transform="matrix(-0.5004 -0.8658 0.8658 -0.5004 -15.3743 75.7255)" fill="#302C3B" cx="14.163" cy="42.299" rx="1.383" ry="1.407"/>
<path fill="#302C3B" d="M49.143,20.505c0.674-0.388,1.527-0.165,1.908,0.495c0.383,0.662,0.148,1.514-0.521,1.901
	c-0.676,0.388-1.525,0.165-1.91-0.497C48.238,21.744,48.473,20.894,49.143,20.505z"/>
<ellipse fill="#302C3B" cx="11.404" cy="32" rx="1.404" ry="1.384"/>
<ellipse fill="#302C3B" cx="52.596" cy="32" rx="1.404" ry="1.384"/>
<path fill="#302C3B" d="M14.854,20.505c0.673,0.389,0.907,1.239,0.526,1.899c-0.384,0.662-1.237,0.885-1.91,0.497
	c-0.67-0.388-0.905-1.239-0.523-1.9C13.328,20.34,14.184,20.115,14.854,20.505z"/>
<path fill="#302C3B" d="M50.529,41.102c0.67,0.385,0.902,1.238,0.521,1.898c-0.381,0.662-1.234,0.885-1.908,0.496
	c-0.67-0.389-0.904-1.238-0.523-1.9C49,40.936,49.854,40.711,50.529,41.102z"/>
<ellipse transform="matrix(0.8658 -0.5003 0.5003 0.8658 -4.1744 12.7584)" fill="#302C3B" cx="21.703" cy="14.163" rx="1.384" ry="1.405"/>
<path fill="#302C3B" d="M43.494,49.146c0.391,0.672,0.166,1.525-0.494,1.906c-0.662,0.381-1.514,0.148-1.9-0.523
	c-0.389-0.674-0.166-1.525,0.496-1.908C42.256,48.238,43.107,48.473,43.494,49.146z"/>
<ellipse fill="#302C3B" cx="32" cy="11.404" rx="1.384" ry="1.404"/>
<ellipse fill="#302C3B" cx="32" cy="52.596" rx="1.384" ry="1.404"/>
<path opacity="0.7" fill-rule="evenodd" clip-rule="evenodd" fill="#FFFFFF" d="M53.865,35.23
	c-0.814,8.098-11.521-7.759-22.384-21.373C24.49,5.095,56.313,10.864,53.865,35.23z"/>
</svg>
