<?xml version="1.0" encoding="utf-8"?>
<!-- Generator: Adobe Illustrator 15.0.0, SVG Export Plug-In . SVG Version: 6.00 Build 0)  -->
<!DOCTYPE svg PUBLIC "-//W3C//DTD SVG 1.1//EN" "http://www.w3.org/Graphics/SVG/1.1/DTD/svg11.dtd">
<svg version="1.1" id="Layer_1" xmlns="http://www.w3.org/2000/svg" xmlns:xlink="http://www.w3.org/1999/xlink" x="0px" y="0px"
	 width="64px" height="64px" viewBox="0 0 64 64" enable-background="new 0 0 64 64" xml:space="preserve">
<path fill="#006DAE" d="M2,32C2,15.436,15.438,2,32,2c16.572,0,30,13.436,30,30c0,16.57-13.428,30-30,30C15.438,62,2,48.57,2,32z"/>
<path fill="#014D87" d="M45.779,5.354C53.172,10.61,58,19.24,58,29c0,16.019-12.98,29-29,29c-9.759,0-18.39-4.829-23.646-12.224
	C10.347,55.412,20.404,62,32,62c16.572,0,30-13.43,30-30C62,20.402,55.414,10.347,45.779,5.354z"/>
<path fill-rule="evenodd" clip-rule="evenodd" fill="#0FB4D4" d="M10.218,17.397c0.446,3.134,6.31-2.997,12.248-8.267
	C26.298,5.741,8.878,7.973,10.218,17.397z"/>
<polygon fill="#FFFFFF" points="39.941,17 32,24.941 24.06,17 18.765,17 18.765,47 24.06,47 24.06,24.941 32,32.882 39.941,24.941 
	39.941,47 45.236,47 45.236,17 "/>
</svg>
