<?xml version="1.0" encoding="utf-8"?>
<!-- Generator: Adobe Illustrator 15.0.0, SVG Export Plug-In . SVG Version: 6.00 Build 0)  -->
<!DOCTYPE svg PUBLIC "-//W3C//DTD SVG 1.1//EN" "http://www.w3.org/Graphics/SVG/1.1/DTD/svg11.dtd">
<svg version="1.1" id="Layer_1" xmlns="http://www.w3.org/2000/svg" xmlns:xlink="http://www.w3.org/1999/xlink" x="0px" y="0px"
	 width="64px" height="64px" viewBox="0 0 64 64" enable-background="new 0 0 64 64" xml:space="preserve">
<path fill="#FFCE31" d="M5.9,62c-3.313,0-4.811-2.379-3.328-5.291L29.307,4.182c1.48-2.91,3.906-2.91,5.387,0l26.734,52.527
	C62.91,59.621,61.41,62,58.098,62H5.9z"/>
<path fill="#FFE463" d="M30.951,6.857c1.238-2.434,0.357-4.739-1.123-1.829L10.67,42.67c-0.71,1.484-0.341,1.781,0.447,0.346
	C19.354,28.022,30.951,6.857,30.951,6.857z"/>
<path fill="#F9B700" d="M61.428,56.709L34.693,4.182l23.734,50.527C59.91,57.621,58.41,60,55.098,60c0,0-52.672-0.016-52.896-0.041
	C2.676,61.197,3.98,62,5.9,62h52.197C61.41,62,62.91,59.621,61.428,56.709z"/>
<path fill="#1A1626" d="M27.801,23.586l2.75,18.464c0.275,1.84,2.623,1.84,2.898,0l2.748-18.464
	C36.703,16.387,27.293,16.387,27.801,23.586z"/>
<ellipse fill="#1A1626" cx="32" cy="49.604" rx="4.219" ry="4.209"/>
</svg>
