<?xml version="1.0" encoding="utf-8"?>
<!-- Generator: Adobe Illustrator 15.0.0, SVG Export Plug-In . SVG Version: 6.00 Build 0)  -->
<!DOCTYPE svg PUBLIC "-//W3C//DTD SVG 1.1//EN" "http://www.w3.org/Graphics/SVG/1.1/DTD/svg11.dtd">
<svg version="1.1" id="Layer_1" xmlns="http://www.w3.org/2000/svg" xmlns:xlink="http://www.w3.org/1999/xlink" x="0px" y="0px"
	 width="64px" height="64px" viewBox="0 0 64 64" enable-background="new 0 0 64 64" xml:space="preserve">
<polygon fill="#9E6C49" points="2,8.051 6.377,25.616 48.463,53.264 62,41.918 32.494,9.158 13.086,2 "/>
<polygon fill="#594640" points="2.443,15.908 2,8.051 7.57,25.616 6.377,33.335 "/>
<polygon fill="#785647" points="48.463,62 49.379,52.439 6.377,25.616 6.377,33.335 "/>
<polygon fill="#8A6859" points="61.414,50.189 62,41.918 48.463,53.264 48.463,62 "/>
<path fill="#D6A57C" d="M32.494,9.158L13.086,2L2,8.051l4.377,17.565l42.086,27.647L62,41.918L32.494,9.158z M48.236,49.941
	L8.721,23.836L4.395,8.945l9.508-5.35l17.707,6.469l28,31.188L48.236,49.941z"/>
<path fill="#D6A57C" d="M29.711,11.677L15.527,6.68L9.18,10.705l2.791,11.199l35.166,23.658l7.879-6.311L29.711,11.677z
	 M46.988,43.373L13.572,20.979l-2.807-9.883l5.207-3.41l12.91,4.697l24.352,26.307L46.988,43.373z"/>
<path fill="#529320" d="M23.795,18.703c4.887,7.965,13.721,7.209,13.721,7.209l-0.275-1.844
	C37.24,24.068,31.336,24.787,23.795,18.703z"/>
<path fill="#92C932" d="M31.291,21.615c0.072,2.285,1.947,2.687,1.947,2.687s2.049-0.878,1.979-3.165
	c-0.049-1.576-2.092-3.893-2.092-3.893S31.242,20.04,31.291,21.615z"/>
<path fill="#C21413" d="M24.787,16.672c1.041,2.807,1.66,4.174,0.258,5.477c-1.404,1.302-6.76-0.299-5.754-3.355
	c0.982-2.994-0.508-4.527-0.508-4.527S23.098,12.114,24.787,16.672z"/>
<path fill="#C21413" d="M20.932,21.046c2.809,1.006,3.938,2.063,5.34,0.761c1.404-1.303-0.24-8.393-3.164-6.996
	c-3.617,1.73-5.258,1.373-5.258,1.373S16.74,19.543,20.932,21.046z"/>
<path fill="#B00505" d="M19.172,19.455c-0.766-0.84,2.309-4.981,1.773-6.885c0,0,2.936-0.387,3.414,1.559
	C24.627,15.211,21.742,22.271,19.172,19.455z"/>
<path fill="#E81C27" d="M21.822,18.347c0.252,4.89,2.971,5.446,4.816,3.734c1.846-1.713,2.277-5.354-0.098-6.934
	c-2.389-1.588-3.221-4.038-3.221-4.038S21.629,14.61,21.822,18.347z"/>
<path fill="#E03636" d="M23.697,16.217c4.871,0.183,4.656,4.275,2.809,5.987c-1.846,1.711-4.881,1.384-6.781-0.734
	c-1.9-2.116-3.637-2.884-3.637-2.884S20.227,16.086,23.697,16.217z"/>
<path fill="#529320" d="M25.648,21.362c-2.889,2.608-0.645,2.558,1.203,0.845c4.539-4.211,0.803-7.964,0.803-7.964
	S28.211,19.048,25.648,21.362z"/>
<path fill="#92C932" d="M25.648,21.362c1.045-0.401,3.432-1.812,1.947,0.217c-2.932,4.01-8.494,0.854-8.494,0.854
	S22.543,22.551,25.648,21.362z"/>
<path fill="#AB5C10" d="M37.934,51.914l-2.439-3.811c0,0-1.326,2.711-0.146,3.598c4.217,3.168,4.986,3.775,5.557,3.984
	c1.068,0.392,3.18-0.239,3.18-0.239l0.211-1.185L37.934,51.914z"/>
<path fill="#FDCA47" d="M35.494,48.104c0,0-0.91,1.586,0.066,2.373c2.229,1.801,1.928,1.592,5.035,3.735
	c1.123,0.774,3.699,0.05,3.699,0.05l-2.891-2.053c0,0-0.85,0.564-1.541,0.107c-1.072-0.709-1.621-1.113-2.854-2.07
	c-0.441-0.342-0.029-1.11-0.029-1.11L35.494,48.104z"/>
<path fill="#AB5C10" d="M10.645,33.291L8.205,29.48c0,0-1.326,2.711-0.146,3.598c4.217,3.168,4.986,3.775,5.557,3.984
	c1.068,0.392,3.18-0.239,3.18-0.239l0.211-1.185L10.645,33.291z"/>
<path fill="#FDCA47" d="M8.205,29.48c0,0-0.91,1.586,0.066,2.373c2.229,1.801,1.928,1.592,5.035,3.735
	c1.123,0.774,3.699,0.05,3.699,0.05l-2.891-2.053c0,0-0.85,0.564-1.541,0.107c-1.072-0.709-1.621-1.113-2.854-2.07
	c-0.441-0.342-0.029-1.11-0.029-1.11L8.205,29.48z"/>
</svg>
