<?xml version="1.0" encoding="utf-8"?>
<!-- Generator: Adobe Illustrator 15.0.0, SVG Export Plug-In . SVG Version: 6.00 Build 0)  -->
<!DOCTYPE svg PUBLIC "-//W3C//DTD SVG 1.1//EN" "http://www.w3.org/Graphics/SVG/1.1/DTD/svg11.dtd">
<svg version="1.1" id="Layer_1" xmlns="http://www.w3.org/2000/svg" xmlns:xlink="http://www.w3.org/1999/xlink" x="0px" y="0px"
	 width="64px" height="64px" viewBox="0 0 64 64" enable-background="new 0 0 64 64" xml:space="preserve">
<path fill="#F59E01" d="M42.654,59.573C37.406,53.946,52,46.187,52,25.958c0-12.628-6.678-10.456-6.678-15.007H18.656
	c0,4.547-6.656,2.39-6.656,15.007c0,20.243,14.555,27.975,9.322,33.616C18.307,62.825,45.656,62.793,42.654,59.573z"/>
<path fill="#EA8800" d="M52,25.958c0-12.628-6.678-10.456-6.678-15.007h-6c0,4.688,6.678,2.45,6.678,15.459
	c0,20.837-14.594,28.832-9.346,34.628c0.258,0.285,0.277,0.543,0.129,0.778c4.025-0.322,6.965-1.07,5.871-2.243
	C37.406,53.946,52,46.187,52,25.958z"/>
<path fill="#D47706" d="M45.521,12.137c0,3.309-27.045,3.309-27.045,0C18.477,9.765,45.521,9.765,45.521,12.137z"/>
<path fill-rule="evenodd" clip-rule="evenodd" fill="#F9C802" d="M20.09,14.607c5.531,1.061,1,4.734-1.063,6.96
	C12.826,28.266,15.662,13.757,20.09,14.607z"/>
<path fill-rule="evenodd" clip-rule="evenodd" fill="#F9C802" d="M24.566,57.405c-0.621-1.057-1.314,0.669-2.168,2.105
	C21.852,60.436,26.445,60.587,24.566,57.405z"/>
<path fill="#AB5C10" d="M13.908,38.097c0.2,0.613,0.409,1.212,0.629,1.793c11.577,1.611,23.34,1.612,34.916,0.001
	c0.221-0.581,0.431-1.179,0.632-1.793C38.094,39.802,25.899,39.802,13.908,38.097z"/>
<path fill="#AB5C10" d="M51.857,29.311c0.047-0.564,0.083-1.139,0.105-1.725c-13.231,1.907-26.694,1.907-39.927,0
	c0.023,0.586,0.06,1.16,0.105,1.725C25.303,31.225,38.696,31.224,51.857,29.311z"/>
<path fill="#AB5C10" d="M24.888,37.468c0.576-0.831,1.165-1.666,1.769-2.504c-0.68-0.891-1.373-1.785-2.08-2.686
	c-1.932-0.105-3.861-0.252-5.788-0.439c-0.561,0.804-1.107,1.606-1.64,2.403c0.745,0.941,1.476,1.875,2.194,2.805
	C21.188,37.226,23.037,37.366,24.888,37.468z M19.472,33.192c1.544,0.145,3.09,0.262,4.637,0.353c0.352,0.452,0.7,0.901,1.045,1.351
	c-0.296,0.416-0.589,0.83-0.878,1.244c-1.514-0.089-3.027-0.203-4.538-0.345c-0.36-0.464-0.725-0.928-1.091-1.395
	C18.918,33.999,19.192,33.596,19.472,33.192z"/>
<path fill="#AB5C10" d="M17.148,34.241c-0.744-0.941-1.502-1.888-2.273-2.842c-0.852-0.108-1.701-0.227-2.552-0.351
	c0.057,0.444,0.123,0.878,0.193,1.309c0.665,0.097,1.33,0.192,1.995,0.278c0.384,0.479,0.765,0.956,1.142,1.43
	c-0.261,0.396-0.518,0.791-0.771,1.186c-0.615-0.081-1.229-0.168-1.845-0.258c0.106,0.449,0.217,0.893,0.336,1.326
	c0.739,0.107,1.479,0.213,2.22,0.307C16.098,35.834,16.616,35.039,17.148,34.241z"/>
<path fill="#AB5C10" d="M46.851,34.241c0.532,0.798,1.051,1.593,1.555,2.385c0.74-0.094,1.478-0.198,2.216-0.305
	c0.119-0.435,0.229-0.878,0.336-1.328c-0.613,0.09-1.227,0.178-1.841,0.258c-0.253-0.395-0.51-0.79-0.77-1.186
	c0.377-0.475,0.757-0.951,1.141-1.43c0.665-0.086,1.33-0.181,1.994-0.277c0.07-0.432,0.137-0.866,0.193-1.31
	c-0.85,0.124-1.699,0.243-2.551,0.351C48.353,32.353,47.595,33.3,46.851,34.241z"/>
<path fill="#AB5C10" d="M35.345,37.618c0.652-0.881,1.318-1.765,1.998-2.654c-0.604-0.839-1.221-1.682-1.852-2.529
	c-2.327,0.06-4.655,0.06-6.982,0c-0.632,0.847-1.249,1.69-1.853,2.529c0.68,0.89,1.346,1.773,1.999,2.654
	C30.885,37.675,33.115,37.675,35.345,37.618z M29.092,33.745c1.938,0.041,3.877,0.041,5.815,0c0.314,0.424,0.626,0.848,0.933,1.27
	c-0.335,0.441-0.667,0.881-0.994,1.32c-1.896,0.041-3.795,0.041-5.692,0c-0.327-0.439-0.659-0.879-0.993-1.32
	C28.467,34.593,28.777,34.169,29.092,33.745z"/>
<path fill="#AB5C10" d="M44.657,37.046c0.718-0.93,1.448-1.863,2.193-2.805c-0.532-0.797-1.079-1.599-1.64-2.403
	c-1.927,0.188-3.856,0.334-5.788,0.439c-0.707,0.901-1.4,1.795-2.08,2.686c0.604,0.838,1.193,1.673,1.769,2.504
	C40.962,37.366,42.812,37.226,44.657,37.046z M39.892,33.544c1.547-0.09,3.093-0.207,4.636-0.352
	c0.279,0.403,0.555,0.807,0.826,1.208c-0.367,0.467-0.731,0.931-1.091,1.395c-1.512,0.142-3.024,0.256-4.539,0.345
	c-0.289-0.414-0.582-0.828-0.878-1.244C39.19,34.446,39.539,33.997,39.892,33.544z"/>
<path fill="#AB5C10" d="M46.998,6.872H16.999c0,0,0,2.026,0,3.529c0,3.309,30,3.309,30,0C46.999,8.897,46.998,6.872,46.998,6.872z"
	/>
<path fill="#F59E01" d="M46.998,7.083c0,2.71-29.999,2.71-29.999,0C16.999,0.306,46.998,0.306,46.998,7.083z"/>
<path fill="#EA8800" d="M29.098,2.086c6.172,0.433,10.6,2.447,12.133,5.054c0.734,1.252,5.768,0.667,5.768-0.059
	C46.998,3.253,37.427,1.589,29.098,2.086z"/>
<path fill-rule="evenodd" clip-rule="evenodd" fill="#F9C802" d="M18.576,6.227c-0.726,1.338,2.801-0.202,6.113-1.378
	C26.822,4.09,20.754,2.192,18.576,6.227z"/>
</svg>
