<?xml version="1.0" encoding="utf-8"?>
<!-- Generator: Adobe Illustrator 15.0.0, SVG Export Plug-In . SVG Version: 6.00 Build 0)  -->
<!DOCTYPE svg PUBLIC "-//W3C//DTD SVG 1.1//EN" "http://www.w3.org/Graphics/SVG/1.1/DTD/svg11.dtd">
<svg version="1.1" id="Layer_1" xmlns="http://www.w3.org/2000/svg" xmlns:xlink="http://www.w3.org/1999/xlink" x="0px" y="0px"
	 width="64px" height="64px" viewBox="0 0 64 64" enable-background="new 0 0 64 64" xml:space="preserve">
<g>
	<g>
		<g>
			<circle fill="#CFD8DD" cx="32" cy="32" r="28"/>
		</g>
	</g>
	<g opacity="0.5">
		<g>
			<circle fill="#FFFFFF" cx="32.75" cy="29.991" r="25.166"/>
		</g>
	</g>
	<g>
		<g>
			<ellipse fill="#FFFFFF" cx="32.75" cy="25.523" rx="22.314" ry="20"/>
		</g>
	</g>
	<path fill="#302C3B" d="M32,2C15.432,2,2,15.433,2,32c0,16.568,13.432,30,30,30c16.568,0,30-13.432,30-30C62,15.433,48.568,2,32,2z
		 M34.273,4.918c-0.744,0.99-1.507,2.457-1.867,3.182c-1.518,0.249-7.283,1.351-11.806,4.282c-0.912-0.241-3.663-0.886-6.271-0.664
		c0.645-1.249,1.61-2.174,1.713-2.269c0.359-0.257,7.264-5.087,15.652-4.983v0.014C32.438,4.535,33.527,4.697,34.273,4.918z
		 M52.24,18.918c-1.469-0.751-5.166-2.359-10.23-2.631c-0.766-1.133-3.65-5.079-8.207-7.816c0.623-1.221,1.492-2.708,1.998-3.161
		c0.166-0.047,0.42-0.089,0.809-0.089c2.443,0,6.662,1.6,7.033,1.741c0.387,0.207,7.973,4.292,9.453,8.198
		C53.084,15.596,52.98,17.142,52.24,18.918z M56.041,31.655c-1.691,5.265-5.037,8.808-5.887,9.647
		c-1.131-0.047-5.488-0.295-10.266-1.417c-0.916-3.191-3.939-11.063-4.631-12.853c2.965-4.236,5.885-8.227,6.697-9.333
		c5.498,0.302,9.357,2.308,10.107,2.727C55.246,25.549,55.945,30.781,56.041,31.655z M19.959,13.681
		c-0.113,1.561-0.33,5.923,0.315,10.5c-2.616,2.105-6.757,8.165-7.827,9.765c-3.309-0.564-5.277-1.594-5.864-1.941
		c-1.231-4.463-0.241-9.286-0.087-9.978c1.213-2.171,4.672-7.705,6.951-8.756C15.813,12.788,18.758,13.387,19.959,13.681z
		 M21.216,25.238c1.396,0.257,7.228,1.328,12.729,2.324c0.691,1.791,3.725,9.695,4.592,12.746c-0.957,1.133-4.717,5.512-8.416,8.939
		c-3.932,0.02-10.615-2.248-11.89-2.695c-2.773-4.484-4.353-10.348-4.691-11.694C14.418,33.543,18.748,27.16,21.216,25.238z
		 M17.874,47.928c1.576,0.555,8.046,2.742,12.172,2.742c0.701,0.942,3,3.895,5.816,6.15c-1.754,1.716-4.284,2.527-4.732,2.66
		c-7.855,0.211-15.508-4.205-17.207-8.265C15.379,49.811,17.176,48.444,17.874,47.928z M37.258,57.402
		c1.254-0.174,6.635-1.1,11.496-4.672c0.32,0.035,0.85,0.078,1.439,0.062c-2.916,2.858-10.033,6.05-15.523,6.677
		C35.561,58.949,36.488,58.267,37.258,57.402z M49.578,51.373c1.748-4.553,1.672-7.982,1.588-9.078
		c0.959-0.94,4.248-4.446,6.074-9.777c0.984,0.164,1.625,0.414,1.928,0.556c0.105,0.387,0.281,1.28,0.18,2.634
		c-0.742,4.874-3.313,12.18-7.813,15.409C51.084,51.347,50.287,51.398,49.578,51.373z M5.231,32.421
		c-0.326,0.834-0.537,1.7-0.658,2.563c-0.218-2.186-0.178-4.393,0.027-6.35C4.68,29.858,4.875,31.146,5.231,32.421z"/>
</g>
</svg>
