<?xml version="1.0" encoding="utf-8"?>
<!-- Generator: Adobe Illustrator 15.0.0, SVG Export Plug-In . SVG Version: 6.00 Build 0)  -->
<!DOCTYPE svg PUBLIC "-//W3C//DTD SVG 1.1//EN" "http://www.w3.org/Graphics/SVG/1.1/DTD/svg11.dtd">
<svg version="1.1" id="Layer_1" xmlns="http://www.w3.org/2000/svg" xmlns:xlink="http://www.w3.org/1999/xlink" x="0px" y="0px"
	 width="64px" height="64px" viewBox="0 0 64 64" enable-background="new 0 0 64 64" xml:space="preserve">
<g>
	<g>
		<g>
			<circle fill="#DEE7ED" cx="32" cy="32" r="30"/>
		</g>
	</g>
	<g opacity="0.25">
		<g>
			<circle fill="#FFFFFF" cx="32.803" cy="29.848" r="26.964"/>
		</g>
	</g>
	<g>
		<g>
			<ellipse fill="#FFFFFF" cx="32.804" cy="25.061" rx="23.908" ry="21.429"/>
		</g>
	</g>
	<g>
		<path fill="#B00505" d="M50.029,32.101c-3.767-1.747-7.338-4.277-10.608-7.514c-3.245-3.284-5.775-6.856-7.52-10.619
			c-1.896-4.062-2.754-8.141-2.52-11.847c-0.678,0.059-1.351,0.134-2.015,0.236c-0.179,3.941,0.745,8.222,2.721,12.454
			c1.841,3.971,4.503,7.733,7.919,11.19c3.442,3.407,7.204,6.07,11.179,7.913c3.89,1.817,7.822,2.756,11.493,2.756
			c0.326,0,0.644-0.031,0.966-0.045c0.103-0.662,0.176-1.332,0.234-2.007C58.178,34.855,54.094,34,50.029,32.101z"/>
	</g>
	<g>
		<path fill="#B00505" d="M26.123,37.871c-3.45-3.41-7.213-6.072-11.181-7.912c-4.273-1.995-8.598-2.917-12.563-2.715
			c-0.105,0.665-0.188,1.337-0.249,2.016c3.736-0.262,7.86,0.596,11.969,2.513c3.761,1.744,7.333,4.274,10.61,7.512
			c3.244,3.279,5.774,6.852,7.522,10.617c1.918,4.105,2.772,8.23,2.51,11.969c0.679-0.063,1.351-0.145,2.015-0.25
			c0.204-3.971-0.717-8.291-2.711-12.563C32.2,45.084,29.538,41.322,26.123,37.871z"/>
	</g>
	<g>
		<g>
			<path fill="#E81C27" d="M7.547,25.225c-3.018-0.931-0.373,1.415-0.902,3.145c-0.535,1.729-4.039,2.185-1.023,3.111
				c3.018,0.931,5.896,0.283,6.428-1.447C12.58,28.304,10.566,26.15,7.547,25.225z"/>
		</g>
	</g>
	<g>
		<g>
			<path fill="#E81C27" d="M59.076,35.57c0.598-1.708-1.332-3.941-4.311-4.984c-2.977-1.049-0.43,1.401-1.025,3.109
				c-0.604,1.707-4.125,2.023-1.143,3.068C55.576,37.813,58.477,37.275,59.076,35.57z"/>
		</g>
	</g>
	<g>
		<g>
			<path fill="#E81C27" d="M30.162,11.921c1.73-0.533,2.379-3.412,1.447-6.428c-0.926-3.017-1.381,0.487-3.111,1.022
				c-1.729,0.53-4.076-2.114-3.145,0.904C26.279,10.438,28.432,12.452,30.162,11.921z"/>
		</g>
	</g>
	<g>
		<g>
			<path fill="#E81C27" d="M49.102,32.301c1.447-1.855,0.518-4.834-2.078-6.648c-2.59-1.819-1.121,1.537-2.566,3.392
				c-1.449,1.854-5.266,1.504-2.668,3.322C44.381,34.188,47.654,34.155,49.102,32.301z"/>
		</g>
	</g>
	<g>
		<g>
			<path fill="#E81C27" d="M41.67,26.998c1.727-1.6,1.285-4.688-0.986-6.897c-2.266-2.211-1.354,1.336-3.078,2.937
				c-1.725,1.598-5.436,0.64-3.164,2.85C36.709,28.101,39.947,28.595,41.67,26.998z"/>
		</g>
	</g>
	<g>
		<g>
			<path fill="#E81C27" d="M34.551,19.766c2.107-1.048,2.553-4.137,0.996-6.895c-1.549-2.761-1.676,0.901-3.779,1.951
				c-2.105,1.047-5.396-0.917-3.84,1.844C29.48,19.426,32.447,20.813,34.551,19.766z"/>
		</g>
	</g>
	<g>
		<g>
			<path fill="#E81C27" d="M36.893,52.469c-1.045-2.982-1.361,0.539-3.068,1.143c-1.707,0.596-4.158-1.951-3.109,1.025
				c1.043,2.979,3.275,4.91,4.984,4.311C37.404,58.348,37.941,55.447,36.893,52.469z"/>
		</g>
	</g>
	<g>
		<g>
			<path fill="#E81C27" d="M32.494,41.66c-1.816-2.598-1.467,1.219-3.32,2.668c-1.855,1.445-5.211-0.023-3.393,2.566
				c1.814,2.596,4.795,3.527,6.648,2.078C34.283,47.525,34.316,44.252,32.494,41.66z"/>
		</g>
	</g>
	<g>
		<g>
			<path fill="#E81C27" d="M26.018,34.313c-2.211-2.271-1.254,1.439-2.852,3.164c-1.6,1.725-5.146,0.813-2.936,3.078
				c2.209,2.273,5.297,2.713,6.896,0.988C28.725,39.818,28.23,36.58,26.018,34.313z"/>
		</g>
	</g>
	<g>
		<g>
			<path fill="#E81C27" d="M16.795,27.798c-2.762-1.556-0.797,1.734-1.844,3.839C13.9,33.742,10.238,33.869,13,35.417
				c2.758,1.558,5.848,1.112,6.895-0.995C20.941,32.318,19.555,29.352,16.795,27.798z"/>
		</g>
	</g>
	<g opacity="0.15">
		<g>
			<circle fill="#FFFFFF" cx="32.803" cy="29.848" r="26.964"/>
		</g>
	</g>
</g>
</svg>
