<?xml version="1.0" encoding="utf-8"?>
<!-- Generator: Adobe Illustrator 15.0.0, SVG Export Plug-In . SVG Version: 6.00 Build 0)  -->
<!DOCTYPE svg PUBLIC "-//W3C//DTD SVG 1.1//EN" "http://www.w3.org/Graphics/SVG/1.1/DTD/svg11.dtd">
<svg version="1.1" id="Layer_1" xmlns="http://www.w3.org/2000/svg" xmlns:xlink="http://www.w3.org/1999/xlink" x="0px" y="0px"
	 width="64px" height="64px" viewBox="0 0 64 64" enable-background="new 0 0 64 64" xml:space="preserve">
<circle fill="#F5F5F5" cx="32" cy="43.6" r="18.401"/>
<path fill="#CFD8DD" d="M34.641,59.411c-10.163,0-18.401-8.237-18.401-18.399c0-4.469,1.596-8.563,4.244-11.75
	c-4.193,3.372-6.885,8.539-6.885,14.338c0,10.162,8.238,18.4,18.4,18.4c5.694,0,10.78-2.588,14.157-6.648
	C43.002,57.887,39.002,59.411,34.641,59.411z"/>
<path fill="#302C3B" d="M32,44.255c-3.271,0-3.271-4.907,0-4.907C35.271,39.348,35.271,44.255,32,44.255z"/>
<path fill="#302C3B" d="M32,54.913c-3.271,0-3.271-4.907,0-4.907C35.271,50.006,35.271,54.913,32,54.913z"/>
<circle fill="#F5F5F5" cx="32" cy="23.223" r="12.715"/>
<path fill="#CFD8DD" d="M33.824,34.148c-7.022,0-12.715-5.692-12.715-12.715c0-3.087,1.104-5.916,2.934-8.118
	c-2.898,2.33-4.758,5.899-4.758,9.907c0,7.021,5.693,12.715,12.715,12.715c3.934,0,7.45-1.788,9.782-4.594
	C39.602,33.095,36.838,34.148,33.824,34.148z"/>
<path fill="#302C3B" d="M29.001,21.563c0,3.391-5.086,3.391-5.086,0S29.001,18.172,29.001,21.563z"/>
<path fill="#302C3B" d="M40.084,21.563c0,3.391-5.084,3.391-5.084,0S40.084,18.172,40.084,21.563z"/>
<path fill="#F59E01" d="M34.227,27.627c-1.18,2.916-7.254,5.016-7.954,4.316c-0.697-0.699,1.729-1.837,3.525-5.771
	C30.841,23.895,35.219,25.18,34.227,27.627z"/>
<path fill="#4E5E67" d="M20.832,15.818c4.338,3.179,19.864,3.151,22.889-1.869C47.344,7.932,14.416,11.117,20.832,15.818z"/>
<path fill="#302C3B" d="M24.652,12.563c-0.789,3.386,13.918,3.456,14.553,0.008c0.955-5.186,0.799-9.165,0.799-9.165l-16.1,0.951
	C23.904,4.357,25.351,9.563,24.652,12.563z"/>
<path fill="#4E5E67" d="M23.986,4.133c-1.494,1.713,17.073,1.234,15.973-0.938C38.934,1.172,25.955,1.873,23.986,4.133z"/>
<path fill="#B47D56" d="M53.016,32.145v-2.391C64.996,29.754,64.994,32.145,53.016,32.145z"/>
<path fill="#9E6C49" d="M54.299,31.039h-2.391C51.908,19.061,54.299,19.061,54.299,31.039z"/>
<path fill="#9E6C49" d="M55.908,26.456c0,0-9.23,9.228-11.129,11.126c-0.516,0.516,1.176,2.207,1.693,1.69
	C48.369,37.377,57.6,28.146,57.6,28.146C62.936,22.811,61.244,21.119,55.908,26.456z"/>
<path fill="#9E6C49" d="M10.986,32.145l-0.002-2.391C-0.995,29.754-0.994,32.145,10.986,32.145z"/>
<path fill="#B47D56" d="M9.701,31.039h2.391C12.091,19.061,9.701,19.061,9.701,31.039z"/>
<path fill="#9E6C49" d="M8.093,26.456c0,0,9.229,9.228,11.127,11.126c0.516,0.516-1.176,2.207-1.693,1.69
	C15.63,37.377,6.401,28.146,6.401,28.146C1.065,22.811,2.757,21.119,8.093,26.456z"/>
</svg>
