<?xml version="1.0" encoding="utf-8"?>
<!-- Generator: Adobe Illustrator 15.0.0, SVG Export Plug-In . SVG Version: 6.00 Build 0)  -->
<!DOCTYPE svg PUBLIC "-//W3C//DTD SVG 1.1//EN" "http://www.w3.org/Graphics/SVG/1.1/DTD/svg11.dtd">
<svg version="1.1" id="Layer_1" xmlns="http://www.w3.org/2000/svg" xmlns:xlink="http://www.w3.org/1999/xlink" x="0px" y="0px"
	 width="64px" height="64px" viewBox="0 0 64 64" enable-background="new 0 0 64 64" xml:space="preserve">
<path fill="#75D6FF" d="M10.752,42.904c-0.535,1.486-0.08,3.02,1.018,3.422c1.1,0.404,2.426-0.475,2.961-1.959
	c0.631-1.75,0.676-4.146,0.246-6.924C12.912,39.266,11.383,41.154,10.752,42.904z"/>
<path fill="#75D6FF" d="M13.203,57.406c0.631-1.75,0.674-4.146,0.246-6.922c-2.064,1.82-3.594,3.711-4.225,5.461
	c-0.535,1.484-0.08,3.018,1.02,3.422C11.342,59.771,12.668,58.893,13.203,57.406z"/>
<path fill="#75D6FF" d="M51.451,37.443c-2.064,1.82-3.594,3.711-4.225,5.461c-0.535,1.484-0.08,3.018,1.02,3.422
	c1.098,0.404,2.424-0.475,2.961-1.959C51.838,42.617,51.881,40.221,51.451,37.443z"/>
<path fill="#75D6FF" d="M38.236,55.945c-0.535,1.484-0.08,3.018,1.018,3.422c1.1,0.402,2.426-0.475,2.961-1.961
	c0.631-1.75,0.674-4.146,0.246-6.922C40.396,52.303,38.867,54.195,38.236,55.945z"/>
<path fill="#75D6FF" d="M46.861,55.945c-0.535,1.484-0.08,3.018,1.018,3.422c1.1,0.402,2.426-0.475,2.961-1.961
	c0.631-1.75,0.674-4.146,0.246-6.922C49.021,52.303,47.492,54.195,46.861,55.945z"/>
<path fill="#75D6FF" d="M18.574,55.945c-0.537,1.484-0.082,3.018,1.018,3.422c1.1,0.402,2.426-0.475,2.961-1.959
	c0.631-1.752,0.674-4.148,0.244-6.924C20.732,52.303,19.205,54.195,18.574,55.945z"/>
<polygon fill="#F9C802" points="24.527,31.938 19.596,48.053 32.143,48.053 27.885,62 44.402,41.758 32.525,41.758 35.438,31.938 
	"/>
<path fill="#FFFFFF" d="M18.195,32.477c-0.818,0-1.627-0.131-2.406-0.389c-3.143-1.031-5.256-3.938-5.256-7.23
	c0-2.197,0.957-4.287,2.629-5.738c0.43-0.375,0.898-0.699,1.4-0.967l-0.025-0.002l0.508-1.762c1.27-4.4,5.367-7.473,9.967-7.473
	c0.457,0,0.928,0.035,1.48,0.115c0.424,0.059,0.84,0.146,1.246,0.254l0.203-0.365c1.857-3.328,5.385-5.396,9.205-5.396
	c5.803,0,10.523,4.695,10.523,10.467c0,0.281-0.02,0.557-0.041,0.832l-0.018,0.205c0.449,0.168,0.885,0.375,1.307,0.617
	c2.805,1.609,4.549,4.602,4.549,7.811c0,4.229-2.893,7.84-7.035,8.785c-0.676,0.156-1.361,0.236-2.035,0.236H18.195z"/>
<path fill="#B6C1D1" d="M37.146,5.049c4.965,0,8.99,4.004,8.99,8.941c0,0.24-0.018,0.473-0.037,0.709
	c-2.078,0.156-3.965,0.98-5.449,2.262c1.105-0.631,2.381-0.998,3.746-0.998c0.506,0,0.998,0.051,1.475,0.145
	c0.816,0.162,1.582,0.455,2.279,0.855c2.258,1.297,3.783,3.715,3.783,6.492c0,3.559-2.498,6.537-5.844,7.301
	c-0.545,0.127-1.109,0.197-1.693,0.197l0,0H18.195l0,0c-0.672,0-1.316-0.109-1.922-0.311c-2.441-0.803-4.207-3.088-4.207-5.785
	c0-1.834,0.816-3.473,2.104-4.59c0.582-0.508,1.262-0.902,2.008-1.162c0.633-0.219,1.309-0.346,2.018-0.346
	c1.977,0,3.729,0.936,4.85,2.379H23.1c-1.301-2.383-3.732-4.063-6.58-4.332c1.059-3.672,4.457-6.369,8.492-6.369
	c0.432,0,0.85,0.043,1.264,0.102c0.818,0.117,1.602,0.342,2.332,0.664c2.719,1.207,4.705,3.736,5.146,6.764
	c0-0.018,0.002-0.035,0.002-0.053c0-3.449-1.779-6.484-4.475-8.254C30.816,6.912,33.762,5.049,37.146,5.049 M37.146,2
	c-4.135,0-7.969,2.113-10.176,5.561c-0.084-0.012-0.17-0.025-0.256-0.039c-0.631-0.088-1.172-0.129-1.703-0.129
	c-5.279,0-9.984,3.525-11.439,8.574l-0.348,1.203c-0.377,0.24-0.736,0.51-1.076,0.805C10.148,19.711,9,22.221,9,24.857
	c0,3.951,2.537,7.439,6.313,8.68C16.24,33.844,17.213,34,18.195,34h26.201c0.791,0,1.594-0.092,2.387-0.275
	C51.617,32.621,55,28.398,55,23.455c0-3.752-2.037-7.252-5.318-9.131c-0.156-0.092-0.316-0.178-0.479-0.26c0-0.025,0-0.049,0-0.074
	C49.203,7.379,43.795,2,37.146,2L37.146,2z"/>
</svg>
