<?xml version="1.0" encoding="utf-8"?>
<!-- Generator: Adobe Illustrator 15.0.0, SVG Export Plug-In . SVG Version: 6.00 Build 0)  -->
<!DOCTYPE svg PUBLIC "-//W3C//DTD SVG 1.1//EN" "http://www.w3.org/Graphics/SVG/1.1/DTD/svg11.dtd">
<svg version="1.1" id="Layer_1" xmlns="http://www.w3.org/2000/svg" xmlns:xlink="http://www.w3.org/1999/xlink" x="0px" y="0px"
	 width="64px" height="64px" viewBox="0 0 64 64" enable-background="new 0 0 64 64" xml:space="preserve">
<path fill="#AA5BEF" d="M62,50c0,6.601-5.4,12-12,12H14C7.4,62,2,56.601,2,50V14C2,7.399,7.4,2,14,2h36c6.6,0,12,5.399,12,12V50z"/>
<path fill="#8D40CF" d="M56.838,4.162C58.196,6.105,59,8.462,59,11v37c0,6.601-4.399,11-11,11H11c-2.537,0-4.894-0.804-6.838-2.162
	C6.336,59.95,9.938,62,14,62h36c6.601,0,12-5.399,12-12V14C62,9.938,59.95,6.336,56.838,4.162z"/>
<path fill-rule="evenodd" clip-rule="evenodd" fill="#C28FEF" d="M4.975,12.585c0.339,2.703,4.793-2.587,9.303-7.136
	C17.188,2.524,3.957,4.45,4.975,12.585z"/>
<g>
	<g>
		<path fill="#FFFFFF" d="M32,48.5c-5.851,0-12.167-5.021-12.167-13.132V15.5h4.333v19.868c0,5.078,3.294,8.764,7.833,8.764
			s7.834-3.686,7.834-8.764V15.5h4.332v19.868C44.166,43.479,37.852,48.5,32,48.5z"/>
	</g>
</g>
<g>
	<path fill="#FFFFFF" d="M11.5,35.575v-5.93l0.214-0.149c4.321-3.004,8.363-4.465,12.355-4.465c3.958,0,7.343,1.451,10.33,2.73
		c2.605,1.117,5.065,2.171,7.569,2.171c3.271,0,6.336-1.853,9.646-5.832l0.885-1.063v6.677l-0.154,0.148
		c-3.527,3.378-6.791,4.952-10.27,4.952c0,0,0,0-0.001,0c-3.004,0-5.69-1.163-8.536-2.394c-2.901-1.256-5.902-2.555-9.328-2.555
		c-3.814,0-7.706,1.651-11.896,5.048L11.5,35.575z"/>
</g>
</svg>
