<?xml version="1.0" encoding="utf-8"?>
<!-- Generator: Adobe Illustrator 15.0.0, SVG Export Plug-In . SVG Version: 6.00 Build 0)  -->
<!DOCTYPE svg PUBLIC "-//W3C//DTD SVG 1.1//EN" "http://www.w3.org/Graphics/SVG/1.1/DTD/svg11.dtd">
<svg version="1.1" id="Layer_1" xmlns="http://www.w3.org/2000/svg" xmlns:xlink="http://www.w3.org/1999/xlink" x="0px" y="0px"
	 width="64px" height="64px" viewBox="0 0 64 64" enable-background="new 0 0 64 64" xml:space="preserve">
<path fill="#B47D56" d="M12.689,15.782c-0.852,0.853-0.852,2.245,0,3.094l42.48,42.488c0.855,0.849,2.247,0.847,3.095,0l3.095-3.095
	c0.854-0.853,0.854-2.247,0-3.097L18.877,12.688c-0.85-0.852-2.242-0.852-3.095-0.001L12.689,15.782z"/>
<path fill="#785647" d="M12.689,15.782c-0.852,0.853-0.852,2.245,0,3.094l42.48,42.488c0.855,0.849,2.247,0.847,3.095,0l1.696-1.697
	L14.385,14.084L12.689,15.782z"/>
<rect x="22.829" y="26.957" transform="matrix(0.7069 -0.7073 0.7073 0.7069 -12.4879 25.9964)" fill="#45332C" width="4.596" height="2.221"/>
<rect x="26.14" y="23.858" transform="matrix(0.707 -0.7072 0.7072 0.707 -9.3885 27.2769)" fill="#785647" width="4.167" height="2.221"/>
<path fill="#99A8AE" d="M20.671,20.674C31.74,9.608,44.73,3.51,54.156,4.052c-8.922-5.256-24.873-0.175-37.574,12.527
	C3.876,29.283-1.205,45.238,4.052,54.162C3.513,44.735,9.608,31.738,20.671,20.674z"/>
<path fill="#6E8189" d="M23.046,23.048C34.114,11.983,45.309,4.087,54.156,4.052c-8.102-4.435-21.326,3.372-34.028,16.076
	C7.423,32.83-0.383,46.061,4.052,54.162C4.09,45.312,11.98,34.113,23.046,23.048z"/>
<path fill="#6E8189" d="M29.633,20.702c0.425,0.423,0.415,1.124-0.02,1.558l-7.357,7.357c-0.433,0.432-1.131,0.44-1.553,0.018
	l-4.361-4.36l8.933-8.932L29.633,20.702z"/>
<rect x="18.686" y="18.303" transform="matrix(0.7071 -0.7071 0.7071 0.7071 -9.0657 22.8592)" fill="#99A8AE" width="8.747" height="8.138"/>
<polygon fill="#BEC3CF" points="29.065,22.12 28.375,22.807 23.311,16.365 "/>
</svg>
