<?xml version="1.0" encoding="utf-8"?>
<!-- Generator: Adobe Illustrator 15.0.0, SVG Export Plug-In . SVG Version: 6.00 Build 0)  -->
<!DOCTYPE svg PUBLIC "-//W3C//DTD SVG 1.1//EN" "http://www.w3.org/Graphics/SVG/1.1/DTD/svg11.dtd">
<svg version="1.1" id="Layer_1" xmlns="http://www.w3.org/2000/svg" xmlns:xlink="http://www.w3.org/1999/xlink" x="0px" y="0px"
	 width="64px" height="64px" viewBox="0 0 64 64" enable-background="new 0 0 64 64" xml:space="preserve">
<path fill="#CFD8DD" d="M46,60c-4.473,0-9-3.123-9-9.094v-8.811C37,36.125,41.527,33,46,33s9,3.125,9,9.096v8.809
	C55,56.877,50.473,60,46,60z M46,36.568c-2.723,0-5.471,1.709-5.471,5.527l0.002,8.809c-0.002,3.82,2.746,5.529,5.469,5.529
	c2.725,0,5.471-1.709,5.471-5.527v-8.811C51.471,38.277,48.723,36.568,46,36.568z"/>
<path fill="#99A8AE" d="M45.646,36.582c-0.117-0.006-0.234-0.014-0.352-0.014c-2.723,0-5.471,1.709-5.471,5.527v8.811
	c0,3.818,2.746,5.527,5.471,5.527c0.117-0.002,0.234-0.008,0.352-0.016c-2.602-0.141-5.117-1.859-5.115-5.514l-0.002-8.809
	C40.529,38.441,43.045,36.725,45.646,36.582z"/>
<path fill="#99A8AE" d="M46,33c-0.117,0-0.234,0.012-0.352,0.016c4.354,0.16,8.646,3.266,8.645,9.08l0.002,8.809
	c0,5.814-4.293,8.92-8.646,9.082C45.766,59.99,45.883,60,46,60c4.473,0,9-3.123,9-9.096v-8.809C55,36.125,50.473,33,46,33z"/>
<path fill="#CFD8DD" d="M46,31c-4.473,0-9-3.123-9-9.096v-8.81C37,7.125,41.527,4,46,4s9,3.125,9,9.095v8.81
	C55,27.877,50.473,31,46,31z M46,7.567c-2.723,0-5.471,1.71-5.471,5.527v8.81c0,3.819,2.748,5.527,5.471,5.528
	c2.725,0,5.471-1.71,5.471-5.528v-8.809C51.471,9.277,48.723,7.567,46,7.567z"/>
<path fill="#99A8AE" d="M45.646,7.581c-0.117-0.006-0.234-0.014-0.352-0.014c-2.723,0-5.471,1.71-5.471,5.527v8.81
	c0,3.819,2.746,5.528,5.471,5.528c0.117-0.001,0.234-0.009,0.352-0.015c-2.602-0.142-5.117-1.859-5.117-5.514v-8.81
	C40.529,9.441,43.045,7.724,45.646,7.581z"/>
<path fill="#99A8AE" d="M46,4c-0.117,0-0.234,0.011-0.352,0.015c4.354,0.161,8.646,3.267,8.645,9.08l0.002,8.81
	c0,5.814-4.293,8.92-8.646,9.08C45.766,30.989,45.883,31,46,31c4.473,0,9-3.123,9-9.096v-8.81C55,7.125,50.473,4,46,4z"/>
<path fill="#BEC3CF" d="M48,37.941c0,2.746-4,2.746-4,0V26.059c0-2.746,4-2.746,4,0V37.941z"/>
<path fill="#99A8AE" d="M45.443,24.081c1.279,0,1.896,0.864,1.896,1.978v11.882c0,1.113-0.617,1.979-1.896,1.979
	C46.59,40.227,48,39.572,48,37.941V26.059C48,24.427,46.59,23.773,45.443,24.081z"/>
<path fill="#BEC3CF" d="M48,62h-4v-6.941c0-2.744,4-2.744,4,0V62z"/>
<path fill="#99A8AE" d="M45.443,53.082c1.277,0,1.896,0.863,1.896,1.977V62H48v-6.941C48,53.428,46.59,52.773,45.443,53.082z"/>
<path fill="#BEC3CF" d="M48,2h-4v6.942c0,2.744,4,2.744,4,0V2z"/>
<path fill="#99A8AE" d="M45.443,10.919c1.277,0,1.896-0.864,1.896-1.977V2H48v6.942C48,10.573,46.59,11.227,45.443,10.919z"/>
<path fill="#CFD8DD" d="M18,45c-4.473,0-9-3.123-9-9.094v-8.812C9,21.125,13.527,18,17.999,18C22.473,18,27,21.125,27,27.095v8.81
	C27,41.877,22.473,45,18,45z M18,21.567c-2.724,0-5.471,1.71-5.471,5.527l0.001,8.81c-0.001,3.82,2.746,5.529,5.469,5.529
	c2.725,0,5.472-1.709,5.472-5.527v-8.811C23.471,23.277,20.723,21.567,18,21.567z"/>
<path fill="#99A8AE" d="M17.646,21.581c-0.117-0.006-0.235-0.014-0.353-0.014c-2.722,0-5.47,1.71-5.47,5.527v8.812
	c0,3.818,2.746,5.527,5.47,5.527c0.117-0.002,0.235-0.008,0.353-0.016c-2.603-0.141-5.117-1.859-5.116-5.514l-0.001-8.81
	C12.529,23.441,15.045,21.724,17.646,21.581z"/>
<path fill="#99A8AE" d="M17.999,18c-0.117,0-0.234,0.011-0.352,0.015c4.354,0.161,8.646,3.267,8.646,9.08l0.001,8.81
	c0,5.814-4.292,8.92-8.646,9.082C17.765,44.99,17.882,45,18,45c4.473,0,9-3.123,9-9.096v-8.81C27,21.125,22.473,18,17.999,18z"/>
<path fill="#CFD8DD" d="M23.471,2v4.904c0,3.818-2.747,5.528-5.472,5.528c-2.723-0.001-5.47-1.709-5.47-5.528V2H9v4.904
	C9,12.877,13.527,16,18,16s9-3.123,9-9.096V2H23.471z"/>
<path fill="#99A8AE" d="M11.824,6.904c0,3.819,2.746,5.528,5.47,5.528c0.117-0.001,0.235-0.009,0.353-0.015
	c-2.603-0.142-5.117-1.859-5.117-5.514V2h-0.705V6.904z"/>
<path fill="#99A8AE" d="M26.293,2l0.001,4.904c0,5.814-4.292,8.92-8.646,9.08C17.765,15.989,17.882,16,18,16
	c4.473,0,9-3.123,9-9.096V2H26.293z"/>
<path fill="#CFD8DD" d="M23.471,62v-4.904c0-3.818-2.747-5.527-5.472-5.527c-2.723,0-5.47,1.709-5.47,5.527V62H9v-4.904
	C9,51.123,13.527,48,18,48s9,3.123,9,9.096V62H23.471z"/>
<path fill="#99A8AE" d="M11.824,57.096c0-3.818,2.746-5.527,5.47-5.527c0.117,0,0.235,0.008,0.353,0.014
	c-2.603,0.143-5.117,1.859-5.117,5.514V62h-0.705V57.096z"/>
<path fill="#99A8AE" d="M26.293,62l0.001-4.904c0-5.814-4.292-8.92-8.646-9.08C17.765,48.012,17.882,48,18,48
	c4.473,0,9,3.123,9,9.096V62H26.293z"/>
<path fill="#BEC3CF" d="M20,22.941c0,2.745-4,2.745-4,0V11.059c0-2.746,4-2.746,4,0V22.941z"/>
<path fill="#99A8AE" d="M17.443,9.081c1.278,0,1.896,0.864,1.896,1.978v11.882c0,1.113-0.617,1.978-1.896,1.978
	C18.59,25.227,20,24.572,20,22.941V11.059C20,9.427,18.59,8.773,17.443,9.081z"/>
<path fill="#BEC3CF" d="M20,52.941c0,2.746-4,2.746-4,0V41.059c0-2.744,4-2.744,4,0V52.941z"/>
<path fill="#99A8AE" d="M17.443,39.082c1.278,0,1.896,0.863,1.896,1.977v11.883c0,1.113-0.617,1.979-1.896,1.979
	C18.59,55.227,20,54.572,20,52.941V41.059C20,39.428,18.59,38.773,17.443,39.082z"/>
</svg>
