<?xml version="1.0" encoding="utf-8"?>
<!-- Generator: Adobe Illustrator 15.0.0, SVG Export Plug-In . SVG Version: 6.00 Build 0)  -->
<!DOCTYPE svg PUBLIC "-//W3C//DTD SVG 1.1//EN" "http://www.w3.org/Graphics/SVG/1.1/DTD/svg11.dtd">
<svg version="1.1" id="Layer_1" xmlns="http://www.w3.org/2000/svg" xmlns:xlink="http://www.w3.org/1999/xlink" x="0px" y="0px"
	 width="64px" height="64px" viewBox="0 0 64 64" enable-background="new 0 0 64 64" xml:space="preserve">
<rect x="12" y="16" fill="#C21413" width="8" height="36"/>
<rect x="14" y="14" fill="#E81C27" width="4" height="36"/>
<rect x="12" y="28" fill="#B00505" width="8" height="2"/>
<rect x="10" y="14" fill="#E81C27" width="12" height="4"/>
<rect x="10" y="12" fill="#B00505" width="12" height="4"/>
<rect x="12" y="18" fill="#B00505" width="8" height="2"/>
<path fill="#B00505" d="M24,22c-2.143,1.429-12.838,2.106-16,0v2.667c2.666,1.778,13.336,1.775,16,0V22z"/>
<rect x="12" y="50" fill="#302C3B" width="8" height="4"/>
<rect x="14" y="50" fill="#474D51" width="4" height="2"/>
<rect x="10" y="54" fill="#302C3B" width="12" height="8"/>
<rect x="12" y="54" fill="#474D51" width="8" height="8"/>
<rect x="44" y="16" fill="#C21413" width="8" height="36"/>
<rect x="46" y="14" fill="#E81C27" width="4" height="36"/>
<rect x="44" y="28" fill="#B00505" width="8" height="2"/>
<rect x="42" y="14" fill="#E81C27" width="12" height="4"/>
<rect x="42" y="12" fill="#B00505" width="12" height="4"/>
<rect x="44" y="18" fill="#B00505" width="8" height="2"/>
<path fill="#B00505" d="M56,22c-2.143,1.429-12.838,2.106-16,0v2.667c2.666,1.778,13.336,1.775,16,0V22z"/>
<rect x="44" y="50" fill="#302C3B" width="8" height="4"/>
<rect x="46" y="50" fill="#474D51" width="4" height="2"/>
<rect x="42" y="54" fill="#302C3B" width="12" height="8"/>
<rect x="44" y="54" fill="#474D51" width="8" height="8"/>
<rect x="28" y="14" fill="#C21413" width="8" height="12"/>
<rect x="28" y="14" fill="#B00505" width="8" height="4"/>
<rect x="6" y="24" fill="#E81C27" width="52" height="4"/>
<path fill="#C21413" d="M32,12c-16.753,0-26-2-26-2l0.685,4c0,0,8.732,2,25.315,2c16.584,0,25.316-2,25.316-2L58,10
	C58,10,48.754,12,32,12z"/>
<path fill="#B00505" d="M32,10C15.247,10,5.594,8,5.594,8l0.748,4c0,0,9.075,2,25.658,2c16.584,0,25.658-2,25.658-2l0.764-4
	C58.422,8,48.754,10,32,10z"/>
<path fill="#E81C27" d="M32,7.667C13.958,7.667,4,5,4,5l0.737,5.333c0,0,9.404,2.667,27.263,2.667
	c17.859,0,27.264-2.667,27.264-2.667L60,5C60,5,50.043,7.667,32,7.667z"/>
<path fill="#B00505" d="M32,5.667C13.777,5.667,3.719,3,3.719,3l0.744,5.333c0,0,9.5,2.667,27.537,2.667
	c18.039,0,27.537-2.667,27.537-2.667L60.281,3C60.281,3,50.225,5.667,32,5.667z"/>
<path fill="#302C3B" d="M32,4.668C12.67,4.668,2,2,2,2l0.789,5.332C2.789,7.332,12.865,10,32,10s29.213-2.668,29.213-2.668L62,2
	C62,2,51.332,4.668,32,4.668z"/>
</svg>
