<?xml version="1.0" encoding="utf-8"?>
<!-- Generator: Adobe Illustrator 15.0.0, SVG Export Plug-In . SVG Version: 6.00 Build 0)  -->
<!DOCTYPE svg PUBLIC "-//W3C//DTD SVG 1.1//EN" "http://www.w3.org/Graphics/SVG/1.1/DTD/svg11.dtd">
<svg version="1.1" id="Layer_1" xmlns="http://www.w3.org/2000/svg" xmlns:xlink="http://www.w3.org/1999/xlink" x="0px" y="0px"
	 width="64px" height="64px" viewBox="0 0 64 64" enable-background="new 0 0 64 64" xml:space="preserve">
<path fill="#FED0AC" d="M54.046,47.754c-8.063-0.043-16.726,2.23-22.5,2.906c-8.551,1-10.188-2.406-18.5-1.406
	C8.194,49.838,2,53.998,2,53.998V62h60V48.998C62,48.998,59.055,47.78,54.046,47.754z"/>
<path fill="#C4926E" d="M55.904,52.865c-0.047,0.557-1.338,0.539-2.778,0.344c-0.843,1.186-1.832,1.689-2.392,1.668
	c-0.32-0.011-0.573-1.192-0.532-2.309c-1.497-0.448-2.563-0.987-2.519-1.416C47.948,48.676,56.004,51.635,55.904,52.865z"/>
<path fill="#E03636" d="M50.919,45.848c0.351-0.104,1.266,0.823,2.236,2.146c1.552-0.391,2.776-0.586,2.851-0.329
	c0.116,0.415-0.281,1.536-1.201,2.854c0.762,1.311,1.293,2.326,1.043,2.545c-0.439,0.381-1.437,0.074-2.896-0.28
	c-1.039,1.087-1.711,1.882-2.287,1.798c-0.328-0.047-0.428-1.19-0.497-2.705c-1.483-0.613-2.425-1.342-2.548-1.756
	c-0.078-0.254,1.058-0.751,2.576-1.26C50.298,47.223,50.568,45.949,50.919,45.848z"/>
<polygon fill="#C4926E" points="15.923,56.82 14.188,55.818 21.896,49.883 23.887,50.342 "/>
<path fill="#302C3B" d="M44.917,2.591l-2.496,4.324l1.731,1l2.496-4.323C47.385,2.315,45.653,1.315,44.917,2.591z"/>
<rect x="23.679" y="20.403" transform="matrix(0.8661 0.4999 -0.4999 0.8661 23.1273 -7.0273)" fill="#BEC3CF" width="2" height="38.496"/>
<polygon fill="#99A8AE" points="30.109,32.244 27.313,33.088 32.304,24.441 34.036,25.441 "/>
<path fill="#F9C802" d="M43.786,6.551L30.807,29.035c2.832-1.172,6.19-1.052,9.097,0.627c2.907,1.678,4.689,4.526,5.09,7.566
	C50.951,23.784,50.919,10.67,43.786,6.551z"/>
<path fill="#F9B700" d="M43.786,6.551c5.076,3.588,5.736,22.068-3.883,23.111c2.907,1.678,4.689,4.526,5.09,7.566
	C50.951,23.784,50.88,10.647,43.786,6.551z"/>
<path fill="#F26887" d="M43.786,6.551L30.807,29.035c-0.403-3.041-2.187-5.889-5.091-7.566c-2.907-1.678-6.264-1.798-9.098-0.626
	C25.278,8.959,36.652,2.431,43.786,6.551z"/>
<path fill="#D74189" d="M43.786,6.551L30.807,29.035c-0.403-3.041-2.187-5.889-5.091-7.566
	C34.091,23.345,36.174,15.612,43.786,6.551z"/>
<path fill="#92C932" d="M43.786,6.551c7.133,4.119,7.165,17.233,1.207,30.677c2.834-1.172,6.192-1.052,9.098,0.626
	c2.536,1.465,4.215,3.82,4.873,6.414C63.341,30.238,57.364,14.391,43.786,6.551z"/>
<path fill="#7AB51D" d="M43.786,6.551c9.54,5.509,17.453,23.095,10.305,31.303c2.536,1.465,4.215,3.82,4.873,6.414
	C63.341,30.238,57.364,14.391,43.786,6.551z"/>
<path fill="#0FB4D4" d="M43.786,6.551c-7.134-4.12-18.508,2.409-27.168,14.291c-0.4-3.04-2.185-5.888-5.091-7.566
	c-2.535-1.464-5.416-1.742-7.989-1.013C13.495,1.456,30.205-1.292,43.786,6.551z"/>
<path fill="#018BC9" d="M43.786,6.551c-7.134-4.12-18.508,2.409-27.168,14.291c-0.4-3.04-2.185-5.888-5.091-7.566
	C20.484,16.769,31.894-0.062,43.786,6.551z"/>
<path fill="#FFE1BD" d="M10.915,54.414c0,1.334-2,1.334-2,0C8.915,53.082,10.915,53.082,10.915,54.414z"/>
<path fill="#FFE1BD" d="M7.103,57.49c0,2-3,2-3,0C4.103,55.489,7.103,55.489,7.103,57.49z"/>
<path fill="#FFE1BD" d="M36.667,58.557c0,2-3,2-3,0S36.667,56.557,36.667,58.557z"/>
<path fill="#FFE1BD" d="M46.38,54.588c0,2-3,2-3,0S46.38,52.588,46.38,54.588z"/>
<path fill="#FFE1BD" d="M58.747,58.989c0,2.001-3,2.001-3,0C55.747,56.989,58.747,56.989,58.747,58.989z"/>
<path fill="#FFE1BD" d="M52.626,57.82c0,1.334-2,1.334-2,0S52.626,56.486,52.626,57.82z"/>
<path fill="#FFE1BD" d="M59.247,53.363c0,1.334-2,1.334-2,0S59.247,52.029,59.247,53.363z"/>
<path fill="#FFE1BD" d="M45.6,57.989c0,1.334-2,1.334-2,0C43.6,56.656,45.6,56.656,45.6,57.989z"/>
<path fill="#FFE1BD" d="M13.561,59.314c0,1.334-2,1.334-2,0S13.561,57.98,13.561,59.314z"/>
<path fill="#FFE1BD" d="M24.679,58.557c0,1.334-2,1.334-2,0S24.679,57.223,24.679,58.557z"/>
<path fill="#FFE1BD" d="M33,55.415c0,1.333-2,1.333-2,0C31,54.081,33,54.081,33,55.415z"/>
</svg>
