<?xml version="1.0" encoding="utf-8"?>
<!-- Generator: Adobe Illustrator 15.0.0, SVG Export Plug-In . SVG Version: 6.00 Build 0)  -->
<!DOCTYPE svg PUBLIC "-//W3C//DTD SVG 1.1//EN" "http://www.w3.org/Graphics/SVG/1.1/DTD/svg11.dtd">
<svg version="1.1" id="Layer_1" xmlns="http://www.w3.org/2000/svg" xmlns:xlink="http://www.w3.org/1999/xlink" x="0px" y="0px"
	 width="64px" height="64px" viewBox="0 0 64 64" enable-background="new 0 0 64 64" xml:space="preserve">
<path fill="#99A8AE" d="M32,56.545c-12.15,0-22-2.031-22-4.545v5.455C10,59.969,19.85,62,32,62s22-2.031,22-4.545V52
	C54,54.514,44.15,56.545,32,56.545z"/>
<path fill="#6E8189" d="M32,57c-9.652,0-18.107-1.563-22-3v2c0,0,8,3,22,3c15,0,22-3,22-3v-2C50.107,55.438,41.652,57,32,57z"/>
<path fill="#99A8AE" d="M32,51.688C18.191,51.688,7,49.59,7,47v5c0,2.59,11.191,5,25,5s25-2.41,25-5v-5
	C57,49.59,45.809,51.688,32,51.688z"/>
<path fill="#CFD8DD" d="M32,42c13.807,0,25,2.411,25,5s-11.193,5-25,5S7,49.589,7,47S18.193,42,32,42z"/>
<ellipse fill="#0FB4D4" cx="32" cy="47" rx="21" ry="3"/>
<path fill="#99A8AE" d="M32,45.818c-5.521,0-10-0.813-10-1.818v2.182C22,47.186,26.479,48,32,48s10-0.813,10-1.818V44
	C42,45.007,37.521,45.818,32,45.818z"/>
<ellipse fill="#CFD8DD" cx="32" cy="44" rx="10" ry="2"/>
<path fill="#99A8AE" d="M35,42c-1.438-1.107-1-7-1-7h-4c0,0,0,6-1,7c-0.714,0.714-4,1.093-4,2c0,0.42,3.141,1,7,1
	c3.861,0,7-0.516,7-1C39,43.094,35.8,42.617,35,42z"/>
<path fill="#6E8189" d="M34,35h-4c0,0,0,1.117-0.081,2.467c1.218,0.68,2.783,0.695,4.024,0.063C33.915,36.15,34,35,34,35z"/>
<path fill="#99A8AE" d="M36,33c0,5.333-8,5.333-8,0H36z"/>
<path fill="#6E8189" d="M28,33c0,1.252,0.45,2.198,1.125,2.861c1.874,0.283,3.876,0.283,5.75,0C35.55,35.198,36,34.252,36,33H28z"/>
<path fill="#99A8AE" d="M42,31c-3,5.438-17,5.438-20,0H42z"/>
<path fill="#6E8189" d="M22,31c0.366,0.663,0.896,1.244,1.55,1.745C26.13,33.68,29.927,34,32,34s5.87-0.32,8.45-1.255
	C41.104,32.244,41.635,31.663,42,31H22z"/>
<path fill="#99A8AE" d="M17,25c0,2,3.665,5.118,5,6c2.295,1.516,7.451,2,10,2c2.55,0,7.705-0.484,10-2c1.336-0.882,5-4,5-6H17z"/>
<ellipse fill="#CFD8DD" cx="32" cy="25" rx="15" ry="2"/>
<ellipse fill="#0FB4D4" cx="32" cy="25" rx="13" ry="1"/>
<path fill="#018BC9" d="M16,48.066c0,0,0.544,0.434,3.55,0.434c0.002,0-0.127-21.819,4.45-22.733C24,25.767,16,18.755,16,48.066z"/>
<path fill="#018BC9" d="M40,25.767c4.577,0.914,4.448,22.733,4.45,22.733c3.006,0,3.55-0.434,3.55-0.434
	C48,18.755,40,25.767,40,25.767z"/>
<path fill="#0FB4D4" d="M42,14.5c-2.125-1.5-7.375-2.438-9.843,5.109c0-15.776,8.422-15.696,9.343-15.696c0.553,0,1-0.429,1-0.957
	C42.5,2.427,42.053,2,41.5,2C32,2,31.46,13,31.46,18.154C29.523,8.703,23,10.188,22,10.695c-0.493,0.25-1,0.777-1,1.305
	s0.477,0.785,1,0.609c7-2.359,9.46,5.545,9.689,9.068l0.055,0.5c-1.993-6.043-5.766-5.31-6.744-4.873C24,17.75,23.781,18.52,24,19
	c0.313,0.688,0.932,0.23,1.456,0.055C29.919,17.563,32,24,32,24c0.859-2.542,6-2.87,6-2.87c0.553,0,1-0.428,1-0.957
	c0-0.528-0.447-0.957-1-0.957c-4,0-5.968,3.052-5.997,3.69c0-6.096,5.997-8.782,9.497-6.471C42.411,17.039,43,16.527,43,16
	S42.451,14.818,42,14.5z"/>
<path fill="#75D6FF" d="M24.346,14c-2.13-0.023-1.341,2.521-0.298,1.902C25.605,14.98,27,15.141,27,15.141S26.008,14.018,24.346,14z
	"/>
<path fill="#75D6FF" d="M25.65,8.884C27.799,9.607,29,11,29,11s-0.117-1.755-1.675-3.286C25.329,5.753,24.213,8.4,25.65,8.884z"/>
<path fill="#75D6FF" d="M21.941,18.675C22.305,17.602,23,17,23,17s-0.877,0.059-1.643,0.838
	C20.377,18.836,21.7,19.393,21.941,18.675z"/>
<path fill="#75D6FF" d="M36.675,9.714C35.117,11.245,35,13,35,13s1.201-1.393,3.35-2.116C39.788,10.4,38.671,7.753,36.675,9.714z"/>
<path fill="#75D6FF" d="M41.643,7.838C40.877,7.059,40,7,40,7s0.695,0.602,1.059,1.675C41.3,9.393,42.623,8.836,41.643,7.838z"/>
<path fill="#75D6FF" d="M39,17c0,0,0.695,0.602,1.059,1.675c0.241,0.718,1.564,0.161,0.584-0.837C39.877,17.059,39,17,39,17z"/>
<path fill="#75D6FF" d="M30,6.997C29.982,9.489,31.074,11,31.074,11s-0.127-2.094,0.822-4.412C32.533,5.038,30.023,3.802,30,6.997z"
	/>
<path fill="#75D6FF" d="M14.354,47.14c1.537,2.475,6.479,2.107,7.258,0C20.477,48.144,16.24,48.457,14.354,47.14z"/>
<path fill="#75D6FF" d="M42.389,47.14c1.537,2.475,6.479,2.107,7.258,0C48.512,48.144,44.275,48.457,42.389,47.14z"/>
<path fill="#75D6FF" d="M40.65,44.884C42.799,45.607,44,47,44,47s-0.117-1.755-1.675-3.286C40.329,41.753,39.213,44.4,40.65,44.884z
	"/>
<path fill="#75D6FF" d="M51.451,45.032c-1.713,0.577-2.67,1.687-2.67,1.687s0.094-1.398,1.334-2.619
	C51.707,42.537,52.596,44.647,51.451,45.032z"/>
<path fill="#75D6FF" d="M45,42.997C44.982,45.489,46.074,47,46.074,47s-0.127-2.094,0.822-4.412
	C47.533,41.038,45.023,39.802,45,42.997z"/>
<path fill="#75D6FF" d="M13.15,44.603c2.148,0.724,3.35,2.116,3.35,2.116s-0.117-1.755-1.675-3.286
	C12.829,41.472,11.713,44.119,13.15,44.603z"/>
<path fill="#75D6FF" d="M21.455,43.923c-1.186,1.581-1.201,3.059-1.201,3.059s0.905-1.396,2.604-2.426
	C23.994,43.867,22.977,41.896,21.455,43.923z"/>
<path fill="#75D6FF" d="M17.707,44.109c-0.254,1.96,0.459,3.255,0.459,3.255s0.102-1.661,1.074-3.394
	C19.891,42.813,18.035,41.597,17.707,44.109z"/>
</svg>
