<?xml version="1.0" encoding="utf-8"?>
<!-- Generator: Adobe Illustrator 15.0.0, SVG Export Plug-In . SVG Version: 6.00 Build 0)  -->
<!DOCTYPE svg PUBLIC "-//W3C//DTD SVG 1.1//EN" "http://www.w3.org/Graphics/SVG/1.1/DTD/svg11.dtd">
<svg version="1.1" id="Layer_1" xmlns="http://www.w3.org/2000/svg" xmlns:xlink="http://www.w3.org/1999/xlink" x="0px" y="0px"
	 width="64px" height="64px" viewBox="0 0 64 64" enable-background="new 0 0 64 64" xml:space="preserve">
<ellipse fill="#7AB51D" cx="32" cy="49.72" rx="30" ry="12.28"/>
<path fill="#529320" d="M28,46.999c0,0,3-6.553,5.645-9.559l-0.91,0.004c0,0-4.725,5.709-6.709,9.318L28,46.999z"/>
<ellipse fill="#E6EBEF" cx="26.625" cy="50.335" rx="8.729" ry="3.666"/>
<path fill="#6E8189" d="M28.129,53.947c0,0-1.219,0.124-2.568,0.052v-7.236l2.568-0.039V53.947z"/>
<path fill="#302C3B" d="M26.625,48.243c4.176,0,7.662,1.232,8.521,2.879c0.133-0.254,0.207-0.516,0.207-0.787
	c0-2.023-3.908-3.666-8.729-3.666s-8.729,1.643-8.729,3.666c0,0.271,0.074,0.533,0.205,0.787
	C18.961,49.476,22.447,48.243,26.625,48.243z"/>
<path fill="#E81C27" d="M26,3.188c0,5.875,0,11.75,0,17.625C35.668,24.925,45.334,7.887,55,12C45.334,2.012,35.668,13.175,26,3.188z
	"/>
<path fill="#B47D56" d="M25,3.059v50.94L27,54V3.06C27,1.646,25,1.646,25,3.059z"/>
<path fill="#785647" d="M25.498,2.135c0.283,0.161,0.5,0.455,0.5,0.912l0.004,50.939H27V3.047C27,2.091,26.09,1.798,25.498,2.135z"
	/>
<rect x="25" y="53.169" fill="#785647" width="2" height="0.83"/>
</svg>
