<?xml version="1.0" encoding="utf-8"?>
<!-- Generator: Adobe Illustrator 16.2.0, SVG Export Plug-In . SVG Version: 6.00 Build 0)  -->
<!DOCTYPE svg PUBLIC "-//W3C//DTD SVG 1.1//EN" "http://www.w3.org/Graphics/SVG/1.1/DTD/svg11.dtd">
<svg version="1.1" id="Layer_1" xmlns="http://www.w3.org/2000/svg" xmlns:xlink="http://www.w3.org/1999/xlink" x="0px" y="0px"
	 width="64px" height="64px" viewBox="0 0 64 64" enable-background="new 0 0 64 64" xml:space="preserve">
<g>
	<polygon fill="#E81C27" points="62,62 16,62 4,48 62,48 	"/>
	<polygon fill="#99A8AE" points="62,34 16,34 10,44 62,44 	"/>
	<rect x="30" y="36" fill="#018BC9" width="6" height="6"/>
	<rect x="38" y="36" fill="#018BC9" width="6" height="6"/>
	<rect x="46" y="36" fill="#018BC9" width="6" height="6"/>
	<rect x="54" y="36" fill="#018BC9" width="6" height="6"/>
	<rect x="22" y="36" fill="#018BC9" width="6" height="6"/>
	<polygon fill="#018BC9" points="20,42 14,42 18,36 20,36 	"/>
	<path fill="#CFD8DD" d="M62,34H13.65c-0.55,0-1.202-0.402-1.448-0.895l-2.107-4.211C9.849,28.402,10.098,28,10.648,28H62V34z"/>
	<path fill="#CFD8DD" d="M62,18H28.648c-0.55,0-0.799-0.402-0.553-0.895l2.107-4.211C30.449,12.402,31.1,12,31.65,12H62V18z"/>
	<polygon fill="#99A8AE" points="62,28 28,28 33,18 62,18 	"/>
	<polygon fill="#018BC9" points="38,26 32,26 35,20 38,20 	"/>
	<rect x="40" y="20" fill="#018BC9" width="6" height="6"/>
	<rect x="48" y="20" fill="#018BC9" width="6" height="6"/>
	<rect x="56" y="20" fill="#018BC9" width="6" height="6"/>
	<rect x="38" y="6" fill="#E81C27" width="2" height="6"/>
	<rect x="42" y="8" fill="#014D87" width="2" height="4"/>
	<rect x="42" y="22" fill="#CFD8DD" width="20" height="2"/>
	<rect x="48" y="38" fill="#CFD8DD" width="14" height="2"/>
	<rect x="58" y="23.999" fill="#E6EBEF" width="2" height="4"/>
	<rect x="58" y="40" fill="#E6EBEF" width="2" height="4"/>
	<rect x="54" y="40" fill="#E6EBEF" width="2" height="4"/>
	<rect x="50" y="40" fill="#E6EBEF" width="2" height="4"/>
	<rect x="54" y="24" fill="#E6EBEF" width="2" height="4"/>
	<rect x="50" y="24" fill="#E6EBEF" width="2" height="4"/>
	<rect x="46" y="24" fill="#E6EBEF" width="2" height="4"/>
	<rect x="42" y="24" fill="#E6EBEF" width="2" height="4"/>
	<rect x="2" y="38" fill="#CFD8DD" width="22" height="2"/>
	<rect x="20" y="40" fill="#E6EBEF" width="2" height="4"/>
	<rect x="16" y="40" fill="#E6EBEF" width="2" height="4"/>
	<rect x="12" y="40" fill="#E6EBEF" width="2" height="4"/>
	<rect x="8" y="40" fill="#E6EBEF" width="2" height="4"/>
	<rect x="4" y="40" fill="#E6EBEF" width="2" height="4"/>
</g>
<path fill="#006DAE" d="M4,44c-1.104,0-2,0.896-2,2s0.896,2,2,2h58v-4H4z"/>
</svg>
