<?xml version="1.0" encoding="utf-8"?>
<!-- Generator: Adobe Illustrator 16.2.0, SVG Export Plug-In . SVG Version: 6.00 Build 0)  -->
<!DOCTYPE svg PUBLIC "-//W3C//DTD SVG 1.1//EN" "http://www.w3.org/Graphics/SVG/1.1/DTD/svg11.dtd">
<svg version="1.1" id="Layer_1" xmlns="http://www.w3.org/2000/svg" xmlns:xlink="http://www.w3.org/1999/xlink" x="0px" y="0px"
	 width="64px" height="64px" viewBox="0 0 64 64" enable-background="new 0 0 64 64" xml:space="preserve">
<path fill="#89664C" d="M5,49.202c0,0,3.788-4.679,7.561-7.785C12.561,41.417,7.284,47.571,5,49.202z"/>
<polygon fill="#F9C802" points="32.57,10 32.57,39.5 48.57,39.5 "/>
<rect x="31.465" y="2" fill="#302C3B" width="1.069" height="9.644"/>
<path fill="#FEEC9A" d="M31,10c0,0-14.667,21.694-22,35c0,0,9.993-3.179,22-3.179V10z"/>
<path fill="#E03636" d="M31,32.05v-3.524c-1.162-0.646-4.411-2.226-9.998-3.301c-0.627,0.979-1.265,1.98-1.906,2.992
	C22.933,28.797,27.258,29.919,31,32.05z"/>
<path fill="#F9C802" d="M31,36.646V32.05c-3.742-2.131-8.067-3.253-11.904-3.833c-1.109,1.75-2.228,3.536-3.326,5.315
	C25.45,33.773,29.678,35.812,31,36.646z"/>
<path fill="#E03636" d="M32.535,2v4c2.711,0,5.329-2.534,8-2C37.864,2.134,35.205,3.868,32.535,2z"/>
<path fill="#967668" d="M32.001,7.357C31.453,7.357,31,7.839,31,8.429v40.716h2V8.429C33,7.839,32.553,7.357,32.001,7.357z"/>
<path fill="#967668" d="M47.873,39H32v2h15.873C48.498,41,49,40.554,49,40.002S48.498,39,47.873,39z"/>
<path fill="#302C3B" d="M59,62H14.721l-2.16-2.135C12.561,59.865,30.559,56.492,59,62z"/>
<path fill="#E6EBEF" d="M5,49.202c0,0,10.447,0,11.881,0c1.08,0,2.093-3.202,3.238-3.202c4.806,0,4.806,0,9.721,0
	c0.973,0,2.552,1.452,3.238,2.134c1.891,1.866,7.563,1.466,22.684,6.4l1.078,2.134L5,49.202z"/>
<path fill="#CFD8DD" d="M5,49.202c0,0,1.98,4.267,7.561,10.663c0,0,31.943,2.135,46.439,2.135l-2.16-5.332
	C56.84,56.668,32,49.202,5,49.202z"/>
<path fill="#302C3B" d="M29,48.496C29,48.773,28.775,49,28.501,49h-1C27.225,49,27,48.773,27,48.496v-0.997
	C27,47.223,27.225,47,27.501,47h1C28.775,47,29,47.223,29,47.499V48.496z"/>
<path fill="#302C3B" d="M25,48.496C25,48.773,24.775,49,24.501,49h-3C21.227,49,21,48.773,21,48.496v-0.997
	C21,47.223,21.227,47,21.501,47h3C24.775,47,25,47.223,25,47.499V48.496z"/>
<rect x="45.394" y="51.288" fill="#FFFFFF" width="1.069" height="2.144"/>
<rect x="45.394" y="59.856" fill="#FFFFFF" width="1.069" height="2.144"/>
<rect x="49.145" y="56.109" fill="#FFFFFF" width="2.143" height="1.069"/>
<rect x="40.572" y="56.109" fill="#FFFFFF" width="2.143" height="1.069"/>
<g>
	<path fill="#E03636" d="M43.549,56.645h-1.907c0-2.362,1.925-4.286,4.286-4.286v1.906C44.616,54.265,43.549,55.332,43.549,56.645z"
		/>
</g>
<g>
	<path fill="#E03636" d="M45.928,60.931v-1.903c1.314,0,2.384-1.071,2.384-2.383h1.902C50.214,59.006,48.292,60.931,45.928,60.931z"
		/>
</g>
<g>
	<path fill="#FFFFFF" d="M45.928,60.931c-2.361,0-4.286-1.925-4.286-4.286h1.907c0,1.312,1.067,2.383,2.379,2.383V60.931z"/>
</g>
<g>
	<path fill="#FFFFFF" d="M50.214,56.645h-1.902c0-1.313-1.069-2.38-2.384-2.38v-1.906C48.292,52.358,50.214,54.282,50.214,56.645z"
		/>
</g>
<g>
	<path fill="#785647" d="M41.374,56.109H40.84c0.004-0.089,0.095-2.195,1.278-3.385c1.242-1.242,3.191-1.167,3.275-1.169v0.535
		c-0.012-0.004-1.821-0.061-2.894,1.012C41.464,54.141,41.376,56.086,41.374,56.109z"/>
</g>
<g>
	<path fill="#785647" d="M51.021,57.18c-0.006,0.09-0.094,2.194-1.283,3.385c-1.242,1.24-3.192,1.166-3.274,1.168v-0.534
		c0.014,0.004,1.821,0.062,2.896-1.01c1.039-1.04,1.122-2.984,1.122-3.009H51.021z"/>
</g>
<g>
	<path fill="#785647" d="M50.481,56.109c0-0.023-0.083-1.969-1.122-3.007c-1.075-1.072-2.883-1.015-2.896-1.011v-0.535
		c0.08,0.002,2.032-0.072,3.274,1.169c1.189,1.189,1.277,3.295,1.283,3.384H50.481z"/>
</g>
<g>
	<path fill="#785647" d="M45.302,61.732c-0.426,0-2.087-0.071-3.184-1.168c-1.184-1.19-1.274-3.294-1.278-3.386h0.534
		c0.002,0.021,0.09,1.969,1.126,3.008c1.073,1.071,2.882,1.017,2.894,1.011v0.534C45.384,61.732,45.358,61.732,45.302,61.732z"/>
</g>
<circle fill="#302C3B" cx="12" cy="52" r="1"/>
</svg>
