<?xml version="1.0" encoding="utf-8"?>
<!-- Generator: Adobe Illustrator 15.0.0, SVG Export Plug-In . SVG Version: 6.00 Build 0)  -->
<!DOCTYPE svg PUBLIC "-//W3C//DTD SVG 1.1//EN" "http://www.w3.org/Graphics/SVG/1.1/DTD/svg11.dtd">
<svg version="1.1" id="Layer_1" xmlns="http://www.w3.org/2000/svg" xmlns:xlink="http://www.w3.org/1999/xlink" x="0px" y="0px"
	 width="64px" height="64px" viewBox="0 0 64 64" enable-background="new 0 0 64 64" xml:space="preserve">
<path fill="#FDCA47" d="M12.404,17.922c1.133,0.769,2.803,3.513,2.728,4.905c-0.069,1.323,1.194,0.934,1.726,0.433
	c0.46,0.241,0.346,0.529,0.346,0.529s1.099-0.153,1.102,0.141c-0.205,0.196-0.03,0.753,0.523,0.585
	c0.609-0.185,1.003,2.274,2.576,0.56c1.27-1.389,6.35-7.312,6.415-7.944C27.896,16.412,14.967,15.508,12.404,17.922z"/>
<path fill="#F5BC2C" d="M19.227,21.845c0.257,1.321,0.068,2.241-0.146,2.735c-0.74,0.364-1.059-0.504-0.792-0.756
	C18.495,23.629,18.678,23.056,19.227,21.845z"/>
<path fill="#E6A400" d="M19.227,21.845c-0.018,0.973-0.905,2.037-0.905,2.037c-0.189,0.091-0.707,0.358-1.118-0.093
	C17.699,23.748,18.764,22.838,19.227,21.845z"/>
<path fill="#CAE8F0" d="M62,31.297C42.748,40.654,19.486,49.8,2,52.018v9.981h60V31.297z"/>
<path fill="#D9F1F7" d="M2,61.999h60V37.394c-13.918,6.983-35.611,17.65-60,19.498V61.999z"/>
<path fill="#EDFCFF" d="M56.486,43.458c-0.527-0.727,1.654-2.314,2.184-1.586C59.199,42.599,57.016,44.186,56.486,43.458z"/>
<path fill="#EDFCFF" d="M56.854,39.17c-0.447-0.615,1.398-1.956,1.846-1.34C59.146,38.443,57.301,39.785,56.854,39.17z"/>
<path fill="#EDFCFF" d="M54.516,49.38c-0.783-1.078,2.453-3.43,3.238-2.352C58.537,48.106,55.301,50.458,54.516,49.38z"/>
<path fill="#EDFCFF" d="M50.422,44.048c-0.477-0.657,1.498-2.094,1.977-1.434C52.877,43.271,50.9,44.708,50.422,44.048z"/>
<path fill="#C21413" d="M28.92,17.047c6.713-7.844,13.914-3.774,17.725-6.165c1.582-0.993,0.693,4.074,1.334,7.479
	c0.484,2.568-10.289-5.088-16.303,1.288C31.676,19.649,28.303,17.766,28.92,17.047z"/>
<path fill="#302C3B" d="M34.381,28.282l-1.318,2.92l-4.545,6.534c-1.33,1.31-1.33,3.436,0,4.745l6.42-2.334
	c2.205-0.973,1.525-3.018,2.109-3.65c1.988-2.155,4.74-1.481,6.246-4.506c0.799-1.605,0.584-3.803-0.277-5.269L34.381,28.282z"/>
<path fill="#006DAE" d="M45.24,27.768c-2.24-3.747-6.307-3.333-9.061-5.878c-5.752-5.313-9.213-2.854-9.072-1.751
	c0.391,3.122-0.061,5.505,0.836,6.335l5.119,4.728c0,0,1.715-1.642,4.686-2.135C42.631,28.254,45.24,27.768,45.24,27.768z"/>
<path fill="#006DAE" d="M29.842,50.9c-1.326,0.474-2.01,1.919-1.529,3.226l0.875,2.363l10.416-3.729l-1.752-4.731L29.842,50.9z"/>
<path fill="#014D87" d="M28.607,54.915c-0.443,0.155-0.672,0.636-0.512,1.073c0.16,0.437,0.65,0.662,1.092,0.501l10.416-3.729
	l-0.584-1.576L28.607,54.915z"/>
<polygon fill="#006DAE" points="37.852,48.029 31.445,50.325 28.529,42.443 34.938,40.146 "/>
<path fill="#014D87" d="M33.484,46.027l-3.205,1.144c-0.443,0.162-0.674,0.641-0.51,1.078c0.162,0.437,0.648,0.66,1.092,0.502
	l3.203-1.15c0.443-0.156,0.674-0.639,0.51-1.075C34.414,46.092,33.926,45.866,33.484,46.027z"/>
<path fill="#014D87" d="M32.316,42.872l-3.203,1.149c-0.445,0.157-0.672,0.64-0.51,1.073c0.158,0.438,0.65,0.66,1.092,0.501
	L32.9,44.45c0.441-0.158,0.668-0.639,0.508-1.076C33.248,42.938,32.758,42.714,32.316,42.872z"/>
<path fill="#E03636" d="M18.773,60.218c-0.883,0.319-1.863-0.13-2.186-1.002l-1.604,0.576c0.65,1.741,2.604,2.638,4.373,2.004
	L53,49.745l-0.584-1.576L18.773,60.218z"/>
<path fill="#E03636" d="M51.061,27.558L13.822,42.104l0.633,1.56l37.236-14.545c0.438-0.173,0.65-0.66,0.475-1.09
	C51.994,27.598,51.498,27.388,51.061,27.558z"/>
<path fill="#302C3B" d="M49.939,31.604c0.178,0.431,0.674,0.641,1.107,0.472l0,0c0.438-0.172,0.654-0.659,0.48-1.09l-1.885-4.676
	c-0.174-0.43-0.676-0.642-1.109-0.471l0,0c-0.436,0.17-0.652,0.66-0.479,1.088L49.939,31.604z"/>
<path fill="#014D87" d="M29.012,18.664c-1.414,0.042-2.801,1.242-2.477,2.593c1.869,7.852-4.521,15.455-4.521,15.455l3.73,3.446
	c0,0,8.352-11.856,5.902-19.057C31.199,19.781,30.422,18.619,29.012,18.664z"/>
<path fill="#302C3B" d="M21.211,37.555c-1.705-0.177-2.158,0.95-3.447,1.646c-0.66,0.354-0.941,1.203-0.482,1.554l0.887-0.347
	c-0.148,1.044-0.602,3.089,0.537,2.916c2.07-0.317,2.432,0.879,4.645,0.045c0.805-0.303,1.561-1.584,1.588-2.366l0.807-0.845
	l-3.73-3.446L21.211,37.555z"/>
<path fill="#0FB4D4" d="M17.497,16.653c-1.072-0.097-2.426,0.704-4.582,2.445l1.96,2.427c0.592-0.478,0.887,0.042,1.3,0.551
	c0.815,1.011,3.657-1.292,3.772-2.236C20.103,18.568,18.841,16.774,17.497,16.653z"/>
<path fill="#A0D8E9" d="M16.588,16.763l-0.62,5.055c0.066,0.082,0.747,0.558,1.135,0.467l0.684-5.577
	C17.692,16.681,16.915,16.665,16.588,16.763z"/>
<path fill="#302C3B" d="M22.459,16.409l-1.212-1.5L18.704,16.9c-0.375-0.275-0.776-0.454-1.177-0.49
	c-1.093-0.1-2.384,0.579-4.763,2.499c-0.184,0.148,0.192,0.46,0.302,0.375c2.266-1.764,3.468-2.473,4.402-2.389
	c0.552,0.05,1.155,0.448,1.617,1.068c0.446,0.601,0.685,1.311,0.617,1.854c-0.032,0.262-0.433,0.823-1.137,1.393
	c-0.834,0.673-1.856,1.133-2.198,0.71c-0.041-0.052-0.083-0.103-0.123-0.155c-0.255-0.326-0.498-0.634-0.86-0.67
	c-0.217-0.022-0.434,0.059-0.66,0.243c-0.151,0.122,0.179,0.476,0.302,0.375c0.118-0.095,0.218-0.139,0.293-0.131
	c0.162,0.015,0.343,0.246,0.534,0.491c0.041,0.054,0.083,0.107,0.126,0.162c0.607,0.752,1.937,0.12,2.89-0.649
	c0.596-0.482,1.256-1.187,1.321-1.725c0.056-0.444-0.055-0.955-0.282-1.453L22.459,16.409z"/>
<path fill="#C21413" d="M24.332,5.751c-0.031,5.174-7.441,5.434-7.414,0.259C16.947,0.84,24.363,0.58,24.332,5.751z"/>
<path fill="#E03636" d="M29.52,14.333c-0.033,2.797-17.844,2.999-17.809,0.202C11.857,1.993,29.668,1.791,29.52,14.333z"/>
<path fill="#C21413" d="M28.932,18.159c-5.508-0.9-11.137-0.892-16.646,0.025c-1.084,0.19-1.891-3.568-0.68-3.78
	c5.963-0.992,12.057-1.003,18.018-0.027C30.834,14.583,30.018,18.346,28.932,18.159z"/>
<path fill="#E03636" d="M20.74,25.933c0.643,1.225,2.527-0.211,3.197,0.025c0.709,0.252,1.496,1.672,2.27,1.521
	c2.164-0.421,0.084-4.626,1.066-5.982c0.73-1.008,5.232-1.229,5.756-2.294c0.18-0.366-1.07-0.933-1.256-1.299
	c-0.182-0.36,0.307-1.333-0.191-1.517c-1.701-0.622-5.189,1.831-6.598,2.721C23.213,20.226,19.924,24.378,20.74,25.933z"/>
</svg>
