<?xml version="1.0" encoding="utf-8"?>
<!-- Generator: Adobe Illustrator 15.0.0, SVG Export Plug-In . SVG Version: 6.00 Build 0)  -->
<!DOCTYPE svg PUBLIC "-//W3C//DTD SVG 1.1//EN" "http://www.w3.org/Graphics/SVG/1.1/DTD/svg11.dtd">
<svg version="1.1" id="Layer_1" xmlns="http://www.w3.org/2000/svg" xmlns:xlink="http://www.w3.org/1999/xlink" x="0px" y="0px"
	 width="64px" height="64px" viewBox="0 0 64 64" enable-background="new 0 0 64 64" xml:space="preserve">
<path fill="#CFD8DD" d="M52.789,49.949c0,0,12.42,12.051,2.135,12.051C43.146,62,5,62,5,62v-3.828h3.947l0.695-7.24h4.955
	l0.438,7.24h22.107c1.854,0,1.363-1.568,1.363-3.719l3.949-0.211c0,2.586-0.557,3.93,1.932,3.93c0.883,0,6.045,0,7.465,0
	c5.621,0-1.885-6.723-1.885-6.723L52.789,49.949z"/>
<polygon fill="#6E8189" points="8.947,58.172 9.643,50.932 10.668,50.932 9.973,58.172 "/>
<path fill="#6E8189" d="M39.529,54.453c0,2.15,0.49,3.719-1.363,3.719h-1.023c1.854,0,1.363-1.568,1.363-3.719H39.529z"/>
<path fill="#6E8189" d="M6.025,58.172V62C5.369,62,5,62,5,62v-3.828H6.025z"/>
<path fill="#6E8189" d="M50.99,51.449c0,0,7.506,6.723,1.885,6.723c-0.242,0-0.602,0-1.023,0c5.621,0-1.885-6.723-1.885-6.723H50.99
	z"/>
<path fill="#BEC3CF" d="M44.74,41.953c0,0-9.324-3.934-13.066-12.893c-4.143-9.917,0.598-23.108,0.598-23.108
	c-0.014-4.56-9.945-4.712-11.037-0.628C21.234,5.324,24.045,56.723,44.74,41.953z"/>
<path fill="#CFD8DD" d="M8.914,5.635c-0.17-2.162,9.539-4.233,14.805-3.475c3.516,0.506,4.602,3.951,4.709,5.584
	c0.352,5.443-2.264,15.793-0.725,21.051c1.357,4.646,9.211,13.604,14.439,13.639c0.828,0.006,2.26-1.33,2.996-0.98
	c2.506,1.189,10.475,2.084,9.707,7.1c-0.691,4.533-20.715,11.49-32.848-1.893h-15.9c0,0-0.658-3.395-0.658-8.418
	C5.439,30.045,10.193,22.031,8.914,5.635z"/>
<path fill="#302C3B" d="M54.846,48.553c-0.691,4.533-8.242,7.258-16.797,7.533c-4.223,0.137-12.867-0.486-14.758-6.783
	c-0.705-2.35-3.887-1.043-3.887-1.043l-1.607,6.137H7.561c0,0-2.121-1.191-2.121-8.922h16.559c1.656,0,2.721,3.957,10.002,6.541
	C38.576,54.348,51.178,53.932,54.846,48.553z"/>
<path fill="#E6EBEF" d="M10.727,7.258c-0.121-2.526,7.305-4.994,12.568-4.236c3.518,0.508,4.604,3.953,4.707,5.585
	c0.354,5.445-2.26,15.794-0.723,21.052c1.359,4.645,9.213,13.604,14.439,13.637c0.828,0.006,2.26-1.33,2.998-0.979
	c2.504,1.189,11.601,2.787,8.359,6.762c-3.037,3.725-20.783,5.732-29.695-4.707H7.808C6.365,32.973,11.615,25.745,10.727,7.258z"/>
<ellipse fill="#6E8189" cx="36.18" cy="43.834" rx="2.049" ry="1.965"/>
<ellipse fill="#6E8189" cx="28.987" cy="37.402" rx="2.048" ry="1.967"/>
<ellipse fill="#6E8189" cx="24.493" cy="29.777" rx="2.048" ry="1.965"/>
<ellipse fill="#6E8189" cx="24.046" cy="20.292" rx="2.048" ry="1.966"/>
<ellipse fill="#6E8189" cx="24.493" cy="12.311" rx="2.048" ry="1.965"/>
<path fill="#302C3B" d="M30.076,16.89c-0.057,1.399-1.613,2.321-5.582,1.821c-1.518-0.19-1.955,3.092-0.449,3.357
	C33.555,23.748,30.096,16.434,30.076,16.89z"/>
<path fill="#302C3B" d="M30.461,24.971c0.205,1.388-1.395,2.637-5.869,2.932c-1.711,0.112-1.563,3.426,0.15,3.389
	C35.559,31.058,30.395,24.52,30.461,24.971z"/>
<path fill="#302C3B" d="M32.535,30.867c0.76,1.197-0.211,2.967-4.164,4.908c-1.512,0.742-0.01,3.729,1.535,3.055
	C39.658,34.578,32.289,30.477,32.535,30.867z"/>
<path fill="#302C3B" d="M37.098,36.744c1.119,0.9,0.809,2.857-2.199,5.805c-1.154,1.127,1.275,3.48,2.48,2.408
	C44.992,38.189,36.732,36.451,37.098,36.744z"/>
<path fill="#E6EBEF" d="M27.025,58.172l-2,3.828C24.369,62,14,62,14,62l2-3.828H27.025z"/>
<path fill="#E6EBEF" d="M31.588,58.172l-2,3.828c-0.656,0-3.025,0-3.025,0l2-3.828H31.588z"/>
<path fill="#E6EBEF" d="M48.671,58.172l-2,3.828c-0.656,0-3.025,0-3.025,0l2-3.828H48.671z"/>
<path fill="#E6EBEF" d="M51.88,58.172l-2,3.828c-0.656,0-2.025,0-2.025,0l2-3.828H51.88z"/>
</svg>
