<?xml version="1.0" encoding="utf-8"?>
<!-- Generator: Adobe Illustrator 15.0.0, SVG Export Plug-In . SVG Version: 6.00 Build 0)  -->
<!DOCTYPE svg PUBLIC "-//W3C//DTD SVG 1.1//EN" "http://www.w3.org/Graphics/SVG/1.1/DTD/svg11.dtd">
<svg version="1.1" id="Layer_1" xmlns="http://www.w3.org/2000/svg" xmlns:xlink="http://www.w3.org/1999/xlink" x="0px" y="0px"
	 width="64px" height="64px" viewBox="0 0 64 64" enable-background="new 0 0 64 64" xml:space="preserve">
<path fill="#FDCA47" d="M39.022,13.233c0,0-1.904,4.293-1.359,7.486C29.725,24.365,32.948,12.285,39.022,13.233z"/>
<path fill="#EA8800" d="M7.117,47.516c-2.822-2.805-2.822-7.35,0-10.154c2.824-2.805,7.406-2.805,10.23,0
	c2.822,2.805,2.822,7.35,0,10.154C14.523,50.32,9.941,50.32,7.117,47.516z"/>
<path fill="#302C3B" d="M9.092,42.398c0.064-1.992,0.375-6.074,2.479-7.109c-0.086,0.023-0.148,0.043-0.186,0.059
	c-2.293,0.838-2.803,5.131-2.895,7.025c-0.084,2.43,0.348,5.9,2.803,7.186C9.264,47.914,8.977,44.805,9.092,42.398z"/>
<path fill="#302C3B" d="M12.215,41.867c-0.359-2.957,2.578-4.32,5.084-4.553c-2.857-0.273-6.023,1.379-5.684,4.617
	c0.326,2.773,2.781,4.898,5.133,6.115C14.803,46.535,12.482,44.479,12.215,41.867z"/>
<path fill="#302C3B" d="M6.584,37.953c0.596,1.943,0.41,6.09-0.74,7.855C7.668,44.547,7.895,39.615,6.584,37.953z"/>
<path fill="#302C3B" d="M11.662,40.395c-1.881-0.193-5.549-0.262-6.654,1.723c1.406-1.652,4.814-1.359,6.719-1.125
	c2.711,0.336,5.523,1.248,7.525,3.17C17.578,41.783,14.459,40.678,11.662,40.395z"/>
<path fill="#FDCA47" d="M46.058,47.525c-1.047,0.311-5.911,3.465-3.644,4.211c4.401,1.447,6.976-0.793,12.085,0.158v-4.162
	C54.499,47.732,51.198,45.988,46.058,47.525z"/>
<path fill="#C21413" d="M36.664,45.182c0,0,2.541,6.441,7.96,8.617c0,0,1.861-1.836,2.1-7.629c-2.246-1.174,1.08-5.105-2.857-8.834
	L36.664,45.182z"/>
<path fill="#E6EBEF" d="M46.724,46.17c-0.24,5.123-1.652,6.967-2.1,7.629c0.412,0.174,0.834,0.32,1.268,0.426
	c0,0,1.672-1.672,1.91-7.467C47.349,46.59,47.009,46.389,46.724,46.17z"/>
<path fill="#E03636" d="M57.747,47.018v11.18c0,0.168,1.252,0.168,1.252,0v-11.18C58.999,46.85,57.747,46.85,57.747,47.018z"/>
<path fill="#302C3B" d="M53.788,47.188c0.934,2.543,0.6,3.744,0.283,4.68c-0.43-0.352-1.633-0.328-2.055-0.295
	c-0.625,0.053-0.363,2.143,0.732,1.428c0.547-0.357,0.855-0.438,1.025-0.426l0,0c2.986,3.414,1.807,4.455,3,5.623
	c0.174,0.168,0.973,0,0.973,0v-11.18C57.747,47.018,53.476,46.332,53.788,47.188z"/>
<path fill="#FDCA47" d="M11.428,28.211c2.654-2.506,8.295-4.875,9.766-5.084c3.719-0.529,6.34-1.367,6.34-1.367
	c1.504-1.084,2.301-1.305,3.813-1.113c4.023,0.504,2.705,5.631-0.502,5.23c-2.949-0.369-5.111,0.945-8.518,0.305
	c-1.557,1.229-5.578,0.465-7.906,2.068c-0.795,0.545-0.465,1.109-1.164,2.238c-1.275,2.064-1.414,1.072-0.852-0.727
	c0,0-1.275,0.699-2.129,2.844C9.455,34.666,8.162,31.299,11.428,28.211z"/>
<path fill="#FDCA47" d="M37.66,18.469c-3.412,9.023-7.193,12.689-6.844,1.934C32.016,20.205,34.518,17.68,37.66,18.469z"/>
<path fill="#FDCA47" d="M28.35,43.111c0,0-1.953,0.719-2.58,3.1c-0.514,1.957,0.635,3.68,0.635,11.398h4.223
	c1.639-7.012-0.635-7.248,1.213-8.535L28.35,43.111z"/>
<path fill="#E03636" d="M31.285,60.775H20.004c-0.174,0-0.174,1.225,0,1.225h11.281C31.455,62,31.455,60.775,31.285,60.775z"/>
<path fill="#302C3B" d="M31.109,56.896c-2.598,0.912-3.686,0.584-4.639,0.273c0.357-0.42,0.336-1.598,0.299-2.008
	c-0.053-0.613-2.189-0.357-1.457,0.711c0.365,0.539,0.445,0.838,0.436,1.006l0,0c-3.49,2.926-4.551,1.771-5.744,2.941
	c-0.174,0.166,0,0.955,0,0.955h11.281C31.285,60.775,31.982,56.59,31.109,56.896z"/>
<path fill="#E81C27" d="M43.866,37.336l-11.972-0.697c-0.918,1.773-4.533,3.311-6.258,8.1c0,0,0.752,3.691,7.1,5.537
	C34.568,45.393,46.446,43.111,43.866,37.336z"/>
<path fill="#E6EBEF" d="M25.637,44.738c0,0-0.424,1.281-0.338,2.02c0,0,0.676,3.428,7.021,5.275
	c0.119-0.961,0.416-1.758,0.416-1.758C27.092,48.525,26.295,45.869,25.637,44.738z"/>
<path fill="#E6EBEF" d="M42.857,36.486l-1.529-0.199c0.885,5.322-10.223,7.492-11.998,13.91c0,0,1.148,0.688,1.789,0.875
	C32.682,44.42,45.435,42.264,42.857,36.486z"/>
<path fill="#E81C27" d="M40.32,18.482c-0.5-0.906-3.127-0.168-3.328-0.031c-2.008,1.363-3.945,6.73-3.945,6.73
	c-0.246,0.045-2.58-1.24-1.027-5.029c0.375-0.912-1.512,0.307-1.512,0.307c-2.404,8.557,1.244,9.211,1.396,14.535
	c8.322,2.621,12.021,0.811,12.021,0.811S44.665,26.318,40.32,18.482z"/>
<path fill="#E6EBEF" d="M36.896,18.52c-2.105,1.211-3.996,6.357-3.996,6.357c-0.248,0.047-1.705-1.725-0.727-5.059
	c-0.32-0.139-0.453,0.023-0.453,0.023c-1.52,5.354,1.383,6.209,1.383,6.209C34.25,23.705,35.639,19.568,36.896,18.52z"/>
<path fill="#E6EBEF" d="M31.904,34.994c0.016,0.51,0.016,1.051-0.01,1.645c8.324,2.621,11.972,0.697,11.972,0.697
	s0.045-0.568,0.059-1.531C42.256,36.201,38.377,36.66,31.904,34.994z"/>
<path fill="#E6EBEF" d="M42.756,24.219c1.786,8.314-4.484,9.627-6.27,1.316C34.697,17.223,40.965,15.908,42.756,24.219z"/>
<path fill="#FDCA47" d="M42.32,23.607c1.491,6.928-3.529,7.98-5.018,1.053C35.811,17.73,40.83,16.68,42.32,23.607z"/>
<path fill="#FDCA47" d="M53.374,30.988c-1.455-3.33-2.172-9.541-3.373-10.404c-2.135-1.531-7.142-0.99-9.687-1.699
	c-3.902-1.084-4.035,4.795-0.809,5.02c2.865,0.201,6.271-0.092,7.804-0.021c1.186,3.389,3.84,5.98,2.482,8.42
	c-1.18,2.121-0.305,3.369,0.566,1.977c0,0-0.207,2.951,1.986,2.928C54.589,37.184,54.622,33.854,53.374,30.988z"/>
<path fill="#E6A400" d="M30.128,19.058c4.757-1.778,1.432,9.859,5.999-4.527L30.128,19.058z"/>
<path fill="#FDCA47" d="M34.907,2.648c-7.022,0-8.675,3.944-7.998,6.76c0.339,1.409-0.353,2.589-1.398,3.603
	c-0.995,0.963,0.269,1.579,1.039,1.579c0.188,0.518-0.105,0.656-0.105,0.656s0.967,0.678,0.761,0.907
	c-0.301,0-0.561,0.554-0.01,0.826c0.608,0.299-0.832,2.471,1.613,2.292c1.979-0.145,5.197-1.455,5.697-1.891
	c0.571-0.498,1.938-3.267,1.938-3.267C40.149,13.494,45.485,8.2,34.907,2.648z"/>
<path fill="#E6A400" d="M35.768,11.456c-0.043-1.019,0.759-1.936,1.598-1.971c0,0-1.391,1.267-0.954,2.891
	C36.411,12.376,35.797,12.166,35.768,11.456z"/>
<path fill="#EA8800" d="M27.017,6.692c8.768-3.601,5.765,2.22,8.031,4.636c0.69-2.706,2.699-3.242,3.354-1.631
	c0.748,1.839-0.326,4.269-1.889,4.063c0.173,0.604,1.514,2.395,1.514,2.395C41.733,15.666,45.299,2.001,34.154,2
	C30.026,1.999,26.257,3.698,27.017,6.692z"/>
<path fill="#F5BC2C" d="M29.404,15.22c-0.738,1.2-1.539,1.769-2.058,1.991c-0.837-0.256-0.469-1.152-0.081-1.152
	C27.565,16.058,28.114,15.75,29.404,15.22z"/>
<path fill="#E6A400" d="M29.404,15.22c-0.704,0.733-2.154,0.907-2.154,0.907c-0.214-0.069-0.806-0.238-0.806-0.881
	C26.859,15.573,28.338,15.647,29.404,15.22z"/>
<path fill-rule="evenodd" clip-rule="evenodd" fill="#E6A400" d="M27.43,9.635c0.324-0.557,1.138-0.328,3.352-0.343
	C29.29,8.449,27.228,8.073,27.43,9.635z"/>
<path fill="#FFFFFF" d="M30.153,10.353c-0.201,1.915-1.401,1.751-1.688,1.751C28.104,11.882,26.99,8.712,30.153,10.353z"/>
<path fill="#45332C" d="M27.906,10.787c0.237,1.478,0.932,1.747,0.935-0.194C28.844,9.167,27.714,9.6,27.906,10.787z"/>
<path fill-rule="evenodd" clip-rule="evenodd" fill="#45332C" d="M27.884,10.374c0.208-1.416,1.731-0.441,2.4,0
	C29.251,10.213,28.538,9.758,27.884,10.374z"/>
</svg>
