<?xml version="1.0" encoding="utf-8"?>
<!-- Generator: Adobe Illustrator 15.0.0, SVG Export Plug-In . SVG Version: 6.00 Build 0)  -->
<!DOCTYPE svg PUBLIC "-//W3C//DTD SVG 1.1//EN" "http://www.w3.org/Graphics/SVG/1.1/DTD/svg11.dtd">
<svg version="1.1" id="Layer_1" xmlns="http://www.w3.org/2000/svg" xmlns:xlink="http://www.w3.org/1999/xlink" x="0px" y="0px"
	 width="64px" height="64px" viewBox="0 0 64 64" enable-background="new 0 0 64 64" xml:space="preserve">
<path fill="#FDCA47" d="M40.04,12.84c0,0-1.542,4.263-1.012,7.407C31.326,23.836,34.146,11.908,40.04,12.84z"/>
<path fill="#EA8800" d="M7.117,47.516c-2.822-2.805-2.822-7.35,0-10.154c2.824-2.805,7.406-2.805,10.23,0
	c2.822,2.805,2.822,7.35,0,10.154C14.523,50.32,9.941,50.32,7.117,47.516z"/>
<path fill="#302C3B" d="M9.092,42.398c0.064-1.992,0.375-6.074,2.479-7.109c-0.086,0.023-0.148,0.043-0.186,0.059
	c-2.293,0.838-2.803,5.131-2.895,7.025c-0.084,2.43,0.348,5.9,2.803,7.186C9.264,47.914,8.977,44.805,9.092,42.398z"/>
<path fill="#302C3B" d="M12.215,41.867c-0.359-2.957,2.578-4.32,5.084-4.553c-2.857-0.273-6.023,1.379-5.684,4.617
	c0.326,2.773,2.781,4.898,5.133,6.115C14.803,46.535,12.482,44.479,12.215,41.867z"/>
<path fill="#302C3B" d="M6.584,37.953c0.596,1.943,0.41,6.09-0.74,7.855C7.668,44.547,7.895,39.615,6.584,37.953z"/>
<path fill="#302C3B" d="M11.662,40.395c-1.881-0.193-5.549-0.262-6.654,1.723c1.406-1.652,4.814-1.359,6.719-1.125
	c2.711,0.336,5.523,1.248,7.525,3.17C17.578,41.783,14.459,40.678,11.662,40.395z"/>
<path fill="#FDCA47" d="M46.106,47.447c-1.093,0-4.96,3.543-2.693,4.289c4.402,1.447,5.977-0.793,11.086,0.158v-3.162
	C48.919,48.561,49.272,47.447,46.106,47.447z"/>
<path fill="#C21413" d="M37.356,42.439c0,0-0.773,7.195,4.646,9.373c0,0,3.498,0.393,3.736-5.402
	c-3.237-1.619,1.175-6.588-2.246-11.121L37.356,42.439z"/>
<path fill="#E6EBEF" d="M45.739,46.41c-0.24,5.125-3.289,4.738-3.736,5.402c0.412,0.172,0.834,0.318,1.268,0.426
	c0,0,3.309,0.557,3.547-5.238C46.364,46.832,46.024,46.631,45.739,46.41z"/>
<path fill="#E03636" d="M57.747,48.018v10.18c0,0.168,1.252,0.168,1.252,0v-10.18C58.999,47.85,57.747,47.85,57.747,48.018z"/>
<path fill="#302C3B" d="M53.788,48.188c0.934,2.543,0.6,2.744,0.283,3.68c-0.43-0.352-1.633-0.328-2.055-0.295
	c-0.625,0.053-0.363,2.143,0.732,1.428c0.547-0.357,0.855-0.438,1.025-0.426l0,0c2.986,3.414,1.807,4.455,3,5.623
	c0.174,0.168,0.973,0,0.973,0v-10.18C57.747,48.018,53.476,47.332,53.788,48.188z"/>
<path fill="#FDCA47" d="M12.428,28.211c2.654-2.506,8.295-4.875,9.766-5.084c3.719-0.529,8.641-2.672,10.152-2.48
	c4.023,0.504,2.834,4.51-0.396,4.643c-3.041,0.125-5.259,0.066-8.624,0.893c-1.926,0.473-5.578,0.465-7.906,2.068
	c-0.795,0.545-0.465,1.109-1.164,2.238c-1.275,2.064-1.414,1.072-0.852-0.727c0,0-1.275,0.699-2.129,2.843
	C10.455,34.666,9.162,31.299,12.428,28.211z"/>
<path fill="#FDCA47" d="M38.66,18.469c-3.412,9.023-7.193,12.689-6.844,1.934C33.016,20.206,35.518,17.68,38.66,18.469z"/>
<path fill="#FDCA47" d="M28.533,42.885c0,0-1.137,0.945-1.764,3.326c-0.514,1.957,0.635,3.68,0.635,11.398h3.223
	c1.97-7.693-1.01-8.051,1.97-10.391L28.533,42.885z"/>
<path fill="#E03636" d="M31.285,60.775H21.004c-0.174,0-0.174,1.225,0,1.225h10.281C31.455,62,31.455,60.775,31.285,60.775z"/>
<path fill="#302C3B" d="M31.109,56.896c-2.598,0.912-2.686,0.584-3.639,0.273c0.357-0.42,0.336-1.598,0.299-2.008
	c-0.053-0.613-2.189-0.357-1.457,0.711c0.365,0.539,0.445,0.838,0.436,1.006l0,0c-3.49,2.926-4.551,1.771-5.744,2.941
	c-0.174,0.166,0,0.955,0,0.955h10.281C31.285,60.775,31.982,56.59,31.109,56.896z"/>
<path fill="#E81C27" d="M43.493,35.289l-9.679,0.951c-0.918,1.773-4.333,3.957-6.021,6.426c0,0,0.37,2.936,6.718,4.781
	C36.344,42.564,47.501,43.354,43.493,35.289z"/>
<path fill="#E6EBEF" d="M27.794,42.666c0,0-0.49,0.441-0.958,1.223c0,0,1.864,3.824,7.26,5.314c0.119-0.961,0.416-1.756,0.416-1.756
	C30.804,46.17,28.452,43.797,27.794,42.666z"/>
<path fill="#E6EBEF" d="M42.768,35.357l-1.529-0.199c2.544,5.852-7.438,5.262-9.213,11.68c0,0,0.939,0.688,1.58,0.875
	C35.168,41.061,46.157,42.232,42.768,35.357z"/>
<path fill="#E81C27" d="M41.32,18.483c-0.5-0.906-3.127-0.168-3.328-0.031c-2.008,1.363-3.945,6.73-3.945,6.73
	c-0.246,0.045-2.58-1.24-1.027-5.029c0.375-0.912-1.512,0.307-1.512,0.307c-0.37,4.977-3.255,7.021-0.13,9.736
	c0.84,0.73,2.437,2.476,2.446,4.4c8.322,2.621,9.728-0.838,9.728-0.838S45.665,26.319,41.32,18.483z"/>
<path fill="#E6EBEF" d="M37.896,18.52c-2.105,1.211-3.996,6.357-3.996,6.357c-0.248,0.047-1.705-1.725-0.727-5.059
	c-0.32-0.139-0.453,0.023-0.453,0.023c-1.52,5.354,1.383,6.209,1.383,6.209C35.25,23.706,36.639,19.569,37.896,18.52z"/>
<path fill="#E6EBEF" d="M33.824,34.596c0.016,0.51,0.016,1.051-0.01,1.645c8.324,2.621,9.679-0.951,9.679-0.951
	s0.045-0.568,0.059-1.531C41.882,34.154,40.297,36.262,33.824,34.596z"/>
<path fill="#E6EBEF" d="M43.755,24.219c1.311,6.102-2.708,7.005-4.895,1.164C35.784,17.165,41.967,15.907,43.755,24.219z"/>
<path fill="#FDCA47" d="M43.347,23.602c1.04,4.834-2.131,5.465-3.969,0.875C36.659,17.692,41.859,16.674,43.347,23.602z"/>
<path fill="#FDCA47" d="M54.374,30.989c-1.455-3.33-2.172-9.541-3.373-10.404c-2.135-1.531-7.143-0.99-9.687-1.699
	c-3.458-0.961-3.454,4.297-0.694,4.488c2.865,0.203,6.648-0.029,8.182,0.043c1.186,3.389,3.348,6.447,1.99,8.886
	c-1.18,2.121-0.305,3.369,0.566,1.977c0,0-0.207,2.951,1.986,2.928C55.589,37.184,55.622,33.854,54.374,30.989z"/>
<path fill="#EA8800" d="M47.933,19.975c-1.217-0.672-1.135-6.115,0.041-8.157c2.841-4.932-2.02-9.073-5.786-7.408l1.044,2.905
	C46.72,5.363,40.951,18.924,47.933,19.975z"/>
<path fill="#EA8800" d="M48.827,17.85c-3.188-2.157,1.021-6.604-0.42-10.445C45.193,9.971,44.172,17.496,48.827,17.85z"/>
<path fill="#EA8800" d="M43.938,15.799c-0.968-1.705,4.035-7.132,0.396-8.59C45.133,9.859,41.693,13.656,43.938,15.799z"/>
<path fill="#8E3ED6" d="M41.442,4.284c-1.052,0.757-0.436,3.892,1.676,3.768C44.851,7.954,42.834,3.276,41.442,4.284z"/>
<path fill="#E6A400" d="M31.139,18.532c4.615-1.75,1.968,9.789,6.398-4.377L31.139,18.532z"/>
<path fill="#FDCA47" d="M35.537,2.626c-6.779,0-7.633,3.799-7.011,6.525c0.329,1.447-0.33,2.534-1.389,3.527
	c-0.651,0.612-0.113,1.355,1.146,1.355c0.121,0.574-0.207,0.752-0.207,0.752s0.934,0.654,0.735,0.876
	c-0.29,0-0.722,0.641-0.028,0.938c0.602,0.256-0.707,1.73,1.65,1.944c1.793,0.164,3.848-0.476,5.572-2.008
	c1.044-0.927,1.724-2.844,1.724-2.844C41.307,13.097,45.747,7.985,35.537,2.626z"/>
<path fill="#E6A400" d="M37.077,11.127c-0.041-0.984,0.732-1.869,1.542-1.901c0,0-1.343,1.222-0.922,2.791
	C37.697,12.017,37.104,11.813,37.077,11.127z"/>
<path fill="#EA8800" d="M28.776,5.645c2.112,3.179,5.949,1.761,7.639,4.752c0.613-1.617,2.594-2.469,3.204-0.967
	c0.722,1.775-0.315,4.121-1.823,3.921c0.167,0.583,1.461,2.312,1.461,2.312c3.555-0.463,5.979-8.299,1.592-11.947
	C36.231-0.125,27.258,3.362,28.776,5.645z"/>
<path fill-rule="evenodd" clip-rule="evenodd" fill="#E6A400" d="M29.041,9.102c-0.247-2.02,2.181-0.857,3.048-0.682
	C31.353,8.608,29.602,7.969,29.041,9.102z"/>
<path fill="#F5BC2C" d="M30.891,14.787c-0.712,1.159-1.506,1.672-2.006,1.886c-0.809-0.247-0.433-1.076-0.059-1.076
	C29.115,15.597,29.646,15.299,30.891,14.787z"/>
<path fill="#E6A400" d="M30.891,14.787c-0.68,0.708-2.079,0.876-2.079,0.876c-0.206-0.065-0.735-0.254-0.735-0.876
	C28.478,15.103,29.861,15.199,30.891,14.787z"/>
<path fill="#FFFFFF" d="M31.67,9.794c-0.194,1.848-1.354,1.691-1.63,1.691C29.691,11.271,28.616,8.21,31.67,9.794z"/>
<path fill="#45332C" d="M29.5,10.214c0.229,1.426,0.899,1.686,0.902-0.188C30.405,8.65,29.314,9.067,29.5,10.214z"/>
<path fill-rule="evenodd" clip-rule="evenodd" fill="#45332C" d="M29.479,9.815c0.201-1.367,1.672-0.426,2.317,0
	C30.798,9.659,30.11,9.22,29.479,9.815z"/>
</svg>
