<?xml version="1.0" encoding="utf-8"?>
<!-- Generator: Adobe Illustrator 16.2.0, SVG Export Plug-In . SVG Version: 6.00 Build 0)  -->
<!DOCTYPE svg PUBLIC "-//W3C//DTD SVG 1.1//EN" "http://www.w3.org/Graphics/SVG/1.1/DTD/svg11.dtd">
<svg version="1.1" id="Layer_1" xmlns="http://www.w3.org/2000/svg" xmlns:xlink="http://www.w3.org/1999/xlink" x="0px" y="0px"
	 width="64px" height="64px" viewBox="0 0 64 64" enable-background="new 0 0 64 64" xml:space="preserve">
<rect x="2" y="2" fill="#006DAE" width="60" height="45"/>
<path fill="#529320" d="M7.783,45.773C6.08,45.773,2,44,2,44v18h60V40c-3.666,0-10.525-4-14-4c-2.329,0-12.333,7.416-14.322,7.416
	C32,43.416,29.192,41,28,41C26.645,41,9.833,45.773,7.783,45.773z"/>
<path fill="#D47706" d="M9,55c0-28.667,23-34,23-34s23,5.667,23,34H9z"/>
<path fill="#EA8800" d="M12,51c0-23.329,20-30,20-30s20,8.605,20,30H12z"/>
<path fill="#AB5C10" d="M46.904,30.803c2.374,2.779,4.533,6.287,6.023,10.701C44.744,33.227,32,31,32,31
	s-12.802,2.238-20.984,10.563c1.358-4.117,3.286-7.447,5.435-10.127C16.451,31.435,31.809,18.272,46.904,30.803z"/>
<path fill="#F9B700" d="M32,27c0,0-16.438,2.867-23.965,14.211C13.986,22.761,32,18,32,18V27z"/>
<path fill="#F9C802" d="M32,18c0,0,18.014,4.761,23.965,23.211C48.438,29.867,32,27,32,27V18z"/>
<path fill="#E6EBEF" d="M32,18c0,0-26,5.75-26,37h1c0-30,25-36,25-36s25,6,25,36h1C58,23.75,32,18,32,18z"/>
<path fill="#302C3B" d="M42.3,24.049c0.563-0.422,1.129-0.886,1.694-1.379c1.414,1.021,2.848,2.214,4.244,3.604
	c-0.546,0.489-1.094,0.959-1.643,1.397C45.174,26.262,43.719,25.062,42.3,24.049z"/>
<path fill="#302C3B" d="M54.253,39.396c-0.71-1.816-1.528-3.481-2.428-5.002c0.565-0.407,1.134-0.84,1.704-1.317
	c0.914,1.538,1.744,3.22,2.473,5.051C55.416,38.576,54.833,38.999,54.253,39.396z"/>
<path fill="#F9B700" d="M54.824,51H9.173C9.069,52.285,9,53.606,9,55h46C55,53.607,54.93,52.285,54.824,51z"/>
<path fill="#302C3B" d="M21.7,24.049c-0.563-0.422-1.129-0.886-1.694-1.379c-1.414,1.021-2.848,2.214-4.244,3.604
	c0.545,0.489,1.093,0.959,1.643,1.397C18.826,26.262,20.281,25.062,21.7,24.049z"/>
<path fill="#302C3B" d="M9.747,39.396c0.71-1.816,1.528-3.481,2.428-5.002c-0.565-0.407-1.134-0.84-1.705-1.317
	c-0.913,1.538-1.744,3.22-2.473,5.051C8.583,38.576,9.167,38.999,9.747,39.396z"/>
<path fill="#45332C" d="M25,35c-4.031,0-4,16-4,16h22c0,0,0.031-16-4-16C35.167,35,34,35,25,35z"/>
<path fill="#F9B700" d="M42,31H22c-0.552,0-1,0.896-1,2s0.448,2,1,2h20c0.553,0,1-0.896,1-2S42.553,31,42,31z"/>
<polygon fill="#EA8800" points="25,32 23,34 23,31 25,31 "/>
<polygon fill="#D47706" points="25,32 25,35 23,35 23,34 "/>
<polygon fill="#EA8800" points="41,32 39,34 39,31 41,31 "/>
<polygon fill="#D47706" points="41,32 41,35 39,35 39,34 "/>
<g>
	<rect x="29" y="35" fill="#006DAE" width="2" height="2"/>
	<rect x="33" y="35" fill="#006DAE" width="2" height="2"/>
	<rect x="29" y="39" fill="#006DAE" width="2" height="2"/>
	<rect x="33" y="39" fill="#006DAE" width="2" height="2"/>
</g>
<path fill="#AB5C10" d="M21.133,47C20.998,49.294,21,51,21,51h22c0,0,0.002-1.706-0.133-4H21.133z"/>
<path fill="#014D87" d="M62,28c0,0-2.5-5.33-13-7c-7.146-1.137-9.667-5.167-3-7s3.833-7.5-10-2s-22.666,8.333-20,4s-3.688-4.884-8-1
	c-1.665,1.5-6,4-6,4V2h60V28z"/>
<path fill="#013366" d="M62,14c0,0-4.231-8-16-8c-8.103,0-13.5,4-20,4s-5.982-4-14-4C8.166,6,4,4,2,2h60V14z"/>
<rect x="9.293" y="9.293" transform="matrix(0.7071 -0.7071 0.7071 0.7071 -4.1421 10)" fill="#FFFFFF" width="1.414" height="1.414"/>
<rect x="5.293" y="13.293" transform="matrix(0.7071 -0.7071 0.7071 0.7071 -8.1421 8.3431)" fill="#FFFFFF" width="1.414" height="1.414"/>
<rect x="39.293" y="15.293" transform="matrix(0.7071 -0.7071 0.7071 0.7071 0.402 32.9706)" fill="#FFFFFF" width="1.414" height="1.414"/>
<rect x="17.293" y="15.293" transform="matrix(0.7071 -0.7071 0.7071 0.7071 -6.0416 17.4142)" fill="#FFFFFF" width="1.414" height="1.414"/>
<rect x="8.293" y="24.293" transform="matrix(0.7071 -0.7071 0.7071 0.7071 -15.0416 13.6863)" fill="#FFFFFF" width="1.414" height="1.414"/>
<rect x="56.293" y="26.293" transform="matrix(0.7071 -0.7071 0.7071 0.7071 -2.397 48.2132)" fill="#FFFFFF" width="1.414" height="1.414"/>
<rect x="32.293" y="7.293" transform="matrix(0.7071 -0.7071 0.7071 0.7071 4.0086 25.6777)" fill="#FFFFFF" width="1.414" height="1.414"/>
<rect x="27.293" y="12.293" transform="matrix(0.7071 -0.7071 0.7071 0.7071 -0.9914 23.6066)" fill="#FFFFFF" width="1.414" height="1.414"/>
<rect x="18.586" y="4.586" transform="matrix(0.7071 -0.7071 0.7071 0.7071 1.6152 15.8995)" fill="#FFFFFF" width="2.828" height="2.828"/>
<rect x="41.293" y="4.293" transform="matrix(0.7071 -0.7071 0.7071 0.7071 8.766 31.163)" fill="#FFFFFF" width="1.414" height="1.414"/>
<path fill="#302C3B" d="M6,49c-0.552,0-1,0.447-1,1l1,5h1v-5C7,49.447,6.552,49,6,49z"/>
<path fill="#302C3B" d="M58,49c-0.553,0-1,0.447-1,1v5h1l1-5C59,49.447,58.553,49,58,49z"/>
<path fill="#FFFFFF" d="M50.079,5c-1.078,0-7.227,6.272-1.629,11.87C53.165,21.585,60,16,60,14.884c0,0-4.879,2.232-8.56-1.436
	C47.698,9.719,50.079,5,50.079,5z"/>
</svg>
