<?xml version="1.0" encoding="utf-8"?>
<!-- Generator: Adobe Illustrator 15.0.0, SVG Export Plug-In . SVG Version: 6.00 Build 0)  -->
<!DOCTYPE svg PUBLIC "-//W3C//DTD SVG 1.1//EN" "http://www.w3.org/Graphics/SVG/1.1/DTD/svg11.dtd">
<svg version="1.1" id="Layer_1" xmlns="http://www.w3.org/2000/svg" xmlns:xlink="http://www.w3.org/1999/xlink" x="0px" y="0px"
	 width="64px" height="64px" viewBox="0 0 64 64" enable-background="new 0 0 64 64" xml:space="preserve">
<path fill="#302C3B" d="M62,11.276c0,0-19.869-1.636-30,3.058C21.87,9.641,2,11.276,2,11.276v6.559c0,0,12.435-1.546,22.195,1.488
	c-6.14,5.299-9.047,11.272-9.047,16.868c0,22.412,33.705,22.412,33.705,0c0-5.595-2.906-11.569-9.049-16.868
	C49.566,16.29,62,17.835,62,17.835V11.276z M40.686,36.191c0,12.375-17.368,12.375-17.368,0c0-4.364,2.816-9.119,8.683-13.146
	C37.866,27.073,40.686,31.828,40.686,36.191z"/>
</svg>
