<?xml version="1.0" encoding="utf-8"?>
<!-- Generator: Adobe Illustrator 15.0.0, SVG Export Plug-In . SVG Version: 6.00 Build 0)  -->
<!DOCTYPE svg PUBLIC "-//W3C//DTD SVG 1.1//EN" "http://www.w3.org/Graphics/SVG/1.1/DTD/svg11.dtd">
<svg version="1.1" id="Layer_1" xmlns="http://www.w3.org/2000/svg" xmlns:xlink="http://www.w3.org/1999/xlink" x="0px" y="0px"
	 width="64px" height="64px" viewBox="0 0 64 64" enable-background="new 0 0 64 64" xml:space="preserve">
<path fill="#006DAE" d="M62,14c-6.014,0-10.995,1.305-15,3.387C42.995,15.305,38.015,14,32,14c-6.014,0-10.995,1.305-15,3.387
	C12.995,15.305,8.015,14,2,14v6.234c3.429,0,6.434,0.534,9.024,1.438c-4.701,4.553-6.927,10.354-6.927,15.161
	c0,17.555,25.806,17.555,25.806,0c0-4.807-2.226-10.608-6.928-15.161c2.591-0.904,5.596-1.438,9.024-1.438s6.434,0.534,9.024,1.438
	c-4.701,4.553-6.927,10.354-6.927,15.161c0,17.555,25.806,17.555,25.806,0c0-4.807-2.226-10.608-6.928-15.161
	c2.591-0.904,5.596-1.438,9.024-1.438V14z M23.649,36.834c0,9.782-13.298,9.782-13.298,0c0-3.748,2.157-8.504,6.648-11.963
	C21.491,28.33,23.649,33.086,23.649,36.834z M53.649,36.834c0,9.782-13.298,9.782-13.298,0c0-3.748,2.157-8.504,6.648-11.963
	C51.491,28.33,53.649,33.086,53.649,36.834z"/>
</svg>
