<?xml version="1.0" encoding="utf-8"?>
<!-- Generator: Adobe Illustrator 15.0.0, SVG Export Plug-In . SVG Version: 6.00 Build 0)  -->
<!DOCTYPE svg PUBLIC "-//W3C//DTD SVG 1.1//EN" "http://www.w3.org/Graphics/SVG/1.1/DTD/svg11.dtd">
<svg version="1.1" id="Layer_1" xmlns="http://www.w3.org/2000/svg" xmlns:xlink="http://www.w3.org/1999/xlink" x="0px" y="0px"
	 width="64px" height="64px" viewBox="0 0 64 64" enable-background="new 0 0 64 64" xml:space="preserve">
<path fill="#E81C27" d="M32,7C18.193,7,7,18.193,7,32c0,13.808,11.193,25,25,25s25-11.192,25-25C57,18.193,45.807,7,32,7z M32,49
	c-9.389,0-17-7.611-17-17s7.611-17,17-17s17,7.611,17,17S41.389,49,32,49z"/>
<path fill="#C21413" d="M32,15c4.439,0,8.469,1.716,11.497,4.503C40.39,16.128,35.949,14,31,14c-9.389,0-17,7.611-17,17
	c0,4.949,2.128,9.39,5.503,12.497C16.716,40.469,15,36.439,15,32C15,22.611,22.611,15,32,15z"/>
<path fill="#C21413" d="M49.165,13.834C53.399,18.313,56,24.351,56,31c0,13.808-11.193,25-25,25c-6.649,0-12.688-2.601-17.166-6.835
	C18.392,53.987,24.842,57,32,57c13.807,0,25-11.192,25-25C57,24.842,53.987,18.392,49.165,13.834z"/>
<path fill="#F46C60" d="M32.701,8.647c1.954,0,1.469-0.96-0.96-0.96c-13.261,0-24.012,10.75-24.012,24.011
	c0,3.372,0.961,3.845,0.961,0.96C8.69,19.397,19.44,8.647,32.701,8.647z"/>
<path fill="#F46C60" d="M32.655,50.866c9.954,0,18.023-8.069,18.023-18.023c0-2.394-1.06-2.927-1.06-1.06
	c0,9.955-8.069,18.024-18.024,18.024C29.624,49.807,30.145,50.866,32.655,50.866z"/>
</svg>
